<svg xmlns="http://www.w3.org/2000/svg" id="Layer_1" viewBox="0 0 886.5 882.4"><style>.st0{fill:#4CAF50;} .st1{opacity:0.5;fill:#5A7A3B;enable-background:new ;} .st2{opacity:0.2;fill:none;stroke:#FFFFFF;stroke-width:3;stroke-miterlimit:10;enable-background:new ;} .st3{opacity:0.5;fill:#4CAF50;enable-background:new ;} .st4{fill:#FFFFFF;}</style><path d="M.8-.1h886.3v882.6H.8z" class="st0"/><path d="M646.5 382.3c-14.7-26.5-35.9-50.9-48.1-64l17.5-2.2c3.1-.4 5.6-2.9 6-6s-1.4-6.1-4.3-7.3c-19.3-7.7-27.8-24.5-39.6-47.8-4.4-8.7-9.4-18.5-15.5-28.8-26.9-45.6-97.7-52.4-137.5-52.4-47 0-104.3 13.2-126.5 49.9-19.1 6.9-24.4 20.4-24.6 21-1 2.6-.3 5.5 1.6 7.4 2 1.9 4.9 2.5 7.4 1.5 2.2-.9 3.7-1.3 4.7-1.5-.1.7-.3 1.7-.6 2.4-5.9 9.8-68.9 115.7-72.8 167-1.8 24.1 1.1 43.4 8.8 57.2 6.2 11.2 13.5 14.7 14.3 15.1 2.3 1 4.9.7 6.9-.7s3.1-3.8 2.9-6.3c-.3-3.1.2-8.8 2.2-10.9.3-.3 1-1.1 3.2-.9 5.4.3 9.6 2.3 12.4 6 4.5 5.9 5.5 16.1 2.9 28-.6 2.9.6 5.8 3.1 7.4 1.1.7 2.4 1 3.6 1 1.6 0 3.2-.5 4.4-1.6l35.2-29.3c7.6 28.9 18.5 62.4 30 79.5 14.4 21.4 59.1 43.2 80.7 43.2 23.8 0 70.2-16.4 85.9-41 11.3-17.8 24.3-51.5 33.6-80.5 10.8 11.2 31.2 27.8 51.9 20.3 2.2-.8 3.8-2.6 4.3-4.8.6-2.2 0-4.6-1.5-6.3-3.4-3.9-8-11.5-7.2-15.6.1-.5.3-1.8 2.8-3 1.5-.8 3-.8 4.8-.2 9.4 3.3 20.7 21.9 25.7 32.9 1.1 2.3 3.3 3.9 5.8 4.1 2.6.2 5-1.1 6.3-3.3.4-.7 10.7-17.6 17-41.8 8.7-32.7 6-63-7.7-87.7z" class="st1"/><path d="M500 275.3c-.9-.7-23.8-16.2-72.4-16.2-47 0-66.9 15.7-67.7 16.4M485 251.1c-.7-.5-18.7-12.7-56.9-12.7-36.9 0-52.6 12.4-53.2 12.9" class="st2"/><path d="M487.1 361.5c0 10.3-15.5 10.3-15.5 0s15.5-10.3 15.5 0m-102.6 0c0 10.3-15.5 10.3-15.5 0s15.5-10.3 15.5 0" class="st3"/><path d="M415.9 498.6l-57.9 15c-1.3.3-2.6-.8-2.3-2.2 5.9-30.2 44.2-44.5 44.6-44.7.7-.3 1.4-.5 2-.2 7.3 3.8 15.7 5.5 22.7 5.5 7.4 0 16.2-2.3 23.8-6.3.8-.4 1.8-.2 2.4.5.5.7 1.1 1.4 1.7 1.6 30.9 10.7 39.9 34.1 42.3 43.2.4 1.4-.9 2.7-2.3 2.3l-53.3-14.6c-7.7-2-15.9-2.1-23.7-.1zm27.3 53c-4.4 4.4-8.9 7.1-11.9 7.8-.2 0-.4.1-.6.1-4.2-.2-12.5-4-19.7-11.3-3.6-3.6-7.7-6-9.8-17.9-.2-1.1.7-2.2 1.9-2.2h48.7c1.2 0 2 1 1.9 2.2-2 12.2-6.5 17.2-10.5 21.3zm-119-184.2s-.1-.4-.2-1.1-.3-1.7-.4-3-.3-2.9-.4-4.6c-.1-1.8-.1-3.8-.1-6.1 0-2.2.2-4.7.6-7.2.4-2.6.9-5.3 1.7-8.1.4-1.4.9-2.8 1.5-4.2l.9-2.1s.7-1.4 1-2.1c1.5-2.8 3.3-5.4 5.4-7.8 2.2-2.4 4.6-4.5 7.2-6.3s5.3-3.2 8-4.3c2.7-1.2 5.3-1.9 7.8-2.6 1.3-.3 2.5-.6 3.7-.8 1.2-.2 2.3-.4 3.5-.5 1.1-.1 2.2-.3 3.2-.3 1-.1 2-.1 2.9-.2 1.8-.1 3.4 0 4.7 0 1.3 0 2.3.1 3 .2s1.1.1 1.1.1-.3.1-1 .4c-.6.2-1.6.6-2.8 1.1-1.2.5-2.6 1-4.3 1.6-1.6.6-3.5 1.3-5.4 2.1-2 .8-4.1 1.7-6.2 2.7s-4.4 2.1-6.5 3.4c-1.1.6-2.2 1.3-3.2 2s-2.1 1.4-3.1 2.2c-2 1.6-3.9 3.3-5.6 5.2-1.7 1.9-3.2 4-4.6 6.1-.4.5-.6 1.1-1 1.7-.3.5-.6 1.1-.9 1.7-.6 1.1-1.1 2.3-1.6 3.4-2 4.6-3.5 9.3-4.6 13.4-.3 1-.6 2-.8 3-.3.9-.5 1.8-.8 2.7-.5 1.7-.9 3.2-1.3 4.4-.4 1.2-.7 2.2-.9 2.9-.4.6-.5 1-.5 1zm207.3-6.2s-.2-.3-.5-.9-.8-1.5-1.4-2.6c-.6-1.1-1.3-2.5-2.1-4.1-.4-.8-.8-1.6-1.3-2.5-.4-.9-.9-1.8-1.4-2.7-2-3.8-4.4-8-7.2-12.2-.8-1-1.5-2.1-2.3-3l-1.2-1.5s-.8-1-1.3-1.4c-1.8-1.9-3.6-3.6-5.7-5.1-2-1.5-4.3-2.8-6.5-4-1.1-.6-2.3-1.1-3.5-1.6-1.2-.4-2.4-.9-3.6-1.3-2.4-.8-4.8-1.4-7.1-2-2.3-.5-4.6-1-6.6-1.4-2.1-.4-4-.7-5.8-1-1.7-.3-3.3-.5-4.5-.8-1.3-.2-2.3-.4-2.9-.5-.7-.1-1-.2-1-.2s.4-.1 1-.3c.7-.2 1.6-.5 2.9-.8s2.8-.6 4.6-.9c.9-.1 1.8-.3 2.9-.4 1-.1 2.1-.2 3.2-.3 1.1-.1 2.3-.1 3.5-.2h3.8c2.6.1 5.4.4 8.2 1 2.8.6 5.8 1.4 8.7 2.6 2.9 1.2 5.7 2.8 8.3 4.7 2.6 1.9 4.9 4.2 6.9 6.6.5.6 1 1.2 1.4 1.8.5.6.9 1.2 1.3 1.9.9 1.3 1.6 2.5 2.3 3.8 1.4 2.6 2.4 5.1 3.3 7.6.8 2.5 1.5 4.8 2 7s.9 4.2 1.1 6c.3 1.8.4 3.3.5 4.6.1 1.3.1 2.3.2 3-.2.7-.2 1.1-.2 1.1zM309.8 711.4h31.1v3.4h-27.2v21.5h22.8v3.4h-22.8v25h28v3.4h-32v-56.7h.1zm56.1 18h35.4v3.3h-35.4v-3.3zm0 17.5h35.4v3.3h-35.4v-3.3zm63.5-20h3.3l.3 6.4h.3c1.8-2.1 3.9-3.9 6.2-5.3 2.3-1.4 4.6-2.1 6.9-2.1 3.3 0 5.9.8 7.7 2.3s3 3.6 3.8 6.2c2.4-2.6 4.8-4.6 7-6.2 2.3-1.5 4.6-2.3 7-2.3 8.3 0 12.4 5.3 12.4 15.9v26.5h-3.9v-26c0-4.4-.7-7.7-2.2-9.8s-3.8-3.1-7-3.1c-3.7 0-7.9 2.6-12.4 7.8v31.2H455v-26c0-4.4-.7-7.7-2.2-9.8s-3.8-3.1-7.1-3.1c-3.7 0-7.9 2.6-12.4 7.8v31.2h-3.8l-.1-41.6zm66.5 20.7c0-3.4.5-6.5 1.6-9.3 1-2.7 2.4-5 4.1-6.9 1.7-1.8 3.7-3.2 6-4.2s4.7-1.5 7.2-1.5c2.9 0 5.3.5 7.2 1.6 1.9 1 3.6 2.2 5 3.5l-2.2 2.7c-1.3-1.3-2.8-2.3-4.4-3.1-1.6-.8-3.4-1.2-5.4-1.2-2.1 0-4.1.4-5.9 1.3-1.8.9-3.4 2.2-4.7 3.8-1.4 1.6-2.4 3.6-3.2 5.8-.8 2.2-1.2 4.7-1.2 7.5 0 2.7.4 5.2 1.1 7.4s1.7 4.2 3 5.8 2.9 2.9 4.7 3.7c1.9.9 3.9 1.3 6.2 1.3 2.2 0 4.2-.5 6.1-1.4 1.9-.9 3.5-2 5-3.4l2 2.6c-1.8 1.6-3.8 2.9-5.9 4-2.2 1-4.6 1.6-7.2 1.6-2.7 0-5.2-.5-7.5-1.5s-4.3-2.4-5.9-4.2c-1.7-1.8-3-4.1-4-6.8-1.2-2.6-1.7-5.6-1.7-9.1zm36.3-9.5c2.6-2.7 5-5.1 6.9-7.2 2-2.1 3.6-4.1 5-5.8 1.3-1.8 2.3-3.4 3-4.9s1-2.9 1-4.3c0-2-.6-3.7-1.7-5.1-1.1-1.4-2.9-2.1-5.3-2.1-1.5 0-2.8.4-4.1 1.2s-2.4 1.8-3.4 3l-1.5-1.4c1.2-1.3 2.5-2.5 4-3.4s3.2-1.4 5.2-1.4c2.9 0 5.1.8 6.7 2.5 1.6 1.6 2.4 3.8 2.4 6.5 0 1.6-.4 3.2-1.1 4.8-.7 1.6-1.7 3.3-3 5-1.3 1.8-2.8 3.6-4.6 5.6s-3.8 4.2-6.1 6.5c.9-.1 1.8-.1 2.7-.2.9 0 1.8-.1 2.7-.1h11v2h-19.7v-1.2h-.1z" class="st4"/><path d="M463.2 354.3s.4-.5 1.2-1.2c.8-.7 2-1.7 3.6-2.6.8-.5 1.7-.9 2.7-1.3s2.1-.7 3.3-1c1.2-.2 2.4-.4 3.7-.5h1.9c.6.1 1.3.1 1.9.2 1.3.2 2.5.5 3.7.9s2.3 1 3.4 1.5c1 .6 2 1.3 2.8 1.9.8.7 1.6 1.4 2.2 2.1s1.2 1.3 1.6 2c.4.6.8 1.1 1.1 1.6.5.9.8 1.5.8 1.5s-.5-.3-1.4-.9c-.4-.3-1-.6-1.6-1.1-.6-.4-1.3-.8-2-1.3-.4-.2-.8-.4-1.2-.7-.4-.2-.8-.5-1.2-.7-.9-.5-1.8-.9-2.7-1.3-1-.4-2-.7-3-1-.5-.1-1-.3-1.6-.4-.5-.1-1.1-.2-1.6-.3-1.1-.2-2.1-.2-3.2-.3-1.1 0-2.1 0-3.2.1-1 .1-2 .2-3 .4s-1.9.4-2.7.6c-1.7.4-3.1.8-4.1 1.2-.8.4-1.4.6-1.4.6zm-104.8 5.2s.2-.6.8-1.5c.5-.9 1.4-2.2 2.7-3.6.6-.7 1.4-1.4 2.2-2.1.8-.7 1.8-1.3 2.8-1.9s2.2-1.1 3.4-1.6l1.8-.6c.6-.1 1.3-.3 1.9-.4 1.3-.2 2.6-.3 3.9-.2 1.3 0 2.5.2 3.7.5s2.3.6 3.3 1 1.9.9 2.7 1.3c.8.5 1.5.9 2.1 1.4.6.4 1.1.8 1.5 1.2.8.7 1.2 1.2 1.2 1.2s-.6-.2-1.6-.5c-.5-.2-1.1-.3-1.8-.5s-1.5-.4-2.3-.6c-.4-.1-.9-.2-1.3-.3-.5-.1-.9-.2-1.4-.3-1-.2-2-.3-3-.4s-2.1-.1-3.2-.1c-.5 0-1.1 0-1.6.1-.5 0-1.1.1-1.6.2-1.1.2-2.1.4-3.2.7-1 .3-2 .7-3 1-1 .4-1.9.8-2.7 1.3-.9.4-1.7.9-2.4 1.3-1.5.9-2.7 1.7-3.6 2.3-.8.7-1.3 1.1-1.3 1.1z" class="st0"/></svg>