<svg id="Layer_1" data-name="Layer 1" xmlns="http://www.w3.org/2000/svg" viewBox="0 0 886.5 882.4"><title>Emc2</title><path d="M646.5,382.3c-14.7-26.5-35.9-50.9-48.1-64l17.5-2.2a6.92,6.92,0,0,0,1.7-13.3c-19.3-7.7-27.8-24.5-39.6-47.8-4.4-8.7-9.4-18.5-15.5-28.8-26.9-45.6-97.7-52.4-137.5-52.4-47,0-104.3,13.2-126.5,49.9-19.1,6.9-24.4,20.4-24.6,21a6.91,6.91,0,0,0,9,8.9,25.78,25.78,0,0,1,4.7-1.5,10.55,10.55,0,0,1-.6,2.4c-5.9,9.8-68.9,115.7-72.8,167-1.8,24.1,1.1,43.4,8.8,57.2,6.2,11.2,13.5,14.7,14.3,15.1a7.08,7.08,0,0,0,6.9-.7,7,7,0,0,0,2.9-6.3c-0.3-3.1.2-8.8,2.2-10.9,0.3-.3,1-1.1,3.2-0.9,5.4,0.3,9.6,2.3,12.4,6,4.5,5.9,5.5,16.1,2.9,28a7,7,0,0,0,3.1,7.4,6.77,6.77,0,0,0,3.6,1,6.46,6.46,0,0,0,4.4-1.6l35.2-29.3c7.6,28.9,18.5,62.4,30,79.5,14.4,21.4,59.1,43.2,80.7,43.2,23.8,0,70.2-16.4,85.9-41,11.3-17.8,24.3-51.5,33.6-80.5,10.8,11.2,31.2,27.8,51.9,20.3a6.7,6.7,0,0,0,4.3-4.8,6.88,6.88,0,0,0-1.5-6.3c-3.4-3.9-8-11.5-7.2-15.6,0.1-.5.3-1.8,2.8-3a5.71,5.71,0,0,1,4.8-.2c9.4,3.3,20.7,21.9,25.7,32.9a7.14,7.14,0,0,0,5.8,4.1,6.69,6.69,0,0,0,6.3-3.3,169.36,169.36,0,0,0,17-41.8c8.7-32.7,6-63-7.7-87.7h0Z" style="fill:#5a7a3b;opacity:0.5;isolation:isolate"/><path d="M500,275.3c-0.9-.7-23.8-16.2-72.4-16.2-47,0-66.9,15.7-67.7,16.4M485,251.1c-0.7-.5-18.7-12.7-56.9-12.7-36.9,0-52.6,12.4-53.2,12.9" style="fill:none;stroke:#fff;stroke-miterlimit:10;stroke-width:3px;opacity:0.20000000298023224;isolation:isolate"/><path d="M487.1,361.5c0,10.3-15.5,10.3-15.5,0s15.5-10.3,15.5,0m-102.6,0c0,10.3-15.5,10.3-15.5,0s15.5-10.3,15.5,0" style="fill:#4caf50;opacity:0.5;isolation:isolate"/><path d="M415.9,498.6l-57.9,15a1.88,1.88,0,0,1-2.3-2.2c5.9-30.2,44.2-44.5,44.6-44.7a2.4,2.4,0,0,1,2-.2A50.81,50.81,0,0,0,425,472a53.6,53.6,0,0,0,23.8-6.3,2,2,0,0,1,2.4.5,4.25,4.25,0,0,0,1.7,1.6c30.9,10.7,39.9,34.1,42.3,43.2a1.86,1.86,0,0,1-2.3,2.3l-53.3-14.6a47.55,47.55,0,0,0-23.7-.1h0Zm27.3,53c-4.4,4.4-8.9,7.1-11.9,7.8-0.2,0-.4.1-0.6,0.1-4.2-.2-12.5-4-19.7-11.3-3.6-3.6-7.7-6-9.8-17.9a1.92,1.92,0,0,1,1.9-2.2h48.7a1.92,1.92,0,0,1,1.9,2.2c-2,12.2-6.5,17.2-10.5,21.3h0Zm-119-184.2s-0.1-.4-0.2-1.1-0.3-1.7-.4-3-0.3-2.9-.4-4.6-0.1-3.8-.1-6.1a46.58,46.58,0,0,1,.6-7.2,65.19,65.19,0,0,1,1.7-8.1,35.23,35.23,0,0,1,1.5-4.2l0.9-2.1s0.7-1.4,1-2.1a41.74,41.74,0,0,1,5.4-7.8,42.81,42.81,0,0,1,7.2-6.3,41.52,41.52,0,0,1,8-4.3,54.84,54.84,0,0,1,7.8-2.6c1.3-.3,2.5-0.6,3.7-0.8s2.3-.4,3.5-0.5,2.2-.3,3.2-0.3,2-.1,2.9-0.2c1.8-.1,3.4,0,4.7,0a21.13,21.13,0,0,1,3,.2,8.66,8.66,0,0,0,1.1.1s-0.3.1-1,.4-1.6.6-2.8,1.1-2.6,1-4.3,1.6-3.5,1.3-5.4,2.1-4.1,1.7-6.2,2.7a67.51,67.51,0,0,0-6.5,3.4,34.47,34.47,0,0,0-3.2,2c-1,.7-2.1,1.4-3.1,2.2a46,46,0,0,0-5.6,5.2,54.12,54.12,0,0,0-4.6,6.1c-0.4.5-.6,1.1-1,1.7s-0.6,1.1-.9,1.7c-0.6,1.1-1.1,2.3-1.6,3.4a97.09,97.09,0,0,0-4.6,13.4c-0.3,1-.6,2-0.8,3s-0.5,1.8-.8,2.7c-0.5,1.7-.9,3.2-1.3,4.4s-0.7,2.2-.9,2.9a3.61,3.61,0,0,0-.5,1h0Zm207.3-6.2a9.24,9.24,0,0,1-.5-0.9c-0.3-.6-0.8-1.5-1.4-2.6s-1.3-2.5-2.1-4.1c-0.4-.8-0.8-1.6-1.3-2.5s-0.9-1.8-1.4-2.7a137.62,137.62,0,0,0-7.2-12.2c-0.8-1-1.5-2.1-2.3-3l-1.2-1.5a12.13,12.13,0,0,0-1.3-1.4,39.24,39.24,0,0,0-5.7-5.1,54,54,0,0,0-6.5-4,37.27,37.27,0,0,0-3.5-1.6c-1.2-.4-2.4-0.9-3.6-1.3-2.4-.8-4.8-1.4-7.1-2s-4.6-1-6.6-1.4-4-.7-5.8-1-3.3-.5-4.5-0.8-2.3-.4-2.9-0.5a6.47,6.47,0,0,1-1-.2s0.4-.1,1-0.3,1.6-.5,2.9-0.8,2.8-.6,4.6-0.9c0.9-.1,1.8-0.3,2.9-0.4l3.2-.3c1.1-.1,2.3-0.1,3.5-0.2h3.8a48.24,48.24,0,0,1,8.2,1,50.39,50.39,0,0,1,8.7,2.6,40.2,40.2,0,0,1,8.3,4.7,39.3,39.3,0,0,1,6.9,6.6,22,22,0,0,1,1.4,1.8,12.73,12.73,0,0,1,1.3,1.9,38.46,38.46,0,0,1,2.3,3.8,54.67,54.67,0,0,1,3.3,7.6c0.8,2.5,1.5,4.8,2,7a55.49,55.49,0,0,1,1.1,6c0.3,1.8.4,3.3,0.5,4.6s0.1,2.3.2,3a4.47,4.47,0,0,0-.2,1.1h0Z" style="fill:#fff"/><path d="M463.2,354.3a10.61,10.61,0,0,1,1.2-1.2,21.16,21.16,0,0,1,3.6-2.6,16.94,16.94,0,0,1,2.7-1.3,25.78,25.78,0,0,1,3.3-1c1.2-.2,2.4-0.4,3.7-0.5h1.9c0.6,0.1,1.3.1,1.9,0.2a22.22,22.22,0,0,1,3.7.9,34.93,34.93,0,0,1,3.4,1.5c1,0.6,2,1.3,2.8,1.9a22.33,22.33,0,0,1,2.2,2.1,14,14,0,0,1,1.6,2c0.4,0.6.8,1.1,1.1,1.6,0.5,0.9.8,1.5,0.8,1.5s-0.5-.3-1.4-0.9c-0.4-.3-1-0.6-1.6-1.1s-1.3-.8-2-1.3a7.46,7.46,0,0,1-1.2-.7c-0.4-.2-0.8-0.5-1.2-0.7-0.9-.5-1.8-0.9-2.7-1.3s-2-.7-3-1c-0.5-.1-1-0.3-1.6-0.4l-1.6-.3c-1.1-.2-2.1-0.2-3.2-0.3s-2.1,0-3.2.1-2,.2-3,0.4-1.9.4-2.7,0.6a30.54,30.54,0,0,0-4.1,1.2,11.89,11.89,0,0,1-1.4.6h0Zm-104.8,5.2a7.08,7.08,0,0,1,.8-1.5,19.49,19.49,0,0,1,2.7-3.6,22.32,22.32,0,0,1,2.2-2.1,19.59,19.59,0,0,1,2.8-1.9,26.81,26.81,0,0,1,3.4-1.6l1.8-.6c0.6-.1,1.3-0.3,1.9-0.4a17,17,0,0,1,3.9-.2,15,15,0,0,1,3.7.5,25.78,25.78,0,0,1,3.3,1c1,0.4,1.9.9,2.7,1.3a19.12,19.12,0,0,1,2.1,1.4,9.83,9.83,0,0,1,1.5,1.2,10.62,10.62,0,0,1,1.2,1.2s-0.6-.2-1.6-0.5c-0.5-.2-1.1-0.3-1.8-0.5s-1.5-.4-2.3-0.6l-1.3-.3L384,352c-1-.2-2-0.3-3-0.4s-2.1-.1-3.2-0.1a8.6,8.6,0,0,0-1.6.1,8.75,8.75,0,0,0-1.6.2c-1.1.2-2.1,0.4-3.2,0.7s-2,.7-3,1a16.94,16.94,0,0,0-2.7,1.3,26,26,0,0,0-2.4,1.3c-1.5.9-2.7,1.7-3.6,2.3S358.4,359.5,358.4,359.5Z" style="fill:#4caf50"/></svg>