<?xml version="1.0" encoding="utf-8"?>
<!-- Generator: Adobe Illustrator 19.0.0, SVG Export Plug-In . SVG Version: 6.00 Build 0)  -->
<svg version="1.1" xmlns="http://www.w3.org/2000/svg" xmlns:xlink="http://www.w3.org/1999/xlink" x="0px" y="0px"
	 viewBox="0 0 720 720" style="enable-background:new 0 0 720 720;" xml:space="preserve">
<style type="text/css">
	.st0{fill:#FAD466;}
	.st1{fill:#F8BA17;}
	.st2{fill:#C55857;}
	.st3{fill:#924241;}
	.st4{fill:#AB1F23;}
	.st5{fill:none;stroke:#58595B;stroke-width:4;stroke-linecap:round;stroke-miterlimit:10;stroke-dasharray:11.9055,11.9055;}
	.st6{fill:#75BC64;}
	.st7{fill:#00A9B1;}
	.st8{fill:#00A9B1;stroke:#00A9B1;stroke-miterlimit:10;}
	.st9{fill:#C1DACB;}
</style>
<g id="Layer_1">
	<g id="XMLID_80_">
		<circle id="XMLID_70_" class="st0" cx="337.4" cy="359.5" r="27"/>
		<g id="XMLID_65_">
			<path id="XMLID_69_" class="st1" d="M361.9,359.5c-0.3,13.4-10.9,24.5-24.5,24.5c-13.3,0-24.5-11.2-24.5-24.5
				c0-13.4,11.1-24.5,24.5-24.5C351,335,361.5,346.2,361.9,359.5c0.1,3.2,5.1,3.2,5,0c-0.3-12.1-7.4-23.1-18.9-27.5
				c-11.6-4.5-25.2-1-33.2,8.6c-17.4,20.9,1.4,52.7,28,47.9c14-2.5,23.7-15,24.1-29C367,356.3,362,356.3,361.9,359.5z"/>
		</g>
	</g>
	<g id="XMLID_1_">
		<g id="XMLID_73_">
			<circle id="XMLID_63_" class="st2" cx="364.4" cy="332.5" r="27"/>
			<g id="XMLID_58_">
				<path id="XMLID_62_" class="st3" d="M388.9,332.5c-0.3,13.4-10.9,24.5-24.5,24.5c-13.3,0-24.5-11.2-24.5-24.5
					c0-13.4,11.1-24.5,24.5-24.5C378,308,388.5,319.2,388.9,332.5c0.1,3.2,5.1,3.2,5,0c-0.3-12.1-7.4-23.1-18.9-27.5
					c-11.6-4.5-25.2-1-33.2,8.6c-17.4,20.9,1.4,52.7,28,47.9c14-2.5,23.7-15,24.1-29C394,329.3,389,329.3,388.9,332.5z"/>
			</g>
		</g>
		<g id="XMLID_14_">
			<g id="XMLID_52_">
				<path id="XMLID_56_" class="st4" d="M346.4,335c12,0,24,0,36,0c3.2,0,3.2-5,0-5c-12,0-24,0-36,0C343.2,330,343.2,335,346.4,335
					L346.4,335z"/>
			</g>
		</g>
		<g id="XMLID_13_">
			<g id="XMLID_46_">
				<path id="XMLID_50_" class="st4" d="M366.9,350.5c0-12,0-24,0-36c0-3.2-5-3.2-5,0c0,12,0,24,0,36
					C361.9,353.7,366.9,353.7,366.9,350.5L366.9,350.5z"/>
			</g>
		</g>
	</g>
	<g id="XMLID_12_">
		<circle id="XMLID_44_" class="st0" cx="382.4" cy="368.5" r="27"/>
		<g id="XMLID_39_">
			<path id="XMLID_43_" class="st1" d="M406.9,368.5c-0.3,13.4-10.9,24.5-24.5,24.5c-13.3,0-24.5-11.2-24.5-24.5
				c0-13.4,11.1-24.5,24.5-24.5C396,344,406.5,355.2,406.9,368.5c0.1,3.2,5.1,3.2,5,0c-0.3-12.1-7.4-23.1-18.9-27.5
				c-11.6-4.5-25.2-1-33.2,8.6c-17.4,20.9,1.4,52.7,28,47.9c14-2.5,23.7-15,24.1-29C412,365.3,407,365.3,406.9,368.5z"/>
		</g>
	</g>
	<g id="XMLID_2_">
		<g id="XMLID_9_">
			<circle id="XMLID_37_" class="st2" cx="355.4" cy="386.5" r="27"/>
			<g id="XMLID_32_">
				<path id="XMLID_36_" class="st3" d="M379.9,386.5c-0.3,13.4-10.9,24.5-24.5,24.5c-13.3,0-24.5-11.2-24.5-24.5
					c0-13.4,11.1-24.5,24.5-24.5C369,362,379.5,373.2,379.9,386.5c0.1,3.2,5.1,3.2,5,0c-0.3-12.1-7.4-23.1-18.9-27.5
					c-11.6-4.5-25.2-1-33.2,8.6c-17.4,20.9,1.4,52.7,28,47.9c14-2.5,23.7-15,24.1-29C385,383.3,380,383.3,379.9,386.5z"/>
			</g>
		</g>
		<g id="XMLID_8_">
			<g id="XMLID_26_">
				<path id="XMLID_30_" class="st4" d="M337.4,389c12,0,24,0,36,0c3.2,0,3.2-5,0-5c-12,0-24,0-36,0C334.2,384,334.2,389,337.4,389
					L337.4,389z"/>
			</g>
		</g>
		<g id="XMLID_7_">
			<g id="XMLID_20_">
				<path id="XMLID_24_" class="st4" d="M357.9,404.5c0-12,0-24,0-36c0-3.2-5-3.2-5,0c0,12,0,24,0,36
					C352.9,407.7,357.9,407.7,357.9,404.5L357.9,404.5z"/>
			</g>
		</g>
	</g>
</g>
<g id="Layer_4">
	<g id="XMLID_5_">
		<circle id="XMLID_83_" class="st5" cx="360" cy="360" r="144"/>
	</g>
	<g id="XMLID_4_">
		<circle id="XMLID_3_" class="st5" cx="360" cy="360" r="216"/>
	</g>
</g>
<g id="Layer_3">
	<g id="XMLID_10_">
		<g id="XMLID_146_">
			<path id="XMLID_163_" class="st6" d="M14.2,337.7c7.3,0.3,10,9.5,13.7,14.5c3.4,4.7,8.3,8.1,14.3,6.8c6.2-1.3,9.5-7.1,12.5-12.2
				c3.4-5.6,9-13,15.7-6.8c4.7,4.3,6.3,11.1,11,15.5c4.3,4.1,10.7,5,15.8,1.8c5.4-3.5,7.5-10,11.2-15c5.1-6.9,11.7-4.9,15.9,1.6
				c3.4,5.1,6,11.8,12,14.4c5.5,2.4,11.3,0.3,15.1-4.1c4-4.6,5.9-12.2,11.3-15.4c7.6-4.5,12.3,4.9,15.5,10.2
				c3,4.9,6.7,9.9,12.9,10.3c6.5,0.5,10.8-4,14.1-9c3.2-5,6.9-14.4,14.4-12.2c6.1,1.8,8.6,10.4,12.1,15c4,5.2,10.6,8.3,16.9,5
				c6.6-3.4,8.5-11.2,13-16.6c2.5-2.9,6.1-4.7,9.8-3c3.5,1.6,5.5,5.7,7.4,8.9c3.5,5.9,7.3,11.7,14.9,12c3.2,0.1,3.2-4.9,0-5
				c-7.3-0.3-10-9.5-13.7-14.5c-3.4-4.7-8.3-8.1-14.3-6.8c-6.2,1.3-9.5,7.1-12.5,12.2c-3.4,5.6-9,13-15.8,6.8
				c-4.7-4.3-6.3-11.1-11-15.5c-4.3-4.1-10.7-5-15.8-1.8c-5.4,3.5-7.5,10-11.2,15c-5.1,6.9-11.7,4.9-15.9-1.6
				c-3.4-5.1-6-11.8-12-14.4c-5.5-2.4-11.3-0.3-15.1,4.1c-4,4.6-5.9,12.2-11.3,15.4c-7.6,4.5-12.3-4.9-15.5-10.2
				c-3-4.9-6.7-9.9-12.9-10.3c-6.5-0.5-10.8,4-14.1,9c-3.2,5-6.9,14.4-14.4,12.2c-6.1-1.8-8.6-10.4-12.1-15c-4-5.2-10.5-8.3-16.9-5
				c-6.6,3.4-8.5,11.2-13,16.6c-2.5,2.9-6.1,4.7-9.8,3c-3.5-1.6-5.5-5.7-7.4-8.9c-3.5-5.9-7.3-11.7-14.9-12
				C11,332.6,11,337.6,14.2,337.7L14.2,337.7z"/>
		</g>
	</g>
	<g id="XMLID_11_">
		<g id="XMLID_119_">
			<path id="XMLID_124_" class="st6" d="M293.7,359.1c3.6,0,7.3,0,10.9,0c3.2,0,3.2-5,0-5c-3.6,0-7.3,0-10.9,0
				C290.5,354.1,290.4,359.1,293.7,359.1L293.7,359.1z"/>
		</g>
	</g>
	<polygon id="XMLID_45_" class="st6" points="294.6,367.1 330.6,356.6 294.6,346 303.6,356.6 	"/>
	<g id="XMLID_57_">
		<line id="XMLID_117_" class="st7" x1="392.6" y1="354.5" x2="567.9" y2="277.3"/>
		<g id="XMLID_109_">
			<path id="XMLID_116_" class="st7" d="M393.9,356.7c19.8-8.7,39.6-17.4,59.3-26.1c31.4-13.8,62.7-27.6,94.1-41.5
				c7.3-3.2,14.5-6.4,21.8-9.6c2.9-1.3,0.4-5.6-2.5-4.3c-19.8,8.7-39.6,17.4-59.3,26.1c-31.4,13.8-62.7,27.6-94.1,41.5
				c-7.3,3.2-14.5,6.4-21.8,9.6C388.4,353.6,391,358,393.9,356.7L393.9,356.7z"/>
		</g>
	</g>
	<polygon id="XMLID_71_" class="st8" points="550.6,296.3 579.4,272.3 542.2,276.9 554.7,283 	"/>
</g>
<g id="Layer_2">
	<g id="XMLID_160_">
		<circle id="XMLID_173_" class="st9" cx="615.5" cy="256.9" r="27"/>
		<g id="XMLID_168_">
			<path id="XMLID_172_" class="st7" d="M640,256.9c-0.3,13.4-10.9,24.5-24.5,24.5c-13.3,0-24.5-11.2-24.5-24.5
				c0-13.4,11.1-24.5,24.5-24.5C629.2,232.4,639.7,243.6,640,256.9c0.1,3.2,5.1,3.2,5,0c-0.3-12.1-7.4-23.1-18.9-27.5
				c-11.6-4.5-25.2-1-33.2,8.6c-17.4,20.9,1.4,52.7,28,47.9c14-2.5,23.7-15,24.1-29C645.1,253.7,640.1,253.7,640,256.9z"/>
		</g>
	</g>
	<g id="XMLID_152_">
		<line id="XMLID_159_" class="st0" x1="597.5" y1="256.9" x2="633.5" y2="256.9"/>
		<g id="XMLID_154_">
			<path id="XMLID_158_" class="st7" d="M597.5,259.4c12,0,24,0,36,0c3.2,0,3.2-5,0-5c-12,0-24,0-36,0
				C594.3,254.4,594.3,259.4,597.5,259.4L597.5,259.4z"/>
		</g>
	</g>
	<g id="XMLID_113_">
		<line id="XMLID_131_" class="st7" x1="392.6" y1="361.2" x2="567.9" y2="438.4"/>
		<g id="XMLID_120_">
			<path id="XMLID_130_" class="st7" d="M391.4,363.4c19.8,8.7,39.6,17.4,59.3,26.1c31.4,13.8,62.7,27.6,94.1,41.5
				c7.3,3.2,14.5,6.4,21.8,9.6c2.9,1.3,5.5-3,2.5-4.3c-19.8-8.7-39.6-17.4-59.3-26.1c-31.4-13.8-62.7-27.6-94.1-41.5
				c-7.3-3.2-14.5-6.4-21.8-9.6C391,357.8,388.4,362.1,391.4,363.4L391.4,363.4z"/>
		</g>
	</g>
	<polygon id="XMLID_112_" class="st8" points="550.6,419.5 579.4,443.4 542.2,438.8 554.7,432.7 	"/>
	<g id="XMLID_93_">
		<circle id="XMLID_101_" class="st9" cx="615.5" cy="458.8" r="27"/>
		<g id="XMLID_96_">
			<path id="XMLID_100_" class="st7" d="M645,458.8c-0.3-12.1-7.4-23.1-18.9-27.5c-11.6-4.5-25.2-1-33.2,8.6
				c-17.4,20.9,1.4,52.7,28,47.9C635,485.2,644.7,472.8,645,458.8c0.1-3.2-4.9-3.2-5,0c-0.3,13.4-10.9,24.5-24.5,24.5
				c-13.3,0-24.5-11.2-24.5-24.5c0-13.4,11.1-24.5,24.5-24.5c13.6,0,24.2,11.2,24.5,24.5C640.1,462,645.1,462,645,458.8z"/>
		</g>
	</g>
	<g id="XMLID_6_">
		<line id="XMLID_90_" class="st0" x1="597.5" y1="458.8" x2="633.5" y2="458.8"/>
		<g id="XMLID_79_">
			<path id="XMLID_89_" class="st7" d="M597.5,461.3c12,0,24,0,36,0c3.2,0,3.2-5,0-5c-12,0-24,0-36,0
				C594.3,456.3,594.3,461.3,597.5,461.3L597.5,461.3z"/>
		</g>
	</g>
	<g id="XMLID_132_">
		<line id="XMLID_144_" class="st0" x1="615.5" y1="440.8" x2="615.5" y2="476.8"/>
		<g id="XMLID_139_">
			<path id="XMLID_143_" class="st7" d="M613,440.8c0,12,0,24,0,36c0,3.2,5,3.2,5,0c0-12,0-24,0-36C618,437.6,613,437.6,613,440.8
				L613,440.8z"/>
		</g>
	</g>
</g>
</svg>
