<?xml version="1.0" encoding="utf-8"?>
<!-- Generator: Adobe Illustrator 19.0.0, SVG Export Plug-In . SVG Version: 6.00 Build 0)  -->
<svg version="1.1" xmlns="http://www.w3.org/2000/svg" xmlns:xlink="http://www.w3.org/1999/xlink" x="0px" y="0px"
	 viewBox="0 0 720 720" style="enable-background:new 0 0 720 720;" xml:space="preserve">
<style type="text/css">
	.st0{fill:#FAD466;}
	.st1{fill:#F8BA17;}
	.st2{fill:#C55857;}
	.st3{fill:#924241;}
	.st4{fill:#AB1F23;}
	.st5{fill:none;stroke:#58595B;stroke-width:4;stroke-linecap:round;stroke-miterlimit:10;stroke-dasharray:11.9055,11.9055;}
	.st6{fill:#75BC64;}
	.st7{fill:#00A9B1;}
	.st8{fill:#00A9B1;stroke:#00A9B1;stroke-miterlimit:10;}
	.st9{fill:#C1DACB;}
</style>
<g id="Layer_1">
	<g id="XMLID_80_">
		<circle id="XMLID_70_" class="st0" cx="337.4" cy="359.5" r="27"/>
		<g id="XMLID_65_">
			<path id="XMLID_69_" class="st1" d="M361.9,359.5c-0.3,13.4-10.9,24.5-24.5,24.5c-13.3,0-24.5-11.2-24.5-24.5
				c0-13.4,11.1-24.5,24.5-24.5C351,335,361.5,346.2,361.9,359.5c0.1,3.2,5.1,3.2,5,0c-0.3-12.1-7.4-23.1-18.9-27.5
				c-11.6-4.5-25.2-1-33.2,8.6c-17.4,20.9,1.4,52.7,28,47.9c14-2.5,23.7-15,24.1-29C367,356.3,362,356.3,361.9,359.5z"/>
		</g>
	</g>
	<g id="XMLID_1_">
		<g id="XMLID_73_">
			<circle id="XMLID_63_" class="st2" cx="364.4" cy="332.5" r="27"/>
			<g id="XMLID_58_">
				<path id="XMLID_62_" class="st3" d="M388.9,332.5c-0.3,13.4-10.9,24.5-24.5,24.5c-13.3,0-24.5-11.2-24.5-24.5
					c0-13.4,11.1-24.5,24.5-24.5C378,308,388.5,319.2,388.9,332.5c0.1,3.2,5.1,3.2,5,0c-0.3-12.1-7.4-23.1-18.9-27.5
					c-11.6-4.5-25.2-1-33.2,8.6c-17.4,20.9,1.4,52.7,28,47.9c14-2.5,23.7-15,24.1-29C394,329.3,389,329.3,388.9,332.5z"/>
			</g>
		</g>
		<g id="XMLID_14_">
			<g id="XMLID_52_">
				<path id="XMLID_56_" class="st4" d="M346.4,335c12,0,24,0,36,0c3.2,0,3.2-5,0-5c-12,0-24,0-36,0C343.2,330,343.2,335,346.4,335
					L346.4,335z"/>
			</g>
		</g>
		<g id="XMLID_13_">
			<g id="XMLID_46_">
				<path id="XMLID_50_" class="st4" d="M366.9,350.5c0-12,0-24,0-36c0-3.2-5-3.2-5,0c0,12,0,24,0,36
					C361.9,353.7,366.9,353.7,366.9,350.5L366.9,350.5z"/>
			</g>
		</g>
	</g>
	<g id="XMLID_12_">
		<circle id="XMLID_44_" class="st0" cx="382.4" cy="368.5" r="27"/>
		<g id="XMLID_39_">
			<path id="XMLID_43_" class="st1" d="M406.9,368.5c-0.3,13.4-10.9,24.5-24.5,24.5c-13.3,0-24.5-11.2-24.5-24.5
				c0-13.4,11.1-24.5,24.5-24.5C396,344,406.5,355.2,406.9,368.5c0.1,3.2,5.1,3.2,5,0c-0.3-12.1-7.4-23.1-18.9-27.5
				c-11.6-4.5-25.2-1-33.2,8.6c-17.4,20.9,1.4,52.7,28,47.9c14-2.5,23.7-15,24.1-29C412,365.3,407,365.3,406.9,368.5z"/>
		</g>
	</g>
	<g id="XMLID_2_">
		<g id="XMLID_9_">
			<circle id="XMLID_37_" class="st2" cx="355.4" cy="386.5" r="27"/>
			<g id="XMLID_32_">
				<path id="XMLID_36_" class="st3" d="M379.9,386.5c-0.3,13.4-10.9,24.5-24.5,24.5c-13.3,0-24.5-11.2-24.5-24.5
					c0-13.4,11.1-24.5,24.5-24.5C369,362,379.5,373.2,379.9,386.5c0.1,3.2,5.1,3.2,5,0c-0.3-12.1-7.4-23.1-18.9-27.5
					c-11.6-4.5-25.2-1-33.2,8.6c-17.4,20.9,1.4,52.7,28,47.9c14-2.5,23.7-15,24.1-29C385,383.3,380,383.3,379.9,386.5z"/>
			</g>
		</g>
		<g id="XMLID_8_">
			<g id="XMLID_26_">
				<path id="XMLID_30_" class="st4" d="M337.4,389c12,0,24,0,36,0c3.2,0,3.2-5,0-5c-12,0-24,0-36,0C334.2,384,334.2,389,337.4,389
					L337.4,389z"/>
			</g>
		</g>
		<g id="XMLID_7_">
			<g id="XMLID_20_">
				<path id="XMLID_24_" class="st4" d="M357.9,404.5c0-12,0-24,0-36c0-3.2-5-3.2-5,0c0,12,0,24,0,36
					C352.9,407.7,357.9,407.7,357.9,404.5L357.9,404.5z"/>
			</g>
		</g>
	</g>
</g>
<g id="Layer_4">
	<g id="XMLID_5_">
		<circle id="XMLID_83_" class="st5" cx="360" cy="360" r="144"/>
	</g>
	<g id="XMLID_3_">
		<circle id="XMLID_4_" class="st5" cx="360" cy="360" r="216"/>
	</g>
</g>
<g id="Layer_3">
	<g id="XMLID_10_">
		<g id="XMLID_147_">
			<path id="XMLID_151_" class="st6" d="M52.6,276.1c7.3,0.3,10,9.5,13.7,14.5c3.4,4.7,8.3,8.1,14.3,6.8c6.2-1.3,9.5-7.1,12.5-12.2
				c3.4-5.6,9-13,15.7-6.8c4.7,4.3,6.3,11.1,11,15.5c4.3,4.1,10.7,5,15.8,1.8c5.4-3.5,7.5-10,11.2-15c5.1-6.9,11.7-4.9,15.9,1.6
				c3.4,5.1,6,11.8,12,14.4c5.5,2.4,11.3,0.3,15.1-4.1c4-4.6,5.9-12.2,11.3-15.4c7.6-4.5,12.3,4.9,15.5,10.2
				c3,4.9,6.7,9.9,12.9,10.3c6.5,0.5,10.8-4,14.1-9c3.2-5,6.9-14.4,14.4-12.2c6.1,1.8,8.6,10.4,12.1,15c4,5.2,10.6,8.3,16.9,5
				c6.6-3.4,8.5-11.2,13-16.6c2.5-2.9,6.1-4.7,9.8-3c3.5,1.6,5.5,5.7,7.4,8.9c3.5,5.9,7.3,11.7,14.9,12c3.2,0.1,3.2-4.9,0-5
				c-7.3-0.3-10-9.5-13.7-14.5c-3.4-4.7-8.3-8.1-14.3-6.8c-6.2,1.3-9.5,7.1-12.5,12.2c-3.4,5.6-9,13-15.8,6.8
				c-4.7-4.3-6.3-11.1-11-15.5c-4.3-4.1-10.7-5-15.8-1.8c-5.4,3.5-7.5,10-11.2,15c-5.1,6.9-11.7,4.9-15.9-1.6
				c-3.4-5.1-6-11.8-12-14.4c-5.5-2.4-11.3-0.3-15.1,4.1c-4,4.6-5.9,12.2-11.3,15.4c-7.6,4.5-12.3-4.9-15.5-10.2
				c-3-4.9-6.7-9.9-12.9-10.3c-6.5-0.5-10.8,4-14.1,9c-3.2,5-6.9,14.4-14.4,12.2c-6.1-1.8-8.6-10.4-12.1-15c-4-5.2-10.5-8.3-16.9-5
				c-6.6,3.4-8.5,11.2-13,16.6c-2.5,2.9-6.1,4.7-9.8,3c-3.5-1.6-5.5-5.7-7.4-8.9c-3.5-5.9-7.3-11.7-14.9-12
				C49.4,271,49.4,276,52.6,276.1L52.6,276.1z"/>
		</g>
	</g>
	<g id="XMLID_11_">
		<g id="XMLID_140_">
			<path id="XMLID_144_" class="st6" d="M332,297.5c3.6,0,7.3,0,10.9,0c3.2,0,3.2-5,0-5c-3.6,0-7.3,0-10.9,0
				C328.8,292.5,328.8,297.5,332,297.5L332,297.5z"/>
		</g>
	</g>
	<polygon id="XMLID_45_" class="st6" points="332.9,305.5 368.9,295 332.9,284.4 341.9,295 	"/>
	<g id="XMLID_57_">
		<line id="XMLID_139_" class="st7" x1="377.8" y1="292.9" x2="577.1" y2="205.1"/>
		<g id="XMLID_134_">
			<path id="XMLID_138_" class="st7" d="M379.1,295.1c22.4-9.9,44.8-19.8,67.3-29.6c35.8-15.8,71.5-31.5,107.3-47.3
				c8.2-3.6,16.5-7.3,24.7-10.9c2.9-1.3,0.4-5.6-2.5-4.3c-22.4,9.9-44.8,19.8-67.3,29.6c-35.8,15.8-71.5,31.5-107.3,47.3
				c-8.2,3.6-16.5,7.3-24.7,10.9C373.6,292,376.1,296.4,379.1,295.1L379.1,295.1z"/>
		</g>
	</g>
	<polygon id="XMLID_71_" class="st8" points="561.4,222.7 590.3,198.7 553,203.3 565.5,209.4 	"/>
</g>
<g id="Layer_2">
	<g id="XMLID_183_">
		<circle id="XMLID_191_" class="st9" cx="618.7" cy="195.3" r="27"/>
		<g id="XMLID_186_">
			<path id="XMLID_190_" class="st7" d="M643.2,195.3c-0.3,13.4-10.9,24.5-24.5,24.5c-13.3,0-24.5-11.2-24.5-24.5
				c0-13.4,11.1-24.5,24.5-24.5C632.3,170.8,642.9,182,643.2,195.3c0.1,3.2,5.1,3.2,5,0c-0.3-12.1-7.4-23.1-18.9-27.5
				c-11.6-4.5-25.2-1-33.2,8.6c-17.4,20.9,1.4,52.7,28,47.9c14-2.5,23.7-15,24.1-29C648.3,192.1,643.3,192.1,643.2,195.3z"/>
		</g>
	</g>
	<g id="XMLID_174_">
		<line id="XMLID_182_" class="st0" x1="600.7" y1="195.3" x2="636.7" y2="195.3"/>
		<g id="XMLID_177_">
			<path id="XMLID_181_" class="st7" d="M600.7,197.8c12,0,24,0,36,0c3.2,0,3.2-5,0-5c-12,0-24,0-36,0
				C597.5,192.8,597.5,197.8,600.7,197.8L600.7,197.8z"/>
		</g>
	</g>
	<g id="XMLID_166_">
		<line id="XMLID_173_" class="st7" x1="377.8" y1="299.6" x2="565.5" y2="384.8"/>
		<g id="XMLID_168_">
			<path id="XMLID_172_" class="st7" d="M376.5,301.8c21.2,9.6,42.3,19.2,63.5,28.8c33.7,15.3,67.4,30.6,101.1,45.9
				c7.7,3.5,15.4,7,23.1,10.5c2.9,1.3,5.5-3,2.5-4.3c-21.2-9.6-42.3-19.2-63.5-28.8c-33.7-15.3-67.4-30.6-101.1-45.9
				c-7.7-3.5-15.4-7-23.1-10.5C376.2,296.1,373.6,300.4,376.5,301.8L376.5,301.8z"/>
		</g>
	</g>
	<polygon id="XMLID_165_" class="st8" points="561.4,371.5 590.3,395.5 553,390.9 565.5,384.8 	"/>
	<g id="XMLID_157_">
		<circle id="XMLID_164_" class="st9" cx="618.7" cy="397.2" r="27"/>
		<g id="XMLID_159_">
			<path id="XMLID_163_" class="st7" d="M648.2,397.2c-0.3-12.1-7.4-23.1-18.9-27.5c-11.6-4.5-25.2-1-33.2,8.6
				c-17.4,20.9,1.4,52.7,28,47.9C638.2,423.6,647.9,411.2,648.2,397.2c0.1-3.2-4.9-3.2-5,0c-0.3,13.4-10.9,24.5-24.5,24.5
				c-13.3,0-24.5-11.2-24.5-24.5c0-13.4,11.1-24.5,24.5-24.5c13.6,0,24.2,11.2,24.5,24.5C643.3,400.4,648.3,400.4,648.2,397.2z"/>
		</g>
	</g>
	<g id="XMLID_112_">
		<line id="XMLID_156_" class="st0" x1="600.7" y1="397.2" x2="636.7" y2="397.2"/>
		<g id="XMLID_146_">
			<path id="XMLID_155_" class="st7" d="M600.7,399.7c12,0,24,0,36,0c3.2,0,3.2-5,0-5c-12,0-24,0-36,0
				C597.5,394.7,597.5,399.7,600.7,399.7L600.7,399.7z"/>
		</g>
	</g>
	<g id="XMLID_74_">
		<line id="XMLID_111_" class="st0" x1="618.7" y1="379.2" x2="618.7" y2="415.2"/>
		<g id="XMLID_76_">
			<path id="XMLID_110_" class="st7" d="M616.2,379.2c0,12,0,24,0,36c0,3.2,5,3.2,5,0c0-12,0-24,0-36
				C621.2,376,616.2,376,616.2,379.2L616.2,379.2z"/>
		</g>
	</g>
</g>
</svg>
