<?xml version="1.0" encoding="utf-8"?>
<!-- Generator: Adobe Illustrator 19.0.0, SVG Export Plug-In . SVG Version: 6.00 Build 0)  -->
<svg version="1.1" xmlns="http://www.w3.org/2000/svg" xmlns:xlink="http://www.w3.org/1999/xlink" x="0px" y="0px"
	 viewBox="0 0 720 720" style="enable-background:new 0 0 720 720;" xml:space="preserve">
<style type="text/css">
	.st0{fill:#00A9B1;}
	.st1{fill:none;stroke:#00A9B1;stroke-width:1.9535;stroke-miterlimit:10;stroke-dasharray:4.0904,4.0904;}
	.st2{fill:none;}
	.st3{font-family:'MyriadPro-Regular';}
	.st4{font-size:19.5352px;}
	.st5{font-size:11.7211px;}
	.st6{fill:#00A9B1;stroke:#00A9B1;stroke-width:0.6512;stroke-miterlimit:10;}
	.st7{fill:#E48A2A;}
	.st8{fill:#016065;}
	.st9{fill:#C55857;}
	.st10{fill:#00A9B1;stroke:#00A9B1;stroke-width:0.6955;stroke-miterlimit:10;}
	.st11{font-size:24px;}
</style>
<g id="Layer_3">
	<g id="XMLID_118_">
		<g id="XMLID_168_">
			<path id="XMLID_194_" class="st0" d="M378.7,1138.5c-0.3,54.5-34.8,104.7-86.3,123.3c-51.7,18.7-110.9,2.6-146-39.7
				c-35.1-42.3-39.7-104.1-11.4-151.1c28.3-47.1,84.7-72,138.6-61.1c53,10.8,94.9,54.5,103.5,107.9
				C378.2,1124.6,378.7,1131.5,378.7,1138.5c0,3.2,5,3.2,5,0c-0.3-56.7-36.1-108.3-89.4-127.9c-53.6-19.7-115.7-2.8-151.9,41.3
				c-36.3,44.2-41.2,108.3-11.4,157.3c29.5,48.6,87.5,74,143.3,62.9c55.1-10.9,99.1-56.7,107.7-112.2c1.1-7.1,1.7-14.2,1.7-21.4
				C383.7,1135.3,378.7,1135.3,378.7,1138.5z"/>
		</g>
	</g>
	<g id="XMLID_114_">
		<g id="XMLID_147_">
			<path id="XMLID_166_" class="st0" d="M403.1,1138.5c-0.3,64.9-41.5,124.4-102.8,146.4c-61.2,22-131,2.9-172.6-47
				c-42-50.4-47.4-124.2-13.3-180.3c33.7-55.4,100.3-84.7,163.9-71.8c62.8,12.7,112.5,64.4,122.8,127.7
				C402.5,1121.9,403.1,1130.2,403.1,1138.5c0,3.2,5,3.2,5,0c-0.3-66.7-42.5-127.7-105.2-150.8c-63.4-23.4-136.8-3.3-179.5,48.8
				c-42.7,52.1-48.3,127.6-13.3,185.3c34.9,57.4,103.7,87.4,169.6,74.1c64.8-13.1,116.5-67.2,126.5-132.6c1.3-8.2,1.9-16.5,1.9-24.8
				C408.2,1135.3,403.2,1135.3,403.1,1138.5z"/>
		</g>
	</g>
	<g id="XMLID_102_">
		<g id="XMLID_137_">
			<path id="XMLID_142_" class="st0" d="M429.5,1138.5c-0.3,75.7-48.4,145.2-119.8,171.1c-71.9,26-154.1,3.4-202.7-55.5
				c-48.5-58.7-54.7-144.2-15.5-209.4c39.3-65.4,117.6-99.9,192.4-84.6c73.6,15,131.8,75.8,143.5,150.1
				C428.8,1119.5,429.5,1129,429.5,1138.5c0,3.2,5,3.2,5,0c-0.3-77.6-49.4-148.5-122.2-175.5c-73.8-27.4-159.4-4-209.3,56.8
				c-49.7,60.6-56.2,148.4-15.5,215.5c40.7,67,120.9,102,197.7,86.4c75.6-15.4,135.7-78.6,147.2-154.9c1.4-9.4,2.1-18.8,2.1-28.3
				C434.5,1135.3,429.5,1135.3,429.5,1138.5z"/>
		</g>
	</g>
	<g id="XMLID_100_">
		<g id="XMLID_130_">
			<path id="XMLID_134_" class="st0" d="M355.8,1138.5c-0.3,45.1-28.8,86.5-71.4,101.9c-42.8,15.4-91.6,2-120.5-33
				c-29.1-35.2-32.6-86.5-8.8-125.4c23.5-38.3,69.6-58.6,113.7-49.7C319.1,1042.4,355.5,1087.5,355.8,1138.5c0,3.2,5,3.2,5,0
				c-0.3-47-29.7-89.8-73.8-106.2c-44.8-16.7-96.8-2.6-127.1,34.4c-30,36.7-34,89.7-9.5,130.4c24.5,40.5,72.7,61.7,119.1,52.7
				c46.1-9,83-47.4,90-93.9c0.9-5.7,1.3-11.5,1.3-17.3C360.8,1135.3,355.8,1135.3,355.8,1138.5z"/>
		</g>
	</g>
</g>
<g id="Layer_1">
	<g id="XMLID_5_">
		<g id="XMLID_91_">
			<path id="XMLID_96_" d="M318.6,77.9c41.1,0,82.1,0,123.2,0c5.8,0,11.7,0,17.5,0c1,0,1-1.6,0-1.6c-41.1,0-82.1,0-123.2,0
				c-5.8,0-11.7,0-17.5,0C317.5,76.3,317.5,77.9,318.6,77.9L318.6,77.9z"/>
		</g>
	</g>
	<g id="XMLID_2_">
		<g id="XMLID_83_">
			<path id="XMLID_90_" d="M318.6,265.5c41.1,0,82.1,0,123.2,0c5.8,0,11.7,0,17.5,0c1,0,1-1.6,0-1.6c-41.1,0-82.1,0-123.2,0
				c-5.8,0-11.7,0-17.5,0C317.5,263.8,317.5,265.5,318.6,265.5L318.6,265.5z"/>
		</g>
	</g>
	<g id="XMLID_1_">
		<g id="XMLID_78_">
			<path id="XMLID_82_" d="M390.5,252.9c0-48,0-96,0-144c0-6.7,0-13.4,0-20.1c-0.9,0.4-1.9,0.8-2.8,1.2c3.9,3.9,7.8,7.8,11.7,11.7
				c1.5,1.5,3.8-0.8,2.3-2.3c-3.9-3.9-7.8-7.8-11.7-11.7c-0.6-0.6-1.7-0.6-2.3,0c-3.9,3.9-7.8,7.8-11.7,11.7
				c-1.5,1.5,0.8,3.8,2.3,2.3c3.9-3.9,7.8-7.8,11.7-11.7c-0.8,0-1.5,0-2.3,0c3.9,3.9,7.8,7.8,11.7,11.7c1.5,1.5,3.8-0.8,2.3-2.3
				c-3.9-3.9-7.8-7.8-11.7-11.7c-1-1-2.8-0.3-2.8,1.2c0,48,0,96,0,144c0,6.7,0,13.4,0,20.1C387.2,255,390.5,255,390.5,252.9
				L390.5,252.9z"/>
		</g>
	</g>
	<g id="XMLID_3_">
		<circle id="XMLID_33_" class="st1" cx="388.9" cy="77.1" r="11.7"/>
	</g>
	<g id="XMLID_4_">
		<circle id="XMLID_76_" class="st0" cx="388.9" cy="264.6" r="11.7"/>
		<g id="XMLID_70_">
			<path id="XMLID_75_" class="st0" d="M399,264.6c-0.7,12.9-20.2,13-20.2,0C378.8,251.6,398.3,251.7,399,264.6
				c0.1,2.1,3.4,2.1,3.3,0c-0.4-7.2-5.8-13.3-13.3-13.3c-7.2,0-13.4,6.1-13.3,13.3c0,7,5.7,13,12.7,13.3c7.8,0.4,13.6-5.8,14-13.3
				C402.3,262.5,399.1,262.5,399,264.6z"/>
		</g>
	</g>
	<rect id="XMLID_176_" x="251.9" y="194.3" class="st2" width="82" height="35.2"/>
	<text id="XMLID_7_" transform="matrix(1 0 0 1 251.9405 208.1795)" class="st3 st4">ΔE = hv</text>
	<rect id="XMLID_174_" x="298.8" y="71.2" class="st2" width="35.2" height="35.2"/>
	<text id="XMLID_9_" transform="matrix(1 0 0 1 298.8254 85.1075)"><tspan x="0" y="0" class="st3 st4">E</tspan><tspan x="9.6" y="0" class="st3 st5">2</tspan></text>
	<rect id="XMLID_172_" x="298.8" y="258.8" class="st2" width="35.2" height="35.2"/>
	<text id="XMLID_10_" transform="matrix(1 0 0 1 298.8254 272.6463)"><tspan x="0" y="0" class="st3 st4">E</tspan><tspan x="9.6" y="0" class="st3 st5">1</tspan></text>
	<g id="XMLID_42_">
		<g id="XMLID_64_">
			<path id="XMLID_69_" d="M545,77.9c41.1,0,82.1,0,123.2,0c5.8,0,11.7,0,17.5,0c1,0,1-1.6,0-1.6c-41.1,0-82.1,0-123.2,0
				c-5.8,0-11.7,0-17.5,0C543.9,76.3,543.9,77.9,545,77.9L545,77.9z"/>
		</g>
	</g>
	<g id="XMLID_41_">
		<g id="XMLID_53_">
			<path id="XMLID_63_" d="M545,265.5c41.1,0,82.1,0,123.2,0c5.8,0,11.7,0,17.5,0c1,0,1-1.6,0-1.6c-41.1,0-82.1,0-123.2,0
				c-5.8,0-11.7,0-17.5,0C543.9,263.8,543.9,265.5,545,265.5L545,265.5z"/>
		</g>
	</g>
	<g id="XMLID_40_">
		<g id="XMLID_48_">
			<path id="XMLID_52_" d="M613.7,88.8c0,48,0,96,0,144c0,6.7,0,13.4,0,20.1c0.9-0.4,1.9-0.8,2.8-1.2c-3.9-3.9-7.8-7.8-11.7-11.7
				c-1.5-1.5-3.8,0.8-2.3,2.3c3.9,3.9,7.8,7.8,11.7,11.7c0.6,0.6,1.7,0.6,2.3,0c3.9-3.9,7.8-7.8,11.7-11.7c1.5-1.5-0.8-3.8-2.3-2.3
				c-3.9,3.9-7.8,7.8-11.7,11.7c0.8,0,1.5,0,2.3,0c-3.9-3.9-7.8-7.8-11.7-11.7c-1.5-1.5-3.8,0.8-2.3,2.3c3.9,3.9,7.8,7.8,11.7,11.7
				c1,1,2.8,0.3,2.8-1.2c0-48,0-96,0-144c0-6.7,0-13.4,0-20.1C616.9,86.7,613.7,86.7,613.7,88.8L613.7,88.8z"/>
		</g>
	</g>
	<circle id="XMLID_37_" class="st6" cx="615.3" cy="77.1" r="11.7"/>
	<rect id="XMLID_145_" x="478.4" y="194.3" class="st2" width="82" height="35.2"/>
	<text id="XMLID_16_" transform="matrix(1 0 0 1 478.36 208.1795)" class="st3 st4">ΔE = hv</text>
	<rect id="XMLID_143_" x="525.2" y="71.2" class="st2" width="35.2" height="35.2"/>
	<text id="XMLID_14_" transform="matrix(1 0 0 1 525.2439 85.1075)"><tspan x="0" y="0" class="st3 st4">E</tspan><tspan x="9.6" y="0" class="st3 st5">2</tspan></text>
	<rect id="XMLID_141_" x="525.2" y="258.8" class="st2" width="35.2" height="35.2"/>
	<text id="XMLID_12_" transform="matrix(1 0 0 1 525.2439 272.6463)"><tspan x="0" y="0" class="st3 st4">E</tspan><tspan x="9.6" y="0" class="st3 st5">1</tspan></text>
	<g id="XMLID_36_">
		<circle id="XMLID_21_" class="st1" cx="615.3" cy="264.6" r="11.7"/>
	</g>
	<g id="XMLID_26_">
		<g id="XMLID_58_">
			<path id="XMLID_62_" class="st7" d="M342.9,194c0,2.8,0,5.5,0,8.3c0.5-0.5,1.1-1.1,1.6-1.6c-2.8,0-5.5,0-8.3,0
				c-2.1,0-2.1,3.3,0,3.3c2.8,0,5.5,0,8.3,0c0.9,0,1.6-0.7,1.6-1.6c0-2.8,0-5.5,0-8.3C346.2,191.9,342.9,191.9,342.9,194L342.9,194z
				"/>
		</g>
	</g>
	<path id="XMLID_25_" class="st7" d="M328.1,165.7c-2.2,0.9-4.3,1.9-6.4,2.9c-1.8,0.8-4.9,2.3-6.9,1.4c-4-1.8,1-9.9,2.1-12.2
		c1.5-3.3,3.7-7.7,1.9-11.3c-4.5-8.8-17.4,3.1-23.4,3c-6-0.2-0.3-10,0.7-12.4c1.7-3.9,4.2-9,0.9-12.7c-1.4-1.6-3.7,0.7-2.3,2.3
		c2.7,3-2,10-3.3,12.9c-1.4,3.3-3.4,8-0.7,11.2c2.8,3.2,7.4,1.8,10.7,0.4c2.2-0.9,4.3-1.9,6.4-2.9c1.8-0.8,4.9-2.3,6.9-1.4
		c4,1.8-1,9.9-2.1,12.2c-1.5,3.3-3.7,7.7-1.9,11.3c4.5,8.8,17.4-3.1,23.4-2.9c6,0.2,0.3,10-0.7,12.4c-1.7,3.9-4.2,9-0.9,12.7
		c0.1,0.1,0.2,0.2,0.3,0.3c0,0.1,0.1,0.1,0.1,0.2c3,3.1,6.1,6.1,9.1,9.2c1.5,1.5,3.8-0.8,2.3-2.3c-3-3.1-6.1-6.1-9.1-9.2
		c-0.1-0.1-0.2-0.2-0.3-0.2c0-0.1-0.1-0.1-0.1-0.2c-2.7-3,2-10,3.3-12.9c1.4-3.3,3.4-8,0.7-11.2C336,162.9,331.4,164.3,328.1,165.7z
		"/>
	<g id="XMLID_24_">
		<g id="XMLID_105_">
			<path id="XMLID_109_" class="st7" d="M516.9,132.3c0-2.8,0-5.5,0-8.3c-0.5,0.5-1.1,1.1-1.6,1.6c2.8,0,5.5,0,8.3,0
				c2.1,0,2.1-3.3,0-3.3c-2.8,0-5.5,0-8.3,0c-0.9,0-1.6,0.7-1.6,1.6c0,2.8,0,5.5,0,8.3C513.7,134.4,516.9,134.4,516.9,132.3
				L516.9,132.3z"/>
		</g>
	</g>
	<path id="XMLID_22_" class="st7" d="M531.8,160.6c2.2-0.9,4.3-1.9,6.4-2.9c1.8-0.8,4.9-2.3,6.9-1.4c4,1.8-1,9.9-2.1,12.2
		c-1.5,3.3-3.7,7.7-1.9,11.3c4.5,8.8,17.4-3.1,23.4-3c6,0.2,0.3,10-0.7,12.4c-1.7,3.9-4.2,9-0.9,12.7c1.4,1.6,3.7-0.7,2.3-2.3
		c-2.7-3,2-10,3.3-12.9c1.4-3.3,3.4-8,0.7-11.2c-2.8-3.2-7.4-1.8-10.7-0.4c-2.2,0.9-4.3,1.9-6.4,2.9c-1.8,0.8-4.9,2.3-6.9,1.4
		c-4-1.8,1-9.9,2.1-12.2c1.5-3.3,3.7-7.7,1.9-11.3c-4.5-8.8-17.4,3.1-23.4,2.9c-6-0.2-0.3-10,0.7-12.4c1.7-3.9,4.2-9,0.9-12.7
		c-0.1-0.1-0.2-0.2-0.3-0.3c0-0.1-0.1-0.1-0.1-0.2c-3-3.1-6.1-6.1-9.1-9.2c-1.5-1.5-3.8,0.8-2.3,2.3c3,3.1,6.1,6.1,9.1,9.2
		c0.1,0.1,0.2,0.2,0.3,0.2c0,0.1,0.1,0.1,0.1,0.2c2.7,3-2,10-3.3,12.9c-1.4,3.3-3.4,8-0.7,11.2C523.9,163.4,528.5,162,531.8,160.6z"
		/>
	<g id="XMLID_27_">
		<g id="XMLID_34_">
			<path id="XMLID_44_" class="st8" d="M383,266.3c3.9,0,7.8,0,11.7,0c2.1,0,2.1-3.3,0-3.3c-3.9,0-7.8,0-11.7,0
				C380.9,263,380.9,266.3,383,266.3L383,266.3z"/>
		</g>
	</g>
	<g id="XMLID_43_">
		<g id="XMLID_32_">
			<path id="XMLID_98_" class="st8" d="M609.4,78.7c3.9,0,7.8,0,11.7,0c2.1,0,2.1-3.3,0-3.3c-3.9,0-7.8,0-11.7,0
				C607.3,75.5,607.3,78.7,609.4,78.7L609.4,78.7z"/>
		</g>
	</g>
	<circle id="XMLID_65_" class="st9" cx="237.5" cy="513.9" r="12.5"/>
	<g id="XMLID_17_">
		<g id="XMLID_195_">
			<path id="XMLID_199_" class="st0" d="M297.4,513.9c-0.3,25.1-16,48-39.7,56.4c-23.4,8.3-50,1.1-66-17.9
				c-16.3-19.4-18.5-47.8-5.4-69.5c12.9-21.4,38.6-32.7,63.1-27.8C277.1,460.8,297,485.7,297.4,513.9c0,2.2,3.5,2.2,3.5,0
				c-0.3-26.4-16.7-50.4-41.7-59.6c-25.1-9.2-54-1.1-70.8,19.6c-16.7,20.5-18.8,50.1-5.1,72.7c13.6,22.6,40.5,34.4,66.3,29.5
				c29.7-5.7,51-32.3,51.3-62.2C300.9,511.7,297.4,511.7,297.4,513.9z"/>
		</g>
	</g>
	<g id="XMLID_15_">
		<g id="XMLID_189_">
			<path id="XMLID_193_" class="st0" d="M328.2,513.9c-0.3,38-24.4,72.8-60.4,85.5c-35.6,12.5-76,1.3-100.1-27.7
				c-24.3-29.2-27.5-71.9-8-104.4c19.5-32.7,58.6-50,95.9-42.4C297.5,433.5,327.9,471.3,328.2,513.9c0,2.2,3.5,2.2,3.5,0
				c-0.3-39.2-24.9-74.8-61.7-88.4c-37.3-13.8-80.6-1.8-105.6,29.1c-24.6,30.4-27.9,74-7.7,107.6c20.3,33.8,60.5,51.7,99.1,44.1
				c43.8-8.6,75.6-48,75.9-92.4C331.7,511.7,328.2,511.7,328.2,513.9z"/>
		</g>
	</g>
	<g id="XMLID_13_">
		<g id="XMLID_183_">
			<path id="XMLID_187_" class="st0" d="M374.4,513.9c-0.3,56.9-36.3,109.1-89.9,128.7c-53.8,19.6-115.5,2.9-152.2-41
				C95.2,557.3,90.4,492.3,120.3,443c29.6-48.8,88.1-74.5,144.1-63.3c55.4,11.1,99.3,56.8,108.3,112.7
				C373.9,499.5,374.4,506.7,374.4,513.9c0,2.2,3.5,2.2,3.5,0c-0.3-58.3-37-111.5-91.8-131.8c-55.4-20.5-119.6-3-157.1,42.7
				c-37.3,45.5-42.2,111.5-11.6,161.9c30.5,50.2,90.5,76.4,148,64.9c57-11.4,102.3-59,110.9-116.4c1.1-7,1.6-14.1,1.6-21.2
				C377.9,511.7,374.4,511.7,374.4,513.9z"/>
		</g>
	</g>
	<circle id="XMLID_8_" class="st10" cx="237.5" cy="451.3" r="12.5"/>
	<g id="XMLID_6_">
		<g id="XMLID_116_">
			<path id="XMLID_135_" class="st8" d="M231.2,453.1c4.2,0,8.3,0,12.5,0c2.2,0,2.2-3.5,0-3.5c-4.2,0-8.3,0-12.5,0
				C229,449.6,229,453.1,231.2,453.1L231.2,453.1z"/>
		</g>
	</g>
	<g id="XMLID_71_">
		<g id="XMLID_150_">
			<path id="XMLID_159_" d="M672,296c-33.2,0-66.4,0-99.6,0c-62.3,0-124.7,0-187,0c-36.9,0-73.8,0.4-110.7,0
				c-17-0.2-32.6-10.4-38.5-26.5c-2.7-7.5-2.5-15.1-2.5-22.9c0-25.1,0-50.3,0-75.4c0-30,0-60,0-90c0-19.8-3.6-43.7,11.4-59.2
				c8.3-8.5,19.3-12.3,31-12.3c4.9,0,9.9,0,14.8,0c20.8,0,41.6,0,62.4,0c62,0,124,0,186,0c42.7,0,85.5,0,128.2,0
				c7.3,0,14.4,0.5,21.3,3.7c15,7,23.5,21.9,23.5,38.1c0.1,20,0,40,0,60c0,48,0.7,96.1,0,144.1C712.1,277.7,694.2,295.6,672,296
				c-3.4,0.1-3.4,5.3,0,5.2c21.4-0.3,40.6-15.5,44.7-36.8c1.2-6.4,0.9-13.1,0.9-19.7c0-26.8,0-53.7,0-80.5c0-29.8,0-59.6,0-89.4
				c0-7.7,0-15.3,0-23c0-14.8-5.9-28.7-17.8-37.9c-13.6-10.5-29.1-9.6-45.1-9.6c-21.7,0-43.5,0-65.2,0c-63.4,0-126.8,0-190.2,0
				c-41.1,0-82.1-0.1-123.2,0c-27.2,0.1-47.5,20.7-47.5,47.9c0,21.6,0,43.2,0,64.8c0,31.8,0,63.7,0,95.5c0,11,0,22.1,0,33.1
				c0,6.7-0.3,13.5,1.1,20c4.7,20.6,23.5,35.2,44.5,35.5c2.7,0,5.5,0,8.2,0c18.2,0,36.3,0,54.5,0c62.4,0,124.8,0,187.1,0
				c46.9,0,93.8,0,140.6,0c2.4,0,4.9,0,7.3,0C675.4,301.2,675.4,296,672,296z"/>
		</g>
	</g>
	<g id="XMLID_77_">
		<g id="XMLID_153_">
			<path id="XMLID_157_" d="M262,475.8c-15.1,0-30.2,0.2-45.3,0c-5.1-0.1-9.8-1.5-12.9-5.9c-2.4-3.4-2.5-7.1-2.5-11.1
				c0-9.3,0-18.7,0-28c0-8.5-1.8-19.6,6.8-24.6c6-3.5,16-1.9,22.6-1.9c9.2,0,18.5,0,27.7,0c3.5,0,6.7-0.1,9.9,1.6
				c5.2,2.8,7.3,7.9,7.4,13.5c0.2,9.9,0,19.9,0,29.9c0,3.9,0.1,7.8,0,11.7C275.6,469.1,270.4,475.4,262,475.8
				c-1.6,0.1-1.6,2.6,0,2.5c6.7-0.3,12.7-4,15.1-10.4c1.2-3.2,1.1-6.4,1.1-9.7c0-10.7,0-21.4,0-32.1c0-9.3-0.1-19.3-10.5-23.2
				c-3.1-1.2-6.3-1.1-9.6-1.1c-4.9,0-9.8,0-14.7,0c-9.3,0-18.6-0.2-27.9,0c-10.3,0.3-16.7,7.9-16.8,17.8c-0.1,10.3,0,20.7,0,31
				c0,8.8-1.4,18.7,6.7,24.5c7.2,5.2,19.3,3.1,27.6,3.1c9.6,0,19.3,0,28.9,0C263.6,478.3,263.6,475.8,262,475.8z"/>
		</g>
	</g>
	<g id="XMLID_84_">
		<g id="XMLID_160_">
			<path id="XMLID_164_" d="M277.4,429.1c28.1-4.7,52.9-21.4,70.1-43.8c18.7-24.3,28.2-54.3,31.6-84.5c0.3-2.4-3.5-2.4-3.8,0
				c-3.3,29.7-12.8,59.4-31.4,83.1c-16.8,21.3-40.5,37.1-67.5,41.6C274,425.9,275,429.5,277.4,429.1L277.4,429.1z"/>
		</g>
	</g>
	<g id="XMLID_11_">
		<g id="XMLID_177_">
			<path id="XMLID_181_" class="st0" d="M423.5,513c-0.3,77-49.2,147.6-121.8,173.9c-72.9,26.5-156.5,3.5-206-56.2
				c-49.5-59.8-55.9-147-15.7-213.4c40-66.2,119.2-101,195.1-85.7c74.8,15.1,134,76.8,146,152.1C422.7,493.4,423.4,503.1,423.5,513
				c0,2.2,3.5,2.2,3.5,0c-0.3-78.3-50-150-123.7-177.1c-74.6-27.4-160.7-3.6-210.8,57.9c-49.8,61-56.2,149.2-15.4,216.6
				c40.9,67.6,121.6,103,199,87.3c76.1-15.3,136.6-78.5,148.6-155.2c1.5-9.8,2.3-19.6,2.3-29.5C426.9,510.7,423.5,510.7,423.5,513z"
				/>
		</g>
	</g>
</g>
<g id="Layer_2">
	<rect id="XMLID_113_" x="292.4" y="23" class="st2" width="193" height="18"/>
	<text id="XMLID_112_" transform="matrix(1 0 0 1 323.0096 40.04)" class="st3 st11">ABSORPTION</text>
	<rect id="XMLID_99_" x="512.9" y="23" class="st2" width="193" height="18"/>
	<text id="XMLID_97_" transform="matrix(1 0 0 1 560.1519 40.04)" class="st3 st11">EMISSION</text>
</g>
</svg>