<?xml version="1.0" encoding="utf-8"?>
<!-- Generator: Adobe Illustrator 19.0.0, SVG Export Plug-In . SVG Version: 6.00 Build 0)  -->
<svg version="1.1" xmlns="http://www.w3.org/2000/svg" xmlns:xlink="http://www.w3.org/1999/xlink" x="0px" y="0px"
	 viewBox="0 0 720 720" style="enable-background:new 0 0 720 720;" xml:space="preserve">
<style type="text/css">
	.st0{fill:#C55857;}
	.st1{fill:#AB1F23;}
	.st2{fill:#FAD466;}
	.st3{fill:#00A9B1;}
	.st4{fill:#016065;}
</style>
<g id="Layer_1">
	<circle id="XMLID_33_" class="st0" cx="342" cy="333" r="27"/>
	<g id="XMLID_32_">
		<g id="XMLID_75_">
			<path id="XMLID_79_" class="st1" d="M324,335.5c12,0,24,0,36,0c3.2,0,3.2-5,0-5c-12,0-24,0-36,0
				C320.8,330.5,320.8,335.5,324,335.5L324,335.5z"/>
		</g>
	</g>
	<g id="XMLID_20_">
		<g id="XMLID_69_">
			<path id="XMLID_73_" class="st1" d="M344.5,351c0-12,0-24,0-36c0-3.2-5-3.2-5,0c0,12,0,24,0,36
				C339.5,354.2,344.5,354.2,344.5,351L344.5,351z"/>
		</g>
	</g>
	<circle id="XMLID_11_" class="st2" cx="369" cy="333" r="27"/>
	<circle id="XMLID_10_" class="st2" cx="333" cy="369" r="27"/>
	<circle id="XMLID_5_" class="st0" cx="396" cy="351" r="27"/>
	<g id="XMLID_6_">
		<g id="XMLID_63_">
			<path id="XMLID_67_" class="st1" d="M378,353.5c12,0,24,0,36,0c3.2,0,3.2-5,0-5c-12,0-24,0-36,0
				C374.8,348.5,374.8,353.5,378,353.5L378,353.5z"/>
		</g>
	</g>
	<g id="XMLID_4_">
		<g id="XMLID_57_">
			<path id="XMLID_61_" class="st1" d="M398.5,369c0-12,0-24,0-36c0-3.2-5-3.2-5,0c0,12,0,24,0,36
				C393.5,372.2,398.5,372.2,398.5,369L398.5,369z"/>
		</g>
	</g>
	<circle id="XMLID_3_" class="st2" cx="378" cy="378" r="27"/>
	<circle id="XMLID_26_" class="st0" cx="351" cy="396" r="27"/>
	<g id="XMLID_2_">
		<g id="XMLID_51_">
			<path id="XMLID_55_" class="st1" d="M333,398.5c12,0,24,0,36,0c3.2,0,3.2-5,0-5c-12,0-24,0-36,0
				C329.8,393.5,329.8,398.5,333,398.5L333,398.5z"/>
		</g>
	</g>
	<g id="XMLID_1_">
		<g id="XMLID_45_">
			<path id="XMLID_49_" class="st1" d="M353.5,414c0-12,0-24,0-36c0-3.2-5-3.2-5,0c0,12,0,24,0,36
				C348.5,417.2,353.5,417.2,353.5,414L353.5,414z"/>
		</g>
	</g>
	<g id="XMLID_7_">
		<g id="XMLID_95_">
			<path id="XMLID_105_" class="st3" d="M559.7,360c-0.3,83.2-53.4,159.7-131.9,187.9c-78.6,28.3-168.5,3.5-221.8-60.7
				c-53.4-64.5-60.3-158.5-17.1-230.2c43.3-71.8,129.5-109.6,211.7-92.5c80.4,16.7,143.9,83.3,156.7,164.4
				C558.9,339.1,559.7,349.6,559.7,360c0,3.2,5,3.2,5,0c-0.1-42.4-13.3-84.2-38-118.8c-23.9-33.5-57.7-59.3-96.3-73.5
				c-80.8-29.7-174.3-4-228.7,62.6c-54.1,66.2-61.3,162-17,235.3c21.3,35.3,53.3,63.9,90.9,80.9c39,17.6,83.1,22.6,125.1,14.2
				c83-16.6,149.1-85.8,161.7-169.5c1.6-10.3,2.3-20.7,2.4-31.2C564.7,356.8,559.7,356.8,559.7,360z"/>
		</g>
	</g>
	<g id="XMLID_8_">
		<g id="XMLID_87_">
			<path id="XMLID_92_" class="st3" d="M596.6,360c-0.1,48.9-15.2,96.9-43.6,136.9c-27.6,39-67.2,69.2-112.1,85.5
				c-46.4,16.9-97.8,18.7-145.4,5.3c-46-13-87.4-40.1-117.9-76.9c-31.1-37.4-50-84.3-53.7-132.8c-3.7-48.9,7.9-98.2,33.2-140.2
				c24.6-40.7,61.3-73.5,104.6-93.3c45.2-20.7,96.9-26.4,145.6-16.5c47,9.6,90.5,33.7,123.6,68.3c33.1,34.6,55.2,79,62.7,126.3
				C595.7,335,596.6,347.5,596.6,360c0,3.2,5,3.2,5,0c-0.1-50-15.6-99.2-44.6-139.9c-28.2-39.5-67.9-70-113.4-86.8
				c-47.5-17.6-100.5-19.6-149.3-5.8c-47,13.3-89.4,41-120.5,78.6c-31.6,38.2-50.8,85.7-54.7,135.1c-3.9,50.1,8.1,101,34.2,144
				c25.2,41.5,63,75.1,107.2,95.1c46,20.8,98.1,26.6,147.5,16.6c48.1-9.7,92.6-34.4,126.5-69.7c34-35.5,56.8-81.2,64.2-129.8
				c1.9-12.3,2.8-24.8,2.9-37.3C601.7,356.8,596.7,356.8,596.6,360z"/>
		</g>
	</g>
	<g id="XMLID_9_">
		<g id="XMLID_80_">
			<path id="XMLID_85_" class="st3" d="M636.5,360c-0.1,57.2-17.8,113.3-51,160c-32.3,45.5-78.5,80.8-130.9,99.9
				c-54.3,19.7-114.5,21.9-170,6.2c-53.7-15.2-102.1-47-137.7-89.9c-36.2-43.7-58.3-98.5-62.6-155.1c-4.3-57.2,9.3-114.9,39-164
				c28.8-47.6,71.8-85.8,122.4-108.9c52.8-24.1,113.2-30.7,170.1-19c54.7,11.2,105.3,39.3,143.9,79.6
				c38.9,40.6,64.8,92.8,73.6,148.3C635.4,331.2,636.5,345.6,636.5,360c0,3.2,5,3.2,5,0c-0.1-58.2-18.2-115.6-52-163.1
				c-32.8-46-79.2-81.7-132.3-101.2C401.8,75.3,340,73,283.2,89.1c-54.7,15.5-104.2,47.9-140.3,91.7c-36.6,44.4-59,99.4-63.5,156.8
				C74.8,396,88.6,455.3,119,505.5c29.3,48.4,73.2,87.6,124.8,111c53.6,24.3,114.3,31.1,172,19.5c56-11.2,107.9-39.9,147.4-81.1
				c39.6-41.3,66.2-94.6,74.9-151.2c2.2-14.4,3.3-29,3.4-43.6C641.5,356.8,636.5,356.8,636.5,360z"/>
		</g>
	</g>
	<g id="XMLID_13_">
		<g id="XMLID_37_">
			<path id="XMLID_68_" class="st3" d="M525.1,360c-0.3,68.5-43.7,131.5-108.2,155c-65.2,23.8-139.9,3.4-184.1-49.9
				c-44.3-53.4-49.9-131.3-14-190.5c35.7-59.1,106.6-90.2,174.3-76.4c66.6,13.6,119.3,68.5,130.1,135.6
				C524.4,342.4,525.1,351.2,525.1,360c0,3.2,5,3.2,5,0c-0.3-70.8-45.3-135.5-111.9-159.9c-66.9-24.4-144.2-3.3-189.4,51.7
				c-45.5,55.3-51.4,135.5-14,196.7c37,60.5,109.4,92.1,178.9,78.3c68.9-13.7,123.8-71.1,134.5-140.5c1.3-8.7,2-17.4,2-26.2
				C530.1,356.8,525.1,356.8,525.1,360z"/>
		</g>
	</g>
</g>
<g id="Layer_2">
	<circle id="XMLID_12_" class="st3" cx="192.4" cy="360" r="18"/>
	<g id="XMLID_14_">
		<g id="XMLID_36_">
			<path id="XMLID_94_" class="st4" d="M183.4,362.5c6,0,12,0,18,0c3.2,0,3.2-5,0-5c-6,0-12,0-18,0
				C180.2,357.5,180.2,362.5,183.4,362.5L183.4,362.5z"/>
		</g>
	</g>
	<circle id="XMLID_16_" class="st3" cx="527.6" cy="360" r="18"/>
	<g id="XMLID_15_">
		<g id="XMLID_98_">
			<path id="XMLID_102_" class="st4" d="M518.6,362.5c6,0,12,0,18,0c3.2,0,3.2-5,0-5c-6,0-12,0-18,0
				C515.4,357.5,515.4,362.5,518.6,362.5L518.6,362.5z"/>
		</g>
	</g>
	<circle id="XMLID_18_" class="st3" cx="360" cy="157.8" r="18"/>
	<g id="XMLID_17_">
		<g id="XMLID_106_">
			<path id="XMLID_110_" class="st4" d="M351,160.3c6,0,12,0,18,0c3.2,0,3.2-5,0-5c-6,0-12,0-18,0
				C347.8,155.3,347.8,160.3,351,160.3L351,160.3z"/>
		</g>
	</g>
</g>
</svg>
