<?xml version="1.0" encoding="utf-8"?>
<!-- Generator: Adobe Illustrator 19.0.0, SVG Export Plug-In . SVG Version: 6.00 Build 0)  -->
<svg version="1.1" xmlns="http://www.w3.org/2000/svg" xmlns:xlink="http://www.w3.org/1999/xlink" x="0px" y="0px"
	 viewBox="0 0 720 720" style="enable-background:new 0 0 720 720;" xml:space="preserve">
<style type="text/css">
	.st0{display:none;}
	.st1{display:inline;}
	.st2{display:inline;stroke:#000000;stroke-width:2;stroke-miterlimit:10;}
	.st3{fill:#FFFFFF;stroke:#FFFFFF;stroke-miterlimit:10;}
	.st4{fill:#FFFFFF;}
	.st5{fill:#FFFFFF;stroke:#FFFFFF;stroke-width:2;stroke-miterlimit:10;}
</style>
<g id="Layer_1" class="st0">
	<polygon id="XMLID_92_" class="st1" points="234,477 270,468 234,459 243,468 	"/>
	<g id="XMLID_6_" class="st1">
		<g id="XMLID_93_">
			<path id="XMLID_98_" d="M99,470.7c12.2,0.3,16.2,13.4,26.3,18.1c11.6,5.3,22.2-0.1,30-8.7c3.7-4,7.3-8.3,13-9.2
				c6.4-1,11.4,1.8,15.7,6.3c3.6,3.8,6.8,8.1,11.5,10.7c5.2,3,11.5,3.7,17.3,2.3c12.6-3,16.8-19.1,30.2-19.5c4.8-0.1,4.8-7.6,0-7.5
				c-5.9,0.2-11,2.1-15.5,5.9c-4,3.4-6.9,8.1-11.1,11.2c-4.9,3.6-11.8,4.2-17.1,1.1c-4.6-2.7-7.6-7.4-11.3-11
				c-8.5-8.1-21.3-9.8-30.9-2.5c-8.7,6.6-14.7,19.7-27.9,14.4c-5.5-2.2-8.8-7.6-12.8-11.6c-4.8-4.8-10.5-7.4-17.3-7.6
				C94.2,463,94.2,470.5,99,470.7L99,470.7z"/>
		</g>
	</g>
	<polygon id="XMLID_8_" class="st1" points="234,405 270,396 234,387 243,396 	"/>
	<g id="XMLID_7_" class="st1">
		<g id="XMLID_81_">
			<path id="XMLID_90_" d="M99,398.7c12.2,0.3,16.2,13.4,26.3,18.1c11.6,5.3,22.2-0.1,30-8.7c3.7-4,7.3-8.3,13-9.2
				c6.4-1,11.4,1.8,15.7,6.3c3.6,3.8,6.8,8.1,11.5,10.7c5.2,3,11.5,3.7,17.3,2.3c12.6-3,16.8-19.1,30.2-19.5c4.8-0.1,4.8-7.6,0-7.5
				c-5.9,0.2-11,2.1-15.5,5.9c-4,3.4-6.9,8.1-11.1,11.2c-4.9,3.6-11.8,4.2-17.1,1.1c-4.6-2.7-7.6-7.4-11.3-11
				c-8.5-8.1-21.3-9.8-30.9-2.5c-8.7,6.6-14.7,19.7-27.9,14.4c-5.5-2.2-8.8-7.6-12.8-11.6c-4.8-4.8-10.5-7.4-17.3-7.6
				C94.2,391,94.2,398.5,99,398.7L99,398.7z"/>
		</g>
	</g>
	<polygon id="XMLID_10_" class="st1" points="234,333 270,324 234,315 243,324 	"/>
	<g id="XMLID_9_" class="st1">
		<g id="XMLID_74_">
			<path id="XMLID_78_" d="M99,326.7c12.2,0.3,16.2,13.4,26.3,18.1c11.6,5.3,22.2-0.1,30-8.7c3.7-4,7.3-8.3,13-9.2
				c6.4-1,11.4,1.8,15.7,6.3c3.6,3.8,6.8,8.1,11.5,10.7c5.2,3,11.5,3.7,17.3,2.3c12.6-3,16.8-19.1,30.2-19.5c4.8-0.1,4.8-7.6,0-7.5
				c-5.9,0.2-11,2.1-15.5,5.9c-4,3.4-6.9,8.1-11.1,11.2c-4.9,3.6-11.8,4.2-17.1,1.1c-4.6-2.7-7.6-7.4-11.3-11
				c-8.5-8.1-21.3-9.8-30.9-2.5c-8.7,6.6-14.7,19.7-27.9,14.4c-5.5-2.2-8.8-7.6-12.8-11.6c-4.8-4.8-10.5-7.4-17.3-7.6
				C94.2,319,94.2,326.5,99,326.7L99,326.7z"/>
		</g>
	</g>
	<polygon id="XMLID_16_" class="st1" points="234,261 270,252 234,243 243,252 	"/>
	<g id="XMLID_15_" class="st1">
		<g id="XMLID_67_">
			<path id="XMLID_71_" d="M99,254.7c12.2,0.3,16.2,13.4,26.3,18.1c11.6,5.3,22.2-0.1,30-8.7c3.7-4,7.3-8.3,13-9.2
				c6.4-1,11.4,1.8,15.7,6.3c3.6,3.8,6.8,8.1,11.5,10.7c5.2,3,11.5,3.7,17.3,2.3c12.6-3,16.8-19.1,30.2-19.5c4.8-0.1,4.8-7.6,0-7.5
				c-5.9,0.2-11,2.1-15.5,5.9c-4,3.4-6.9,8.1-11.1,11.2c-4.9,3.6-11.8,4.2-17.1,1.1c-4.6-2.7-7.6-7.4-11.3-11
				c-8.5-8.1-21.3-9.8-30.9-2.5c-8.7,6.6-14.7,19.7-27.9,14.4c-5.5-2.2-8.8-7.6-12.8-11.6c-4.8-4.8-10.5-7.4-17.3-7.6
				C94.2,247,94.2,254.5,99,254.7L99,254.7z"/>
		</g>
	</g>
	<polygon id="XMLID_13_" class="st1" points="234,189 270,180 234,171 243,180 	"/>
	<g id="XMLID_11_" class="st1">
		<g id="XMLID_61_">
			<path id="XMLID_65_" d="M99,182.7c12.2,0.3,16.2,13.4,26.3,18.1c11.6,5.3,22.2-0.1,30-8.7c3.7-4,7.3-8.3,13-9.2
				c6.4-1,11.4,1.8,15.7,6.3c3.6,3.8,6.8,8.1,11.5,10.7c5.2,3,11.5,3.7,17.3,2.3c12.6-3,16.8-19.1,30.2-19.5c4.8-0.1,4.8-7.6,0-7.5
				c-5.9,0.2-11,2.1-15.5,5.9c-4,3.4-6.9,8.1-11.1,11.2c-4.9,3.6-11.8,4.2-17.1,1.1c-4.6-2.7-7.6-7.4-11.3-11
				c-8.5-8.1-21.3-9.8-30.9-2.5c-8.7,6.6-14.7,19.7-27.9,14.4c-5.5-2.2-8.8-7.6-12.8-11.6c-4.8-4.8-10.5-7.4-17.3-7.6
				C94.2,175,94.2,182.5,99,182.7L99,182.7z"/>
		</g>
	</g>
	<rect id="XMLID_2_" x="270" y="441" class="st1" width="36" height="144"/>
	<rect id="XMLID_21_" x="270" y="81" class="st1" width="36" height="144"/>
	<polygon id="XMLID_14_" class="st1" points="405,405 441,396 405,387 414,396 	"/>
	<g id="XMLID_12_" class="st1">
		<g id="XMLID_55_">
			<path id="XMLID_59_" d="M270,398.7c12.2,0.3,16.2,13.4,26.3,18.1c11.6,5.3,22.2-0.1,30-8.7c3.7-4,7.3-8.3,13-9.2
				c6.4-1,11.4,1.8,15.7,6.3c3.6,3.8,6.8,8.1,11.5,10.7c5.2,3,11.5,3.7,17.3,2.3c12.6-3,16.8-19.1,30.2-19.5c4.8-0.1,4.8-7.6,0-7.5
				c-5.9,0.2-11,2.1-15.5,5.9c-4,3.4-6.9,8.1-11.1,11.2c-4.9,3.6-11.8,4.2-17.1,1.1c-4.6-2.7-7.6-7.4-11.3-11
				c-8.5-8.1-21.3-9.8-30.9-2.5c-8.7,6.6-14.7,19.7-27.9,14.4c-5.5-2.2-8.8-7.6-12.8-11.6c-4.8-4.8-10.5-7.4-17.3-7.6
				C265.2,391,265.2,398.5,270,398.7L270,398.7z"/>
		</g>
	</g>
	<polygon id="XMLID_5_" class="st1" points="405,333 441,324 405,315 414,324 	"/>
	<g id="XMLID_4_" class="st1">
		<g id="XMLID_49_">
			<path id="XMLID_53_" d="M270,326.7c12.2,0.3,16.2,13.4,26.3,18.1c11.6,5.3,22.2-0.1,30-8.7c3.7-4,7.3-8.3,13-9.2
				c6.4-1,11.4,1.8,15.7,6.3c3.6,3.8,6.8,8.1,11.5,10.7c5.2,3,11.5,3.7,17.3,2.3c12.6-3,16.8-19.1,30.2-19.5c4.8-0.1,4.8-7.6,0-7.5
				c-5.9,0.2-11,2.1-15.5,5.9c-4,3.4-6.9,8.1-11.1,11.2c-4.9,3.6-11.8,4.2-17.1,1.1c-4.6-2.7-7.6-7.4-11.3-11
				c-8.5-8.1-21.3-9.8-30.9-2.5c-8.7,6.6-14.7,19.7-27.9,14.4c-5.5-2.2-8.8-7.6-12.8-11.6c-4.8-4.8-10.5-7.4-17.3-7.6
				C265.2,319,265.2,326.5,270,326.7L270,326.7z"/>
		</g>
	</g>
	<polygon id="XMLID_3_" class="st1" points="405,261 441,252 405,243 414,252 	"/>
	<g id="XMLID_1_" class="st1">
		<g id="XMLID_43_">
			<path id="XMLID_47_" d="M270,254.7c12.2,0.3,16.2,13.4,26.3,18.1c11.6,5.3,22.2-0.1,30-8.7c3.7-4,7.3-8.3,13-9.2
				c6.4-1,11.4,1.8,15.7,6.3c3.6,3.8,6.8,8.1,11.5,10.7c5.2,3,11.5,3.7,17.3,2.3c12.6-3,16.8-19.1,30.2-19.5c4.8-0.1,4.8-7.6,0-7.5
				c-5.9,0.2-11,2.1-15.5,5.9c-4,3.4-6.9,8.1-11.1,11.2c-4.9,3.6-11.8,4.2-17.1,1.1c-4.6-2.7-7.6-7.4-11.3-11
				c-8.5-8.1-21.3-9.8-30.9-2.5c-8.7,6.6-14.7,19.7-27.9,14.4c-5.5-2.2-8.8-7.6-12.8-11.6c-4.8-4.8-10.5-7.4-17.3-7.6
				C265.2,247,265.2,254.5,270,254.7L270,254.7z"/>
		</g>
	</g>
	<g id="XMLID_17_" class="st1">
		<g id="XMLID_84_">
			<path id="XMLID_89_" d="M474.5,234c0,22.2,0,44.4,0,66.6c0,35.6,0,71.2,0,106.9c0,8.2,0,16.3,0,24.5c0.8-0.8,1.7-1.7,2.5-2.5
				c-12,0-24,0-36,0c0.8,0.8,1.7,1.7,2.5,2.5c0-22.2,0-44.4,0-66.6c0-35.6,0-71.2,0-106.9c0-8.2,0-16.3,0-24.5
				c-0.8,0.8-1.7,1.7-2.5,2.5c12,0,24,0,36,0c3.2,0,3.2-5,0-5c-12,0-24,0-36,0c-1.4,0-2.5,1.1-2.5,2.5c0,22.2,0,44.4,0,66.6
				c0,35.6,0,71.2,0,106.9c0,8.2,0,16.3,0,24.5c0,1.4,1.1,2.5,2.5,2.5c12,0,24,0,36,0c1.4,0,2.5-1.1,2.5-2.5c0-22.2,0-44.4,0-66.6
				c0-35.6,0-71.2,0-106.9c0-8.2,0-16.3,0-24.5C479.5,230.8,474.5,230.8,474.5,234z"/>
		</g>
	</g>
	<polygon id="XMLID_20_" class="st1" points="585,333 621,324 585,315 594,324 	"/>
	<g id="XMLID_18_" class="st1">
		<g id="XMLID_37_">
			<path id="XMLID_41_" d="M450,326.7c12.2,0.3,16.2,13.4,26.3,18.1c11.6,5.3,22.2-0.1,30-8.7c3.7-4,7.3-8.3,13-9.2
				c6.4-1,11.4,1.8,15.7,6.3c3.6,3.8,6.8,8.1,11.5,10.7c5.2,3,11.5,3.7,17.3,2.3c12.6-3,16.8-19.1,30.2-19.5c4.8-0.1,4.8-7.6,0-7.5
				c-5.9,0.2-11,2.1-15.5,5.9c-4,3.4-6.9,8.1-11.1,11.2c-4.9,3.6-11.8,4.2-17.1,1.1c-4.6-2.7-7.6-7.4-11.3-11
				c-8.5-8.1-21.3-9.8-30.9-2.5c-8.7,6.6-14.7,19.7-27.9,14.4c-5.5-2.2-8.8-7.6-12.8-11.6c-4.8-4.8-10.5-7.4-17.3-7.6
				C445.2,319,445.2,326.5,450,326.7L450,326.7z"/>
		</g>
	</g>
	<polygon id="XMLID_23_" class="st1" points="564.1,500 594,522 578,488.5 576.8,501.2 	"/>
	<g id="XMLID_22_" class="st1">
		<g id="XMLID_99_">
			<path id="XMLID_103_" d="M580.9,500.8c-5.5-3.8-9.9-8.5-12.8-14.6c-2.1-4.5-3.4-9.3-5.4-13.8c-4.7-10.9-14.1-19.2-25.2-23.3
				c-10.3-3.8-20.6-0.9-31.1-2.2c-13.2-1.6-24.6-11.2-29.5-23.3c-2-5-3.5-10.3-6.1-15.1c-3.3-6-8.2-10.6-13.8-14.5
				c-3.2-2.2-6.2,3-3,5.2c5.5,3.8,9.9,8.5,12.8,14.6c2.1,4.5,3.4,9.3,5.4,13.8c4.7,10.9,14.1,19.2,25.2,23.3
				c10.3,3.8,20.6,0.9,31.1,2.2c13.2,1.6,24.6,11.2,29.5,23.3c2,5,3.5,10.3,6.1,15.1c3.3,6,8.2,10.6,13.8,14.5
				C581.1,508.2,584.1,503,580.9,500.8L580.9,500.8z"/>
		</g>
	</g>
	<polygon id="XMLID_25_" class="st1" points="564.1,148 594,126 578,159.5 576.8,146.8 	"/>
	<path id="XMLID_72_" class="st2" d="M580.4,146.2c-5.7,3.9-10.2,8.7-13.2,15c-2.1,4.5-3.4,9.3-5.4,13.8
		c-4.6,10.6-13.7,18.8-24.5,22.8c-10.2,3.8-20.5,0.9-30.9,2.2c-13.6,1.7-25.4,11.5-30.4,24.1c-2,5-3.4,10.1-6,14.8
		c-3.2,5.9-7.9,10.3-13.4,14.1c-2,1.4-3.9-1.9-1.9-3.2c5.7-3.9,10.2-8.7,13.2-15c2.1-4.5,3.4-9.3,5.4-13.8
		c4.6-10.6,13.7-18.8,24.5-22.8c10.2-3.8,20.5-0.9,30.9-2.2c13.6-1.7,25.4-11.5,30.4-24.1c2-5,3.4-10.1,6-14.8
		c3.2-5.9,7.9-10.3,13.4-14.1C580.5,141.6,582.3,144.9,580.4,146.2L580.4,146.2z"/>
</g>
<g id="Layer_3">
</g>
<g id="Layer_2">
	<polygon id="XMLID_116_" class="st3" points="234,477 270,468 234,459 243,468 	"/>
	<g id="XMLID_115_">
		<path id="XMLID_205_" class="st4" d="M99,466.9c18,0,18,20.2,36,20.2c18,0,18-20.2,36-20.2c18,0,18,20.2,36,20.2s18-20.2,36-20.2"
			/>
		<g id="XMLID_200_">
			<path id="XMLID_204_" class="st4" d="M99,470.7c12.2,0.3,16.2,13.4,26.3,18.1c11.6,5.3,22.2-0.1,30-8.7c3.7-4,7.3-8.3,13-9.2
				c6.4-1,11.4,1.8,15.7,6.3c3.6,3.8,6.8,8.1,11.5,10.7c5.2,3,11.5,3.7,17.3,2.3c12.6-3,16.8-19.1,30.2-19.5c4.8-0.1,4.8-7.6,0-7.5
				c-5.9,0.2-11,2.1-15.5,5.9c-4,3.4-6.9,8.1-11.1,11.2c-4.9,3.6-11.8,4.2-17.1,1.1c-4.6-2.7-7.6-7.4-11.3-11
				c-8.5-8.1-21.3-9.8-30.9-2.5c-8.7,6.6-14.7,19.7-27.9,14.4c-5.5-2.2-8.8-7.6-12.8-11.6c-4.8-4.8-10.5-7.4-17.3-7.6
				C94.2,463,94.2,470.5,99,470.7L99,470.7z"/>
		</g>
	</g>
	<polygon id="XMLID_114_" class="st3" points="234,405 270,396 234,387 243,396 	"/>
	<g id="XMLID_113_">
		<path id="XMLID_198_" class="st4" d="M99,394.9c18,0,18,20.2,36,20.2c18,0,18-20.2,36-20.2c18,0,18,20.2,36,20.2s18-20.2,36-20.2"
			/>
		<g id="XMLID_193_">
			<path id="XMLID_197_" class="st4" d="M99,398.7c12.2,0.3,16.2,13.4,26.3,18.1c11.6,5.3,22.2-0.1,30-8.7c3.7-4,7.3-8.3,13-9.2
				c6.4-1,11.4,1.8,15.7,6.3c3.6,3.8,6.8,8.1,11.5,10.7c5.2,3,11.5,3.7,17.3,2.3c12.6-3,16.8-19.1,30.2-19.5c4.8-0.1,4.8-7.6,0-7.5
				c-5.9,0.2-11,2.1-15.5,5.9c-4,3.4-6.9,8.1-11.1,11.2c-4.9,3.6-11.8,4.2-17.1,1.1c-4.6-2.7-7.6-7.4-11.3-11
				c-8.5-8.1-21.3-9.8-30.9-2.5c-8.7,6.6-14.7,19.7-27.9,14.4c-5.5-2.2-8.8-7.6-12.8-11.6c-4.8-4.8-10.5-7.4-17.3-7.6
				C94.2,391,94.2,398.5,99,398.7L99,398.7z"/>
		</g>
	</g>
	<polygon id="XMLID_112_" class="st3" points="234,333 270,324 234,315 243,324 	"/>
	<g id="XMLID_111_">
		<path id="XMLID_191_" class="st4" d="M99,322.9c18,0,18,20.2,36,20.2c18,0,18-20.2,36-20.2c18,0,18,20.2,36,20.2s18-20.2,36-20.2"
			/>
		<g id="XMLID_186_">
			<path id="XMLID_190_" class="st4" d="M99,326.7c12.2,0.3,16.2,13.4,26.3,18.1c11.6,5.3,22.2-0.1,30-8.7c3.7-4,7.3-8.3,13-9.2
				c6.4-1,11.4,1.8,15.7,6.3c3.6,3.8,6.8,8.1,11.5,10.7c5.2,3,11.5,3.7,17.3,2.3c12.6-3,16.8-19.1,30.2-19.5c4.8-0.1,4.8-7.6,0-7.5
				c-5.9,0.2-11,2.1-15.5,5.9c-4,3.4-6.9,8.1-11.1,11.2c-4.9,3.6-11.8,4.2-17.1,1.1c-4.6-2.7-7.6-7.4-11.3-11
				c-8.5-8.1-21.3-9.8-30.9-2.5c-8.7,6.6-14.7,19.7-27.9,14.4c-5.5-2.2-8.8-7.6-12.8-11.6c-4.8-4.8-10.5-7.4-17.3-7.6
				C94.2,319,94.2,326.5,99,326.7L99,326.7z"/>
		</g>
	</g>
	<polygon id="XMLID_110_" class="st3" points="234,261 270,252 234,243 243,252 	"/>
	<g id="XMLID_109_">
		<path id="XMLID_184_" class="st4" d="M99,250.9c18,0,18,20.2,36,20.2c18,0,18-20.2,36-20.2c18,0,18,20.2,36,20.2s18-20.2,36-20.2"
			/>
		<g id="XMLID_179_">
			<path id="XMLID_183_" class="st4" d="M99,254.7c12.2,0.3,16.2,13.4,26.3,18.1c11.6,5.3,22.2-0.1,30-8.7c3.7-4,7.3-8.3,13-9.2
				c6.4-1,11.4,1.8,15.7,6.3c3.6,3.8,6.8,8.1,11.5,10.7c5.2,3,11.5,3.7,17.3,2.3c12.6-3,16.8-19.1,30.2-19.5c4.8-0.1,4.8-7.6,0-7.5
				c-5.9,0.2-11,2.1-15.5,5.9c-4,3.4-6.9,8.1-11.1,11.2c-4.9,3.6-11.8,4.2-17.1,1.1c-4.6-2.7-7.6-7.4-11.3-11
				c-8.5-8.1-21.3-9.8-30.9-2.5c-8.7,6.6-14.7,19.7-27.9,14.4c-5.5-2.2-8.8-7.6-12.8-11.6c-4.8-4.8-10.5-7.4-17.3-7.6
				C94.2,247,94.2,254.5,99,254.7L99,254.7z"/>
		</g>
	</g>
	<polygon id="XMLID_108_" class="st3" points="234,189 270,180 234,171 243,180 	"/>
	<g id="XMLID_107_">
		<path id="XMLID_177_" class="st4" d="M99,178.9c18,0,18,20.2,36,20.2c18,0,18-20.2,36-20.2c18,0,18,20.2,36,20.2
			c18,0,18-20.2,36-20.2"/>
		<g id="XMLID_172_">
			<path id="XMLID_176_" class="st4" d="M99,182.7c12.2,0.3,16.2,13.4,26.3,18.1c11.6,5.3,22.2-0.1,30-8.7c3.7-4,7.3-8.3,13-9.2
				c6.4-1,11.4,1.8,15.7,6.3c3.6,3.8,6.8,8.1,11.5,10.7c5.2,3,11.5,3.7,17.3,2.3c12.6-3,16.8-19.1,30.2-19.5c4.8-0.1,4.8-7.6,0-7.5
				c-5.9,0.2-11,2.1-15.5,5.9c-4,3.4-6.9,8.1-11.1,11.2c-4.9,3.6-11.8,4.2-17.1,1.1c-4.6-2.7-7.6-7.4-11.3-11
				c-8.5-8.1-21.3-9.8-30.9-2.5c-8.7,6.6-14.7,19.7-27.9,14.4c-5.5-2.2-8.8-7.6-12.8-11.6c-4.8-4.8-10.5-7.4-17.3-7.6
				C94.2,175,94.2,182.5,99,182.7L99,182.7z"/>
		</g>
	</g>
	<rect id="XMLID_106_" x="270" y="441" class="st3" width="36" height="144"/>
	<rect id="XMLID_105_" x="270" y="81" class="st3" width="36" height="144"/>
	<polygon id="XMLID_104_" class="st3" points="405,405 441,396 405,387 414,396 	"/>
	<g id="XMLID_94_">
		<path id="XMLID_170_" class="st4" d="M270,394.9c18,0,18,20.2,36,20.2c18,0,18-20.2,36-20.2c18,0,18,20.2,36,20.2
			c18,0,18-20.2,36-20.2"/>
		<g id="XMLID_165_">
			<path id="XMLID_169_" class="st4" d="M270,398.7c12.2,0.3,16.2,13.4,26.3,18.1c11.6,5.3,22.2-0.1,30-8.7c3.7-4,7.3-8.3,13-9.2
				c6.4-1,11.4,1.8,15.7,6.3c3.6,3.8,6.8,8.1,11.5,10.7c5.2,3,11.5,3.7,17.3,2.3c12.6-3,16.8-19.1,30.2-19.5c4.8-0.1,4.8-7.6,0-7.5
				c-5.9,0.2-11,2.1-15.5,5.9c-4,3.4-6.9,8.1-11.1,11.2c-4.9,3.6-11.8,4.2-17.1,1.1c-4.6-2.7-7.6-7.4-11.3-11
				c-8.5-8.1-21.3-9.8-30.9-2.5c-8.7,6.6-14.7,19.7-27.9,14.4c-5.5-2.2-8.8-7.6-12.8-11.6c-4.8-4.8-10.5-7.4-17.3-7.6
				C265.2,391,265.2,398.5,270,398.7L270,398.7z"/>
		</g>
	</g>
	<polygon id="XMLID_91_" class="st3" points="405,333 441,324 405,315 414,324 	"/>
	<g id="XMLID_80_">
		<path id="XMLID_163_" class="st4" d="M270,322.9c18,0,18,20.2,36,20.2c18,0,18-20.2,36-20.2c18,0,18,20.2,36,20.2
			c18,0,18-20.2,36-20.2"/>
		<g id="XMLID_158_">
			<path id="XMLID_162_" class="st4" d="M270,326.7c12.2,0.3,16.2,13.4,26.3,18.1c11.6,5.3,22.2-0.1,30-8.7c3.7-4,7.3-8.3,13-9.2
				c6.4-1,11.4,1.8,15.7,6.3c3.6,3.8,6.8,8.1,11.5,10.7c5.2,3,11.5,3.7,17.3,2.3c12.6-3,16.8-19.1,30.2-19.5c4.8-0.1,4.8-7.6,0-7.5
				c-5.9,0.2-11,2.1-15.5,5.9c-4,3.4-6.9,8.1-11.1,11.2c-4.9,3.6-11.8,4.2-17.1,1.1c-4.6-2.7-7.6-7.4-11.3-11
				c-8.5-8.1-21.3-9.8-30.9-2.5c-8.7,6.6-14.7,19.7-27.9,14.4c-5.5-2.2-8.8-7.6-12.8-11.6c-4.8-4.8-10.5-7.4-17.3-7.6
				C265.2,319,265.2,326.5,270,326.7L270,326.7z"/>
		</g>
	</g>
	<polygon id="XMLID_73_" class="st3" points="405,261 441,252 405,243 414,252 	"/>
	<g id="XMLID_31_">
		<path id="XMLID_156_" class="st4" d="M270,250.9c18,0,18,20.2,36,20.2c18,0,18-20.2,36-20.2c18,0,18,20.2,36,20.2
			c18,0,18-20.2,36-20.2"/>
		<g id="XMLID_151_">
			<path id="XMLID_155_" class="st4" d="M270,254.7c12.2,0.3,16.2,13.4,26.3,18.1c11.6,5.3,22.2-0.1,30-8.7c3.7-4,7.3-8.3,13-9.2
				c6.4-1,11.4,1.8,15.7,6.3c3.6,3.8,6.8,8.1,11.5,10.7c5.2,3,11.5,3.7,17.3,2.3c12.6-3,16.8-19.1,30.2-19.5c4.8-0.1,4.8-7.6,0-7.5
				c-5.9,0.2-11,2.1-15.5,5.9c-4,3.4-6.9,8.1-11.1,11.2c-4.9,3.6-11.8,4.2-17.1,1.1c-4.6-2.7-7.6-7.4-11.3-11
				c-8.5-8.1-21.3-9.8-30.9-2.5c-8.7,6.6-14.7,19.7-27.9,14.4c-5.5-2.2-8.8-7.6-12.8-11.6c-4.8-4.8-10.5-7.4-17.3-7.6
				C265.2,247,265.2,254.5,270,254.7L270,254.7z"/>
		</g>
	</g>
	<g id="XMLID_30_">
		<g id="XMLID_144_">
			<path id="XMLID_178_" class="st4" d="M474.5,234c0,22.2,0,44.4,0,66.6c0,35.6,0,71.2,0,106.9c0,8.2,0,16.3,0,24.5
				c0.8-0.8,1.7-1.7,2.5-2.5c-12,0-24,0-36,0c0.8,0.8,1.7,1.7,2.5,2.5c0-22.2,0-44.4,0-66.6c0-35.6,0-71.2,0-106.9
				c0-8.2,0-16.3,0-24.5c-0.8,0.8-1.7,1.7-2.5,2.5c12,0,24,0,36,0c3.2,0,3.2-5,0-5c-12,0-24,0-36,0c-1.4,0-2.5,1.1-2.5,2.5
				c0,22.2,0,44.4,0,66.6c0,35.6,0,71.2,0,106.9c0,8.2,0,16.3,0,24.5c0,1.4,1.1,2.5,2.5,2.5c12,0,24,0,36,0c1.4,0,2.5-1.1,2.5-2.5
				c0-22.2,0-44.4,0-66.6c0-35.6,0-71.2,0-106.9c0-8.2,0-16.3,0-24.5C479.5,230.8,474.5,230.8,474.5,234z"/>
		</g>
	</g>
	<polygon id="XMLID_29_" class="st3" points="585,333 621,324 585,315 594,324 	"/>
	<g id="XMLID_28_">
		<path id="XMLID_142_" class="st4" d="M450,322.9c18,0,18,20.2,36,20.2c18,0,18-20.2,36-20.2c18,0,18,20.2,36,20.2
			c18,0,18-20.2,36-20.2"/>
		<g id="XMLID_137_">
			<path id="XMLID_141_" class="st4" d="M450,326.7c12.2,0.3,16.2,13.4,26.3,18.1c11.6,5.3,22.2-0.1,30-8.7c3.7-4,7.3-8.3,13-9.2
				c6.4-1,11.4,1.8,15.7,6.3c3.6,3.8,6.8,8.1,11.5,10.7c5.2,3,11.5,3.7,17.3,2.3c12.6-3,16.8-19.1,30.2-19.5c4.8-0.1,4.8-7.6,0-7.5
				c-5.9,0.2-11,2.1-15.5,5.9c-4,3.4-6.9,8.1-11.1,11.2c-4.9,3.6-11.8,4.2-17.1,1.1c-4.6-2.7-7.6-7.4-11.3-11
				c-8.5-8.1-21.3-9.8-30.9-2.5c-8.7,6.6-14.7,19.7-27.9,14.4c-5.5-2.2-8.8-7.6-12.8-11.6c-4.8-4.8-10.5-7.4-17.3-7.6
				C445.2,319,445.2,326.5,450,326.7L450,326.7z"/>
		</g>
	</g>
	<polygon id="XMLID_27_" class="st3" points="564.1,500 594,522 578,488.5 576.8,501.2 	"/>
	<g id="XMLID_26_">
		<path id="XMLID_135_" class="st4" d="M579.4,503.4c-22.5-15-11.3-31.8-33.8-46.8c-22.5-15-33.7,1.8-56.2-13.2
			c-22.5-15-11.3-31.8-33.8-46.8"/>
		<g id="XMLID_130_">
			<path id="XMLID_134_" class="st4" d="M580.9,500.8c-5.5-3.8-9.9-8.5-12.8-14.6c-2.1-4.5-3.4-9.3-5.4-13.8
				c-4.7-10.9-14.1-19.2-25.2-23.3c-10.3-3.8-20.6-0.9-31.1-2.2c-13.2-1.6-24.6-11.2-29.5-23.3c-2-5-3.5-10.3-6.1-15.1
				c-3.3-6-8.2-10.6-13.8-14.5c-3.2-2.2-6.2,3-3,5.2c5.5,3.8,9.9,8.5,12.8,14.6c2.1,4.5,3.4,9.3,5.4,13.8
				c4.7,10.9,14.1,19.2,25.2,23.3c10.3,3.8,20.6,0.9,31.1,2.2c13.2,1.6,24.6,11.2,29.5,23.3c2,5,3.5,10.3,6.1,15.1
				c3.3,6,8.2,10.6,13.8,14.5C581.1,508.2,584.1,503,580.9,500.8L580.9,500.8z"/>
		</g>
	</g>
	<polygon id="XMLID_24_" class="st3" points="564.1,148 594,126 578,159.5 576.8,146.8 	"/>
	<path id="XMLID_19_" class="st5" d="M580.4,146.2c-5.7,3.9-10.2,8.7-13.2,15c-2.1,4.5-3.4,9.3-5.4,13.8
		c-4.6,10.6-13.7,18.8-24.5,22.8c-10.2,3.8-20.5,0.9-30.9,2.2c-13.6,1.7-25.4,11.5-30.4,24.1c-2,5-3.4,10.1-6,14.8
		c-3.2,5.9-7.9,10.3-13.4,14.1c-2,1.4-3.9-1.9-1.9-3.2c5.7-3.9,10.2-8.7,13.2-15c2.1-4.5,3.4-9.3,5.4-13.8
		c4.6-10.6,13.7-18.8,24.5-22.8c10.2-3.8,20.5-0.9,30.9-2.2c13.6-1.7,25.4-11.5,30.4-24.1c2-5,3.4-10.1,6-14.8
		c3.2-5.9,7.9-10.3,13.4-14.1C580.5,141.6,582.3,144.9,580.4,146.2L580.4,146.2z"/>
</g>
</svg>
