<?xml version="1.0" encoding="utf-8"?>
<!-- Generator: Adobe Illustrator 19.0.0, SVG Export Plug-In . SVG Version: 6.00 Build 0)  -->
<svg version="1.1" xmlns="http://www.w3.org/2000/svg" xmlns:xlink="http://www.w3.org/1999/xlink" x="0px" y="0px"
	 viewBox="0 0 720 720" style="enable-background:new 0 0 720 720;" xml:space="preserve">
<style type="text/css">
	.st0{display:none;}
	.st1{display:inline;fill:#612771;stroke:#000000;stroke-miterlimit:10;}
	.st2{fill:#FFFFFF;}
	.st3{fill:#FFFFFF;stroke:#FFFFFF;stroke-miterlimit:10;}
	.st4{opacity:0.5;fill:#FFFFFF;stroke:#FFFFFF;stroke-miterlimit:10;}
</style>
<g id="Layer_3" class="st0">
	<rect id="XMLID_18_" class="st1" width="720" height="720"/>
</g>
<g id="Layer_1">
	<g id="XMLID_1_">
		<g id="XMLID_83_">
			<path id="XMLID_87_" class="st2" d="M387,573.5c-18,0-36,0-54,0c0.8,0.8,1.7,1.7,2.5,2.5c0-14.3,0-28.6,0-43
				c0-34.4,0-68.8,0-103.2c0-41.6,0-83.2,0-124.8c0-36,0-71.9,0-107.9c0-11.8,0-23.6,0-35.4c0-3.7,0-7.5,0-11.2c0-1.6,0.5-4.2,0-5.8
				c-0.1-0.2,0-0.5,0-0.7c-0.8,0.8-1.7,1.7-2.5,2.5c18,0,36,0,54,0c-0.8-0.8-1.7-1.7-2.5-2.5c0,14.3,0,28.6,0,43
				c0,34.4,0,68.8,0,103.2c0,41.6,0,83.2,0,124.8c0,36,0,71.9,0,107.9c0,11.8,0,23.6,0,35.4c0,5.6-0.5,11.4,0,17c0,0.2,0,0.5,0,0.7
				c0,3.2,5,3.2,5,0c0-14.3,0-28.6,0-43c0-34.4,0-68.8,0-103.2c0-41.6,0-83.2,0-124.8c0-36,0-71.9,0-107.9c0-11.8,0-23.6,0-35.4
				c0-5.6,0.5-11.4,0-17c0-0.2,0-0.5,0-0.7c0-1.4-1.1-2.5-2.5-2.5c-18,0-36,0-54,0c-1.4,0-2.5,1.1-2.5,2.5c0,14.3,0,28.6,0,43
				c0,34.4,0,68.8,0,103.2c0,41.6,0,83.2,0,124.8c0,36,0,71.9,0,107.9c0,11.8,0,23.6,0,35.4c0,5.6-0.5,11.4,0,17c0,0.2,0,0.5,0,0.7
				c0,1.4,1.1,2.5,2.5,2.5c18,0,36,0,54,0C390.2,578.5,390.2,573.5,387,573.5z"/>
		</g>
	</g>
	<circle id="XMLID_19_" class="st3" cx="360" cy="216" r="9"/>
	<circle id="XMLID_9_" class="st3" cx="360" cy="288" r="9"/>
	<circle id="XMLID_13_" class="st3" cx="361" cy="360" r="9"/>
	<circle id="XMLID_14_" class="st3" cx="360" cy="432" r="9"/>
	<circle id="XMLID_15_" class="st3" cx="361" cy="504" r="9"/>
</g>
<g id="Layer_2">
	<g id="XMLID_2_">
		<line id="XMLID_95_" class="st2" x1="72" y1="360" x2="306" y2="360"/>
		<g id="XMLID_90_">
			<path id="XMLID_94_" class="st2" d="M72,362.5c26.4,0,52.7,0,79.1,0c42,0,84,0,126,0c9.6,0,19.2,0,28.8,0c3.2,0,3.2-5,0-5
				c-26.4,0-52.7,0-79.1,0c-42,0-84,0-126,0c-9.6,0-19.2,0-28.8,0C68.8,357.5,68.8,362.5,72,362.5L72,362.5z"/>
		</g>
	</g>
	<polygon id="XMLID_6_" class="st3" points="279,369 315,360 279,351 288,360 	"/>
	<g id="XMLID_4_">
		<line id="XMLID_88_" class="st2" x1="72" y1="216" x2="306" y2="216"/>
		<g id="XMLID_78_">
			<path id="XMLID_82_" class="st2" d="M72,218.5c26.4,0,52.7,0,79.1,0c42,0,84,0,126,0c9.6,0,19.2,0,28.8,0c3.2,0,3.2-5,0-5
				c-26.4,0-52.7,0-79.1,0c-42,0-84,0-126,0c-9.6,0-19.2,0-28.8,0C68.8,213.5,68.8,218.5,72,218.5L72,218.5z"/>
		</g>
	</g>
	<polygon id="XMLID_3_" class="st3" points="279,225 315,216 279,207 288,216 	"/>
	<g id="XMLID_7_">
		<line id="XMLID_76_" class="st2" x1="72" y1="288" x2="306" y2="288"/>
		<g id="XMLID_71_">
			<path id="XMLID_75_" class="st2" d="M72,290.5c26.4,0,52.7,0,79.1,0c42,0,84,0,126,0c9.6,0,19.2,0,28.8,0c3.2,0,3.2-5,0-5
				c-26.4,0-52.7,0-79.1,0c-42,0-84,0-126,0c-9.6,0-19.2,0-28.8,0C68.8,285.5,68.8,290.5,72,290.5L72,290.5z"/>
		</g>
	</g>
	<polygon id="XMLID_5_" class="st3" points="279,297 315,288 279,279 288,288 	"/>
	<g id="XMLID_10_">
		<line id="XMLID_69_" class="st2" x1="72" y1="432" x2="306" y2="432"/>
		<g id="XMLID_64_">
			<path id="XMLID_68_" class="st2" d="M72,434.5c26.4,0,52.7,0,79.1,0c42,0,84,0,126,0c9.6,0,19.2,0,28.8,0c3.2,0,3.2-5,0-5
				c-26.4,0-52.7,0-79.1,0c-42,0-84,0-126,0c-9.6,0-19.2,0-28.8,0C68.8,429.5,68.8,434.5,72,434.5L72,434.5z"/>
		</g>
	</g>
	<polygon id="XMLID_8_" class="st3" points="279,441 315,432 279,423 288,432 	"/>
	<g id="XMLID_12_">
		<line id="XMLID_62_" class="st2" x1="72" y1="504" x2="306" y2="504"/>
		<g id="XMLID_57_">
			<path id="XMLID_61_" class="st2" d="M72,506.5c26.4,0,52.7,0,79.1,0c42,0,84,0,126,0c9.6,0,19.2,0,28.8,0c3.2,0,3.2-5,0-5
				c-26.4,0-52.7,0-79.1,0c-42,0-84,0-126,0c-9.6,0-19.2,0-28.8,0C68.8,501.5,68.8,506.5,72,506.5L72,506.5z"/>
		</g>
	</g>
	<polygon id="XMLID_11_" class="st3" points="279,513 315,504 279,495 288,504 	"/>
	<path id="XMLID_20_" class="st4" d="M575.5,123.5l3.9-6.5L573,121c-0.6,0-1.2,0.2-1.7,0.7c-0.2,0.2-0.5,0.5-0.7,0.7l-23,13.8h9.2
		c-13.8,13.8-27.6,27.6-41.4,41.4c-29.7,29.7-59.4,59.4-89.1,89.1c-6.8,6.8-13.6,13.6-20.4,20.4c-2.3,2.3,1.3,5.8,3.5,3.5
		c18.6-18.6,37.3-37.3,55.9-55.9c29.7-29.7,59.4-59.4,89.1-89.1c2-2,3.9-3.9,5.9-5.9v9.2l13.8-23c0.2-0.2,0.5-0.5,0.7-0.7
		C575.3,124.7,575.5,124.1,575.5,123.5z"/>
	<path id="XMLID_17_" class="st4" d="M570.4,599.1l6.5,3.9l-3.9-6.5c0-0.6-0.2-1.2-0.7-1.7c-0.2-0.2-0.5-0.5-0.7-0.7l-13.8-23v9.2
		c-13.8-13.8-27.6-27.6-41.4-41.4c-29.7-29.7-59.4-59.4-89.1-89.1c-6.8-6.8-13.6-13.6-20.4-20.4c-2.3-2.3-5.8,1.3-3.5,3.5
		c18.6,18.6,37.3,37.3,55.9,55.9c29.7,29.7,59.4,59.4,89.1,89.1c2,2,3.9,3.9,5.9,5.9H545l23,13.8c0.2,0.2,0.5,0.5,0.7,0.7
		C569.2,598.9,569.8,599.1,570.4,599.1z"/>
	<g id="XMLID_47_">
		<line id="XMLID_39_" class="st2" x1="404.4" y1="361.1" x2="638.4" y2="361.1"/>
		<g id="XMLID_33_">
			<path id="XMLID_38_" class="st2" d="M404.4,363.6c26.4,0,52.7,0,79.1,0c42,0,84,0,126,0c9.6,0,19.2,0,28.8,0c3.2,0,3.2-5,0-5
				c-26.4,0-52.7,0-79.1,0c-42,0-84,0-126,0c-9.6,0-19.2,0-28.8,0C401.2,358.6,401.2,363.6,404.4,363.6L404.4,363.6z"/>
		</g>
	</g>
	<polygon id="XMLID_41_" class="st3" points="611.4,370.1 647.4,361.1 611.4,352.1 620.4,361.1 	"/>
</g>
</svg>
