<?xml version="1.0" encoding="utf-8"?>
<!-- Generator: Adobe Illustrator 19.0.0, SVG Export Plug-In . SVG Version: 6.00 Build 0)  -->
<svg version="1.1" id="Layer_1" xmlns="http://www.w3.org/2000/svg" xmlns:xlink="http://www.w3.org/1999/xlink" x="0px" y="0px"
	 viewBox="0 0 720 720" style="enable-background:new 0 0 720 720;" xml:space="preserve">
<style type="text/css">
	.st0{fill:none;stroke:#000000;stroke-miterlimit:10;}
	.st1{fill:#FFFFFF;}
	.st2{fill:#E48A2A;}
	.st3{fill:#2AABA3;}
	.st4{fill:#00A9B1;}
	.st5{fill:#C298C6;}
	.st6{fill:none;stroke:#E48A2A;stroke-miterlimit:10;}
	.st7{fill:#EEB478;}
</style>
<path id="XMLID_174_" class="st0" d="M132,301.1"/>
<path id="XMLID_173_" class="st0" d="M132,301.1"/>
<g id="XMLID_172_">
	<circle id="XMLID_249_" class="st1" cx="146.2" cy="301.1" r="28.5"/>
	<g id="XMLID_242_">
		<path id="XMLID_247_" class="st2" d="M172.2,301.1c-0.3,14.2-11.6,26-26,26c-14.2,0-26-11.8-26-26c0-14.1,11.8-26,26-26
			C160.6,275.2,171.8,286.9,172.2,301.1c0.1,3.2,5.1,3.2,5,0c-0.3-12.7-7.8-24.2-19.8-28.9c-12.4-4.8-26.8-0.9-35.2,9.4
			c-17.8,21.9,1.9,54.7,29.4,50c14.9-2.6,25.2-15.7,25.6-30.5C177.3,297.9,172.3,297.9,172.2,301.1z"/>
	</g>
</g>
<g id="XMLID_170_">
	<polygon id="XMLID_241_" class="st3" points="595.4,205 633.4,237 633.4,140.9 595.4,108.9 	"/>
	<g id="XMLID_234_">
		<path id="XMLID_240_" class="st4" d="M593.7,206.8c12.7,10.7,25.3,21.4,38,32c1.6,1.3,4.3,0.5,4.3-1.8c0-20.8,0-41.5,0-62.3
			c0-10.4,0-20.8,0-31.1c0-1.9,0.2-3.2-1-4.7c-2.7-3.3-7-5.9-10.2-8.6c-9.1-7.7-18.3-15.4-27.4-23.2c-1.6-1.3-4.3-0.5-4.3,1.8
			c0,28,0,56.1,0,84.1c0,4,0,8,0,12c0,3.2,5,3.2,5,0c0-28,0-56.1,0-84.1c0-4,0-8,0-12c-1.4,0.6-2.8,1.2-4.3,1.8
			c7.7,6.5,15.4,13,23.1,19.5c4.2,3.6,8.4,7.1,12.6,10.7c0.3,0.3,3.3,2.7,1.8,1c-0.9-1-0.3-0.5-0.4,0.8c-0.7,9.3,0,19,0,28.3
			c0,13.8,0,27.6,0,41.4c0,8.2,0,16.4,0,24.6c1.4-0.6,2.8-1.2,4.3-1.8c-12.7-10.7-25.3-21.4-38-32
			C594.8,201.2,591.2,204.7,593.7,206.8z"/>
	</g>
</g>
<g id="XMLID_166_">
	<polygon id="XMLID_233_" class="st3" points="633.4,237 671.4,269.1 671.4,173 633.4,140.9 	"/>
	<g id="XMLID_223_">
		<path id="XMLID_232_" class="st4" d="M631.6,238.8c12.7,10.7,25.3,21.4,38,32c1.6,1.3,4.3,0.5,4.3-1.8c0-20.8,0-41.5,0-62.3
			c0-10.4,0-20.8,0-31.1c0-1.9,0.2-3.2-1-4.7c-2.7-3.3-7-5.9-10.2-8.6c-9.1-7.7-18.3-15.4-27.4-23.2c-1.6-1.3-4.3-0.5-4.3,1.8
			c0,28,0,56.1,0,84.1c0,4,0,8,0,12c0,3.2,5,3.2,5,0c0-28,0-56.1,0-84.1c0-4,0-8,0-12c-1.4,0.6-2.8,1.2-4.3,1.8
			c7.7,6.5,15.4,13,23.1,19.5c4.2,3.6,8.4,7.1,12.6,10.7c0.3,0.3,3.3,2.7,1.8,1c-0.9-1-0.3-0.5-0.4,0.8c-0.7,9.3,0,19,0,28.3
			c0,13.8,0,27.6,0,41.4c0,8.2,0,16.4,0,24.6c1.4-0.6,2.8-1.2,4.3-1.8c-12.7-10.7-25.3-21.4-38-32
			C632.7,233.2,629.2,236.7,631.6,238.8z"/>
	</g>
</g>
<g id="XMLID_165_">
	<polygon id="XMLID_222_" class="st3" points="595.4,301.1 633.4,333.1 633.4,237 595.4,205 	"/>
	<g id="XMLID_215_">
		<path id="XMLID_221_" class="st4" d="M593.7,302.9c12.7,10.7,25.3,21.4,38,32c1.6,1.3,4.3,0.5,4.3-1.8c0-20.8,0-41.5,0-62.3
			c0-10.4,0-20.8,0-31.1c0-1.9,0.2-3.2-1-4.7c-2.7-3.3-7-5.9-10.2-8.6c-9.1-7.7-18.3-15.4-27.4-23.2c-1.6-1.3-4.3-0.5-4.3,1.8
			c0,28,0,56.1,0,84.1c0,4,0,8,0,12c0,3.2,5,3.2,5,0c0-28,0-56.1,0-84.1c0-4,0-8,0-12c-1.4,0.6-2.8,1.2-4.3,1.8
			c7.7,6.5,15.4,13,23.1,19.5c4.2,3.6,8.4,7.1,12.6,10.7c0.3,0.3,3.3,2.7,1.8,1c-0.9-1-0.3-0.5-0.4,0.8c-0.7,9.3,0,19,0,28.3
			c0,13.8,0,27.6,0,41.4c0,8.2,0,16.4,0,24.6c1.4-0.6,2.8-1.2,4.3-1.8c-12.7-10.7-25.3-21.4-38-32
			C594.8,297.3,591.2,300.8,593.7,302.9z"/>
	</g>
</g>
<g id="XMLID_164_">
	<polygon id="XMLID_214_" class="st3" points="633.4,333.1 671.4,365.2 671.4,269.1 633.4,237 	"/>
	<g id="XMLID_208_">
		<path id="XMLID_213_" class="st4" d="M631.6,334.9c12.7,10.7,25.3,21.4,38,32c1.6,1.3,4.3,0.5,4.3-1.8c0-20.8,0-41.5,0-62.3
			c0-10.4,0-20.8,0-31.1c0-1.9,0.2-3.2-1-4.7c-2.7-3.3-7-5.9-10.2-8.6c-9.1-7.7-18.3-15.4-27.4-23.2c-1.6-1.3-4.3-0.5-4.3,1.8
			c0,28,0,56.1,0,84.1c0,4,0,8,0,12c0,3.2,5,3.2,5,0c0-28,0-56.1,0-84.1c0-4,0-8,0-12c-1.4,0.6-2.8,1.2-4.3,1.8
			c7.7,6.5,15.4,13,23.1,19.5c4.2,3.6,8.4,7.1,12.6,10.7c0.3,0.3,3.3,2.7,1.8,1c-0.9-1-0.3-0.5-0.4,0.8c-0.7,9.3,0,19,0,28.3
			c0,13.8,0,27.6,0,41.4c0,8.2,0,16.4,0,24.6c1.4-0.6,2.8-1.2,4.3-1.8c-12.7-10.7-25.3-21.4-38-32
			C632.7,329.3,629.2,332.8,631.6,334.9z"/>
	</g>
</g>
<g id="XMLID_158_">
	<polygon id="XMLID_71_" class="st5" points="671.4,269.1 709.3,301.1 709.3,205 671.4,173 	"/>
</g>
<g id="XMLID_152_">
	<polygon id="XMLID_207_" class="st3" points="671.4,365.2 709.3,397.2 709.3,301.1 671.4,269.1 	"/>
	<g id="XMLID_196_">
		<path id="XMLID_206_" class="st4" d="M669.6,366.9c12.7,10.7,25.3,21.4,38,32c1.6,1.3,4.3,0.5,4.3-1.8c0-20.8,0-41.5,0-62.3
			c0-10.4,0-20.8,0-31.1c0-1.9,0.2-3.2-1-4.7c-2.7-3.3-7-5.9-10.2-8.6c-9.1-7.7-18.3-15.4-27.4-23.2c-1.6-1.3-4.3-0.5-4.3,1.8
			c0,28,0,56.1,0,84.1c0,4,0,8,0,12c0,3.2,5,3.2,5,0c0-28,0-56.1,0-84.1c0-4,0-8,0-12c-1.4,0.6-2.8,1.2-4.3,1.8
			c7.7,6.5,15.4,13,23.1,19.5c4.2,3.6,8.4,7.1,12.6,10.7c0.3,0.3,3.3,2.7,1.8,1c-0.9-1-0.3-0.5-0.4,0.8c-0.7,9.3,0,19,0,28.3
			c0,13.8,0,27.6,0,41.4c0,8.2,0,16.4,0,24.6c1.4-0.6,2.8-1.2,4.3-1.8c-12.7-10.7-25.3-21.4-38-32
			C670.7,361.3,667.1,364.9,669.6,366.9z"/>
	</g>
</g>
<g id="XMLID_146_">
	<polygon id="XMLID_195_" class="st3" points="595.4,397.2 633.4,429.2 633.4,333.1 595.4,301.1 	"/>
	<g id="XMLID_188_">
		<path id="XMLID_194_" class="st4" d="M593.7,399c12.7,10.7,25.3,21.4,38,32c1.6,1.3,4.3,0.5,4.3-1.8c0-20.8,0-41.5,0-62.3
			c0-10.4,0-20.8,0-31.1c0-1.9,0.2-3.2-1-4.7c-2.7-3.3-7-5.9-10.2-8.6c-9.1-7.7-18.3-15.4-27.4-23.2c-1.6-1.3-4.3-0.5-4.3,1.8
			c0,28,0,56.1,0,84.1c0,4,0,8,0,12c0,3.2,5,3.2,5,0c0-28,0-56.1,0-84.1c0-4,0-8,0-12c-1.4,0.6-2.8,1.2-4.3,1.8
			c7.7,6.5,15.4,13,23.1,19.5c4.2,3.6,8.4,7.1,12.6,10.7c0.3,0.3,3.3,2.7,1.8,1c-0.9-1-0.3-0.5-0.4,0.8c-0.7,9.3,0,19,0,28.3
			c0,13.8,0,27.6,0,41.4c0,8.2,0,16.4,0,24.6c1.4-0.6,2.8-1.2,4.3-1.8c-12.7-10.7-25.3-21.4-38-32
			C594.8,393.4,591.2,396.9,593.7,399z"/>
	</g>
</g>
<g id="XMLID_140_">
	<polygon id="XMLID_187_" class="st3" points="633.4,429.2 671.4,461.3 671.4,365.2 633.4,333.1 	"/>
	<g id="XMLID_182_">
		<path id="XMLID_186_" class="st4" d="M631.6,431c12.7,10.7,25.3,21.4,38,32c1.6,1.3,4.3,0.5,4.3-1.8c0-20.8,0-41.5,0-62.3
			c0-10.4,0-20.8,0-31.1c0-1.9,0.2-3.2-1-4.7c-2.7-3.3-7-5.9-10.2-8.6c-9.1-7.7-18.3-15.4-27.4-23.2c-1.6-1.3-4.3-0.5-4.3,1.8
			c0,28,0,56.1,0,84.1c0,4,0,8,0,12c0,3.2,5,3.2,5,0c0-28,0-56.1,0-84.1c0-4,0-8,0-12c-1.4,0.6-2.8,1.2-4.3,1.8
			c7.7,6.5,15.4,13,23.1,19.5c4.2,3.6,8.4,7.1,12.6,10.7c0.3,0.3,3.3,2.7,1.8,1c-0.9-1-0.3-0.5-0.4,0.8c-0.7,9.3,0,19,0,28.3
			c0,13.8,0,27.6,0,41.4c0,8.2,0,16.4,0,24.6c1.4-0.6,2.8-1.2,4.3-1.8c-12.7-10.7-25.3-21.4-38-32
			C632.7,425.4,629.2,428.9,631.6,431z"/>
	</g>
</g>
<g id="XMLID_66_">
	<polygon id="XMLID_181_" class="st3" points="671.4,461.3 709.3,493.3 709.3,397.2 671.4,365.2 	"/>
	<g id="XMLID_176_">
		<path id="XMLID_180_" class="st4" d="M669.6,463c12.7,10.7,25.3,21.4,38,32c1.6,1.3,4.3,0.5,4.3-1.8c0-20.8,0-41.5,0-62.3
			c0-10.4,0-20.8,0-31.1c0-1.9,0.2-3.2-1-4.7c-2.7-3.3-7-5.9-10.2-8.6c-9.1-7.7-18.3-15.4-27.4-23.2c-1.6-1.3-4.3-0.5-4.3,1.8
			c0,28,0,56.1,0,84.1c0,4,0,8,0,12c0,3.2,5,3.2,5,0c0-28,0-56.1,0-84.1c0-4,0-8,0-12c-1.4,0.6-2.8,1.2-4.3,1.8
			c7.7,6.5,15.4,13,23.1,19.5c4.2,3.6,8.4,7.1,12.6,10.7c0.3,0.3,3.3,2.7,1.8,1c-0.9-1-0.3-0.5-0.4,0.8c-0.7,9.3,0,19,0,28.3
			c0,13.8,0,27.6,0,41.4c0,8.2,0,16.4,0,24.6c1.4-0.6,2.8-1.2,4.3-1.8c-12.7-10.7-25.3-21.4-38-32
			C670.7,457.4,667.1,460.9,669.6,463z"/>
	</g>
</g>
<g id="XMLID_65_">
	<polygon id="XMLID_67_" class="st5" points="306,333.1 343.9,365.2 343.9,269.1 306,237 	"/>
</g>
<g id="XMLID_64_">
	<polygon id="XMLID_270_" class="st3" points="440.4,269.1 478.4,301.1 478.4,205 440.4,173 	"/>
	<g id="XMLID_264_">
		<path id="XMLID_269_" class="st4" d="M438.6,270.8c12.7,10.7,25.3,21.4,38,32c1.6,1.3,4.3,0.5,4.3-1.8c0-20.8,0-41.5,0-62.3
			c0-10.4,0-20.8,0-31.1c0-1.9,0.2-3.2-1-4.7c-2.7-3.3-7-5.9-10.2-8.6c-9.1-7.7-18.3-15.4-27.4-23.2c-1.6-1.3-4.3-0.5-4.3,1.8
			c0,28,0,56.1,0,84.1c0,4,0,8,0,12c0,3.2,5,3.2,5,0c0-28,0-56.1,0-84.1c0-4,0-8,0-12c-1.4,0.6-2.8,1.2-4.3,1.8
			c7.7,6.5,15.4,13,23.1,19.5c4.2,3.6,8.4,7.1,12.6,10.7c0.3,0.3,3.3,2.7,1.8,1c-0.9-1-0.3-0.5-0.4,0.8c-0.7,9.3,0,19,0,28.3
			c0,13.8,0,27.6,0,41.4c0,8.2,0,16.4,0,24.6c1.4-0.6,2.8-1.2,4.3-1.8c-12.7-10.7-25.3-21.4-38-32
			C439.7,265.2,436.2,268.8,438.6,270.8z"/>
	</g>
</g>
<g id="XMLID_63_">
	<polygon id="XMLID_59_" class="st5" points="478.4,301.1 516.3,333.1 516.3,237 478.4,205 	"/>
</g>
<g id="XMLID_56_">
	<polygon id="XMLID_331_" class="st3" points="440.4,365.2 478.4,397.2 478.4,301.1 440.4,269.1 	"/>
	<g id="XMLID_274_">
		<path id="XMLID_278_" class="st4" d="M438.6,366.9c12.7,10.7,25.3,21.4,38,32c1.6,1.3,4.3,0.5,4.3-1.8c0-20.8,0-41.5,0-62.3
			c0-10.4,0-20.8,0-31.1c0-1.9,0.2-3.2-1-4.7c-2.7-3.3-7-5.9-10.2-8.6c-9.1-7.7-18.3-15.4-27.4-23.2c-1.6-1.3-4.3-0.5-4.3,1.8
			c0,28,0,56.1,0,84.1c0,4,0,8,0,12c0,3.2,5,3.2,5,0c0-28,0-56.1,0-84.1c0-4,0-8,0-12c-1.4,0.6-2.8,1.2-4.3,1.8
			c7.7,6.5,15.4,13,23.1,19.5c4.2,3.6,8.4,7.1,12.6,10.7c0.3,0.3,3.3,2.7,1.8,1c-0.9-1-0.3-0.5-0.4,0.8c-0.7,9.3,0,19,0,28.3
			c0,13.8,0,27.6,0,41.4c0,8.2,0,16.4,0,24.6c1.4-0.6,2.8-1.2,4.3-1.8c-12.7-10.7-25.3-21.4-38-32
			C439.7,361.3,436.2,364.9,438.6,366.9z"/>
	</g>
</g>
<g id="XMLID_50_">
	<polygon id="XMLID_338_" class="st3" points="478.4,397.2 516.3,429.2 516.3,333.1 478.4,301.1 	"/>
	<g id="XMLID_333_">
		<path id="XMLID_337_" class="st4" d="M476.6,399c12.7,10.7,25.3,21.4,38,32c1.6,1.3,4.3,0.5,4.3-1.8c0-20.8,0-41.5,0-62.3
			c0-10.4,0-20.8,0-31.1c0-1.9,0.2-3.2-1-4.7c-2.7-3.3-7-5.9-10.2-8.6c-9.1-7.7-18.3-15.4-27.4-23.2c-1.6-1.3-4.3-0.5-4.3,1.8
			c0,28,0,56.1,0,84.1c0,4,0,8,0,12c0,3.2,5,3.2,5,0c0-28,0-56.1,0-84.1c0-4,0-8,0-12c-1.4,0.6-2.8,1.2-4.3,1.8
			c7.7,6.5,15.4,13,23.1,19.5c4.2,3.6,8.4,7.1,12.6,10.7c0.3,0.3,3.3,2.7,1.8,1c-0.9-1-0.3-0.5-0.4,0.8c-0.7,9.3,0,19,0,28.3
			c0,13.8,0,27.6,0,41.4c0,8.2,0,16.4,0,24.6c1.4-0.6,2.8-1.2,4.3-1.8c-12.7-10.7-25.3-21.4-38-32
			C477.7,393.4,474.1,396.9,476.6,399z"/>
	</g>
</g>
<g id="XMLID_94_">
	<g id="XMLID_159_">
		<path id="XMLID_163_" d="M593.7,206.8c12.7,10.7,25.3,21.4,38,32c1.6,1.3,4.3,0.5,4.3-1.8c0-20.8,0-41.5,0-62.3
			c0-10.4,0-20.8,0-31.1c0-1.9,0.2-3.2-1-4.7c-2.7-3.3-7-5.9-10.2-8.6c-9.1-7.7-18.3-15.4-27.4-23.2c-1.6-1.3-4.3-0.5-4.3,1.8
			c0,28,0,56.1,0,84.1c0,4,0,8,0,12c0,3.2,5,3.2,5,0c0-28,0-56.1,0-84.1c0-4,0-8,0-12c-1.4,0.6-2.8,1.2-4.3,1.8
			c7.7,6.5,15.4,13,23.1,19.5c4.2,3.6,8.4,7.1,12.6,10.7c0.3,0.3,3.3,2.7,1.8,1c-0.9-1-0.3-0.5-0.4,0.8c-0.7,9.3,0,19,0,28.3
			c0,13.8,0,27.6,0,41.4c0,8.2,0,16.4,0,24.6c1.4-0.6,2.8-1.2,4.3-1.8c-12.7-10.7-25.3-21.4-38-32
			C594.8,201.2,591.2,204.7,593.7,206.8z"/>
	</g>
</g>
<g id="XMLID_93_">
	<g id="XMLID_153_">
		<path id="XMLID_157_" d="M631.6,238.8c12.7,10.7,25.3,21.4,38,32c1.6,1.3,4.3,0.5,4.3-1.8c0-20.8,0-41.5,0-62.3
			c0-10.4,0-20.8,0-31.1c0-1.9,0.2-3.2-1-4.7c-2.7-3.3-7-5.9-10.2-8.6c-9.1-7.7-18.3-15.4-27.4-23.2c-1.6-1.3-4.3-0.5-4.3,1.8
			c0,28,0,56.1,0,84.1c0,4,0,8,0,12c0,3.2,5,3.2,5,0c0-28,0-56.1,0-84.1c0-4,0-8,0-12c-1.4,0.6-2.8,1.2-4.3,1.8
			c7.7,6.5,15.4,13,23.1,19.5c4.2,3.6,8.4,7.1,12.6,10.7c0.3,0.3,3.3,2.7,1.8,1c-0.9-1-0.3-0.5-0.4,0.8c-0.7,9.3,0,19,0,28.3
			c0,13.8,0,27.6,0,41.4c0,8.2,0,16.4,0,24.6c1.4-0.6,2.8-1.2,4.3-1.8c-12.7-10.7-25.3-21.4-38-32
			C632.7,233.2,629.2,236.7,631.6,238.8z"/>
	</g>
</g>
<g id="XMLID_92_">
	<g id="XMLID_147_">
		<path id="XMLID_151_" d="M593.7,302.9c12.7,10.7,25.3,21.4,38,32c1.6,1.3,4.3,0.5,4.3-1.8c0-20.8,0-41.5,0-62.3
			c0-10.4,0-20.8,0-31.1c0-1.9,0.2-3.2-1-4.7c-2.7-3.3-7-5.9-10.2-8.6c-9.1-7.7-18.3-15.4-27.4-23.2c-1.6-1.3-4.3-0.5-4.3,1.8
			c0,28,0,56.1,0,84.1c0,4,0,8,0,12c0,3.2,5,3.2,5,0c0-28,0-56.1,0-84.1c0-4,0-8,0-12c-1.4,0.6-2.8,1.2-4.3,1.8
			c7.7,6.5,15.4,13,23.1,19.5c4.2,3.6,8.4,7.1,12.6,10.7c0.3,0.3,3.3,2.7,1.8,1c-0.9-1-0.3-0.5-0.4,0.8c-0.7,9.3,0,19,0,28.3
			c0,13.8,0,27.6,0,41.4c0,8.2,0,16.4,0,24.6c1.4-0.6,2.8-1.2,4.3-1.8c-12.7-10.7-25.3-21.4-38-32
			C594.8,297.3,591.2,300.8,593.7,302.9z"/>
	</g>
</g>
<g id="XMLID_90_">
	<g id="XMLID_141_">
		<path id="XMLID_145_" d="M631.6,334.9c12.7,10.7,25.3,21.4,38,32c1.6,1.3,4.3,0.5,4.3-1.8c0-20.8,0-41.5,0-62.3
			c0-10.4,0-20.8,0-31.1c0-1.9,0.2-3.2-1-4.7c-2.7-3.3-7-5.9-10.2-8.6c-9.1-7.7-18.3-15.4-27.4-23.2c-1.6-1.3-4.3-0.5-4.3,1.8
			c0,28,0,56.1,0,84.1c0,4,0,8,0,12c0,3.2,5,3.2,5,0c0-28,0-56.1,0-84.1c0-4,0-8,0-12c-1.4,0.6-2.8,1.2-4.3,1.8
			c7.7,6.5,15.4,13,23.1,19.5c4.2,3.6,8.4,7.1,12.6,10.7c0.3,0.3,3.3,2.7,1.8,1c-0.9-1-0.3-0.5-0.4,0.8c-0.7,9.3,0,19,0,28.3
			c0,13.8,0,27.6,0,41.4c0,8.2,0,16.4,0,24.6c1.4-0.6,2.8-1.2,4.3-1.8c-12.7-10.7-25.3-21.4-38-32
			C632.7,329.3,629.2,332.8,631.6,334.9z"/>
	</g>
</g>
<g id="XMLID_89_">
	<g id="XMLID_135_">
		<path id="XMLID_139_" d="M669.6,270.8c12.7,10.7,25.3,21.4,38,32c1.6,1.3,4.3,0.5,4.3-1.8c0-20.8,0-41.5,0-62.3
			c0-10.4,0-20.8,0-31.1c0-1.9,0.2-3.2-1-4.7c-2.7-3.3-7-5.9-10.2-8.6c-9.1-7.7-18.3-15.4-27.4-23.2c-1.6-1.3-4.3-0.5-4.3,1.8
			c0,28,0,56.1,0,84.1c0,4,0,8,0,12c0,3.2,5,3.2,5,0c0-28,0-56.1,0-84.1c0-4,0-8,0-12c-1.4,0.6-2.8,1.2-4.3,1.8
			c7.7,6.5,15.4,13,23.1,19.5c4.2,3.6,8.4,7.1,12.6,10.7c0.3,0.3,3.3,2.7,1.8,1c-0.9-1-0.3-0.5-0.4,0.8c-0.7,9.3,0,19,0,28.3
			c0,13.8,0,27.6,0,41.4c0,8.2,0,16.4,0,24.6c1.4-0.6,2.8-1.2,4.3-1.8c-12.7-10.7-25.3-21.4-38-32
			C670.7,265.2,667.1,268.8,669.6,270.8z"/>
	</g>
</g>
<g id="XMLID_62_">
	<g id="XMLID_126_">
		<path id="XMLID_133_" d="M669.6,366.9c12.7,10.7,25.3,21.4,38,32c1.6,1.3,4.3,0.5,4.3-1.8c0-20.8,0-41.5,0-62.3
			c0-10.4,0-20.8,0-31.1c0-1.9,0.2-3.2-1-4.7c-2.7-3.3-7-5.9-10.2-8.6c-9.1-7.7-18.3-15.4-27.4-23.2c-1.6-1.3-4.3-0.5-4.3,1.8
			c0,28,0,56.1,0,84.1c0,4,0,8,0,12c0,3.2,5,3.2,5,0c0-28,0-56.1,0-84.1c0-4,0-8,0-12c-1.4,0.6-2.8,1.2-4.3,1.8
			c7.7,6.5,15.4,13,23.1,19.5c4.2,3.6,8.4,7.1,12.6,10.7c0.3,0.3,3.3,2.7,1.8,1c-0.9-1-0.3-0.5-0.4,0.8c-0.7,9.3,0,19,0,28.3
			c0,13.8,0,27.6,0,41.4c0,8.2,0,16.4,0,24.6c1.4-0.6,2.8-1.2,4.3-1.8c-12.7-10.7-25.3-21.4-38-32
			C670.7,361.3,667.1,364.9,669.6,366.9z"/>
	</g>
</g>
<g id="XMLID_44_">
	<g id="XMLID_120_">
		<path id="XMLID_124_" d="M593.7,399c12.7,10.7,25.3,21.4,38,32c1.6,1.3,4.3,0.5,4.3-1.8c0-20.8,0-41.5,0-62.3
			c0-10.4,0-20.8,0-31.1c0-1.9,0.2-3.2-1-4.7c-2.7-3.3-7-5.9-10.2-8.6c-9.1-7.7-18.3-15.4-27.4-23.2c-1.6-1.3-4.3-0.5-4.3,1.8
			c0,28,0,56.1,0,84.1c0,4,0,8,0,12c0,3.2,5,3.2,5,0c0-28,0-56.1,0-84.1c0-4,0-8,0-12c-1.4,0.6-2.8,1.2-4.3,1.8
			c7.7,6.5,15.4,13,23.1,19.5c4.2,3.6,8.4,7.1,12.6,10.7c0.3,0.3,3.3,2.7,1.8,1c-0.9-1-0.3-0.5-0.4,0.8c-0.7,9.3,0,19,0,28.3
			c0,13.8,0,27.6,0,41.4c0,8.2,0,16.4,0,24.6c1.4-0.6,2.8-1.2,4.3-1.8c-12.7-10.7-25.3-21.4-38-32
			C594.8,393.4,591.2,396.9,593.7,399z"/>
	</g>
</g>
<g id="XMLID_38_">
	<g id="XMLID_114_">
		<path id="XMLID_118_" d="M631.6,431c12.7,10.7,25.3,21.4,38,32c1.6,1.3,4.3,0.5,4.3-1.8c0-20.8,0-41.5,0-62.3
			c0-10.4,0-20.8,0-31.1c0-1.9,0.2-3.2-1-4.7c-2.7-3.3-7-5.9-10.2-8.6c-9.1-7.7-18.3-15.4-27.4-23.2c-1.6-1.3-4.3-0.5-4.3,1.8
			c0,28,0,56.1,0,84.1c0,4,0,8,0,12c0,3.2,5,3.2,5,0c0-28,0-56.1,0-84.1c0-4,0-8,0-12c-1.4,0.6-2.8,1.2-4.3,1.8
			c7.7,6.5,15.4,13,23.1,19.5c4.2,3.6,8.4,7.1,12.6,10.7c0.3,0.3,3.3,2.7,1.8,1c-0.9-1-0.3-0.5-0.4,0.8c-0.7,9.3,0,19,0,28.3
			c0,13.8,0,27.6,0,41.4c0,8.2,0,16.4,0,24.6c1.4-0.6,2.8-1.2,4.3-1.8c-12.7-10.7-25.3-21.4-38-32
			C632.7,425.4,629.2,428.9,631.6,431z"/>
	</g>
</g>
<g id="XMLID_7_">
	<g id="XMLID_107_">
		<path id="XMLID_111_" d="M669.6,463c12.7,10.7,25.3,21.4,38,32c1.6,1.3,4.3,0.5,4.3-1.8c0-20.8,0-41.5,0-62.3
			c0-10.4,0-20.8,0-31.1c0-1.9,0.2-3.2-1-4.7c-2.7-3.3-7-5.9-10.2-8.6c-9.1-7.7-18.3-15.4-27.4-23.2c-1.6-1.3-4.3-0.5-4.3,1.8
			c0,28,0,56.1,0,84.1c0,4,0,8,0,12c0,3.2,5,3.2,5,0c0-28,0-56.1,0-84.1c0-4,0-8,0-12c-1.4,0.6-2.8,1.2-4.3,1.8
			c7.7,6.5,15.4,13,23.1,19.5c4.2,3.6,8.4,7.1,12.6,10.7c0.3,0.3,3.3,2.7,1.8,1c-0.9-1-0.3-0.5-0.4,0.8c-0.7,9.3,0,19,0,28.3
			c0,13.8,0,27.6,0,41.4c0,8.2,0,16.4,0,24.6c1.4-0.6,2.8-1.2,4.3-1.8c-12.7-10.7-25.3-21.4-38-32
			C670.7,457.4,667.1,460.9,669.6,463z"/>
	</g>
</g>
<g id="XMLID_6_">
	<g id="XMLID_101_">
		<path id="XMLID_105_" d="M304.2,334.9c12.7,10.7,25.3,21.4,38,32c1.6,1.3,4.3,0.5,4.3-1.8c0-20.8,0-41.5,0-62.3
			c0-10.4,0-20.8,0-31.1c0-1.9,0.2-3.2-1-4.7c-2.7-3.3-7-5.9-10.2-8.6c-9.1-7.7-18.3-15.4-27.4-23.2c-1.6-1.3-4.3-0.5-4.3,1.8
			c0,28,0,56.1,0,84.1c0,4,0,8,0,12c0,3.2,5,3.2,5,0c0-28,0-56.1,0-84.1c0-4,0-8,0-12c-1.4,0.6-2.8,1.2-4.3,1.8
			c7.7,6.5,15.4,13,23.1,19.5c4.2,3.6,8.4,7.1,12.6,10.7c0.3,0.3,3.3,2.7,1.8,1c-0.9-1-0.3-0.5-0.4,0.8c-0.7,9.3,0,19,0,28.3
			c0,13.8,0,27.6,0,41.4c0,8.2,0,16.4,0,24.6c1.4-0.6,2.8-1.2,4.3-1.8c-12.7-10.7-25.3-21.4-38-32
			C305.3,329.3,301.7,332.8,304.2,334.9z"/>
	</g>
</g>
<g id="XMLID_5_">
	<g id="XMLID_95_">
		<path id="XMLID_99_" d="M438.6,270.8c12.7,10.7,25.3,21.4,38,32c1.6,1.3,4.3,0.5,4.3-1.8c0-20.8,0-41.5,0-62.3
			c0-10.4,0-20.8,0-31.1c0-1.9,0.2-3.2-1-4.7c-2.7-3.3-7-5.9-10.2-8.6c-9.1-7.7-18.3-15.4-27.4-23.2c-1.6-1.3-4.3-0.5-4.3,1.8
			c0,28,0,56.1,0,84.1c0,4,0,8,0,12c0,3.2,5,3.2,5,0c0-28,0-56.1,0-84.1c0-4,0-8,0-12c-1.4,0.6-2.8,1.2-4.3,1.8
			c7.7,6.5,15.4,13,23.1,19.5c4.2,3.6,8.4,7.1,12.6,10.7c0.3,0.3,3.3,2.7,1.8,1c-0.9-1-0.3-0.5-0.4,0.8c-0.7,9.3,0,19,0,28.3
			c0,13.8,0,27.6,0,41.4c0,8.2,0,16.4,0,24.6c1.4-0.6,2.8-1.2,4.3-1.8c-12.7-10.7-25.3-21.4-38-32
			C439.7,265.2,436.2,268.8,438.6,270.8z"/>
	</g>
</g>
<g id="XMLID_4_">
	<g id="XMLID_84_">
		<path id="XMLID_88_" d="M476.6,302.9c12.7,10.7,25.3,21.4,38,32c1.6,1.3,4.3,0.5,4.3-1.8c0-20.8,0-41.5,0-62.3
			c0-10.4,0-20.8,0-31.1c0-1.9,0.2-3.2-1-4.7c-2.7-3.3-7-5.9-10.2-8.6c-9.1-7.7-18.3-15.4-27.4-23.2c-1.6-1.3-4.3-0.5-4.3,1.8
			c0,28,0,56.1,0,84.1c0,4,0,8,0,12c0,3.2,5,3.2,5,0c0-28,0-56.1,0-84.1c0-4,0-8,0-12c-1.4,0.6-2.8,1.2-4.3,1.8
			c7.7,6.5,15.4,13,23.1,19.5c4.2,3.6,8.4,7.1,12.6,10.7c0.3,0.3,3.3,2.7,1.8,1c-0.9-1-0.3-0.5-0.4,0.8c-0.7,9.3,0,19,0,28.3
			c0,13.8,0,27.6,0,41.4c0,8.2,0,16.4,0,24.6c1.4-0.6,2.8-1.2,4.3-1.8c-12.7-10.7-25.3-21.4-38-32
			C477.7,297.3,474.1,300.8,476.6,302.9z"/>
	</g>
</g>
<g id="XMLID_3_">
	<g id="XMLID_78_">
		<path id="XMLID_82_" d="M438.6,366.9c12.7,10.7,25.3,21.4,38,32c1.6,1.3,4.3,0.5,4.3-1.8c0-20.8,0-41.5,0-62.3
			c0-10.4,0-20.8,0-31.1c0-1.9,0.2-3.2-1-4.7c-2.7-3.3-7-5.9-10.2-8.6c-9.1-7.7-18.3-15.4-27.4-23.2c-1.6-1.3-4.3-0.5-4.3,1.8
			c0,28,0,56.1,0,84.1c0,4,0,8,0,12c0,3.2,5,3.2,5,0c0-28,0-56.1,0-84.1c0-4,0-8,0-12c-1.4,0.6-2.8,1.2-4.3,1.8
			c7.7,6.5,15.4,13,23.1,19.5c4.2,3.6,8.4,7.1,12.6,10.7c0.3,0.3,3.3,2.7,1.8,1c-0.9-1-0.3-0.5-0.4,0.8c-0.7,9.3,0,19,0,28.3
			c0,13.8,0,27.6,0,41.4c0,8.2,0,16.4,0,24.6c1.4-0.6,2.8-1.2,4.3-1.8c-12.7-10.7-25.3-21.4-38-32
			C439.7,361.3,436.2,364.9,438.6,366.9z"/>
	</g>
</g>
<g id="XMLID_1_">
	<g id="XMLID_72_">
		<path id="XMLID_76_" d="M476.6,399c12.7,10.7,25.3,21.4,38,32c1.6,1.3,4.3,0.5,4.3-1.8c0-20.8,0-41.5,0-62.3c0-10.4,0-20.8,0-31.1
			c0-1.9,0.2-3.2-1-4.7c-2.7-3.3-7-5.9-10.2-8.6c-9.1-7.7-18.3-15.4-27.4-23.2c-1.6-1.3-4.3-0.5-4.3,1.8c0,28,0,56.1,0,84.1
			c0,4,0,8,0,12c0,3.2,5,3.2,5,0c0-28,0-56.1,0-84.1c0-4,0-8,0-12c-1.4,0.6-2.8,1.2-4.3,1.8c7.7,6.5,15.4,13,23.1,19.5
			c4.2,3.6,8.4,7.1,12.6,10.7c0.3,0.3,3.3,2.7,1.8,1c-0.9-1-0.3-0.5-0.4,0.8c-0.7,9.3,0,19,0,28.3c0,13.8,0,27.6,0,41.4
			c0,8.2,0,16.4,0,24.6c1.4-0.6,2.8-1.2,4.3-1.8c-12.7-10.7-25.3-21.4-38-32C477.7,393.4,474.1,396.9,476.6,399z"/>
	</g>
</g>
<path id="XMLID_19_" class="st6" d="M146.2,301.1c169.2,0,338.5,0,508.3,0"/>
<path id="XMLID_14_" class="st6" d="M146.2,301.1C332.9,366,519.5,429.2,705.3,495.3"/>
<path id="XMLID_34_" class="st6" d="M146.2,301.1C294.9,237.8,442,173,591.1,109.9"/>
<path id="XMLID_27_" class="st6" d="M146.2,301.1c186.6-31.6,373.3-64.9,560.4-97"/>
<line id="XMLID_20_" class="st6" x1="146.2" y1="301.1" x2="595.4" y2="397.2"/>
<g id="XMLID_29_">
	<g id="XMLID_60_">
		<path id="XMLID_134_" d="M146.2,517.5c16.9,0,33.7,0,50.6,0c40.5,0,81,0,121.5,0c49,0,97.9,0,146.9,0c42.3,0,84.6,0,126.9,0
			c13.9,0,27.7,0,41.6,0c6.4,0,13.6,1,20,0c0.3,0,0.6,0,0.8,0c1.6,0,1.6-2.5,0-2.5c-16.9,0-33.7,0-50.6,0c-40.5,0-81,0-121.5,0
			c-49,0-97.9,0-146.9,0c-42.3,0-84.6,0-126.9,0c-13.9,0-27.7,0-41.6,0c-6.4,0-13.6-1-20,0c-0.3,0-0.6,0-0.8,0
			C144.6,515,144.6,517.5,146.2,517.5L146.2,517.5z"/>
	</g>
</g>
<g id="XMLID_33_">
	<g id="XMLID_167_">
		<path id="XMLID_175_" d="M145,503.6c0,8.4,0,16.9,0,25.3c0,1.6,2.5,1.6,2.5,0c0-8.4,0-16.9,0-25.3C147.5,502,145,502,145,503.6
			L145,503.6z"/>
	</g>
</g>
<g id="XMLID_35_">
	<g id="XMLID_189_">
		<path id="XMLID_201_" d="M651.1,503.6c0,8.4,0,16.9,0,25.3c0,1.6,2.5,1.6,2.5,0c0-8.4,0-16.9,0-25.3
			C653.6,502,651.1,502,651.1,503.6L651.1,503.6z"/>
	</g>
</g>
<g id="XMLID_36_">
	<g id="XMLID_202_">
		<path id="XMLID_226_" d="M323.7,503.6c0,8.4,0,16.9,0,25.3c0,1.6,2.5,1.6,2.5,0c0-8.4,0-16.9,0-25.3
			C326.2,502,323.7,502,323.7,503.6L323.7,503.6z"/>
	</g>
</g>
<g id="XMLID_37_">
	<g id="XMLID_227_">
		<path id="XMLID_253_" d="M477.1,503.6c0,8.4,0,16.9,0,25.3c0,1.6,2.5,1.6,2.5,0c0-8.4,0-16.9,0-25.3
			C479.6,502,477.1,502,477.1,503.6L477.1,503.6z"/>
	</g>
</g>
<g id="XMLID_309_">
	<path id="XMLID_310_" d="M17.1,550.7c1.5-0.2,3.3-0.4,5.3-0.4c3.6,0,6.1,0.8,7.8,2.4c1.7,1.6,2.7,3.8,2.7,6.9c0,3.1-1,5.7-2.8,7.5
		c-1.8,1.8-4.8,2.8-8.5,2.8c-1.8,0-3.2-0.1-4.5-0.2V550.7z M19.6,567.7c0.6,0.1,1.5,0.1,2.5,0.1c5.3,0,8.2-3,8.2-8.1
		c0-4.5-2.5-7.4-7.8-7.4c-1.3,0-2.2,0.1-2.9,0.3V567.7z"/>
	<path id="XMLID_313_" d="M38.5,550.5v19.2h-2.5v-19.2H38.5z"/>
	<path id="XMLID_315_" d="M42.5,566.6c1.1,0.7,2.7,1.3,4.4,1.3c2.5,0,4-1.3,4-3.3c0-1.8-1-2.8-3.6-3.8c-3.1-1.1-5.1-2.7-5.1-5.4
		c0-3,2.5-5.2,6.2-5.2c2,0,3.4,0.5,4.2,0.9l-0.7,2c-0.6-0.3-1.9-0.9-3.6-0.9c-2.6,0-3.6,1.6-3.6,2.9c0,1.8,1.2,2.7,3.8,3.7
		c3.2,1.3,4.9,2.8,4.9,5.6c0,3-2.2,5.5-6.7,5.5c-1.9,0-3.9-0.5-4.9-1.2L42.5,566.6z"/>
	<path id="XMLID_317_" d="M60.5,552.6h-5.8v-2.1h14.2v2.1H63v17.1h-2.5V552.6z"/>
	<path id="XMLID_319_" d="M72,563.6l-2,6h-2.6l6.5-19.2h3l6.6,19.2h-2.6l-2.1-6H72z M78.3,561.7l-1.9-5.5c-0.4-1.3-0.7-2.4-1-3.5
		h-0.1c-0.3,1.1-0.6,2.3-1,3.5l-1.9,5.6H78.3z"/>
	<path id="XMLID_322_" d="M86.3,569.7v-19.2H89l6.2,9.7c1.4,2.3,2.5,4.3,3.4,6.2l0.1,0c-0.2-2.6-0.3-4.9-0.3-7.9v-8h2.3v19.2h-2.5
		l-6.1-9.7c-1.3-2.1-2.6-4.3-3.6-6.4l-0.1,0c0.1,2.4,0.2,4.7,0.2,7.9v8.2H86.3z"/>
	<path id="XMLID_324_" d="M118.5,569c-0.9,0.5-2.7,0.9-5.1,0.9c-5.4,0-9.5-3.4-9.5-9.7c0-6,4.1-10.1,10-10.1c2.4,0,3.9,0.5,4.6,0.9
		l-0.6,2c-0.9-0.5-2.3-0.8-3.9-0.8c-4.5,0-7.5,2.9-7.5,7.9c0,4.7,2.7,7.7,7.4,7.7c1.5,0,3-0.3,4-0.8L118.5,569z"/>
	<path id="XMLID_326_" d="M131.5,560.7h-7.5v6.9h8.3v2.1h-10.8v-19.2h10.4v2.1h-7.9v6.1h7.5V560.7z"/>
	<path id="XMLID_328_" d="M134.6,560.1v-1.7h14.7v1.7H134.6z M134.6,565.6v-1.7h14.7v1.7H134.6z"/>
</g>
<g id="XMLID_302_">
	<path id="XMLID_303_" d="M324.5,551.9L324.5,551.9l-3.3,1.7l-0.5-1.9l4-2.2h2.1v18.5h-2.4V551.9z"/>
	<path id="XMLID_305_" d="M471.8,568.1v-1.5l2-1.9c4.7-4.5,6.9-6.9,6.9-9.7c0-1.9-0.9-3.6-3.7-3.6c-1.7,0-3.1,0.9-3.9,1.6l-0.8-1.8
		c1.3-1.1,3.1-1.9,5.2-1.9c4,0,5.7,2.7,5.7,5.4c0,3.4-2.5,6.2-6.4,9.9l-1.5,1.4v0.1h8.3v2.1H471.8z"/>
	<path id="XMLID_307_" d="M643.2,565.2c0.7,0.5,2.4,1.2,4.1,1.2c3.2,0,4.2-2.1,4.2-3.6c0-2.6-2.4-3.7-4.8-3.7h-1.4v-1.9h1.4
		c1.8,0,4.1-0.9,4.1-3.1c0-1.5-0.9-2.8-3.2-2.8c-1.5,0-2.9,0.7-3.7,1.2l-0.7-1.8c1-0.7,2.8-1.4,4.8-1.4c3.6,0,5.3,2.2,5.3,4.4
		c0,1.9-1.1,3.5-3.4,4.4v0.1c2.3,0.5,4.1,2.2,4.1,4.8c0,3-2.3,5.6-6.7,5.6c-2.1,0-3.9-0.7-4.8-1.3L643.2,565.2z"/>
</g>
<g id="XMLID_280_">
	<path id="XMLID_281_" d="M18,604.2v19.2h-2.5v-19.2H18z"/>
	<path id="XMLID_283_" d="M22.3,623.4v-19.2H25l6.2,9.7c1.4,2.3,2.5,4.3,3.4,6.2l0.1,0c-0.2-2.6-0.3-4.9-0.3-7.9v-8h2.3v19.2h-2.5
		l-6.1-9.7c-1.3-2.1-2.6-4.3-3.6-6.4l-0.1,0c0.1,2.4,0.2,4.7,0.2,7.9v8.2H22.3z"/>
	<path id="XMLID_285_" d="M44.7,606.3h-5.8v-2.1h14.2v2.1h-5.9v17.1h-2.5V606.3z"/>
	<path id="XMLID_287_" d="M65.1,614.4h-7.5v6.9H66v2.1H55.2v-19.2h10.4v2.1h-7.9v6.1h7.5V614.4z"/>
	<path id="XMLID_289_" d="M69.2,623.4v-19.2h2.7l6.2,9.7c1.4,2.3,2.5,4.3,3.4,6.2l0.1,0c-0.2-2.6-0.3-4.9-0.3-7.9v-8h2.3v19.2h-2.5
		l-6.1-9.7c-1.3-2.1-2.6-4.3-3.6-6.4l-0.1,0c0.1,2.4,0.2,4.7,0.2,7.9v8.2H69.2z"/>
	<path id="XMLID_291_" d="M87.6,620.4c1.1,0.7,2.7,1.3,4.4,1.3c2.5,0,4-1.3,4-3.3c0-1.8-1-2.8-3.6-3.8c-3.1-1.1-5.1-2.7-5.1-5.4
		c0-3,2.5-5.2,6.2-5.2c2,0,3.4,0.5,4.2,0.9l-0.7,2c-0.6-0.3-1.9-0.9-3.6-0.9c-2.6,0-3.6,1.6-3.6,2.9c0,1.8,1.2,2.7,3.8,3.7
		c3.2,1.3,4.9,2.8,4.9,5.6c0,3-2.2,5.5-6.7,5.5c-1.9,0-3.9-0.5-4.9-1.2L87.6,620.4z"/>
	<path id="XMLID_293_" d="M104.5,604.2v19.2H102v-19.2H104.5z"/>
	<path id="XMLID_295_" d="M112.4,606.3h-5.8v-2.1h14.2v2.1h-5.9v17.1h-2.5V606.3z"/>
	<path id="XMLID_297_" d="M128,623.4v-8.1l-6.1-11.1h2.8l2.7,5.3c0.7,1.5,1.3,2.6,1.9,4h0.1c0.5-1.3,1.2-2.5,1.9-4l2.8-5.3h2.8
		l-6.4,11v8.2H128z"/>
	<path id="XMLID_299_" d="M138.1,613.8v-1.7h14.7v1.7H138.1z M138.1,619.4v-1.7h14.7v1.7H138.1z"/>
</g>
<g id="XMLID_9_">
	<path id="XMLID_113_" d="M322.9,605.7L322.9,605.7l-3.3,1.7l-0.5-1.9l4-2.2h2.1v18.5h-2.4V605.7z"/>
	<path id="XMLID_128_" d="M475.6,605.7L475.6,605.7l-3.3,1.7l-0.5-1.9l4-2.2h2.1v18.5h-2.4V605.7z"/>
	<path id="XMLID_204_" d="M483.5,623l7.9-20.6h1.9l-8,20.6H483.5z"/>
	<path id="XMLID_228_" d="M494.5,621.8v-1.5l2-1.9c4.7-4.5,6.9-6.9,6.9-9.7c0-1.9-0.9-3.6-3.7-3.6c-1.7,0-3.1,0.9-3.9,1.6l-0.8-1.8
		c1.3-1.1,3.1-1.9,5.2-1.9c4,0,5.7,2.7,5.7,5.4c0,3.4-2.5,6.2-6.4,9.9l-1.5,1.4v0.1h8.3v2.1H494.5z"/>
	<path id="XMLID_230_" d="M646.4,605.7L646.4,605.7l-3.3,1.7l-0.5-1.9l4-2.2h2.1v18.5h-2.4V605.7z"/>
	<path id="XMLID_260_" d="M654.3,623l7.9-20.6h1.9l-8,20.6H654.3z"/>
	<path id="XMLID_272_" d="M666.8,620.1c0.5,0.1,1.2,0,2-0.1c1.5-0.2,2.8-0.8,3.9-1.8c1.2-1.1,2.1-2.7,2.4-4.9h-0.1
		c-1,1.3-2.5,2-4.4,2c-3.3,0-5.5-2.5-5.5-5.7c0-3.5,2.5-6.6,6.3-6.6c3.8,0,6.1,3.1,6.1,7.8c0,4.1-1.4,6.9-3.2,8.7
		c-1.4,1.4-3.4,2.3-5.4,2.5c-0.9,0.1-1.7,0.2-2.3,0.1V620.1z M667.7,609.4c0,2.3,1.4,3.9,3.6,3.9c1.7,0,3-0.8,3.6-1.9
		c0.1-0.2,0.2-0.5,0.2-0.9c0-3.2-1.2-5.6-3.8-5.6C669.2,604.9,667.7,606.8,667.7,609.4z"/>
</g>
<g id="XMLID_28_">
	<circle id="XMLID_119_" class="st7" cx="146.2" cy="301.1" r="28.5"/>
</g>
<g id="XMLID_2_">
	<g id="XMLID_250_">
		<path id="XMLID_255_" class="st2" d="M172.2,301.1c-0.3,14.2-11.6,26-26,26c-14.2,0-26-11.8-26-26c0-14.1,11.8-26,26-26
			C160.6,275.2,171.8,286.9,172.2,301.1c0.1,3.2,5.1,3.2,5,0c-0.3-12.7-7.8-24.2-19.8-28.9c-12.4-4.8-26.8-0.9-35.2,9.4
			c-17.8,21.9,1.9,54.7,29.4,50c14.9-2.6,25.2-15.7,25.6-30.5C177.3,297.9,172.3,297.9,172.2,301.1z"/>
	</g>
</g>
</svg>
