<?xml version="1.0" encoding="utf-8"?>
<!-- Generator: Adobe Illustrator 19.0.0, SVG Export Plug-In . SVG Version: 6.00 Build 0)  -->
<svg version="1.1" xmlns="http://www.w3.org/2000/svg" xmlns:xlink="http://www.w3.org/1999/xlink" x="0px" y="0px"
	 viewBox="0 0 1440 720" style="enable-background:new 0 0 1440 720;" xml:space="preserve">
<style type="text/css">
	.st0{fill:none;stroke:#000000;stroke-miterlimit:10;}
	.st1{fill:#FFFFFF;}
	.st2{fill:#E48A2A;}
	.st3{fill:#2AABA3;}
	.st4{fill:#00A9B1;}
	.st5{fill:#C298C6;}
	.st6{fill:none;stroke:#E48A2A;stroke-miterlimit:10;}
	.st7{fill:#EEB478;}
</style>
<g id="Layer_1">
	<path id="XMLID_4_" class="st0" d="M207,360"/>
	<path id="XMLID_13_" class="st0" d="M207,360"/>
	<g id="XMLID_1_">
		<circle id="XMLID_26_" class="st1" cx="216" cy="360" r="18"/>
		<g id="XMLID_21_">
			<path id="XMLID_25_" class="st2" d="M231.5,360c-0.3,8.4-6.8,15.5-15.5,15.5c-8.5,0-15.5-7-15.5-15.5s7-15.5,15.5-15.5
				C224.7,344.5,231.2,351.6,231.5,360c0.1,3.2,5.1,3.2,5,0c-0.4-11.1-9-20.5-20.5-20.5c-11.2,0-20.5,9.3-20.5,20.5
				c0,11.1,9.3,20.5,20.5,20.5c11.5,0,20.1-9.3,20.5-20.5C236.6,356.8,231.6,356.8,231.5,360z"/>
		</g>
	</g>
</g>
<g id="Layer_3">
	<g id="XMLID_17_">
		<polygon id="XMLID_197_" class="st3" points="500,299.3 524,319.5 524,258.8 500,238.5 		"/>
		<g id="XMLID_192_">
			<path id="XMLID_196_" class="st4" d="M498.2,301c8,6.8,16,13.5,24,20.3c1.6,1.3,4.3,0.5,4.3-1.8c0-13.2,0-26.4,0-39.6
				c0-6.5,0.1-13.1,0-19.6c-0.1-4.2-4.3-6.2-7.3-8.8c-5.8-4.9-11.6-9.8-17.4-14.7c-1.6-1.3-4.3-0.5-4.3,1.8c0,20.3,0,40.5,0,60.8
				c0,3.2,5,3.2,5,0c0-20.3,0-40.5,0-60.8c-1.4,0.6-2.8,1.2-4.3,1.8c4.7,4,9.5,8,14.2,12c2.7,2.3,5.5,4.6,8.2,6.9
				c0.2,0.1,1.3,1.4,1.5,1.3c-1.1,0.3-0.3-2.9-0.7-0.7c-1.1,5.5,0,12.2,0,17.8c0,8.6,0,17.3,0,25.9c0,5.3,0,10.7,0,16
				c1.4-0.6,2.8-1.2,4.3-1.8c-8-6.8-16-13.5-24-20.3C499.3,295.4,495.8,298.9,498.2,301z"/>
		</g>
	</g>
	<g id="XMLID_15_">
		<polygon id="XMLID_190_" class="st3" points="524,319.5 548,339.8 548,279 524,258.8 		"/>
		<g id="XMLID_165_">
			<path id="XMLID_189_" class="st4" d="M522.2,321.3c8,6.8,16,13.5,24,20.3c1.6,1.3,4.3,0.5,4.3-1.8c0-13.2,0-26.4,0-39.6
				c0-6.5,0.1-13.1,0-19.6c-0.1-4.2-4.3-6.2-7.3-8.8c-5.8-4.9-11.6-9.8-17.4-14.7c-1.6-1.3-4.3-0.5-4.3,1.8c0,20.3,0,40.5,0,60.8
				c0,3.2,5,3.2,5,0c0-20.3,0-40.5,0-60.8c-1.4,0.6-2.8,1.2-4.3,1.8c4.7,4,9.5,8,14.2,12c2.7,2.3,5.5,4.6,8.2,6.9
				c0.2,0.1,1.3,1.4,1.5,1.3c-1.1,0.3-0.3-2.9-0.7-0.7c-1.1,5.5,0,12.2,0,17.8c0,8.6,0,17.3,0,25.9c0,5.3,0,10.7,0,16
				c1.4-0.6,2.8-1.2,4.3-1.8c-8-6.8-16-13.5-24-20.3C523.3,315.7,519.8,319.2,522.2,321.3z"/>
		</g>
	</g>
	<g id="XMLID_12_">
		<polygon id="XMLID_124_" class="st3" points="500,360 524,380.3 524,319.5 500,299.3 		"/>
		<g id="XMLID_119_">
			<path id="XMLID_123_" class="st4" d="M498.2,361.8c8,6.8,16,13.5,24,20.3c1.6,1.3,4.3,0.5,4.3-1.8c0-13.2,0-26.4,0-39.6
				c0-6.5,0.1-13.1,0-19.6c-0.1-4.2-4.3-6.2-7.3-8.8c-5.8-4.9-11.6-9.8-17.4-14.7c-1.6-1.3-4.3-0.5-4.3,1.8c0,20.3,0,40.5,0,60.8
				c0,3.2,5,3.2,5,0c0-20.3,0-40.5,0-60.8c-1.4,0.6-2.8,1.2-4.3,1.8c4.7,4,9.5,8,14.2,12c2.7,2.3,5.5,4.6,8.2,6.9
				c0.2,0.1,1.3,1.4,1.5,1.3c-1.1,0.3-0.3-2.9-0.7-0.7c-1.1,5.5,0,12.2,0,17.8c0,8.6,0,17.3,0,25.9c0,5.3,0,10.7,0,16
				c1.4-0.6,2.8-1.2,4.3-1.8c-8-6.8-16-13.5-24-20.3C499.3,356.2,495.8,359.7,498.2,361.8z"/>
		</g>
	</g>
	<g id="XMLID_10_">
		<polygon id="XMLID_117_" class="st3" points="524,380.3 548,400.5 548,339.8 524,319.5 		"/>
		<g id="XMLID_105_">
			<path id="XMLID_109_" class="st4" d="M522.2,382c8,6.8,16,13.5,24,20.3c1.6,1.3,4.3,0.5,4.3-1.8c0-13.2,0-26.4,0-39.6
				c0-6.5,0.1-13.1,0-19.6c-0.1-4.2-4.3-6.2-7.3-8.8c-5.8-4.9-11.6-9.8-17.4-14.7c-1.6-1.3-4.3-0.5-4.3,1.8c0,20.3,0,40.5,0,60.8
				c0,3.2,5,3.2,5,0c0-20.3,0-40.5,0-60.8c-1.4,0.6-2.8,1.2-4.3,1.8c4.7,4,9.5,8,14.2,12c2.7,2.3,5.5,4.6,8.2,6.9
				c0.2,0.1,1.3,1.4,1.5,1.3c-1.1,0.3-0.3-2.9-0.7-0.7c-1.1,5.5,0,12.2,0,17.8c0,8.6,0,17.3,0,25.9c0,5.3,0,10.7,0,16
				c1.4-0.6,2.8-1.2,4.3-1.8c-8-6.8-16-13.5-24-20.3C523.3,376.4,519.8,379.9,522.2,382z"/>
		</g>
	</g>
	<g id="XMLID_31_">
		<polygon id="XMLID_54_" class="st5" points="548,339.8 572,360 572,299.3 548,279 		"/>
	</g>
	<g id="XMLID_30_">
		<polygon id="XMLID_103_" class="st3" points="548,400.5 572,420.8 572,360 548,339.8 		"/>
		<g id="XMLID_98_">
			<path id="XMLID_102_" class="st4" d="M546.2,402.3c8,6.8,16,13.5,24,20.3c1.6,1.3,4.3,0.5,4.3-1.8c0-13.2,0-26.4,0-39.6
				c0-6.5,0.1-13.1,0-19.6c-0.1-4.2-4.3-6.2-7.3-8.8c-5.8-4.9-11.6-9.8-17.4-14.7c-1.6-1.3-4.3-0.5-4.3,1.8c0,20.3,0,40.5,0,60.8
				c0,3.2,5,3.2,5,0c0-20.3,0-40.5,0-60.8c-1.4,0.6-2.8,1.2-4.3,1.8c4.7,4,9.5,8,14.2,12c2.7,2.3,5.5,4.6,8.2,6.9
				c0.2,0.1,1.3,1.4,1.5,1.3c-1.1,0.3-0.3-2.9-0.7-0.7c-1.1,5.5,0,12.2,0,17.8c0,8.6,0,17.3,0,25.9c0,5.3,0,10.7,0,16
				c1.4-0.6,2.8-1.2,4.3-1.8c-8-6.8-16-13.5-24-20.3C547.3,396.7,543.8,400.2,546.2,402.3z"/>
		</g>
	</g>
	<g id="XMLID_46_">
		<polygon id="XMLID_96_" class="st3" points="500,420.8 524,441 524,380.3 500,360 		"/>
		<g id="XMLID_83_">
			<path id="XMLID_95_" class="st4" d="M498.2,422.5c8,6.8,16,13.5,24,20.3c1.6,1.3,4.3,0.5,4.3-1.8c0-13.2,0-26.4,0-39.6
				c0-6.5,0.1-13.1,0-19.6c-0.1-4.2-4.3-6.2-7.3-8.8c-5.8-4.9-11.6-9.8-17.4-14.7c-1.6-1.3-4.3-0.5-4.3,1.8c0,20.3,0,40.5,0,60.8
				c0,3.2,5,3.2,5,0c0-20.3,0-40.5,0-60.8c-1.4,0.6-2.8,1.2-4.3,1.8c4.7,4,9.5,8,14.2,12c2.7,2.3,5.5,4.6,8.2,6.9
				c0.2,0.1,1.3,1.4,1.5,1.3c-1.1,0.3-0.3-2.9-0.7-0.7c-1.1,5.5,0,12.2,0,17.8c0,8.6,0,17.3,0,25.9c0,5.3,0,10.7,0,16
				c1.4-0.6,2.8-1.2,4.3-1.8c-8-6.8-16-13.5-24-20.3C499.3,416.9,495.8,420.4,498.2,422.5z"/>
		</g>
	</g>
	<g id="XMLID_45_">
		<polygon id="XMLID_81_" class="st3" points="524,441 548,461.3 548,400.5 524,380.3 		"/>
		<g id="XMLID_76_">
			<path id="XMLID_80_" class="st4" d="M522.2,442.8c8,6.8,16,13.5,24,20.3c1.6,1.3,4.3,0.5,4.3-1.8c0-13.2,0-26.4,0-39.6
				c0-6.5,0.1-13.1,0-19.6c-0.1-4.2-4.3-6.2-7.3-8.8c-5.8-4.9-11.6-9.8-17.4-14.7c-1.6-1.3-4.3-0.5-4.3,1.8c0,20.3,0,40.5,0,60.8
				c0,3.2,5,3.2,5,0c0-20.3,0-40.5,0-60.8c-1.4,0.6-2.8,1.2-4.3,1.8c4.7,4,9.5,8,14.2,12c2.7,2.3,5.5,4.6,8.2,6.9
				c0.2,0.1,1.3,1.4,1.5,1.3c-1.1,0.3-0.3-2.9-0.7-0.7c-1.1,5.5,0,12.2,0,17.8c0,8.6,0,17.3,0,25.9c0,5.3,0,10.7,0,16
				c1.4-0.6,2.8-1.2,4.3-1.8c-8-6.8-16-13.5-24-20.3C523.3,437.2,519.8,440.7,522.2,442.8z"/>
		</g>
	</g>
	<g id="XMLID_44_">
		<polygon id="XMLID_74_" class="st3" points="548,461.3 572,481.5 572,420.8 548,400.5 		"/>
		<g id="XMLID_67_">
			<path id="XMLID_73_" class="st4" d="M546.2,463c8,6.8,16,13.5,24,20.3c1.6,1.3,4.3,0.5,4.3-1.8c0-13.2,0-26.4,0-39.6
				c0-6.5,0.1-13.1,0-19.6c-0.1-4.2-4.3-6.2-7.3-8.8c-5.8-4.9-11.6-9.8-17.4-14.7c-1.6-1.3-4.3-0.5-4.3,1.8c0,20.3,0,40.5,0,60.8
				c0,3.2,5,3.2,5,0c0-20.3,0-40.5,0-60.8c-1.4,0.6-2.8,1.2-4.3,1.8c4.7,4,9.5,8,14.2,12c2.7,2.3,5.5,4.6,8.2,6.9
				c0.2,0.1,1.3,1.4,1.5,1.3c-1.1,0.3-0.3-2.9-0.7-0.7c-1.1,5.5,0,12.2,0,17.8c0,8.6,0,17.3,0,25.9c0,5.3,0,10.7,0,16
				c1.4-0.6,2.8-1.2,4.3-1.8c-8-6.8-16-13.5-24-20.3C547.3,457.4,543.8,460.9,546.2,463z"/>
		</g>
	</g>
</g>
<g id="Layer_2">
	<g id="XMLID_16_">
		<polygon id="XMLID_50_" class="st5" points="317,380.3 341,400.5 341,339.8 317,319.5 		"/>
	</g>
	<g id="XMLID_7_">
		<polygon id="XMLID_237_" class="st3" points="402,339.8 426,360 426,299.3 402,279 		"/>
		<g id="XMLID_232_">
			<path id="XMLID_236_" class="st4" d="M400.2,341.5c8,6.8,16,13.5,24,20.3c1.6,1.3,4.3,0.5,4.3-1.8c0-13.2,0-26.4,0-39.6
				c0-6.5,0.1-13.1,0-19.6c-0.1-4.2-4.3-6.2-7.3-8.8c-5.8-4.9-11.6-9.8-17.4-14.7c-1.6-1.3-4.3-0.5-4.3,1.8c0,20.3,0,40.5,0,60.8
				c0,3.2,5,3.2,5,0c0-20.3,0-40.5,0-60.8c-1.4,0.6-2.8,1.2-4.3,1.8c4.7,4,9.5,8,14.2,12c2.7,2.3,5.5,4.6,8.2,6.9
				c0.2,0.1,1.3,1.4,1.5,1.3c-1.1,0.3-0.3-2.9-0.7-0.7c-1.1,5.5,0,12.2,0,17.8c0,8.6,0,17.3,0,25.9c0,5.3,0,10.7,0,16
				c1.4-0.6,2.8-1.2,4.3-1.8c-8-6.8-16-13.5-24-20.3C401.3,335.9,397.8,339.4,400.2,341.5z"/>
		</g>
	</g>
	<g id="XMLID_6_">
		<polygon id="XMLID_47_" class="st5" points="426,360 450,380.3 450,319.5 426,299.3 		"/>
	</g>
	<g id="XMLID_5_">
		<polygon id="XMLID_115_" class="st3" points="402,400.5 426,420.8 426,360 402,339.8 		"/>
		<g id="XMLID_88_">
			<path id="XMLID_114_" class="st4" d="M400.2,402.3c8,6.8,16,13.5,24,20.3c1.6,1.3,4.3,0.5,4.3-1.8c0-13.2,0-26.4,0-39.6
				c0-6.5,0.1-13.1,0-19.6c-0.1-4.2-4.3-6.2-7.3-8.8c-5.8-4.9-11.6-9.8-17.4-14.7c-1.6-1.3-4.3-0.5-4.3,1.8c0,20.3,0,40.5,0,60.8
				c0,3.2,5,3.2,5,0c0-20.3,0-40.5,0-60.8c-1.4,0.6-2.8,1.2-4.3,1.8c4.7,4,9.5,8,14.2,12c2.7,2.3,5.5,4.6,8.2,6.9
				c0.2,0.1,1.3,1.4,1.5,1.3c-1.1,0.3-0.3-2.9-0.7-0.7c-1.1,5.5,0,12.2,0,17.8c0,8.6,0,17.3,0,25.9c0,5.3,0,10.7,0,16
				c1.4-0.6,2.8-1.2,4.3-1.8c-8-6.8-16-13.5-24-20.3C401.3,396.7,397.8,400.2,400.2,402.3z"/>
		</g>
	</g>
	<g id="XMLID_3_">
		<polygon id="XMLID_86_" class="st3" points="426,420.8 450,441 450,380.3 426,360 		"/>
		<g id="XMLID_57_">
			<path id="XMLID_69_" class="st4" d="M424.2,422.5c8,6.8,16,13.5,24,20.3c1.6,1.3,4.3,0.5,4.3-1.8c0-13.2,0-26.4,0-39.6
				c0-6.5,0.1-13.1,0-19.6c-0.1-4.2-4.3-6.2-7.3-8.8c-5.8-4.9-11.6-9.8-17.4-14.7c-1.6-1.3-4.3-0.5-4.3,1.8c0,20.3,0,40.5,0,60.8
				c0,3.2,5,3.2,5,0c0-20.3,0-40.5,0-60.8c-1.4,0.6-2.8,1.2-4.3,1.8c4.7,4,9.5,8,14.2,12c2.7,2.3,5.5,4.6,8.2,6.9
				c0.2,0.1,1.3,1.4,1.5,1.3c-1.1,0.3-0.3-2.9-0.7-0.7c-1.1,5.5,0,12.2,0,17.8c0,8.6,0,17.3,0,25.9c0,5.3,0,10.7,0,16
				c1.4-0.6,2.8-1.2,4.3-1.8c-8-6.8-16-13.5-24-20.3C425.3,416.9,421.8,420.4,424.2,422.5z"/>
		</g>
	</g>
</g>
<g id="Layer_4">
	<g id="XMLID_94_">
		<g id="XMLID_184_">
			<path id="XMLID_188_" d="M498.2,301c8,6.8,16,13.5,24,20.3c1.6,1.3,4.3,0.5,4.3-1.8c0-13.2,0-26.4,0-39.6c0-6.5,0.1-13.1,0-19.6
				c-0.1-4.2-4.3-6.2-7.3-8.8c-5.8-4.9-11.6-9.8-17.4-14.7c-1.6-1.3-4.3-0.5-4.3,1.8c0,20.3,0,40.5,0,60.8c0,3.2,5,3.2,5,0
				c0-20.3,0-40.5,0-60.8c-1.4,0.6-2.8,1.2-4.3,1.8c4.7,4,9.5,8,14.2,12c2.7,2.3,5.5,4.6,8.2,6.9c0.2,0.1,1.3,1.4,1.5,1.3
				c-1.1,0.3-0.3-2.9-0.7-0.7c-1.1,5.5,0,12.2,0,17.8c0,8.6,0,17.3,0,25.9c0,5.3,0,10.7,0,16c1.4-0.6,2.8-1.2,4.3-1.8
				c-8-6.8-16-13.5-24-20.3C499.3,295.4,495.8,298.9,498.2,301z"/>
		</g>
	</g>
	<g id="XMLID_93_">
		<g id="XMLID_178_">
			<path id="XMLID_182_" d="M522.2,321.3c8,6.8,16,13.5,24,20.3c1.6,1.3,4.3,0.5,4.3-1.8c0-13.2,0-26.4,0-39.6
				c0-6.5,0.1-13.1,0-19.6c-0.1-4.2-4.3-6.2-7.3-8.8c-5.8-4.9-11.6-9.8-17.4-14.7c-1.6-1.3-4.3-0.5-4.3,1.8c0,20.3,0,40.5,0,60.8
				c0,3.2,5,3.2,5,0c0-20.3,0-40.5,0-60.8c-1.4,0.6-2.8,1.2-4.3,1.8c4.7,4,9.5,8,14.2,12c2.7,2.3,5.5,4.6,8.2,6.9
				c0.2,0.1,1.3,1.4,1.5,1.3c-1.1,0.3-0.3-2.9-0.7-0.7c-1.1,5.5,0,12.2,0,17.8c0,8.6,0,17.3,0,25.9c0,5.3,0,10.7,0,16
				c1.4-0.6,2.8-1.2,4.3-1.8c-8-6.8-16-13.5-24-20.3C523.3,315.7,519.8,319.2,522.2,321.3z"/>
		</g>
	</g>
	<g id="XMLID_92_">
		<g id="XMLID_172_">
			<path id="XMLID_176_" d="M498.2,361.8c8,6.8,16,13.5,24,20.3c1.6,1.3,4.3,0.5,4.3-1.8c0-13.2,0-26.4,0-39.6
				c0-6.5,0.1-13.1,0-19.6c-0.1-4.2-4.3-6.2-7.3-8.8c-5.8-4.9-11.6-9.8-17.4-14.7c-1.6-1.3-4.3-0.5-4.3,1.8c0,20.3,0,40.5,0,60.8
				c0,3.2,5,3.2,5,0c0-20.3,0-40.5,0-60.8c-1.4,0.6-2.8,1.2-4.3,1.8c4.7,4,9.5,8,14.2,12c2.7,2.3,5.5,4.6,8.2,6.9
				c0.2,0.1,1.3,1.4,1.5,1.3c-1.1,0.3-0.3-2.9-0.7-0.7c-1.1,5.5,0,12.2,0,17.8c0,8.6,0,17.3,0,25.9c0,5.3,0,10.7,0,16
				c1.4-0.6,2.8-1.2,4.3-1.8c-8-6.8-16-13.5-24-20.3C499.3,356.2,495.8,359.7,498.2,361.8z"/>
		</g>
	</g>
	<g id="XMLID_90_">
		<g id="XMLID_166_">
			<path id="XMLID_170_" d="M522.2,382c8,6.8,16,13.5,24,20.3c1.6,1.3,4.3,0.5,4.3-1.8c0-13.2,0-26.4,0-39.6c0-6.5,0.1-13.1,0-19.6
				c-0.1-4.2-4.3-6.2-7.3-8.8c-5.8-4.9-11.6-9.8-17.4-14.7c-1.6-1.3-4.3-0.5-4.3,1.8c0,20.3,0,40.5,0,60.8c0,3.2,5,3.2,5,0
				c0-20.3,0-40.5,0-60.8c-1.4,0.6-2.8,1.2-4.3,1.8c4.7,4,9.5,8,14.2,12c2.7,2.3,5.5,4.6,8.2,6.9c0.2,0.1,1.3,1.4,1.5,1.3
				c-1.1,0.3-0.3-2.9-0.7-0.7c-1.1,5.5,0,12.2,0,17.8c0,8.6,0,17.3,0,25.9c0,5.3,0,10.7,0,16c1.4-0.6,2.8-1.2,4.3-1.8
				c-8-6.8-16-13.5-24-20.3C523.3,376.4,519.8,379.9,522.2,382z"/>
		</g>
	</g>
	<g id="XMLID_89_">
		<g id="XMLID_160_">
			<path id="XMLID_164_" d="M546.2,341.5c8,6.8,16,13.5,24,20.3c1.6,1.3,4.3,0.5,4.3-1.8c0-13.2,0-26.4,0-39.6
				c0-6.5,0.1-13.1,0-19.6c-0.1-4.2-4.3-6.2-7.3-8.8c-5.8-4.9-11.6-9.8-17.4-14.7c-1.6-1.3-4.3-0.5-4.3,1.8c0,20.3,0,40.5,0,60.8
				c0,3.2,5,3.2,5,0c0-20.3,0-40.5,0-60.8c-1.4,0.6-2.8,1.2-4.3,1.8c4.7,4,9.5,8,14.2,12c2.7,2.3,5.5,4.6,8.2,6.9
				c0.2,0.1,1.3,1.4,1.5,1.3c-1.1,0.3-0.3-2.9-0.7-0.7c-1.1,5.5,0,12.2,0,17.8c0,8.6,0,17.3,0,25.9c0,5.3,0,10.7,0,16
				c1.4-0.6,2.8-1.2,4.3-1.8c-8-6.8-16-13.5-24-20.3C547.3,335.9,543.8,339.4,546.2,341.5z"/>
		</g>
	</g>
	<g id="XMLID_62_">
		<g id="XMLID_154_">
			<path id="XMLID_158_" d="M546.2,402.3c8,6.8,16,13.5,24,20.3c1.6,1.3,4.3,0.5,4.3-1.8c0-13.2,0-26.4,0-39.6
				c0-6.5,0.1-13.1,0-19.6c-0.1-4.2-4.3-6.2-7.3-8.8c-5.8-4.9-11.6-9.8-17.4-14.7c-1.6-1.3-4.3-0.5-4.3,1.8c0,20.3,0,40.5,0,60.8
				c0,3.2,5,3.2,5,0c0-20.3,0-40.5,0-60.8c-1.4,0.6-2.8,1.2-4.3,1.8c4.7,4,9.5,8,14.2,12c2.7,2.3,5.5,4.6,8.2,6.9
				c0.2,0.1,1.3,1.4,1.5,1.3c-1.1,0.3-0.3-2.9-0.7-0.7c-1.1,5.5,0,12.2,0,17.8c0,8.6,0,17.3,0,25.9c0,5.3,0,10.7,0,16
				c1.4-0.6,2.8-1.2,4.3-1.8c-8-6.8-16-13.5-24-20.3C547.3,396.7,543.8,400.2,546.2,402.3z"/>
		</g>
	</g>
	<g id="XMLID_52_">
		<g id="XMLID_148_">
			<path id="XMLID_152_" d="M498.2,422.5c8,6.8,16,13.5,24,20.3c1.6,1.3,4.3,0.5,4.3-1.8c0-13.2,0-26.4,0-39.6
				c0-6.5,0.1-13.1,0-19.6c-0.1-4.2-4.3-6.2-7.3-8.8c-5.8-4.9-11.6-9.8-17.4-14.7c-1.6-1.3-4.3-0.5-4.3,1.8c0,20.3,0,40.5,0,60.8
				c0,3.2,5,3.2,5,0c0-20.3,0-40.5,0-60.8c-1.4,0.6-2.8,1.2-4.3,1.8c4.7,4,9.5,8,14.2,12c2.7,2.3,5.5,4.6,8.2,6.9
				c0.2,0.1,1.3,1.4,1.5,1.3c-1.1,0.3-0.3-2.9-0.7-0.7c-1.1,5.5,0,12.2,0,17.8c0,8.6,0,17.3,0,25.9c0,5.3,0,10.7,0,16
				c1.4-0.6,2.8-1.2,4.3-1.8c-8-6.8-16-13.5-24-20.3C499.3,416.9,495.8,420.4,498.2,422.5z"/>
		</g>
	</g>
	<g id="XMLID_18_">
		<g id="XMLID_142_">
			<path id="XMLID_146_" d="M522.2,442.8c8,6.8,16,13.5,24,20.3c1.6,1.3,4.3,0.5,4.3-1.8c0-13.2,0-26.4,0-39.6
				c0-6.5,0.1-13.1,0-19.6c-0.1-4.2-4.3-6.2-7.3-8.8c-5.8-4.9-11.6-9.8-17.4-14.7c-1.6-1.3-4.3-0.5-4.3,1.8c0,20.3,0,40.5,0,60.8
				c0,3.2,5,3.2,5,0c0-20.3,0-40.5,0-60.8c-1.4,0.6-2.8,1.2-4.3,1.8c4.7,4,9.5,8,14.2,12c2.7,2.3,5.5,4.6,8.2,6.9
				c0.2,0.1,1.3,1.4,1.5,1.3c-1.1,0.3-0.3-2.9-0.7-0.7c-1.1,5.5,0,12.2,0,17.8c0,8.6,0,17.3,0,25.9c0,5.3,0,10.7,0,16
				c1.4-0.6,2.8-1.2,4.3-1.8c-8-6.8-16-13.5-24-20.3C523.3,437.2,519.8,440.7,522.2,442.8z"/>
		</g>
	</g>
	<g id="XMLID_8_">
		<g id="XMLID_136_">
			<path id="XMLID_140_" d="M546.2,463c8,6.8,16,13.5,24,20.3c1.6,1.3,4.3,0.5,4.3-1.8c0-13.2,0-26.4,0-39.6c0-6.5,0.1-13.1,0-19.6
				c-0.1-4.2-4.3-6.2-7.3-8.8c-5.8-4.9-11.6-9.8-17.4-14.7c-1.6-1.3-4.3-0.5-4.3,1.8c0,20.3,0,40.5,0,60.8c0,3.2,5,3.2,5,0
				c0-20.3,0-40.5,0-60.8c-1.4,0.6-2.8,1.2-4.3,1.8c4.7,4,9.5,8,14.2,12c2.7,2.3,5.5,4.6,8.2,6.9c0.2,0.1,1.3,1.4,1.5,1.3
				c-1.1,0.3-0.3-2.9-0.7-0.7c-1.1,5.5,0,12.2,0,17.8c0,8.6,0,17.3,0,25.9c0,5.3,0,10.7,0,16c1.4-0.6,2.8-1.2,4.3-1.8
				c-8-6.8-16-13.5-24-20.3C547.3,457.4,543.8,460.9,546.2,463z"/>
		</g>
	</g>
	<g id="XMLID_51_">
		<g id="XMLID_223_">
			<path id="XMLID_227_" d="M315.2,382c8,6.8,16,13.5,24,20.3c1.6,1.3,4.3,0.5,4.3-1.8c0-13.2,0-26.4,0-39.6c0-6.5,0.1-13.1,0-19.6
				c-0.1-4.2-4.3-6.2-7.3-8.8c-5.8-4.9-11.6-9.8-17.4-14.7c-1.6-1.3-4.3-0.5-4.3,1.8c0,20.3,0,40.5,0,60.8c0,3.2,5,3.2,5,0
				c0-20.3,0-40.5,0-60.8c-1.4,0.6-2.8,1.2-4.3,1.8c4.7,4,9.5,8,14.2,12c2.7,2.3,5.5,4.6,8.2,6.9c0.2,0.1,1.3,1.4,1.5,1.3
				c-1.1,0.3-0.3-2.9-0.7-0.7c-1.1,5.5,0,12.2,0,17.8c0,8.6,0,17.3,0,25.9c0,5.3,0,10.7,0,16c1.4-0.6,2.8-1.2,4.3-1.8
				c-8-6.8-16-13.5-24-20.3C316.3,376.4,312.8,379.9,315.2,382z"/>
		</g>
	</g>
	<g id="XMLID_49_">
		<g id="XMLID_217_">
			<path id="XMLID_221_" d="M400.2,341.5c8,6.8,16,13.5,24,20.3c1.6,1.3,4.3,0.5,4.3-1.8c0-13.2,0-26.4,0-39.6
				c0-6.5,0.1-13.1,0-19.6c-0.1-4.2-4.3-6.2-7.3-8.8c-5.8-4.9-11.6-9.8-17.4-14.7c-1.6-1.3-4.3-0.5-4.3,1.8c0,20.3,0,40.5,0,60.8
				c0,3.2,5,3.2,5,0c0-20.3,0-40.5,0-60.8c-1.4,0.6-2.8,1.2-4.3,1.8c4.7,4,9.5,8,14.2,12c2.7,2.3,5.5,4.6,8.2,6.9
				c0.2,0.1,1.3,1.4,1.5,1.3c-1.1,0.3-0.3-2.9-0.7-0.7c-1.1,5.5,0,12.2,0,17.8c0,8.6,0,17.3,0,25.9c0,5.3,0,10.7,0,16
				c1.4-0.6,2.8-1.2,4.3-1.8c-8-6.8-16-13.5-24-20.3C401.3,335.9,397.8,339.4,400.2,341.5z"/>
		</g>
	</g>
	<g id="XMLID_41_">
		<g id="XMLID_211_">
			<path id="XMLID_215_" d="M424.2,361.8c8,6.8,16,13.5,24,20.3c1.6,1.3,4.3,0.5,4.3-1.8c0-13.2,0-26.4,0-39.6
				c0-6.5,0.1-13.1,0-19.6c-0.1-4.2-4.3-6.2-7.3-8.8c-5.8-4.9-11.6-9.8-17.4-14.7c-1.6-1.3-4.3-0.5-4.3,1.8c0,20.3,0,40.5,0,60.8
				c0,3.2,5,3.2,5,0c0-20.3,0-40.5,0-60.8c-1.4,0.6-2.8,1.2-4.3,1.8c4.7,4,9.5,8,14.2,12c2.7,2.3,5.5,4.6,8.2,6.9
				c0.2,0.1,1.3,1.4,1.5,1.3c-1.1,0.3-0.3-2.9-0.7-0.7c-1.1,5.5,0,12.2,0,17.8c0,8.6,0,17.3,0,25.9c0,5.3,0,10.7,0,16
				c1.4-0.6,2.8-1.2,4.3-1.8c-8-6.8-16-13.5-24-20.3C425.3,356.2,421.8,359.7,424.2,361.8z"/>
		</g>
	</g>
	<g id="XMLID_40_">
		<g id="XMLID_205_">
			<path id="XMLID_209_" d="M400.2,402.3c8,6.8,16,13.5,24,20.3c1.6,1.3,4.3,0.5,4.3-1.8c0-13.2,0-26.4,0-39.6
				c0-6.5,0.1-13.1,0-19.6c-0.1-4.2-4.3-6.2-7.3-8.8c-5.8-4.9-11.6-9.8-17.4-14.7c-1.6-1.3-4.3-0.5-4.3,1.8c0,20.3,0,40.5,0,60.8
				c0,3.2,5,3.2,5,0c0-20.3,0-40.5,0-60.8c-1.4,0.6-2.8,1.2-4.3,1.8c4.7,4,9.5,8,14.2,12c2.7,2.3,5.5,4.6,8.2,6.9
				c0.2,0.1,1.3,1.4,1.5,1.3c-1.1,0.3-0.3-2.9-0.7-0.7c-1.1,5.5,0,12.2,0,17.8c0,8.6,0,17.3,0,25.9c0,5.3,0,10.7,0,16
				c1.4-0.6,2.8-1.2,4.3-1.8c-8-6.8-16-13.5-24-20.3C401.3,396.7,397.8,400.2,400.2,402.3z"/>
		</g>
	</g>
	<g id="XMLID_32_">
		<g id="XMLID_199_">
			<path id="XMLID_203_" d="M424.2,422.5c8,6.8,16,13.5,24,20.3c1.6,1.3,4.3,0.5,4.3-1.8c0-13.2,0-26.4,0-39.6
				c0-6.5,0.1-13.1,0-19.6c-0.1-4.2-4.3-6.2-7.3-8.8c-5.8-4.9-11.6-9.8-17.4-14.7c-1.6-1.3-4.3-0.5-4.3,1.8c0,20.3,0,40.5,0,60.8
				c0,3.2,5,3.2,5,0c0-20.3,0-40.5,0-60.8c-1.4,0.6-2.8,1.2-4.3,1.8c4.7,4,9.5,8,14.2,12c2.7,2.3,5.5,4.6,8.2,6.9
				c0.2,0.1,1.3,1.4,1.5,1.3c-1.1,0.3-0.3-2.9-0.7-0.7c-1.1,5.5,0,12.2,0,17.8c0,8.6,0,17.3,0,25.9c0,5.3,0,10.7,0,16
				c1.4-0.6,2.8-1.2,4.3-1.8c-8-6.8-16-13.5-24-20.3C425.3,416.9,421.8,420.4,424.2,422.5z"/>
		</g>
	</g>
</g>
<g id="Layer_5">
	<path id="XMLID_19_" class="st6" d="M216,360c107,0,214,0,321.3,0"/>
	<path id="XMLID_14_" class="st6" d="M216,360c118,41,236,81,353.5,122.8"/>
	<path id="XMLID_34_" class="st6" d="M216,360c94-40,187-81,281.3-120.8"/>
	<path id="XMLID_27_" class="st6" d="M216,360c118-20,236-41,354.3-61.3"/>
	<line id="XMLID_20_" class="st6" x1="216" y1="360" x2="500" y2="420.8"/>
	<g id="XMLID_29_">
		<g id="XMLID_267_">
			<path id="XMLID_271_" d="M216,497.3c36.2,0,72.3,0,108.5,0c57.7,0,115.3,0,173,0c13.3,0,26.5,0,39.8,0c1.6,0,1.6-2.5,0-2.5
				c-36.2,0-72.3,0-108.5,0c-57.7,0-115.3,0-173,0c-13.3,0-26.5,0-39.8,0C214.4,494.8,214.4,497.3,216,497.3L216,497.3z"/>
		</g>
	</g>
	<g id="XMLID_33_">
		<g id="XMLID_261_">
			<path id="XMLID_265_" d="M214.8,488c0,5.3,0,10.7,0,16c0,1.6,2.5,1.6,2.5,0c0-5.3,0-10.7,0-16C217.3,486.4,214.8,486.4,214.8,488
				L214.8,488z"/>
		</g>
	</g>
	<g id="XMLID_35_">
		<g id="XMLID_255_">
			<path id="XMLID_259_" d="M534.8,488c0,5.3,0,10.7,0,16c0,1.6,2.5,1.6,2.5,0c0-5.3,0-10.7,0-16C537.3,486.4,534.8,486.4,534.8,488
				L534.8,488z"/>
		</g>
	</g>
	<g id="XMLID_36_">
		<g id="XMLID_249_">
			<path id="XMLID_253_" d="M327.8,488c0,5.3,0,10.7,0,16c0,1.6,2.5,1.6,2.5,0c0-5.3,0-10.7,0-16C330.3,486.4,327.8,486.4,327.8,488
				L327.8,488z"/>
		</g>
	</g>
	<g id="XMLID_37_">
		<g id="XMLID_243_">
			<path id="XMLID_247_" d="M424.8,488c0,5.3,0,10.7,0,16c0,1.6,2.5,1.6,2.5,0c0-5.3,0-10.7,0-16C427.3,486.4,424.8,486.4,424.8,488
				L424.8,488z"/>
		</g>
	</g>
	<g id="XMLID_309_">
		<path id="XMLID_310_" d="M134.4,517.8c1-0.1,2.1-0.3,3.3-0.3c2.3,0,3.9,0.5,4.9,1.5c1.1,1,1.7,2.4,1.7,4.4c0,2-0.6,3.6-1.7,4.7
			c-1.1,1.1-3,1.7-5.4,1.7c-1.1,0-2.1-0.1-2.8-0.1V517.8z M135.9,528.5c0.4,0.1,1,0.1,1.6,0.1c3.3,0,5.2-1.9,5.2-5.1
			c0-2.9-1.6-4.7-4.9-4.7c-0.8,0-1.4,0.1-1.8,0.2V528.5z"/>
		<path id="XMLID_313_" d="M147.9,517.6v12.1h-1.6v-12.1H147.9z"/>
		<path id="XMLID_315_" d="M150.4,527.9c0.7,0.4,1.7,0.8,2.8,0.8c1.6,0,2.5-0.8,2.5-2.1c0-1.1-0.6-1.8-2.3-2.4
			c-2-0.7-3.2-1.7-3.2-3.4c0-1.9,1.6-3.3,3.9-3.3c1.2,0,2.1,0.3,2.7,0.6l-0.4,1.3c-0.4-0.2-1.2-0.6-2.3-0.6c-1.7,0-2.3,1-2.3,1.8
			c0,1.1,0.7,1.7,2.4,2.3c2.1,0.8,3.1,1.8,3.1,3.6c0,1.9-1.4,3.5-4.2,3.5c-1.2,0-2.4-0.3-3.1-0.8L150.4,527.9z"/>
		<path id="XMLID_317_" d="M161.8,519h-3.7v-1.3h9v1.3h-3.7v10.8h-1.6V519z"/>
		<path id="XMLID_319_" d="M169.1,526l-1.3,3.8h-1.6l4.1-12.1h1.9l4.1,12.1h-1.7l-1.3-3.8H169.1z M173.1,524.7l-1.2-3.5
			c-0.3-0.8-0.4-1.5-0.6-2.2h0c-0.2,0.7-0.4,1.5-0.6,2.2l-1.2,3.5H173.1z"/>
		<path id="XMLID_322_" d="M178.1,529.8v-12.1h1.7l3.9,6.1c0.9,1.4,1.6,2.7,2.2,3.9l0,0c-0.1-1.6-0.2-3.1-0.2-5v-5.1h1.5v12.1h-1.6
			l-3.9-6.2c-0.8-1.3-1.7-2.7-2.3-4.1l-0.1,0c0.1,1.5,0.1,3,0.1,5v5.2H178.1z"/>
		<path id="XMLID_324_" d="M198.5,529.4c-0.6,0.3-1.7,0.6-3.2,0.6c-3.4,0-6-2.2-6-6.1c0-3.8,2.6-6.4,6.3-6.4c1.5,0,2.5,0.3,2.9,0.5
			l-0.4,1.3c-0.6-0.3-1.4-0.5-2.4-0.5c-2.8,0-4.7,1.8-4.7,5c0,3,1.7,4.9,4.7,4.9c1,0,1.9-0.2,2.6-0.5L198.5,529.4z"/>
		<path id="XMLID_326_" d="M206.7,524.1H202v4.4h5.3v1.3h-6.8v-12.1h6.6v1.3h-5v3.8h4.7V524.1z"/>
		<path id="XMLID_328_" d="M208.6,523.7v-1.1h9.3v1.1H208.6z M208.6,527.2v-1.1h9.3v1.1H208.6z"/>
	</g>
	<g id="XMLID_302_">
		<path id="XMLID_303_" d="M328.7,518.6L328.7,518.6l-2.1,1.1l-0.3-1.2l2.6-1.4h1.4v11.7h-1.5V518.6z"/>
		<path id="XMLID_305_" d="M421.8,528.8v-1l1.2-1.2c3-2.8,4.3-4.4,4.4-6.1c0-1.2-0.6-2.3-2.3-2.3c-1.1,0-1.9,0.5-2.5,1l-0.5-1.1
			c0.8-0.7,2-1.2,3.3-1.2c2.5,0,3.6,1.7,3.6,3.4c0,2.2-1.6,3.9-4,6.3l-0.9,0.9v0h5.3v1.3H421.8z"/>
		<path id="XMLID_307_" d="M530.2,527c0.5,0.3,1.5,0.7,2.6,0.7c2,0,2.7-1.3,2.6-2.3c0-1.6-1.5-2.3-3-2.3h-0.9v-1.2h0.9
			c1.2,0,2.6-0.6,2.6-2c0-0.9-0.6-1.8-2.1-1.8c-0.9,0-1.8,0.4-2.3,0.8l-0.4-1.2c0.6-0.5,1.8-0.9,3.1-0.9c2.3,0,3.3,1.4,3.3,2.8
			c0,1.2-0.7,2.2-2.2,2.8v0c1.4,0.3,2.6,1.4,2.6,3c0,1.9-1.5,3.5-4.3,3.5c-1.3,0-2.5-0.4-3-0.8L530.2,527z"/>
	</g>
	<g id="XMLID_280_">
		<path id="XMLID_281_" d="M134.9,551.6v12.1h-1.6v-12.1H134.9z"/>
		<path id="XMLID_283_" d="M137.7,563.8v-12.1h1.7l3.9,6.1c0.9,1.4,1.6,2.7,2.2,3.9l0,0c-0.1-1.6-0.2-3.1-0.2-5v-5.1h1.5v12.1h-1.6
			l-3.9-6.2c-0.8-1.3-1.7-2.7-2.3-4.1l-0.1,0c0.1,1.5,0.1,3,0.1,5v5.2H137.7z"/>
		<path id="XMLID_285_" d="M151.8,553h-3.7v-1.3h9v1.3h-3.7v10.8h-1.6V553z"/>
		<path id="XMLID_287_" d="M164.7,558.1H160v4.4h5.3v1.3h-6.8v-12.1h6.6v1.3h-5v3.8h4.7V558.1z"/>
		<path id="XMLID_289_" d="M167.3,563.8v-12.1h1.7l3.9,6.1c0.9,1.4,1.6,2.7,2.2,3.9l0,0c-0.1-1.6-0.2-3.1-0.2-5v-5.1h1.5v12.1h-1.6
			l-3.9-6.2c-0.8-1.3-1.7-2.7-2.3-4.1l-0.1,0c0.1,1.5,0.1,3,0.1,5v5.2H167.3z"/>
		<path id="XMLID_291_" d="M178.9,561.9c0.7,0.4,1.7,0.8,2.8,0.8c1.6,0,2.5-0.8,2.5-2.1c0-1.1-0.6-1.8-2.3-2.4
			c-2-0.7-3.2-1.7-3.2-3.4c0-1.9,1.6-3.3,3.9-3.3c1.2,0,2.1,0.3,2.7,0.6l-0.4,1.3c-0.4-0.2-1.2-0.6-2.3-0.6c-1.7,0-2.3,1-2.3,1.8
			c0,1.1,0.7,1.7,2.4,2.3c2.1,0.8,3.1,1.8,3.1,3.6c0,1.9-1.4,3.5-4.2,3.5c-1.2,0-2.4-0.3-3.1-0.8L178.9,561.9z"/>
		<path id="XMLID_293_" d="M189.6,551.6v12.1H188v-12.1H189.6z"/>
		<path id="XMLID_295_" d="M194.6,553h-3.7v-1.3h9v1.3h-3.7v10.8h-1.6V553z"/>
		<path id="XMLID_297_" d="M204.5,563.8v-5.1l-3.8-7h1.8l1.7,3.3c0.5,0.9,0.8,1.7,1.2,2.5h0c0.3-0.8,0.8-1.6,1.2-2.5l1.7-3.3h1.8
			l-4.1,7v5.2H204.5z"/>
		<path id="XMLID_299_" d="M210.9,557.7v-1.1h9.3v1.1H210.9z M210.9,561.2v-1.1h9.3v1.1H210.9z"/>
	</g>
	<g id="XMLID_9_">
		<path id="XMLID_113_" d="M327.7,552.6L327.7,552.6l-2.1,1.1l-0.3-1.2l2.6-1.4h1.4v11.7h-1.5V552.6z"/>
		<path id="XMLID_128_" d="M424.3,552.6L424.3,552.6l-2.1,1.1l-0.3-1.2l2.6-1.4h1.4v11.7h-1.5V552.6z"/>
		<path id="XMLID_204_" d="M429.2,563.5l5-13.1h1.2l-5,13.1H429.2z"/>
		<path id="XMLID_228_" d="M436.2,562.8v-1l1.2-1.2c3-2.8,4.3-4.4,4.4-6.1c0-1.2-0.6-2.3-2.3-2.3c-1.1,0-1.9,0.5-2.5,1l-0.5-1.1
			c0.8-0.7,2-1.2,3.3-1.2c2.5,0,3.6,1.7,3.6,3.4c0,2.2-1.6,3.9-4,6.3l-0.9,0.9v0h5.3v1.3H436.2z"/>
		<path id="XMLID_230_" d="M532.3,552.6L532.3,552.6l-2.1,1.1l-0.3-1.2l2.6-1.4h1.4v11.7h-1.5V552.6z"/>
		<path id="XMLID_260_" d="M537.2,563.5l5-13.1h1.2l-5,13.1H537.2z"/>
		<path id="XMLID_272_" d="M545.1,561.7c0.3,0,0.7,0,1.3-0.1c0.9-0.1,1.8-0.5,2.4-1.1c0.8-0.7,1.3-1.7,1.5-3.1h-0.1
			c-0.6,0.8-1.6,1.3-2.8,1.3c-2.1,0-3.5-1.6-3.5-3.6c0-2.2,1.6-4.2,4-4.2c2.4,0,3.9,1.9,3.9,4.9c0,2.6-0.9,4.4-2,5.5
			c-0.9,0.9-2.1,1.4-3.4,1.6c-0.6,0.1-1.1,0.1-1.5,0.1V561.7z M545.7,554.9c0,1.5,0.9,2.5,2.3,2.5c1.1,0,1.9-0.5,2.3-1.2
			c0.1-0.1,0.1-0.3,0.1-0.6c0-2-0.7-3.5-2.4-3.5C546.7,552.1,545.7,553.3,545.7,554.9z"/>
	</g>
	<g id="XMLID_28_">
		<circle id="XMLID_222_" class="st7" cx="216" cy="360" r="18"/>
	</g>
	<g id="XMLID_2_">
		<g id="XMLID_274_">
			<path id="XMLID_278_" class="st2" d="M231.5,360c-0.3,8.4-6.8,15.5-15.5,15.5c-8.5,0-15.5-7-15.5-15.5s7-15.5,15.5-15.5
				C224.7,344.5,231.2,351.6,231.5,360c0.1,3.2,5.1,3.2,5,0c-0.4-11.1-9-20.5-20.5-20.5c-11.2,0-20.5,9.3-20.5,20.5
				c0,11.1,9.3,20.5,20.5,20.5c11.5,0,20.1-9.3,20.5-20.5C236.6,356.8,231.6,356.8,231.5,360z"/>
		</g>
	</g>
</g>
</svg>
