<?xml version="1.0" encoding="utf-8"?>
<!-- Generator: Adobe Illustrator 19.0.0, SVG Export Plug-In . SVG Version: 6.00 Build 0)  -->
<svg version="1.1" xmlns="http://www.w3.org/2000/svg" xmlns:xlink="http://www.w3.org/1999/xlink" x="0px" y="0px"
	 viewBox="0 0 720 720" style="enable-background:new 0 0 720 720;" xml:space="preserve">
<style type="text/css">
	.st0{fill:#C55857;}
	.st1{fill:#AB1F23;}
	.st2{fill:#FAD466;}
	.st3{fill:#00A9B1;}
	.st4{fill:#016065;}
	.st5{fill:none;stroke:#00A9B1;stroke-width:5;stroke-miterlimit:10;stroke-dasharray:6.2815,6.2815;}
	.st6{fill:none;}
	.st7{font-family:'MyriadPro-Regular';}
	.st8{font-size:21px;}
	.st9{fill:#E48A2A;}
</style>
<g id="Layer_1">
	<circle id="XMLID_40_" class="st0" cx="342" cy="333" r="27"/>
	<g id="XMLID_39_">
		<g id="XMLID_106_">
			<path id="XMLID_110_" class="st1" d="M324,335.5c12,0,24,0,36,0c3.2,0,3.2-5,0-5c-12,0-24,0-36,0
				C320.8,330.5,320.8,335.5,324,335.5L324,335.5z"/>
		</g>
	</g>
	<g id="XMLID_38_">
		<g id="XMLID_100_">
			<path id="XMLID_104_" class="st1" d="M344.5,351c0-12,0-24,0-36c0-3.2-5-3.2-5,0c0,12,0,24,0,36
				C339.5,354.2,344.5,354.2,344.5,351L344.5,351z"/>
		</g>
	</g>
	<circle id="XMLID_37_" class="st2" cx="369" cy="333" r="27"/>
	<circle id="XMLID_36_" class="st2" cx="333" cy="369" r="27"/>
	<circle id="XMLID_35_" class="st0" cx="396" cy="351" r="27"/>
	<g id="XMLID_29_">
		<g id="XMLID_94_">
			<path id="XMLID_98_" class="st1" d="M378,353.5c12,0,24,0,36,0c3.2,0,3.2-5,0-5c-12,0-24,0-36,0
				C374.8,348.5,374.8,353.5,378,353.5L378,353.5z"/>
		</g>
	</g>
	<g id="XMLID_23_">
		<g id="XMLID_88_">
			<path id="XMLID_92_" class="st1" d="M398.5,369c0-12,0-24,0-36c0-3.2-5-3.2-5,0c0,12,0,24,0,36
				C393.5,372.2,398.5,372.2,398.5,369L398.5,369z"/>
		</g>
	</g>
	<circle id="XMLID_11_" class="st2" cx="378" cy="378" r="27"/>
	<circle id="XMLID_10_" class="st0" cx="351" cy="396" r="27"/>
	<g id="XMLID_6_">
		<g id="XMLID_82_">
			<path id="XMLID_86_" class="st1" d="M333,398.5c12,0,24,0,36,0c3.2,0,3.2-5,0-5c-12,0-24,0-36,0
				C329.8,393.5,329.8,398.5,333,398.5L333,398.5z"/>
		</g>
	</g>
	<g id="XMLID_5_">
		<g id="XMLID_76_">
			<path id="XMLID_80_" class="st1" d="M353.5,414c0-12,0-24,0-36c0-3.2-5-3.2-5,0c0,12,0,24,0,36
				C348.5,417.2,353.5,417.2,353.5,414L353.5,414z"/>
		</g>
	</g>
	<g id="XMLID_4_">
		<g id="XMLID_70_">
			<path id="XMLID_74_" class="st3" d="M559.7,360c-0.3,83.2-53.4,159.7-131.9,187.9c-78.6,28.3-168.5,3.5-221.8-60.7
				c-53.4-64.5-60.3-158.5-17.1-230.2c43.3-71.8,129.5-109.6,211.7-92.5c80.4,16.7,143.9,83.3,156.7,164.4
				C558.9,339.1,559.7,349.6,559.7,360c0,3.2,5,3.2,5,0c-0.1-42.4-13.3-84.2-38-118.8c-23.9-33.5-57.7-59.3-96.3-73.5
				c-80.8-29.7-174.3-4-228.7,62.6c-54.1,66.2-61.3,162-17,235.3c21.3,35.3,53.3,63.9,90.9,80.9c39,17.6,83.1,22.6,125.1,14.2
				c83-16.6,149.1-85.8,161.7-169.5c1.6-10.3,2.3-20.7,2.4-31.2C564.7,356.8,559.7,356.8,559.7,360z"/>
		</g>
	</g>
	<g id="XMLID_3_">
		<g id="XMLID_64_">
			<path id="XMLID_68_" class="st3" d="M596.6,360c-0.1,48.9-15.2,96.9-43.6,136.9c-27.6,39-67.2,69.2-112.1,85.5
				c-46.4,16.9-97.8,18.7-145.4,5.3c-46-13-87.4-40.1-117.9-76.9c-31.1-37.4-50-84.3-53.7-132.8c-3.7-48.9,7.9-98.2,33.2-140.2
				c24.6-40.7,61.3-73.5,104.6-93.3c45.2-20.7,96.9-26.4,145.6-16.5c47,9.6,90.5,33.7,123.6,68.3c33.1,34.6,55.2,79,62.7,126.3
				C595.7,335,596.6,347.5,596.6,360c0,3.2,5,3.2,5,0c-0.1-50-15.6-99.2-44.6-139.9c-28.2-39.5-67.9-70-113.4-86.8
				c-47.5-17.6-100.5-19.6-149.3-5.8c-47,13.3-89.4,41-120.5,78.6c-31.6,38.2-50.8,85.7-54.7,135.1c-3.9,50.1,8.1,101,34.2,144
				c25.2,41.5,63,75.1,107.2,95.1c46,20.8,98.1,26.6,147.5,16.6c48.1-9.7,92.6-34.4,126.5-69.7c34-35.5,56.8-81.2,64.2-129.8
				c1.9-12.3,2.8-24.8,2.9-37.3C601.7,356.8,596.7,356.8,596.6,360z"/>
		</g>
	</g>
	<g id="XMLID_2_">
		<g id="XMLID_58_">
			<path id="XMLID_62_" class="st3" d="M636.5,360c-0.1,57.2-17.8,113.3-51,160c-32.3,45.5-78.5,80.8-130.9,99.9
				c-54.3,19.7-114.5,21.9-170,6.2c-53.7-15.2-102.1-47-137.7-89.9c-36.2-43.7-58.3-98.5-62.6-155.1c-4.3-57.2,9.3-114.9,39-164
				c28.8-47.6,71.8-85.8,122.4-108.9c52.8-24.1,113.2-30.7,170.1-19c54.7,11.2,105.3,39.3,143.9,79.6
				c38.9,40.6,64.8,92.8,73.6,148.3C635.4,331.2,636.5,345.6,636.5,360c0,3.2,5,3.2,5,0c-0.1-58.2-18.2-115.6-52-163.1
				c-32.8-46-79.2-81.7-132.3-101.2C401.8,75.3,340,73,283.2,89.1c-54.7,15.5-104.2,47.9-140.3,91.7c-36.6,44.4-59,99.4-63.5,156.8
				C74.8,396,88.6,455.3,119,505.5c29.3,48.4,73.2,87.6,124.8,111c53.6,24.3,114.3,31.1,172,19.5c56-11.2,107.9-39.9,147.4-81.1
				c39.6-41.3,66.2-94.6,74.9-151.2c2.2-14.4,3.3-29,3.4-43.6C641.5,356.8,636.5,356.8,636.5,360z"/>
		</g>
	</g>
	<g id="XMLID_1_">
		<g id="XMLID_52_">
			<path id="XMLID_56_" class="st3" d="M525.1,360c-0.3,68.5-43.7,131.5-108.2,155c-65.2,23.8-139.9,3.4-184.1-49.9
				c-44.3-53.4-49.9-131.3-14-190.5c35.7-59.1,106.6-90.2,174.3-76.4c66.6,13.6,119.3,68.5,130.1,135.6
				C524.4,342.4,525.1,351.2,525.1,360c0,3.2,5,3.2,5,0c-0.3-70.8-45.3-135.5-111.9-159.9c-66.9-24.4-144.2-3.3-189.4,51.7
				c-45.5,55.3-51.4,135.5-14,196.7c37,60.5,109.4,92.1,178.9,78.3c68.9-13.7,123.8-71.1,134.5-140.5c1.3-8.7,2-17.4,2-26.2
				C530.1,356.8,525.1,356.8,525.1,360z"/>
		</g>
	</g>
	<circle id="XMLID_12_" class="st3" cx="192.4" cy="360" r="18"/>
	<g id="XMLID_14_">
		<g id="XMLID_30_">
			<path id="XMLID_34_" class="st4" d="M183.4,362.5c6,0,12,0,18,0c3.2,0,3.2-5,0-5c-6,0-12,0-18,0
				C180.2,357.5,180.2,362.5,183.4,362.5L183.4,362.5z"/>
		</g>
	</g>
	<circle id="XMLID_16_" class="st3" cx="527.6" cy="360" r="18"/>
	<g id="XMLID_15_">
		<g id="XMLID_24_">
			<path id="XMLID_28_" class="st4" d="M518.6,362.5c6,0,12,0,18,0c3.2,0,3.2-5,0-5c-6,0-12,0-18,0
				C515.4,357.5,515.4,362.5,518.6,362.5L518.6,362.5z"/>
		</g>
	</g>
	<circle id="XMLID_18_" class="st3" cx="360" cy="157.8" r="18"/>
	<g id="XMLID_17_">
		<g id="XMLID_13_">
			<path id="XMLID_22_" class="st4" d="M351,160.3c6,0,12,0,18,0c3.2,0,3.2-5,0-5c-6,0-12,0-18,0C347.8,155.3,347.8,160.3,351,160.3
				L351,160.3z"/>
		</g>
	</g>
	<g id="XMLID_43_">
		<circle id="XMLID_113_" class="st5" cx="684" cy="90" r="18"/>
	</g>
	<rect id="XMLID_44_" x="54" y="81" class="st6" width="171" height="63"/>
	<text id="XMLID_46_" transform="matrix(1 0 0 1 86.2339 95.9097)"><tspan x="0" y="0" class="st7 st8">IONIZATION </tspan><tspan x="17.9" y="25.2" class="st7 st8">ENERGY</tspan></text>
</g>
<g id="Layer_2">
	<g id="XMLID_42_">
		<g id="XMLID_120_">
			<path id="XMLID_124_" class="st9" d="M317.9,136.8c3,3,6,6,9,9c0-1.2,0-2.4,0-3.5c-3,3-6,6-9,9c-2.3,2.3,1.3,5.8,3.5,3.5
				c3-3,6-6,9-9c1-1,1-2.6,0-3.5c-3-3-6-6-9-9C319.2,131,315.7,134.5,317.9,136.8L317.9,136.8z"/>
		</g>
	</g>
	<path id="XMLID_41_" class="st9" d="M271.1,122.2c-1.4,3.3-2.5,6.7-3.9,10.1c-1.1,2.8-2.8,7.9-6,9c-6.3,2.3-9.6-11.8-11-15.5
		c-2-5.2-4.4-12.4-10.2-14.4c-14.4-4.7-15.5,22.3-22.3,28.7c-6.7,6.3-11.3-10.5-12.7-14.3c-2.3-6.1-5.2-14.3-12.8-14.8
		c-3.2-0.2-3.2,4.8,0,5c6.2,0.3,8.6,13,10.5,17.6c2.1,5.2,5,12.4,11.5,12.9c6.5,0.5,9.9-6.1,12.1-11.1c1.4-3.3,2.5-6.7,3.9-10.1
		c1.1-2.8,2.8-7.9,6-9c6.3-2.3,9.6,11.8,11,15.5c2,5.2,4.4,12.4,10.2,14.4c14.4,4.7,15.5-22.3,22.3-28.7
		c6.7-6.3,11.3,10.5,12.7,14.3c2.3,6.1,5.2,14.3,12.8,14.8c0.2,0,0.4,0,0.6,0c0.1,0,0.2,0,0.3,0c6.6,0,13.3,0.1,19.9,0.1
		c3.2,0,3.2-5,0-5c-6.6,0-13.3-0.1-19.9-0.1c-0.2,0-0.4,0-0.6,0.1c-0.1,0-0.2,0-0.4-0.1c-6.2-0.3-8.6-13-10.5-17.6
		c-2.1-5.2-5-12.4-11.5-12.9C276.6,110.5,273.2,117.1,271.1,122.2z"/>
	<g id="XMLID_45_">
		<g id="XMLID_115_">
			<path id="XMLID_125_" d="M384.1,156.8c31.4-6.6,62.9-13.2,94.3-19.8c50.1-10.5,100.2-21.1,150.3-31.6c11.5-2.4,23-4.8,34.5-7.2
				c-0.9-1.2-1.9-2.4-2.8-3.7c-2.3,3.6-4.6,7.1-7,10.7c-1.8,2.7,2.6,5.2,4.3,2.5c2.3-3.6,4.6-7.1,7-10.7c0.8-1.2,0.2-2.7-0.9-3.4
				c-3.6-2.3-7.1-4.6-10.7-7c-2.7-1.8-5.2,2.6-2.5,4.3c3.6,2.3,7.1,4.6,10.7,7c-0.3-1.1-0.6-2.3-0.9-3.4c-2.3,3.6-4.6,7.1-7,10.7
				c-1.8,2.7,2.6,5.2,4.3,2.5c2.3-3.6,4.6-7.1,7-10.7c1.3-1.9-0.8-4.1-2.8-3.7c-31.4,6.6-62.9,13.2-94.3,19.8
				c-50.1,10.5-100.2,21.1-150.3,31.6c-11.5,2.4-23,4.8-34.5,7.2C379.7,152.6,381,157.5,384.1,156.8L384.1,156.8z"/>
		</g>
	</g>
</g>
</svg>
