<?xml version="1.0" encoding="utf-8"?>
<!-- Generator: Adobe Illustrator 19.1.0, SVG Export Plug-In . SVG Version: 6.00 Build 0)  -->
<svg version="1.1" id="Layer_1" xmlns="http://www.w3.org/2000/svg" xmlns:xlink="http://www.w3.org/1999/xlink" x="0px" y="0px"
	 viewBox="-375 177.6 208.3 206.5" style="enable-background:new -375 177.6 208.3 206.5;" xml:space="preserve">
<style type="text/css">
	.st0{fill:url(#SVGID_1_);}
	.st1{fill:#3818D6;stroke:#000000;stroke-miterlimit:10;}
	.st2{fill:#EDFFC9;}
	.st3{font-family:'ArialMT';}
	.st4{font-size:12px;}
	.st5{fill:none;stroke:#FFFFFF;stroke-width:3;stroke-miterlimit:10;}
</style>
<radialGradient id="SVGID_1_" cx="-270.85" cy="280.55" r="100" gradientUnits="userSpaceOnUse">
	<stop  offset="0" style="stop-color:#D32424"/>
	<stop  offset="1" style="stop-color:#000000"/>
</radialGradient>
<circle class="st0" cx="-270.9" cy="280.5" r="100"/>
<g>
	<circle class="st1" cx="-260.2" cy="302.1" r="10"/>
	<text transform="matrix(2.4375 0 0 1 -264.7205 305.6542)" class="st2 st3 st4">-</text>
	<text transform="matrix(2.4375 0 0 1 -264.7205 305.6542)" class="st5 st3 st4">-</text>
</g>
<g>
	<circle class="st1" cx="-213.2" cy="261.1" r="10"/>
	<text transform="matrix(2.4375 0 0 1 -217.7209 264.6542)" class="st2 st3 st4">-</text>
	<text transform="matrix(2.4375 0 0 1 -217.7209 264.6542)" class="st5 st3 st4">-</text>
</g>
<g>
	<circle class="st1" cx="-304.2" cy="219.1" r="10"/>
	<text transform="matrix(2.4375 0 0 1 -308.7205 222.6542)" class="st2 st3 st4">-</text>
	<text transform="matrix(2.4375 0 0 1 -308.7205 222.6542)" class="st5 st3 st4">-</text>
</g>
<g>
	<circle class="st1" cx="-260.2" cy="347.1" r="10"/>
	<text transform="matrix(2.4375 0 0 1 -264.7205 350.6542)" class="st2 st3 st4">-</text>
	<text transform="matrix(2.4375 0 0 1 -264.7205 350.6542)" class="st5 st3 st4">-</text>
</g>
<g>
	<circle class="st1" cx="-284.2" cy="265.1" r="10"/>
	<text transform="matrix(2.4375 0 0 1 -288.7204 268.6542)" class="st2 st3 st4">-</text>
	<text transform="matrix(2.4375 0 0 1 -288.7204 268.6542)" class="st5 st3 st4">-</text>
</g>
<g>
	<circle class="st1" cx="-240.2" cy="223.1" r="10"/>
	<text transform="matrix(2.4375 0 0 1 -244.7204 226.6542)" class="st2 st3 st4">-</text>
	<text transform="matrix(2.4375 0 0 1 -244.7204 226.6542)" class="st5 st3 st4">-</text>
</g>
<g>
	<circle class="st1" cx="-204.2" cy="310.1" r="10"/>
	<text transform="matrix(2.4375 0 0 1 -208.7211 313.6542)" class="st2 st3 st4">-</text>
	<text transform="matrix(2.4375 0 0 1 -208.7211 313.6542)" class="st5 st3 st4">-</text>
</g>
<g>
	<circle class="st1" cx="-324.2" cy="300.1" r="10"/>
	<text transform="matrix(2.4375 0 0 1 -328.7206 303.6542)" class="st2 st3 st4">-</text>
	<text transform="matrix(2.4375 0 0 1 -328.7206 303.6542)" class="st5 st3 st4">-</text>
</g>
</svg>
