<?xml version="1.0" encoding="utf-8"?>
<!-- Generator: Adobe Illustrator 19.0.0, SVG Export Plug-In . SVG Version: 6.00 Build 0)  -->
<svg version="1.1" xmlns="http://www.w3.org/2000/svg" xmlns:xlink="http://www.w3.org/1999/xlink" x="0px" y="0px"
	 viewBox="0 0 720 720" style="enable-background:new 0 0 720 720;" xml:space="preserve">
<style type="text/css">
	.st0{fill:#FAD466;}
	.st1{fill:#F8BA17;}
	.st2{fill:#C55857;}
	.st3{fill:#924241;}
	.st4{fill:#AB1F23;}
	.st5{fill:none;stroke:#58595B;stroke-width:4;stroke-linecap:round;stroke-miterlimit:10;stroke-dasharray:11.9055,11.9055;}
	.st6{fill:#75BC64;}
	.st7{fill:#C1DACB;}
	.st8{fill:#00A9B1;}
</style>
<g id="Layer_1">
	<g id="XMLID_80_">
		<circle id="XMLID_70_" class="st0" cx="337.4" cy="359.5" r="27"/>
		<g id="XMLID_65_">
			<path id="XMLID_69_" class="st1" d="M361.9,359.5c-0.3,13.4-10.9,24.5-24.5,24.5c-13.3,0-24.5-11.2-24.5-24.5
				c0-13.4,11.1-24.5,24.5-24.5C351,335,361.5,346.2,361.9,359.5c0.1,3.2,5.1,3.2,5,0c-0.3-12.1-7.4-23.1-18.9-27.5
				c-11.6-4.5-25.2-1-33.2,8.6c-17.4,20.9,1.4,52.7,28,47.9c14-2.5,23.7-15,24.1-29C367,356.3,362,356.3,361.9,359.5z"/>
		</g>
	</g>
	<g id="XMLID_1_">
		<g id="XMLID_73_">
			<circle id="XMLID_63_" class="st2" cx="364.4" cy="332.5" r="27"/>
			<g id="XMLID_58_">
				<path id="XMLID_62_" class="st3" d="M388.9,332.5c-0.3,13.4-10.9,24.5-24.5,24.5c-13.3,0-24.5-11.2-24.5-24.5
					c0-13.4,11.1-24.5,24.5-24.5C378,308,388.5,319.2,388.9,332.5c0.1,3.2,5.1,3.2,5,0c-0.3-12.1-7.4-23.1-18.9-27.5
					c-11.6-4.5-25.2-1-33.2,8.6c-17.4,20.9,1.4,52.7,28,47.9c14-2.5,23.7-15,24.1-29C394,329.3,389,329.3,388.9,332.5z"/>
			</g>
		</g>
		<g id="XMLID_14_">
			<g id="XMLID_52_">
				<path id="XMLID_56_" class="st4" d="M346.4,335c12,0,24,0,36,0c3.2,0,3.2-5,0-5c-12,0-24,0-36,0C343.2,330,343.2,335,346.4,335
					L346.4,335z"/>
			</g>
		</g>
		<g id="XMLID_13_">
			<g id="XMLID_46_">
				<path id="XMLID_50_" class="st4" d="M366.9,350.5c0-12,0-24,0-36c0-3.2-5-3.2-5,0c0,12,0,24,0,36
					C361.9,353.7,366.9,353.7,366.9,350.5L366.9,350.5z"/>
			</g>
		</g>
	</g>
	<g id="XMLID_12_">
		<circle id="XMLID_44_" class="st0" cx="382.4" cy="368.5" r="27"/>
		<g id="XMLID_39_">
			<path id="XMLID_43_" class="st1" d="M406.9,368.5c-0.3,13.4-10.9,24.5-24.5,24.5c-13.3,0-24.5-11.2-24.5-24.5
				c0-13.4,11.1-24.5,24.5-24.5C396,344,406.5,355.2,406.9,368.5c0.1,3.2,5.1,3.2,5,0c-0.3-12.1-7.4-23.1-18.9-27.5
				c-11.6-4.5-25.2-1-33.2,8.6c-17.4,20.9,1.4,52.7,28,47.9c14-2.5,23.7-15,24.1-29C412,365.3,407,365.3,406.9,368.5z"/>
		</g>
	</g>
	<g id="XMLID_2_">
		<g id="XMLID_9_">
			<circle id="XMLID_37_" class="st2" cx="355.4" cy="386.5" r="27"/>
			<g id="XMLID_32_">
				<path id="XMLID_36_" class="st3" d="M379.9,386.5c-0.3,13.4-10.9,24.5-24.5,24.5c-13.3,0-24.5-11.2-24.5-24.5
					c0-13.4,11.1-24.5,24.5-24.5C369,362,379.5,373.2,379.9,386.5c0.1,3.2,5.1,3.2,5,0c-0.3-12.1-7.4-23.1-18.9-27.5
					c-11.6-4.5-25.2-1-33.2,8.6c-17.4,20.9,1.4,52.7,28,47.9c14-2.5,23.7-15,24.1-29C385,383.3,380,383.3,379.9,386.5z"/>
			</g>
		</g>
		<g id="XMLID_8_">
			<g id="XMLID_26_">
				<path id="XMLID_30_" class="st4" d="M337.4,389c12,0,24,0,36,0c3.2,0,3.2-5,0-5c-12,0-24,0-36,0C334.2,384,334.2,389,337.4,389
					L337.4,389z"/>
			</g>
		</g>
		<g id="XMLID_7_">
			<g id="XMLID_20_">
				<path id="XMLID_24_" class="st4" d="M357.9,404.5c0-12,0-24,0-36c0-3.2-5-3.2-5,0c0,12,0,24,0,36
					C352.9,407.7,357.9,407.7,357.9,404.5L357.9,404.5z"/>
			</g>
		</g>
	</g>
</g>
<g id="Layer_4">
	<g id="XMLID_3_">
		<circle id="XMLID_83_" class="st5" cx="360" cy="360" r="144"/>
	</g>
	<g id="XMLID_4_">
		<circle id="XMLID_81_" class="st5" cx="360" cy="360" r="216"/>
	</g>
</g>
<g id="Layer_3">
	<polygon id="XMLID_45_" class="st6" points="286.7,140.7 322.7,130.1 286.7,119.6 295.7,130.1 	"/>
	<g id="XMLID_10_">
		<g id="XMLID_127_">
			<path id="XMLID_144_" class="st6" d="M283.2,125.6c-3.8-0.2-5.7-6.4-6.7-9.3c-1.6-4.2-2.9-8.7-5-12.7c-3.5-6.5-10.7-9.6-15.9-3
				c-2.6,3.3-4,7.5-5.4,11.4c-1.4,3.9-2.6,9.2-5.7,12.2c-6.4,6.2-11.4-14-12.9-17.6c-2.5-5.9-8.1-13.3-15.1-8.2
				c-6.8,5-7.5,15.8-11.3,22.8c-6.1,11.4-11.2-4.6-13.2-10.1c-2.2-5.9-6-16.5-14.3-14c-7.6,2.3-9.6,13.8-12,20.1
				c-1,2.6-3.2,9.1-7,8.3c-3.7-0.7-5.6-7.7-6.6-10.6c-2.2-6-4.8-17.4-12.8-18.1c-8.2-0.7-11.3,10.3-13.4,16.2
				c-1.3,3.5-2.7,9.9-6.2,12c-3.8,2.3-6.2-3.2-7.4-5.9c-2.9-6.6-4.4-18-11.6-21.5c-7.8-3.8-12.4,5.4-14.7,11.2
				c-1.6,4.2-6.8,23.6-13.2,13.8c-4.7-7.1-4.7-17.3-11.1-23.4c-6.2-6-12.7-0.2-15.5,5.9c-1.8,3.8-6.1,23.1-12.5,19.9
				c-3.4-1.7-4.9-8-6.1-11.2c-1.5-4.1-2.8-8.5-5.2-12.1c-1.9-2.9-4.4-4.8-7.9-5.1c-3.2-0.2-3.2,4.8,0,5c3.8,0.2,5.7,6.4,6.7,9.3
				c1.6,4.2,2.9,8.7,5,12.7c3.5,6.5,10.7,9.6,15.9,3c2.6-3.3,4-7.5,5.4-11.4c1.4-3.9,2.6-9.2,5.7-12.2c6.4-6.2,11.4,14,12.9,17.6
				c2.5,5.9,8.2,13.3,15.1,8.2c6.8-5,7.5-15.8,11.3-22.8c6.1-11.4,11.2,4.6,13.2,10.1c2.2,5.9,6,16.5,14.3,14
				c7.6-2.3,9.6-13.8,12-20.1c1-2.6,3.2-9.1,7-8.3c3.7,0.7,5.6,7.7,6.6,10.6c2.2,6,4.8,17.4,12.8,18.1c8.2,0.7,11.3-10.3,13.4-16.2
				c1.3-3.5,2.7-9.9,6.2-12c3.8-2.3,6.2,3.2,7.4,5.9c2.9,6.6,4.4,18,11.6,21.5c7.8,3.8,12.4-5.4,14.7-11.2
				c1.6-4.2,6.8-23.6,13.2-13.8c4.7,7.1,4.7,17.3,11.1,23.4c6.2,6,12.7,0.2,15.5-5.9c1.8-3.8,6.1-23.1,12.5-19.9
				c3.4,1.7,4.9,8,6.1,11.2c1.5,4.1,2.8,8.5,5.2,12.1c1.9,2.9,4.4,4.8,7.9,5.1C286.4,130.8,286.4,125.8,283.2,125.6L283.2,125.6z"/>
		</g>
	</g>
	<g id="XMLID_11_">
		<g id="XMLID_112_">
			<path id="XMLID_118_" class="st6" d="M285.7,131.5c6.2-0.2,12.1,0.7,18,2.6c3.1,1,4.4-3.8,1.3-4.8c-6.3-2-12.7-3-19.3-2.8
				C282.5,126.6,282.4,131.6,285.7,131.5L285.7,131.5z"/>
		</g>
	</g>
	<polygon id="XMLID_72_" class="st6" points="659,60.2 688.5,37 651.2,40.6 663.5,47 	"/>
	<g id="XMLID_71_">
		<g id="XMLID_125_">
			<path id="XMLID_132_" class="st6" d="M650.5,47.3c-3.8,1.3-7.5-3.4-9.8-5.8c-3.2-3.4-6.1-7.2-9.7-10.2c-5.4-4.5-13.1-5-15.7,2.8
				c-2.8,8.4,1.7,18.1-1.6,26.2c-3.5,8.6-15.3-7.9-18-10.7c-4.4-4.6-12.4-10.1-17.4-3c-4.8,6.8-1.6,17.4-2.2,25.1
				c-0.3,3.8-1.7,8.1-6.2,5.8c-3.9-2-6.9-6.3-9.8-9.5c-4.1-4.6-11.3-12.8-18.1-8.1c-6.6,4.6-4.3,16.2-4.2,22.8
				c0,2.9,0.6,9.9-3.2,10.9c-3.6,0.9-7.7-4.5-9.8-6.8c-4.4-4.8-11-14.8-18.8-12.7c-8.1,2.1-7,13.6-6.7,19.8c0.1,3.9,1,9.6-1,13.2
				c-2.4,4.2-6.8,0.1-9.1-2.1c-5.2-5.1-10.6-14.8-18.6-15.8c-8.7-1-9.9,9.1-9.9,15.4c0,4.2,2.6,24.4-6.7,18.5
				c-7.3-4.7-11-14.3-19.2-17.8c-7.9-3.3-11.9,4-12.4,10.7c-0.3,4.2,2.9,23.3-3.7,23.6c-3.7,0.2-7.7-5.2-9.8-7.6
				c-3-3.3-5.8-6.9-9.5-9.6c-2.8-2-5.9-3.3-9.3-2.1c-3,1-1.7,5.8,1.3,4.8c3.8-1.3,7.5,3.4,9.8,5.8c3.2,3.4,6.1,7.2,9.7,10.2
				c5.4,4.5,13.1,5,15.7-2.8c2.8-8.4-1.7-18.1,1.6-26.2c3.5-8.6,15.4,7.9,18,10.7c4.4,4.6,12.4,10.1,17.4,3
				c4.8-6.8,1.6-17.4,2.2-25.1c0.3-3.8,1.7-8.1,6.2-5.8c3.9,2,6.9,6.3,9.8,9.5c4.1,4.6,11.3,12.8,18.1,8.1
				c6.6-4.6,4.3-16.2,4.2-22.8c0-2.9-0.6-9.9,3.2-10.9c3.6-0.9,7.7,4.5,9.8,6.8c4.4,4.8,11,14.8,18.8,12.7c8.1-2.1,7-13.6,6.7-19.8
				c-0.1-3.9-1-9.6,1-13.2c2.4-4.2,6.8-0.1,9.1,2.1c5.2,5.1,10.6,14.8,18.6,15.8c8.7,1,9.9-9.1,9.8-15.4c0-4.2-2.6-24.4,6.7-18.5
				c7.3,4.7,11,14.3,19.2,17.8c7.9,3.3,11.9-4,12.4-10.7c0.3-4.2-2.9-23.3,3.7-23.6c3.7-0.2,7.7,5.2,9.8,7.6c3,3.3,5.8,6.9,9.5,9.6
				c2.8,2,5.9,3.3,9.3,2.1C654.9,51.1,653.6,46.3,650.5,47.3L650.5,47.3z"/>
		</g>
	</g>
	<g id="XMLID_57_">
		<g id="XMLID_114_">
			<path id="XMLID_122_" class="st6" d="M655,51.8c5.4-2.3,11.2-3.7,17.1-4.1c3.2-0.2,3.2-5.2,0-5c-6.8,0.5-13.3,2-19.6,4.7
				C649.6,48.8,652.1,53.1,655,51.8L655,51.8z"/>
		</g>
	</g>
</g>
<g id="Layer_2">
	<g id="XMLID_6_">
		<circle id="XMLID_102_" class="st7" cx="360" cy="144" r="27"/>
		<g id="XMLID_90_">
			<path id="XMLID_94_" class="st8" d="M384.5,144c-0.3,13.4-10.9,24.5-24.5,24.5c-13.3,0-24.5-11.2-24.5-24.5
				c0-13.4,11.1-24.5,24.5-24.5C373.6,119.5,384.2,130.7,384.5,144c0.1,3.2,5.1,3.2,5,0c-0.3-12.1-7.4-23.1-18.9-27.5
				c-11.6-4.5-25.2-1-33.2,8.6c-17.4,20.9,1.4,52.7,28,47.9c14-2.5,23.7-15,24.1-29C389.6,140.8,384.6,140.8,384.5,144z"/>
		</g>
	</g>
	<g id="XMLID_5_">
		<line id="XMLID_101_" class="st0" x1="342" y1="144" x2="378" y2="144"/>
		<g id="XMLID_96_">
			<path id="XMLID_100_" class="st8" d="M342,146.5c12,0,24,0,36,0c3.2,0,3.2-5,0-5c-12,0-24,0-36,0
				C338.8,141.5,338.8,146.5,342,146.5L342,146.5z"/>
		</g>
	</g>
</g>
</svg>
