<?xml version="1.0" encoding="utf-8"?>
<!-- Generator: Adobe Illustrator 19.1.0, SVG Export Plug-In . SVG Version: 6.00 Build 0)  -->
<svg version="1.1" id="Layer_1" xmlns="http://www.w3.org/2000/svg" xmlns:xlink="http://www.w3.org/1999/xlink" x="0px" y="0px"
	 viewBox="0 0 320 100.5" style="enable-background:new 0 0 320 100.5;" xml:space="preserve">
<style type="text/css">
	
		.st0{fill:url(#SVGID_1_);stroke:url(#SVGID_2_);stroke-width:0.25;stroke-linecap:round;stroke-linejoin:round;stroke-miterlimit:10;}
	
		.st1{fill:url(#SVGID_3_);stroke:url(#SVGID_4_);stroke-width:0.25;stroke-linecap:round;stroke-linejoin:round;stroke-miterlimit:10;}
</style>
<g>
	
		<linearGradient id="SVGID_1_" gradientUnits="userSpaceOnUse" x1="60.3709" y1="73.4192" x2="313.2868" y2="73.4192" gradientTransform="matrix(0.8614 0.6288 -0.5329 0.73 39.0035 -119.5142)">
		<stop  offset="0" style="stop-color:#FFF23A"/>
		<stop  offset="4.010540e-02" style="stop-color:#FEE62D"/>
		<stop  offset="0.1171" style="stop-color:#FED41A"/>
		<stop  offset="0.1964" style="stop-color:#FDC90F"/>
		<stop  offset="0.2809" style="stop-color:#FDC60B"/>
		<stop  offset="0.6685" style="stop-color:#F28F3F"/>
		<stop  offset="0.8876" style="stop-color:#ED693C"/>
		<stop  offset="1" style="stop-color:#E83E39"/>
	</linearGradient>
	
		<linearGradient id="SVGID_2_" gradientUnits="userSpaceOnUse" x1="125.9915" y1="32.0195" x2="247.4746" y2="115.1135" gradientTransform="matrix(0.8614 0.6288 -0.5329 0.73 39.0035 -119.5142)">
		<stop  offset="0" style="stop-color:#FFF23A"/>
		<stop  offset="4.010540e-02" style="stop-color:#FEE62D"/>
		<stop  offset="0.1171" style="stop-color:#FED41A"/>
		<stop  offset="0.1964" style="stop-color:#FDC90F"/>
		<stop  offset="0.2809" style="stop-color:#FDC60B"/>
		<stop  offset="0.6685" style="stop-color:#F28F3F"/>
		<stop  offset="0.8876" style="stop-color:#ED693C"/>
		<stop  offset="1" style="stop-color:#E83E39"/>
	</linearGradient>
	<path class="st0" d="M136.6,96.8c-9.8-7.6-14.1-24.5-17-44.3c-1.3-9-3.5-17.8-6.3-24.8c-4.9-12.1-12.4-11.2-18.7,0.4
		c-4.7,8.6-7.4,19.8-10.2,30.9c-1.6,6.2-3.2,12.6-5.2,18.2c-9.2,25.2-22.7,26.3-30.3,1.9c-2.5-7.8-3.8-17.2-5.7-25.8
		c-1.7-7.7-2.9-16-5.2-22.8c-4.9-14.7-13.7-15.6-20.4-1.8c-3.7,7.6-6.4,17.2-9.9,26.7c-0.3-0.1-1.4-0.4-2.5-0.7c0-1.3,0.1-2.7,0.1-4
		c0.5-1.5,1-2.8,1.4-4.4c4-15.8,9.4-28.6,17.7-34.7c2.5-0.1,5-0.2,7.6-0.2c8.7,7.7,12.6,23.2,15.1,41.5c1.3,9.1,3.4,17.9,6.2,25.2
		c5.8,15.6,15.4,14.6,21.8-2.4c3.3-8.9,5.4-19.7,8.5-29.2c2.8-8.7,5.6-17.8,9.3-24.7c8.4-15.6,19.1-13.8,24.8,4
		c2.6,8,4.3,17.6,5.9,27c2,11.8,4.2,23.2,9.1,30.7c5.4,8.2,11.8,7.5,16.9-3.6c3.3-7.1,5.9-15.9,8.1-24.7
		c3.3-13.3,6.4-26.6,12.1-36.3c8.9-14.9,19.3-13.2,25.1,5c2.3,7,3.6,15.5,5.3,23.4c1.7,8.1,3,16.9,5.2,24.2
		c6.3,20.8,17.3,19.8,24.8-1.9c2.1-6.1,3.4-13.2,5.2-19.6c2.6-9,4.8-18.7,8-26.5c9.6-23.5,22.5-22.6,29.5,1.9
		c2.3,8,3.2,17.9,5.2,26.3c2,8.5,4.1,17.2,7,24.2c4.9,11.7,12.7,11.5,18.4-0.7c3.8-8.2,6.6-18.4,10.1-28.4c0.4,0.3,1.4,1,2.4,1.8
		c0,0.9-0.1,1.8-0.1,2.7c-0.3,1-0.8,2-1,3.1c-3.7,16.9-8.9,30.5-17.5,37.3c-2.5,0.1-5,0.2-7.6,0.2c-9.2-7.9-13.5-24.3-16.3-43.3
		c-1.1-7.1-2.4-14.1-4.2-20.3c-5.3-17.6-14.4-18.9-21.9-2.6c-3.3,7.3-6.2,16.3-8.1,25.4c-4,19-9.1,35.2-18.7,43.1
		c-2.3,0.1-4.6,0.2-6.9,0.2c-6.4-4.7-10.9-13.9-13.7-26.6c-1.2-5.3-1.9-11.3-3-16.7c-1.7-8.1-3.1-16.8-5.6-23.7
		c-5-14.2-13.2-14.1-20-1.2c-4.5,8.4-7.4,18.9-9.6,30c-3.8,18.6-9.2,33.5-18.7,40.5C140.8,96.6,138.7,96.7,136.6,96.8z"/>
</g>
<g>
	
		<linearGradient id="SVGID_3_" gradientUnits="userSpaceOnUse" x1="85.4385" y1="38.8776" x2="338.3543" y2="38.8776" gradientTransform="matrix(0.8614 -0.6288 -0.5329 -0.73 -0.9965 209.6062)">
		<stop  offset="0" style="stop-color:#FFF23A"/>
		<stop  offset="4.010540e-02" style="stop-color:#FEE62D"/>
		<stop  offset="0.1171" style="stop-color:#FED41A"/>
		<stop  offset="0.1964" style="stop-color:#FDC90F"/>
		<stop  offset="0.2809" style="stop-color:#FDC60B"/>
		<stop  offset="0.6685" style="stop-color:#F28F3F"/>
		<stop  offset="0.8876" style="stop-color:#ED693C"/>
		<stop  offset="1" style="stop-color:#E83E39"/>
	</linearGradient>
	
		<linearGradient id="SVGID_4_" gradientUnits="userSpaceOnUse" x1="151.059" y1="-2.5222" x2="272.5421" y2="80.5718" gradientTransform="matrix(0.8614 -0.6288 -0.5329 -0.73 -0.9965 209.6062)">
		<stop  offset="0" style="stop-color:#FFF23A"/>
		<stop  offset="4.010540e-02" style="stop-color:#FEE62D"/>
		<stop  offset="0.1171" style="stop-color:#FED41A"/>
		<stop  offset="0.1964" style="stop-color:#FDC90F"/>
		<stop  offset="0.2809" style="stop-color:#FDC60B"/>
		<stop  offset="0.6685" style="stop-color:#F28F3F"/>
		<stop  offset="0.8876" style="stop-color:#ED693C"/>
		<stop  offset="1" style="stop-color:#E83E39"/>
	</linearGradient>
	<path class="st1" d="M136.6,2.8c-9.8,7.6-14.1,24.5-17,44.3c-1.3,9-3.5,17.8-6.3,24.8c-4.9,12.1-12.4,11.2-18.7-0.4
		c-4.7-8.6-7.4-19.8-10.2-30.9c-1.6-6.2-3.2-12.6-5.2-18.2C70-2.9,56.5-3.9,48.8,20.4c-2.5,7.8-3.8,17.2-5.7,25.8
		c-1.7,7.7-2.9,16-5.2,22.8c-4.9,14.7-13.7,15.6-20.4,1.8c-3.7-7.6-6.4-17.2-9.9-26.7c-0.3,0.1-1.4,0.4-2.5,0.7c0,1.3,0.1,2.7,0.1,4
		c0.5,1.5,1,2.8,1.4,4.4c4,15.8,9.4,28.6,17.7,34.7c2.5,0.1,5,0.2,7.6,0.2c8.7-7.7,12.6-23.2,15.1-41.5c1.3-9.1,3.4-17.9,6.2-25.2
		C59.1,5.9,68.7,7,75.1,23.9c3.3,8.9,5.4,19.7,8.5,29.2c2.8,8.7,5.6,17.8,9.3,24.7c8.4,15.6,19.1,13.8,24.8-4c2.6-8,4.3-17.6,5.9-27
		c2-11.8,4.2-23.2,9.1-30.7c5.4-8.2,11.8-7.5,16.9,3.6c3.3,7.1,5.9,15.9,8.1,24.7C161,57.7,164,71,169.8,80.7
		c8.9,14.9,19.3,13.2,25.1-5c2.3-7,3.6-15.5,5.3-23.4c1.7-8.1,3-16.9,5.2-24.2c6.3-20.8,17.3-19.8,24.8,1.9
		c2.1,6.1,3.4,13.2,5.2,19.6c2.6,9,4.8,18.7,8,26.5c9.6,23.5,22.5,22.6,29.5-1.9c2.3-8,3.2-17.9,5.2-26.3c2-8.5,4.1-17.2,7-24.2
		c4.9-11.7,12.7-11.5,18.4,0.7c3.8,8.2,6.6,18.4,10.1,28.4c0.4-0.3,1.4-1,2.4-1.8c0-0.9-0.1-1.8-0.1-2.7c-0.3-1-0.8-2-1-3.1
		c-3.7-16.9-8.9-30.5-17.5-37.3c-2.5-0.1-5-0.2-7.6-0.2c-9.2,7.9-13.5,24.3-16.3,43.3c-1.1,7.1-2.4,14.1-4.2,20.3
		c-5.3,17.6-14.4,18.9-21.9,2.6c-3.3-7.3-6.2-16.3-8.1-25.4c-4-19-9.1-35.2-18.7-43.1c-2.3-0.1-4.6-0.2-6.9-0.2
		c-6.4,4.7-10.9,13.9-13.7,26.6c-1.2,5.3-1.9,11.3-3,16.7c-1.7,8.1-3.1,16.8-5.6,23.7c-5,14.2-13.2,14.1-20,1.2
		c-4.5-8.4-7.4-18.9-9.6-30c-3.8-18.6-9.2-33.5-18.7-40.5C140.8,2.9,138.7,2.8,136.6,2.8z"/>
</g>
</svg>
