<?xml version="1.0" encoding="utf-8"?>
<!-- Generator: Adobe Illustrator 19.1.0, SVG Export Plug-In . SVG Version: 6.00 Build 0)  -->
<svg version="1.1" id="Layer_1" xmlns="http://www.w3.org/2000/svg" xmlns:xlink="http://www.w3.org/1999/xlink" x="0px" y="0px"
	 viewBox="0 0 173 174" style="enable-background:new 0 0 173 174;" xml:space="preserve">
<style type="text/css">
	.st0{fill:#C6B9B9;}
	.st1{fill:url(#SVGID_1_);}
	.st2{fill:url(#SVGID_2_);}
	.st3{fill:url(#SVGID_3_);}
	.st4{fill:url(#SVGID_4_);}
</style>
<circle class="st0" cx="87.3" cy="86.3" r="80.3"/>
<g>
	
		<radialGradient id="SVGID_1_" cx="852.2864" cy="22.921" r="29.6409" gradientTransform="matrix(0.9021 0.4314 -0.4314 0.9021 -636.371 -289.1162)" gradientUnits="userSpaceOnUse">
		<stop  offset="0" style="stop-color:#FFFFFF"/>
		<stop  offset="0.5655" style="stop-color:#FDFDFD"/>
		<stop  offset="0.7954" style="stop-color:#F6F6F7"/>
		<stop  offset="0.964" style="stop-color:#EAEBEB"/>
		<stop  offset="1" style="stop-color:#E6E7E8"/>
	</radialGradient>
	<circle class="st1" cx="122.6" cy="99.3" r="29.6"/>
	
		<radialGradient id="SVGID_2_" cx="779.2969" cy="23.6286" r="28.5428" gradientTransform="matrix(0.9021 0.4314 -0.4314 0.9021 -636.371 -289.1162)" gradientUnits="userSpaceOnUse">
		<stop  offset="0" style="stop-color:#FFFFFF"/>
		<stop  offset="0.5655" style="stop-color:#FDFDFD"/>
		<stop  offset="0.7954" style="stop-color:#F6F6F7"/>
		<stop  offset="0.964" style="stop-color:#EAEBEB"/>
		<stop  offset="1" style="stop-color:#E6E7E8"/>
	</radialGradient>
	<circle class="st2" cx="56.5" cy="68.4" r="28.5"/>
	
		<radialGradient id="SVGID_3_" cx="814.3639" cy="-17.2476" r="33.1915" gradientTransform="matrix(0.9021 0.4314 -0.4314 0.9021 -636.371 -289.1162)" gradientUnits="userSpaceOnUse">
		<stop  offset="0" style="stop-color:#DA4E1F"/>
		<stop  offset="0.1897" style="stop-color:#DE5021"/>
		<stop  offset="0.3916" style="stop-color:#EB5726"/>
		<stop  offset="0.4462" style="stop-color:#F05A28"/>
		<stop  offset="0.6004" style="stop-color:#F16526"/>
		<stop  offset="0.869" style="stop-color:#F48221"/>
		<stop  offset="1" style="stop-color:#F6921E"/>
	</radialGradient>
	<path class="st3" d="M132.4,51.8l-17.8-8.5l8.3-17.4c1.7-3.5,0.2-7.7-3.3-9.3l0,0c-3.5-1.7-7.7-0.2-9.3,3.3l-8.3,17.4l-16.9-8.1
		c-3.5-1.7-7.7-0.2-9.3,3.3s-0.2,7.7,3.3,9.3l16.9,8.1l-8.2,17.2c-1.7,3.5-0.2,7.7,3.3,9.3l0,0c3.5,1.7,7.7,0.2,9.3-3.3l8.2-17.2
		l17.8,8.5c3.5,1.7,7.7,0.2,9.3-3.3C137.3,57.6,135.8,53.4,132.4,51.8z"/>
	
		<radialGradient id="SVGID_4_" cx="816.3408" cy="65.0351" r="38.1024" gradientTransform="matrix(0.9021 0.4314 -0.4314 0.9021 -636.371 -289.1162)" gradientUnits="userSpaceOnUse">
		<stop  offset="0" style="stop-color:#DA4E1F"/>
		<stop  offset="0.1897" style="stop-color:#DE5021"/>
		<stop  offset="0.3916" style="stop-color:#EB5726"/>
		<stop  offset="0.4462" style="stop-color:#F05A28"/>
		<stop  offset="0.6004" style="stop-color:#F16526"/>
		<stop  offset="0.869" style="stop-color:#F48221"/>
		<stop  offset="1" style="stop-color:#F6921E"/>
	</radialGradient>
	<path class="st4" d="M102.6,127.6l-20.4-9.8l9.6-20c1.9-4,0.2-8.8-3.8-10.7l0,0c-4-1.9-8.8-0.2-10.7,3.8l-9.6,20l-19.4-9.3
		c-4-1.9-8.8-0.2-10.7,3.8s-0.2,8.8,3.8,10.7l19.4,9.3l-9.5,19.8c-1.9,4-0.2,8.8,3.8,10.7l0,0c4,1.9,8.8,0.2,10.7-3.8l9.5-19.8
		l20.4,9.8c4,1.9,8.8,0.2,10.7-3.8S106.6,129.5,102.6,127.6z"/>
</g>
</svg>
