<?xml version="1.0" encoding="utf-8"?>
<!-- Generator: Adobe Illustrator 19.0.0, SVG Export Plug-In . SVG Version: 6.00 Build 0)  -->
<svg version="1.1" xmlns="http://www.w3.org/2000/svg" xmlns:xlink="http://www.w3.org/1999/xlink" x="0px" y="0px"
	 viewBox="0 0 720 720" style="enable-background:new 0 0 720 720;" xml:space="preserve">
<style type="text/css">
	.st0{fill:url(#XMLID_103_);}
	.st1{fill:#271E2A;}
	.st2{fill:#29409A;}
	.st3{fill:#FFFFFF;}
	.st4{fill:#C55857;}
	.st5{fill:#AB1F23;}
	.st6{fill:#FAD466;}
	.st7{fill:none;}
	.st8{font-family:'MyriadPro-Regular';}
	.st9{font-size:36px;}
	.st10{font-size:48px;}
</style>
<g id="Layer_1">
	<radialGradient id="XMLID_103_" cx="360" cy="360" r="288" gradientUnits="userSpaceOnUse">
		<stop  offset="0.1882" style="stop-color:#00A9B1"/>
		<stop  offset="0.2722" style="stop-color:#10ABB3"/>
		<stop  offset="0.3953" style="stop-color:#43B1B8"/>
		<stop  offset="0.5423" style="stop-color:#6DBAC1"/>
		<stop  offset="0.7078" style="stop-color:#99CACF"/>
		<stop  offset="0.8865" style="stop-color:#CDE0E3"/>
		<stop  offset="1" style="stop-color:#F5F5F6"/>
		<stop  offset="1" style="stop-color:#FFFFFF"/>
	</radialGradient>
	<circle id="XMLID_1_" class="st0" cx="360" cy="360" r="288"/>
</g>
<g id="Layer_2">
	<circle id="XMLID_2_" class="st1" cx="360" cy="360" r="9"/>
</g>
<g id="Layer_3">
	<g id="XMLID_10_">
		<g id="XMLID_95_">
			<path id="XMLID_99_" class="st1" d="M357.8,361.3c26.3,42.1,52.6,84.1,78.9,126.2c3.7,5.9,7.4,11.9,11.1,17.8
				c1.7,2.7,6,0.2,4.3-2.5c-26.3-42.1-52.6-84.1-78.9-126.2c-3.7-5.9-7.4-11.9-11.1-17.8C360.5,356,356.1,358.5,357.8,361.3
				L357.8,361.3z"/>
		</g>
	</g>
	<g id="XMLID_3_">
		<path id="XMLID_36_" class="st2" d="M431.5,173.8"/>
		<g id="XMLID_31_">
			<path id="XMLID_35_" class="st1" d="M431.5,176.3c3.2,0,3.2-5,0-5C428.3,171.3,428.3,176.3,431.5,176.3L431.5,176.3z"/>
		</g>
	</g>
	<g id="XMLID_4_">
		<path id="XMLID_29_" class="st2" d="M544.9,434.3"/>
		<g id="XMLID_24_">
			<path id="XMLID_28_" class="st1" d="M544.9,436.8c3.2,0,3.2-5,0-5C541.7,431.8,541.7,436.8,544.9,436.8L544.9,436.8z"/>
		</g>
	</g>
	<g id="XMLID_5_">
		<path id="XMLID_22_" class="st2" d="M172.7,476.3"/>
		<g id="XMLID_17_">
			<path id="XMLID_21_" class="st1" d="M172.7,478.8c3.2,0,3.2-5,0-5C169.5,473.8,169.4,478.8,172.7,478.8L172.7,478.8z"/>
		</g>
	</g>
	<g id="XMLID_9_">
		<rect id="XMLID_93_" x="432" y="495" class="st3" width="234" height="207"/>
		<g id="XMLID_88_">
			<path id="XMLID_92_" class="st1" d="M666,699.5c-26.4,0-52.7,0-79.1,0c-42,0-84,0-126,0c-9.6,0-19.2,0-28.8,0
				c0.8,0.8,1.7,1.7,2.5,2.5c0-23.4,0-46.7,0-70.1c0-37.1,0-74.1,0-111.2c0-8.6,0-17.1,0-25.7c-0.8,0.8-1.7,1.7-2.5,2.5
				c26.4,0,52.7,0,79.1,0c42,0,84,0,126,0c9.6,0,19.2,0,28.8,0c-0.8-0.8-1.7-1.7-2.5-2.5c0,23.4,0,46.7,0,70.1
				c0,37.1,0,74.1,0,111.2c0,8.6,0,17.1,0,25.7c0,3.2,5,3.2,5,0c0-23.4,0-46.7,0-70.1c0-37.1,0-74.1,0-111.2c0-8.6,0-17.1,0-25.7
				c0-1.4-1.1-2.5-2.5-2.5c-26.4,0-52.7,0-79.1,0c-42,0-84,0-126,0c-9.6,0-19.2,0-28.8,0c-1.4,0-2.5,1.1-2.5,2.5
				c0,23.4,0,46.7,0,70.1c0,37.1,0,74.1,0,111.2c0,8.6,0,17.1,0,25.7c0,1.4,1.1,2.5,2.5,2.5c26.4,0,52.7,0,79.1,0c42,0,84,0,126,0
				c9.6,0,19.2,0,28.8,0C669.2,704.5,669.2,699.5,666,699.5z"/>
		</g>
	</g>
</g>
<g id="Layer_4">
	<circle id="XMLID_76_" class="st4" cx="529.6" cy="551.1" r="29.1"/>
	<g id="XMLID_75_">
		<g id="XMLID_80_">
			<path id="XMLID_84_" class="st5" d="M510.2,553.8c12.9,0,25.8,0,38.8,0c3.5,0,3.5-5.4,0-5.4c-12.9,0-25.8,0-38.8,0
				C506.8,548.4,506.8,553.8,510.2,553.8L510.2,553.8z"/>
		</g>
	</g>
	<g id="XMLID_69_">
		<g id="XMLID_72_">
			<path id="XMLID_78_" class="st5" d="M532.3,570.5c0-12.9,0-25.8,0-38.8c0-3.5-5.4-3.5-5.4,0c0,12.9,0,25.8,0,38.8
				C526.9,573.9,532.3,573.9,532.3,570.5L532.3,570.5z"/>
		</g>
	</g>
	<circle id="XMLID_68_" class="st6" cx="558.7" cy="551.1" r="29.1"/>
	<circle id="XMLID_62_" class="st6" cx="519.9" cy="589.8" r="29.1"/>
	<circle id="XMLID_56_" class="st4" cx="587.8" cy="570.5" r="29.1"/>
	<g id="XMLID_44_">
		<g id="XMLID_64_">
			<path id="XMLID_70_" class="st5" d="M568.4,573.2c12.9,0,25.8,0,38.8,0c3.5,0,3.5-5.4,0-5.4c-12.9,0-25.8,0-38.8,0
				C564.9,567.8,564.9,573.2,568.4,573.2L568.4,573.2z"/>
		</g>
	</g>
	<g id="XMLID_15_">
		<g id="XMLID_57_">
			<path id="XMLID_61_" class="st5" d="M590.5,589.8c0-12.9,0-25.8,0-38.8c0-3.5-5.4-3.5-5.4,0c0,12.9,0,25.8,0,38.8
				C585.1,593.3,590.5,593.3,590.5,589.8L590.5,589.8z"/>
		</g>
	</g>
	<circle id="XMLID_8_" class="st6" cx="568.4" cy="599.5" r="29.1"/>
	<circle id="XMLID_7_" class="st4" cx="539.3" cy="618.9" r="29.1"/>
	<g id="XMLID_6_">
		<g id="XMLID_50_">
			<path id="XMLID_54_" class="st5" d="M519.9,621.6c12.9,0,25.8,0,38.8,0c3.5,0,3.5-5.4,0-5.4c-12.9,0-25.8,0-38.8,0
				C516.5,616.2,516.4,621.6,519.9,621.6L519.9,621.6z"/>
		</g>
	</g>
	<g id="XMLID_11_">
		<g id="XMLID_48_">
			<path id="XMLID_79_" class="st5" d="M542,638.3c0-12.9,0-25.8,0-38.8c0-3.5-5.4-3.5-5.4,0c0,12.9,0,25.8,0,38.8
				C536.6,641.8,542,641.8,542,638.3L542,638.3z"/>
		</g>
	</g>
	<rect id="XMLID_100_" x="477" y="666" class="st7" width="153" height="36"/>
	<text id="XMLID_101_" transform="matrix(1 0 0 1 497.917 691.5596)" class="st8 st9">NUCLEI</text>
</g>
<g id="Layer_5">
	<g id="XMLID_16_">
		<g id="XMLID_147_">
			<path id="XMLID_151_" d="M70.4,14.6c0,12,0,24,0,36c0,3.2,5,3.2,5,0c0-12,0-24,0-36C75.4,11.4,70.4,11.4,70.4,14.6L70.4,14.6z"/>
		</g>
	</g>
	<g id="XMLID_23_">
		<g id="XMLID_138_">
			<path id="XMLID_142_" d="M646.4,14.6c0,12,0,24,0,36c0,3.2,5,3.2,5,0c0-12,0-24,0-36C651.4,11.4,646.4,11.4,646.4,14.6
				L646.4,14.6z"/>
		</g>
	</g>
	<g id="XMLID_30_">
		<g id="XMLID_136_">
			<path id="XMLID_145_" d="M72.9,35.1c19.1,0,38.2,0,57.4,0c45.9,0,91.8,0,137.7,0c55.5,0,111,0,166.6,0c47.8,0,95.7,0,143.5,0
				c15.8,0,31.6,0,47.4,0c7.4,0,15,0.5,22.4,0c0.3,0,0.7,0,1,0c3.2,0,3.2-5,0-5c-19.1,0-38.2,0-57.4,0c-45.9,0-91.8,0-137.7,0
				c-55.5,0-111,0-166.6,0c-47.8,0-95.7,0-143.5,0c-15.8,0-31.6,0-47.4,0c-7.4,0-15-0.5-22.4,0c-0.3,0-0.7,0-1,0
				C69.7,30.1,69.7,35.1,72.9,35.1L72.9,35.1z"/>
		</g>
	</g>
	<g id="XMLID_37_">
		<g id="XMLID_130_">
			<path id="XMLID_134_" d="M74.7,34.4c3-3,6-6,9-9c2.3-2.3-1.3-5.8-3.5-3.5c-3,3-6,6-9,9C68.8,33.1,72.4,36.7,74.7,34.4L74.7,34.4z
				"/>
		</g>
	</g>
	<g id="XMLID_45_">
		<g id="XMLID_124_">
			<path id="XMLID_128_" d="M71.1,34.4c3,3,6,6,9,9c2.3,2.3,5.8-1.3,3.5-3.5c-3-3-6-6-9-9C72.4,28.6,68.8,32.1,71.1,34.4L71.1,34.4z
				"/>
		</g>
	</g>
	<g id="XMLID_46_">
		<g id="XMLID_118_">
			<path id="XMLID_122_" d="M638.1,25.4c3,3,6,6,9,9c2.3,2.3,5.8-1.3,3.5-3.5c-3-3-6-6-9-9C639.4,19.6,635.8,23.1,638.1,25.4
				L638.1,25.4z"/>
		</g>
	</g>
	<g id="XMLID_85_">
		<g id="XMLID_116_">
			<path id="XMLID_146_" d="M647.1,30.9c-3,3-6,6-9,9c-2.3,2.3,1.3,5.8,3.5,3.5c3-3,6-6,9-9C652.9,32.1,649.4,28.6,647.1,30.9
				L647.1,30.9z"/>
		</g>
	</g>
	<polygon id="XMLID_86_" class="st3" points="432,63 288,63 288.9,23.6 432.9,23.6 	"/>
	<rect id="XMLID_94_" x="279.8" y="14.6" class="st7" width="162" height="54"/>
	<text transform="matrix(1 0 0 1 297.5503 48.7181)" class="st8 st10">10</text>
	<text transform="matrix(0.583 0 0 0.583 346.7964 32.7342)" class="st8 st10">-10</text>
	<text transform="matrix(1 0 0 1 384.0981 48.7181)" class="st8 st10">m</text>
</g>
</svg>