<?xml version="1.0" encoding="utf-8"?>
<!-- Generator: Adobe Illustrator 19.0.0, SVG Export Plug-In . SVG Version: 6.00 Build 0)  -->
<svg version="1.1" id="Layer_1" xmlns="http://www.w3.org/2000/svg" xmlns:xlink="http://www.w3.org/1999/xlink" x="0px" y="0px"
	 viewBox="0 0 720 720" style="enable-background:new 0 0 720 720;" xml:space="preserve">
<style type="text/css">
	.st0{fill:none;}
	.st1{font-family:'MyriadPro-Regular';}
	.st2{font-size:200px;}
	.st3{fill:#6A4471;}
	.st4{font-size:72px;}
	.st5{fill:#2AABA3;}
	.st6{fill:none;stroke:#000000;stroke-width:2;stroke-miterlimit:10;}
	.st7{font-size:24px;}
</style>
<rect id="XMLID_2_" x="369" y="288" class="st0" width="216" height="216"/>
<text id="XMLID_1_" transform="matrix(1 0 0 1 369 429.998)" class="st1 st2">X</text>
<rect id="XMLID_4_" x="306" y="270" class="st0" width="63" height="63"/>
<text id="XMLID_3_" transform="matrix(1 0 0 1 306 321.1191)" class="st3 st1 st4">A</text>
<rect id="XMLID_16_" x="306" y="396" class="st0" width="63" height="63"/>
<text id="XMLID_5_" transform="matrix(1 0 0 1 306 447.1191)" class="st5 st1 st4">Z</text>
<line id="XMLID_6_" class="st6" x1="315" y1="288" x2="243" y2="243"/>
<rect id="XMLID_8_" x="135" y="216" class="st0" width="324" height="72"/>
<text id="XMLID_7_" transform="matrix(1 0 0 1 135 233.04)"><tspan x="0" y="0" class="st1 st7">Atomic Mass</tspan><tspan x="0" y="28.8" class="st1 st7">(p + n)</tspan></text>
<rect id="XMLID_10_" x="135" y="459" class="st0" width="324" height="54"/>
<text id="XMLID_9_" transform="matrix(1 0 0 1 135 476.04)"><tspan x="0" y="0" class="st1 st7">Atomic #</tspan><tspan x="0" y="28.8" class="st1 st7">(p)</tspan></text>
<line id="XMLID_11_" class="st6" x1="229.7" y1="478.8" x2="308.3" y2="427.2"/>
<rect id="XMLID_13_" x="540" y="333" class="st0" width="171" height="72"/>
<text id="XMLID_12_" transform="matrix(1 0 0 1 540 350.04)"><tspan x="0" y="0" class="st1 st7">Elemental </tspan><tspan x="0" y="28.8" class="st1 st7">Symbol</tspan></text>
<line id="XMLID_14_" class="st6" x1="468" y1="360" x2="522" y2="360"/>
</svg>