<?xml version="1.0" encoding="utf-8"?>
<!-- Generator: Adobe Illustrator 19.0.0, SVG Export Plug-In . SVG Version: 6.00 Build 0)  -->
<svg version="1.1" xmlns="http://www.w3.org/2000/svg" xmlns:xlink="http://www.w3.org/1999/xlink" x="0px" y="0px"
	 viewBox="0 0 720 720" style="enable-background:new 0 0 720 720;" xml:space="preserve">
<style type="text/css">
	.st0{display:none;}
	.st1{display:inline;fill:none;}
	.st2{display:inline;}
	.st3{font-family:'MyriadPro-Regular';}
	.st4{font-size:200px;}
	.st5{display:inline;fill:#6A4471;}
	.st6{font-size:72px;}
	.st7{display:inline;fill:#2AABA3;}
	.st8{display:inline;fill:none;stroke:#000000;stroke-width:2;stroke-miterlimit:10;}
	.st9{font-size:24px;}
	.st10{fill:#6A4471;}
	.st11{fill:#2AABA3;}
	.st12{fill:none;stroke:#000000;stroke-width:2;stroke-miterlimit:10;}
</style>
<g id="Layer_1" class="st0">
	<rect id="XMLID_2_" x="369" y="288" class="st1" width="216" height="216"/>
	<text id="XMLID_1_" transform="matrix(1 0 0 1 369 429.998)" class="st2 st3 st4">X</text>
	<rect id="XMLID_4_" x="306" y="270" class="st1" width="63" height="63"/>
	<text id="XMLID_3_" transform="matrix(1 0 0 1 306 321.1191)" class="st5 st3 st6">A</text>
	<rect id="XMLID_16_" x="306" y="396" class="st1" width="63" height="63"/>
	<text id="XMLID_5_" transform="matrix(1 0 0 1 306 447.1191)" class="st7 st3 st6">Z</text>
	<line id="XMLID_6_" class="st8" x1="315" y1="288" x2="243" y2="243"/>
	<rect id="XMLID_8_" x="135" y="216" class="st1" width="324" height="72"/>
	<text id="XMLID_7_" transform="matrix(1 0 0 1 135 233.04)" class="st2"><tspan x="0" y="0" class="st3 st9">Atomic Mass</tspan><tspan x="0" y="28.8" class="st3 st9">(p + n)</tspan></text>
	<rect id="XMLID_10_" x="135" y="459" class="st1" width="324" height="54"/>
	<text id="XMLID_9_" transform="matrix(1 0 0 1 135 476.04)" class="st2"><tspan x="0" y="0" class="st3 st9">Atomic #</tspan><tspan x="0" y="28.8" class="st3 st9">(p)</tspan></text>
	<line id="XMLID_11_" class="st8" x1="229.7" y1="478.8" x2="308.3" y2="427.2"/>
	<rect id="XMLID_13_" x="540" y="333" class="st1" width="171" height="72"/>
	<text id="XMLID_12_" transform="matrix(1 0 0 1 540 350.04)" class="st2"><tspan x="0" y="0" class="st3 st9">Elemental </tspan><tspan x="0" y="28.8" class="st3 st9">Symbol</tspan></text>
	<line id="XMLID_14_" class="st8" x1="468" y1="360" x2="522" y2="360"/>
</g>
<g id="Layer_2">
	<g id="XMLID_136_">
		<path id="XMLID_137_" d="M458,430l-17.2-29.8c-7-11.4-11.4-18.8-15.6-26.6h-0.4c-3.8,7.8-7.6,15-14.6,26.8L394,430h-20l41.2-68.2
			l-39.6-66.6h20.2l17.8,31.6c5,8.8,8.8,15.6,12.4,22.8h0.6c3.8-8,7.2-14.2,12.2-22.8l18.4-31.6h20l-41,65.6l42,69.2H458z"/>
	</g>
	<g id="XMLID_132_">
		<path id="XMLID_133_" class="st10" d="M319.3,305.9l-5,15.3h-6.5l16.5-48.5h7.6l16.6,48.5h-6.7l-5.2-15.3H319.3z M335.2,301
			l-4.8-14c-1.1-3.2-1.8-6-2.5-8.9h-0.1c-0.7,2.9-1.5,5.8-2.4,8.8l-4.8,14H335.2z"/>
	</g>
	<g id="XMLID_129_">
		<path id="XMLID_130_" class="st11" d="M308.2,443.4l26.9-39.4v-0.2h-24.6v-5.3h32.8v3.8l-26.8,39.2v0.2h27.1v5.3h-35.4V443.4z"/>
	</g>
	<line id="XMLID_21_" class="st12" x1="315" y1="288" x2="243" y2="243"/>
	<g id="XMLID_93_">
		<path id="XMLID_94_" d="M139.4,228l-1.7,5.1h-2.2l5.5-16.2h2.5l5.5,16.2h-2.2l-1.7-5.1H139.4z M144.7,226.3l-1.6-4.7
			c-0.4-1.1-0.6-2-0.8-3h0c-0.2,1-0.5,1.9-0.8,2.9l-1.6,4.7H144.7z"/>
		<path id="XMLID_97_" d="M153.7,218.1v3.3h3v1.6h-3v6.3c0,1.4,0.4,2.3,1.6,2.3c0.6,0,1-0.1,1.2-0.1l0.1,1.6
			c-0.4,0.2-1.1,0.3-1.9,0.3c-1,0-1.8-0.3-2.3-0.9c-0.6-0.6-0.8-1.7-0.8-3V223h-1.8v-1.6h1.8v-2.8L153.7,218.1z"/>
		<path id="XMLID_99_" d="M169.5,227.1c0,4.3-3,6.2-5.8,6.2c-3.1,0-5.6-2.3-5.6-6c0-3.9,2.5-6.2,5.8-6.2
			C167.3,221.2,169.5,223.6,169.5,227.1z M160.3,227.3c0,2.5,1.5,4.5,3.5,4.5c2,0,3.5-1.9,3.5-4.5c0-2-1-4.5-3.5-4.5
			S160.3,225,160.3,227.3z"/>
		<path id="XMLID_102_" d="M172.2,224.6c0-1.2,0-2.2-0.1-3.1h1.8l0.1,1.9h0.1c0.6-1.1,1.7-2.1,3.6-2.1c1.6,0,2.8,1,3.3,2.3h0
			c0.4-0.6,0.8-1.2,1.3-1.5c0.7-0.5,1.5-0.8,2.6-0.8c1.5,0,3.8,1,3.8,5v6.8h-2.1v-6.6c0-2.2-0.8-3.6-2.5-3.6c-1.2,0-2.1,0.9-2.5,1.9
			c-0.1,0.3-0.2,0.7-0.2,1.1v7.2h-2.1v-7c0-1.8-0.8-3.2-2.4-3.2c-1.3,0-2.3,1.1-2.6,2.1c-0.1,0.3-0.2,0.7-0.2,1v7h-2.1V224.6z"/>
		<path id="XMLID_104_" d="M194.5,218.2c0,0.7-0.5,1.3-1.3,1.3c-0.7,0-1.3-0.6-1.3-1.3c0-0.7,0.6-1.3,1.3-1.3
			C194,216.8,194.5,217.4,194.5,218.2z M192.2,233v-11.6h2.1V233H192.2z"/>
		<path id="XMLID_107_" d="M206.1,232.6c-0.6,0.3-1.8,0.7-3.3,0.7c-3.5,0-5.8-2.4-5.8-5.9c0-3.6,2.4-6.2,6.2-6.2
			c1.2,0,2.4,0.3,2.9,0.6l-0.5,1.6c-0.5-0.3-1.3-0.6-2.4-0.6c-2.7,0-4.1,2-4.1,4.4c0,2.7,1.7,4.3,4,4.3c1.2,0,2-0.3,2.6-0.6
			L206.1,232.6z"/>
		<path id="XMLID_109_" d="M227.4,225.9c-0.1-2.3-0.3-5-0.2-7H227c-0.6,1.9-1.2,3.9-2,6.1l-2.9,7.8h-1.6l-2.6-7.7
			c-0.8-2.3-1.4-4.4-1.9-6.3h0c0,2-0.2,4.7-0.3,7.2l-0.4,6.9h-2l1.1-16.2h2.7l2.8,7.8c0.7,2,1.2,3.8,1.6,5.4h0.1
			c0.4-1.6,1-3.4,1.7-5.4l2.9-7.8h2.7l1,16.2h-2L227.4,225.9z"/>
		<path id="XMLID_111_" d="M239.5,233l-0.2-1.5h-0.1c-0.6,0.9-1.9,1.7-3.6,1.7c-2.4,0-3.6-1.7-3.6-3.3c0-2.8,2.5-4.3,7-4.3v-0.2
			c0-1-0.3-2.7-2.6-2.7c-1.1,0-2.2,0.3-3,0.9l-0.5-1.4c1-0.6,2.4-1,3.8-1c3.6,0,4.4,2.4,4.4,4.8v4.3c0,1,0,2,0.2,2.8H239.5z
			 M239.2,227.1c-2.3,0-4.9,0.4-4.9,2.6c0,1.4,0.9,2,2,2c1.5,0,2.5-1,2.8-1.9c0.1-0.2,0.1-0.5,0.1-0.7V227.1z"/>
		<path id="XMLID_114_" d="M244.4,230.9c0.6,0.4,1.7,0.8,2.8,0.8c1.5,0,2.3-0.8,2.3-1.7c0-1-0.6-1.6-2.2-2.1
			c-2.1-0.7-3.1-1.9-3.1-3.3c0-1.9,1.5-3.4,4-3.4c1.2,0,2.2,0.3,2.9,0.7l-0.5,1.5c-0.5-0.3-1.3-0.7-2.4-0.7c-1.2,0-1.9,0.7-1.9,1.6
			c0,1,0.7,1.4,2.2,2c2,0.8,3,1.8,3,3.5c0,2-1.6,3.5-4.3,3.5c-1.3,0-2.4-0.3-3.3-0.8L244.4,230.9z"/>
		<path id="XMLID_116_" d="M253.9,230.9c0.6,0.4,1.7,0.8,2.8,0.8c1.5,0,2.3-0.8,2.3-1.7c0-1-0.6-1.6-2.2-2.1
			c-2.1-0.7-3.1-1.9-3.1-3.3c0-1.9,1.5-3.4,4-3.4c1.2,0,2.2,0.3,2.9,0.7l-0.5,1.5c-0.5-0.3-1.3-0.7-2.4-0.7c-1.2,0-1.9,0.7-1.9,1.6
			c0,1,0.7,1.4,2.2,2c2,0.8,3,1.8,3,3.5c0,2-1.6,3.5-4.3,3.5c-1.3,0-2.4-0.3-3.3-0.8L253.9,230.9z"/>
		<path id="XMLID_118_" d="M141.3,245.2c-1.8,2.4-3,5.5-3,9.8c0,4.3,1.3,7.3,3,9.7h-1.7c-1.5-2-3.1-5.1-3.1-9.7
			c0-4.7,1.6-7.8,3.1-9.8H141.3z"/>
		<path id="XMLID_120_" d="M143.6,254c0-1.5,0-2.7-0.1-3.8h1.9l0.1,2h0c0.9-1.4,2.2-2.3,4.1-2.3c2.8,0,4.9,2.4,4.9,5.9
			c0,4.2-2.5,6.2-5.3,6.2c-1.5,0-2.9-0.7-3.6-1.8h0v6.3h-2.1V254z M145.7,257.1c0,0.3,0,0.6,0.1,0.9c0.4,1.5,1.7,2.5,3.2,2.5
			c2.2,0,3.5-1.8,3.5-4.5c0-2.3-1.2-4.3-3.5-4.3c-1.4,0-2.8,1-3.2,2.6c-0.1,0.3-0.1,0.6-0.1,0.9V257.1z"/>
		<path id="XMLID_123_" d="M168.5,249.1v5.6h5.4v1.4h-5.4v5.7h-1.5v-5.7h-5.4v-1.4h5.4v-5.6H168.5z"/>
		<path id="XMLID_125_" d="M181.7,253.4c0-1.2,0-2.2-0.1-3.1h1.9l0.1,1.9h0c0.6-1.1,1.9-2.2,3.8-2.2c1.6,0,4.1,1,4.1,4.9v6.9h-2.1
			v-6.7c0-1.9-0.7-3.4-2.7-3.4c-1.4,0-2.5,1-2.8,2.2c-0.1,0.3-0.1,0.6-0.1,1v7h-2.1V253.4z"/>
		<path id="XMLID_127_" d="M193.8,264.7c1.7-2.4,3-5.5,3-9.8c0-4.3-1.3-7.4-3-9.7h1.6c1.5,2,3.1,5,3.1,9.8c0,4.7-1.6,7.8-3.1,9.8
			H193.8z"/>
	</g>
	<g id="XMLID_67_">
		<path id="XMLID_68_" d="M139.4,471l-1.7,5.1h-2.2l5.5-16.2h2.5l5.5,16.2h-2.2l-1.7-5.1H139.4z M144.7,469.3l-1.6-4.7
			c-0.4-1.1-0.6-2-0.8-3h0c-0.2,1-0.5,1.9-0.8,2.9l-1.6,4.7H144.7z"/>
		<path id="XMLID_71_" d="M153.7,461.1v3.3h3v1.6h-3v6.3c0,1.4,0.4,2.3,1.6,2.3c0.6,0,1-0.1,1.2-0.1l0.1,1.6
			c-0.4,0.2-1.1,0.3-1.9,0.3c-1,0-1.8-0.3-2.3-0.9c-0.6-0.6-0.8-1.7-0.8-3V466h-1.8v-1.6h1.8v-2.8L153.7,461.1z"/>
		<path id="XMLID_73_" d="M169.5,470.1c0,4.3-3,6.2-5.8,6.2c-3.1,0-5.6-2.3-5.6-6c0-3.9,2.5-6.2,5.8-6.2
			C167.3,464.2,169.5,466.6,169.5,470.1z M160.3,470.3c0,2.5,1.5,4.5,3.5,4.5c2,0,3.5-1.9,3.5-4.5c0-2-1-4.5-3.5-4.5
			S160.3,468,160.3,470.3z"/>
		<path id="XMLID_76_" d="M172.2,467.6c0-1.2,0-2.2-0.1-3.1h1.8l0.1,1.9h0.1c0.6-1.1,1.7-2.1,3.6-2.1c1.6,0,2.8,1,3.3,2.3h0
			c0.4-0.6,0.8-1.2,1.3-1.5c0.7-0.5,1.5-0.8,2.6-0.8c1.5,0,3.8,1,3.8,5v6.8h-2.1v-6.6c0-2.2-0.8-3.6-2.5-3.6c-1.2,0-2.1,0.9-2.5,1.9
			c-0.1,0.3-0.2,0.7-0.2,1.1v7.2h-2.1v-7c0-1.8-0.8-3.2-2.4-3.2c-1.3,0-2.3,1.1-2.6,2.1c-0.1,0.3-0.2,0.7-0.2,1v7h-2.1V467.6z"/>
		<path id="XMLID_78_" d="M194.5,461.2c0,0.7-0.5,1.3-1.3,1.3c-0.7,0-1.3-0.6-1.3-1.3c0-0.7,0.6-1.3,1.3-1.3
			C194,459.8,194.5,460.4,194.5,461.2z M192.2,476v-11.6h2.1V476H192.2z"/>
		<path id="XMLID_81_" d="M206.1,475.6c-0.6,0.3-1.8,0.7-3.3,0.7c-3.5,0-5.8-2.4-5.8-5.9c0-3.6,2.4-6.2,6.2-6.2
			c1.2,0,2.4,0.3,2.9,0.6l-0.5,1.6c-0.5-0.3-1.3-0.6-2.4-0.6c-2.7,0-4.1,2-4.1,4.4c0,2.7,1.7,4.3,4,4.3c1.2,0,2-0.3,2.6-0.6
			L206.1,475.6z"/>
		<path id="XMLID_83_" d="M214.1,476l0.6-4.7h-2v-1.4h2.2l0.5-3.5h-2.1V465h2.3l0.6-4.6h1.4l-0.6,4.6h2.5l0.6-4.6h1.4L221,465h2v1.4
			h-2.2l-0.4,3.5h2.1v1.4h-2.3l-0.6,4.7h-1.4l0.6-4.7h-2.5l-0.6,4.7H214.1z M218.9,469.9l0.5-3.5h-2.5l-0.5,3.5H218.9z"/>
		<path id="XMLID_86_" d="M141.3,488.2c-1.8,2.4-3,5.5-3,9.8c0,4.3,1.3,7.3,3,9.7h-1.7c-1.5-2-3.1-5.1-3.1-9.7
			c0-4.7,1.6-7.8,3.1-9.8H141.3z"/>
		<path id="XMLID_88_" d="M143.6,497c0-1.5,0-2.7-0.1-3.8h1.9l0.1,2h0c0.9-1.4,2.2-2.3,4.1-2.3c2.8,0,4.9,2.4,4.9,5.9
			c0,4.2-2.5,6.2-5.3,6.2c-1.5,0-2.9-0.7-3.6-1.8h0v6.3h-2.1V497z M145.7,500.1c0,0.3,0,0.6,0.1,0.9c0.4,1.5,1.7,2.5,3.2,2.5
			c2.2,0,3.5-1.8,3.5-4.5c0-2.3-1.2-4.3-3.5-4.3c-1.4,0-2.8,1-3.2,2.6c-0.1,0.3-0.1,0.6-0.1,0.9V500.1z"/>
		<path id="XMLID_91_" d="M155.9,507.7c1.7-2.4,3-5.5,3-9.8c0-4.3-1.3-7.4-3-9.7h1.6c1.5,2,3.1,5,3.1,9.8c0,4.7-1.6,7.8-3.1,9.8
			H155.9z"/>
	</g>
	<line id="XMLID_18_" class="st12" x1="229.7" y1="478.8" x2="308.3" y2="427.2"/>
	<g id="XMLID_26_">
		<path id="XMLID_27_" d="M550.2,342.5h-6.3v5.8h7v1.8h-9.1v-16.2h8.7v1.8h-6.6v5.1h6.3V342.5z"/>
		<path id="XMLID_31_" d="M553.6,333h2.1v17h-2.1V333z"/>
		<path id="XMLID_33_" d="M560.4,344.6c0,2.9,1.9,4,4,4c1.5,0,2.4-0.3,3.2-0.6l0.4,1.5c-0.7,0.3-2,0.7-3.9,0.7
			c-3.6,0-5.7-2.4-5.7-5.9c0-3.5,2.1-6.3,5.4-6.3c3.8,0,4.8,3.3,4.8,5.5c0,0.4,0,0.8-0.1,1H560.4z M566.6,343.1
			c0-1.3-0.6-3.4-2.9-3.4c-2.1,0-3.1,2-3.2,3.4H566.6z"/>
		<path id="XMLID_37_" d="M571.2,341.6c0-1.2,0-2.2-0.1-3.1h1.8l0.1,1.9h0.1c0.6-1.1,1.7-2.1,3.6-2.1c1.6,0,2.8,1,3.3,2.3h0
			c0.4-0.6,0.8-1.2,1.3-1.5c0.7-0.5,1.5-0.8,2.6-0.8c1.5,0,3.8,1,3.8,5v6.8h-2.1v-6.6c0-2.2-0.8-3.6-2.5-3.6c-1.2,0-2.1,0.9-2.5,1.9
			c-0.1,0.3-0.2,0.7-0.2,1.1v7.2h-2.1v-7c0-1.8-0.8-3.2-2.4-3.2c-1.3,0-2.3,1.1-2.6,2.1c-0.1,0.3-0.2,0.7-0.2,1v7h-2.1V341.6z"/>
		<path id="XMLID_40_" d="M592.4,344.6c0,2.9,1.9,4,4,4c1.5,0,2.4-0.3,3.2-0.6l0.4,1.5c-0.7,0.3-2,0.7-3.9,0.7
			c-3.6,0-5.7-2.4-5.7-5.9c0-3.5,2.1-6.3,5.4-6.3c3.8,0,4.8,3.3,4.8,5.5c0,0.4,0,0.8-0.1,1H592.4z M598.6,343.1
			c0-1.3-0.6-3.4-2.9-3.4c-2.1,0-3.1,2-3.2,3.4H598.6z"/>
		<path id="XMLID_44_" d="M603.3,341.6c0-1.2,0-2.2-0.1-3.1h1.9l0.1,1.9h0c0.6-1.1,1.9-2.2,3.8-2.2c1.6,0,4.1,1,4.1,4.9v6.9h-2.1
			v-6.7c0-1.9-0.7-3.4-2.7-3.4c-1.4,0-2.5,1-2.8,2.2c-0.1,0.3-0.1,0.6-0.1,1v7h-2.1V341.6z"/>
		<path id="XMLID_46_" d="M619.1,335.1v3.3h3v1.6h-3v6.3c0,1.4,0.4,2.3,1.6,2.3c0.6,0,1-0.1,1.2-0.1l0.1,1.6
			c-0.4,0.2-1.1,0.3-1.9,0.3c-1,0-1.8-0.3-2.3-0.9c-0.6-0.6-0.8-1.7-0.8-3V340h-1.8v-1.6h1.8v-2.8L619.1,335.1z"/>
		<path id="XMLID_48_" d="M630.9,350l-0.2-1.5h-0.1c-0.6,0.9-1.9,1.7-3.6,1.7c-2.4,0-3.6-1.7-3.6-3.3c0-2.8,2.5-4.3,7-4.3v-0.2
			c0-1-0.3-2.7-2.6-2.7c-1.1,0-2.2,0.3-3,0.9l-0.5-1.4c1-0.6,2.4-1,3.8-1c3.6,0,4.4,2.4,4.4,4.8v4.3c0,1,0,2,0.2,2.8H630.9z
			 M630.6,344.1c-2.3,0-4.9,0.4-4.9,2.6c0,1.4,0.9,2,2,2c1.5,0,2.5-1,2.8-1.9c0.1-0.2,0.1-0.5,0.1-0.7V344.1z"/>
		<path id="XMLID_51_" d="M636,333h2.1v17H636V333z"/>
		<path id="XMLID_53_" d="M541.5,376.3c0.9,0.6,2.3,1.1,3.7,1.1c2.1,0,3.4-1.1,3.4-2.8c0-1.5-0.9-2.4-3-3.2
			c-2.6-0.9-4.3-2.3-4.3-4.6c0-2.5,2.1-4.4,5.2-4.4c1.7,0,2.9,0.4,3.6,0.8l-0.6,1.7c-0.5-0.3-1.6-0.8-3.1-0.8c-2.2,0-3,1.3-3,2.4
			c0,1.5,1,2.3,3.2,3.1c2.7,1.1,4.1,2.4,4.1,4.8c0,2.5-1.8,4.7-5.7,4.7c-1.6,0-3.3-0.5-4.1-1L541.5,376.3z"/>
		<path id="XMLID_55_" d="M554.2,367.2l2.5,6.9c0.3,0.8,0.6,1.7,0.7,2.4h0c0.2-0.7,0.5-1.6,0.7-2.4l2.3-6.8h2.2l-3.2,8.3
			c-1.5,4-2.5,6-4,7.3c-1,0.9-2.1,1.3-2.6,1.4l-0.5-1.8c0.5-0.2,1.2-0.5,1.8-1c0.6-0.5,1.3-1.3,1.8-2.4c0.1-0.2,0.2-0.4,0.2-0.5
			c0-0.1,0-0.3-0.1-0.6l-4.3-10.7H554.2z"/>
		<path id="XMLID_57_" d="M564.7,370.4c0-1.2,0-2.2-0.1-3.1h1.8l0.1,1.9h0.1c0.6-1.1,1.7-2.1,3.6-2.1c1.6,0,2.8,1,3.3,2.3h0
			c0.4-0.6,0.8-1.2,1.3-1.5c0.7-0.5,1.5-0.8,2.6-0.8c1.5,0,3.8,1,3.8,5v6.8h-2.1v-6.6c0-2.2-0.8-3.6-2.5-3.6c-1.2,0-2.1,0.9-2.5,1.9
			c-0.1,0.3-0.2,0.7-0.2,1.1v7.2H572v-7c0-1.8-0.8-3.2-2.4-3.2c-1.3,0-2.3,1.1-2.6,2.1c-0.1,0.3-0.2,0.7-0.2,1v7h-2.1V370.4z"/>
		<path id="XMLID_59_" d="M584.6,378.8c0-0.8,0.1-2,0.1-3v-14h2.1v7.3h0c0.7-1.3,2.1-2.1,4-2.1c2.9,0,4.9,2.4,4.9,5.9
			c0,4.2-2.6,6.2-5.2,6.2c-1.7,0-3-0.6-3.9-2.2h-0.1l-0.1,1.9H584.6z M586.8,374.2c0,0.3,0,0.5,0.1,0.8c0.4,1.5,1.6,2.5,3.2,2.5
			c2.2,0,3.5-1.8,3.5-4.5c0-2.3-1.2-4.3-3.5-4.3c-1.4,0-2.8,1-3.2,2.6c0,0.2-0.1,0.5-0.1,0.9V374.2z"/>
		<path id="XMLID_62_" d="M608.9,372.9c0,4.3-3,6.2-5.8,6.2c-3.1,0-5.6-2.3-5.6-6c0-3.9,2.5-6.2,5.8-6.2
			C606.6,367,608.9,369.4,608.9,372.9z M599.7,373.1c0,2.5,1.5,4.5,3.5,4.5c2,0,3.5-1.9,3.5-4.5c0-2-1-4.5-3.5-4.5
			C600.7,368.5,599.7,370.8,599.7,373.1z"/>
		<path id="XMLID_65_" d="M611.5,361.8h2.1v17h-2.1V361.8z"/>
	</g>
	<line id="XMLID_15_" class="st12" x1="468" y1="360" x2="522" y2="360"/>
</g>
</svg>
