<?xml version="1.0" encoding="utf-8"?>
<!-- Generator: Adobe Illustrator 19.1.0, SVG Export Plug-In . SVG Version: 6.00 Build 0)  -->
<svg version="1.1" id="Layer_1" xmlns="http://www.w3.org/2000/svg" xmlns:xlink="http://www.w3.org/1999/xlink" x="0px" y="0px"
	 viewBox="107 71 861 420" style="enable-background:new 107 71 861 420;" xml:space="preserve">
<style type="text/css">
	.st0{clip-path:url(#SVGID_2_);fill:#FFFFFF;}
	.st1{fill:#FFFFFF;}
	.st2{fill:none;stroke:#262626;stroke-width:0.5;stroke-linejoin:round;stroke-miterlimit:10;stroke-opacity:0.149;}
	.st3{fill:none;stroke:#262626;stroke-width:0.5;stroke-linecap:square;stroke-linejoin:round;stroke-miterlimit:10;}
	.st4{fill:#262626;}
	.st5{font-family:'Helvetica';}
	.st6{font-size:14px;}
	.st7{font-size:15px;}
	.st8{font-family:'Helvetica-Bold';}
	.st9{fill:none;stroke:#262626;stroke-width:0.5;stroke-linejoin:round;stroke-miterlimit:10;}
	.st10{fill:none;stroke:#0000FF;stroke-width:3;stroke-linejoin:round;stroke-miterlimit:10;}
	.st11{fill:#FFFF00;fill-opacity:0.502;}
	.st12{fill:none;stroke:#000000;stroke-width:0.5;stroke-linejoin:round;stroke-miterlimit:10;}
</style>
<g>
	<g>
		<g>
			<defs>
				<rect id="SVGID_1_" x="24" y="71" width="1007" height="420"/>
			</defs>
			<clipPath id="SVGID_2_">
				<use xlink:href="#SVGID_1_"  style="overflow:visible;"/>
			</clipPath>
			<rect x="24" y="71" class="st0" width="1007" height="420"/>
		</g>
	</g>
	<g>
		<rect x="24" y="71" class="st1" width="1007" height="420"/>
		<path class="st1" d="M155,445h780.5V102.5H155V445z"/>
	</g>
	<g>
		<line class="st2" x1="155" y1="445" x2="155" y2="102.5"/>
		<line class="st2" x1="233.1" y1="445" x2="233.1" y2="102.5"/>
		<line class="st2" x1="311.1" y1="445" x2="311.1" y2="102.5"/>
		<line class="st2" x1="389.1" y1="445" x2="389.1" y2="102.5"/>
		<line class="st2" x1="467.2" y1="445" x2="467.2" y2="102.5"/>
		<line class="st2" x1="545.2" y1="445" x2="545.2" y2="102.5"/>
		<line class="st2" x1="623.3" y1="445" x2="623.3" y2="102.5"/>
		<line class="st2" x1="701.3" y1="445" x2="701.3" y2="102.5"/>
		<line class="st2" x1="779.4" y1="445" x2="779.4" y2="102.5"/>
		<line class="st2" x1="857.5" y1="445" x2="857.5" y2="102.5"/>
		<line class="st2" x1="935.5" y1="445" x2="935.5" y2="102.5"/>
		<line class="st2" x1="935.5" y1="445" x2="155" y2="445"/>
		<line class="st2" x1="935.5" y1="410.8" x2="155" y2="410.8"/>
		<line class="st2" x1="935.5" y1="376.5" x2="155" y2="376.5"/>
		<line class="st2" x1="935.5" y1="342.2" x2="155" y2="342.2"/>
		<line class="st2" x1="935.5" y1="308" x2="155" y2="308"/>
		<line class="st2" x1="935.5" y1="273.8" x2="155" y2="273.8"/>
		<line class="st2" x1="935.5" y1="239.5" x2="155" y2="239.5"/>
		<line class="st2" x1="935.5" y1="205.2" x2="155" y2="205.2"/>
		<line class="st2" x1="935.5" y1="171" x2="155" y2="171"/>
		<line class="st2" x1="935.5" y1="136.8" x2="155" y2="136.8"/>
		<line class="st2" x1="935.5" y1="102.5" x2="155" y2="102.5"/>
		<line class="st3" x1="155" y1="445" x2="935.5" y2="445"/>
		<line class="st3" x1="155" y1="445" x2="155" y2="437.2"/>
		<line class="st3" x1="233.1" y1="445" x2="233.1" y2="437.2"/>
		<line class="st3" x1="311.1" y1="445" x2="311.1" y2="437.2"/>
		<line class="st3" x1="389.1" y1="445" x2="389.1" y2="437.2"/>
		<line class="st3" x1="467.2" y1="445" x2="467.2" y2="437.2"/>
		<line class="st3" x1="545.2" y1="445" x2="545.2" y2="437.2"/>
		<line class="st3" x1="623.3" y1="445" x2="623.3" y2="437.2"/>
		<line class="st3" x1="701.3" y1="445" x2="701.3" y2="437.2"/>
		<line class="st3" x1="779.4" y1="445" x2="779.4" y2="437.2"/>
		<line class="st3" x1="857.5" y1="445" x2="857.5" y2="437.2"/>
		<line class="st3" x1="935.5" y1="445" x2="935.5" y2="437.2"/>
		<line class="st3" x1="162.8" y1="445" x2="162.8" y2="441.1"/>
		<line class="st3" x1="170.6" y1="445" x2="170.6" y2="441.1"/>
		<line class="st3" x1="178.4" y1="445" x2="178.4" y2="441.1"/>
		<line class="st3" x1="186.2" y1="445" x2="186.2" y2="441.1"/>
		<line class="st3" x1="194" y1="445" x2="194" y2="441.1"/>
		<line class="st3" x1="201.8" y1="445" x2="201.8" y2="441.1"/>
		<line class="st3" x1="209.6" y1="445" x2="209.6" y2="441.1"/>
		<line class="st3" x1="217.4" y1="445" x2="217.4" y2="441.1"/>
		<line class="st3" x1="225.2" y1="445" x2="225.2" y2="441.1"/>
		<line class="st3" x1="240.9" y1="445" x2="240.9" y2="441.1"/>
		<line class="st3" x1="248.7" y1="445" x2="248.7" y2="441.1"/>
		<line class="st3" x1="256.5" y1="445" x2="256.5" y2="441.1"/>
		<line class="st3" x1="264.3" y1="445" x2="264.3" y2="441.1"/>
		<line class="st3" x1="272.1" y1="445" x2="272.1" y2="441.1"/>
		<line class="st3" x1="279.9" y1="445" x2="279.9" y2="441.1"/>
		<line class="st3" x1="287.7" y1="445" x2="287.7" y2="441.1"/>
		<line class="st3" x1="295.5" y1="445" x2="295.5" y2="441.1"/>
		<line class="st3" x1="303.3" y1="445" x2="303.3" y2="441.1"/>
		<line class="st3" x1="318.9" y1="445" x2="318.9" y2="441.1"/>
		<line class="st3" x1="326.7" y1="445" x2="326.7" y2="441.1"/>
		<line class="st3" x1="334.5" y1="445" x2="334.5" y2="441.1"/>
		<line class="st3" x1="342.3" y1="445" x2="342.3" y2="441.1"/>
		<line class="st3" x1="350.1" y1="445" x2="350.1" y2="441.1"/>
		<line class="st3" x1="357.9" y1="445" x2="357.9" y2="441.1"/>
		<line class="st3" x1="365.7" y1="445" x2="365.7" y2="441.1"/>
		<line class="st3" x1="373.5" y1="445" x2="373.5" y2="441.1"/>
		<line class="st3" x1="381.3" y1="445" x2="381.3" y2="441.1"/>
		<line class="st3" x1="397" y1="445" x2="397" y2="441.1"/>
		<line class="st3" x1="404.8" y1="445" x2="404.8" y2="441.1"/>
		<line class="st3" x1="412.6" y1="445" x2="412.6" y2="441.1"/>
		<line class="st3" x1="420.4" y1="445" x2="420.4" y2="441.1"/>
		<line class="st3" x1="428.2" y1="445" x2="428.2" y2="441.1"/>
		<line class="st3" x1="436" y1="445" x2="436" y2="441.1"/>
		<line class="st3" x1="443.8" y1="445" x2="443.8" y2="441.1"/>
		<line class="st3" x1="451.6" y1="445" x2="451.6" y2="441.1"/>
		<line class="st3" x1="459.4" y1="445" x2="459.4" y2="441.1"/>
		<line class="st3" x1="475" y1="445" x2="475" y2="441.1"/>
		<line class="st3" x1="482.8" y1="445" x2="482.8" y2="441.1"/>
		<line class="st3" x1="490.6" y1="445" x2="490.6" y2="441.1"/>
		<line class="st3" x1="498.4" y1="445" x2="498.4" y2="441.1"/>
		<line class="st3" x1="506.2" y1="445" x2="506.2" y2="441.1"/>
		<line class="st3" x1="514" y1="445" x2="514" y2="441.1"/>
		<line class="st3" x1="521.8" y1="445" x2="521.8" y2="441.1"/>
		<line class="st3" x1="529.6" y1="445" x2="529.6" y2="441.1"/>
		<line class="st3" x1="537.4" y1="445" x2="537.4" y2="441.1"/>
		<line class="st3" x1="553.1" y1="445" x2="553.1" y2="441.1"/>
		<line class="st3" x1="560.9" y1="445" x2="560.9" y2="441.1"/>
		<line class="st3" x1="568.7" y1="445" x2="568.7" y2="441.1"/>
		<line class="st3" x1="576.5" y1="445" x2="576.5" y2="441.1"/>
		<line class="st3" x1="584.3" y1="445" x2="584.3" y2="441.1"/>
		<line class="st3" x1="592.1" y1="445" x2="592.1" y2="441.1"/>
		<line class="st3" x1="599.9" y1="445" x2="599.9" y2="441.1"/>
		<line class="st3" x1="607.7" y1="445" x2="607.7" y2="441.1"/>
		<line class="st3" x1="615.5" y1="445" x2="615.5" y2="441.1"/>
		<line class="st3" x1="631.1" y1="445" x2="631.1" y2="441.1"/>
		<line class="st3" x1="638.9" y1="445" x2="638.9" y2="441.1"/>
		<line class="st3" x1="646.7" y1="445" x2="646.7" y2="441.1"/>
		<line class="st3" x1="654.5" y1="445" x2="654.5" y2="441.1"/>
		<line class="st3" x1="662.3" y1="445" x2="662.3" y2="441.1"/>
		<line class="st3" x1="670.1" y1="445" x2="670.1" y2="441.1"/>
		<line class="st3" x1="677.9" y1="445" x2="677.9" y2="441.1"/>
		<line class="st3" x1="685.7" y1="445" x2="685.7" y2="441.1"/>
		<line class="st3" x1="693.5" y1="445" x2="693.5" y2="441.1"/>
		<line class="st3" x1="709.2" y1="445" x2="709.2" y2="441.1"/>
		<line class="st3" x1="717" y1="445" x2="717" y2="441.1"/>
		<line class="st3" x1="724.8" y1="445" x2="724.8" y2="441.1"/>
		<line class="st3" x1="732.6" y1="445" x2="732.6" y2="441.1"/>
		<line class="st3" x1="740.4" y1="445" x2="740.4" y2="441.1"/>
		<line class="st3" x1="748.2" y1="445" x2="748.2" y2="441.1"/>
		<line class="st3" x1="756" y1="445" x2="756" y2="441.1"/>
		<line class="st3" x1="763.8" y1="445" x2="763.8" y2="441.1"/>
		<line class="st3" x1="771.6" y1="445" x2="771.6" y2="441.1"/>
		<line class="st3" x1="787.2" y1="445" x2="787.2" y2="441.1"/>
		<line class="st3" x1="795" y1="445" x2="795" y2="441.1"/>
		<line class="st3" x1="802.8" y1="445" x2="802.8" y2="441.1"/>
		<line class="st3" x1="810.6" y1="445" x2="810.6" y2="441.1"/>
		<line class="st3" x1="818.4" y1="445" x2="818.4" y2="441.1"/>
		<line class="st3" x1="826.2" y1="445" x2="826.2" y2="441.1"/>
		<line class="st3" x1="834" y1="445" x2="834" y2="441.1"/>
		<line class="st3" x1="841.8" y1="445" x2="841.8" y2="441.1"/>
		<line class="st3" x1="849.6" y1="445" x2="849.6" y2="441.1"/>
		<line class="st3" x1="865.3" y1="445" x2="865.3" y2="441.1"/>
		<line class="st3" x1="873.1" y1="445" x2="873.1" y2="441.1"/>
		<line class="st3" x1="880.9" y1="445" x2="880.9" y2="441.1"/>
		<line class="st3" x1="888.7" y1="445" x2="888.7" y2="441.1"/>
		<line class="st3" x1="896.5" y1="445" x2="896.5" y2="441.1"/>
		<line class="st3" x1="904.3" y1="445" x2="904.3" y2="441.1"/>
		<line class="st3" x1="912.1" y1="445" x2="912.1" y2="441.1"/>
		<line class="st3" x1="919.9" y1="445" x2="919.9" y2="441.1"/>
		<line class="st3" x1="927.7" y1="445" x2="927.7" y2="441.1"/>
	</g>
	<g transform="translate(131,378.8)">
		<text transform="matrix(1 0 0 1 20 82)" class="st4 st5 st6">0</text>
	</g>
	<g transform="translate(209.05,378.8)">
		<text transform="matrix(1 0 0 1 14 82)" class="st4 st5 st6">0.5</text>
	</g>
	<g transform="translate(287.1,378.8)">
		<text transform="matrix(1 0 0 1 20 82)" class="st4 st5 st6">1</text>
	</g>
	<g transform="translate(365.15,378.8)">
		<text transform="matrix(1 0 0 1 14 82)" class="st4 st5 st6">1.5</text>
	</g>
	<g transform="translate(443.2,378.8)">
		<text transform="matrix(1 0 0 1 20 82)" class="st4 st5 st6">2</text>
	</g>
	<g transform="translate(521.25,378.8)">
		<text transform="matrix(1 0 0 1 14 82)" class="st4 st5 st6">2.5</text>
	</g>
	<g transform="translate(599.3,378.8)">
		<text transform="matrix(1 0 0 1 20 82)" class="st4 st5 st6">3</text>
	</g>
	<g transform="translate(677.35,378.8)">
		<text transform="matrix(1 0 0 1 14 82)" class="st4 st5 st6">3.5</text>
	</g>
	<g transform="translate(755.4,378.8)">
		<text transform="matrix(1 0 0 1 20 82)" class="st4 st5 st6">4</text>
	</g>
	<g transform="translate(833.45,378.8)">
		<text transform="matrix(1 0 0 1 14 82)" class="st4 st5 st6">4.5</text>
	</g>
	<g transform="translate(911.5,378.8)">
		<text transform="matrix(1 0 0 1 20 82)" class="st4 st5 st6">5</text>
	</g>
	<g transform="translate(521.2504,394.3)">
		<text transform="matrix(1 0 0 1 7 83)" class="st4 st5 st7">Time</text>
	</g>
	<g>
		<line class="st3" x1="155" y1="445" x2="155" y2="102.5"/>
		<line class="st3" x1="155" y1="445" x2="162.8" y2="445"/>
		<line class="st3" x1="155" y1="410.8" x2="162.8" y2="410.8"/>
		<line class="st3" x1="155" y1="376.5" x2="162.8" y2="376.5"/>
		<line class="st3" x1="155" y1="342.2" x2="162.8" y2="342.2"/>
		<line class="st3" x1="155" y1="308" x2="162.8" y2="308"/>
		<line class="st3" x1="155" y1="273.8" x2="162.8" y2="273.8"/>
		<line class="st3" x1="155" y1="239.5" x2="162.8" y2="239.5"/>
		<line class="st3" x1="155" y1="205.2" x2="162.8" y2="205.2"/>
		<line class="st3" x1="155" y1="171" x2="162.8" y2="171"/>
		<line class="st3" x1="155" y1="136.8" x2="162.8" y2="136.8"/>
		<line class="st3" x1="155" y1="102.5" x2="162.8" y2="102.5"/>
	</g>
	<g transform="translate(126.2,374)">
		<text transform="matrix(1 0 0 1 16 74.5)" class="st4 st5 st6">0</text>
	</g>
	<g transform="translate(126.2,339.75)">
		<text transform="matrix(1 0 0 1 4 74.5)" class="st4 st5 st6">0.1</text>
	</g>
	<g transform="translate(126.2,305.5)">
		<text transform="matrix(1 0 0 1 4 74.5)" class="st4 st5 st6">0.2</text>
	</g>
	<g transform="translate(126.2,271.25)">
		<text transform="matrix(1 0 0 1 4 74.5)" class="st4 st5 st6">0.3</text>
	</g>
	<g transform="translate(126.2,237)">
		<text transform="matrix(1 0 0 1 4 74.5)" class="st4 st5 st6">0.4</text>
	</g>
	<g transform="translate(126.2,202.75)">
		<text transform="matrix(1 0 0 1 4 74.5)" class="st4 st5 st6">0.5</text>
	</g>
	<g transform="translate(126.2,168.5)">
		<text transform="matrix(1 0 0 1 4 74.5)" class="st4 st5 st6">0.6</text>
	</g>
	<g transform="translate(126.2,134.25)">
		<text transform="matrix(1 0 0 1 4 74.5)" class="st4 st5 st6">0.7</text>
	</g>
	<g transform="translate(126.2,100)">
		<text transform="matrix(1 0 0 1 4 74.5)" class="st4 st5 st6">0.8</text>
	</g>
	<g transform="translate(126.2,65.75)">
		<text transform="matrix(1 0 0 1 4 74.5)" class="st4 st5 st6">0.9</text>
	</g>
	<g transform="translate(126.2,31.5)">
		<text transform="matrix(1 0 0 1 16 74.5)" class="st4 st5 st6">1</text>
	</g>
	<g transform="translate(521.2505,29.575)">
		<text transform="matrix(1 0 0 1 -58 67)" class="st8 st7">EXPONENTIAL DECAY</text>
	</g>
	<g>
		<line class="st9" x1="155" y1="445" x2="935.5" y2="445"/>
		<path class="st10" d="M155,102.5l15.6,32.6l15.6,29.5l15.6,26.7l15.6,24.1l15.6,21.8l15.6,19.8l15.6,17.9l15.6,16.2l15.6,14.6
			l15.6,13.3l15.6,12l15.6,10.8l15.6,9.8l15.6,8.9l15.6,8l15.6,7.3l15.6,6.6l15.6,6l15.6,5.4l15.6,4.9l15.6,4.4l15.6,4l15.6,3.6
			l15.6,3.3l15.6,3l15.6,2.7l15.6,2.4l15.6,2.2l15.6,2l15.6,1.8l15.6,1.6l15.6,1.5l15.6,1.3l15.6,1.2l15.6,1.1l15.6,1l15.6,0.9
			l15.6,0.8l15.6,0.7l15.6,0.7l15.6,0.6l15.6,0.5l15.6,0.5l15.6,0.4l15.6,0.4l15.6,0.4l15.6,0.3l15.6,0.3l15.6,0.3"/>
		<path class="st10" d="M904.3,442.2l15.6,0.3l15.6,0.2"/>
	</g>
	<g>
		<path class="st11" d="M155,102.5l15.6,32.6l15.6,29.5l15.6,26.7l15.6,24.1l15.6,21.8l15.6,19.8l15.6,17.9l15.6,16.2l15.6,14.6
			l15.6,13.3l15.6,12l15.6,10.8l15.6,9.8l15.6,8.9l15.6,8l15.6,7.3l15.6,6.6l15.6,6l15.6,5.4l15.6,4.9l15.6,4.4l15.6,4l15.6,3.6
			l15.6,3.3l15.6,3l15.6,2.7l15.6,2.4l15.6,2.2l15.6,2l15.6,1.8l15.6,1.6l15.6,1.5l15.6,1.3l15.6,1.2l15.6,1.1l15.6,1l15.6,0.9
			l15.6,0.8l15.6,0.7l15.6,0.7l15.6,0.6l15.6,0.5l15.6,0.5l15.6,0.4l15.6,0.4l15.6,0.4l15.6,0.3l15.6,0.3l15.6,0.3l15.6,0.2v2.3
			h-15.6h-15.6h-15.6h-15.6h-15.6h-15.6h-15.6h-15.6H795h-15.6h-15.6h-15.6h-15.6H717h-15.6h-15.6h-15.6h-15.6h-15.6h-15.6h-15.6
			h-15.6h-15.6h-15.6h-15.6h-15.6H514h-15.6h-15.6h-15.6h-15.6H436h-15.6h-15.6h-15.6h-15.6h-15.6h-15.6h-15.6h-15.6h-15.6h-15.6
			h-15.6h-15.6h-15.6h-15.6h-15.6h-15.6h-15.6H155V102.5z"/>
	</g>
	<g>
		<path class="st12" d="M155,445V102.5l15.6,32.6l15.6,29.5l15.6,26.7l15.6,24.1l15.6,21.8l15.6,19.8l15.6,17.9l15.6,16.2l15.6,14.6
			l15.6,13.3l15.6,12l15.6,10.8l15.6,9.8l15.6,8.9l15.6,8l15.6,7.3l15.6,6.6l15.6,6l15.6,5.4l15.6,4.9l15.6,4.4l15.6,4l15.6,3.6
			l15.6,3.3l15.6,3l15.6,2.7l15.6,2.4l15.6,2.2l15.6,2l15.6,1.8l15.6,1.6l15.6,1.5l15.6,1.3l15.6,1.2l15.6,1.1l15.6,1l15.6,0.9
			l15.6,0.8l15.6,0.7l15.6,0.7l15.6,0.6l15.6,0.5l15.6,0.5l15.6,0.4l15.6,0.4l15.6,0.4l15.6,0.3l15.6,0.3"/>
		<path class="st12" d="M888.7,441.9l15.6,0.3l15.6,0.3l15.6,0.2v2.3h-15.6h-15.6h-15.6h-15.6h-15.6h-15.6h-15.6h-15.6H795h-15.6
			h-15.6h-15.6h-15.6H717h-15.6h-15.6h-15.6h-15.6h-15.6h-15.6h-15.6h-15.6h-15.6h-15.6h-15.6h-15.6H514h-15.6h-15.6h-15.6h-15.6
			H436h-15.6h-15.6h-15.6h-15.6h-15.6h-15.6h-15.6h-15.6h-15.6h-15.6h-15.6h-15.6h-15.6h-15.6h-15.6"/>
		<path class="st12" d="M217.4,445h-15.6h-15.6h-15.6H155"/>
	</g>
</g>
</svg>
