<?xml version="1.0" encoding="utf-8"?>
<!-- Generator: Adobe Illustrator 19.0.0, SVG Export Plug-In . SVG Version: 6.00 Build 0)  -->
<svg version="1.1" xmlns="http://www.w3.org/2000/svg" xmlns:xlink="http://www.w3.org/1999/xlink" x="0px" y="0px"
	 viewBox="0 0 720 720" style="enable-background:new 0 0 720 720;" xml:space="preserve">
<style type="text/css">
	.st0{display:none;}
	.st1{display:inline;fill:#50C5D7;}
	.st2{display:inline;fill:#06BCD4;}
	.st3{display:none;opacity:0.75;}
	.st4{display:inline;opacity:0.5;fill:#FFFFFF;}
	.st5{opacity:0.6;fill:#FFFFFF;}
	.st6{opacity:0.6;}
	.st7{fill:#2AABA3;}
	.st8{display:inline;opacity:0.6;fill:#FFFFFF;}
	.st9{display:inline;opacity:0.75;}
	.st10{fill:#FFFFFF;}
	.st11{display:inline;}
</style>
<g id="Layer_3" class="st0">
	<rect id="XMLID_6_" x="-9" y="-18" class="st1" width="738" height="747"/>
</g>
<g id="Layer_2" class="st0">
	<rect id="XMLID_5_" x="-9" y="-18" class="st2" width="738" height="747"/>
</g>
<g id="Layer_4" class="st3">
	<circle id="XMLID_7_" class="st4" cx="360" cy="245.6" r="101.6"/>
	<circle id="XMLID_8_" class="st4" cx="245.6" cy="360" r="101.6"/>
	<circle id="XMLID_9_" class="st4" cx="360" cy="474.4" r="101.6"/>
	<circle id="XMLID_10_" class="st4" cx="474.4" cy="360" r="101.6"/>
</g>
<g id="Layer_5">
	<circle id="XMLID_18_" class="st5" cx="360" cy="245.6" r="101.6"/>
	<circle id="XMLID_12_" class="st5" cx="360" cy="474.4" r="101.6"/>
	<g id="XMLID_17_" class="st6">
		<circle id="XMLID_57_" class="st7" cx="245.6" cy="360" r="101.6"/>
	</g>
	<g id="XMLID_11_" class="st6">
		<circle id="XMLID_53_" class="st7" cx="474.4" cy="360" r="101.6"/>
	</g>
</g>
<g id="Layer_6" class="st0">
	<circle id="XMLID_44_" class="st8" cx="360" cy="245.6" r="101.6"/>
	<circle id="XMLID_43_" class="st8" cx="360" cy="474.4" r="101.6"/>
	<g id="XMLID_25_" class="st9">
		<g id="XMLID_66_">
			<path id="XMLID_70_" class="st10" d="M339.8,360c-0.3,38.9-24.7,75-61.5,88.4c-37.5,13.6-79.8,2.1-105.4-28.5
				c-25.3-30.3-28.2-74.9-7.9-108.5c20.2-33.5,60.6-51.6,99.1-43.7C307.8,276.6,339.5,315.5,339.8,360c0.1,9.6,15.1,9.7,15,0
				c-0.3-45.9-29.3-87.2-72.5-102.8c-42.5-15.4-92.2-1.7-120.8,33.4c-28.9,35.4-33.2,86.3-9.4,125.7c23.6,39.2,69.9,59.4,114.7,50.9
				c50.8-9.7,87.6-55.8,88-107.1C354.9,350.3,339.9,350.3,339.8,360z"/>
		</g>
	</g>
	<g id="XMLID_19_" class="st9">
		<g id="XMLID_60_">
			<path id="XMLID_64_" class="st10" d="M568.5,360c-0.3,38.9-24.7,75-61.5,88.4c-37.5,13.6-79.8,2.1-105.4-28.5
				c-25.3-30.3-28.2-74.9-7.9-108.5c20.2-33.5,60.6-51.6,99.1-43.7C536.6,276.6,568.2,315.5,568.5,360c0.1,9.6,15.1,9.7,15,0
				c-0.3-45.9-29.3-87.2-72.5-102.8c-42.5-15.4-92.2-1.7-120.8,33.4c-28.9,35.4-33.2,86.3-9.4,125.7c23.6,39.2,69.9,59.4,114.7,50.9
				c50.8-9.7,87.6-55.8,88-107.1C583.6,350.3,568.6,350.3,568.5,360z"/>
		</g>
	</g>
</g>
<g id="Layer_1" class="st0">
	<g id="XMLID_1_" class="st11">
		<circle id="XMLID_42_" class="st10" cx="360" cy="252" r="108"/>
		<g id="XMLID_37_">
			<path id="XMLID_41_" d="M465.5,252c-0.3,44.1-28.2,84.6-70,99.4c-41.4,14.7-88.6,1.7-116.7-32c-28.4-34.1-32.1-84-9.1-121.9
				c22.9-37.8,68.3-57.7,111.6-48.8C430,158.7,465.2,202.5,465.5,252c0,3.2,5,3.2,5,0c-0.3-46-29.2-87.8-72.4-103.8
				c-43.4-16-93.8-2.3-123.2,33.4c-29.5,35.8-33.5,87.7-9.5,127.5c23.8,39.4,70.7,60.1,115.9,51.4c44.9-8.7,80.9-46,87.9-91.2
				c0.9-5.7,1.3-11.5,1.4-17.2C470.5,248.8,465.5,248.8,465.5,252z"/>
		</g>
	</g>
	<g id="XMLID_2_" class="st11">
		<circle id="XMLID_35_" class="st10" cx="360" cy="468" r="108"/>
		<g id="XMLID_30_">
			<path id="XMLID_34_" d="M465.5,468c-0.3,44.1-28.2,84.6-70,99.4c-41.4,14.7-88.6,1.7-116.7-32c-28.4-34.1-32.1-84-9.1-121.9
				c22.9-37.8,68.3-57.7,111.6-48.8C430,374.7,465.2,418.5,465.5,468c0,3.2,5,3.2,5,0c-0.3-46-29.2-87.8-72.4-103.8
				c-43.4-16-93.8-2.3-123.2,33.4c-29.5,35.8-33.5,87.7-9.5,127.5c23.8,39.4,70.7,60.1,115.9,51.4c44.9-8.7,80.9-46,87.9-91.2
				c0.9-5.7,1.3-11.5,1.4-17.2C470.5,464.8,465.5,464.8,465.5,468z"/>
		</g>
	</g>
	<g id="XMLID_3_" class="st11">
		<g id="XMLID_26_">
			<path id="XMLID_36_" class="st10" d="M357.5,360c-0.3,44.1-28.2,84.6-70,99.4c-41.4,14.7-88.6,1.7-116.7-32
				c-28.4-34.1-32.1-84-9.1-121.9c22.9-37.8,68.3-57.7,111.6-48.8C322,266.7,357.2,310.5,357.5,360c0,3.2,5,3.2,5,0
				c-0.3-46-29.2-87.8-72.4-103.8c-43.4-16-93.8-2.3-123.2,33.4c-29.5,35.8-33.5,87.7-9.5,127.5c23.8,39.4,70.7,60.1,115.9,51.4
				c44.9-8.7,80.9-46,87.9-91.2c0.9-5.7,1.3-11.5,1.4-17.2C362.5,356.8,357.5,356.8,357.5,360z"/>
		</g>
	</g>
	<g id="XMLID_4_" class="st11">
		<g id="XMLID_20_">
			<path id="XMLID_24_" class="st10" d="M573.5,360c-0.3,44.1-28.2,84.6-70,99.4c-41.4,14.7-88.6,1.7-116.7-32
				c-28.4-34.1-32.1-84-9.1-121.9c22.9-37.8,68.3-57.7,111.6-48.8C538,266.7,573.2,310.5,573.5,360c0,3.2,5,3.2,5,0
				c-0.3-46-29.2-87.8-72.4-103.8c-43.4-16-93.8-2.3-123.2,33.4c-29.5,35.8-33.5,87.7-9.5,127.5c23.8,39.4,70.7,60.1,115.9,51.4
				c44.9-8.7,80.9-46,87.9-91.2c0.9-5.7,1.3-11.5,1.4-17.2C578.5,356.8,573.5,356.8,573.5,360z"/>
		</g>
	</g>
</g>
</svg>
