<?xml version="1.0" encoding="utf-8"?>
<!-- Generator: Adobe Illustrator 19.1.0, SVG Export Plug-In . SVG Version: 6.00 Build 0)  -->
<svg version="1.1" id="Layer_1" xmlns="http://www.w3.org/2000/svg" xmlns:xlink="http://www.w3.org/1999/xlink" x="0px" y="0px"
	 viewBox="0 0 100 100" style="enable-background:new 0 0 100 100;" xml:space="preserve">
<style type="text/css">
	.st0{fill:#10BBBF;}
</style>
<path class="st0" d="M56.1,63.1h-12v-2.7H46c1.1,0,1.6-0.5,1.6-1.6V48.2c0-1.2-0.5-1.6-1.6-1.6h-1.9v-2.7h8.4v14.8
	c0,1.2,0.5,1.6,1.6,1.6h2L56.1,63.1L56.1,63.1z M49.5,35.4c1.6,0,2.9,1.3,2.9,2.9c0,1.6-1.4,2.9-2.9,2.9s-2.9-1.3-2.9-2.9
	C46.6,36.7,47.9,35.4,49.5,35.4z M50,27.2c-12.6,0-22.8,10.2-22.8,22.8S37.4,72.8,50,72.8S72.8,62.6,72.8,50S62.6,27.2,50,27.2z"/>
</svg>
