<?xml version="1.0" encoding="utf-8"?>
<!-- Generator: Adobe Illustrator 19.1.0, SVG Export Plug-In . SVG Version: 6.00 Build 0)  -->
<svg version="1.1" id="Layer_1" xmlns="http://www.w3.org/2000/svg" xmlns:xlink="http://www.w3.org/1999/xlink" x="0px" y="0px"
	 viewBox="-76 105 806 352" style="enable-background:new -76 105 806 352;" xml:space="preserve">
<style type="text/css">
	.st0{clip-path:url(#SVGID_2_);fill:#FFFFFF;}
	.st1{fill:#FFFFFF;}
	.st2{fill:none;stroke:#262626;stroke-width:0.5;stroke-linecap:square;stroke-linejoin:round;stroke-miterlimit:10;}
	.st3{fill:#262626;}
	.st4{font-family:'Helvetica';}
	.st5{font-size:10px;}
	.st6{fill:none;stroke:#262626;stroke-width:0.5;stroke-linejoin:round;stroke-miterlimit:10;}
	.st7{fill:#FFD700;}
	.st8{fill:none;stroke:#000000;stroke-width:0.5;stroke-linejoin:round;stroke-miterlimit:10;}
</style>
<g>
	<g>
		<g>
			<defs>
				<rect id="SVGID_1_" x="-76" y="105" width="806" height="352"/>
			</defs>
			<clipPath id="SVGID_2_">
				<use xlink:href="#SVGID_1_"  style="overflow:visible;"/>
			</clipPath>
			<rect x="-76" y="105" class="st0" width="806" height="352"/>
		</g>
	</g>
	<g>
		<path class="st1" d="M-46,105h746c16.6,0,30,13.4,30,30v292c0,16.6-13.4,30-30,30H-46c-16.6,0-30-13.4-30-30V135
			C-76,118.4-62.6,105-46,105z"/>
		<path class="st1" d="M29,418.5h624.5v-287H29V418.5z"/>
	</g>
	<g>
		<line class="st2" x1="29" y1="418.5" x2="653.5" y2="418.5"/>
		<line class="st2" x1="29" y1="131.5" x2="653.5" y2="131.5"/>
		<line class="st2" x1="29" y1="418.5" x2="29" y2="412.3"/>
		<line class="st2" x1="133.1" y1="418.5" x2="133.1" y2="412.3"/>
		<line class="st2" x1="237.2" y1="418.5" x2="237.2" y2="412.3"/>
		<line class="st2" x1="341.2" y1="418.5" x2="341.2" y2="412.3"/>
		<line class="st2" x1="445.3" y1="418.5" x2="445.3" y2="412.3"/>
		<line class="st2" x1="549.4" y1="418.5" x2="549.4" y2="412.3"/>
		<line class="st2" x1="653.5" y1="418.5" x2="653.5" y2="412.3"/>
		<line class="st2" x1="29" y1="131.5" x2="29" y2="137.7"/>
		<line class="st2" x1="133.1" y1="131.5" x2="133.1" y2="137.7"/>
		<line class="st2" x1="237.2" y1="131.5" x2="237.2" y2="137.7"/>
		<line class="st2" x1="341.2" y1="131.5" x2="341.2" y2="137.7"/>
		<line class="st2" x1="445.3" y1="131.5" x2="445.3" y2="137.7"/>
		<line class="st2" x1="549.4" y1="131.5" x2="549.4" y2="137.7"/>
		<line class="st2" x1="653.5" y1="131.5" x2="653.5" y2="137.7"/>
	</g>
	<g transform="translate(105,317.5)">
		<text transform="matrix(1 0 0 1 -79 113)" class="st3 st4 st5">0</text>
	</g>
	<g transform="translate(209.0833,317.5)">
		<text transform="matrix(1 0 0 1 -83 113)" class="st3 st4 st5">0.5</text>
	</g>
	<g transform="translate(313.1667,317.5)">
		<text transform="matrix(1 0 0 1 -79 113)" class="st3 st4 st5">1</text>
	</g>
	<g transform="translate(417.25,317.5)">
		<text transform="matrix(1 0 0 1 -83 113)" class="st3 st4 st5">1.5</text>
	</g>
	<g transform="translate(521.3333,317.5)">
		<text transform="matrix(1 0 0 1 -79 113)" class="st3 st4 st5">2</text>
	</g>
	<g transform="translate(625.4167,317.5)">
		<text transform="matrix(1 0 0 1 -83 113)" class="st3 st4 st5">2.5</text>
	</g>
	<g transform="translate(729.5,317.5)">
		<text transform="matrix(1 0 0 1 -79 113)" class="st3 st4 st5">3</text>
	</g>
	<g>
		<line class="st2" x1="29" y1="418.5" x2="29" y2="131.5"/>
		<line class="st2" x1="653.5" y1="418.5" x2="653.5" y2="131.5"/>
		<line class="st2" x1="29" y1="418.5" x2="35.2" y2="418.5"/>
		<line class="st2" x1="29" y1="389.8" x2="35.2" y2="389.8"/>
		<line class="st2" x1="29" y1="361.1" x2="35.2" y2="361.1"/>
		<line class="st2" x1="29" y1="332.4" x2="35.2" y2="332.4"/>
		<line class="st2" x1="29" y1="303.7" x2="35.2" y2="303.7"/>
		<line class="st2" x1="29" y1="275" x2="35.2" y2="275"/>
		<line class="st2" x1="29" y1="246.3" x2="35.2" y2="246.3"/>
		<line class="st2" x1="29" y1="217.6" x2="35.2" y2="217.6"/>
		<line class="st2" x1="29" y1="188.9" x2="35.2" y2="188.9"/>
		<line class="st2" x1="29" y1="160.2" x2="35.2" y2="160.2"/>
		<line class="st2" x1="29" y1="131.5" x2="35.2" y2="131.5"/>
		<line class="st2" x1="653.5" y1="418.5" x2="647.3" y2="418.5"/>
		<line class="st2" x1="653.5" y1="389.8" x2="647.3" y2="389.8"/>
		<line class="st2" x1="653.5" y1="361.1" x2="647.3" y2="361.1"/>
		<line class="st2" x1="653.5" y1="332.4" x2="647.3" y2="332.4"/>
		<line class="st2" x1="653.5" y1="303.7" x2="647.3" y2="303.7"/>
		<line class="st2" x1="653.5" y1="275" x2="647.3" y2="275"/>
		<line class="st2" x1="653.5" y1="246.3" x2="647.3" y2="246.3"/>
		<line class="st2" x1="653.5" y1="217.6" x2="647.3" y2="217.6"/>
		<line class="st2" x1="653.5" y1="188.9" x2="647.3" y2="188.9"/>
		<line class="st2" x1="653.5" y1="160.2" x2="647.3" y2="160.2"/>
		<line class="st2" x1="653.5" y1="131.5" x2="647.3" y2="131.5"/>
	</g>
	<g transform="translate(101,313.5)">
		<text transform="matrix(1 0 0 1 -82 107.5)" class="st3 st4 st5">0</text>
	</g>
	<g transform="translate(101,284.8)">
		<text transform="matrix(1 0 0 1 -90 107.5)" class="st3 st4 st5">0.1</text>
	</g>
	<g transform="translate(101,256.1)">
		<text transform="matrix(1 0 0 1 -90 107.5)" class="st3 st4 st5">0.2</text>
	</g>
	<g transform="translate(101,227.4)">
		<text transform="matrix(1 0 0 1 -90 107.5)" class="st3 st4 st5">0.3</text>
	</g>
	<g transform="translate(101,198.7)">
		<text transform="matrix(1 0 0 1 -90 107.5)" class="st3 st4 st5">0.4</text>
	</g>
	<g transform="translate(101,170)">
		<text transform="matrix(1 0 0 1 -90 107.5)" class="st3 st4 st5">0.5</text>
	</g>
	<g transform="translate(101,141.3)">
		<text transform="matrix(1 0 0 1 -90 107.5)" class="st3 st4 st5">0.6</text>
	</g>
	<g transform="translate(101,112.6)">
		<text transform="matrix(1 0 0 1 -90 107.5)" class="st3 st4 st5">0.7</text>
	</g>
	<g transform="translate(101,83.9)">
		<text transform="matrix(1 0 0 1 -90 107.5)" class="st3 st4 st5">0.8</text>
	</g>
	<g transform="translate(101,55.2)">
		<text transform="matrix(1 0 0 1 -90 107.5)" class="st3 st4 st5">0.9</text>
	</g>
	<g transform="translate(101,26.5)">
		<text transform="matrix(1 0 0 1 -82 107.5)" class="st3 st4 st5">1</text>
	</g>
	<g>
		<line class="st6" x1="29" y1="418.5" x2="653.5" y2="418.5"/>
	</g>
	<g>
		<path class="st7" d="M29,131.5l20.8,27.3l20.8,24.7l20.8,22.4l20.8,20.2l20.8,18.3l20.8,16.6l20.8,15l20.8,13.6l20.8,12.3
			l20.8,11.1l20.8,10l20.8,9.1l20.8,8.2l20.8,7.4l20.8,6.7l20.8,6.1l20.8,5.5l20.8,5l20.8,4.5l20.8,4.1l20.8,3.7l20.8,3.3l20.8,3
			l20.8,2.7l20.8,2.5l20.8,2.2l20.8,2l20.8,1.8l20.8,1.7l20.8,1.5v14.3h-20.8h-20.8H591h-20.8h-20.8h-20.8h-20.8H487h-20.8h-20.8
			h-20.8h-20.8h-20.8h-20.8h-20.8h-20.8h-20.8h-20.8H258h-20.8h-20.8h-20.8h-20.8h-20.8h-20.8h-20.8H91.4H70.6H49.8H29V131.5z"/>
	</g>
	<g>
		<path class="st8" d="M29,418.5v-287l20.8,27.3l20.8,24.7l20.8,22.4l20.8,20.2l20.8,18.3l20.8,16.6l20.8,15l20.8,13.6l20.8,12.3
			l20.8,11.1l20.8,10l20.8,9.1l20.8,8.2l20.8,7.4l20.8,6.7l20.8,6.1l20.8,5.5l20.8,5l20.8,4.5l20.8,4.1l20.8,3.7l20.8,3.3l20.8,3
			l20.8,2.7l20.8,2.5l20.8,2.2l20.8,2l20.8,1.8l20.8,1.7l20.8,1.5v14.3h-20.8h-20.8H591h-20.8h-20.8h-20.8h-20.8H487h-20.8h-20.8
			h-20.8h-20.8h-20.8h-20.8h-20.8h-20.8h-20.8"/>
		<path class="st8" d="M320.4,418.5h-20.8h-20.8H258h-20.8h-20.8h-20.8h-20.8h-20.8h-20.8h-20.8H91.4H70.6H49.8H29"/>
	</g>
</g>
</svg>
