<?xml version="1.0" encoding="utf-8"?>
<!-- Generator: Adobe Illustrator 19.1.0, SVG Export Plug-In . SVG Version: 6.00 Build 0)  -->
<svg xmlns="http://www.w3.org/2000/svg" viewBox="352.9 298 580 380" preserveAspectRatio="xMinYMin slice">
    <path fill="#333" d="M466.1 455.2c-9.9 9.9-23.1 15.8-39.6 15.8s-30.2-5.9-39.9-15.8c-15.1-15.1-16-29-16-65.6s.9-50.5 16-65.6c9.9-9.9 23.4-15.8 39.9-15.8s30 5.9 39.6 15.8c15.1 15.1 16.3 29 16.3 65.6s-1.2 50.8-16.3 65.6zm-12.3-120.3c-7.3-7.3-16.8-11.3-27.6-11.3-10.9 0-20.3 3.8-27.6 11.3-10.1 10.4-11.3 21.9-11.3 54.7s1.2 44.4 11.3 54.7c7.3 7.3 16.8 11.3 27.6 11.3 10.9 0 20.3-3.8 27.6-11.3 10.1-10.4 11.3-21.9 11.3-54.7s-1.1-44.3-11.3-54.7zm123.7 68.9H535v65.8h-17v-160h59.5c29 0 49.3 18.4 49.3 47 0 28.5-20.3 47.2-49.3 47.2zM576 325h-41v63.5h41c20.1 0 33.7-10.9 33.7-31.9.1-21-13.6-31.6-33.7-31.6zm74.4 144.6v-160h99.4V325h-82.1v56.4h70.1v15.3h-70.1v57.8h82.1v15.3h-99.4v-.2zm232.2 0l-85-128.1v128.1h-17v-160h16.3l85 127.9V309.6h17v160h-16.3zM441.3 601.1h-42.9v66.3h-17.2V506.2h59.9c29.3 0 49.8 18.6 49.8 47.4.2 28.6-20.3 47.5-49.6 47.5zm-1.4-79.6h-41.5v64.2h41.5c20.1 0 34-10.9 34-32.1s-14-32.1-34-32.1zm172.5 145.9v-73.6h-76.5v73.6h-17.2V506.2h17.2v72.2h76.5v-72.2h17.2v161.2h-17.2zm110.4-66.6v66.5h-17.2v-66.5l-48.1-94.6h18.6l38 77.2 37.5-77.2h18.6l-47.4 94.6zm122.5 68c-24.1 0-40.1-6.1-55-21.2l11.6-11.6c13.5 13.5 25.7 17.5 43.9 17.5 23.8 0 38.2-10.9 38.2-30 0-8.5-2.6-15.3-8-20.1-5-4.5-9.4-6.1-21-8l-18.9-2.8c-12.7-2.1-22.2-5.9-29.5-12.3-8.3-7.3-12.5-17.2-12.5-30.4 0-27.4 19.8-45.3 51.7-45.3 20.5 0 34.2 5.4 48.1 17.7l-11.1 11.1c-9.7-9.2-20.8-14.2-37.5-14.2-21.7 0-34.2 12-34.2 30.2 0 8 2.4 14.4 7.3 18.9 5 4.2 12.7 7.1 21 8.5l18.9 2.8c14.9 2.4 21.9 5 29.3 11.6 8.5 7.6 13.7 18.4 13.7 31.6-.3 28.5-22.2 46-56 46z" />
    <path fill="none" d="M378.3 327.3" />
</svg>