<?xml version="1.0" encoding="utf-8"?>
<!-- Generator: Adobe Illustrator 19.1.0, SVG Export Plug-In . SVG Version: 6.00 Build 0)  -->
<svg xmlns="http://www.w3.org/2000/svg" viewBox="346.7 720.5 580 100" preserveAspectRatio="xMinYMin slice">
    <path fill="#333" d="M399.3 787.9c-2.8 3.1-6.6 4.5-11.1 4.5s-8.3-1.7-11.1-4.5c-4.2-4.5-5-10.9-5-16.8s.7-12.3 5-16.8c2.8-3.1 6.6-4.5 11.1-4.5s8.3 1.7 11.1 4.5c4.2 4.5 5 10.9 5 16.8-.1 5.9-.8 12.5-5 16.8zm-2.8-30.5c-2.1-2.4-5-3.5-8.3-3.5s-6.1 1.2-8.3 3.5c-3.3 3.5-3.5 9-3.5 13.9s.2 10.4 3.5 13.9c2.1 2.4 5 3.5 8.3 3.5s6.1-1.2 8.3-3.5c3.3-3.5 3.5-9 3.5-13.9s-.2-10.6-3.5-13.9zm48.3 34.5v-25.7c0-8-3.8-12.5-11.1-12.5-7.1 0-11.3 4.5-11.3 12.5v25.7h-4.2v-41.5h4.2v5c3.1-3.5 6.8-5.4 11.8-5.4 4.5 0 8 1.2 10.6 4 2.8 2.8 4.2 6.6 4.2 11.6V792l-4.2-.1zm29.8 0c-6.6 0-9.7-4.2-9.7-10.9v-50.5h4.2V781c0 4.7 1.4 7.1 6.1 7.1h2.8v3.8h-3.4zM489 736v-5.4h5.2v5.4H489zm.4 55.9v-41.5h4.2v41.5h-4.2zm47.2 0v-25.7c0-8-3.8-12.5-11.1-12.5-7.1 0-11.3 4.5-11.3 12.5v25.7h-4v-41.5h4.2v5c3.1-3.5 6.8-5.4 11.8-5.4 4.5 0 8 1.2 10.6 4 2.8 2.8 4.2 6.6 4.2 11.6V792l-4.4-.1zm22.2-19.8c0 10.6 4.5 16.3 13 16.3 4.7 0 7.6-1.4 11.1-5l3.1 2.6c-4 4.2-7.8 6.4-14.4 6.4-11.1 0-17-7.3-17-21.2 0-13.5 5.9-21.2 16-21.2 9.9 0 16 7.6 16 20.3v1.9h-27.8zm22.2-11.4c-1.7-4.5-5.7-7.1-10.4-7.1s-8.5 2.6-10.4 7.1c-1.2 2.6-1.2 3.8-1.4 7.8h23.6c-.5-3.7-.5-5.2-1.4-7.8zm50.7 31.2c-6.6 0-9.7-4.2-9.7-10.9v-50.5h4.2V781c0 4.7 1.4 7.1 6.1 7.1h2.8v3.8h-3.4zm15.9-19.8c0 10.6 4.5 16.3 13 16.3 4.7 0 7.6-1.4 11.1-5l3.1 2.6c-4 4.2-7.8 6.4-14.4 6.4-11.1 0-17-7.3-17-21.2 0-13.5 5.9-21.2 16-21.2 9.9 0 16 7.6 16 20.3v1.9h-27.8zm22.1-11.4c-1.7-4.5-5.7-7.1-10.4-7.1s-8.5 2.6-10.4 7.1c-1.2 2.6-1.2 3.8-1.4 7.8h23.6c-.2-3.7-.4-5.2-1.4-7.8zm43.2 31.2v-4.2c-3.3 3.5-6.6 4.7-12.3 4.7-5.9 0-9.2-.9-11.8-3.8-1.9-1.9-2.8-5-2.8-8 0-7.6 5.2-12 13.9-12h13v-4.7c0-6.6-3.1-10.1-11.3-10.1-5.7 0-8.5 1.4-11.1 5.2l-3.1-2.8c3.3-5 7.6-6.4 14.2-6.4 10.6 0 15.6 5 15.6 13.7v28.3H713v.1zm0-19.8h-12.5c-6.8 0-10.1 2.8-10.1 8.3 0 5.4 3.1 8 10.4 8 3.5 0 7.1-.2 9.9-3.3 1.4-1.4 2.1-4.2 2.1-8v-5h.2zm35.4-18.2c-6.8 0-10.6 5.9-10.6 12.5v25.5h-4.2v-41.5h4.2v5.4c2.4-3.8 6.8-6.1 11.6-6.1 3.8 0 6.6.9 9.7 4l-3.1 3.3c-2.6-2.4-4.3-3.1-7.6-3.1zm45.8 38v-25.7c0-8-3.8-12.5-11.1-12.5-7.1 0-11.3 4.5-11.3 12.5v25.7h-4.2v-41.5h4.2v5c3.1-3.5 6.8-5.4 11.8-5.4 4.5 0 8 1.2 10.6 4 2.8 2.8 4.2 6.6 4.2 11.6V792l-4.2-.1zm19.8-55.9v-5.4h5.2v5.4h-5.2zm.5 55.9v-41.5h4.2v41.5h-4.2zm47.2 0v-25.7c0-8-3.8-12.5-11.1-12.5-7.1 0-11.3 4.5-11.3 12.5v25.7H835v-41.5h4.2v5c3.1-3.5 6.8-5.4 11.8-5.4 4.5 0 8 1.2 10.6 4 2.8 2.8 4.2 6.6 4.2 11.6V792l-4.2-.1zm32.6 20.5c-5.9 0-9-1.7-13.2-5.4l2.8-2.8c3.1 3.1 5.2 4.5 10.4 4.5 8.3 0 12-6.1 12-14.4V787c-3.5 4.7-7.3 5.9-11.8 5.9-4.2 0-7.8-1.4-9.7-3.5-4-4.2-5.2-11.1-5.2-17.7s1.2-13.5 5.2-17.7c2.1-2.1 5.4-3.5 9.7-3.5 4.5 0 8.3.9 11.8 5.9v-5.9h4.2v43.9c0 10.2-5.9 18-16.2 18zm.9-58.5c-9.7 0-11.3 8.7-11.3 17.5s1.4 17.5 11.3 17.5 11.3-8.7 11.3-17.5-1.6-17.5-11.3-17.5z" />
</svg>