<?xml version="1.0" encoding="utf-8"?>
<!-- Generator: Adobe Illustrator 19.1.0, SVG Export Plug-In . SVG Version: 6.00 Build 0)  -->
<svg xmlns="http://www.w3.org/2000/svg" viewBox="352.9 0 580 280" preserveAspectRatio="xMinYMin slice">
    <linearGradient id="a" x1="13.98" x2="248.192" y1="737.646" y2="737.646" gradientUnits="userSpaceOnUse" gradientTransform="matrix(2.36 0 0 -2.36 333.215 1887.906)">
        <stop offset="0" stop-color="#BE1E2D" />
        <stop offset=".112" stop-color="#F05A28" />
        <stop offset=".282" stop-color="#FAAF40" />
        <stop offset=".397" stop-color="#F9EC31" />
        <stop offset=".547" stop-color="#D6DE23" />
        <stop offset=".632" stop-color="#8BC53F" />
        <stop offset=".777" stop-color="#009345" />
        <stop offset=".847" stop-color="#1B75BB" />
        <stop offset="1" stop-color="#90278E" />
    </linearGradient>
    <path fill="url(#a)" d="M779 140.5c3.1-14.9 14.6-53.8-9.7-58.5-3.5-.7-7.3 0-10.6 1.4-13.7 6.1-18.2 20.1-23.8 32.6-2.6 5.7-5.9 11.6-10.1 16-3.3 3.5-9 .2-7.8-4.5 2.6-10.6 3.8-21.5-1.2-31.9-3.5-7.3-10.4-13-18.6-13.5-13-.7-21 10.9-25.5 22.2-5 12.5-8.3 26.7-22.2 32.6-6.4 2.8-14.2.7-17.9-5.2-7.8-12.5 10.4-25.7.7-39.4-5.4-7.8-15.6-10.4-24.8-7.6-12.3 3.8-20.5 14.9-27.1 26-8 13.2-15.3 27.8-30.9 33.7-7.8 3.1-16.8 1.9-23.1-3.5-15.8-14.4 3.3-41.3-12.7-55.5-30.7-26.9-73.6 42.7-86.6 62.1-14.6 21.7-30.7 42.2-43.9 64.9-6.4 10.9-14.6 23.6-16.5 36.3-3.1 21.9 19.6 19.1 29 6.6 6.1-8 10.4-17.9 15.3-26.7 12.7-21.9 25.3-43.2 37.5-64.7 6.6-11.3 13.5-23.1 26.2-28.3 5.7-2.4 11.8-2.8 17.5-.5 12.5 5 12.5 17.2 16.5 27.4 5.7 14.6 20.5 25.5 36.3 26.2 18.2.7 36.6-12 41.1-30.2 1.9-7.8 9.9-25.7 21.2-25.7 13.9 0 8.5 10.9 8.5 19.8-.2 16.3 16 20.8 30.4 17.7 19.4-4.5 21.9-23.1 36.6-32.1 5.7-3.3 13.2-2.4 17.2 2.8 9 11.8-11.3 28.8 9.2 40.6 7.1 4 15.8 4.5 23.1.9 7.8-3.8 13.5-10.6 17.9-18.2 2.1-3.8 7.8-3.3 9.2.7 3.5 8.7 10.9 16 19.8 19.1 29.3 10.6 54.3-14.2 72.4-33.7 24.3-26.4 44.1-58.1 59.2-90.4 3.5-7.6 12-20.1 7.3-28.3-7.3-13-41.5 24.1-47.7 30-26.2 25.7-48.4 55.2-75.3 80.2-4.1 4.3-18.5 10.4-16.1-1.4z" />
    <path fill="#F16437" d="M409.4 75.8c4 5.4 8.5 10.6 13.5 15.3 14.9 13.7 37.1 15.1 32.6-11.6-3.5-20.8-20.5-38.9-34.9-53.3-13.2-13-37.5-24.3-30.7 5.2 3.5 15.9 9.9 31.2 19.5 44.4z" />
    <path fill="none" d="M817.7 15.2" />
    <path fill="#466EAE" d="M893.2 184.2c-3.1-4-6.1-7.6-9.7-10.9-5.2-5-19.8-18.2-27.8-15.3-9.7 3.5-6.6 22.2-4.5 29.5 5.4 17.9 17.9 34 31.2 47.2 13.5 13.5 38.2 25 31.4-5.4-3.6-16.1-10.4-31.9-20.6-45.1z" />
</svg>