<svg id="Layer_1" data-name="Layer 1" xmlns="http://www.w3.org/2000/svg" viewBox="0 0 886.5 882.4"><title>photoelectriceffect</title><path d="M564.7,256.7L294.1,524.2l-13.5-28L562.5,253Zm3.5,10.4L320,582l-13.6-28L565.6,262.9Zm-4.9-15-281.9,243L267.9,467,561.3,248.4Z" style="fill:#fff;stroke:#ffc107;stroke-miterlimit:10;stroke-width:2px"/><path d="M379.4,496.8H614.2" style="fill:none;stroke:#fff;stroke-linecap:round;stroke-miterlimit:10;stroke-width:3px"/><path d="M624.8,496.8l-15,6.1,3.6-6.1-3.6-6.1Z" style="fill:#fff"/><path d="M309.7,564.2H614.2" style="fill:none;stroke:#fff;stroke-linecap:round;stroke-miterlimit:10;stroke-width:3px"/><path d="M624.8,564.2l-15,6.1,3.6-6.1-3.6-6.1Z" style="fill:#fff"/><path d="M566.1,261.5L306.6,553.1,293.1,525,563.5,257.3Zm-3.2-14.3L268.4,466.1,254.9,438,560.8,243.6Zm-1.2-4.2L255.4,437.4l-13.5-28L559.6,239.3Z" style="fill:#fff;stroke:#ffc107;stroke-miterlimit:10;stroke-width:2px"/><path d="M560.6,238.8L242.8,408.7l-13.6-28L558.6,235.1Z" style="fill:#fff;stroke:#ffc107;stroke-miterlimit:10;stroke-width:2px"/><path d="M174.86,370.59l44-19.57L329.33,599.48l-44,19.57Z" style="fill:#c93"/><circle cx="295.7" cy="566.1" r="2" style="fill:#fff"/><circle cx="301.7" cy="555.8" r="1" style="fill:#fff"/><circle cx="299.9" cy="586.7" r="1" style="fill:#fff"/><circle cx="309" cy="593.2" r="1.8" style="fill:#fff"/><circle cx="301.7" cy="603.4" r="2.6" style="fill:#fff"/><circle cx="305" cy="575.4" r="1.5" style="fill:#fff"/><circle cx="272.1" cy="520.8" r="2" style="fill:#fff"/><circle cx="278.2" cy="510.4" r="1" style="fill:#fff"/><circle cx="276.3" cy="541.3" r="1" style="fill:#fff"/><circle cx="285.4" cy="547.8" r="1.8" style="fill:#fff"/><circle cx="278.2" cy="558" r="2.6" style="fill:#fff"/><circle cx="281.4" cy="530" r="1.5" style="fill:#fff"/><circle cx="246.9" cy="476.3" r="2" style="fill:#fff"/><circle cx="253" cy="465.9" r="1" style="fill:#fff"/><circle cx="251.1" cy="496.8" r="1" style="fill:#fff"/><circle cx="260.2" cy="503.3" r="1.8" style="fill:#fff"/><circle cx="253" cy="513.5" r="2.6" style="fill:#fff"/><circle cx="256.2" cy="485.5" r="1.5" style="fill:#fff"/><circle cx="225.3" cy="429.9" r="2" style="fill:#fff"/><circle cx="231.3" cy="419.5" r="1" style="fill:#fff"/><circle cx="229.5" cy="450.5" r="1" style="fill:#fff"/><circle cx="238.6" cy="456.9" r="1.8" style="fill:#fff"/><circle cx="231.3" cy="467.1" r="2.6" style="fill:#fff"/><circle cx="234.6" cy="439.2" r="1.5" style="fill:#fff"/><circle cx="202.7" cy="384.1" r="2" style="fill:#fff"/><circle cx="208.7" cy="373.7" r="1" style="fill:#fff"/><circle cx="206.9" cy="404.6" r="1" style="fill:#fff"/><circle cx="216" cy="411.1" r="1.8" style="fill:#fff"/><circle cx="208.7" cy="421.3" r="2.6" style="fill:#fff"/><circle cx="212" cy="393.3" r="1.5" style="fill:#fff"/><path d="M596.9,341.1L710.1,184.6,518,164.9Z" style="fill:#fff;opacity:0.5;isolation:isolate"/><path d="M598,330.2L700.1,189.1,526.8,171.3Z" style="fill:#fff;opacity:0.6499999761581421;isolation:isolate"/><path d="M425.9,429.3l188.3-.4" style="fill:none;stroke:#fff;stroke-linecap:round;stroke-miterlimit:10;stroke-width:3px"/><path d="M624.8,428.8L609.9,435l3.5-6.1-3.6-6.1Z" style="fill:#fff"/><circle cx="658.8" cy="429" r="23.2" style="fill:#fff"/><path d="M646.7,429.4a11.76,11.76,0,0,1,.8-4.3,9.21,9.21,0,0,1,2-3.2,8.37,8.37,0,0,1,2.9-2,9.83,9.83,0,0,1,3.4-.7,7.82,7.82,0,0,1,3.5.7,6.92,6.92,0,0,1,2.5,1.9,7.08,7.08,0,0,1,1.5,3,15.18,15.18,0,0,1,.5,3.8,12.73,12.73,0,0,1-.2,2.2H651.1a5.89,5.89,0,0,0,1.9,4.1,5.21,5.21,0,0,0,3.9,1.4,6.05,6.05,0,0,0,2.4-.4,11.3,11.3,0,0,0,2.2-1.1l1.6,2.9a14.84,14.84,0,0,1-3.1,1.5,11.33,11.33,0,0,1-3.6.6,9.52,9.52,0,0,1-3.8-.7,9.19,9.19,0,0,1-3.1-2,9.88,9.88,0,0,1-2.1-3.2,16.3,16.3,0,0,1-.7-4.5h0Zm13.2-1.8a5.82,5.82,0,0,0-1-3.7,3.54,3.54,0,0,0-3-1.3,4.16,4.16,0,0,0-3.1,1.3,5.78,5.78,0,0,0-1.6,3.7h8.7Zm7.3-.2h9.5v3.4h-9.5v-3.4Z" style="fill:#ffc107"/><circle cx="658.8" cy="496.6" r="23.2" style="fill:#fff"/><path d="M646.7,497a11.76,11.76,0,0,1,.8-4.3,9.21,9.21,0,0,1,2-3.2,8.37,8.37,0,0,1,2.9-2,9.83,9.83,0,0,1,3.4-.7,7.82,7.82,0,0,1,3.5.7,6.92,6.92,0,0,1,2.5,1.9,7.08,7.08,0,0,1,1.5,3,15.18,15.18,0,0,1,.5,3.8,12.73,12.73,0,0,1-.2,2.2H651.1a5.89,5.89,0,0,0,1.9,4.1,5.21,5.21,0,0,0,3.9,1.4,6.05,6.05,0,0,0,2.4-.4,11.3,11.3,0,0,0,2.2-1.1l1.6,2.9a14.84,14.84,0,0,1-3.1,1.5,11.33,11.33,0,0,1-3.6.6,9.52,9.52,0,0,1-3.8-.7,9.19,9.19,0,0,1-3.1-2,9.88,9.88,0,0,1-2.1-3.2,16.3,16.3,0,0,1-.7-4.5h0Zm13.2-1.8a5.82,5.82,0,0,0-1-3.7,3.54,3.54,0,0,0-3-1.3,4.16,4.16,0,0,0-3.1,1.3,5.78,5.78,0,0,0-1.6,3.7h8.7Zm7.3-.2h9.5v3.4h-9.5V495Z" style="fill:#ffc107"/><circle cx="658.8" cy="564.2" r="23.2" style="fill:#fff"/><path d="M646.7,564.6a11.76,11.76,0,0,1,.8-4.3,9.21,9.21,0,0,1,2-3.2,8.37,8.37,0,0,1,2.9-2,9.83,9.83,0,0,1,3.4-.7,7.82,7.82,0,0,1,3.5.7,6.92,6.92,0,0,1,2.5,1.9,7.08,7.08,0,0,1,1.5,3,15.18,15.18,0,0,1,.5,3.8,12.73,12.73,0,0,1-.2,2.2H651.1a5.89,5.89,0,0,0,1.9,4.1,5.21,5.21,0,0,0,3.9,1.4,6.05,6.05,0,0,0,2.4-.4,11.3,11.3,0,0,0,2.2-1.1l1.6,2.9a14.85,14.85,0,0,1-3.1,1.5,11.32,11.32,0,0,1-3.6.6,9.52,9.52,0,0,1-3.8-.7,9.19,9.19,0,0,1-3.1-2,9.88,9.88,0,0,1-2.1-3.2,16.3,16.3,0,0,1-.7-4.5h0Zm13.2-1.8a5.82,5.82,0,0,0-1-3.7,3.54,3.54,0,0,0-3-1.3,4.16,4.16,0,0,0-3.1,1.3,5.78,5.78,0,0,0-1.6,3.7h8.7Zm7.3-.2h9.5V566h-9.5v-3.4Z" style="fill:#ffc107"/></svg>