<svg xmlns="http://www.w3.org/2000/svg" id="Layer_1" viewBox="0 0 886.5 882.4"><style>.st0{fill-rule:evenodd;clip-rule:evenodd;fill:#F44336;} .st1{opacity:0.5;clip-path:url(#SVGID_2_);} .st2{fill:none;stroke:#AF2C1E;stroke-width:3;stroke-linecap:round;stroke-miterlimit:10;} .st3{fill:#AF2C1E;} .st4{fill:none;stroke:#FFFFFF;stroke-width:6.9859;stroke-linecap:round;stroke-miterlimit:10;} .st5{fill:#FFFFFF;} .st6{opacity:0.5;clip-path:url(#SVGID_4_);} .st7{fill-rule:evenodd;clip-rule:evenodd;fill:#4CAF50;} .st8{fill-rule:evenodd;clip-rule:evenodd;fill:#E34026;stroke:#FFFFFF;stroke-width:8;stroke-miterlimit:10;} .st9{fill-rule:evenodd;clip-rule:evenodd;fill:#03A2A3;stroke:#FFFFFF;stroke-width:8;stroke-miterlimit:10;} .st10{fill-rule:evenodd;clip-rule:evenodd;fill:#D0D106;stroke:#FFFFFF;stroke-width:8;stroke-miterlimit:10;} .st11{fill-rule:evenodd;clip-rule:evenodd;fill:#D6015F;stroke:#FFFFFF;stroke-width:8;stroke-miterlimit:10;} .st12{fill-rule:evenodd;clip-rule:evenodd;fill:#60AD21;stroke:#FFFFFF;stroke-width:8;stroke-miterlimit:10;} .st13{fill-rule:evenodd;clip-rule:evenodd;fill:#009FC8;stroke:#FFFFFF;stroke-width:8;stroke-miterlimit:10;} .st14{fill-rule:evenodd;clip-rule:evenodd;fill:#FFFFFF;stroke:#CCCCCC;stroke-width:5;stroke-miterlimit:10;} .st15{fill-rule:evenodd;clip-rule:evenodd;fill:#FFFFFF;stroke:#009FC8;stroke-width:20;stroke-miterlimit:10;} .st16{fill-rule:evenodd;clip-rule:evenodd;fill:#009FC8;} .st17{opacity:0.3;fill:#FFFFFF;} .st18{opacity:0.2;fill:#FFFFFF;} .st19{fill-rule:evenodd;clip-rule:evenodd;fill:#093D8A;} .st20{fill-rule:evenodd;clip-rule:evenodd;fill:#03A2A3;} .st21{opacity:0.2;} .st22{fill:#03A2A3;} .st23{fill:none;} .st24{opacity:0.2;fill:#03A2A3;stroke:#FFFFFF;stroke-miterlimit:10;} .st25{opacity:0.5;fill:#FFFFFF;} .st26{fill-rule:evenodd;clip-rule:evenodd;fill:#D6015F;} .st27{fill:none;stroke:#FFFFFF;stroke-width:4;stroke-miterlimit:10;} .st28{fill:none;stroke:#FFFFFF;stroke-width:5;stroke-linecap:round;stroke-linejoin:round;stroke-miterlimit:10;} .st29{fill-rule:evenodd;clip-rule:evenodd;fill:#D0D106;} .st30{fill-rule:evenodd;clip-rule:evenodd;fill:none;} .st31{fill:#D0D106;} .st32{opacity:0.7;fill:#FFFFFF;} .st33{fill:none;stroke:#FFFFFF;stroke-width:4;stroke-linecap:round;stroke-miterlimit:10;} .st34{fill:none;stroke:#FFFFFF;stroke-width:4;stroke-linecap:round;stroke-miterlimit:10;stroke-dasharray:4.0574,8.1149;} .st35{fill:none;stroke:#FFFFFF;stroke-width:4;stroke-linecap:round;stroke-miterlimit:10;stroke-dasharray:3.9995,7.999;} .st36{opacity:0.5;} .st37{fill:#E1E15F;} .st38{fill-rule:evenodd;clip-rule:evenodd;fill:#E34026;} .st39{fill:none;stroke:#FFFFFF;stroke-width:4;stroke-linecap:round;stroke-miterlimit:10;stroke-dasharray:3.973,7.9461;} .st40{fill:none;stroke:#FFFFFF;stroke-width:4;stroke-linecap:round;stroke-miterlimit:10;stroke-dasharray:4.0208,8.0415;} .st41{fill-rule:evenodd;clip-rule:evenodd;fill:#60AD21;} .st42{opacity:0.5;fill:#60AD21;} .st43{opacity:0.2;fill:none;stroke:#FFFFFF;stroke-width:3;stroke-miterlimit:10;} .st44{fill:#60AD21;} .st45{fill-rule:evenodd;clip-rule:evenodd;fill:#CCCCCC;} .st46{fill-rule:evenodd;clip-rule:evenodd;fill:#FFFFFF;} .st47{fill:none;stroke:#FFFFFF;stroke-width:4;stroke-linecap:round;stroke-miterlimit:10;stroke-dasharray:4.0534,8.1069;} .st48{fill:none;stroke:#FFFFFF;stroke-width:4;stroke-linecap:round;stroke-miterlimit:10;stroke-dasharray:3.924,7.848;} .st49{fill:none;stroke:#FFFFFF;stroke-width:4;stroke-linecap:round;stroke-miterlimit:10;stroke-dasharray:3.9324,7.8649;} .st50{fill:none;stroke:#FFFFFF;stroke-width:4;stroke-linecap:round;stroke-miterlimit:10;stroke-dasharray:3.9814,7.9627;} .st51{opacity:0.3;fill:url(#SVGID_5_);} .st52{opacity:0.76;fill:#FFFFFF;} .st53{opacity:0.9;} .st54{clip-path:url(#SVGID_7_);} .st55{fill-rule:evenodd;clip-rule:evenodd;fill:#E91E63;} .st56{fill-rule:evenodd;clip-rule:evenodd;fill:#9C27B0;} .st57{fill-rule:evenodd;clip-rule:evenodd;fill:#673AB7;} .st58{fill-rule:evenodd;clip-rule:evenodd;fill:#3F51B5;} .st59{fill-rule:evenodd;clip-rule:evenodd;fill:#2196F3;} .st60{fill-rule:evenodd;clip-rule:evenodd;fill:#03A9F4;} .st61{fill-rule:evenodd;clip-rule:evenodd;fill:#00BCD4;} .st62{fill-rule:evenodd;clip-rule:evenodd;fill:#009688;} .st63{fill-rule:evenodd;clip-rule:evenodd;fill:#8BC34A;} .st64{fill-rule:evenodd;clip-rule:evenodd;fill:#CDDC39;} .st65{fill-rule:evenodd;clip-rule:evenodd;fill:#FFEB3B;} .st66{fill-rule:evenodd;clip-rule:evenodd;fill:#FFC107;} .st67{fill-rule:evenodd;clip-rule:evenodd;fill:#FF9800;} .st68{fill-rule:evenodd;clip-rule:evenodd;fill:#FF5722;} .st69{fill-rule:evenodd;clip-rule:evenodd;fill:#795548;} .st70{fill-rule:evenodd;clip-rule:evenodd;fill:#9E9E9E;} .st71{fill-rule:evenodd;clip-rule:evenodd;fill:#607D8B;} .st72{fill-rule:evenodd;clip-rule:evenodd;} .st73{opacity:0.5;clip-path:url(#SVGID_11_);} .st74{fill:none;stroke:#E34026;stroke-width:3;stroke-linecap:round;stroke-miterlimit:10;} .st75{fill:#E34026;} .st76{opacity:0.5;clip-path:url(#SVGID_13_);} .st77{fill:none;stroke:#F44336;stroke-width:4.1915;stroke-miterlimit:10;} .st78{fill:none;stroke:#F44336;stroke-width:1.3972;stroke-miterlimit:10;} .st79{fill:none;stroke:#FFFFFF;stroke-width:10;stroke-miterlimit:10;} .st80{fill:none;stroke:#FFFFFF;stroke-width:6;stroke-linejoin:round;stroke-miterlimit:10;} .st81{opacity:0.5;fill:#5A7A3B;} .st82{fill:#4CAF50;} .st83{fill:#FFFFFF;stroke:#000000;stroke-miterlimit:10;} .st84{fill:#FFFFFF;stroke:#FFC107;stroke-width:2;stroke-miterlimit:10;} .st85{fill:#FFC107;stroke:#FFC107;stroke-width:2;stroke-miterlimit:10;} .st86{fill:none;stroke:#FFFFFF;stroke-width:3;stroke-linecap:round;stroke-miterlimit:10;} .st87{fill:none;stroke:#D0D106;stroke-width:2;stroke-miterlimit:10;} .st88{fill:#FFC107;} .st89{fill:none;stroke:#FFFFFF;stroke-width:6.1;stroke-linecap:round;stroke-miterlimit:10;} .st90{fill:#D6015F;stroke:#E91E63;stroke-width:2;stroke-miterlimit:10;} .st91{fill:none;stroke:#E91E63;stroke-width:2;stroke-miterlimit:10;} .st92{fill:none;stroke:#FFFFFF;stroke-width:7.0187;stroke-miterlimit:10;} .st93{fill:none;stroke:#FFFFFF;stroke-width:5.4987;stroke-miterlimit:10;} .st94{fill:none;stroke:#FFFFFF;stroke-width:4.964;stroke-miterlimit:10;} .st95{fill:none;stroke:#FFFFFF;stroke-width:4.3989;stroke-miterlimit:10;} .st96{fill:none;stroke:#FFFFFF;stroke-width:4.1195;stroke-miterlimit:10;} .st97{fill-rule:evenodd;clip-rule:evenodd;fill:#AAAAAA;} .st98{fill:#3A3A3A;} .st99{fill-rule:evenodd;clip-rule:evenodd;fill:#EAA813;} .st100{fill-rule:evenodd;clip-rule:evenodd;fill:#3A3A3A;} .st101{fill-rule:evenodd;clip-rule:evenodd;fill:#515151;} .st102{fill:none;stroke:#929497;stroke-width:11.7929;stroke-miterlimit:10;} .st103{fill:#929497;} .st104{fill:none;stroke:#929497;stroke-width:10.8495;stroke-miterlimit:10;} .st105{fill:none;stroke:#929497;stroke-width:20;stroke-miterlimit:10;} .st106{fill:#224099;} .st107{fill:#F1F1F2;} .st108{fill:#FFFFFF;stroke:#929497;stroke-width:13.2081;stroke-miterlimit:10;} .st109{fill:none;stroke:#929497;stroke-width:36.5581;stroke-miterlimit:10;} .st110{opacity:0.2;fill:none;stroke:#FFFFFF;stroke-width:1.2623;stroke-miterlimit:10;} .st111{fill:none;stroke:#FFFFFF;stroke-width:8;stroke-miterlimit:10;} .st112{opacity:0.2;fill:none;stroke:#FFFFFF;stroke-width:3.4897;stroke-miterlimit:10;} .st113{fill:none;stroke:#FFFFFF;stroke-width:13;stroke-linejoin:round;stroke-miterlimit:10;} .st114{fill-rule:evenodd;clip-rule:evenodd;fill:none;stroke:#FFFFFF;stroke-width:13;stroke-linecap:round;stroke-linejoin:round;stroke-miterlimit:10;} .st115{fill-rule:evenodd;clip-rule:evenodd;fill:none;stroke:#FFFFFF;stroke-width:13;stroke-linejoin:round;stroke-miterlimit:10;} .st116{fill:#D6015F;} .st117{opacity:0.5;clip-path:url(#SVGID_15_);} .st118{opacity:0.5;clip-path:url(#SVGID_17_);} .st119{fill:#F44336;}</style><path d="M.2-.1h886.3v882.5H.2V-.1z" class="st0"/><path d="M174 767.9V783h-3.8v-60.1h3.3l.3 5.2h.3c2-1.6 4.2-3 6.6-4.3 2.4-1.3 4.9-1.9 7.5-1.9 5.5 0 9.7 1.9 12.4 5.7 2.8 3.8 4.1 9 4.1 15.4 0 3.5-.5 6.6-1.5 9.4-1 2.8-2.3 5.1-4 7-1.7 1.9-3.7 3.4-5.9 4.4-2.2 1-4.5 1.5-6.9 1.5-2 0-4-.4-6-1.3-2.1-.9-4.2-2.1-6.4-3.7v7.6zm0-11.3c2.4 2 4.7 3.3 6.7 4.1 2.1.8 3.9 1.2 5.5 1.2 2.1 0 4-.5 5.8-1.4 1.8-.9 3.3-2.2 4.6-3.9 1.3-1.7 2.3-3.7 3-6s1.1-4.9 1.1-7.7c0-2.5-.2-4.9-.7-7.1-.5-2.2-1.2-4.1-2.3-5.6-1-1.6-2.4-2.8-4.1-3.7-1.7-.9-3.7-1.3-6-1.3-2.1 0-4.2.6-6.4 1.8-2.2 1.2-4.6 2.9-7.1 5v24.6zm39.5-2.6c0-4.5 2.2-8 6.5-10.4 4.3-2.4 11.1-4.1 20.3-5.2.1-1.6 0-3.1-.3-4.7s-.7-3-1.5-4.2c-.7-1.2-1.7-2.2-3-3-1.3-.8-2.9-1.2-5-1.2-2.8 0-5.4.5-7.7 1.6s-4.1 2.2-5.5 3.2l-1.7-2.8c.7-.5 1.7-1.1 2.7-1.7 1.1-.6 2.2-1.2 3.5-1.7 1.3-.5 2.7-1 4.3-1.3 1.6-.4 3.2-.6 4.8-.6 2.5 0 4.5.4 6.2 1.2 1.7.8 3 2 4.1 3.4 1 1.4 1.8 3.1 2.2 5 .4 1.9.6 4 .6 6.2v26.5h-3.2l-.4-5.3h-.2c-2.1 1.7-4.4 3.1-6.9 4.4-2.4 1.3-5 1.9-7.8 1.9-1.7 0-3.2-.2-4.7-.7-1.4-.5-2.7-1.1-3.8-2.1-1.1-.9-2-2.1-2.6-3.5-.6-1.4-.9-3.1-.9-5zm4-.2c0 3 .9 5.1 2.6 6.4 1.7 1.3 3.8 1.9 6.1 1.9 2.4 0 4.7-.6 6.9-1.7s4.6-2.8 7.2-5v-14c-4.3.5-7.8 1.2-10.7 1.9-2.9.7-5.2 1.6-7 2.7-1.8 1-3.1 2.2-3.8 3.5-1 1.2-1.3 2.7-1.3 4.3zm43.3-40.9c-1 0-1.8-.3-2.5-.9-.7-.6-1-1.4-1-2.4 0-1.1.3-1.9 1-2.5.7-.6 1.5-.9 2.5-.9s1.8.3 2.5.9c.7.6 1 1.5 1 2.5s-.3 1.8-1 2.4c-.7.6-1.5.9-2.5.9zm-2 10h3.8v41.4h-3.8v-41.4zm19.8 0h3.3l.3 7.7h.3c1.4-2.6 3.1-4.7 5-6.3 2-1.6 4.2-2.4 6.7-2.4.8 0 1.5.1 2.2.2.6.1 1.3.3 2 .7l-.9 3.4c-.7-.3-1.3-.5-1.8-.6s-1.2-.1-2-.1c-1.8 0-3.8.8-5.8 2.4-2 1.6-3.9 4.3-5.5 8.2v28.2h-3.8v-41.4zm48.2 45V783H323v-60.1h3.3l.3 5.2h.3c2-1.6 4.2-3 6.6-4.3 2.4-1.3 4.9-1.9 7.5-1.9 5.5 0 9.7 1.9 12.4 5.7 2.8 3.8 4.1 9 4.1 15.4 0 3.5-.5 6.6-1.5 9.4-1 2.8-2.3 5.1-4 7-1.7 1.9-3.6 3.4-5.9 4.4-2.2 1-4.5 1.5-6.9 1.5-2 0-4-.4-6-1.3-2.1-.9-4.2-2.1-6.4-3.7v7.6zm0-11.3c2.4 2 4.7 3.3 6.7 4.1s3.9 1.2 5.5 1.2c2.1 0 4-.5 5.8-1.4 1.8-.9 3.3-2.2 4.6-3.9 1.3-1.7 2.3-3.7 3-6 .7-2.3 1.1-4.9 1.1-7.7 0-2.5-.2-4.9-.7-7.1-.5-2.2-1.2-4.1-2.3-5.6-1-1.6-2.4-2.8-4.1-3.7-1.7-.9-3.7-1.3-6-1.3-2.1 0-4.2.6-6.4 1.8-2.2 1.2-4.6 2.9-7.1 5v24.6zm43.1-33.7h3.3l.3 7.7h.3c1.4-2.6 3.1-4.7 5-6.3 2-1.6 4.2-2.4 6.7-2.4.8 0 1.5.1 2.2.2.6.1 1.3.3 2 .7l-.9 3.4c-.7-.3-1.3-.5-1.8-.6s-1.2-.1-2-.1c-1.8 0-3.8.8-5.8 2.4-2 1.6-3.9 4.3-5.5 8.2v28.2h-3.8v-41.4zm23 20.8c0-3.4.5-6.5 1.5-9.3 1-2.7 2.4-5 4.1-6.9 1.7-1.8 3.7-3.2 5.9-4.2s4.6-1.5 7.1-1.5 4.8.5 7.1 1.5 4.3 2.4 5.9 4.2c1.7 1.8 3 4.1 4.1 6.9 1 2.7 1.5 5.8 1.5 9.3 0 3.4-.5 6.5-1.5 9.2-1 2.7-2.4 4.9-4.1 6.8-1.7 1.8-3.7 3.2-5.9 4.2-2.3 1-4.6 1.5-7.1 1.5s-4.8-.5-7.1-1.5c-2.2-1-4.2-2.4-5.9-4.2-1.7-1.8-3-4.1-4.1-6.8-1-2.7-1.5-5.7-1.5-9.2zm4 0c0 2.7.4 5.2 1.1 7.4.7 2.2 1.8 4.2 3.1 5.8 1.3 1.6 2.8 2.9 4.6 3.7 1.8.9 3.7 1.3 5.8 1.3 2.1 0 4-.4 5.8-1.3 1.8-.9 3.4-2.1 4.7-3.7 1.3-1.6 2.3-3.5 3.1-5.8.7-2.2 1.1-4.7 1.1-7.4 0-2.8-.4-5.3-1.1-7.5-.7-2.2-1.8-4.2-3.1-5.8s-2.8-2.9-4.7-3.8c-1.8-.9-3.7-1.3-5.8-1.3-2.1 0-4 .4-5.8 1.3-1.8.9-3.3 2.2-4.6 3.8s-2.3 3.6-3.1 5.8c-.7 2.3-1.1 4.8-1.1 7.5zm42.2 0c0-3.3.5-6.3 1.5-9.1 1-2.7 2.3-5 4-6.9 1.7-1.9 3.6-3.3 5.9-4.4 2.2-1 4.6-1.5 7-1.5 2.5 0 4.7.4 6.6 1.3 1.9.9 3.8 2.1 5.9 3.7l-.2-7.6v-17.1h3.8v62h-3.3l-.3-5.3h-.3c-1.7 1.7-3.6 3.1-5.9 4.4-2.3 1.3-4.8 1.9-7.5 1.9-5.2 0-9.4-1.9-12.5-5.6-3.2-3.4-4.7-8.8-4.7-15.8zm4 0c0 2.8.3 5.3.9 7.5.6 2.2 1.5 4.2 2.6 5.7 1.1 1.6 2.6 2.8 4.3 3.7 1.7.9 3.6 1.3 5.8 1.3 2.3 0 4.5-.6 6.6-1.8 2.1-1.2 4.2-2.9 6.4-5v-24.6c-2.2-2-4.2-3.3-6.2-4.1-1.9-.8-3.9-1.2-5.9-1.2-2.1 0-4 .5-5.8 1.4-1.8.9-3.3 2.2-4.6 3.9s-2.3 3.6-3.1 5.9c-.6 2.3-1 4.7-1 7.3zm45.7-20.8h3.8v26c0 4.4.7 7.7 2.2 9.8 1.5 2.1 3.9 3.1 7.2 3.1 2.5 0 4.7-.7 6.7-2s4.2-3.5 6.6-6.4v-30.5h3.8v41.4h-3.2l-.4-6.9h-.2c-2 2.4-4.1 4.3-6.4 5.8-2.2 1.4-4.8 2.2-7.7 2.2-4.3 0-7.5-1.3-9.5-3.9-2-2.6-3-6.6-3-12v-26.6zm42.7 20.8c0-3.4.5-6.5 1.6-9.3 1-2.7 2.4-5 4.1-6.9 1.7-1.8 3.7-3.2 6-4.2s4.7-1.5 7.2-1.5c2.9 0 5.3.5 7.2 1.6 1.9 1 3.6 2.2 5 3.5l-2.2 2.7c-1.3-1.3-2.8-2.3-4.4-3.1-1.6-.8-3.4-1.2-5.4-1.2-2.1 0-4.1.4-5.9 1.3-1.8.9-3.4 2.2-4.7 3.8-1.4 1.6-2.4 3.6-3.2 5.8-.8 2.2-1.2 4.7-1.2 7.5 0 2.7.4 5.2 1.1 7.4s1.7 4.2 3 5.8c1.3 1.6 2.9 2.9 4.7 3.7 1.9.9 3.9 1.3 6.2 1.3 2.2 0 4.2-.5 6.1-1.4 1.9-.9 3.5-2 5-3.4l2 2.6c-1.8 1.6-3.8 2.9-5.9 4-2.2 1-4.6 1.6-7.2 1.6-2.7 0-5.2-.5-7.5-1.5s-4.3-2.4-5.9-4.2c-1.7-1.8-3-4.1-4-6.8-1.2-2.6-1.7-5.6-1.7-9.1zm43.1-17.5h-6.5v-2.9l6.5-.3.5-12h3.3v12h12v3.3h-12v27c0 1.3.1 2.5.3 3.6.2 1.1.6 2 1.1 2.8.5.8 1.2 1.4 2.1 1.8.9.4 2.1.6 3.5.6.8 0 1.7-.1 2.6-.4.9-.3 1.8-.6 2.5-.9l1 3.1c-1.2.5-2.4.8-3.6 1.1-1.2.3-2.2.4-3.1.4-2 0-3.7-.3-5-.9-1.3-.6-2.4-1.5-3.2-2.5-.8-1.1-1.4-2.4-1.7-4-.3-1.6-.5-3.2-.5-5.1v-26.7zm28-13.3c-1 0-1.8-.3-2.5-.9-.7-.6-1-1.4-1-2.4 0-1.1.3-1.9 1-2.5.7-.6 1.5-.9 2.5-.9s1.8.3 2.5.9c.7.6 1 1.5 1 2.5s-.3 1.8-1 2.4c-.7.6-1.6.9-2.5.9zm-2 10h3.8v41.4h-3.8v-41.4zm16.3 20.8c0-3.4.5-6.5 1.5-9.3 1-2.7 2.4-5 4.1-6.9 1.7-1.8 3.7-3.2 5.9-4.2s4.6-1.5 7.1-1.5 4.8.5 7.1 1.5 4.3 2.4 5.9 4.2c1.7 1.8 3 4.1 4.1 6.9 1 2.7 1.5 5.8 1.5 9.3 0 3.4-.5 6.5-1.5 9.2-1 2.7-2.4 4.9-4.1 6.8-1.7 1.8-3.7 3.2-5.9 4.2-2.3 1-4.6 1.5-7.1 1.5s-4.8-.5-7.1-1.5-4.2-2.4-5.9-4.2c-1.7-1.8-3-4.1-4.1-6.8-1-2.7-1.5-5.7-1.5-9.2zm3.9 0c0 2.7.4 5.2 1.1 7.4.7 2.2 1.8 4.2 3.1 5.8 1.3 1.6 2.8 2.9 4.6 3.7 1.8.9 3.7 1.3 5.8 1.3s4-.4 5.8-1.3c1.8-.9 3.4-2.1 4.7-3.7 1.3-1.6 2.3-3.5 3.1-5.8.7-2.2 1.1-4.7 1.1-7.4 0-2.8-.4-5.3-1.1-7.5-.7-2.2-1.8-4.2-3.1-5.8s-2.8-2.9-4.7-3.8c-1.8-.9-3.8-1.3-5.8-1.3s-4 .4-5.8 1.3c-1.8.9-3.3 2.2-4.6 3.8-1.3 1.6-2.3 3.6-3.1 5.8-.7 2.3-1.1 4.8-1.1 7.5zm45.6-20.8h3.3l.3 6.4h.3c2.1-2.1 4.3-3.9 6.5-5.3s4.8-2.1 7.7-2.1c4.3 0 7.5 1.3 9.5 3.9 2 2.6 3 6.6 3 12v26.5h-3.8v-26c0-4.4-.7-7.7-2.2-9.8s-3.9-3.1-7.3-3.1c-2.5 0-4.7.6-6.7 1.9-2 1.3-4.3 3.2-6.8 5.8v31.2h-3.8v-41.4z" class="st5"/><path d="M5.2-.3L0 3.9M28.6.5L.2 24.8M52.8-.7L.4 46.7M74.2-.6L.4 69.7M93.7.3L0 94.3M113.7-.3L.5 119.4M131.6.3L.3 146.6M149.5 0L3 172" class="st2"/><path d="M-3.9 180.1l5.1-15.3 2.3 6.6 7 1.3z" class="st3"/><path d="M166.3 0L17.6 184.2" class="st2"/><path d="M11 192.4l4.6-15.4 2.5 6.5 7 1.1z" class="st3"/><path d="M182.5 0L32.6 195.9" class="st2"/><path d="M26.1 204.3l4.3-15.5 2.7 6.5 6.9.9z" class="st3"/><path d="M198 0L47.8 207.3" class="st2"/><path d="M41.6 215.8l3.8-15.6 2.9 6.4 7 .7z" class="st3"/><path d="M213.2-.4L63.3 218.2" class="st2"/><path d="M57.4 226.9l3.4-15.7 3 6.4 7 .5z" class="st3"/><path d="M227.5-.3l-148.3 229" class="st2"/><path d="M73.4 237.6l3-15.8 3.2 6.3 7 .3z" class="st3"/><path d="M241.5-.3L95.2 238.9" class="st2"/><path d="M89.7 247.9l2.6-15.9 3.4 6.2 7 .2z" class="st3"/><path d="M255-.3L111.6 248.6" class="st2"/><path d="M106.3 257.8l2.2-16 3.5 6.1h7z" class="st3"/><path d="M267.9-.1L128.2 257.8" class="st2"/><path d="M123.1 267.2l1.8-16.1 3.7 6 7-.2z" class="st3"/><path d="M280.6.1L145 266.7" class="st2"/><path d="M140.2 276.1l1.3-16 3.9 5.9 7-.4z" class="st3"/><path d="M293.1-.2l-131 275.3" class="st2"/><path d="M157.5 284.6l.9-16.1 4 5.9 7-.6z" class="st3"/><path d="M305.2-.2L179.3 283" class="st2"/><path d="M175 292.7l.5-16.1 4.1 5.7 7.1-.8z" class="st3"/><path d="M317-.2L196.8 290.5" class="st2"/><path d="M192.7 300.3l.1-16.1 4.3 5.6 7-1z" class="st3"/><path d="M328.6-.1L214.4 297.5" class="st2"/><path d="M210.7 307.4l-.4-16.1 4.4 5.5 7-1.1z" class="st3"/><path d="M339.9 0L232.3 304.1" class="st2"/><path d="M228.7 314.1L228 298l4.5 5.4 7-1.3z" class="st3"/><path d="M351 0L250.3 310.2" class="st2"/><path d="M247 320.3l-1.2-16.1 4.7 5.3 6.9-1.5z" class="st3"/><path d="M361.9 0l-93.5 315.9" class="st2"/><path d="M265.4 326l-1.6-16 4.9 5.1 6.8-1.7z" class="st3"/><path d="M372.7-.1l-86 321.1" class="st2"/><path d="M284 331.2l-2-16 4.9 5 6.8-1.8z" class="st3"/><path d="M383.3 0l-78.2 325.7" class="st2"/><path d="M302.7 336l-2.5-15.9 5.1 4.8 6.8-2z" class="st3"/><path d="M393.8-.1l-70.1 330" class="st2"/><path d="M321.5 340.2l-2.9-15.8 5.2 4.7 6.7-2.2z" class="st3"/><path d="M404.2-.2l-61.9 333.8" class="st2"/><path d="M340.4 344l-3.3-15.8 5.4 4.6 6.6-2.4z" class="st3"/><path d="M414.5-.2l-53.5 337" class="st2"/><path d="M359.4 347.3l-3.7-15.7 5.5 4.4 6.5-2.5z" class="st3"/><path d="M424.7-.2l-44.8 339.8" class="st2"/><path d="M378.5 350.1l-4.1-15.6 5.6 4.3 6.5-2.7z" class="st3"/><path d="M434.8-.2l-36.1 342" class="st2"/><path d="M397.6 352.3l-4.5-15.5 5.7 4.2 6.4-2.9z" class="st3"/><path d="M444.9 0l-27.2 343.5" class="st2"/><path d="M416.8 354.1l-4.9-15.4 5.8 4.1 6.4-3.1z" class="st3"/><path d="M454.9-.2l-18.3 345" class="st2"/><path d="M436.1 355.4l-5.3-15.3 5.9 3.9 6.2-3.2z" class="st3"/><path d="M464.9-.2l-9.3 345.8" class="st2"/><path d="M455.3 356.1l-5.7-15 6 3.7 6.2-3.4z" class="st3"/><circle cx="700.7" cy="583.5" r="23.2" class="st5"/><path d="M688.5 583.9c0-1.6.3-3 .8-4.3.5-1.3 1.2-2.4 2-3.2s1.8-1.6 2.9-2c1.1-.5 2.2-.7 3.4-.7 1.3 0 2.5.2 3.5.7 1 .5 1.9 1.1 2.5 1.9.7.8 1.2 1.8 1.5 3 .3 1.2.5 2.4.5 3.8 0 .9-.1 1.6-.2 2.2H693c.2 1.8.8 3.2 1.9 4.1 1 1 2.3 1.4 4 1.4.9 0 1.7-.1 2.4-.4.7-.3 1.5-.6 2.2-1.1l1.6 2.9c-.9.6-2 1.1-3.1 1.5-1.1.4-2.4.6-3.6.6-1.4 0-2.6-.2-3.8-.7-1.2-.5-2.2-1.1-3.1-2-.9-.9-1.6-2-2.1-3.2-.6-1.4-.9-2.9-.9-4.5zm13.2-1.8c0-1.6-.3-2.8-1-3.7-.7-.9-1.7-1.3-3-1.3-1.2 0-2.2.4-3.1 1.3-.9.8-1.4 2.1-1.6 3.7h8.7zm7.4-.2h9.5v3.4h-9.5v-3.4z" class="st119"/><path d="M474.9-.1l-.3 345.9" class="st2"/><path d="M474.6 356.4l-6.1-14.9 6.1 3.5 6.1-3.5z" class="st3"/><path d="M484.9-.1l8.7 345.7" class="st2"/><path d="M493.9 356.2l-6.5-14.8 6.2 3.4 6-3.7z" class="st3"/><path d="M494.9 0l17.7 344.9" class="st2"/><path d="M513.1 355.4l-6.8-14.6 6.3 3.3 5.9-3.9z" class="st3"/><path d="M504.9 0l26.7 343.6" class="st2"/><path d="M532.4 354.2l-7.2-14.4 6.3 3 5.8-4z" class="st3"/><path d="M515 0l35.5 341.9" class="st2"/><path d="M551.6 352.4l-7.6-14.2 6.4 2.9 5.7-4.1z" class="st3"/><path d="M525.1.2l44.3 339.5" class="st2"/><path d="M570.7 350.2l-7.9-14 6.5 2.7 5.6-4.3z" class="st3"/><path d="M535.3-.1L588.2 337" class="st2"/><path d="M589.8 347.5l-8.3-13.8 6.6 2.5 5.4-4.4z" class="st3"/><path d="M545.5-.1l61.4 333.9" class="st2"/><path d="M608.8 344.2l-8.7-13.6 6.7 2.4 5.3-4.6z" class="st3"/><path d="M555.9-.1l69.7 330.2" class="st2"/><path d="M627.8 340.5l-9.1-13.4 6.7 2.2 5.2-4.7z" class="st3"/><path d="M566.4 0l77.7 326" class="st2"/><path d="M646.6 336.3l-9.4-13.1 6.7 2 5.1-4.9z" class="st3"/><path d="M577-.2l85.5 321.5" class="st2"/><path d="M665.3 331.5l-9.8-12.8 6.8 1.8 5-4.9z" class="st3"/><path d="M587.8-.1l93 316.3" class="st2"/><path d="M683.8 326.3l-10-12.6 6.8 1.7 4.9-5.1z" class="st3"/><path d="M598.6-.3L699 310.6" class="st2"/><path d="M702.3 320.7l-10.4-12.4 6.9 1.5 4.7-5.2z" class="st3"/><path d="M609.8-.1L717 304.5" class="st2"/><path d="M720.5 314.5l-10.7-12.1 6.9 1.4 4.6-5.4z" class="st3"/><path d="M621.2.1L734.9 298" class="st2"/><path d="M738.6 307.9l-11-11.8 7 1.1 4.4-5.5z" class="st3"/><path d="M632.7-.1L752.5 291" class="st2"/><path d="M756.5 300.7l-11.3-11.4 7 .9 4.3-5.6z" class="st3"/><path d="M644.4-.3L770 283.5" class="st2"/><path d="M774.3 293.2L762.7 282l7 .8 4.1-5.7z" class="st3"/><path d="M656.6 0l130.7 275.6" class="st2"/><path d="M791.8 285.1l-11.9-10.8 7 .6 4-5.9z" class="st3"/><path d="M669 .1l135.3 267.1" class="st2"/><path d="M809.1 276.6l-12.2-10.5 7.1.4 3.8-5.9z" class="st3"/><path d="M681.8.2l139.4 258.2" class="st2"/><path d="M826.2 267.7l-12.4-10.2 7 .2 3.7-6z" class="st3"/><path d="M694.6-.2l143.2 249.3" class="st2"/><path d="M843.1 258.3l-12.8-9.9 7.1.1 3.5-6.1z" class="st3"/><path d="M708.2 0l145.9 239.5" class="st2"/><path d="M859.7 248.5l-13-9.6 7-.1 3.4-6.2z" class="st3"/><path d="M722-.2l148.2 229.6" class="st2"/><path d="M876 238.3l-13.2-9.3 7-.3 3.2-6.3z" class="st3"/><path d="M736.5-.1l149.6 219" class="st2"/><path d="M892 227.6l-13.4-8.9 7-.5 3.1-6.4z" class="st3"/><path d="M751.5.1l134.9 186.8M766.8-.2l119.8 157.1M783-.1l103.3 128.4M799.8 0l86.6 102M817.2-.2L886.3 77M835.9.1l50.5 53.5M855.1-.1l31.3 31.6M875.5 0l11 10.5" class="st2"/><path d="M141.6 497.1c35.6 0 35.6-90.2 71.3-90.2 35.6 0 35.6 90.2 71.3 90.2 35.6 0 35.6-90.2 71.3-90.2 35.6 0 35.6 90.2 71.3 90.2 35.6 0 35.6-90.2 71.3-90.2" class="st4"/><path d="M522.5 406.9l-34.7 14.2 8.2-14.2-8.2-14.2z" class="st5"/><path d="M537.4 392l119.7-119.7" class="st4"/><path d="M674.5 254.8L660 289.5l-4.2-15.9-15.9-4.2z" class="st5"/><path d="M536 420.6l119.7 119.7" class="st4"/><path d="M673.1 557.8l-34.6-14.6 15.9-4.2 4.2-15.8z" class="st5"/><circle cx="700.6" cy="228.6" r="23.2" class="st5"/><path d="M686.3 229c0-1.6.3-3 .8-4.3s1.2-2.4 2-3.2 1.8-1.6 2.9-2 2.2-.7 3.4-.7c1.3 0 2.5.2 3.5.7 1 .5 1.9 1.1 2.5 1.9.7.8 1.2 1.8 1.5 3 .3 1.2.5 2.4.5 3.8 0 .9-.1 1.6-.2 2.2h-12.5c.2 1.8.8 3.2 1.9 4.1 1 1 2.3 1.4 3.9 1.4.9 0 1.7-.1 2.4-.4.7-.3 1.5-.6 2.2-1.1l1.6 2.9c-.9.6-2 1.1-3.1 1.5-1.2.4-2.4.6-3.6.6-1.4 0-2.6-.2-3.8-.7-1.2-.5-2.2-1.1-3.1-2-.9-.9-1.6-2-2.1-3.2-.5-1.4-.7-2.9-.7-4.5zm13.2-1.8c0-1.6-.3-2.8-1-3.7-.7-.9-1.7-1.3-3-1.3-1.2 0-2.2.4-3.1 1.3-.9.8-1.4 2.1-1.6 3.7h8.7zm11.9 3H706v-2.5h5.4V222h2.6v5.7h5.4v2.5H714v5.7h-2.6v-5.7z" class="st119"/></svg>