<svg id="Layer_1" data-name="Layer 1" xmlns="http://www.w3.org/2000/svg" viewBox="0 0 886.5 882.4"><title>pairproduction</title><path d="M5.2-.3L0,3.9M28.6,0.5L0.2,24.8M52.8-.7L0.4,46.7M74.2-.6L0.4,69.7M93.7,0.3L0,94.3M113.7-.3L0.5,119.4M131.6,0.3L0.3,146.6M149.5,0L3,172" style="fill:none;stroke:#af2c1e;stroke-linecap:round;stroke-miterlimit:10;stroke-width:3px"/><path d="M-3.9,180.1l5.1-15.3,2.3,6.6,7,1.3Z" style="fill:#af2c1e"/><path d="M166.3,0L17.6,184.2" style="fill:none;stroke:#af2c1e;stroke-linecap:round;stroke-miterlimit:10;stroke-width:3px"/><path d="M11,192.4L15.6,177l2.5,6.5,7,1.1Z" style="fill:#af2c1e"/><path d="M182.5,0L32.6,195.9" style="fill:none;stroke:#af2c1e;stroke-linecap:round;stroke-miterlimit:10;stroke-width:3px"/><path d="M26.1,204.3l4.3-15.5,2.7,6.5,6.9,0.9Z" style="fill:#af2c1e"/><path d="M198,0L47.8,207.3" style="fill:none;stroke:#af2c1e;stroke-linecap:round;stroke-miterlimit:10;stroke-width:3px"/><path d="M41.6,215.8l3.8-15.6,2.9,6.4,7,0.7Z" style="fill:#af2c1e"/><path d="M213.2-.4L63.3,218.2" style="fill:none;stroke:#af2c1e;stroke-linecap:round;stroke-miterlimit:10;stroke-width:3px"/><path d="M57.4,226.9l3.4-15.7,3,6.4,7,0.5Z" style="fill:#af2c1e"/><path d="M227.5-.3L79.2,228.7" style="fill:none;stroke:#af2c1e;stroke-linecap:round;stroke-miterlimit:10;stroke-width:3px"/><path d="M73.4,237.6l3-15.8,3.2,6.3,7,0.3Z" style="fill:#af2c1e"/><path d="M241.5-.3L95.2,238.9" style="fill:none;stroke:#af2c1e;stroke-linecap:round;stroke-miterlimit:10;stroke-width:3px"/><path d="M89.7,247.9L92.3,232l3.4,6.2,7,0.2Z" style="fill:#af2c1e"/><path d="M255-.3L111.6,248.6" style="fill:none;stroke:#af2c1e;stroke-linecap:round;stroke-miterlimit:10;stroke-width:3px"/><path d="M106.3,257.8l2.2-16,3.5,6.1h7Z" style="fill:#af2c1e"/><path d="M267.9-.1L128.2,257.8" style="fill:none;stroke:#af2c1e;stroke-linecap:round;stroke-miterlimit:10;stroke-width:3px"/><path d="M123.1,267.2l1.8-16.1,3.7,6,7-.2Z" style="fill:#af2c1e"/><path d="M280.6,0.1L145,266.7" style="fill:none;stroke:#af2c1e;stroke-linecap:round;stroke-miterlimit:10;stroke-width:3px"/><path d="M140.2,276.1l1.3-16,3.9,5.9,7-.4Z" style="fill:#af2c1e"/><path d="M293.1-.2l-131,275.3" style="fill:none;stroke:#af2c1e;stroke-linecap:round;stroke-miterlimit:10;stroke-width:3px"/><path d="M157.5,284.6l0.9-16.1,4,5.9,7-.6Z" style="fill:#af2c1e"/><path d="M305.2-.2L179.3,283" style="fill:none;stroke:#af2c1e;stroke-linecap:round;stroke-miterlimit:10;stroke-width:3px"/><path d="M175,292.7l0.5-16.1,4.1,5.7,7.1-.8Z" style="fill:#af2c1e"/><path d="M317-.2L196.8,290.5" style="fill:none;stroke:#af2c1e;stroke-linecap:round;stroke-miterlimit:10;stroke-width:3px"/><path d="M192.7,300.3l0.1-16.1,4.3,5.6,7-1Z" style="fill:#af2c1e"/><path d="M328.6-.1L214.4,297.5" style="fill:none;stroke:#af2c1e;stroke-linecap:round;stroke-miterlimit:10;stroke-width:3px"/><path d="M210.7,307.4l-0.4-16.1,4.4,5.5,7-1.1Z" style="fill:#af2c1e"/><path d="M339.9,0L232.3,304.1" style="fill:none;stroke:#af2c1e;stroke-linecap:round;stroke-miterlimit:10;stroke-width:3px"/><path d="M228.7,314.1L228,298l4.5,5.4,7-1.3Z" style="fill:#af2c1e"/><path d="M351,0L250.3,310.2" style="fill:none;stroke:#af2c1e;stroke-linecap:round;stroke-miterlimit:10;stroke-width:3px"/><path d="M247,320.3l-1.2-16.1,4.7,5.3,6.9-1.5Z" style="fill:#af2c1e"/><path d="M361.9,0L268.4,315.9" style="fill:none;stroke:#af2c1e;stroke-linecap:round;stroke-miterlimit:10;stroke-width:3px"/><path d="M265.4,326l-1.6-16,4.9,5.1,6.8-1.7Z" style="fill:#af2c1e"/><path d="M372.7-.1L286.7,321" style="fill:none;stroke:#af2c1e;stroke-linecap:round;stroke-miterlimit:10;stroke-width:3px"/><path d="M284,331.2l-2-16,4.9,5,6.8-1.8Z" style="fill:#af2c1e"/><path d="M383.3,0L305.1,325.7" style="fill:none;stroke:#af2c1e;stroke-linecap:round;stroke-miterlimit:10;stroke-width:3px"/><path d="M302.7,336l-2.5-15.9,5.1,4.8,6.8-2Z" style="fill:#af2c1e"/><path d="M393.8-.1l-70.1,330" style="fill:none;stroke:#af2c1e;stroke-linecap:round;stroke-miterlimit:10;stroke-width:3px"/><path d="M321.5,340.2l-2.9-15.8,5.2,4.7,6.7-2.2Z" style="fill:#af2c1e"/><path d="M404.2-.2L342.3,333.6" style="fill:none;stroke:#af2c1e;stroke-linecap:round;stroke-miterlimit:10;stroke-width:3px"/><path d="M340.4,344l-3.3-15.8,5.4,4.6,6.6-2.4Z" style="fill:#af2c1e"/><path d="M414.5-.2L361,336.8" style="fill:none;stroke:#af2c1e;stroke-linecap:round;stroke-miterlimit:10;stroke-width:3px"/><path d="M359.4,347.3l-3.7-15.7,5.5,4.4,6.5-2.5Z" style="fill:#af2c1e"/><path d="M424.7-.2L379.9,339.6" style="fill:none;stroke:#af2c1e;stroke-linecap:round;stroke-miterlimit:10;stroke-width:3px"/><path d="M378.5,350.1l-4.1-15.6,5.6,4.3,6.5-2.7Z" style="fill:#af2c1e"/><path d="M434.8-.2l-36.1,342" style="fill:none;stroke:#af2c1e;stroke-linecap:round;stroke-miterlimit:10;stroke-width:3px"/><path d="M397.6,352.3l-4.5-15.5,5.7,4.2,6.4-2.9Z" style="fill:#af2c1e"/><path d="M444.9,0L417.7,343.5" style="fill:none;stroke:#af2c1e;stroke-linecap:round;stroke-miterlimit:10;stroke-width:3px"/><path d="M416.8,354.1l-4.9-15.4,5.8,4.1,6.4-3.1Z" style="fill:#af2c1e"/><path d="M454.9-.2l-18.3,345" style="fill:none;stroke:#af2c1e;stroke-linecap:round;stroke-miterlimit:10;stroke-width:3px"/><path d="M436.1,355.4l-5.3-15.3,5.9,3.9,6.2-3.2Z" style="fill:#af2c1e"/><path d="M464.9-.2l-9.3,345.8" style="fill:none;stroke:#af2c1e;stroke-linecap:round;stroke-miterlimit:10;stroke-width:3px"/><path d="M455.3,356.1l-5.7-15,6,3.7,6.2-3.4Z" style="fill:#af2c1e"/><circle cx="700.7" cy="583.5" r="23.2" style="fill:#fff"/><path d="M688.5,583.9a11.76,11.76,0,0,1,.8-4.3,9.21,9.21,0,0,1,2-3.2,8.37,8.37,0,0,1,2.9-2,8,8,0,0,1,3.4-.7,7.82,7.82,0,0,1,3.5.7,6.92,6.92,0,0,1,2.5,1.9,7.08,7.08,0,0,1,1.5,3,15.18,15.18,0,0,1,.5,3.8,12.73,12.73,0,0,1-.2,2.2H693a5.89,5.89,0,0,0,1.9,4.1,5.3,5.3,0,0,0,4,1.4,6.05,6.05,0,0,0,2.4-.4,11.3,11.3,0,0,0,2.2-1.1l1.6,2.9a14.85,14.85,0,0,1-3.1,1.5,10.88,10.88,0,0,1-3.6.6,9.52,9.52,0,0,1-3.8-.7,9.19,9.19,0,0,1-3.1-2,9.88,9.88,0,0,1-2.1-3.2,11.3,11.3,0,0,1-.9-4.5h0Zm13.2-1.8a5.82,5.82,0,0,0-1-3.7,3.54,3.54,0,0,0-3-1.3,4.16,4.16,0,0,0-3.1,1.3,5.78,5.78,0,0,0-1.6,3.7h8.7Zm7.4-.2h9.5v3.4h-9.5v-3.4Z" style="fill:#f44336"/><path d="M474.9-.1l-0.3,345.9" style="fill:none;stroke:#af2c1e;stroke-linecap:round;stroke-miterlimit:10;stroke-width:3px"/><path d="M474.6,356.4l-6.1-14.9,6.1,3.5,6.1-3.5Z" style="fill:#af2c1e"/><path d="M484.9-.1l8.7,345.7" style="fill:none;stroke:#af2c1e;stroke-linecap:round;stroke-miterlimit:10;stroke-width:3px"/><path d="M493.9,356.2l-6.5-14.8,6.2,3.4,6-3.7Z" style="fill:#af2c1e"/><path d="M494.9,0l17.7,344.9" style="fill:none;stroke:#af2c1e;stroke-linecap:round;stroke-miterlimit:10;stroke-width:3px"/><path d="M513.1,355.4l-6.8-14.6,6.3,3.3,5.9-3.9Z" style="fill:#af2c1e"/><path d="M504.9,0l26.7,343.6" style="fill:none;stroke:#af2c1e;stroke-linecap:round;stroke-miterlimit:10;stroke-width:3px"/><path d="M532.4,354.2l-7.2-14.4,6.3,3,5.8-4Z" style="fill:#af2c1e"/><path d="M515,0l35.5,341.9" style="fill:none;stroke:#af2c1e;stroke-linecap:round;stroke-miterlimit:10;stroke-width:3px"/><path d="M551.6,352.4L544,338.2l6.4,2.9,5.7-4.1Z" style="fill:#af2c1e"/><path d="M525.1,0.2l44.3,339.5" style="fill:none;stroke:#af2c1e;stroke-linecap:round;stroke-miterlimit:10;stroke-width:3px"/><path d="M570.7,350.2l-7.9-14,6.5,2.7,5.6-4.3Z" style="fill:#af2c1e"/><path d="M535.3-.1L588.2,337" style="fill:none;stroke:#af2c1e;stroke-linecap:round;stroke-miterlimit:10;stroke-width:3px"/><path d="M589.8,347.5l-8.3-13.8,6.6,2.5,5.4-4.4Z" style="fill:#af2c1e"/><path d="M545.5-.1l61.4,333.9" style="fill:none;stroke:#af2c1e;stroke-linecap:round;stroke-miterlimit:10;stroke-width:3px"/><path d="M608.8,344.2l-8.7-13.6,6.7,2.4,5.3-4.6Z" style="fill:#af2c1e"/><path d="M555.9-.1l69.7,330.2" style="fill:none;stroke:#af2c1e;stroke-linecap:round;stroke-miterlimit:10;stroke-width:3px"/><path d="M627.8,340.5l-9.1-13.4,6.7,2.2,5.2-4.7Z" style="fill:#af2c1e"/><path d="M566.4,0l77.7,326" style="fill:none;stroke:#af2c1e;stroke-linecap:round;stroke-miterlimit:10;stroke-width:3px"/><path d="M646.6,336.3l-9.4-13.1,6.7,2,5.1-4.9Z" style="fill:#af2c1e"/><path d="M577-.2l85.5,321.5" style="fill:none;stroke:#af2c1e;stroke-linecap:round;stroke-miterlimit:10;stroke-width:3px"/><path d="M665.3,331.5l-9.8-12.8,6.8,1.8,5-4.9Z" style="fill:#af2c1e"/><path d="M587.8-.1l93,316.3" style="fill:none;stroke:#af2c1e;stroke-linecap:round;stroke-miterlimit:10;stroke-width:3px"/><path d="M683.8,326.3l-10-12.6,6.8,1.7,4.9-5.1Z" style="fill:#af2c1e"/><path d="M598.6-.3L699,310.6" style="fill:none;stroke:#af2c1e;stroke-linecap:round;stroke-miterlimit:10;stroke-width:3px"/><path d="M702.3,320.7l-10.4-12.4,6.9,1.5,4.7-5.2Z" style="fill:#af2c1e"/><path d="M609.8-.1L717,304.5" style="fill:none;stroke:#af2c1e;stroke-linecap:round;stroke-miterlimit:10;stroke-width:3px"/><path d="M720.5,314.5l-10.7-12.1,6.9,1.4,4.6-5.4Z" style="fill:#af2c1e"/><path d="M621.2,0.1L734.9,298" style="fill:none;stroke:#af2c1e;stroke-linecap:round;stroke-miterlimit:10;stroke-width:3px"/><path d="M738.6,307.9l-11-11.8,7,1.1,4.4-5.5Z" style="fill:#af2c1e"/><path d="M632.7-.1L752.5,291" style="fill:none;stroke:#af2c1e;stroke-linecap:round;stroke-miterlimit:10;stroke-width:3px"/><path d="M756.5,300.7l-11.3-11.4,7,0.9,4.3-5.6v16.1Z" style="fill:#af2c1e"/><path d="M644.4-.3L770,283.5" style="fill:none;stroke:#af2c1e;stroke-linecap:round;stroke-miterlimit:10;stroke-width:3px"/><path d="M774.3,293.2L762.7,282l7,0.8,4.1-5.7Z" style="fill:#af2c1e"/><path d="M656.6,0L787.3,275.6" style="fill:none;stroke:#af2c1e;stroke-linecap:round;stroke-miterlimit:10;stroke-width:3px"/><path d="M791.8,285.1l-11.9-10.8,7,0.6,4-5.9Z" style="fill:#af2c1e"/><path d="M669,0.1L804.3,267.2" style="fill:none;stroke:#af2c1e;stroke-linecap:round;stroke-miterlimit:10;stroke-width:3px"/><path d="M809.1,276.6l-12.2-10.5,7.1,0.4,3.8-5.9Z" style="fill:#af2c1e"/><path d="M681.8,0.2L821.2,258.4" style="fill:none;stroke:#af2c1e;stroke-linecap:round;stroke-miterlimit:10;stroke-width:3px"/><path d="M826.2,267.7l-12.4-10.2,7,0.2,3.7-6Z" style="fill:#af2c1e"/><path d="M694.6-.2L837.8,249.1" style="fill:none;stroke:#af2c1e;stroke-linecap:round;stroke-miterlimit:10;stroke-width:3px"/><path d="M843.1,258.3l-12.8-9.9,7.1,0.1,3.5-6.1Z" style="fill:#af2c1e"/><path d="M708.2,0L854.1,239.5" style="fill:none;stroke:#af2c1e;stroke-linecap:round;stroke-miterlimit:10;stroke-width:3px"/><path d="M859.7,248.5l-13-9.6,7-.1,3.4-6.2Z" style="fill:#af2c1e"/><path d="M722-.2L870.2,229.4" style="fill:none;stroke:#af2c1e;stroke-linecap:round;stroke-miterlimit:10;stroke-width:3px"/><path d="M876,238.3L862.8,229l7-.3,3.2-6.3Z" style="fill:#af2c1e"/><path d="M736.5-.1l149.6,219" style="fill:none;stroke:#af2c1e;stroke-linecap:round;stroke-miterlimit:10;stroke-width:3px"/><path d="M892,227.6l-13.4-8.9,7-.5,3.1-6.4Z" style="fill:#af2c1e"/><path d="M751.5,0.1L886.4,186.9M766.8-.2L886.6,156.9M783-.1L886.3,128.3M799.8,0l86.6,102M817.2-.2L886.3,77M835.9,0.1l50.5,53.5M855.1-.1l31.3,31.6M875.5,0l11,10.5" style="fill:none;stroke:#af2c1e;stroke-linecap:round;stroke-miterlimit:10;stroke-width:3px"/><path d="M141.6,497.1c35.6,0,35.6-90.2,71.3-90.2s35.6,90.2,71.3,90.2,35.6-90.2,71.3-90.2,35.6,90.2,71.3,90.2,35.6-90.2,71.3-90.2" style="fill:none;stroke:#fff;stroke-linecap:round;stroke-miterlimit:10;stroke-width:6.985899925231934px"/><path d="M522.5,406.9l-34.7,14.2,8.2-14.2-8.2-14.2Z" style="fill:#fff"/><path d="M537.4,392L657.1,272.3" style="fill:none;stroke:#fff;stroke-linecap:round;stroke-miterlimit:10;stroke-width:6.985899925231934px"/><path d="M674.5,254.8L660,289.5l-4.2-15.9-15.9-4.2Z" style="fill:#fff"/><path d="M536,420.6L655.7,540.3" style="fill:none;stroke:#fff;stroke-linecap:round;stroke-miterlimit:10;stroke-width:6.985899925231934px"/><path d="M673.1,557.8l-34.6-14.6,15.9-4.2,4.2-15.8Z" style="fill:#fff"/><circle cx="700.6" cy="228.6" r="23.2" style="fill:#fff"/><path d="M686.3,229a11.76,11.76,0,0,1,.8-4.3,9.21,9.21,0,0,1,2-3.2,8.37,8.37,0,0,1,2.9-2,9.83,9.83,0,0,1,3.4-.7,7.82,7.82,0,0,1,3.5.7,6.92,6.92,0,0,1,2.5,1.9,7.08,7.08,0,0,1,1.5,3,15.18,15.18,0,0,1,.5,3.8,12.73,12.73,0,0,1-.2,2.2H690.7a5.89,5.89,0,0,0,1.9,4.1,5.21,5.21,0,0,0,3.9,1.4,6.05,6.05,0,0,0,2.4-.4,11.3,11.3,0,0,0,2.2-1.1l1.6,2.9a14.84,14.84,0,0,1-3.1,1.5,11.33,11.33,0,0,1-3.6.6,9.52,9.52,0,0,1-3.8-.7,9.19,9.19,0,0,1-3.1-2,9.88,9.88,0,0,1-2.1-3.2,13.27,13.27,0,0,1-.7-4.5h0Zm13.2-1.8a5.82,5.82,0,0,0-1-3.7,3.54,3.54,0,0,0-3-1.3,4.16,4.16,0,0,0-3.1,1.3,5.78,5.78,0,0,0-1.6,3.7h8.7Zm11.9,3H706v-2.5h5.4V222H714v5.7h5.4v2.5H714v5.7h-2.6v-5.7Z" style="fill:#f44336"/></svg>