<?xml version="1.0" encoding="utf-8"?>
<!-- Generator: Adobe Illustrator 19.0.0, SVG Export Plug-In . SVG Version: 6.00 Build 0)  -->
<svg version="1.1" xmlns="http://www.w3.org/2000/svg" xmlns:xlink="http://www.w3.org/1999/xlink" x="0px" y="0px"
	 viewBox="0 0 720 720" style="enable-background:new 0 0 720 720;" xml:space="preserve">
<style type="text/css">
	.st0{fill:#FAD466;}
	.st1{fill:#F8BA17;}
	.st2{fill:#C55857;}
	.st3{fill:#924241;}
	.st4{fill:#AB1F23;}
	.st5{fill:none;stroke:#58595B;stroke-width:4;stroke-linecap:round;stroke-miterlimit:10;stroke-dasharray:11.9055,11.9055;}
	.st6{fill:#75BC64;}
	.st7{fill:#00A9B1;}
	.st8{fill:#00A9B1;stroke:#00A9B1;stroke-miterlimit:10;}
	.st9{fill:#C1DACB;}
</style>
<g id="Layer_1">
	<g id="XMLID_80_">
		<circle id="XMLID_70_" class="st0" cx="337.4" cy="359.5" r="27"/>
		<g id="XMLID_65_">
			<path id="XMLID_69_" class="st1" d="M361.9,359.5c-0.3,13.4-10.9,24.5-24.5,24.5c-13.3,0-24.5-11.2-24.5-24.5
				c0-13.4,11.1-24.5,24.5-24.5C351,335,361.5,346.2,361.9,359.5c0.1,3.2,5.1,3.2,5,0c-0.3-12.1-7.4-23.1-18.9-27.5
				c-11.6-4.5-25.2-1-33.2,8.6c-17.4,20.9,1.4,52.7,28,47.9c14-2.5,23.7-15,24.1-29C367,356.3,362,356.3,361.9,359.5z"/>
		</g>
	</g>
	<g id="XMLID_1_">
		<g id="XMLID_73_">
			<circle id="XMLID_63_" class="st2" cx="364.4" cy="332.5" r="27"/>
			<g id="XMLID_58_">
				<path id="XMLID_62_" class="st3" d="M388.9,332.5c-0.3,13.4-10.9,24.5-24.5,24.5c-13.3,0-24.5-11.2-24.5-24.5
					c0-13.4,11.1-24.5,24.5-24.5C378,308,388.5,319.2,388.9,332.5c0.1,3.2,5.1,3.2,5,0c-0.3-12.1-7.4-23.1-18.9-27.5
					c-11.6-4.5-25.2-1-33.2,8.6c-17.4,20.9,1.4,52.7,28,47.9c14-2.5,23.7-15,24.1-29C394,329.3,389,329.3,388.9,332.5z"/>
			</g>
		</g>
		<g id="XMLID_14_">
			<g id="XMLID_52_">
				<path id="XMLID_56_" class="st4" d="M346.4,335c12,0,24,0,36,0c3.2,0,3.2-5,0-5c-12,0-24,0-36,0C343.2,330,343.2,335,346.4,335
					L346.4,335z"/>
			</g>
		</g>
		<g id="XMLID_13_">
			<g id="XMLID_46_">
				<path id="XMLID_50_" class="st4" d="M366.9,350.5c0-12,0-24,0-36c0-3.2-5-3.2-5,0c0,12,0,24,0,36
					C361.9,353.7,366.9,353.7,366.9,350.5L366.9,350.5z"/>
			</g>
		</g>
	</g>
	<g id="XMLID_12_">
		<circle id="XMLID_44_" class="st0" cx="382.4" cy="368.5" r="27"/>
		<g id="XMLID_39_">
			<path id="XMLID_43_" class="st1" d="M406.9,368.5c-0.3,13.4-10.9,24.5-24.5,24.5c-13.3,0-24.5-11.2-24.5-24.5
				c0-13.4,11.1-24.5,24.5-24.5C396,344,406.5,355.2,406.9,368.5c0.1,3.2,5.1,3.2,5,0c-0.3-12.1-7.4-23.1-18.9-27.5
				c-11.6-4.5-25.2-1-33.2,8.6c-17.4,20.9,1.4,52.7,28,47.9c14-2.5,23.7-15,24.1-29C412,365.3,407,365.3,406.9,368.5z"/>
		</g>
	</g>
	<g id="XMLID_2_">
		<g id="XMLID_9_">
			<circle id="XMLID_37_" class="st2" cx="355.4" cy="386.5" r="27"/>
			<g id="XMLID_32_">
				<path id="XMLID_36_" class="st3" d="M379.9,386.5c-0.3,13.4-10.9,24.5-24.5,24.5c-13.3,0-24.5-11.2-24.5-24.5
					c0-13.4,11.1-24.5,24.5-24.5C369,362,379.5,373.2,379.9,386.5c0.1,3.2,5.1,3.2,5,0c-0.3-12.1-7.4-23.1-18.9-27.5
					c-11.6-4.5-25.2-1-33.2,8.6c-17.4,20.9,1.4,52.7,28,47.9c14-2.5,23.7-15,24.1-29C385,383.3,380,383.3,379.9,386.5z"/>
			</g>
		</g>
		<g id="XMLID_8_">
			<g id="XMLID_26_">
				<path id="XMLID_30_" class="st4" d="M337.4,389c12,0,24,0,36,0c3.2,0,3.2-5,0-5c-12,0-24,0-36,0C334.2,384,334.2,389,337.4,389
					L337.4,389z"/>
			</g>
		</g>
		<g id="XMLID_7_">
			<g id="XMLID_20_">
				<path id="XMLID_24_" class="st4" d="M357.9,404.5c0-12,0-24,0-36c0-3.2-5-3.2-5,0c0,12,0,24,0,36
					C352.9,407.7,357.9,407.7,357.9,404.5L357.9,404.5z"/>
			</g>
		</g>
	</g>
</g>
<g id="Layer_4">
	<g id="XMLID_51_">
		<circle id="XMLID_83_" class="st5" cx="360" cy="360" r="144"/>
	</g>
	<g id="XMLID_4_">
		<circle id="XMLID_3_" class="st5" cx="360" cy="360" r="216"/>
	</g>
</g>
<g id="Layer_3">
	<g id="XMLID_10_">
		<g id="XMLID_129_">
			<path id="XMLID_146_" class="st6" d="M16.7,118.6c7.3,0.3,10,9.5,13.7,14.5c3.4,4.7,8.3,8.1,14.3,6.8c6.2-1.3,9.5-7.1,12.5-12.2
				c3.4-5.6,9-13,15.7-6.8c4.7,4.3,6.3,11.1,11,15.5c4.3,4.1,10.7,5,15.8,1.8c5.4-3.5,7.5-10,11.2-15c5.1-6.9,11.7-4.9,15.9,1.6
				c3.4,5.1,6,11.8,12,14.4c5.5,2.4,11.3,0.3,15.1-4.1c4-4.6,5.9-12.2,11.3-15.4c7.6-4.5,12.3,4.9,15.5,10.2
				c3,4.9,6.7,9.9,12.9,10.3c6.5,0.5,10.8-4,14.1-9c3.2-5,6.9-14.4,14.4-12.2c6.1,1.8,8.6,10.4,12.1,15c4,5.2,10.6,8.3,16.9,5
				c6.6-3.4,8.5-11.2,13-16.6c2.5-2.9,6.1-4.7,9.8-3c3.5,1.6,5.5,5.7,7.4,8.9c3.5,5.9,7.3,11.7,14.9,12c3.2,0.1,3.2-4.9,0-5
				c-7.3-0.3-10-9.5-13.7-14.5c-3.4-4.7-8.3-8.1-14.3-6.8c-6.2,1.3-9.5,7.1-12.5,12.2c-3.4,5.6-9,13-15.8,6.8
				c-4.7-4.3-6.3-11.1-11-15.5c-4.3-4.1-10.7-5-15.8-1.8c-5.4,3.5-7.5,10-11.2,15c-5.1,6.9-11.7,4.9-15.9-1.6
				c-3.4-5.1-6-11.8-12-14.4c-5.5-2.4-11.3-0.3-15.1,4.1c-4,4.6-5.9,12.2-11.3,15.4c-7.6,4.5-12.3-4.9-15.5-10.2
				c-3-4.9-6.7-9.9-12.9-10.3c-6.5-0.5-10.8,4-14.1,9c-3.2,5-6.9,14.4-14.4,12.2c-6.1-1.8-8.6-10.4-12.1-15c-4-5.2-10.5-8.3-16.9-5
				c-6.6,3.4-8.5,11.2-13,16.6c-2.5,2.9-6.1,4.7-9.8,3c-3.5-1.6-5.5-5.7-7.4-8.9c-3.5-5.9-7.3-11.7-14.9-12
				C13.4,113.5,13.4,118.5,16.7,118.6L16.7,118.6z"/>
		</g>
	</g>
	<g id="XMLID_11_">
		<g id="XMLID_107_">
			<path id="XMLID_111_" class="st6" d="M296.1,140c3.6,0,7.3,0,10.9,0c3.2,0,3.2-5,0-5c-3.6,0-7.3,0-10.9,0
				C292.9,135,292.9,140,296.1,140L296.1,140z"/>
		</g>
	</g>
	<polygon id="XMLID_45_" class="st6" points="297,148 333,137.5 297,126.9 306,137.5 	"/>
	<g id="XMLID_57_">
		<line id="XMLID_126_" class="st7" x1="395.1" y1="135.4" x2="570.3" y2="58.2"/>
		<g id="XMLID_121_">
			<path id="XMLID_125_" class="st7" d="M396.3,137.6c19.8-8.7,39.6-17.4,59.3-26.1C487,97.6,518.4,83.8,549.8,70
				c7.3-3.2,14.5-6.4,21.8-9.6c2.9-1.3,0.4-5.6-2.5-4.3c-19.8,8.7-39.6,17.4-59.3,26.1c-31.4,13.8-62.7,27.6-94.1,41.5
				c-7.3,3.2-14.5,6.4-21.8,9.6C390.9,134.6,393.4,138.9,396.3,137.6L396.3,137.6z"/>
		</g>
	</g>
	<polygon id="XMLID_71_" class="st8" points="553,77.2 581.9,53.2 544.7,57.8 557.1,63.9 	"/>
</g>
<g id="Layer_2">
	<g id="XMLID_6_">
		<circle id="XMLID_102_" class="st9" cx="360" cy="144" r="27"/>
		<g id="XMLID_90_">
			<path id="XMLID_94_" class="st7" d="M384.5,144c-0.3,13.4-10.9,24.5-24.5,24.5c-13.3,0-24.5-11.2-24.5-24.5
				c0-13.4,11.1-24.5,24.5-24.5C373.6,119.5,384.2,130.7,384.5,144c0.1,3.2,5.1,3.2,5,0c-0.3-12.1-7.4-23.1-18.9-27.5
				c-11.6-4.5-25.2-1-33.2,8.6c-17.4,20.9,1.4,52.7,28,47.9c14-2.5,23.7-15,24.1-29C389.6,140.8,384.6,140.8,384.5,144z"/>
		</g>
	</g>
	<g id="XMLID_5_">
		<line id="XMLID_101_" class="st0" x1="342" y1="144" x2="378" y2="144"/>
		<g id="XMLID_96_">
			<path id="XMLID_100_" class="st7" d="M342,146.5c12,0,24,0,36,0c3.2,0,3.2-5,0-5c-12,0-24,0-36,0
				C338.8,141.5,338.8,146.5,342,146.5L342,146.5z"/>
		</g>
	</g>
	<g id="XMLID_81_">
		<circle id="XMLID_142_" class="st9" cx="618" cy="46.2" r="27"/>
		<g id="XMLID_130_">
			<path id="XMLID_134_" class="st7" d="M642.5,46.2c-0.3,13.4-10.9,24.5-24.5,24.5c-13.3,0-24.5-11.2-24.5-24.5
				c0-13.4,11.1-24.5,24.5-24.5C631.6,21.7,642.1,32.9,642.5,46.2c0.1,3.2,5.1,3.2,5,0c-0.3-12.1-7.4-23.1-18.9-27.5
				c-11.6-4.5-25.2-1-33.2,8.6c-17.4,20.9,1.4,52.7,28,47.9c14-2.5,23.7-15,24.1-29C647.6,43,642.6,43,642.5,46.2z"/>
		</g>
	</g>
	<g id="XMLID_72_">
		<line id="XMLID_141_" class="st0" x1="600" y1="46.2" x2="636" y2="46.2"/>
		<g id="XMLID_136_">
			<path id="XMLID_140_" class="st7" d="M600,48.7c12,0,24,0,36,0c3.2,0,3.2-5,0-5c-12,0-24,0-36,0C596.8,43.7,596.8,48.7,600,48.7
				L600,48.7z"/>
		</g>
	</g>
</g>
</svg>
