<svg xmlns="http://www.w3.org/2000/svg" id="Layer_1" viewBox="0 0 886.5 882.4"><style>.st0{fill:#FFC107;} .st1{fill:none;} .st2{fill:#FFFFFF;} .st3{fill:#FFFFFF;stroke:#FFC107;stroke-width:2;stroke-miterlimit:10;} .st4{fill:none;stroke:#FFFFFF;stroke-width:3;stroke-linecap:round;stroke-miterlimit:10;} .st5{fill:#CC9933;} .st6{opacity:0.5;fill:#FFFFFF;enable-background:new ;} .st7{opacity:0.65;fill:#FFFFFF;enable-background:new ;}</style><path d="M1.1-1.1h886.3v882.5H1.1z" class="st0"/><path d="M8.7-28H895v882.5H8.7V-28z" class="st1"/><path d="M8.7-28H895v882.5H8.7V-28z" class="st1"/><path d="M124.3 776.9V792h-3.8v-60.1h3.3l.3 5.2h.3c2-1.6 4.2-3 6.6-4.3 2.4-1.3 4.9-1.9 7.5-1.9 5.5 0 9.7 1.9 12.4 5.7 2.8 3.8 4.1 9 4.1 15.4 0 3.5-.5 6.6-1.5 9.4s-2.3 5.1-4 7-3.6 3.4-5.9 4.4c-2.2 1-4.5 1.5-6.9 1.5-2 0-4-.4-6-1.3-2.1-.9-4.2-2.1-6.4-3.7v7.6zm0-11.3c2.4 2 4.7 3.3 6.7 4.1 2.1.8 3.9 1.2 5.5 1.2 2.1 0 4-.5 5.8-1.4s3.3-2.2 4.6-3.9 2.3-3.7 3-6 1.1-4.9 1.1-7.7c0-2.5-.2-4.9-.7-7.1-.5-2.2-1.2-4.1-2.3-5.6-1-1.6-2.4-2.8-4.1-3.7-1.7-.9-3.7-1.3-6-1.3-2.1 0-4.2.6-6.4 1.8s-4.6 2.9-7.1 5v24.6h-.1zm43.1-54.3h3.8v27c2.2-2.2 4.4-4 6.6-5.4 2.2-1.4 4.8-2.1 7.7-2.1 4.3 0 7.5 1.3 9.5 3.9 2 2.6 3 6.6 3 12v26.5h-3.8v-26c0-4.4-.7-7.7-2.2-9.8s-3.9-3.1-7.3-3.1c-2.5 0-4.7.6-6.7 1.9-2 1.3-4.3 3.2-6.8 5.8v31.2h-3.8v-61.9zm42.1 41.4c0-3.4.5-6.5 1.5-9.3 1-2.7 2.4-5 4.1-6.9 1.7-1.8 3.7-3.2 5.9-4.2s4.6-1.5 7.1-1.5 4.8.5 7.1 1.5 4.3 2.4 5.9 4.2c1.7 1.8 3 4.1 4.1 6.9 1 2.7 1.5 5.8 1.5 9.3s-.5 6.5-1.5 9.2-2.4 4.9-4.1 6.8c-1.7 1.8-3.7 3.2-5.9 4.2-2.3 1-4.6 1.5-7.1 1.5s-4.8-.5-7.1-1.5c-2.2-1-4.2-2.4-5.9-4.2s-3-4.1-4.1-6.8c-1-2.7-1.5-5.8-1.5-9.2zm3.9 0c0 2.7.4 5.2 1.1 7.4.7 2.2 1.8 4.2 3.1 5.8s2.8 2.9 4.6 3.7c1.8.9 3.7 1.3 5.8 1.3s4-.4 5.8-1.3c1.8-.9 3.4-2.1 4.7-3.7 1.3-1.6 2.3-3.5 3.1-5.8.7-2.2 1.1-4.7 1.1-7.4 0-2.8-.4-5.3-1.1-7.5-.7-2.2-1.8-4.2-3.1-5.8s-2.8-2.9-4.7-3.8c-1.8-.9-3.8-1.3-5.8-1.3s-4 .4-5.8 1.3c-1.8.9-3.3 2.2-4.6 3.8s-2.3 3.6-3.1 5.8c-.7 2.2-1.1 4.7-1.1 7.5zm46.6-17.5h-6.5v-2.9l6.6-.3.5-12h3.3v12h12v3.3h-12v27c0 1.3.1 2.5.3 3.6.2 1.1.6 2 1.1 2.8s1.2 1.4 2.1 1.8 2.1.6 3.5.6c.8 0 1.7-.1 2.6-.4.9-.3 1.8-.6 2.5-.9l1 3.1c-1.2.5-2.4.8-3.6 1.1s-2.2.4-3.1.4c-2 0-3.7-.3-5-.9-1.3-.6-2.4-1.5-3.2-2.5-.8-1.1-1.4-2.4-1.7-4-.3-1.6-.5-3.2-.5-5.1v-26.7h.1zm21.6 17.5c0-3.4.5-6.5 1.5-9.3 1-2.7 2.4-5 4.1-6.9 1.7-1.8 3.7-3.2 5.9-4.2s4.6-1.5 7.1-1.5 4.8.5 7.1 1.5 4.3 2.4 5.9 4.2c1.7 1.8 3 4.1 4.1 6.9 1 2.7 1.5 5.8 1.5 9.3s-.5 6.5-1.5 9.2-2.4 4.9-4.1 6.8c-1.7 1.8-3.7 3.2-5.9 4.2-2.3 1-4.6 1.5-7.1 1.5s-4.8-.5-7.1-1.5c-2.2-1-4.2-2.4-5.9-4.2-1.7-1.8-3-4.1-4.1-6.8-1-2.7-1.5-5.8-1.5-9.2zm4 0c0 2.7.4 5.2 1.1 7.4s1.8 4.2 3.1 5.8c1.3 1.6 2.8 2.9 4.6 3.7 1.8.9 3.7 1.3 5.8 1.3s4-.4 5.8-1.3c1.8-.9 3.4-2.1 4.7-3.7 1.3-1.6 2.3-3.5 3.1-5.8.7-2.2 1.1-4.7 1.1-7.4 0-2.8-.4-5.3-1.1-7.5s-1.8-4.2-3.1-5.8-2.8-2.9-4.7-3.8c-1.8-.9-3.8-1.3-5.8-1.3s-4 .4-5.8 1.3c-1.8.9-3.3 2.2-4.6 3.8s-2.3 3.6-3.1 5.8-1.1 4.7-1.1 7.5zm42.1 0c0-3.4.5-6.4 1.5-9.1 1-2.7 2.4-5 4.1-6.9s3.6-3.3 5.8-4.3c2.2-1 4.4-1.5 6.7-1.5 4.9 0 8.8 1.7 11.6 5 2.8 3.3 4.2 8 4.2 14.1v1.6s-.1 1-.2 1.6h-29.8c.1 2.6.5 5 1.2 7.2s1.8 4.1 3.1 5.7c1.3 1.6 3 2.8 4.9 3.7s4 1.3 6.4 1.3c2.2 0 4.3-.3 6.1-1 1.8-.7 3.5-1.6 5-2.7l1.6 2.9c-1.7 1-3.5 1.9-5.5 2.8-2 .9-4.5 1.3-7.5 1.3-2.6 0-5.1-.5-7.5-1.5-2.3-1-4.4-2.4-6.1-4.3-1.7-1.9-3.1-4.1-4.1-6.8-1-2.7-1.5-5.8-1.5-9.1zm30.3-2.5c0-5.3-1.1-9.4-3.3-12s-5.1-4-8.9-4c-1.8 0-3.5.4-5.1 1.1-1.6.7-3.1 1.8-4.4 3.2s-2.4 3.1-3.2 5-1.4 4.2-1.6 6.7H358zm14.8-38.9h3.8v57c0 .9.2 1.6.5 2s.8.6 1.3.6h.6l1-.2.7 3.1-1.2.3c-.4.1-.9.1-1.6.1-3.4 0-5.1-2.2-5.1-6.6v-56.3zm17 41.4c0-3.4.5-6.4 1.5-9.1 1-2.7 2.4-5 4.1-6.9s3.6-3.3 5.8-4.3c2.2-1 4.4-1.5 6.7-1.5 4.9 0 8.8 1.7 11.6 5 2.8 3.3 4.2 8 4.2 14.1v1.6s-.1 1-.2 1.6h-29.8c.1 2.6.5 5 1.2 7.2s1.8 4.1 3.1 5.7c1.3 1.6 3 2.8 4.9 3.7s4 1.3 6.4 1.3c2.2 0 4.3-.3 6.1-1 1.8-.7 3.5-1.6 5-2.7l1.6 2.9c-1.7 1-3.5 1.9-5.5 2.8-2 .9-4.5 1.3-7.5 1.3-2.6 0-5.1-.5-7.5-1.5-2.3-1-4.4-2.4-6.1-4.3-1.7-1.9-3.1-4.1-4.1-6.8-1-2.7-1.5-5.8-1.5-9.1zm30.2-2.5c0-5.3-1.1-9.4-3.3-12-2.2-2.7-5.1-4-8.9-4-1.8 0-3.5.4-5.1 1.1-1.6.7-3.1 1.8-4.4 3.2s-2.4 3.1-3.2 5c-.8 2-1.4 4.2-1.6 6.7H420zm11.4 2.5c0-3.4.5-6.5 1.6-9.3 1-2.7 2.4-5 4.1-6.9 1.7-1.8 3.7-3.2 6-4.2s4.7-1.5 7.2-1.5c2.9 0 5.3.5 7.2 1.6 1.9 1 3.6 2.2 5 3.5l-2.2 2.7c-1.3-1.3-2.8-2.3-4.4-3.1s-3.4-1.2-5.4-1.2c-2.1 0-4.1.4-5.9 1.3-1.8.9-3.4 2.2-4.7 3.8-1.4 1.6-2.4 3.6-3.2 5.8-.8 2.2-1.2 4.7-1.2 7.5 0 2.7.4 5.2 1.1 7.4s1.7 4.2 3 5.8 2.9 2.9 4.7 3.7c1.9.9 3.9 1.3 6.2 1.3 2.2 0 4.2-.5 6.1-1.4s3.5-2 5-3.4l2 2.6c-1.8 1.6-3.8 2.9-5.9 4-2.2 1-4.6 1.6-7.2 1.6-2.7 0-5.2-.5-7.5-1.5s-4.3-2.4-5.9-4.2c-1.7-1.8-3-4.1-4-6.8-1.2-2.6-1.7-5.7-1.7-9.1zm43.1-17.5H468v-2.9l6.5-.3.5-12h3.3v12h12v3.3h-12v27c0 1.3.1 2.5.3 3.6.2 1.1.6 2 1.1 2.8s1.2 1.4 2.1 1.8c.9.4 2.1.6 3.5.6.8 0 1.7-.1 2.6-.4.9-.3 1.8-.6 2.5-.9l1 3.1c-1.2.5-2.4.8-3.6 1.1s-2.2.4-3.1.4c-2 0-3.7-.3-5-.9-1.3-.6-2.4-1.5-3.2-2.5-.8-1.1-1.4-2.4-1.7-4-.3-1.6-.5-3.2-.5-5.1v-26.7h.2zm25.9-3.3h3.3l.3 7.7h.3c1.4-2.6 3.1-4.7 5-6.3 2-1.6 4.2-2.4 6.7-2.4.8 0 1.5.1 2.2.2.6.1 1.3.3 2 .7l-.9 3.4c-.7-.3-1.3-.5-1.8-.6s-1.2-.1-2-.1c-1.8 0-3.8.8-5.8 2.4-2 1.6-3.9 4.3-5.5 8.2v28.2h-3.8v-41.4zm29.3-10c-1 0-1.8-.3-2.5-.9-.7-.6-1-1.4-1-2.4 0-1.1.3-1.9 1-2.5s1.5-.9 2.5-.9 1.8.3 2.5.9c.7.6 1 1.5 1 2.5s-.3 1.8-1 2.4c-.7.6-1.5.9-2.5.9zm-1.9 10h3.8v41.4h-3.8v-41.4zm16.3 20.8c0-3.4.5-6.5 1.6-9.3 1-2.7 2.4-5 4.1-6.9 1.7-1.8 3.7-3.2 6-4.2s4.7-1.5 7.2-1.5c2.9 0 5.3.5 7.2 1.6 1.9 1 3.6 2.2 5 3.5l-2.2 2.7c-1.3-1.3-2.8-2.3-4.4-3.1-1.6-.8-3.4-1.2-5.4-1.2-2.1 0-4.1.4-5.9 1.3-1.8.9-3.4 2.2-4.7 3.8-1.4 1.6-2.4 3.6-3.2 5.8s-1.2 4.7-1.2 7.5c0 2.7.4 5.2 1.1 7.4s1.7 4.2 3 5.8 2.9 2.9 4.7 3.7c1.9.9 3.9 1.3 6.2 1.3 2.2 0 4.2-.5 6.1-1.4 1.9-.9 3.5-2 5-3.4l2 2.6c-1.8 1.6-3.8 2.9-5.9 4-2.2 1-4.6 1.6-7.2 1.6-2.7 0-5.2-.5-7.5-1.5s-4.3-2.4-5.9-4.2c-1.7-1.8-3-4.1-4-6.8-1.3-2.6-1.7-5.7-1.7-9.1zm55.8 0c0-3.4.5-6.4 1.5-9.1 1-2.7 2.4-5 4.1-6.9 1.7-1.9 3.6-3.3 5.8-4.3s4.4-1.5 6.7-1.5c4.9 0 8.8 1.7 11.6 5s4.2 8 4.2 14.1v1.6s-.1 1-.2 1.6h-29.8c.1 2.6.5 5 1.2 7.2s1.8 4.1 3.1 5.7c1.3 1.6 3 2.8 4.9 3.7s4 1.3 6.4 1.3c2.2 0 4.3-.3 6.1-1s3.5-1.6 5-2.7l1.6 2.9c-1.7 1-3.5 1.9-5.5 2.8-2 .9-4.5 1.3-7.5 1.3-2.6 0-5.1-.5-7.5-1.5-2.3-1-4.4-2.4-6.1-4.3-1.7-1.9-3.1-4.1-4.1-6.8s-1.5-5.8-1.5-9.1zm30.3-2.5c0-5.3-1.1-9.4-3.3-12s-5.1-4-8.9-4c-1.8 0-3.5.4-5.1 1.1-1.6.7-3.1 1.8-4.4 3.2-1.3 1.4-2.4 3.1-3.2 5s-1.4 4.2-1.6 6.7h26.5zm53.6-35.5c-.9-.5-1.7-.8-2.5-.9s-1.7-.3-2.5-.3c-2.2 0-3.8.8-4.9 2.5-1.1 1.6-1.6 4-1.6 6.9v9h9.6v3.3h-9.6v38.1h-3.8v-38.1h-19.1v38.1h-3.8v-38.1H640v-2.9l5.6-.3v-7.7c0-4.3 1-7.6 2.9-9.8 2-2.2 4.7-3.3 8.3-3.3 1.1 0 2.3.1 3.5.4 1.2.3 2.3.6 3.5 1.2l-1 3.1c-1-.5-2-.9-3-1.1-1-.2-2-.3-2.9-.3-2.5 0-4.3.9-5.6 2.6-1.2 1.8-1.9 4.2-1.9 7.5v7.4h19.1v-9.2c0-4.1.9-7.2 2.7-9.3s4.3-3.1 7.6-3.1c2 0 4 .5 6 1.4l-1 2.9zm2.2 38c0-3.4.5-6.4 1.5-9.1 1-2.7 2.4-5 4.1-6.9 1.7-1.9 3.6-3.3 5.8-4.3s4.4-1.5 6.7-1.5c4.9 0 8.8 1.7 11.6 5s4.2 8 4.2 14.1v1.6s-.1 1-.2 1.6h-29.8c.1 2.6.5 5 1.2 7.2s1.8 4.1 3.1 5.7c1.3 1.6 3 2.8 4.9 3.7s4 1.3 6.4 1.3c2.2 0 4.3-.3 6.1-1s3.5-1.6 5-2.7l1.6 2.9c-1.7 1-3.5 1.9-5.5 2.8-2 .9-4.5 1.3-7.5 1.3-2.6 0-5.1-.5-7.5-1.5-2.3-1-4.4-2.4-6.1-4.3-1.7-1.9-3.1-4.1-4.1-6.8s-1.5-5.8-1.5-9.1zm30.3-2.5c0-5.3-1.1-9.4-3.3-12-2.2-2.7-5.1-4-8.9-4-1.8 0-3.5.4-5.1 1.1-1.6.7-3.1 1.8-4.4 3.2-1.3 1.4-2.4 3.1-3.2 5s-1.4 4.2-1.6 6.7h26.5zm11.3 2.5c0-3.4.5-6.5 1.6-9.3 1-2.7 2.4-5 4.1-6.9 1.7-1.8 3.7-3.2 6-4.2s4.7-1.5 7.2-1.5c2.9 0 5.3.5 7.2 1.6 1.9 1 3.6 2.2 5 3.5l-2.2 2.7c-1.3-1.3-2.8-2.3-4.4-3.1-1.6-.8-3.4-1.2-5.4-1.2-2.1 0-4.1.4-5.9 1.3-1.8.9-3.4 2.2-4.7 3.8-1.4 1.6-2.4 3.6-3.2 5.8s-1.2 4.7-1.2 7.5c0 2.7.4 5.2 1.1 7.4s1.7 4.2 3 5.8 2.9 2.9 4.7 3.7c1.9.9 3.9 1.3 6.2 1.3 2.2 0 4.2-.5 6.1-1.4 1.9-.9 3.5-2 5-3.4l2 2.6c-1.8 1.6-3.8 2.9-5.9 4-2.2 1-4.6 1.6-7.2 1.6-2.7 0-5.2-.5-7.5-1.5s-4.3-2.4-5.9-4.2c-1.7-1.8-3-4.1-4-6.8-1.2-2.6-1.7-5.7-1.7-9.1zm43.1-17.5h-6.5v-2.9l6.5-.3.5-12h3.3v12h12v3.3h-12v27c0 1.3.1 2.5.3 3.6s.6 2 1.1 2.8 1.2 1.4 2.1 1.8c.9.4 2.1.6 3.5.6.8 0 1.7-.1 2.6-.4.9-.3 1.8-.6 2.5-.9l1 3.1c-1.2.5-2.4.8-3.6 1.1-1.2.3-2.2.4-3.1.4-2 0-3.7-.3-5-.9-1.3-.6-2.4-1.5-3.2-2.5-.8-1.1-1.4-2.4-1.7-4s-.5-3.2-.5-5.1v-26.7h.2z" class="st2"/><path d="M564.7 256.7L294.1 524.2l-13.5-28L562.5 253zm3.5 10.4L320 582l-13.6-28 259.2-291.1zm-4.9-15l-281.9 243-13.5-28.1 293.4-218.6z" class="st3"/><path d="M379.4 496.8h234.8" class="st4"/><path d="M624.8 496.8l-15 6.1 3.6-6.1-3.6-6.1z" class="st2"/><path d="M309.7 564.2h304.5" class="st4"/><path d="M624.8 564.2l-15 6.1 3.6-6.1-3.6-6.1z" class="st2"/><path d="M566.1 261.5L306.6 553.1 293.1 525l270.4-267.7zm-3.2-14.3L268.4 466.1 254.9 438l305.9-194.4zm-1.2-4.2L255.4 437.4l-13.5-28 317.7-170.1z" class="st3"/><path d="M560.6 238.8L242.8 408.7l-13.6-28 329.4-145.6z" class="st3"/><path d="M174.862 370.59l44.045-19.574 110.42 248.463-44.046 19.57z" class="st5"/><circle cx="295.7" cy="566.1" r="2" class="st2"/><circle cx="301.7" cy="555.8" r="1" class="st2"/><circle cx="299.9" cy="586.7" r="1" class="st2"/><circle cx="309" cy="593.2" r="1.8" class="st2"/><circle cx="301.7" cy="603.4" r="2.6" class="st2"/><circle cx="305" cy="575.4" r="1.5" class="st2"/><circle cx="272.1" cy="520.8" r="2" class="st2"/><circle cx="278.2" cy="510.4" r="1" class="st2"/><circle cx="276.3" cy="541.3" r="1" class="st2"/><circle cx="285.4" cy="547.8" r="1.8" class="st2"/><circle cx="278.2" cy="558" r="2.6" class="st2"/><circle cx="281.4" cy="530" r="1.5" class="st2"/><circle cx="246.9" cy="476.3" r="2" class="st2"/><circle cx="253" cy="465.9" r="1" class="st2"/><circle cx="251.1" cy="496.8" r="1" class="st2"/><circle cx="260.2" cy="503.3" r="1.8" class="st2"/><circle cx="253" cy="513.5" r="2.6" class="st2"/><circle cx="256.2" cy="485.5" r="1.5" class="st2"/><circle cx="225.3" cy="429.9" r="2" class="st2"/><circle cx="231.3" cy="419.5" r="1" class="st2"/><circle cx="229.5" cy="450.5" r="1" class="st2"/><circle cx="238.6" cy="456.9" r="1.8" class="st2"/><circle cx="231.3" cy="467.1" r="2.6" class="st2"/><circle cx="234.6" cy="439.2" r="1.5" class="st2"/><circle cx="202.7" cy="384.1" r="2" class="st2"/><circle cx="208.7" cy="373.7" r="1" class="st2"/><circle cx="206.9" cy="404.6" r="1" class="st2"/><circle cx="216" cy="411.1" r="1.8" class="st2"/><circle cx="208.7" cy="421.3" r="2.6" class="st2"/><circle cx="212" cy="393.3" r="1.5" class="st2"/><path d="M596.9 341.1l113.2-156.5L518 164.9z" class="st6"/><path d="M598 330.2l102.1-141.1-173.3-17.8z" class="st7"/><path d="M425.9 429.3l188.3-.4" class="st4"/><path d="M624.8 428.8l-14.9 6.2 3.5-6.1-3.6-6.1z" class="st2"/><circle cx="658.8" cy="429" r="23.2" class="st2"/><path d="M646.7 429.4c0-1.6.3-3 .8-4.3s1.2-2.4 2-3.2 1.8-1.6 2.9-2 2.2-.7 3.4-.7c1.3 0 2.5.2 3.5.7s1.9 1.1 2.5 1.9c.7.8 1.2 1.8 1.5 3s.5 2.4.5 3.8c0 .9-.1 1.6-.2 2.2h-12.5c.2 1.8.8 3.2 1.9 4.1 1 1 2.3 1.4 3.9 1.4.9 0 1.7-.1 2.4-.4s1.5-.6 2.2-1.1l1.6 2.9c-.9.6-2 1.1-3.1 1.5-1.2.4-2.4.6-3.6.6-1.4 0-2.6-.2-3.8-.7s-2.2-1.1-3.1-2c-.9-.9-1.6-2-2.1-3.2-.4-1.4-.7-2.9-.7-4.5zm13.2-1.8c0-1.6-.3-2.8-1-3.7-.7-.9-1.7-1.3-3-1.3-1.2 0-2.2.4-3.1 1.3-.9.8-1.4 2.1-1.6 3.7h8.7zm7.3-.2h9.5v3.4h-9.5v-3.4z" class="st0"/><circle cx="658.8" cy="496.6" r="23.2" class="st2"/><path d="M646.7 497c0-1.6.3-3 .8-4.3s1.2-2.4 2-3.2 1.8-1.6 2.9-2 2.2-.7 3.4-.7c1.3 0 2.5.2 3.5.7s1.9 1.1 2.5 1.9c.7.8 1.2 1.8 1.5 3s.5 2.4.5 3.8c0 .9-.1 1.6-.2 2.2h-12.5c.2 1.8.8 3.2 1.9 4.1 1 1 2.3 1.4 3.9 1.4.9 0 1.7-.1 2.4-.4s1.5-.6 2.2-1.1l1.6 2.9c-.9.6-2 1.1-3.1 1.5-1.2.4-2.4.6-3.6.6-1.4 0-2.6-.2-3.8-.7s-2.2-1.1-3.1-2c-.9-.9-1.6-2-2.1-3.2-.4-1.4-.7-2.9-.7-4.5zm13.2-1.8c0-1.6-.3-2.8-1-3.7-.7-.9-1.7-1.3-3-1.3-1.2 0-2.2.4-3.1 1.3-.9.8-1.4 2.1-1.6 3.7h8.7zm7.3-.2h9.5v3.4h-9.5V495z" class="st0"/><circle cx="658.8" cy="564.2" r="23.2" class="st2"/><path d="M646.7 564.6c0-1.6.3-3 .8-4.3s1.2-2.4 2-3.2 1.8-1.6 2.9-2 2.2-.7 3.4-.7c1.3 0 2.5.2 3.5.7s1.9 1.1 2.5 1.9c.7.8 1.2 1.8 1.5 3s.5 2.4.5 3.8c0 .9-.1 1.6-.2 2.2h-12.5c.2 1.8.8 3.2 1.9 4.1 1 1 2.3 1.4 3.9 1.4.9 0 1.7-.1 2.4-.4.7-.3 1.5-.6 2.2-1.1l1.6 2.9c-.9.6-2 1.1-3.1 1.5-1.2.4-2.4.6-3.6.6-1.4 0-2.6-.2-3.8-.7s-2.2-1.1-3.1-2c-.9-.9-1.6-2-2.1-3.2-.4-1.4-.7-2.9-.7-4.5zm13.2-1.8c0-1.6-.3-2.8-1-3.7s-1.7-1.3-3-1.3c-1.2 0-2.2.4-3.1 1.3-.9.8-1.4 2.1-1.6 3.7h8.7zm7.3-.2h9.5v3.4h-9.5v-3.4z" class="st0"/></svg>