<?xml version="1.0" encoding="utf-8"?>
<!-- Generator: Adobe Illustrator 19.0.0, SVG Export Plug-In . SVG Version: 6.00 Build 0)  -->
<svg version="1.1" xmlns="http://www.w3.org/2000/svg" xmlns:xlink="http://www.w3.org/1999/xlink" x="0px" y="0px"
	 viewBox="0 0 1440 720" style="enable-background:new 0 0 1440 720;" xml:space="preserve">
<style type="text/css">
	.st0{fill:#FFFFFF;}
	.st1{fill:#C1DACB;}
	.st2{fill:#00A9B1;}
	.st3{fill:#FAD466;}
	.st4{fill:none;stroke:#29409A;stroke-width:4;stroke-miterlimit:10;}
	.st5{fill:none;stroke:#29409A;stroke-width:4;stroke-miterlimit:10;stroke-dasharray:12.386,12.386;}
	.st6{fill:#C55857;}
	.st7{fill:#29409A;}
	.st8{fill:#271E2A;}
	.st9{fill:none;stroke:#271E2A;stroke-width:4;stroke-miterlimit:10;}
	.st10{fill:none;stroke:#271E2A;stroke-width:4;stroke-miterlimit:10;stroke-dasharray:12.386,12.386;}
	.st11{fill:none;stroke:#271E2A;stroke-miterlimit:10;}
</style>
<g id="Layer_1">
	<g id="XMLID_231_">
		<rect id="XMLID_29_" x="402.8" y="432.3" class="st0" width="788.3" height="61.1"/>
		<g id="XMLID_21_">
			<path id="XMLID_28_" d="M1191.2,490.9c-7,0-14.1,0-21.1,0c-19.1,0-38.2,0-57.4,0c-28.3,0-56.6,0-84.8,0c-34.5,0-69,0-103.5,0
				c-37.8,0-75.6,0-113.4,0c-38.2,0-76.3,0-114.5,0c-35.6,0-71.1,0-106.7,0c-30.1,0-60.1,0-90.2,0c-21.6,0-43.2,0-64.8,0
				c-6.7,0-13.4,0-20.1,0c-3.4,0-7.2-0.5-10.6,0c-0.4,0.1-0.9,0-1.3,0c0.8,0.8,1.7,1.7,2.5,2.5c0-20.4,0-40.7,0-61.1
				c-0.8,0.8-1.7,1.7-2.5,2.5c7,0,14.1,0,21.1,0c19.1,0,38.2,0,57.4,0c28.3,0,56.6,0,84.8,0c34.5,0,69,0,103.5,0
				c37.8,0,75.6,0,113.4,0c38.2,0,76.3,0,114.5,0c35.6,0,71.1,0,106.7,0c30.1,0,60.1,0,90.2,0c21.6,0,43.2,0,64.8,0
				c6.7,0,13.4,0,20.1,0c3.4,0,7.2,0.5,10.6,0c0.4-0.1,0.9,0,1.3,0c-0.8-0.8-1.7-1.7-2.5-2.5c0,20.4,0,40.7,0,61.1c0,3.2,5,3.2,5,0
				c0-20.4,0-40.7,0-61.1c0-1.4-1.1-2.5-2.5-2.5c-7,0-14.1,0-21.1,0c-19.1,0-38.2,0-57.4,0c-28.3,0-56.6,0-84.8,0
				c-34.5,0-69,0-103.5,0c-37.8,0-75.6,0-113.4,0c-38.2,0-76.3,0-114.5,0c-35.6,0-71.1,0-106.7,0c-30.1,0-60.1,0-90.2,0
				c-21.6,0-43.2,0-64.8,0c-10.2,0-20.5-0.4-30.7,0c-0.4,0-0.9,0-1.3,0c-1.4,0-2.5,1.1-2.5,2.5c0,20.4,0,40.7,0,61.1
				c0,1.4,1.1,2.5,2.5,2.5c7,0,14.1,0,21.1,0c19.1,0,38.2,0,57.4,0c28.3,0,56.6,0,84.8,0c34.5,0,69,0,103.5,0c37.8,0,75.6,0,113.4,0
				c38.2,0,76.3,0,114.5,0c35.6,0,71.1,0,106.7,0c30.1,0,60.1,0,90.2,0c21.6,0,43.2,0,64.8,0c10.2,0,20.5,0.4,30.7,0
				c0.4,0,0.9,0,1.3,0C1194.4,495.9,1194.4,490.9,1191.2,490.9z"/>
		</g>
	</g>
	<g id="XMLID_200_">
		<path id="XMLID_229_" d="M368.9,248.8l-7.9-24.3h3.4l3.8,12c1,3.3,1.9,6.2,2.6,9.1h0.1c0.7-2.8,1.7-5.9,2.8-9l4.1-12h3.3
			l-8.7,24.3H368.9z"/>
		<path id="XMLID_227_" d="M386.8,224.6v24.3h-3.1v-24.3H386.8z"/>
		<path id="XMLID_225_" d="M391.9,245c1.4,0.9,3.5,1.6,5.6,1.6c3.2,0,5.1-1.7,5.1-4.1c0-2.3-1.3-3.6-4.6-4.8c-4-1.4-6.4-3.5-6.4-6.9
			c0-3.8,3.1-6.6,7.8-6.6c2.5,0,4.3,0.6,5.4,1.2l-0.9,2.6c-0.8-0.4-2.4-1.2-4.6-1.2c-3.3,0-4.6,2-4.6,3.6c0,2.3,1.5,3.4,4.8,4.7
			c4.1,1.6,6.2,3.6,6.2,7.1c0,3.7-2.8,7-8.5,7c-2.3,0-4.9-0.7-6.2-1.5L391.9,245z"/>
		<path id="XMLID_223_" d="M413.2,224.6v24.3H410v-24.3H413.2z"/>
		<path id="XMLID_218_" d="M418.6,224.9c1.4-0.3,3.5-0.5,5.7-0.5c3.1,0,5.1,0.5,6.7,1.8c1.3,0.9,2,2.4,2,4.3c0,2.3-1.5,4.4-4.1,5.3
			v0.1c2.3,0.6,5,2.5,5,6.1c0,2.1-0.8,3.7-2.1,4.9c-1.7,1.5-4.4,2.3-8.4,2.3c-2.2,0-3.8-0.1-4.9-0.3V224.9z M421.8,234.8h2.8
			c3.3,0,5.3-1.7,5.3-4.1c0-2.8-2.2-4-5.3-4c-1.4,0-2.3,0.1-2.8,0.2V234.8z M421.8,246.5c0.6,0.1,1.5,0.1,2.6,0.1
			c3.2,0,6.2-1.2,6.2-4.7c0-3.3-2.8-4.7-6.3-4.7h-2.6V246.5z"/>
		<path id="XMLID_216_" d="M438.2,224.6h3.1v21.6h10.4v2.6h-13.5V224.6z"/>
		<path id="XMLID_214_" d="M467.7,237.5h-9.4v8.7h10.5v2.6h-13.6v-24.3h13.1v2.6h-10v7.7h9.4V237.5z"/>
		<path id="XMLID_212_" d="M480.5,224.6h3.1v21.6H494v2.6h-13.5V224.6z"/>
		<path id="XMLID_208_" d="M500.6,224.6v24.3h-3.1v-24.3H500.6z"/>
		<path id="XMLID_206_" d="M524.6,247.8c-1.4,0.5-4.2,1.3-7.5,1.3c-3.7,0-6.7-0.9-9.1-3.2c-2.1-2-3.4-5.3-3.4-9
			c0-7.2,5-12.5,13.1-12.5c2.8,0,5,0.6,6,1.1l-0.8,2.6c-1.3-0.6-2.9-1-5.4-1c-5.9,0-9.8,3.7-9.8,9.8c0,6.2,3.7,9.8,9.4,9.8
			c2.1,0,3.5-0.3,4.2-0.6v-7.2h-4.9v-2.5h8V247.8z"/>
		<path id="XMLID_204_" d="M532.5,224.6v10.2h11.7v-10.2h3.2v24.3h-3.2v-11.4h-11.7v11.4h-3.1v-24.3H532.5z"/>
		<path id="XMLID_202_" d="M557.4,227.2H550v-2.7h18v2.7h-7.4v21.6h-3.2V227.2z"/>
	</g>
	<g id="XMLID_6_">
		<path id="XMLID_195_" d="M904.4,248.8l-3.1-5.4c-1.3-2.1-2.1-3.4-2.8-4.8h-0.1c-0.7,1.4-1.4,2.7-2.6,4.8l-2.9,5.3h-3.6l7.4-12.3
			l-7.1-12h3.6l3.2,5.7c0.9,1.6,1.6,2.8,2.2,4.1h0.1c0.7-1.4,1.3-2.6,2.2-4.1l3.3-5.7h3.6l-7.4,11.8l7.6,12.5H904.4z"/>
		<path id="XMLID_180_" d="M918.1,237.9v2.3h-8.9v-2.3H918.1z"/>
		<path id="XMLID_135_" d="M921.9,224.9c1.6-0.3,3.9-0.5,6-0.5c3.3,0,5.5,0.6,7,2c1.2,1.1,1.9,2.7,1.9,4.6c0,3.2-2,5.3-4.6,6.2v0.1
			c1.9,0.6,3,2.4,3.6,4.9c0.8,3.4,1.4,5.7,1.9,6.7h-3.2c-0.4-0.7-0.9-2.8-1.6-5.8c-0.7-3.3-2-4.6-4.9-4.7h-3v10.5h-3.1V224.9z
			 M925.1,235.9h3.2c3.3,0,5.5-1.8,5.5-4.6c0-3.1-2.3-4.5-5.6-4.5c-1.5,0-2.6,0.1-3.1,0.3V235.9z"/>
		<path id="XMLID_26_" d="M945.4,241.2l-2.5,7.6h-3.2l8.2-24.3h3.8l8.3,24.3h-3.3l-2.6-7.6H945.4z M953.4,238.8l-2.4-7
			c-0.5-1.6-0.9-3-1.3-4.4h-0.1c-0.4,1.4-0.8,2.9-1.2,4.4l-2.4,7H953.4z"/>
		<path id="XMLID_8_" d="M966.1,248.8v-10.3l-7.7-14h3.6l3.4,6.7c0.9,1.8,1.7,3.3,2.4,5h0.1c0.7-1.6,1.5-3.2,2.4-5l3.5-6.7h3.6
			l-8.1,13.9v10.3H966.1z"/>
	</g>
</g>
<g id="Layer_2">
	<g id="XMLID_438_">
		<circle id="XMLID_193_" class="st1" cx="450.4" cy="463" r="21.3"/>
		<g id="XMLID_181_">
			<path id="XMLID_185_" class="st2" d="M469.2,463c-0.3,10.3-8.3,18.8-18.8,18.8c-10.3,0-18.8-8.6-18.8-18.8
				c0-10,8.1-18.4,18.1-18.8C460.5,443.8,468.9,452.5,469.2,463c0.1,3.2,5.1,3.2,5,0c-0.4-13-10.6-23.8-23.8-23.8
				c-13,0-23.8,10.9-23.8,23.8c0,13,10.9,23.8,23.8,23.8c13.3,0,23.4-10.9,23.8-23.8C474.3,459.8,469.3,459.8,469.2,463z"/>
		</g>
	</g>
	<g id="XMLID_429_">
		<line id="XMLID_192_" class="st3" x1="436.2" y1="463" x2="464.6" y2="463"/>
		<g id="XMLID_187_">
			<path id="XMLID_191_" class="st2" d="M436.2,465.5c9.5,0,19,0,28.4,0c3.2,0,3.2-5,0-5c-9.5,0-19,0-28.4,0
				C432.9,460.5,432.9,465.5,436.2,465.5L436.2,465.5z"/>
		</g>
	</g>
	<g id="XMLID_420_">
		<circle id="XMLID_179_" class="st1" cx="507.2" cy="463" r="21.3"/>
		<g id="XMLID_167_">
			<path id="XMLID_171_" class="st2" d="M526.1,463c-0.3,10.3-8.3,18.8-18.8,18.8c-10.3,0-18.8-8.6-18.8-18.8
				c0-10,8.1-18.4,18.1-18.8C517.3,443.8,525.7,452.5,526.1,463c0.1,3.2,5.1,3.2,5,0c-0.4-13-10.6-23.8-23.8-23.8
				c-13,0-23.8,10.9-23.8,23.8c0,13,10.9,23.8,23.8,23.8c13.3,0,23.4-10.9,23.8-23.8C531.2,459.8,526.2,459.8,526.1,463z"/>
		</g>
	</g>
	<g id="XMLID_411_">
		<line id="XMLID_178_" class="st3" x1="493" y1="463" x2="521.5" y2="463"/>
		<g id="XMLID_173_">
			<path id="XMLID_177_" class="st2" d="M493,465.5c9.5,0,19,0,28.4,0c3.2,0,3.2-5,0-5c-9.5,0-19,0-28.4,0
				C489.8,460.5,489.8,465.5,493,465.5L493,465.5z"/>
		</g>
	</g>
	<g id="XMLID_402_">
		<circle id="XMLID_164_" class="st1" cx="564.1" cy="463" r="21.3"/>
		<g id="XMLID_151_">
			<path id="XMLID_156_" class="st2" d="M583,463c-0.3,10.3-8.3,18.8-18.8,18.8c-10.3,0-18.8-8.6-18.8-18.8c0-10,8.1-18.4,18.1-18.8
				C574.2,443.8,582.6,452.5,583,463c0.1,3.2,5.1,3.2,5,0c-0.4-13-10.6-23.8-23.8-23.8c-13,0-23.8,10.9-23.8,23.8
				c0,13,10.9,23.8,23.8,23.8c13.3,0,23.4-10.9,23.8-23.8C588.1,459.8,583.1,459.8,583,463z"/>
		</g>
	</g>
	<g id="XMLID_393_">
		<line id="XMLID_163_" class="st3" x1="549.9" y1="463" x2="578.3" y2="463"/>
		<g id="XMLID_158_">
			<path id="XMLID_162_" class="st2" d="M549.9,465.5c9.5,0,19,0,28.4,0c3.2,0,3.2-5,0-5c-9.5,0-19,0-28.4,0
				C546.7,460.5,546.7,465.5,549.9,465.5L549.9,465.5z"/>
		</g>
	</g>
	<g id="XMLID_384_">
		<circle id="XMLID_149_" class="st1" cx="621" cy="463" r="21.3"/>
		<g id="XMLID_136_">
			<path id="XMLID_141_" class="st2" d="M639.8,463c-0.3,10.3-8.3,18.8-18.8,18.8c-10.3,0-18.8-8.6-18.8-18.8
				c0-10,8.1-18.4,18.1-18.8C631.1,443.8,639.5,452.5,639.8,463c0.1,3.2,5.1,3.2,5,0c-0.4-13-10.6-23.8-23.8-23.8
				c-13,0-23.8,10.9-23.8,23.8c0,13,10.9,23.8,23.8,23.8c13.3,0,23.4-10.9,23.8-23.8C644.9,459.8,639.9,459.8,639.8,463z"/>
		</g>
	</g>
	<g id="XMLID_375_">
		<line id="XMLID_148_" class="st3" x1="606.8" y1="463" x2="635.2" y2="463"/>
		<g id="XMLID_143_">
			<path id="XMLID_147_" class="st2" d="M606.8,465.5c9.5,0,19,0,28.4,0c3.2,0,3.2-5,0-5c-9.5,0-19,0-28.4,0
				C603.6,460.5,603.6,465.5,606.8,465.5L606.8,465.5z"/>
		</g>
	</g>
	<g id="XMLID_366_">
		<circle id="XMLID_134_" class="st1" cx="677.9" cy="463" r="21.3"/>
		<g id="XMLID_122_">
			<path id="XMLID_126_" class="st2" d="M696.7,463c-0.3,10.3-8.3,18.8-18.8,18.8c-10.3,0-18.8-8.6-18.8-18.8
				c0-10,8.1-18.4,18.1-18.8C688,443.8,696.4,452.5,696.7,463c0.1,3.2,5.1,3.2,5,0c-0.4-13-10.6-23.8-23.8-23.8
				c-13,0-23.8,10.9-23.8,23.8c0,13,10.9,23.8,23.8,23.8c13.3,0,23.4-10.9,23.8-23.8C701.8,459.8,696.8,459.8,696.7,463z"/>
		</g>
	</g>
	<g id="XMLID_357_">
		<line id="XMLID_133_" class="st3" x1="663.7" y1="463" x2="692.1" y2="463"/>
		<g id="XMLID_128_">
			<path id="XMLID_132_" class="st2" d="M663.7,465.5c9.5,0,19,0,28.4,0c3.2,0,3.2-5,0-5c-9.5,0-19,0-28.4,0
				C660.4,460.5,660.4,465.5,663.7,465.5L663.7,465.5z"/>
		</g>
	</g>
	<g id="XMLID_348_">
		<circle id="XMLID_120_" class="st1" cx="731.9" cy="463" r="21.3"/>
		<g id="XMLID_108_">
			<path id="XMLID_112_" class="st2" d="M750.7,463c-0.3,10.3-8.3,18.8-18.8,18.8c-10.3,0-18.8-8.6-18.8-18.8
				c0-10,8.1-18.4,18.1-18.8C742,443.8,750.4,452.5,750.7,463c0.1,3.2,5.1,3.2,5,0c-0.4-13-10.6-23.8-23.8-23.8
				c-13,0-23.8,10.9-23.8,23.8c0,13,10.9,23.8,23.8,23.8c13.3,0,23.4-10.9,23.8-23.8C755.9,459.8,750.9,459.8,750.7,463z"/>
		</g>
	</g>
	<g id="XMLID_339_">
		<line id="XMLID_119_" class="st3" x1="717.7" y1="463" x2="746.1" y2="463"/>
		<g id="XMLID_114_">
			<path id="XMLID_118_" class="st2" d="M717.7,465.5c9.5,0,19,0,28.4,0c3.2,0,3.2-5,0-5c-9.5,0-19,0-28.4,0
				C714.5,460.5,714.5,465.5,717.7,465.5L717.7,465.5z"/>
		</g>
	</g>
	<g id="XMLID_330_">
		<circle id="XMLID_106_" class="st1" cx="789.7" cy="463" r="21.3"/>
		<g id="XMLID_94_">
			<path id="XMLID_98_" class="st2" d="M808.5,463c-0.3,10.3-8.3,18.8-18.8,18.8c-10.3,0-18.8-8.6-18.8-18.8
				c0-10,8.1-18.4,18.1-18.8C799.8,443.8,808.2,452.5,808.5,463c0.1,3.2,5.1,3.2,5,0c-0.4-13-10.6-23.8-23.8-23.8
				c-13,0-23.8,10.9-23.8,23.8c0,13,10.9,23.8,23.8,23.8c13.3,0,23.4-10.9,23.8-23.8C813.7,459.8,808.7,459.8,808.5,463z"/>
		</g>
	</g>
	<g id="XMLID_321_">
		<line id="XMLID_105_" class="st3" x1="775.5" y1="463" x2="803.9" y2="463"/>
		<g id="XMLID_100_">
			<path id="XMLID_104_" class="st2" d="M775.5,465.5c9.5,0,19,0,28.4,0c3.2,0,3.2-5,0-5c-9.5,0-19,0-28.4,0
				C772.3,460.5,772.3,465.5,775.5,465.5L775.5,465.5z"/>
		</g>
	</g>
	<g id="XMLID_312_">
		<circle id="XMLID_92_" class="st1" cx="846.6" cy="463" r="21.3"/>
		<g id="XMLID_80_">
			<path id="XMLID_84_" class="st2" d="M865.4,463c-0.3,10.3-8.3,18.8-18.8,18.8c-10.3,0-18.8-8.6-18.8-18.8
				c0-10,8.1-18.4,18.1-18.8C856.7,443.8,865.1,452.5,865.4,463c0.1,3.2,5.1,3.2,5,0c-0.4-13-10.6-23.8-23.8-23.8
				c-13,0-23.8,10.9-23.8,23.8c0,13,10.9,23.8,23.8,23.8c13.3,0,23.4-10.9,23.8-23.8C870.5,459.8,865.5,459.8,865.4,463z"/>
		</g>
	</g>
	<g id="XMLID_303_">
		<line id="XMLID_91_" class="st3" x1="832.4" y1="463" x2="860.8" y2="463"/>
		<g id="XMLID_86_">
			<path id="XMLID_90_" class="st2" d="M832.4,465.5c9.5,0,19,0,28.4,0c3.2,0,3.2-5,0-5c-9.5,0-19,0-28.4,0
				C829.2,460.5,829.2,465.5,832.4,465.5L832.4,465.5z"/>
		</g>
	</g>
	<g id="XMLID_294_">
		<circle id="XMLID_78_" class="st1" cx="903.5" cy="463" r="21.3"/>
		<g id="XMLID_66_">
			<path id="XMLID_70_" class="st2" d="M922.3,463c-0.3,10.3-8.3,18.8-18.8,18.8c-10.3,0-18.8-8.6-18.8-18.8
				c0-10,8.1-18.4,18.1-18.8C913.5,443.8,922,452.5,922.3,463c0.1,3.2,5.1,3.2,5,0c-0.4-13-10.6-23.8-23.8-23.8
				c-13,0-23.8,10.9-23.8,23.8c0,13,10.9,23.8,23.8,23.8c13.3,0,23.4-10.9,23.8-23.8C927.4,459.8,922.4,459.8,922.3,463z"/>
		</g>
	</g>
	<g id="XMLID_285_">
		<line id="XMLID_77_" class="st3" x1="889.3" y1="463" x2="917.7" y2="463"/>
		<g id="XMLID_72_">
			<path id="XMLID_76_" class="st2" d="M889.3,465.5c9.5,0,19,0,28.4,0c3.2,0,3.2-5,0-5c-9.5,0-19,0-28.4,0
				C886,460.5,886,465.5,889.3,465.5L889.3,465.5z"/>
		</g>
	</g>
	<g id="XMLID_39_">
		<circle id="XMLID_326_" class="st1" cx="959.5" cy="463" r="21.3"/>
		<g id="XMLID_313_">
			<path id="XMLID_317_" class="st2" d="M978.4,463c-0.3,10.3-8.3,18.8-18.8,18.8c-10.3,0-18.8-8.6-18.8-18.8
				c0-10,8.1-18.4,18.1-18.8C969.6,443.8,978,452.5,978.4,463c0.1,3.2,5.1,3.2,5,0c-0.4-13-10.6-23.8-23.8-23.8
				c-13,0-23.8,10.9-23.8,23.8c0,13,10.9,23.8,23.8,23.8c13.3,0,23.4-10.9,23.8-23.8C983.5,459.8,978.5,459.8,978.4,463z"/>
		</g>
	</g>
	<g id="XMLID_38_">
		<line id="XMLID_325_" class="st3" x1="945.3" y1="463" x2="973.8" y2="463"/>
		<g id="XMLID_319_">
			<path id="XMLID_324_" class="st2" d="M945.3,465.5c9.5,0,19,0,28.4,0c3.2,0,3.2-5,0-5c-9.5,0-19,0-28.4,0
				C942.1,460.5,942.1,465.5,945.3,465.5L945.3,465.5z"/>
		</g>
	</g>
	<g id="XMLID_36_">
		<circle id="XMLID_310_" class="st1" cx="1017.3" cy="463" r="21.3"/>
		<g id="XMLID_297_">
			<path id="XMLID_301_" class="st2" d="M1036.2,463c-0.3,10.3-8.3,18.8-18.8,18.8c-10.3,0-18.8-8.6-18.8-18.8
				c0-10,8.1-18.4,18.1-18.8C1027.4,443.8,1035.8,452.5,1036.2,463c0.1,3.2,5.1,3.2,5,0c-0.4-13-10.6-23.8-23.8-23.8
				c-13,0-23.8,10.9-23.8,23.8c0,13,10.9,23.8,23.8,23.8c13.3,0,23.4-10.9,23.8-23.8C1041.3,459.8,1036.3,459.8,1036.2,463z"/>
		</g>
	</g>
	<g id="XMLID_11_">
		<line id="XMLID_309_" class="st3" x1="1003.1" y1="463" x2="1031.5" y2="463"/>
		<g id="XMLID_304_">
			<path id="XMLID_308_" class="st2" d="M1003.1,465.5c9.5,0,19,0,28.4,0c3.2,0,3.2-5,0-5c-9.5,0-19,0-28.4,0
				C999.9,460.5,999.9,465.5,1003.1,465.5L1003.1,465.5z"/>
		</g>
	</g>
	<g id="XMLID_5_">
		<circle id="XMLID_295_" class="st1" cx="1074.2" cy="463" r="21.3"/>
		<g id="XMLID_281_">
			<path id="XMLID_286_" class="st2" d="M1093,463c-0.3,10.3-8.3,18.8-18.8,18.8c-10.3,0-18.8-8.6-18.8-18.8
				c0-10,8.1-18.4,18.1-18.8C1084.3,443.8,1092.7,452.5,1093,463c0.1,3.2,5.1,3.2,5,0c-0.4-13-10.6-23.8-23.8-23.8
				c-13,0-23.8,10.9-23.8,23.8c0,13,10.9,23.8,23.8,23.8c13.3,0,23.4-10.9,23.8-23.8C1098.1,459.8,1093.1,459.8,1093,463z"/>
		</g>
	</g>
	<g id="XMLID_4_">
		<line id="XMLID_293_" class="st3" x1="1060" y1="463" x2="1088.4" y2="463"/>
		<g id="XMLID_288_">
			<path id="XMLID_292_" class="st2" d="M1060,465.5c9.5,0,19,0,28.4,0c3.2,0,3.2-5,0-5c-9.5,0-19,0-28.4,0
				C1056.8,460.5,1056.8,465.5,1060,465.5L1060,465.5z"/>
		</g>
	</g>
	<g id="XMLID_3_">
		<circle id="XMLID_279_" class="st1" cx="1131.1" cy="463" r="21.3"/>
		<g id="XMLID_265_">
			<path id="XMLID_270_" class="st2" d="M1149.9,463c-0.3,10.3-8.3,18.8-18.8,18.8c-10.3,0-18.8-8.6-18.8-18.8
				c0-10,8.1-18.4,18.1-18.8C1141.2,443.8,1149.6,452.5,1149.9,463c0.1,3.2,5.1,3.2,5,0c-0.4-13-10.6-23.8-23.8-23.8
				c-13,0-23.8,10.9-23.8,23.8c0,13,10.9,23.8,23.8,23.8c13.3,0,23.4-10.9,23.8-23.8C1155,459.8,1150,459.8,1149.9,463z"/>
		</g>
	</g>
	<g id="XMLID_1_">
		<line id="XMLID_278_" class="st3" x1="1116.9" y1="463" x2="1145.3" y2="463"/>
		<g id="XMLID_272_">
			<path id="XMLID_277_" class="st2" d="M1116.9,465.5c9.5,0,19,0,28.4,0c3.2,0,3.2-5,0-5c-9.5,0-19,0-28.4,0
				C1113.6,460.5,1113.6,465.5,1116.9,465.5L1116.9,465.5z"/>
		</g>
	</g>
	<g id="XMLID_276_">
		<circle id="XMLID_64_" class="st1" cx="809.1" cy="305.7" r="21.3"/>
		<g id="XMLID_51_">
			<path id="XMLID_55_" class="st2" d="M827.9,305.7c-0.3,10.3-8.3,18.8-18.8,18.8c-10.3,0-18.8-8.6-18.8-18.8
				c0-10,8.1-18.4,18.1-18.8C819.2,286.5,827.6,295.2,827.9,305.7c0.1,3.2,5.1,3.2,5,0c-0.4-13-10.6-23.8-23.8-23.8
				c-13,0-23.8,10.9-23.8,23.8c0,13,10.9,23.8,23.8,23.8c13.3,0,23.4-10.9,23.8-23.8C833,302.5,828,302.5,827.9,305.7z"/>
		</g>
	</g>
	<g id="XMLID_267_">
		<line id="XMLID_63_" class="st3" x1="794.9" y1="305.7" x2="823.3" y2="305.7"/>
		<g id="XMLID_57_">
			<path id="XMLID_62_" class="st2" d="M794.9,308.2c9.5,0,19,0,28.4,0c3.2,0,3.2-5,0-5c-9.5,0-19,0-28.4,0
				C791.7,303.2,791.6,308.2,794.9,308.2L794.9,308.2z"/>
		</g>
	</g>
</g>
<g id="Layer_4">
	<g id="XMLID_30_">
		<g id="XMLID_32_">
			<line id="XMLID_37_" class="st4" x1="691.2" y1="423.6" x2="695.5" y2="419.3"/>
			<line id="XMLID_34_" class="st5" x1="704.2" y1="410.6" x2="769.9" y2="344.9"/>
			<line id="XMLID_33_" class="st4" x1="774.3" y1="340.5" x2="778.5" y2="336.3"/>
		</g>
	</g>
</g>
<g id="Layer_3">
	<g id="XMLID_253_">
		<g id="XMLID_42_">
			<path id="XMLID_46_" class="st6" d="M385.1,275.5c11.8,12.5,1.3,28.8,6.2,43.3c2.2,6.6,7.5,12.3,13.9,15.1
				c6.6,2.9,13.7,2.3,20.6,1.6c7.5-0.8,15.4-1.6,21.9,3c7.6,5.3,9.5,13.5,8.8,22.3c-0.5,6.8-1.9,13.7-0.5,20.5c1.4,7,6,13.1,12,16.8
				c15.2,9.2,34.3-4.6,48,8.4c2.3,2.2,5.9-1.3,3.5-3.5c-5.2-4.9-11.3-7.4-18.4-7.6c-7.3-0.2-14.5,1.8-21.8,1.2
				c-8.9-0.8-16.6-7.2-18.5-16c-1.6-7.3,0.5-14.9,0.7-22.3c0.5-14.2-8.7-26.8-23.4-28.2c-7.1-0.7-14.1,1.1-21.2,1.2
				c-8.9,0-17.4-4.4-20.7-13.1c-3-7.7-0.6-16.2-0.2-24.1c0.5-8.4-1.6-15.8-7.5-22.1C386.4,269.6,382.9,273.1,385.1,275.5
				L385.1,275.5z"/>
		</g>
	</g>
	<g id="XMLID_246_">
		<g id="XMLID_245_">
			<path id="XMLID_257_" class="st7" d="M533.7,275.5c6.5,7.1-0.7,19.1-2.1,27.1c-1.3,7.7,0.9,16,9.2,18.5c8.4,2.6,17.2-2.4,25.3-4
				c4.7-0.9,10-0.7,12.7,3.9c2.3,4.1,0.8,9.4-0.4,13.6c-2.1,7.6-6.1,16.8-1.5,24.3c4.8,7.8,14,7.1,21.8,4.9c7.2-2,21.5-8.2,24.6,2.8
				c2.4,8.6-4.4,18.3-4.8,26.9c-0.5,9.4,6.7,16.1,16,15.4c8.9-0.6,22.5-9.7,30.3-2.5c2.4,2.2,5.9-1.4,3.5-3.5
				c-6.8-6.2-15.6-3.8-23.5-1.4c-8,2.4-21.6,5.4-21.2-7.5c0.2-9,6-17.1,5.1-26.2c-0.9-8.5-8.3-13.2-16.4-12.5
				c-8.3,0.7-18.1,7.3-26.4,4.6c-10.9-3.6-4-18.3-2.1-25.5c2-7.6,2.1-16.5-5.6-21c-7.7-4.4-17.2,0-24.9,2.1
				c-4.9,1.3-11.1,2.6-14.9-1.8c-3.4-4.1-2-9.8-0.7-14.4c2.5-8.9,7-19.3-0.3-27.2C535.1,269.6,531.6,273.1,533.7,275.5L533.7,275.5z
				"/>
		</g>
	</g>
	<g id="XMLID_347_">
		<g id="XMLID_350_">
			<path id="XMLID_354_" class="st8" d="M927.3,266.7c2.9,3.4-6.3,15.9-7.8,19.3c-2.1,4.4-4.7,11.7,1.4,14.3
				c5.5,2.3,12.6-2.6,17.2-5.1c3.1-1.7,6.4-3.8,10-4.7c3.8-0.9,3.9,1.2,2.9,4.3c-1.8,5.3-19.4,30.9-2.6,29.8
				c7.1-0.5,13.5-6,19.7-8.9c1.5-0.7,5.8-3,7.2-1.1c1.4,2-2.1,7.6-2.9,9.2c-2.8,5.3-8.4,12.6-7.5,19c0.9,6,7.1,6.1,11.7,4.4
				c3.5-1.3,6.8-3.2,10.1-5c3-1.6,6.7-4.3,10.1-4.4c6.4-0.4-2.5,13.3-3.8,15.7c-2.3,4.3-6.9,11.8-3,16.5c4.1,4.9,11.6,0.8,16-1.5
				c2.5-1.3,15.4-10,17-5.8c1,2.6-2.4,7.5-3.5,9.6c-1.8,3.5-3.9,6.9-5.4,10.5c-2.1,5-2.9,12.6,4.4,13.2c7.6,0.6,15.3-6.5,21.9-9.3
				c2.3-1,6.6-3,6.4,1.1c-0.2,3.7-3.2,7.9-4.9,11c-2.8,5.1-8.6,13.6-3.8,19.2c2.1,2.4,5.6-1.1,3.5-3.5c-2.9-3.4,6.3-15.9,7.8-19.3
				c2.1-4.4,4.7-11.7-1.4-14.3c-5.5-2.3-12.6,2.6-17.2,5.1c-3.1,1.7-6.4,3.8-10,4.7c-3.8,0.9-3.9-1.2-2.9-4.3
				c1.8-5.3,19.4-30.9,2.6-29.8c-7.1,0.5-13.5,6-19.7,8.9c-1.5,0.7-5.8,3-7.2,1.1c-1.4-2,2.1-7.6,2.9-9.2c2.8-5.3,8.4-12.6,7.5-19
				c-0.9-6-7.1-6.1-11.7-4.4c-3.5,1.3-6.8,3.2-10.1,5c-3,1.6-6.7,4.3-10.1,4.4c-6.4,0.4,2.5-13.3,3.8-15.7c2.3-4.3,6.9-11.8,3-16.5
				c-4.1-4.9-11.6-0.8-16,1.5c-2.5,1.3-15.4,10-17,5.8c-1-2.6,2.4-7.5,3.5-9.6c1.8-3.5,3.9-6.9,5.4-10.5c2.1-5,2.9-12.6-4.4-13.2
				c-7.6-0.5-15.3,6.5-21.9,9.3c-2.3,1-6.6,3-6.4-1.1c0.2-3.7,3.2-7.9,4.9-11c2.8-5.1,8.6-13.6,3.8-19.2
				C928.8,260.8,925.2,264.3,927.3,266.7L927.3,266.7z"/>
		</g>
	</g>
	<polygon id="XMLID_237_" class="st6" points="507.6,406.7 539.4,423.6 519.3,393.7 520,406.1 	"/>
	<polygon id="XMLID_236_" class="st7" points="656.3,406.7 688.1,423.6 668,393.7 668.6,406.1 	"/>
	<polygon id="XMLID_346_" class="st8" points="1032.4,417.8 1065.4,432.3 1043.1,404 1044.7,416.3 	"/>
	<polygon id="XMLID_233_" class="st7" points="774.1,353.7 790.9,321.9 761.1,342.1 773.4,341.4 	"/>
	<g id="XMLID_337_">
		<circle id="XMLID_345_" class="st1" cx="1177" cy="305.2" r="21.3"/>
		<g id="XMLID_340_">
			<path id="XMLID_344_" class="st2" d="M1195.8,305.2c-0.3,10.3-8.3,18.8-18.8,18.8c-10.3,0-18.8-8.6-18.8-18.8
				c0-10,8.1-18.4,18.1-18.8C1187.1,286,1195.5,294.7,1195.8,305.2c0.1,3.2,5.1,3.2,5,0c-0.4-13-10.6-23.8-23.8-23.8
				c-13,0-23.8,10.9-23.8,23.8c0,13,10.9,23.8,23.8,23.8c13.3,0,23.4-10.9,23.8-23.8C1200.9,302,1195.9,302,1195.8,305.2z"/>
		</g>
	</g>
	<g id="XMLID_328_">
		<line id="XMLID_336_" class="st3" x1="1162.8" y1="305.2" x2="1191.2" y2="305.2"/>
		<g id="XMLID_331_">
			<path id="XMLID_335_" class="st2" d="M1162.8,307.7c9.5,0,19,0,28.4,0c3.2,0,3.2-5,0-5c-9.5,0-19,0-28.4,0
				C1159.5,302.7,1159.5,307.7,1162.8,307.7L1162.8,307.7z"/>
		</g>
	</g>
	<g id="XMLID_259_">
		<g id="XMLID_280_">
			<line id="XMLID_327_" class="st9" x1="1059.1" y1="423.1" x2="1063.3" y2="418.8"/>
			<line id="XMLID_311_" class="st10" x1="1072.1" y1="410.1" x2="1137.8" y2="344.4"/>
			<line id="XMLID_296_" class="st9" x1="1142.2" y1="340" x2="1146.4" y2="335.8"/>
		</g>
	</g>
	<g id="XMLID_242_">
		<polygon id="XMLID_258_" class="st8" points="1141.9,353.2 1158.8,321.4 1129,341.6 1141.3,340.9 		"/>
		<polygon id="XMLID_255_" class="st11" points="1141.9,353.2 1158.8,321.4 1129,341.6 1141.3,340.9 		"/>
	</g>
</g>
</svg>
