<?xml version="1.0" encoding="utf-8"?>
<!-- Generator: Adobe Illustrator 19.0.0, SVG Export Plug-In . SVG Version: 6.00 Build 0)  -->
<svg version="1.1" xmlns="http://www.w3.org/2000/svg" xmlns:xlink="http://www.w3.org/1999/xlink" x="0px" y="0px"
	 viewBox="0 0 792 360" style="enable-background:new 0 0 792 360;" xml:space="preserve">
<style type="text/css">
	.st0{fill:#FFFFFF;}
	.st1{fill:#C1DACB;}
	.st2{fill:#00A9B1;}
	.st3{fill:#FAD466;}
	.st4{fill:none;stroke:#612771;stroke-width:4;stroke-miterlimit:10;}
	.st5{fill:none;stroke:#612771;stroke-width:4;stroke-miterlimit:10;stroke-dasharray:12.386,12.386;}
	.st6{fill:#C55857;}
	.st7{fill:#612771;}
	.st8{fill:#271E2A;}
	.st9{fill:none;stroke:#271E2A;stroke-width:4;stroke-miterlimit:10;}
	.st10{fill:none;stroke:#271E2A;stroke-width:4;stroke-miterlimit:10;stroke-dasharray:12.386,12.386;}
	.st11{fill:none;stroke:#271E2A;stroke-miterlimit:10;}
</style>
<g id="Layer_1">
	<g id="XMLID_6_">
		<rect id="XMLID_209_" x="80.8" y="249.3" class="st0" width="558.8" height="61.1"/>
		<g id="XMLID_202_">
			<path id="XMLID_206_" d="M639.6,307.9c-18.6,0-37.1,0-55.7,0c-44.6,0-89.2,0-133.7,0c-53.7,0-107.5,0-161.2,0
				c-46.4,0-92.9,0-139.3,0c-15.4,0-30.7,0-46.1,0c-4.8,0-9.6,0-14.3,0c-2.3,0-5.3-0.5-7.5,0c-0.3,0.1-0.6,0-0.9,0
				c0.8,0.8,1.7,1.7,2.5,2.5c0-20.4,0-40.7,0-61.1c-0.8,0.8-1.7,1.7-2.5,2.5c18.6,0,37.1,0,55.7,0c44.6,0,89.2,0,133.7,0
				c53.7,0,107.5,0,161.2,0c46.4,0,92.9,0,139.3,0c15.4,0,30.7,0,46.1,0c4.8,0,9.6,0,14.3,0c2.3,0,5.3,0.5,7.5,0
				c0.3-0.1,0.6,0,0.9,0c-0.8-0.8-1.7-1.7-2.5-2.5c0,20.4,0,40.7,0,61.1c0,3.2,5,3.2,5,0c0-20.4,0-40.7,0-61.1
				c0-1.4-1.1-2.5-2.5-2.5c-18.6,0-37.1,0-55.7,0c-44.6,0-89.2,0-133.7,0c-53.7,0-107.5,0-161.2,0c-46.4,0-92.9,0-139.3,0
				c-15.4,0-30.7,0-46.1,0c-7.2,0-14.6-0.5-21.8,0c-0.3,0-0.6,0-0.9,0c-1.4,0-2.5,1.1-2.5,2.5c0,20.4,0,40.7,0,61.1
				c0,1.4,1.1,2.5,2.5,2.5c18.6,0,37.1,0,55.7,0c44.6,0,89.2,0,133.7,0c53.7,0,107.5,0,161.2,0c46.4,0,92.9,0,139.3,0
				c15.4,0,30.7,0,46.1,0c7.2,0,14.6,0.5,21.8,0c0.3,0,0.6,0,0.9,0C642.8,312.9,642.9,307.9,639.6,307.9z"/>
		</g>
	</g>
	<g id="XMLID_22_">
		<path id="XMLID_23_" d="M46.9,65.8L39,41.6h3.4l3.8,12c1,3.3,1.9,6.2,2.6,9.1h0.1c0.7-2.8,1.7-5.9,2.8-9l4.1-12h3.3l-8.7,24.3
			H46.9z"/>
		<path id="XMLID_25_" d="M64.8,41.6v24.3h-3.1V41.6H64.8z"/>
		<path id="XMLID_27_" d="M69.9,62c1.4,0.9,3.5,1.6,5.6,1.6c3.2,0,5.1-1.7,5.1-4.1c0-2.3-1.3-3.6-4.6-4.8c-4-1.4-6.4-3.5-6.4-6.9
			c0-3.8,3.1-6.6,7.8-6.6c2.5,0,4.3,0.6,5.4,1.2l-0.9,2.6c-0.8-0.4-2.4-1.2-4.6-1.2c-3.3,0-4.6,2-4.6,3.6c0,2.3,1.5,3.4,4.8,4.7
			c4.1,1.6,6.2,3.6,6.2,7.1c0,3.7-2.8,7-8.5,7c-2.3,0-4.9-0.7-6.2-1.5L69.9,62z"/>
		<path id="XMLID_30_" d="M91.2,41.6v24.3H88V41.6H91.2z"/>
		<path id="XMLID_32_" d="M96.6,41.9c1.4-0.3,3.5-0.5,5.7-0.5c3.1,0,5.1,0.5,6.7,1.8c1.3,0.9,2,2.4,2,4.3c0,2.3-1.5,4.4-4.1,5.3v0.1
			c2.3,0.6,5,2.5,5,6.1c0,2.1-0.8,3.7-2.1,4.9c-1.7,1.5-4.4,2.3-8.4,2.3c-2.2,0-3.8-0.1-4.9-0.3V41.9z M99.8,51.8h2.8
			c3.3,0,5.3-1.7,5.3-4.1c0-2.8-2.2-4-5.3-4c-1.4,0-2.3,0.1-2.8,0.2V51.8z M99.8,63.5c0.6,0.1,1.5,0.1,2.6,0.1
			c3.2,0,6.2-1.2,6.2-4.7c0-3.3-2.8-4.7-6.3-4.7h-2.6V63.5z"/>
		<path id="XMLID_37_" d="M116.2,41.6h3.1v21.6h10.4v2.6h-13.5V41.6z"/>
		<path id="XMLID_39_" d="M145.7,54.5h-9.4v8.7h10.5v2.6h-13.6V41.6h13.1v2.6h-10v7.7h9.4V54.5z"/>
		<path id="XMLID_41_" d="M158.5,41.6h3.1v21.6H172v2.6h-13.5V41.6z"/>
		<path id="XMLID_43_" d="M178.6,41.6v24.3h-3.1V41.6H178.6z"/>
		<path id="XMLID_45_" d="M202.6,64.8c-1.4,0.5-4.2,1.3-7.5,1.3c-3.7,0-6.7-0.9-9.1-3.2c-2.1-2-3.4-5.3-3.4-9
			c0-7.2,5-12.5,13.1-12.5c2.8,0,5,0.6,6,1.1l-0.8,2.6c-1.3-0.6-2.9-1-5.4-1c-5.9,0-9.8,3.7-9.8,9.8c0,6.2,3.7,9.8,9.4,9.8
			c2.1,0,3.5-0.3,4.2-0.6v-7.2h-4.9v-2.5h8V64.8z"/>
		<path id="XMLID_47_" d="M210.5,41.6v10.2h11.7V41.6h3.2v24.3h-3.2V54.5h-11.7v11.4h-3.1V41.6H210.5z"/>
		<path id="XMLID_49_" d="M235.4,44.2H228v-2.7h18v2.7h-7.4v21.6h-3.2V44.2z"/>
	</g>
	<g id="XMLID_7_">
		<path id="XMLID_10_" d="M459.2,65.8l-3.1-5.4c-1.3-2.1-2.1-3.4-2.8-4.8h-0.1c-0.7,1.4-1.4,2.7-2.6,4.8l-2.9,5.3h-3.6l7.4-12.3
			l-7.1-12h3.6l3.2,5.7c0.9,1.6,1.6,2.8,2.2,4.1h0.1c0.7-1.4,1.3-2.6,2.2-4.1l3.3-5.7h3.6l-7.4,11.8l7.6,12.5H459.2z"/>
		<path id="XMLID_12_" d="M473,54.9v2.3h-8.9v-2.3H473z"/>
		<path id="XMLID_14_" d="M476.8,41.9c1.6-0.3,3.9-0.5,6-0.5c3.3,0,5.5,0.6,7,2c1.2,1.1,1.9,2.7,1.9,4.6c0,3.2-2,5.3-4.6,6.2v0.1
			c1.9,0.6,3,2.4,3.6,4.9c0.8,3.4,1.4,5.7,1.9,6.7h-3.2c-0.4-0.7-0.9-2.8-1.6-5.8c-0.7-3.3-2-4.6-4.9-4.7h-3v10.5h-3.1V41.9z
			 M479.9,52.9h3.2c3.3,0,5.5-1.8,5.5-4.6c0-3.1-2.3-4.5-5.6-4.5c-1.5,0-2.6,0.1-3.1,0.3V52.9z"/>
		<path id="XMLID_17_" d="M500.2,58.2l-2.5,7.6h-3.2l8.2-24.3h3.8l8.3,24.3h-3.3l-2.6-7.6H500.2z M508.2,55.8l-2.4-7
			c-0.5-1.6-0.9-3-1.3-4.4h-0.1c-0.4,1.4-0.8,2.9-1.2,4.4l-2.4,7H508.2z"/>
		<path id="XMLID_20_" d="M520.9,65.8V55.5l-7.7-14h3.6l3.4,6.7c0.9,1.8,1.7,3.3,2.4,5h0.1c0.7-1.6,1.5-3.2,2.4-5l3.5-6.7h3.6
			l-8.1,13.9v10.3H520.9z"/>
	</g>
</g>
<g id="Layer_2">
	<g id="XMLID_438_">
		<circle id="XMLID_445_" class="st1" cx="128.4" cy="280" r="21.3"/>
		<g id="XMLID_440_">
			<path id="XMLID_444_" class="st2" d="M147.2,280c-0.3,10.3-8.3,18.8-18.8,18.8c-10.3,0-18.8-8.6-18.8-18.8
				c0-10,8.1-18.4,18.1-18.8C138.5,260.8,146.9,269.5,147.2,280c0.1,3.2,5.1,3.2,5,0c-0.4-13-10.6-23.8-23.8-23.8
				c-13,0-23.8,10.9-23.8,23.8c0,13,10.9,23.8,23.8,23.8c13.3,0,23.4-10.9,23.8-23.8C152.3,276.8,147.3,276.8,147.2,280z"/>
		</g>
	</g>
	<g id="XMLID_429_">
		<line id="XMLID_437_" class="st3" x1="114.2" y1="280" x2="142.6" y2="280"/>
		<g id="XMLID_431_">
			<path id="XMLID_436_" class="st2" d="M114.2,282.5c9.5,0,19,0,28.4,0c3.2,0,3.2-5,0-5c-9.5,0-19,0-28.4,0
				C110.9,277.5,110.9,282.5,114.2,282.5L114.2,282.5z"/>
		</g>
	</g>
	<g id="XMLID_420_">
		<circle id="XMLID_428_" class="st1" cx="185.2" cy="280" r="21.3"/>
		<g id="XMLID_422_">
			<path id="XMLID_427_" class="st2" d="M204.1,280c-0.3,10.3-8.3,18.8-18.8,18.8c-10.3,0-18.8-8.6-18.8-18.8
				c0-10,8.1-18.4,18.1-18.8C195.3,260.8,203.7,269.5,204.1,280c0.1,3.2,5.1,3.2,5,0c-0.4-13-10.6-23.8-23.8-23.8
				c-13,0-23.8,10.9-23.8,23.8c0,13,10.9,23.8,23.8,23.8c13.3,0,23.4-10.9,23.8-23.8C209.2,276.8,204.2,276.8,204.1,280z"/>
		</g>
	</g>
	<g id="XMLID_411_">
		<line id="XMLID_419_" class="st3" x1="171" y1="280" x2="199.5" y2="280"/>
		<g id="XMLID_413_">
			<path id="XMLID_418_" class="st2" d="M171,282.5c9.5,0,19,0,28.4,0c3.2,0,3.2-5,0-5c-9.5,0-19,0-28.4,0
				C167.8,277.5,167.8,282.5,171,282.5L171,282.5z"/>
		</g>
	</g>
	<g id="XMLID_402_">
		<circle id="XMLID_410_" class="st1" cx="242.1" cy="280" r="21.3"/>
		<g id="XMLID_404_">
			<path id="XMLID_409_" class="st2" d="M261,280c-0.3,10.3-8.3,18.8-18.8,18.8c-10.3,0-18.8-8.6-18.8-18.8c0-10,8.1-18.4,18.1-18.8
				C252.2,260.8,260.6,269.5,261,280c0.1,3.2,5.1,3.2,5,0c-0.4-13-10.6-23.8-23.8-23.8c-13,0-23.8,10.9-23.8,23.8
				c0,13,10.9,23.8,23.8,23.8c13.3,0,23.4-10.9,23.8-23.8C266.1,276.8,261.1,276.8,261,280z"/>
		</g>
	</g>
	<g id="XMLID_393_">
		<line id="XMLID_401_" class="st3" x1="227.9" y1="280" x2="256.3" y2="280"/>
		<g id="XMLID_395_">
			<path id="XMLID_400_" class="st2" d="M227.9,282.5c9.5,0,19,0,28.4,0c3.2,0,3.2-5,0-5c-9.5,0-19,0-28.4,0
				C224.7,277.5,224.7,282.5,227.9,282.5L227.9,282.5z"/>
		</g>
	</g>
	<g id="XMLID_384_">
		<circle id="XMLID_392_" class="st1" cx="299" cy="280" r="21.3"/>
		<g id="XMLID_386_">
			<path id="XMLID_391_" class="st2" d="M317.8,280c-0.3,10.3-8.3,18.8-18.8,18.8c-10.3,0-18.8-8.6-18.8-18.8
				c0-10,8.1-18.4,18.1-18.8C309.1,260.8,317.5,269.5,317.8,280c0.1,3.2,5.1,3.2,5,0c-0.4-13-10.6-23.8-23.8-23.8
				c-13,0-23.8,10.9-23.8,23.8c0,13,10.9,23.8,23.8,23.8c13.3,0,23.4-10.9,23.8-23.8C322.9,276.8,317.9,276.8,317.8,280z"/>
		</g>
	</g>
	<g id="XMLID_375_">
		<line id="XMLID_383_" class="st3" x1="284.8" y1="280" x2="313.2" y2="280"/>
		<g id="XMLID_377_">
			<path id="XMLID_382_" class="st2" d="M284.8,282.5c9.5,0,19,0,28.4,0c3.2,0,3.2-5,0-5c-9.5,0-19,0-28.4,0
				C281.6,277.5,281.6,282.5,284.8,282.5L284.8,282.5z"/>
		</g>
	</g>
	<g id="XMLID_366_">
		<circle id="XMLID_374_" class="st1" cx="355.9" cy="280" r="21.3"/>
		<g id="XMLID_368_">
			<path id="XMLID_373_" class="st2" d="M374.7,280c-0.3,10.3-8.3,18.8-18.8,18.8c-10.3,0-18.8-8.6-18.8-18.8
				c0-10,8.1-18.4,18.1-18.8C366,260.8,374.4,269.5,374.7,280c0.1,3.2,5.1,3.2,5,0c-0.4-13-10.6-23.8-23.8-23.8
				c-13,0-23.8,10.9-23.8,23.8c0,13,10.9,23.8,23.8,23.8c13.3,0,23.4-10.9,23.8-23.8C379.8,276.8,374.8,276.8,374.7,280z"/>
		</g>
	</g>
	<g id="XMLID_357_">
		<line id="XMLID_365_" class="st3" x1="341.7" y1="280" x2="370.1" y2="280"/>
		<g id="XMLID_359_">
			<path id="XMLID_364_" class="st2" d="M341.7,282.5c9.5,0,19,0,28.4,0c3.2,0,3.2-5,0-5c-9.5,0-19,0-28.4,0
				C338.4,277.5,338.4,282.5,341.7,282.5L341.7,282.5z"/>
		</g>
	</g>
	<g id="XMLID_348_">
		<circle id="XMLID_356_" class="st1" cx="409.9" cy="280" r="21.3"/>
		<g id="XMLID_350_">
			<path id="XMLID_355_" class="st2" d="M428.7,280c-0.3,10.3-8.3,18.8-18.8,18.8c-10.3,0-18.8-8.6-18.8-18.8
				c0-10,8.1-18.4,18.1-18.8C420,260.8,428.4,269.5,428.7,280c0.1,3.2,5.1,3.2,5,0c-0.4-13-10.6-23.8-23.8-23.8
				c-13,0-23.8,10.9-23.8,23.8c0,13,10.9,23.8,23.8,23.8c13.3,0,23.4-10.9,23.8-23.8C433.9,276.8,428.9,276.8,428.7,280z"/>
		</g>
	</g>
	<g id="XMLID_339_">
		<line id="XMLID_347_" class="st3" x1="395.7" y1="280" x2="424.1" y2="280"/>
		<g id="XMLID_341_">
			<path id="XMLID_346_" class="st2" d="M395.7,282.5c9.5,0,19,0,28.4,0c3.2,0,3.2-5,0-5c-9.5,0-19,0-28.4,0
				C392.5,277.5,392.5,282.5,395.7,282.5L395.7,282.5z"/>
		</g>
	</g>
	<g id="XMLID_330_">
		<circle id="XMLID_338_" class="st1" cx="467.7" cy="280" r="21.3"/>
		<g id="XMLID_332_">
			<path id="XMLID_337_" class="st2" d="M486.5,280c-0.3,10.3-8.3,18.8-18.8,18.8c-10.3,0-18.8-8.6-18.8-18.8
				c0-10,8.1-18.4,18.1-18.8C477.8,260.8,486.2,269.5,486.5,280c0.1,3.2,5.1,3.2,5,0c-0.4-13-10.6-23.8-23.8-23.8
				c-13,0-23.8,10.9-23.8,23.8c0,13,10.9,23.8,23.8,23.8c13.3,0,23.4-10.9,23.8-23.8C491.7,276.8,486.7,276.8,486.5,280z"/>
		</g>
	</g>
	<g id="XMLID_321_">
		<line id="XMLID_329_" class="st3" x1="453.5" y1="280" x2="481.9" y2="280"/>
		<g id="XMLID_323_">
			<path id="XMLID_328_" class="st2" d="M453.5,282.5c9.5,0,19,0,28.4,0c3.2,0,3.2-5,0-5c-9.5,0-19,0-28.4,0
				C450.3,277.5,450.3,282.5,453.5,282.5L453.5,282.5z"/>
		</g>
	</g>
	<g id="XMLID_312_">
		<circle id="XMLID_320_" class="st1" cx="524.6" cy="280" r="21.3"/>
		<g id="XMLID_314_">
			<path id="XMLID_319_" class="st2" d="M543.4,280c-0.3,10.3-8.3,18.8-18.8,18.8c-10.3,0-18.8-8.6-18.8-18.8
				c0-10,8.1-18.4,18.1-18.8C534.7,260.8,543.1,269.5,543.4,280c0.1,3.2,5.1,3.2,5,0c-0.4-13-10.6-23.8-23.8-23.8
				c-13,0-23.8,10.9-23.8,23.8c0,13,10.9,23.8,23.8,23.8c13.3,0,23.4-10.9,23.8-23.8C548.5,276.8,543.5,276.8,543.4,280z"/>
		</g>
	</g>
	<g id="XMLID_303_">
		<line id="XMLID_311_" class="st3" x1="510.4" y1="280" x2="538.8" y2="280"/>
		<g id="XMLID_305_">
			<path id="XMLID_310_" class="st2" d="M510.4,282.5c9.5,0,19,0,28.4,0c3.2,0,3.2-5,0-5c-9.5,0-19,0-28.4,0
				C507.2,277.5,507.2,282.5,510.4,282.5L510.4,282.5z"/>
		</g>
	</g>
	<g id="XMLID_294_">
		<circle id="XMLID_302_" class="st1" cx="581.5" cy="280" r="21.3"/>
		<g id="XMLID_296_">
			<path id="XMLID_301_" class="st2" d="M600.3,280c-0.3,10.3-8.3,18.8-18.8,18.8c-10.3,0-18.8-8.6-18.8-18.8
				c0-10,8.1-18.4,18.1-18.8C591.5,260.8,600,269.5,600.3,280c0.1,3.2,5.1,3.2,5,0c-0.4-13-10.6-23.8-23.8-23.8
				c-13,0-23.8,10.9-23.8,23.8c0,13,10.9,23.8,23.8,23.8c13.3,0,23.4-10.9,23.8-23.8C605.4,276.8,600.4,276.8,600.3,280z"/>
		</g>
	</g>
	<g id="XMLID_285_">
		<line id="XMLID_293_" class="st3" x1="567.3" y1="280" x2="595.7" y2="280"/>
		<g id="XMLID_287_">
			<path id="XMLID_292_" class="st2" d="M567.3,282.5c9.5,0,19,0,28.4,0c3.2,0,3.2-5,0-5c-9.5,0-19,0-28.4,0
				C564,277.5,564,282.5,567.3,282.5L567.3,282.5z"/>
		</g>
	</g>
	<g id="XMLID_276_">
		<circle id="XMLID_284_" class="st1" cx="443.2" cy="122.7" r="21.3"/>
		<g id="XMLID_278_">
			<path id="XMLID_283_" class="st2" d="M462,122.7c-0.3,10.3-8.3,18.8-18.8,18.8c-10.3,0-18.8-8.6-18.8-18.8
				c0-10,8.1-18.4,18.1-18.8C453.3,103.5,461.7,112.2,462,122.7c0.1,3.2,5.1,3.2,5,0c-0.4-13-10.6-23.8-23.8-23.8
				c-13,0-23.8,10.9-23.8,23.8c0,13,10.9,23.8,23.8,23.8c13.3,0,23.4-10.9,23.8-23.8C467.1,119.5,462.1,119.5,462,122.7z"/>
		</g>
	</g>
	<g id="XMLID_267_">
		<line id="XMLID_275_" class="st3" x1="429" y1="122.7" x2="457.4" y2="122.7"/>
		<g id="XMLID_269_">
			<path id="XMLID_274_" class="st2" d="M429,125.2c9.5,0,19,0,28.4,0c3.2,0,3.2-5,0-5c-9.5,0-19,0-28.4,0
				C425.7,120.2,425.7,125.2,429,125.2L429,125.2z"/>
		</g>
	</g>
</g>
<g id="Layer_4">
	<g id="XMLID_2_">
		<g id="XMLID_3_">
			<line id="XMLID_58_" class="st4" x1="325.3" y1="240.6" x2="329.6" y2="236.3"/>
			<line id="XMLID_5_" class="st5" x1="338.3" y1="227.6" x2="404" y2="161.9"/>
			<line id="XMLID_4_" class="st4" x1="408.4" y1="157.5" x2="412.6" y2="153.3"/>
		</g>
	</g>
</g>
<g id="Layer_3">
	<g id="XMLID_253_">
		<g id="XMLID_255_">
			<path id="XMLID_259_" class="st6" d="M63.1,92.5c11.8,12.5,1.3,28.8,6.2,43.3c2.2,6.6,7.5,12.3,13.9,15.1
				c6.6,2.9,13.7,2.3,20.6,1.6c7.5-0.8,15.4-1.6,21.9,3c7.6,5.3,9.5,13.5,8.8,22.3c-0.5,6.8-1.9,13.7-0.5,20.5c1.4,7,6,13.1,12,16.8
				c15.2,9.2,34.3-4.6,48,8.4c2.3,2.2,5.9-1.3,3.5-3.5c-5.2-4.9-11.3-7.4-18.4-7.6c-7.3-0.2-14.5,1.8-21.8,1.2
				c-8.9-0.8-16.6-7.2-18.5-16c-1.6-7.3,0.5-14.9,0.7-22.3c0.5-14.2-8.7-26.8-23.4-28.2c-7.1-0.7-14.1,1.1-21.2,1.2
				c-8.9,0-17.4-4.4-20.7-13.1c-3-7.7-0.6-16.2-0.2-24.1c0.5-8.4-1.6-15.8-7.5-22.1C64.4,86.6,60.9,90.1,63.1,92.5L63.1,92.5z"/>
		</g>
	</g>
	<g id="XMLID_246_">
		<g id="XMLID_248_">
			<path id="XMLID_252_" class="st7" d="M167.8,92.5c6.5,7.1-0.7,19.1-2.1,27.1c-1.3,7.7,0.9,16,9.2,18.5c8.4,2.6,17.2-2.4,25.3-4
				c4.7-0.9,10-0.7,12.7,3.9c2.3,4.1,0.8,9.4-0.4,13.6c-2.1,7.6-6.1,16.8-1.5,24.3c4.8,7.8,14,7.1,21.8,4.9c7.2-2,21.5-8.2,24.6,2.8
				c2.4,8.6-4.4,18.3-4.8,26.9c-0.5,9.4,6.7,16.1,16,15.4c8.9-0.6,22.5-9.7,30.3-2.5c2.4,2.2,5.9-1.4,3.5-3.5
				c-6.8-6.2-15.6-3.8-23.5-1.4c-8,2.4-21.6,5.4-21.2-7.5c0.2-9,6-17.1,5.1-26.2c-0.9-8.5-8.3-13.2-16.4-12.5
				c-8.3,0.7-18.1,7.3-26.4,4.6c-10.9-3.6-4-18.3-2.1-25.5c2-7.6,2.1-16.5-5.6-21c-7.7-4.4-17.2,0-24.9,2.1
				c-4.9,1.3-11.1,2.6-14.9-1.8c-3.4-4.1-2-9.8-0.7-14.4c2.5-8.9,7-19.3-0.3-27.2C169.2,86.6,165.7,90.1,167.8,92.5L167.8,92.5z"/>
		</g>
	</g>
	<g id="XMLID_238_">
		<g id="XMLID_240_">
			<path id="XMLID_245_" class="st8" d="M482.2,83.7c2.9,3.4-6.3,15.9-7.8,19.3c-2.1,4.4-4.7,11.7,1.4,14.3
				c5.5,2.3,12.6-2.6,17.2-5.1c3.1-1.7,6.4-3.8,10-4.7c3.8-0.9,3.9,1.2,2.9,4.3c-1.8,5.3-19.4,30.9-2.6,29.8
				c7.1-0.5,13.5-6,19.7-8.9c1.5-0.7,5.8-3,7.2-1.1c1.4,2-2.1,7.6-2.9,9.2c-2.8,5.3-8.4,12.6-7.5,19c0.9,6,7.1,6.1,11.7,4.4
				c3.5-1.3,6.8-3.2,10.1-5c3-1.6,6.7-4.3,10.1-4.4c6.4-0.4-2.5,13.3-3.8,15.7c-2.3,4.3-6.9,11.8-3,16.5c4.1,4.9,11.6,0.8,16-1.5
				c2.5-1.3,15.4-10,17-5.8c1,2.6-2.4,7.5-3.5,9.6c-1.8,3.5-3.9,6.9-5.4,10.5c-2.1,5-2.9,12.6,4.4,13.2c7.6,0.6,15.3-6.5,21.9-9.3
				c2.3-1,6.6-3,6.4,1.1c-0.2,3.7-3.2,7.9-4.9,11c-2.8,5.1-8.6,13.6-3.8,19.2c2.1,2.4,5.6-1.1,3.5-3.5c-2.9-3.4,6.3-15.9,7.8-19.3
				c2.1-4.4,4.7-11.7-1.4-14.3c-5.5-2.3-12.6,2.6-17.2,5.1c-3.1,1.7-6.4,3.8-10,4.7c-3.8,0.9-3.9-1.2-2.9-4.3
				c1.8-5.3,19.4-30.9,2.6-29.8c-7.1,0.5-13.5,6-19.7,8.9c-1.5,0.7-5.8,3-7.2,1.1c-1.4-2,2.1-7.6,2.9-9.2c2.8-5.3,8.4-12.6,7.5-19
				c-0.9-6-7.1-6.1-11.7-4.4c-3.5,1.3-6.8,3.2-10.1,5c-3,1.6-6.7,4.3-10.1,4.4c-6.4,0.4,2.5-13.3,3.8-15.7c2.3-4.3,6.9-11.8,3-16.5
				c-4.1-4.9-11.6-0.8-16,1.5c-2.5,1.3-15.4,10-17,5.8c-1-2.6,2.4-7.5,3.5-9.6c1.8-3.5,3.9-6.9,5.4-10.5c2.1-5,2.9-12.6-4.4-13.2
				c-7.6-0.5-15.3,6.5-21.9,9.3c-2.3,1-6.6,3-6.4-1.1c0.2-3.7,3.2-7.9,4.9-11c2.8-5.1,8.6-13.6,3.8-19.2
				C483.6,77.8,480.1,81.3,482.2,83.7L482.2,83.7z"/>
		</g>
	</g>
	<polygon id="XMLID_237_" class="st6" points="185.6,223.7 217.4,240.6 197.3,210.7 198,223.1 	"/>
	<polygon id="XMLID_236_" class="st7" points="290.4,223.7 322.2,240.6 302.1,210.7 302.7,223.1 	"/>
	<polygon id="XMLID_234_" class="st8" points="587.2,234.8 620.2,249.3 597.9,221 599.5,233.3 	"/>
	<polygon id="XMLID_233_" class="st7" points="408.2,170.7 425,138.9 395.2,159.1 407.5,158.4 	"/>
	<g id="XMLID_220_">
		<circle id="XMLID_232_" class="st1" cx="731.8" cy="122.2" r="21.3"/>
		<g id="XMLID_222_">
			<path id="XMLID_231_" class="st2" d="M750.6,122.2c-0.3,10.3-8.3,18.8-18.8,18.8c-10.3,0-18.8-8.6-18.8-18.8
				c0-10,8.1-18.4,18.1-18.8C741.9,103,750.3,111.7,750.6,122.2c0.1,3.2,5.1,3.2,5,0c-0.4-13-10.6-23.8-23.8-23.8
				c-13,0-23.8,10.9-23.8,23.8c0,13,10.9,23.8,23.8,23.8c13.3,0,23.4-10.9,23.8-23.8C755.7,119,750.7,119,750.6,122.2z"/>
		</g>
	</g>
	<g id="XMLID_211_">
		<line id="XMLID_219_" class="st3" x1="717.6" y1="122.2" x2="746" y2="122.2"/>
		<g id="XMLID_213_">
			<path id="XMLID_218_" class="st2" d="M717.6,124.7c9.5,0,19,0,28.4,0c3.2,0,3.2-5,0-5c-9.5,0-19,0-28.4,0
				C714.4,119.7,714.4,124.7,717.6,124.7L717.6,124.7z"/>
		</g>
	</g>
	<g id="XMLID_166_">
		<g id="XMLID_197_">
			<line id="XMLID_210_" class="st9" x1="613.9" y1="240.1" x2="618.2" y2="235.8"/>
			<line id="XMLID_201_" class="st10" x1="626.9" y1="227.1" x2="692.6" y2="161.4"/>
			<line id="XMLID_198_" class="st9" x1="697" y1="157" x2="701.2" y2="152.8"/>
		</g>
	</g>
	<g id="XMLID_28_">
		<polygon id="XMLID_152_" class="st8" points="696.8,170.2 713.6,138.4 683.8,158.6 696.1,157.9 		"/>
		<polygon id="XMLID_137_" class="st11" points="696.8,170.2 713.6,138.4 683.8,158.6 696.1,157.9 		"/>
	</g>
</g>
</svg>
