<?xml version="1.0" encoding="utf-8"?>
<!-- Generator: Adobe Illustrator 19.0.0, SVG Export Plug-In . SVG Version: 6.00 Build 0)  -->
<svg version="1.1" xmlns="http://www.w3.org/2000/svg" xmlns:xlink="http://www.w3.org/1999/xlink" x="0px" y="0px"
	 viewBox="0 0 720 360" style="enable-background:new 0 0 720 360;" xml:space="preserve">
<style type="text/css">
	.st0{fill:#271E2A;}
	.st1{fill:#271E2A;stroke:#271E2A;stroke-miterlimit:10;}
</style>
<g id="Layer_1">
	<g id="XMLID_46_">
		<path id="XMLID_47_" d="M171,152.5l-5.2-8.9c-2.1-3.4-3.4-5.6-4.7-8h-0.1c-1.1,2.3-2.3,4.5-4.4,8l-4.9,8.9h-6l12.4-20.5l-11.9-20
			h6.1l5.3,9.5c1.5,2.6,2.6,4.7,3.7,6.8h0.2c1.1-2.4,2.2-4.3,3.7-6.8l5.5-9.5h6l-12.3,19.7l12.6,20.8H171z"/>
		<path id="XMLID_49_" d="M334.1,112.1V129h19.6v-16.9h5.3v40.4h-5.3v-19h-19.6v19h-5.2v-40.4H334.1z"/>
		<path id="XMLID_51_" d="M370.8,139c0.1,7.1,4.7,10.1,10,10.1c3.8,0,6.1-0.7,8-1.5l0.9,3.8c-1.9,0.8-5,1.8-9.7,1.8
			c-8.9,0-14.3-5.9-14.3-14.6s5.2-15.7,13.6-15.7c9.5,0,12,8.3,12,13.7c0,1.1-0.1,1.9-0.2,2.5H370.8z M386.3,135.2
			c0.1-3.4-1.4-8.6-7.3-8.6c-5.3,0-7.7,4.9-8.1,8.6H386.3z"/>
		<path id="XMLID_54_" d="M426,120.6v14.1h13.6v3.6H426v14.2h-3.8v-14.2h-13.6v-3.6h13.6v-14.1H426z"/>
		<path id="XMLID_56_" d="M504.6,152.5v-17.2l-12.8-23.3h5.9l5.7,11.2c1.6,3.1,2.8,5.5,4,8.3h0.1c1.1-2.6,2.5-5.3,4.1-8.3l5.8-11.2
			h5.9l-13.6,23.2v17.2H504.6z"/>
	</g>
	<g id="XMLID_31_">
		<path id="XMLID_32_" d="M451.5,117l-2.1,6.4h-2.7l6.9-20.2h3.2l6.9,20.2h-2.8l-2.2-6.4H451.5z M458.1,115l-2-5.8
			c-0.5-1.3-0.8-2.5-1-3.7H455c-0.3,1.2-0.6,2.4-1,3.7l-2,5.8H458.1z"/>
		<path id="XMLID_35_" d="M472.5,114.3v2h-7.4v-2H472.5z"/>
		<path id="XMLID_37_" d="M482.9,123.4v-5.3h-9.1v-1.7l8.7-12.4h2.9V116h2.7v2.1h-2.7v5.3H482.9z M482.9,116v-6.5c0-1,0-2,0.1-3.1
			h-0.1c-0.6,1.1-1.1,2-1.6,2.9l-4.8,6.6v0.1H482.9z"/>
		<path id="XMLID_40_" d="M448.1,157.9l11.2-16.4v-0.1h-10.3v-2.2h13.6v1.6l-11.2,16.3v0.1h11.3v2.2h-14.8V157.9z"/>
		<path id="XMLID_42_" d="M471.3,150.3v2h-7.4v-2H471.3z"/>
		<path id="XMLID_44_" d="M473.5,159.4v-1.6l2.1-2c5-4.7,7.2-7.3,7.3-10.2c0-2-1-3.8-3.9-3.8c-1.8,0-3.2,0.9-4.1,1.7l-0.8-1.9
			c1.3-1.1,3.3-2,5.5-2c4.2,0,6,2.9,6,5.7c0,3.6-2.6,6.5-6.7,10.5l-1.6,1.4v0.1h8.8v2.2H473.5z"/>
	</g>
	<g id="XMLID_19_">
		<path id="XMLID_20_" d="M124.6,117l-2.1,6.4h-2.7l6.9-20.2h3.1l6.9,20.2h-2.8l-2.2-6.4H124.6z M131.2,115l-2-5.8
			c-0.5-1.3-0.8-2.5-1.1-3.7h-0.1c-0.3,1.2-0.6,2.4-1,3.7l-2,5.8H131.2z"/>
		<path id="XMLID_29_" d="M120.8,157.9l11.2-16.4v-0.1h-10.3v-2.2h13.6v1.6l-11.2,16.3v0.1h11.3v2.2h-14.8V157.9z"/>
	</g>
	<g id="XMLID_8_">
		<path id="XMLID_10_" d="M307.7,123.4v-5.3h-9.1v-1.7l8.7-12.4h2.9V116h2.7v2.1h-2.7v5.3H307.7z M307.7,116v-6.5c0-1,0-2,0.1-3.1
			h-0.1c-0.6,1.1-1.1,2-1.6,2.9l-4.8,6.6v0.1H307.7z"/>
		<path id="XMLID_15_" d="M299.5,159.4v-1.6l2.1-2c5-4.7,7.2-7.3,7.3-10.2c0-2-1-3.8-3.9-3.8c-1.8,0-3.2,0.9-4.1,1.7l-0.8-1.9
			c1.3-1.1,3.3-2,5.5-2c4.2,0,6,2.9,6,5.7c0,3.6-2.6,6.5-6.7,10.5l-1.6,1.4v0.1h8.8v2.2H299.5z"/>
	</g>
</g>
<g id="Layer_2">
	<g id="XMLID_9_">
		<path id="XMLID_28_" class="st0" d="M182.6,131c31.6-0.2,62.6-0.2,94.9,0"/>
		<g id="XMLID_23_">
			<path id="XMLID_27_" class="st0" d="M182.6,133.5c31.6-0.2,63.2-0.2,94.9,0c3.2,0,3.2-5,0-5c-31.6-0.2-63.2-0.2-94.9,0
				C179.3,128.6,179.3,133.6,182.6,133.5L182.6,133.5z"/>
		</g>
	</g>
	<polygon id="XMLID_7_" class="st1" points="250.4,140 286.4,131 250.4,122 259.4,131 	"/>
</g>
</svg>
