<?xml version="1.0" encoding="utf-8"?>
<!-- Generator: Adobe Illustrator 19.0.0, SVG Export Plug-In . SVG Version: 6.00 Build 0)  -->
<svg version="1.1" xmlns="http://www.w3.org/2000/svg" xmlns:xlink="http://www.w3.org/1999/xlink" x="0px" y="0px"
	 viewBox="0 0 720 360" style="enable-background:new 0 0 720 360;" xml:space="preserve">
<style type="text/css">
	.st0{fill:#271E2A;}
	.st1{fill:#271E2A;stroke:#271E2A;stroke-miterlimit:10;}
</style>
<g id="Layer_1">
	<g id="XMLID_43_">
		<path id="XMLID_44_" d="M211.7,152.5l-5.2-8.9c-2.1-3.4-3.4-5.6-4.7-8h-0.1c-1.1,2.3-2.3,4.5-4.4,8l-4.9,8.9h-6l12.4-20.5
			l-11.9-20h6.1l5.3,9.5c1.5,2.6,2.6,4.7,3.7,6.8h0.2c1.1-2.4,2.2-4.3,3.7-6.8l5.5-9.5h6l-12.3,19.7l12.6,20.8H211.7z"/>
		<path id="XMLID_46_" d="M372.3,139c0.1,7.1,4.7,10.1,10,10.1c3.8,0,6.1-0.7,8-1.5l0.9,3.8c-1.9,0.8-5,1.8-9.7,1.8
			c-8.9,0-14.3-5.9-14.3-14.6s5.2-15.7,13.6-15.7c9.5,0,12,8.3,12,13.7c0,1.1-0.1,1.9-0.2,2.5H372.3z M387.8,135.2
			c0.1-3.4-1.4-8.6-7.3-8.6c-5.3,0-7.7,4.9-8.1,8.6H387.8z"/>
		<path id="XMLID_49_" d="M427.5,120.6v14.1h13.6v3.6h-13.6v14.2h-3.8v-14.2h-13.6v-3.6h13.6v-14.1H427.5z"/>
		<path id="XMLID_51_" d="M509.2,152.5v-17.2l-12.8-23.3h5.9l5.7,11.2c1.6,3.1,2.8,5.5,4,8.3h0.1c1.1-2.6,2.5-5.3,4.1-8.3l5.8-11.2
			h5.9l-13.6,23.2v17.2H509.2z"/>
	</g>
	<g id="XMLID_33_">
		<path id="XMLID_34_" d="M471.6,117l-2.1,6.4h-2.7l6.9-20.2h3.1l6.9,20.2h-2.8l-2.2-6.4H471.6z M478.2,115l-2-5.8
			c-0.5-1.3-0.8-2.5-1.1-3.7h-0.1c-0.3,1.2-0.6,2.4-1,3.7l-2,5.8H478.2z"/>
		<path id="XMLID_37_" d="M451.2,157.9l11.2-16.4v-0.1h-10.3v-2.2h13.6v1.6l-11.2,16.3v0.1h11.3v2.2h-14.8V157.9z"/>
		<path id="XMLID_39_" d="M476.8,143.4v7h6.8v1.8h-6.8v7.1h-1.9v-7.1h-6.8v-1.8h6.8v-7H476.8z"/>
		<path id="XMLID_41_" d="M491.8,142.3L491.8,142.3l-3.4,1.8l-0.5-2l4.3-2.3h2.2v19.5h-2.5V142.3z"/>
	</g>
	<g id="XMLID_21_">
		<path id="XMLID_22_" d="M167.5,117l-2.1,6.4h-2.7l6.9-20.2h3.1l6.9,20.2h-2.8l-2.2-6.4H167.5z M174.2,115l-2-5.8
			c-0.5-1.3-0.8-2.5-1.1-3.7h-0.1c-0.3,1.2-0.6,2.4-1,3.7l-2,5.8H174.2z"/>
		<path id="XMLID_31_" d="M163.8,157.9l11.2-16.4v-0.1h-10.3v-2.2h13.6v1.6l-11.2,16.3v0.1h11.3v2.2h-14.8V157.9z"/>
	</g>
	<g id="XMLID_8_">
		<path id="XMLID_10_" d="M357.2,113.4c0,6.6-2.5,10.3-6.8,10.3c-3.8,0-6.4-3.6-6.4-10c0-6.5,2.8-10.1,6.8-10.1
			C354.9,103.6,357.2,107.2,357.2,113.4z M346.6,113.7c0,5.1,1.6,7.9,4,7.9c2.7,0,4-3.1,4-8.1c0-4.8-1.2-7.9-4-7.9
			C348.3,105.6,346.6,108.4,346.6,113.7z"/>
		<path id="XMLID_15_" d="M346.6,150.3v2h-7.4v-2H346.6z"/>
		<path id="XMLID_19_" d="M354.6,142.3L354.6,142.3l-3.4,1.8l-0.5-2l4.3-2.3h2.2v19.5h-2.5V142.3z"/>
	</g>
</g>
<g id="Layer_2">
	<g id="XMLID_9_">
		<path id="XMLID_28_" class="st0" d="M225.5,131c31.6-0.2,62.6-0.2,94.9,0"/>
		<g id="XMLID_23_">
			<path id="XMLID_27_" class="st0" d="M225.5,133.5c31.6-0.2,63.2-0.2,94.9,0c3.2,0,3.2-5,0-5c-31.6-0.2-63.2-0.2-94.9,0
				C222.3,128.6,222.3,133.6,225.5,133.5L225.5,133.5z"/>
		</g>
	</g>
	<polygon id="XMLID_7_" class="st1" points="293.4,140 329.4,131 293.4,122 302.4,131 	"/>
</g>
</svg>
