<?xml version="1.0" encoding="utf-8"?>
<!-- Generator: Adobe Illustrator 19.0.0, SVG Export Plug-In . SVG Version: 6.00 Build 0)  -->
<svg version="1.1" xmlns="http://www.w3.org/2000/svg" xmlns:xlink="http://www.w3.org/1999/xlink" x="0px" y="0px"
	 viewBox="0 0 720 360" style="enable-background:new 0 0 720 360;" xml:space="preserve">
<style type="text/css">
	.st0{fill:#271E2A;}
	.st1{fill:#271E2A;stroke:#271E2A;stroke-miterlimit:10;}
</style>
<g id="Layer_1">
	<g id="XMLID_38_">
		<path id="XMLID_39_" d="M186.8,152.5l-5.2-8.9c-2.1-3.4-3.4-5.6-4.7-8h-0.1c-1.1,2.3-2.3,4.5-4.4,8l-4.9,8.9h-6l12.4-20.5
			l-11.9-20h6.1l5.3,9.5c1.5,2.6,2.6,4.7,3.7,6.8h0.2c1.1-2.4,2.2-4.3,3.7-6.8l5.5-9.5h6l-12.3,19.7l12.6,20.8H186.8z"/>
		<path id="XMLID_41_" d="M351,164.4c0.2-5.5,0.3-11.3-1.1-17c-2.2-9.6-7.3-19.4-10.3-23.9h5.9c2.6,4,7,13.7,8.8,22.6h0.2
			c2.6-4.9,6.8-13.4,6.8-20.6c0-0.9-0.1-1.5-0.1-2h5c0.1,0.5,0.2,1.3,0.2,2c0,7.4-4.7,17-10.3,25.5c-0.4,0.5-0.4,0.9-0.4,1.4
			c0.2,3.4,0.2,7.9,0.2,12H351z"/>
		<path id="XMLID_43_" d="M400.4,120.6v14.1H414v3.6h-13.6v14.2h-3.8v-14.2H383v-3.6h13.6v-14.1H400.4z"/>
		<path id="XMLID_45_" d="M500.2,152.5l-5.2-8.9c-2.1-3.4-3.4-5.6-4.7-8h-0.1c-1.1,2.3-2.3,4.5-4.4,8l-4.9,8.9h-6l12.4-20.5
			l-11.9-20h6.1l5.3,9.5c1.5,2.6,2.6,4.7,3.7,6.8h0.2c1.1-2.4,2.2-4.3,3.7-6.8l5.5-9.5h6l-12.3,19.7l12.6,20.8H500.2z"/>
	</g>
	<g id="XMLID_32_">
		<path id="XMLID_33_" d="M443.8,117l-2.1,6.4H439l6.9-20.2h3.2l6.9,20.2h-2.8l-2.2-6.4H443.8z M450.4,115l-2-5.8
			c-0.5-1.3-0.8-2.5-1-3.7h-0.1c-0.3,1.2-0.6,2.4-1,3.7l-2,5.8H450.4z"/>
		<path id="XMLID_36_" d="M440,157.9l11.2-16.4v-0.1H441v-2.2h13.6v1.6l-11.2,16.3v0.1h11.3v2.2H440V157.9z"/>
	</g>
	<g id="XMLID_20_">
		<path id="XMLID_21_" d="M124.6,117l-2.1,6.4h-2.7l6.9-20.2h3.1l6.9,20.2h-2.8l-2.2-6.4H124.6z M131.2,115l-2-5.8
			c-0.5-1.3-0.8-2.5-1.1-3.7h-0.1c-0.3,1.2-0.6,2.4-1,3.7l-2,5.8H131.2z"/>
		<path id="XMLID_30_" d="M120.8,157.9l11.2-16.4v-0.1h-10.3v-2.2h13.6v1.6l-11.2,16.3v0.1h11.3v2.2h-14.8V157.9z"/>
	</g>
	<g id="XMLID_8_">
		<path id="XMLID_10_" d="M329.9,113.4c0,6.6-2.5,10.3-6.8,10.3c-3.8,0-6.4-3.6-6.4-10c0-6.5,2.8-10.1,6.8-10.1
			C327.5,103.6,329.9,107.2,329.9,113.4z M319.3,113.7c0,5.1,1.6,7.9,4,7.9c2.7,0,4-3.1,4-8.1c0-4.8-1.2-7.9-4-7.9
			C321,105.6,319.3,108.4,319.3,113.7z"/>
		<path id="XMLID_15_" d="M329.9,149.4c0,6.6-2.5,10.3-6.8,10.3c-3.8,0-6.4-3.6-6.4-10c0-6.5,2.8-10.1,6.8-10.1
			C327.5,139.6,329.9,143.2,329.9,149.4z M319.3,149.7c0,5.1,1.6,7.9,4,7.9c2.7,0,4-3.1,4-8.1c0-4.8-1.2-7.9-4-7.9
			C321,141.6,319.3,144.4,319.3,149.7z"/>
	</g>
</g>
<g id="Layer_2">
	<g id="XMLID_9_">
		<path id="XMLID_28_" class="st0" d="M206,131c31.6-0.2,62.6-0.2,94.9,0"/>
		<g id="XMLID_23_">
			<path id="XMLID_27_" class="st0" d="M206,133.5c31.6-0.2,63.2-0.2,94.9,0c3.2,0,3.2-5,0-5c-31.6-0.2-63.2-0.2-94.9,0
				C202.8,128.5,202.8,133.5,206,133.5L206,133.5z"/>
		</g>
	</g>
	<polygon id="XMLID_7_" class="st1" points="271,140 307,131 271,122 280,131 	"/>
</g>
</svg>
