<?xml version="1.0" encoding="utf-8"?>
<!-- Generator: Adobe Illustrator 19.0.0, SVG Export Plug-In . SVG Version: 6.00 Build 0)  -->
<svg version="1.1" id="Layer_1" xmlns="http://www.w3.org/2000/svg" xmlns:xlink="http://www.w3.org/1999/xlink" x="0px" y="0px"
	 viewBox="0 0 1080 360" style="enable-background:new 0 0 1080 360;" xml:space="preserve">
<style type="text/css">
	.st0{fill:#C55857;}
	.st1{fill:#924241;}
	.st2{fill:#AB1F23;}
	.st3{fill:#FAD466;}
	.st4{fill:#F8BA17;}
	.st5{fill:#75BC64;}
	.st6{stroke:#000000;stroke-miterlimit:10;}
</style>
<g id="XMLID_581_">
	<g id="XMLID_594_">
		<circle id="XMLID_925_" class="st0" cx="237.7" cy="194" r="27"/>
		<g id="XMLID_920_">
			<path id="XMLID_924_" class="st1" d="M262.2,194c-0.3,13.4-10.9,24.5-24.5,24.5c-13.3,0-24.5-11.2-24.5-24.5
				c0-13.4,11.1-24.5,24.5-24.5C251.3,169.5,261.9,180.7,262.2,194c0.1,3.2,5.1,3.2,5,0c-0.3-12.1-7.4-23.1-18.9-27.5
				c-11.6-4.5-25.2-1-33.2,8.6c-17.4,20.9,1.4,52.7,28,47.9c14-2.5,23.7-15,24.1-29C267.3,190.8,262.3,190.8,262.2,194z"/>
		</g>
	</g>
	<g id="XMLID_588_">
		<g id="XMLID_914_">
			<path id="XMLID_918_" class="st2" d="M219.7,196.5c12,0,24,0,36,0c3.2,0,3.2-5,0-5c-12,0-24,0-36,0
				C216.5,191.5,216.5,196.5,219.7,196.5L219.7,196.5z"/>
		</g>
	</g>
	<g id="XMLID_582_">
		<g id="XMLID_908_">
			<path id="XMLID_912_" class="st2" d="M240.2,212c0-12,0-24,0-36c0-3.2-5-3.2-5,0c0,12,0,24,0,36
				C235.2,215.2,240.2,215.2,240.2,212L240.2,212z"/>
		</g>
	</g>
</g>
<g id="XMLID_254_">
	<circle id="XMLID_906_" class="st3" cx="120.7" cy="68" r="27"/>
	<g id="XMLID_901_">
		<path id="XMLID_905_" class="st4" d="M145.2,68c-0.3,13.4-10.9,24.5-24.5,24.5c-13.3,0-24.5-11.2-24.5-24.5
			c0-13.4,11.1-24.5,24.5-24.5C134.3,43.5,144.9,54.7,145.2,68c0.1,3.2,5.1,3.2,5,0c-0.3-12.1-7.4-23.1-18.9-27.5
			c-11.6-4.5-25.2-1-33.2,8.6c-17.4,20.9,1.4,52.7,28,47.9c14-2.5,23.7-15,24.1-29C150.3,64.8,145.3,64.8,145.2,68z"/>
	</g>
</g>
<g id="XMLID_80_">
	<circle id="XMLID_899_" class="st3" cx="608.4" cy="153.5" r="27"/>
	<g id="XMLID_894_">
		<path id="XMLID_898_" class="st4" d="M632.9,153.5c-0.3,13.4-10.9,24.5-24.5,24.5c-13.3,0-24.5-11.2-24.5-24.5
			c0-13.4,11.1-24.5,24.5-24.5C622,129,632.5,140.2,632.9,153.5c0.1,3.2,5.1,3.2,5,0c-0.3-12.1-7.4-23.1-18.9-27.5
			c-11.6-4.5-25.2-1-33.2,8.6c-17.4,20.9,1.4,52.7,28,47.9c14-2.5,23.7-15,24.1-29C638,150.3,633,150.3,632.9,153.5z"/>
	</g>
</g>
<g id="XMLID_1_">
	<g id="XMLID_73_">
		<circle id="XMLID_892_" class="st0" cx="635.4" cy="126.5" r="27"/>
		<g id="XMLID_887_">
			<path id="XMLID_891_" class="st1" d="M659.9,126.5c-0.3,13.4-10.9,24.5-24.5,24.5c-13.3,0-24.5-11.2-24.5-24.5
				c0-13.4,11.1-24.5,24.5-24.5C649,102,659.5,113.2,659.9,126.5c0.1,3.2,5.1,3.2,5,0c-0.3-12.1-7.4-23.1-18.9-27.5
				c-11.6-4.5-25.2-1-33.2,8.6c-17.4,20.9,1.4,52.7,28,47.9c14-2.5,23.7-15,24.1-29C665,123.3,660,123.3,659.9,126.5z"/>
		</g>
	</g>
	<g id="XMLID_14_">
		<g id="XMLID_881_">
			<path id="XMLID_885_" class="st2" d="M617.4,129c12,0,24,0,36,0c3.2,0,3.2-5,0-5c-12,0-24,0-36,0C614.2,124,614.2,129,617.4,129
				L617.4,129z"/>
		</g>
	</g>
	<g id="XMLID_13_">
		<g id="XMLID_875_">
			<path id="XMLID_879_" class="st2" d="M637.9,144.5c0-12,0-24,0-36c0-3.2-5-3.2-5,0c0,12,0,24,0,36
				C632.9,147.7,637.9,147.7,637.9,144.5L637.9,144.5z"/>
		</g>
	</g>
</g>
<g id="XMLID_12_">
	<circle id="XMLID_873_" class="st3" cx="653.4" cy="162.5" r="27"/>
	<g id="XMLID_868_">
		<path id="XMLID_872_" class="st4" d="M677.9,162.5c-0.3,13.4-10.9,24.5-24.5,24.5c-13.3,0-24.5-11.2-24.5-24.5
			c0-13.4,11.1-24.5,24.5-24.5C667,138,677.5,149.2,677.9,162.5c0.1,3.2,5.1,3.2,5,0c-0.3-12.1-7.4-23.1-18.9-27.5
			c-11.6-4.5-25.2-1-33.2,8.6c-17.4,20.9,1.4,52.7,28,47.9c14-2.5,23.7-15,24.1-29C683,159.3,678,159.3,677.9,162.5z"/>
	</g>
</g>
<g id="XMLID_2_">
	<g id="XMLID_9_">
		<circle id="XMLID_866_" class="st0" cx="626.4" cy="180.5" r="27"/>
		<g id="XMLID_861_">
			<path id="XMLID_865_" class="st1" d="M650.9,180.5c-0.3,13.4-10.9,24.5-24.5,24.5c-13.3,0-24.5-11.2-24.5-24.5
				c0-13.4,11.1-24.5,24.5-24.5C640,156,650.5,167.2,650.9,180.5c0.1,3.2,5.1,3.2,5,0c-0.3-12.1-7.4-23.1-18.9-27.5
				c-11.6-4.5-25.2-1-33.2,8.6c-17.4,20.9,1.4,52.7,28,47.9c14-2.5,23.7-15,24.1-29C656,177.3,651,177.3,650.9,180.5z"/>
		</g>
	</g>
	<g id="XMLID_8_">
		<g id="XMLID_855_">
			<path id="XMLID_859_" class="st2" d="M608.4,183c12,0,24,0,36,0c3.2,0,3.2-5,0-5c-12,0-24,0-36,0C605.2,178,605.2,183,608.4,183
				L608.4,183z"/>
		</g>
	</g>
	<g id="XMLID_7_">
		<g id="XMLID_849_">
			<path id="XMLID_853_" class="st2" d="M628.9,198.5c0-12,0-24,0-36c0-3.2-5-3.2-5,0c0,12,0,24,0,36
				C623.9,201.7,628.9,201.7,628.9,198.5L628.9,198.5z"/>
		</g>
	</g>
</g>
<g id="XMLID_107_">
	<circle id="XMLID_847_" class="st3" cx="237.7" cy="86" r="27"/>
	<g id="XMLID_842_">
		<path id="XMLID_846_" class="st4" d="M262.2,86c-0.3,13.4-10.9,24.5-24.5,24.5c-13.3,0-24.5-11.2-24.5-24.5
			c0-13.4,11.1-24.5,24.5-24.5C251.3,61.5,261.9,72.7,262.2,86c0.1,3.2,5.1,3.2,5,0c-0.3-12.1-7.4-23.1-18.9-27.5
			c-11.6-4.5-25.2-1-33.2,8.6c-17.4,20.9,1.4,52.7,28,47.9c14-2.5,23.7-15,24.1-29C267.3,82.8,262.3,82.8,262.2,86z"/>
	</g>
</g>
<g id="XMLID_106_">
	<circle id="XMLID_840_" class="st3" cx="93.7" cy="176" r="27"/>
	<g id="XMLID_835_">
		<path id="XMLID_839_" class="st4" d="M118.2,176c-0.3,13.4-10.9,24.5-24.5,24.5c-13.3,0-24.5-11.2-24.5-24.5
			c0-13.4,11.1-24.5,24.5-24.5C107.3,151.5,117.9,162.7,118.2,176c0.1,3.2,5.1,3.2,5,0c-0.3-12.1-7.4-23.1-18.9-27.5
			c-11.6-4.5-25.2-1-33.2,8.6c-17.4,20.9,1.4,52.7,28,47.9c14-2.5,23.7-15,24.1-29C123.3,172.8,118.3,172.8,118.2,176z"/>
	</g>
</g>
<g id="XMLID_263_">
	<g id="XMLID_105_">
		<circle id="XMLID_833_" class="st0" cx="201.7" cy="68" r="27"/>
		<g id="XMLID_828_">
			<path id="XMLID_832_" class="st1" d="M226.2,68c-0.3,13.4-10.9,24.5-24.5,24.5c-13.3,0-24.5-11.2-24.5-24.5
				c0-13.4,11.1-24.5,24.5-24.5C215.3,43.5,225.9,54.7,226.2,68c0.1,3.2,5.1,3.2,5,0c-0.3-12.1-7.4-23.1-18.9-27.5
				c-11.6-4.5-25.2-1-33.2,8.6c-17.4,20.9,1.4,52.7,28,47.9c14-2.5,23.7-15,24.1-29C231.3,64.8,226.3,64.8,226.2,68z"/>
		</g>
	</g>
	<g id="XMLID_104_">
		<g id="XMLID_822_">
			<path id="XMLID_826_" class="st2" d="M183.7,70.5c12,0,24,0,36,0c3.2,0,3.2-5,0-5c-12,0-24,0-36,0
				C180.5,65.5,180.5,70.5,183.7,70.5L183.7,70.5z"/>
		</g>
	</g>
	<g id="XMLID_103_">
		<g id="XMLID_816_">
			<path id="XMLID_820_" class="st2" d="M204.2,86c0-12,0-24,0-36c0-3.2-5-3.2-5,0c0,12,0,24,0,36C199.2,89.2,204.2,89.2,204.2,86
				L204.2,86z"/>
		</g>
	</g>
</g>
<g id="XMLID_102_">
	<circle id="XMLID_814_" class="st3" cx="246.7" cy="158" r="27"/>
	<g id="XMLID_809_">
		<path id="XMLID_813_" class="st4" d="M271.2,158c-0.3,13.4-10.9,24.5-24.5,24.5c-13.3,0-24.5-11.2-24.5-24.5
			c0-13.4,11.1-24.5,24.5-24.5C260.3,133.5,270.9,144.7,271.2,158c0.1,3.2,5.1,3.2,5,0c-0.3-12.1-7.4-23.1-18.9-27.5
			c-11.6-4.5-25.2-1-33.2,8.6c-17.4,20.9,1.4,52.7,28,47.9c14-2.5,23.7-15,24.1-29C276.3,154.8,271.3,154.8,271.2,158z"/>
	</g>
</g>
<g id="XMLID_158_">
	<circle id="XMLID_807_" class="st3" cx="156.7" cy="59" r="27"/>
	<g id="XMLID_802_">
		<path id="XMLID_806_" class="st4" d="M181.2,59c-0.3,13.4-10.9,24.5-24.5,24.5c-13.3,0-24.5-11.2-24.5-24.5
			c0-13.4,11.1-24.5,24.5-24.5C170.3,34.5,180.9,45.7,181.2,59c0.1,3.2,5.1,3.2,5,0c-0.3-12.1-7.4-23.1-18.9-27.5
			c-11.6-4.5-25.2-1-33.2,8.6c-17.4,20.9,1.4,52.7,28,47.9c14-2.5,23.7-15,24.1-29C186.3,55.8,181.3,55.8,181.2,59z"/>
	</g>
</g>
<g id="XMLID_168_">
	<circle id="XMLID_800_" class="st3" cx="201.7" cy="221" r="27"/>
	<g id="XMLID_795_">
		<path id="XMLID_799_" class="st4" d="M226.2,221c-0.3,13.4-10.9,24.5-24.5,24.5c-13.3,0-24.5-11.2-24.5-24.5
			c0-13.4,11.1-24.5,24.5-24.5C215.3,196.5,225.9,207.7,226.2,221c0.1,3.2,5.1,3.2,5,0c-0.3-12.1-7.4-23.1-18.9-27.5
			c-11.6-4.5-25.2-1-33.2,8.6c-17.4,20.9,1.4,52.7,28,47.9c14-2.5,23.7-15,24.1-29C231.3,217.8,226.3,217.8,226.2,221z"/>
	</g>
</g>
<g id="XMLID_251_">
	<circle id="XMLID_793_" class="st3" cx="147.7" cy="230" r="27"/>
	<g id="XMLID_788_">
		<path id="XMLID_792_" class="st4" d="M172.2,230c-0.3,13.4-10.9,24.5-24.5,24.5c-13.3,0-24.5-11.2-24.5-24.5
			c0-13.4,11.1-24.5,24.5-24.5C161.3,205.5,171.9,216.7,172.2,230c0.1,3.2,5.1,3.2,5,0c-0.3-12.1-7.4-23.1-18.9-27.5
			c-11.6-4.5-25.2-1-33.2,8.6c-17.4,20.9,1.4,52.7,28,47.9c14-2.5,23.7-15,24.1-29C177.3,226.8,172.3,226.8,172.2,230z"/>
	</g>
</g>
<g id="XMLID_244_">
	<circle id="XMLID_786_" class="st3" cx="93.7" cy="104" r="27"/>
	<g id="XMLID_781_">
		<path id="XMLID_785_" class="st4" d="M118.2,104c-0.3,13.4-10.9,24.5-24.5,24.5c-13.3,0-24.5-11.2-24.5-24.5
			c0-13.4,11.1-24.5,24.5-24.5C107.3,79.5,117.9,90.7,118.2,104c0.1,3.2,5.1,3.2,5,0c-0.3-12.1-7.4-23.1-18.9-27.5
			c-11.6-4.5-25.2-1-33.2,8.6c-17.4,20.9,1.4,52.7,28,47.9c14-2.5,23.7-15,24.1-29C123.3,100.8,118.3,100.8,118.2,104z"/>
	</g>
</g>
<g id="XMLID_276_">
	<g id="XMLID_290_">
		<circle id="XMLID_779_" class="st0" cx="237.7" cy="131" r="27"/>
		<g id="XMLID_774_">
			<path id="XMLID_778_" class="st1" d="M262.2,131c-0.3,13.4-10.9,24.5-24.5,24.5c-13.3,0-24.5-11.2-24.5-24.5
				c0-13.4,11.1-24.5,24.5-24.5C251.3,106.5,261.9,117.7,262.2,131c0.1,3.2,5.1,3.2,5,0c-0.3-12.1-7.4-23.1-18.9-27.5
				c-11.6-4.5-25.2-1-33.2,8.6c-17.4,20.9,1.4,52.7,28,47.9c14-2.5,23.7-15,24.1-29C267.3,127.8,262.3,127.8,262.2,131z"/>
		</g>
	</g>
	<g id="XMLID_289_">
		<g id="XMLID_768_">
			<path id="XMLID_772_" class="st2" d="M219.7,133.5c12,0,24,0,36,0c3.2,0,3.2-5,0-5c-12,0-24,0-36,0
				C216.5,128.5,216.5,133.5,219.7,133.5L219.7,133.5z"/>
		</g>
	</g>
	<g id="XMLID_282_">
		<g id="XMLID_762_">
			<path id="XMLID_766_" class="st2" d="M240.2,149c0-12,0-24,0-36c0-3.2-5-3.2-5,0c0,12,0,24,0,36
				C235.2,152.2,240.2,152.2,240.2,149L240.2,149z"/>
		</g>
	</g>
</g>
<g id="XMLID_297_">
	<g id="XMLID_321_">
		<circle id="XMLID_760_" class="st0" cx="219.7" cy="149" r="27"/>
		<g id="XMLID_755_">
			<path id="XMLID_759_" class="st1" d="M244.2,149c-0.3,13.4-10.9,24.5-24.5,24.5c-13.3,0-24.5-11.2-24.5-24.5
				c0-13.4,11.1-24.5,24.5-24.5C233.3,124.5,243.9,135.7,244.2,149c0.1,3.2,5.1,3.2,5,0c-0.3-12.1-7.4-23.1-18.9-27.5
				c-11.6-4.5-25.2-1-33.2,8.6c-17.4,20.9,1.4,52.7,28,47.9c14-2.5,23.7-15,24.1-29C249.3,145.8,244.3,145.8,244.2,149z"/>
		</g>
	</g>
	<g id="XMLID_314_">
		<g id="XMLID_749_">
			<path id="XMLID_753_" class="st2" d="M201.7,151.5c12,0,24,0,36,0c3.2,0,3.2-5,0-5c-12,0-24,0-36,0
				C198.5,146.5,198.5,151.5,201.7,151.5L201.7,151.5z"/>
		</g>
	</g>
	<g id="XMLID_308_">
		<g id="XMLID_743_">
			<path id="XMLID_747_" class="st2" d="M222.2,167c0-12,0-24,0-36c0-3.2-5-3.2-5,0c0,12,0,24,0,36
				C217.2,170.2,222.2,170.2,222.2,167L222.2,167z"/>
		</g>
	</g>
</g>
<g id="XMLID_328_">
	<g id="XMLID_340_">
		<circle id="XMLID_741_" class="st0" cx="165.7" cy="212" r="27"/>
		<g id="XMLID_736_">
			<path id="XMLID_740_" class="st1" d="M190.2,212c-0.3,13.4-10.9,24.5-24.5,24.5c-13.3,0-24.5-11.2-24.5-24.5
				c0-13.4,11.1-24.5,24.5-24.5C179.3,187.5,189.9,198.7,190.2,212c0.1,3.2,5.1,3.2,5,0c-0.3-12.1-7.4-23.1-18.9-27.5
				c-11.6-4.5-25.2-1-33.2,8.6c-17.4,20.9,1.4,52.7,28,47.9c14-2.5,23.7-15,24.1-29C195.3,208.8,190.3,208.8,190.2,212z"/>
		</g>
	</g>
	<g id="XMLID_339_">
		<g id="XMLID_730_">
			<path id="XMLID_734_" class="st2" d="M147.7,214.5c12,0,24,0,36,0c3.2,0,3.2-5,0-5c-12,0-24,0-36,0
				C144.5,209.5,144.5,214.5,147.7,214.5L147.7,214.5z"/>
		</g>
	</g>
	<g id="XMLID_335_">
		<g id="XMLID_724_">
			<path id="XMLID_728_" class="st2" d="M168.2,230c0-12,0-24,0-36c0-3.2-5-3.2-5,0c0,12,0,24,0,36
				C163.2,233.2,168.2,233.2,168.2,230L168.2,230z"/>
		</g>
	</g>
</g>
<g id="XMLID_346_">
	<g id="XMLID_363_">
		<circle id="XMLID_722_" class="st0" cx="129.7" cy="194" r="27"/>
		<g id="XMLID_717_">
			<path id="XMLID_721_" class="st1" d="M154.2,194c-0.3,13.4-10.9,24.5-24.5,24.5c-13.3,0-24.5-11.2-24.5-24.5
				c0-13.4,11.1-24.5,24.5-24.5C143.3,169.5,153.9,180.7,154.2,194c0.1,3.2,5.1,3.2,5,0c-0.3-12.1-7.4-23.1-18.9-27.5
				c-11.6-4.5-25.2-1-33.2,8.6c-17.4,20.9,1.4,52.7,28,47.9c14-2.5,23.7-15,24.1-29C159.3,190.8,154.3,190.8,154.2,194z"/>
		</g>
	</g>
	<g id="XMLID_362_">
		<g id="XMLID_711_">
			<path id="XMLID_715_" class="st2" d="M111.7,196.5c12,0,24,0,36,0c3.2,0,3.2-5,0-5c-12,0-24,0-36,0
				C108.5,191.5,108.5,196.5,111.7,196.5L111.7,196.5z"/>
		</g>
	</g>
	<g id="XMLID_352_">
		<g id="XMLID_705_">
			<path id="XMLID_709_" class="st2" d="M132.2,212c0-12,0-24,0-36c0-3.2-5-3.2-5,0c0,12,0,24,0,36
				C127.2,215.2,132.2,215.2,132.2,212L132.2,212z"/>
		</g>
	</g>
</g>
<g id="XMLID_369_">
	<g id="XMLID_386_">
		<circle id="XMLID_703_" class="st0" cx="84.7" cy="140" r="27"/>
		<g id="XMLID_698_">
			<path id="XMLID_702_" class="st1" d="M109.2,140c-0.3,13.4-10.9,24.5-24.5,24.5c-13.3,0-24.5-11.2-24.5-24.5
				c0-13.4,11.1-24.5,24.5-24.5C98.3,115.5,108.9,126.7,109.2,140c0.1,3.2,5.1,3.2,5,0c-0.3-12.1-7.4-23.1-18.9-27.5
				c-11.6-4.5-25.2-1-33.2,8.6c-17.4,20.9,1.4,52.7,28,47.9c14-2.5,23.7-15,24.1-29C114.3,136.8,109.3,136.8,109.2,140z"/>
		</g>
	</g>
	<g id="XMLID_385_">
		<g id="XMLID_692_">
			<path id="XMLID_696_" class="st2" d="M66.7,142.5c12,0,24,0,36,0c3.2,0,3.2-5,0-5c-12,0-24,0-36,0
				C63.5,137.5,63.5,142.5,66.7,142.5L66.7,142.5z"/>
		</g>
	</g>
	<g id="XMLID_375_">
		<g id="XMLID_686_">
			<path id="XMLID_690_" class="st2" d="M87.2,158c0-12,0-24,0-36c0-3.2-5-3.2-5,0c0,12,0,24,0,36C82.2,161.2,87.2,161.2,87.2,158
				L87.2,158z"/>
		</g>
	</g>
</g>
<g id="XMLID_392_">
	<g id="XMLID_409_">
		<circle id="XMLID_684_" class="st0" cx="120.7" cy="212" r="27"/>
		<g id="XMLID_679_">
			<path id="XMLID_683_" class="st1" d="M145.2,212c-0.3,13.4-10.9,24.5-24.5,24.5c-13.3,0-24.5-11.2-24.5-24.5
				c0-13.4,11.1-24.5,24.5-24.5C134.3,187.5,144.9,198.7,145.2,212c0.1,3.2,5.1,3.2,5,0c-0.3-12.1-7.4-23.1-18.9-27.5
				c-11.6-4.5-25.2-1-33.2,8.6c-17.4,20.9,1.4,52.7,28,47.9c14-2.5,23.7-15,24.1-29C150.3,208.8,145.3,208.8,145.2,212z"/>
		</g>
	</g>
	<g id="XMLID_408_">
		<g id="XMLID_673_">
			<path id="XMLID_677_" class="st2" d="M102.7,214.5c12,0,24,0,36,0c3.2,0,3.2-5,0-5c-12,0-24,0-36,0
				C99.5,209.5,99.5,214.5,102.7,214.5L102.7,214.5z"/>
		</g>
	</g>
	<g id="XMLID_398_">
		<g id="XMLID_667_">
			<path id="XMLID_671_" class="st2" d="M123.2,230c0-12,0-24,0-36c0-3.2-5-3.2-5,0c0,12,0,24,0,36
				C118.2,233.2,123.2,233.2,123.2,230L123.2,230z"/>
		</g>
	</g>
</g>
<g id="XMLID_415_">
	<g id="XMLID_432_">
		<circle id="XMLID_665_" class="st0" cx="120.7" cy="86" r="27"/>
		<g id="XMLID_660_">
			<path id="XMLID_664_" class="st1" d="M145.2,86c-0.3,13.4-10.9,24.5-24.5,24.5c-13.3,0-24.5-11.2-24.5-24.5
				c0-13.4,11.1-24.5,24.5-24.5C134.3,61.5,144.9,72.7,145.2,86c0.1,3.2,5.1,3.2,5,0c-0.3-12.1-7.4-23.1-18.9-27.5
				c-11.6-4.5-25.2-1-33.2,8.6c-17.4,20.9,1.4,52.7,28,47.9c14-2.5,23.7-15,24.1-29C150.3,82.8,145.3,82.8,145.2,86z"/>
		</g>
	</g>
	<g id="XMLID_431_">
		<g id="XMLID_654_">
			<path id="XMLID_658_" class="st2" d="M102.7,88.5c12,0,24,0,36,0c3.2,0,3.2-5,0-5c-12,0-24,0-36,0
				C99.5,83.5,99.5,88.5,102.7,88.5L102.7,88.5z"/>
		</g>
	</g>
	<g id="XMLID_421_">
		<g id="XMLID_648_">
			<path id="XMLID_652_" class="st2" d="M123.2,104c0-12,0-24,0-36c0-3.2-5-3.2-5,0c0,12,0,24,0,36
				C118.2,107.2,123.2,107.2,123.2,104L123.2,104z"/>
		</g>
	</g>
</g>
<g id="XMLID_165_">
	<circle id="XMLID_646_" class="st3" cx="174.7" cy="77" r="27"/>
	<g id="XMLID_641_">
		<path id="XMLID_645_" class="st4" d="M199.2,77c-0.3,13.4-10.9,24.5-24.5,24.5c-13.3,0-24.5-11.2-24.5-24.5
			c0-13.4,11.1-24.5,24.5-24.5C188.3,52.5,198.9,63.7,199.2,77c0.1,3.2,5.1,3.2,5,0c-0.3-12.1-7.4-23.1-18.9-27.5
			c-11.6-4.5-25.2-1-33.2,8.6c-17.4,20.9,1.4,52.7,28,47.9c14-2.5,23.7-15,24.1-29C204.3,73.8,199.3,73.8,199.2,77z"/>
	</g>
</g>
<g id="XMLID_166_">
	<circle id="XMLID_639_" class="st3" cx="210.7" cy="104" r="27"/>
	<g id="XMLID_634_">
		<path id="XMLID_638_" class="st4" d="M235.2,104c-0.3,13.4-10.9,24.5-24.5,24.5c-13.3,0-24.5-11.2-24.5-24.5
			c0-13.4,11.1-24.5,24.5-24.5C224.3,79.5,234.9,90.7,235.2,104c0.1,3.2,5.1,3.2,5,0c-0.3-12.1-7.4-23.1-18.9-27.5
			c-11.6-4.5-25.2-1-33.2,8.6c-17.4,20.9,1.4,52.7,28,47.9c14-2.5,23.7-15,24.1-29C240.3,100.8,235.3,100.8,235.2,104z"/>
	</g>
</g>
<g id="XMLID_167_">
	<circle id="XMLID_632_" class="st3" cx="210.7" cy="194" r="27"/>
	<g id="XMLID_627_">
		<path id="XMLID_631_" class="st4" d="M235.2,194c-0.3,13.4-10.9,24.5-24.5,24.5c-13.3,0-24.5-11.2-24.5-24.5
			c0-13.4,11.1-24.5,24.5-24.5C224.3,169.5,234.9,180.7,235.2,194c0.1,3.2,5.1,3.2,5,0c-0.3-12.1-7.4-23.1-18.9-27.5
			c-11.6-4.5-25.2-1-33.2,8.6c-17.4,20.9,1.4,52.7,28,47.9c14-2.5,23.7-15,24.1-29C240.3,190.8,235.3,190.8,235.2,194z"/>
	</g>
</g>
<g id="XMLID_225_">
	<circle id="XMLID_625_" class="st3" cx="156.7" cy="185" r="27"/>
	<g id="XMLID_620_">
		<path id="XMLID_624_" class="st4" d="M181.2,185c-0.3,13.4-10.9,24.5-24.5,24.5c-13.3,0-24.5-11.2-24.5-24.5
			c0-13.4,11.1-24.5,24.5-24.5C170.3,160.5,180.9,171.7,181.2,185c0.1,3.2,5.1,3.2,5,0c-0.3-12.1-7.4-23.1-18.9-27.5
			c-11.6-4.5-25.2-1-33.2,8.6c-17.4,20.9,1.4,52.7,28,47.9c14-2.5,23.7-15,24.1-29C186.3,181.8,181.3,181.8,181.2,185z"/>
	</g>
</g>
<g id="XMLID_232_">
	<circle id="XMLID_618_" class="st3" cx="120.7" cy="158" r="27"/>
	<g id="XMLID_613_">
		<path id="XMLID_617_" class="st4" d="M145.2,158c-0.3,13.4-10.9,24.5-24.5,24.5c-13.3,0-24.5-11.2-24.5-24.5
			c0-13.4,11.1-24.5,24.5-24.5C134.3,133.5,144.9,144.7,145.2,158c0.1,3.2,5.1,3.2,5,0c-0.3-12.1-7.4-23.1-18.9-27.5
			c-11.6-4.5-25.2-1-33.2,8.6c-17.4,20.9,1.4,52.7,28,47.9c14-2.5,23.7-15,24.1-29C150.3,154.8,145.3,154.8,145.2,158z"/>
	</g>
</g>
<g id="XMLID_238_">
	<circle id="XMLID_611_" class="st3" cx="129.7" cy="104" r="27"/>
	<g id="XMLID_606_">
		<path id="XMLID_610_" class="st4" d="M154.2,104c-0.3,13.4-10.9,24.5-24.5,24.5c-13.3,0-24.5-11.2-24.5-24.5
			c0-13.4,11.1-24.5,24.5-24.5C143.3,79.5,153.9,90.7,154.2,104c0.1,3.2,5.1,3.2,5,0c-0.3-12.1-7.4-23.1-18.9-27.5
			c-11.6-4.5-25.2-1-33.2,8.6c-17.4,20.9,1.4,52.7,28,47.9c14-2.5,23.7-15,24.1-29C159.3,100.8,154.3,100.8,154.2,104z"/>
	</g>
</g>
<g id="XMLID_256_">
	<g id="XMLID_299_">
		<circle id="XMLID_604_" class="st0" cx="192.7" cy="176" r="27"/>
		<g id="XMLID_599_">
			<path id="XMLID_603_" class="st1" d="M217.2,176c-0.3,13.4-10.9,24.5-24.5,24.5c-13.3,0-24.5-11.2-24.5-24.5
				c0-13.4,11.1-24.5,24.5-24.5C206.3,151.5,216.9,162.7,217.2,176c0.1,3.2,5.1,3.2,5,0c-0.3-12.1-7.4-23.1-18.9-27.5
				c-11.6-4.5-25.2-1-33.2,8.6c-17.4,20.9,1.4,52.7,28,47.9c14-2.5,23.7-15,24.1-29C222.3,172.8,217.3,172.8,217.2,176z"/>
		</g>
	</g>
	<g id="XMLID_281_">
		<g id="XMLID_592_">
			<path id="XMLID_597_" class="st2" d="M174.7,178.5c12,0,24,0,36,0c3.2,0,3.2-5,0-5c-12,0-24,0-36,0
				C171.5,173.5,171.5,178.5,174.7,178.5L174.7,178.5z"/>
		</g>
	</g>
	<g id="XMLID_272_">
		<g id="XMLID_585_">
			<path id="XMLID_590_" class="st2" d="M195.2,194c0-12,0-24,0-36c0-3.2-5-3.2-5,0c0,12,0,24,0,36
				C190.2,197.2,195.2,197.2,195.2,194L195.2,194z"/>
		</g>
	</g>
</g>
<g id="XMLID_501_">
	<g id="XMLID_513_">
		<circle id="XMLID_583_" class="st0" cx="120.7" cy="122" r="27"/>
		<g id="XMLID_576_">
			<path id="XMLID_580_" class="st1" d="M145.2,122c-0.3,13.4-10.9,24.5-24.5,24.5c-13.3,0-24.5-11.2-24.5-24.5
				c0-13.4,11.1-24.5,24.5-24.5C134.3,97.5,144.9,108.7,145.2,122c0.1,3.2,5.1,3.2,5,0c-0.3-12.1-7.4-23.1-18.9-27.5
				c-11.6-4.5-25.2-1-33.2,8.6c-17.4,20.9,1.4,52.7,28,47.9c14-2.5,23.7-15,24.1-29C150.3,118.8,145.3,118.8,145.2,122z"/>
		</g>
	</g>
	<g id="XMLID_512_">
		<g id="XMLID_570_">
			<path id="XMLID_574_" class="st2" d="M102.7,124.5c12,0,24,0,36,0c3.2,0,3.2-5,0-5c-12,0-24,0-36,0
				C99.5,119.5,99.5,124.5,102.7,124.5L102.7,124.5z"/>
		</g>
	</g>
	<g id="XMLID_502_">
		<g id="XMLID_564_">
			<path id="XMLID_568_" class="st2" d="M123.2,140c0-12,0-24,0-36c0-3.2-5-3.2-5,0c0,12,0,24,0,36
				C118.2,143.2,123.2,143.2,123.2,140L123.2,140z"/>
		</g>
	</g>
</g>
<g id="XMLID_519_">
	<g id="XMLID_536_">
		<circle id="XMLID_562_" class="st0" cx="165.7" cy="104" r="27"/>
		<g id="XMLID_557_">
			<path id="XMLID_561_" class="st1" d="M190.2,104c-0.3,13.4-10.9,24.5-24.5,24.5c-13.3,0-24.5-11.2-24.5-24.5
				c0-13.4,11.1-24.5,24.5-24.5C179.3,79.5,189.9,90.7,190.2,104c0.1,3.2,5.1,3.2,5,0c-0.3-12.1-7.4-23.1-18.9-27.5
				c-11.6-4.5-25.2-1-33.2,8.6c-17.4,20.9,1.4,52.7,28,47.9c14-2.5,23.7-15,24.1-29C195.3,100.8,190.3,100.8,190.2,104z"/>
		</g>
	</g>
	<g id="XMLID_535_">
		<g id="XMLID_551_">
			<path id="XMLID_555_" class="st2" d="M147.7,106.5c12,0,24,0,36,0c3.2,0,3.2-5,0-5c-12,0-24,0-36,0
				C144.5,101.5,144.5,106.5,147.7,106.5L147.7,106.5z"/>
		</g>
	</g>
	<g id="XMLID_525_">
		<g id="XMLID_545_">
			<path id="XMLID_549_" class="st2" d="M168.2,122c0-12,0-24,0-36c0-3.2-5-3.2-5,0c0,12,0,24,0,36
				C163.2,125.2,168.2,125.2,168.2,122L168.2,122z"/>
		</g>
	</g>
</g>
<g id="XMLID_18_">
	<circle id="XMLID_543_" class="st3" cx="138.7" cy="131" r="27"/>
	<g id="XMLID_538_">
		<path id="XMLID_542_" class="st4" d="M163.2,131c-0.3,13.4-10.9,24.5-24.5,24.5c-13.3,0-24.5-11.2-24.5-24.5
			c0-13.4,11.1-24.5,24.5-24.5C152.3,106.5,162.9,117.7,163.2,131c0.1,3.2,5.1,3.2,5,0c-0.3-12.1-7.4-23.1-18.9-27.5
			c-11.6-4.5-25.2-1-33.2,8.6c-17.4,20.9,1.4,52.7,28,47.9c14-2.5,23.7-15,24.1-29C168.3,127.8,163.3,127.8,163.2,131z"/>
	</g>
</g>
<g id="XMLID_11_">
	<g id="XMLID_17_">
		<circle id="XMLID_534_" class="st0" cx="165.7" cy="104" r="27"/>
		<g id="XMLID_529_">
			<path id="XMLID_533_" class="st1" d="M190.2,104c-0.3,13.4-10.9,24.5-24.5,24.5c-13.3,0-24.5-11.2-24.5-24.5
				c0-13.4,11.1-24.5,24.5-24.5C179.3,79.5,189.9,90.7,190.2,104c0.1,3.2,5.1,3.2,5,0c-0.3-12.1-7.4-23.1-18.9-27.5
				c-11.6-4.5-25.2-1-33.2,8.6c-17.4,20.9,1.4,52.7,28,47.9c14-2.5,23.7-15,24.1-29C195.3,100.8,190.3,100.8,190.2,104z"/>
		</g>
	</g>
	<g id="XMLID_16_">
		<g id="XMLID_522_">
			<path id="XMLID_527_" class="st2" d="M147.7,106.5c12,0,24,0,36,0c3.2,0,3.2-5,0-5c-12,0-24,0-36,0
				C144.5,101.5,144.5,106.5,147.7,106.5L147.7,106.5z"/>
		</g>
	</g>
	<g id="XMLID_15_">
		<g id="XMLID_515_">
			<path id="XMLID_520_" class="st2" d="M168.2,122c0-12,0-24,0-36c0-3.2-5-3.2-5,0c0,12,0,24,0,36
				C163.2,125.2,168.2,125.2,168.2,122L168.2,122z"/>
		</g>
	</g>
</g>
<g id="XMLID_10_">
	<circle id="XMLID_511_" class="st3" cx="183.7" cy="140" r="27"/>
	<g id="XMLID_506_">
		<path id="XMLID_510_" class="st4" d="M208.2,140c-0.3,13.4-10.9,24.5-24.5,24.5c-13.3,0-24.5-11.2-24.5-24.5
			c0-13.4,11.1-24.5,24.5-24.5C197.3,115.5,207.9,126.7,208.2,140c0.1,3.2,5.1,3.2,5,0c-0.3-12.1-7.4-23.1-18.9-27.5
			c-11.6-4.5-25.2-1-33.2,8.6c-17.4,20.9,1.4,52.7,28,47.9c14-2.5,23.7-15,24.1-29C213.3,136.8,208.3,136.8,208.2,140z"/>
	</g>
</g>
<g id="XMLID_3_">
	<g id="XMLID_6_">
		<circle id="XMLID_504_" class="st0" cx="156.7" cy="158" r="27"/>
		<g id="XMLID_497_">
			<path id="XMLID_503_" class="st1" d="M181.2,158c-0.3,13.4-10.9,24.5-24.5,24.5c-13.3,0-24.5-11.2-24.5-24.5
				c0-13.4,11.1-24.5,24.5-24.5C170.3,133.5,180.9,144.7,181.2,158c0.1,3.2,5.1,3.2,5,0c-0.3-12.1-7.4-23.1-18.9-27.5
				c-11.6-4.5-25.2-1-33.2,8.6c-17.4,20.9,1.4,52.7,28,47.9c14-2.5,23.7-15,24.1-29C186.3,154.8,181.3,154.8,181.2,158z"/>
		</g>
	</g>
	<g id="XMLID_5_">
		<g id="XMLID_491_">
			<path id="XMLID_495_" class="st2" d="M138.7,160.5c12,0,24,0,36,0c3.2,0,3.2-5,0-5c-12,0-24,0-36,0
				C135.5,155.5,135.5,160.5,138.7,160.5L138.7,160.5z"/>
		</g>
	</g>
	<g id="XMLID_4_">
		<g id="XMLID_485_">
			<path id="XMLID_489_" class="st2" d="M159.2,176c0-12,0-24,0-36c0-3.2-5-3.2-5,0c0,12,0,24,0,36
				C154.2,179.2,159.2,179.2,159.2,176L159.2,176z"/>
		</g>
	</g>
</g>
<g id="XMLID_84_">
	<g id="XMLID_927_">
		<path id="XMLID_937_" class="st5" d="M193.2,114.6c6.3-17.4-4.4-36.9-23.1-39.8c-17.9-2.7-33.5,11.4-33.9,29.1
			c0.8-0.8,1.7-1.7,2.5-2.5c-14,0.4-26.5,10-29,24.1c-2.6,14.6,5.8,28.1,19.4,33.3c-0.6-0.8-1.2-1.6-1.8-2.4
			c-0.4,14.3,9.1,27.5,23.3,30.4c14.7,3,28.7-5.4,34-19.2c-0.8,0.6-1.6,1.2-2.4,1.8c14.8,0.4,28.2-9.8,30.6-24.7
			c2.4-15-7-28.9-21.3-33.2c-3.1-0.9-4.4,3.9-1.3,4.8c12.1,3.6,20.2,15.7,17.6,28.4c-2.5,12.2-13.4,20-25.6,19.7
			c-1.2,0-2,0.8-2.4,1.8c-4.5,11.7-16.9,18.5-29.1,15.4c-11.5-2.9-18.7-13.7-18.4-25.3c0-1.2-0.8-2-1.8-2.4
			c-11.4-4.4-18.4-16.4-15.6-28.5c2.6-11.2,12.5-18.8,23.9-19.1c1.4,0,2.5-1.1,2.5-2.5c0.4-14.8,13.3-26.5,28.3-24.2
			c15.9,2.5,24.2,18.9,18.9,33.5C187.3,116.3,192.1,117.6,193.2,114.6z"/>
	</g>
</g>
<g id="XMLID_261_">
	<g id="XMLID_319_">
		<circle id="XMLID_477_" class="st0" cx="980" cy="198.5" r="27"/>
		<g id="XMLID_472_">
			<path id="XMLID_476_" class="st1" d="M1004.5,198.5c-0.3,13.4-10.9,24.5-24.5,24.5c-13.3,0-24.5-11.2-24.5-24.5
				c0-13.4,11.1-24.5,24.5-24.5C993.6,174,1004.2,185.2,1004.5,198.5c0.1,3.2,5.1,3.2,5,0c-0.3-12.1-7.4-23.1-18.9-27.5
				c-11.6-4.5-25.2-1-33.2,8.6c-17.4,20.9,1.4,52.7,28,47.9c14-2.5,23.7-15,24.1-29C1009.6,195.3,1004.6,195.3,1004.5,198.5z"/>
		</g>
	</g>
	<g id="XMLID_310_">
		<g id="XMLID_466_">
			<path id="XMLID_470_" class="st2" d="M962,201c12,0,24,0,36,0c3.2,0,3.2-5,0-5c-12,0-24,0-36,0C958.8,196,958.8,201,962,201
				L962,201z"/>
		</g>
	</g>
	<g id="XMLID_262_">
		<g id="XMLID_460_">
			<path id="XMLID_464_" class="st2" d="M982.5,216.5c0-12,0-24,0-36c0-3.2-5-3.2-5,0c0,12,0,24,0,36
				C977.5,219.7,982.5,219.7,982.5,216.5L982.5,216.5z"/>
		</g>
	</g>
</g>
<g id="XMLID_260_">
	<circle id="XMLID_458_" class="st3" cx="863" cy="72.5" r="27"/>
	<g id="XMLID_453_">
		<path id="XMLID_457_" class="st4" d="M887.5,72.5C887.2,85.9,876.6,97,863,97c-13.3,0-24.5-11.2-24.5-24.5
			c0-13.4,11.1-24.5,24.5-24.5C876.6,48,887.2,59.2,887.5,72.5c0.1,3.2,5.1,3.2,5,0c-0.3-12.1-7.4-23.1-18.9-27.5
			c-11.6-4.5-25.2-1-33.2,8.6c-17.4,20.9,1.4,52.7,28,47.9c14-2.5,23.7-15,24.1-29C892.6,69.3,887.6,69.3,887.5,72.5z"/>
	</g>
</g>
<g id="XMLID_259_">
	<circle id="XMLID_451_" class="st3" cx="980" cy="90.5" r="27"/>
	<g id="XMLID_446_">
		<path id="XMLID_450_" class="st4" d="M1004.5,90.5c-0.3,13.4-10.9,24.5-24.5,24.5c-13.3,0-24.5-11.2-24.5-24.5
			c0-13.4,11.1-24.5,24.5-24.5C993.6,66,1004.2,77.2,1004.5,90.5c0.1,3.2,5.1,3.2,5,0c-0.3-12.1-7.4-23.1-18.9-27.5
			c-11.6-4.5-25.2-1-33.2,8.6c-17.4,20.9,1.4,52.7,28,47.9c14-2.5,23.7-15,24.1-29C1009.6,87.3,1004.6,87.3,1004.5,90.5z"/>
	</g>
</g>
<g id="XMLID_258_">
	<circle id="XMLID_444_" class="st3" cx="836" cy="180.5" r="27"/>
	<g id="XMLID_439_">
		<path id="XMLID_443_" class="st4" d="M860.5,180.5c-0.3,13.4-10.9,24.5-24.5,24.5c-13.3,0-24.5-11.2-24.5-24.5
			c0-13.4,11.1-24.5,24.5-24.5C849.6,156,860.2,167.2,860.5,180.5c0.1,3.2,5.1,3.2,5,0c-0.3-12.1-7.4-23.1-18.9-27.5
			c-11.6-4.5-25.2-1-33.2,8.6c-17.4,20.9,1.4,52.7,28,47.9c14-2.5,23.7-15,24.1-29C865.6,177.3,860.6,177.3,860.5,180.5z"/>
	</g>
</g>
<g id="XMLID_249_">
	<g id="XMLID_257_">
		<circle id="XMLID_437_" class="st0" cx="944" cy="72.5" r="27"/>
		<g id="XMLID_430_">
			<path id="XMLID_436_" class="st1" d="M968.5,72.5C968.2,85.9,957.6,97,944,97c-13.3,0-24.5-11.2-24.5-24.5
				c0-13.4,11.1-24.5,24.5-24.5C957.6,48,968.2,59.2,968.5,72.5c0.1,3.2,5.1,3.2,5,0c-0.3-12.1-7.4-23.1-18.9-27.5
				c-11.6-4.5-25.2-1-33.2,8.6c-17.4,20.9,1.4,52.7,28,47.9c14-2.5,23.7-15,24.1-29C973.6,69.3,968.6,69.3,968.5,72.5z"/>
		</g>
	</g>
	<g id="XMLID_252_">
		<g id="XMLID_424_">
			<path id="XMLID_428_" class="st2" d="M926,75c12,0,24,0,36,0c3.2,0,3.2-5,0-5c-12,0-24,0-36,0C922.8,70,922.8,75,926,75L926,75z"
				/>
		</g>
	</g>
	<g id="XMLID_250_">
		<g id="XMLID_417_">
			<path id="XMLID_422_" class="st2" d="M946.5,90.5c0-12,0-24,0-36c0-3.2-5-3.2-5,0c0,12,0,24,0,36
				C941.5,93.7,946.5,93.7,946.5,90.5L946.5,90.5z"/>
		</g>
	</g>
</g>
<g id="XMLID_248_">
	<circle id="XMLID_414_" class="st3" cx="989" cy="162.5" r="27"/>
	<g id="XMLID_407_">
		<path id="XMLID_413_" class="st4" d="M1013.5,162.5c-0.3,13.4-10.9,24.5-24.5,24.5c-13.3,0-24.5-11.2-24.5-24.5
			c0-13.4,11.1-24.5,24.5-24.5C1002.6,138,1013.2,149.2,1013.5,162.5c0.1,3.2,5.1,3.2,5,0c-0.3-12.1-7.4-23.1-18.9-27.5
			c-11.6-4.5-25.2-1-33.2,8.6c-17.4,20.9,1.4,52.7,28,47.9c14-2.5,23.7-15,24.1-29C1018.6,159.3,1013.6,159.3,1013.5,162.5z"/>
	</g>
</g>
<g id="XMLID_247_">
	<circle id="XMLID_405_" class="st3" cx="899" cy="63.5" r="27"/>
	<g id="XMLID_400_">
		<path id="XMLID_404_" class="st4" d="M923.5,63.5C923.2,76.9,912.6,88,899,88c-13.3,0-24.5-11.2-24.5-24.5
			c0-13.4,11.1-24.5,24.5-24.5C912.6,39,923.2,50.2,923.5,63.5c0.1,3.2,5.1,3.2,5,0c-0.3-12.1-7.4-23.1-18.9-27.5
			c-11.6-4.5-25.2-1-33.2,8.6c-17.4,20.9,1.4,52.7,28,47.9c14-2.5,23.7-15,24.1-29C928.6,60.3,923.6,60.3,923.5,63.5z"/>
	</g>
</g>
<g id="XMLID_246_">
	<circle id="XMLID_397_" class="st3" cx="944" cy="225.5" r="27"/>
	<g id="XMLID_391_">
		<path id="XMLID_396_" class="st4" d="M968.5,225.5c-0.3,13.4-10.9,24.5-24.5,24.5c-13.3,0-24.5-11.2-24.5-24.5
			c0-13.4,11.1-24.5,24.5-24.5C957.6,201,968.2,212.2,968.5,225.5c0.1,3.2,5.1,3.2,5,0c-0.3-12.1-7.4-23.1-18.9-27.5
			c-11.6-4.5-25.2-1-33.2,8.6c-17.4,20.9,1.4,52.7,28,47.9c14-2.5,23.7-15,24.1-29C973.6,222.3,968.6,222.3,968.5,225.5z"/>
	</g>
</g>
<g id="XMLID_245_">
	<circle id="XMLID_389_" class="st3" cx="890" cy="234.5" r="27"/>
	<g id="XMLID_382_">
		<path id="XMLID_388_" class="st4" d="M914.5,234.5c-0.3,13.4-10.9,24.5-24.5,24.5c-13.3,0-24.5-11.2-24.5-24.5
			c0-13.4,11.1-24.5,24.5-24.5C903.6,210,914.2,221.2,914.5,234.5c0.1,3.2,5.1,3.2,5,0c-0.3-12.1-7.4-23.1-18.9-27.5
			c-11.6-4.5-25.2-1-33.2,8.6c-17.4,20.9,1.4,52.7,28,47.9c14-2.5,23.7-15,24.1-29C919.6,231.3,914.6,231.3,914.5,234.5z"/>
	</g>
</g>
<g id="XMLID_243_">
	<circle id="XMLID_380_" class="st3" cx="836" cy="108.5" r="27"/>
	<g id="XMLID_374_">
		<path id="XMLID_379_" class="st4" d="M860.5,108.5c-0.3,13.4-10.9,24.5-24.5,24.5c-13.3,0-24.5-11.2-24.5-24.5
			c0-13.4,11.1-24.5,24.5-24.5C849.6,84,860.2,95.2,860.5,108.5c0.1,3.2,5.1,3.2,5,0c-0.3-12.1-7.4-23.1-18.9-27.5
			c-11.6-4.5-25.2-1-33.2,8.6c-17.4,20.9,1.4,52.7,28,47.9c14-2.5,23.7-15,24.1-29C865.6,105.3,860.6,105.3,860.5,108.5z"/>
	</g>
</g>
<g id="XMLID_239_">
	<g id="XMLID_242_">
		<circle id="XMLID_372_" class="st0" cx="980" cy="135.5" r="27"/>
		<g id="XMLID_366_">
			<path id="XMLID_371_" class="st1" d="M1004.5,135.5c-0.3,13.4-10.9,24.5-24.5,24.5c-13.3,0-24.5-11.2-24.5-24.5
				c0-13.4,11.1-24.5,24.5-24.5C993.6,111,1004.2,122.2,1004.5,135.5c0.1,3.2,5.1,3.2,5,0c-0.3-12.1-7.4-23.1-18.9-27.5
				c-11.6-4.5-25.2-1-33.2,8.6c-17.4,20.9,1.4,52.7,28,47.9c14-2.5,23.7-15,24.1-29C1009.6,132.3,1004.6,132.3,1004.5,135.5z"/>
		</g>
	</g>
	<g id="XMLID_241_">
		<g id="XMLID_358_">
			<path id="XMLID_364_" class="st2" d="M962,138c12,0,24,0,36,0c3.2,0,3.2-5,0-5c-12,0-24,0-36,0C958.8,133,958.8,138,962,138
				L962,138z"/>
		</g>
	</g>
	<g id="XMLID_240_">
		<g id="XMLID_351_">
			<path id="XMLID_356_" class="st2" d="M982.5,153.5c0-12,0-24,0-36c0-3.2-5-3.2-5,0c0,12,0,24,0,36
				C977.5,156.7,982.5,156.7,982.5,153.5L982.5,153.5z"/>
		</g>
	</g>
</g>
<g id="XMLID_234_">
	<g id="XMLID_237_">
		<circle id="XMLID_349_" class="st0" cx="962" cy="153.5" r="27"/>
		<g id="XMLID_343_">
			<path id="XMLID_348_" class="st1" d="M986.5,153.5c-0.3,13.4-10.9,24.5-24.5,24.5c-13.3,0-24.5-11.2-24.5-24.5
				c0-13.4,11.1-24.5,24.5-24.5C975.6,129,986.2,140.2,986.5,153.5c0.1,3.2,5.1,3.2,5,0c-0.3-12.1-7.4-23.1-18.9-27.5
				c-11.6-4.5-25.2-1-33.2,8.6c-17.4,20.9,1.4,52.7,28,47.9c14-2.5,23.7-15,24.1-29C991.6,150.3,986.6,150.3,986.5,153.5z"/>
		</g>
	</g>
	<g id="XMLID_236_">
		<g id="XMLID_334_">
			<path id="XMLID_341_" class="st2" d="M944,156c12,0,24,0,36,0c3.2,0,3.2-5,0-5c-12,0-24,0-36,0C940.8,151,940.8,156,944,156
				L944,156z"/>
		</g>
	</g>
	<g id="XMLID_235_">
		<g id="XMLID_327_">
			<path id="XMLID_332_" class="st2" d="M964.5,171.5c0-12,0-24,0-36c0-3.2-5-3.2-5,0c0,12,0,24,0,36
				C959.5,174.7,964.5,174.7,964.5,171.5L964.5,171.5z"/>
		</g>
	</g>
</g>
<g id="XMLID_205_">
	<g id="XMLID_233_">
		<circle id="XMLID_325_" class="st0" cx="908" cy="216.5" r="27"/>
		<g id="XMLID_318_">
			<path id="XMLID_324_" class="st1" d="M932.5,216.5c-0.3,13.4-10.9,24.5-24.5,24.5c-13.3,0-24.5-11.2-24.5-24.5
				c0-13.4,11.1-24.5,24.5-24.5C921.6,192,932.2,203.2,932.5,216.5c0.1,3.2,5.1,3.2,5,0c-0.3-12.1-7.4-23.1-18.9-27.5
				c-11.6-4.5-25.2-1-33.2,8.6c-17.4,20.9,1.4,52.7,28,47.9c14-2.5,23.7-15,24.1-29C937.6,213.3,932.6,213.3,932.5,216.5z"/>
		</g>
	</g>
	<g id="XMLID_218_">
		<g id="XMLID_311_">
			<path id="XMLID_316_" class="st2" d="M890,219c12,0,24,0,36,0c3.2,0,3.2-5,0-5c-12,0-24,0-36,0C886.8,214,886.8,219,890,219
				L890,219z"/>
		</g>
	</g>
	<g id="XMLID_211_">
		<g id="XMLID_303_">
			<path id="XMLID_307_" class="st2" d="M910.5,234.5c0-12,0-24,0-36c0-3.2-5-3.2-5,0c0,12,0,24,0,36
				C905.5,237.7,910.5,237.7,910.5,234.5L910.5,234.5z"/>
		</g>
	</g>
</g>
<g id="XMLID_188_">
	<g id="XMLID_191_">
		<circle id="XMLID_301_" class="st0" cx="872" cy="198.5" r="27"/>
		<g id="XMLID_294_">
			<path id="XMLID_300_" class="st1" d="M896.5,198.5c-0.3,13.4-10.9,24.5-24.5,24.5c-13.3,0-24.5-11.2-24.5-24.5
				c0-13.4,11.1-24.5,24.5-24.5C885.6,174,896.2,185.2,896.5,198.5c0.1,3.2,5.1,3.2,5,0c-0.3-12.1-7.4-23.1-18.9-27.5
				c-11.6-4.5-25.2-1-33.2,8.6c-17.4,20.9,1.4,52.7,28,47.9c14-2.5,23.7-15,24.1-29C901.6,195.3,896.6,195.3,896.5,198.5z"/>
		</g>
	</g>
	<g id="XMLID_190_">
		<g id="XMLID_286_">
			<path id="XMLID_292_" class="st2" d="M854,201c12,0,24,0,36,0c3.2,0,3.2-5,0-5c-12,0-24,0-36,0C850.8,196,850.8,201,854,201
				L854,201z"/>
		</g>
	</g>
	<g id="XMLID_189_">
		<g id="XMLID_278_">
			<path id="XMLID_284_" class="st2" d="M874.5,216.5c0-12,0-24,0-36c0-3.2-5-3.2-5,0c0,12,0,24,0,36
				C869.5,219.7,874.5,219.7,874.5,216.5L874.5,216.5z"/>
		</g>
	</g>
</g>
<g id="XMLID_183_">
	<g id="XMLID_187_">
		<circle id="XMLID_275_" class="st0" cx="827" cy="144.5" r="27"/>
		<g id="XMLID_269_">
			<path id="XMLID_274_" class="st1" d="M851.5,144.5c-0.3,13.4-10.9,24.5-24.5,24.5c-13.3,0-24.5-11.2-24.5-24.5
				c0-13.4,11.1-24.5,24.5-24.5C840.6,120,851.2,131.2,851.5,144.5c0.1,3.2,5.1,3.2,5,0c-0.3-12.1-7.4-23.1-18.9-27.5
				c-11.6-4.5-25.2-1-33.2,8.6c-17.4,20.9,1.4,52.7,28,47.9c14-2.5,23.7-15,24.1-29C856.6,141.3,851.6,141.3,851.5,144.5z"/>
		</g>
	</g>
	<g id="XMLID_186_">
		<g id="XMLID_255_">
			<path id="XMLID_267_" class="st2" d="M809,147c12,0,24,0,36,0c3.2,0,3.2-5,0-5c-12,0-24,0-36,0C805.8,142,805.8,147,809,147
				L809,147z"/>
		</g>
	</g>
	<g id="XMLID_184_">
		<g id="XMLID_227_">
			<path id="XMLID_231_" class="st2" d="M829.5,162.5c0-12,0-24,0-36c0-3.2-5-3.2-5,0c0,12,0,24,0,36
				C824.5,165.7,829.5,165.7,829.5,162.5L829.5,162.5z"/>
		</g>
	</g>
</g>
<g id="XMLID_178_">
	<g id="XMLID_182_">
		<circle id="XMLID_224_" class="st0" cx="863" cy="216.5" r="27"/>
		<g id="XMLID_219_">
			<path id="XMLID_223_" class="st1" d="M887.5,216.5c-0.3,13.4-10.9,24.5-24.5,24.5c-13.3,0-24.5-11.2-24.5-24.5
				c0-13.4,11.1-24.5,24.5-24.5C876.6,192,887.2,203.2,887.5,216.5c0.1,3.2,5.1,3.2,5,0c-0.3-12.1-7.4-23.1-18.9-27.5
				c-11.6-4.5-25.2-1-33.2,8.6c-17.4,20.9,1.4,52.7,28,47.9c14-2.5,23.7-15,24.1-29C892.6,213.3,887.6,213.3,887.5,216.5z"/>
		</g>
	</g>
	<g id="XMLID_181_">
		<g id="XMLID_212_">
			<path id="XMLID_216_" class="st2" d="M845,219c12,0,24,0,36,0c3.2,0,3.2-5,0-5c-12,0-24,0-36,0C841.8,214,841.8,219,845,219
				L845,219z"/>
		</g>
	</g>
	<g id="XMLID_180_">
		<g id="XMLID_204_">
			<path id="XMLID_209_" class="st2" d="M865.5,234.5c0-12,0-24,0-36c0-3.2-5-3.2-5,0c0,12,0,24,0,36
				C860.5,237.7,865.5,237.7,865.5,234.5L865.5,234.5z"/>
		</g>
	</g>
</g>
<g id="XMLID_174_">
	<g id="XMLID_177_">
		<circle id="XMLID_202_" class="st0" cx="863" cy="90.5" r="27"/>
		<g id="XMLID_197_">
			<path id="XMLID_201_" class="st1" d="M887.5,90.5c-0.3,13.4-10.9,24.5-24.5,24.5c-13.3,0-24.5-11.2-24.5-24.5
				c0-13.4,11.1-24.5,24.5-24.5C876.6,66,887.2,77.2,887.5,90.5c0.1,3.2,5.1,3.2,5,0c-0.3-12.1-7.4-23.1-18.9-27.5
				c-11.6-4.5-25.2-1-33.2,8.6c-17.4,20.9,1.4,52.7,28,47.9c14-2.5,23.7-15,24.1-29C892.6,87.3,887.6,87.3,887.5,90.5z"/>
		</g>
	</g>
	<g id="XMLID_176_">
		<g id="XMLID_185_">
			<path id="XMLID_195_" class="st2" d="M845,93c12,0,24,0,36,0c3.2,0,3.2-5,0-5c-12,0-24,0-36,0C841.8,88,841.8,93,845,93L845,93z"
				/>
		</g>
	</g>
	<g id="XMLID_175_">
		<g id="XMLID_162_">
			<path id="XMLID_173_" class="st2" d="M865.5,108.5c0-12,0-24,0-36c0-3.2-5-3.2-5,0c0,12,0,24,0,36
				C860.5,111.7,865.5,111.7,865.5,108.5L865.5,108.5z"/>
		</g>
	</g>
</g>
<g id="XMLID_171_">
	<circle id="XMLID_160_" class="st3" cx="917" cy="81.5" r="27"/>
	<g id="XMLID_154_">
		<path id="XMLID_159_" class="st4" d="M941.5,81.5C941.2,94.9,930.6,106,917,106c-13.3,0-24.5-11.2-24.5-24.5
			c0-13.4,11.1-24.5,24.5-24.5C930.6,57,941.2,68.2,941.5,81.5c0.1,3.2,5.1,3.2,5,0c-0.3-12.1-7.4-23.1-18.9-27.5
			c-11.6-4.5-25.2-1-33.2,8.6c-17.4,20.9,1.4,52.7,28,47.9c14-2.5,23.7-15,24.1-29C946.6,78.3,941.6,78.3,941.5,81.5z"/>
	</g>
</g>
<g id="XMLID_170_">
	<circle id="XMLID_152_" class="st3" cx="944" cy="117.5" r="27"/>
	<g id="XMLID_146_">
		<path id="XMLID_150_" class="st4" d="M968.5,117.5c-0.3,13.4-10.9,24.5-24.5,24.5c-13.3,0-24.5-11.2-24.5-24.5
			c0-13.4,11.1-24.5,24.5-24.5C957.6,93,968.2,104.2,968.5,117.5c0.1,3.2,5.1,3.2,5,0c-0.3-12.1-7.4-23.1-18.9-27.5
			c-11.6-4.5-25.2-1-33.2,8.6c-17.4,20.9,1.4,52.7,28,47.9c14-2.5,23.7-15,24.1-29C973.6,114.3,968.6,114.3,968.5,117.5z"/>
	</g>
</g>
<g id="XMLID_169_">
	<circle id="XMLID_143_" class="st3" cx="953" cy="198.5" r="27"/>
	<g id="XMLID_137_">
		<path id="XMLID_142_" class="st4" d="M977.5,198.5c-0.3,13.4-10.9,24.5-24.5,24.5c-13.3,0-24.5-11.2-24.5-24.5
			c0-13.4,11.1-24.5,24.5-24.5C966.6,174,977.2,185.2,977.5,198.5c0.1,3.2,5.1,3.2,5,0c-0.3-12.1-7.4-23.1-18.9-27.5
			c-11.6-4.5-25.2-1-33.2,8.6c-17.4,20.9,1.4,52.7,28,47.9c14-2.5,23.7-15,24.1-29C982.6,195.3,977.6,195.3,977.5,198.5z"/>
	</g>
</g>
<g id="XMLID_151_">
	<circle id="XMLID_135_" class="st3" cx="899" cy="189.5" r="27"/>
	<g id="XMLID_130_">
		<path id="XMLID_134_" class="st4" d="M923.5,189.5c-0.3,13.4-10.9,24.5-24.5,24.5c-13.3,0-24.5-11.2-24.5-24.5
			c0-13.4,11.1-24.5,24.5-24.5C912.6,165,923.2,176.2,923.5,189.5c0.1,3.2,5.1,3.2,5,0c-0.3-12.1-7.4-23.1-18.9-27.5
			c-11.6-4.5-25.2-1-33.2,8.6c-17.4,20.9,1.4,52.7,28,47.9c14-2.5,23.7-15,24.1-29C928.6,186.3,923.6,186.3,923.5,189.5z"/>
	</g>
</g>
<g id="XMLID_145_">
	<circle id="XMLID_128_" class="st3" cx="863" cy="162.5" r="27"/>
	<g id="XMLID_123_">
		<path id="XMLID_127_" class="st4" d="M887.5,162.5c-0.3,13.4-10.9,24.5-24.5,24.5c-13.3,0-24.5-11.2-24.5-24.5
			c0-13.4,11.1-24.5,24.5-24.5C876.6,138,887.2,149.2,887.5,162.5c0.1,3.2,5.1,3.2,5,0c-0.3-12.1-7.4-23.1-18.9-27.5
			c-11.6-4.5-25.2-1-33.2,8.6c-17.4,20.9,1.4,52.7,28,47.9c14-2.5,23.7-15,24.1-29C892.6,159.3,887.6,159.3,887.5,162.5z"/>
	</g>
</g>
<g id="XMLID_139_">
	<circle id="XMLID_121_" class="st3" cx="872" cy="108.5" r="27"/>
	<g id="XMLID_116_">
		<path id="XMLID_120_" class="st4" d="M896.5,108.5c-0.3,13.4-10.9,24.5-24.5,24.5c-13.3,0-24.5-11.2-24.5-24.5
			c0-13.4,11.1-24.5,24.5-24.5C885.6,84,896.2,95.2,896.5,108.5c0.1,3.2,5.1,3.2,5,0c-0.3-12.1-7.4-23.1-18.9-27.5
			c-11.6-4.5-25.2-1-33.2,8.6c-17.4,20.9,1.4,52.7,28,47.9c14-2.5,23.7-15,24.1-29C901.6,105.3,896.6,105.3,896.5,108.5z"/>
	</g>
</g>
<g id="XMLID_99_">
	<g id="XMLID_108_">
		<circle id="XMLID_114_" class="st0" cx="935" cy="180.5" r="27"/>
		<g id="XMLID_109_">
			<path id="XMLID_113_" class="st1" d="M959.5,180.5c-0.3,13.4-10.9,24.5-24.5,24.5c-13.3,0-24.5-11.2-24.5-24.5
				c0-13.4,11.1-24.5,24.5-24.5C948.6,156,959.2,167.2,959.5,180.5c0.1,3.2,5.1,3.2,5,0c-0.3-12.1-7.4-23.1-18.9-27.5
				c-11.6-4.5-25.2-1-33.2,8.6c-17.4,20.9,1.4,52.7,28,47.9c14-2.5,23.7-15,24.1-29C964.6,177.3,959.6,177.3,959.5,180.5z"/>
		</g>
	</g>
	<g id="XMLID_101_">
		<g id="XMLID_89_">
			<path id="XMLID_93_" class="st2" d="M917,183c12,0,24,0,36,0c3.2,0,3.2-5,0-5c-12,0-24,0-36,0C913.8,178,913.8,183,917,183
				L917,183z"/>
		</g>
	</g>
	<g id="XMLID_100_">
		<g id="XMLID_82_">
			<path id="XMLID_87_" class="st2" d="M937.5,198.5c0-12,0-24,0-36c0-3.2-5-3.2-5,0c0,12,0,24,0,36
				C932.5,201.7,937.5,201.7,937.5,198.5L937.5,198.5z"/>
		</g>
	</g>
</g>
<g id="XMLID_95_">
	<g id="XMLID_98_">
		<circle id="XMLID_79_" class="st0" cx="863" cy="126.5" r="27"/>
		<g id="XMLID_74_">
			<path id="XMLID_78_" class="st1" d="M887.5,126.5c-0.3,13.4-10.9,24.5-24.5,24.5c-13.3,0-24.5-11.2-24.5-24.5
				c0-13.4,11.1-24.5,24.5-24.5C876.6,102,887.2,113.2,887.5,126.5c0.1,3.2,5.1,3.2,5,0c-0.3-12.1-7.4-23.1-18.9-27.5
				c-11.6-4.5-25.2-1-33.2,8.6c-17.4,20.9,1.4,52.7,28,47.9c14-2.5,23.7-15,24.1-29C892.6,123.3,887.6,123.3,887.5,126.5z"/>
		</g>
	</g>
	<g id="XMLID_97_">
		<g id="XMLID_67_">
			<path id="XMLID_71_" class="st2" d="M845,129c12,0,24,0,36,0c3.2,0,3.2-5,0-5c-12,0-24,0-36,0C841.8,124,841.8,129,845,129
				L845,129z"/>
		</g>
	</g>
	<g id="XMLID_96_">
		<g id="XMLID_61_">
			<path id="XMLID_65_" class="st2" d="M865.5,144.5c0-12,0-24,0-36c0-3.2-5-3.2-5,0c0,12,0,24,0,36
				C860.5,147.7,865.5,147.7,865.5,144.5L865.5,144.5z"/>
		</g>
	</g>
</g>
<g id="XMLID_20_">
	<g id="XMLID_23_">
		<circle id="XMLID_59_" class="st0" cx="908" cy="99.5" r="27"/>
		<g id="XMLID_54_">
			<path id="XMLID_58_" class="st1" d="M932.5,99.5c-0.3,13.4-10.9,24.5-24.5,24.5c-13.3,0-24.5-11.2-24.5-24.5
				c0-13.4,11.1-24.5,24.5-24.5C921.6,75,932.2,86.2,932.5,99.5c0.1,3.2,5.1,3.2,5,0c-0.3-12.1-7.4-23.1-18.9-27.5
				c-11.6-4.5-25.2-1-33.2,8.6c-17.4,20.9,1.4,52.7,28,47.9c14-2.5,23.7-15,24.1-29C937.6,96.3,932.6,96.3,932.5,99.5z"/>
		</g>
	</g>
	<g id="XMLID_22_">
		<g id="XMLID_48_">
			<path id="XMLID_52_" class="st2" d="M890,102c12,0,24,0,36,0c3.2,0,3.2-5,0-5c-12,0-24,0-36,0C886.8,97,886.8,102,890,102
				L890,102z"/>
		</g>
	</g>
	<g id="XMLID_21_">
		<g id="XMLID_42_">
			<path id="XMLID_46_" class="st2" d="M910.5,117.5c0-12,0-24,0-36c0-3.2-5-3.2-5,0c0,12,0,24,0,36
				C905.5,120.7,910.5,120.7,910.5,117.5L910.5,117.5z"/>
		</g>
	</g>
</g>
<g id="XMLID_19_">
	<circle id="XMLID_40_" class="st3" cx="908" cy="144.5" r="27"/>
	<g id="XMLID_35_">
		<path id="XMLID_39_" class="st4" d="M932.5,144.5c-0.3,13.4-10.9,24.5-24.5,24.5c-13.3,0-24.5-11.2-24.5-24.5
			c0-13.4,11.1-24.5,24.5-24.5C921.6,120,932.2,131.2,932.5,144.5c0.1,3.2,5.1,3.2,5,0c-0.3-12.1-7.4-23.1-18.9-27.5
			c-11.6-4.5-25.2-1-33.2,8.6c-17.4,20.9,1.4,52.7,28,47.9c14-2.5,23.7-15,24.1-29C937.6,141.3,932.6,141.3,932.5,144.5z"/>
	</g>
</g>
<g id="XMLID_25_">
	<line id="XMLID_934_" x1="315.2" y1="158" x2="549.2" y2="158"/>
	<g id="XMLID_929_">
		<path id="XMLID_933_" d="M315.2,160.5c26.4,0,52.7,0,79.1,0c42,0,84,0,126,0c9.6,0,19.2,0,28.8,0c3.2,0,3.2-5,0-5
			c-26.4,0-52.7,0-79.1,0c-42,0-84,0-126,0c-9.6,0-19.2,0-28.8,0C311.9,155.5,311.9,160.5,315.2,160.5L315.2,160.5z"/>
	</g>
</g>
<polygon id="XMLID_24_" class="st6" points="522.2,167 558.2,158 522.2,149 531.2,158 "/>
<g id="XMLID_26_">
	<g id="XMLID_28_">
		<line id="XMLID_956_" x1="723.5" y1="158" x2="759.5" y2="158"/>
		<g id="XMLID_951_">
			<path id="XMLID_955_" d="M723.5,160.5c12,0,24,0,36,0c3.2,0,3.2-5,0-5c-12,0-24,0-36,0C720.3,155.5,720.3,160.5,723.5,160.5
				L723.5,160.5z"/>
		</g>
	</g>
	<g id="XMLID_27_">
		<line id="XMLID_949_" x1="741.5" y1="176" x2="741.5" y2="140"/>
		<g id="XMLID_944_">
			<path id="XMLID_948_" d="M744,176c0-12,0-24,0-36c0-3.2-5-3.2-5,0c0,12,0,24,0,36C739,179.2,744,179.2,744,176L744,176z"/>
		</g>
	</g>
</g>
</svg>
