<?xml version="1.0" encoding="utf-8"?>
<!-- Generator: Adobe Illustrator 19.0.0, SVG Export Plug-In . SVG Version: 6.00 Build 0)  -->
<svg version="1.1" id="Layer_1" xmlns="http://www.w3.org/2000/svg" xmlns:xlink="http://www.w3.org/1999/xlink" x="0px" y="0px"
	 viewBox="0 0 1080 360" style="enable-background:new 0 0 1080 360;" xml:space="preserve">
<style type="text/css">
	.st0{fill:#C55857;}
	.st1{fill:#924241;}
	.st2{fill:#AB1F23;}
	.st3{fill:#FAD466;}
	.st4{fill:#F8BA17;}
	.st5{fill:#75BC64;}
	.st6{fill:#C1DACB;}
	.st7{fill:#00A9B1;}
	.st8{stroke:#000000;stroke-miterlimit:10;}
</style>
<g id="XMLID_581_">
	<g id="XMLID_594_">
		<circle id="XMLID_951_" class="st0" cx="237.7" cy="194" r="27"/>
		<g id="XMLID_946_">
			<path id="XMLID_950_" class="st1" d="M262.2,194c-0.3,13.4-10.9,24.5-24.5,24.5c-13.3,0-24.5-11.2-24.5-24.5
				c0-13.4,11.1-24.5,24.5-24.5C251.3,169.5,261.9,180.7,262.2,194c0.1,3.2,5.1,3.2,5,0c-0.3-12.1-7.4-23.1-18.9-27.5
				c-11.6-4.5-25.2-1-33.2,8.6c-17.4,20.9,1.4,52.7,28,47.9c14-2.5,23.7-15,24.1-29C267.3,190.8,262.3,190.8,262.2,194z"/>
		</g>
	</g>
	<g id="XMLID_588_">
		<g id="XMLID_940_">
			<path id="XMLID_944_" class="st2" d="M219.7,196.5c12,0,24,0,36,0c3.2,0,3.2-5,0-5c-12,0-24,0-36,0
				C216.5,191.5,216.5,196.5,219.7,196.5L219.7,196.5z"/>
		</g>
	</g>
	<g id="XMLID_582_">
		<g id="XMLID_934_">
			<path id="XMLID_938_" class="st2" d="M240.2,212c0-12,0-24,0-36c0-3.2-5-3.2-5,0c0,12,0,24,0,36
				C235.2,215.2,240.2,215.2,240.2,212L240.2,212z"/>
		</g>
	</g>
</g>
<g id="XMLID_254_">
	<circle id="XMLID_932_" class="st3" cx="120.7" cy="68" r="27"/>
	<g id="XMLID_927_">
		<path id="XMLID_931_" class="st4" d="M145.2,68c-0.3,13.4-10.9,24.5-24.5,24.5c-13.3,0-24.5-11.2-24.5-24.5
			c0-13.4,11.1-24.5,24.5-24.5C134.3,43.5,144.9,54.7,145.2,68c0.1,3.2,5.1,3.2,5,0c-0.3-12.1-7.4-23.1-18.9-27.5
			c-11.6-4.5-25.2-1-33.2,8.6c-17.4,20.9,1.4,52.7,28,47.9c14-2.5,23.7-15,24.1-29C150.3,64.8,145.3,64.8,145.2,68z"/>
	</g>
</g>
<g id="XMLID_107_">
	<circle id="XMLID_873_" class="st3" cx="237.7" cy="86" r="27"/>
	<g id="XMLID_868_">
		<path id="XMLID_872_" class="st4" d="M262.2,86c-0.3,13.4-10.9,24.5-24.5,24.5c-13.3,0-24.5-11.2-24.5-24.5
			c0-13.4,11.1-24.5,24.5-24.5C251.3,61.5,261.9,72.7,262.2,86c0.1,3.2,5.1,3.2,5,0c-0.3-12.1-7.4-23.1-18.9-27.5
			c-11.6-4.5-25.2-1-33.2,8.6c-17.4,20.9,1.4,52.7,28,47.9c14-2.5,23.7-15,24.1-29C267.3,82.8,262.3,82.8,262.2,86z"/>
	</g>
</g>
<g id="XMLID_106_">
	<circle id="XMLID_866_" class="st3" cx="93.7" cy="176" r="27"/>
	<g id="XMLID_861_">
		<path id="XMLID_865_" class="st4" d="M118.2,176c-0.3,13.4-10.9,24.5-24.5,24.5c-13.3,0-24.5-11.2-24.5-24.5
			c0-13.4,11.1-24.5,24.5-24.5C107.3,151.5,117.9,162.7,118.2,176c0.1,3.2,5.1,3.2,5,0c-0.3-12.1-7.4-23.1-18.9-27.5
			c-11.6-4.5-25.2-1-33.2,8.6c-17.4,20.9,1.4,52.7,28,47.9c14-2.5,23.7-15,24.1-29C123.3,172.8,118.3,172.8,118.2,176z"/>
	</g>
</g>
<g id="XMLID_263_">
	<g id="XMLID_105_">
		<circle id="XMLID_859_" class="st0" cx="201.7" cy="68" r="27"/>
		<g id="XMLID_854_">
			<path id="XMLID_858_" class="st1" d="M226.2,68c-0.3,13.4-10.9,24.5-24.5,24.5c-13.3,0-24.5-11.2-24.5-24.5
				c0-13.4,11.1-24.5,24.5-24.5C215.3,43.5,225.9,54.7,226.2,68c0.1,3.2,5.1,3.2,5,0c-0.3-12.1-7.4-23.1-18.9-27.5
				c-11.6-4.5-25.2-1-33.2,8.6c-17.4,20.9,1.4,52.7,28,47.9c14-2.5,23.7-15,24.1-29C231.3,64.8,226.3,64.8,226.2,68z"/>
		</g>
	</g>
	<g id="XMLID_104_">
		<g id="XMLID_848_">
			<path id="XMLID_852_" class="st2" d="M183.7,70.5c12,0,24,0,36,0c3.2,0,3.2-5,0-5c-12,0-24,0-36,0
				C180.5,65.5,180.5,70.5,183.7,70.5L183.7,70.5z"/>
		</g>
	</g>
	<g id="XMLID_103_">
		<g id="XMLID_842_">
			<path id="XMLID_846_" class="st2" d="M204.2,86c0-12,0-24,0-36c0-3.2-5-3.2-5,0c0,12,0,24,0,36C199.2,89.2,204.2,89.2,204.2,86
				L204.2,86z"/>
		</g>
	</g>
</g>
<g id="XMLID_102_">
	<circle id="XMLID_840_" class="st3" cx="246.7" cy="158" r="27"/>
	<g id="XMLID_835_">
		<path id="XMLID_839_" class="st4" d="M271.2,158c-0.3,13.4-10.9,24.5-24.5,24.5c-13.3,0-24.5-11.2-24.5-24.5
			c0-13.4,11.1-24.5,24.5-24.5C260.3,133.5,270.9,144.7,271.2,158c0.1,3.2,5.1,3.2,5,0c-0.3-12.1-7.4-23.1-18.9-27.5
			c-11.6-4.5-25.2-1-33.2,8.6c-17.4,20.9,1.4,52.7,28,47.9c14-2.5,23.7-15,24.1-29C276.3,154.8,271.3,154.8,271.2,158z"/>
	</g>
</g>
<g id="XMLID_158_">
	<circle id="XMLID_833_" class="st3" cx="156.7" cy="59" r="27"/>
	<g id="XMLID_828_">
		<path id="XMLID_832_" class="st4" d="M181.2,59c-0.3,13.4-10.9,24.5-24.5,24.5c-13.3,0-24.5-11.2-24.5-24.5
			c0-13.4,11.1-24.5,24.5-24.5C170.3,34.5,180.9,45.7,181.2,59c0.1,3.2,5.1,3.2,5,0c-0.3-12.1-7.4-23.1-18.9-27.5
			c-11.6-4.5-25.2-1-33.2,8.6c-17.4,20.9,1.4,52.7,28,47.9c14-2.5,23.7-15,24.1-29C186.3,55.8,181.3,55.8,181.2,59z"/>
	</g>
</g>
<g id="XMLID_168_">
	<circle id="XMLID_826_" class="st3" cx="201.7" cy="221" r="27"/>
	<g id="XMLID_821_">
		<path id="XMLID_825_" class="st4" d="M226.2,221c-0.3,13.4-10.9,24.5-24.5,24.5c-13.3,0-24.5-11.2-24.5-24.5
			c0-13.4,11.1-24.5,24.5-24.5C215.3,196.5,225.9,207.7,226.2,221c0.1,3.2,5.1,3.2,5,0c-0.3-12.1-7.4-23.1-18.9-27.5
			c-11.6-4.5-25.2-1-33.2,8.6c-17.4,20.9,1.4,52.7,28,47.9c14-2.5,23.7-15,24.1-29C231.3,217.8,226.3,217.8,226.2,221z"/>
	</g>
</g>
<g id="XMLID_251_">
	<circle id="XMLID_819_" class="st3" cx="147.7" cy="230" r="27"/>
	<g id="XMLID_814_">
		<path id="XMLID_818_" class="st4" d="M172.2,230c-0.3,13.4-10.9,24.5-24.5,24.5c-13.3,0-24.5-11.2-24.5-24.5
			c0-13.4,11.1-24.5,24.5-24.5C161.3,205.5,171.9,216.7,172.2,230c0.1,3.2,5.1,3.2,5,0c-0.3-12.1-7.4-23.1-18.9-27.5
			c-11.6-4.5-25.2-1-33.2,8.6c-17.4,20.9,1.4,52.7,28,47.9c14-2.5,23.7-15,24.1-29C177.3,226.8,172.3,226.8,172.2,230z"/>
	</g>
</g>
<g id="XMLID_244_">
	<circle id="XMLID_812_" class="st3" cx="93.7" cy="104" r="27"/>
	<g id="XMLID_807_">
		<path id="XMLID_811_" class="st4" d="M118.2,104c-0.3,13.4-10.9,24.5-24.5,24.5c-13.3,0-24.5-11.2-24.5-24.5
			c0-13.4,11.1-24.5,24.5-24.5C107.3,79.5,117.9,90.7,118.2,104c0.1,3.2,5.1,3.2,5,0c-0.3-12.1-7.4-23.1-18.9-27.5
			c-11.6-4.5-25.2-1-33.2,8.6c-17.4,20.9,1.4,52.7,28,47.9c14-2.5,23.7-15,24.1-29C123.3,100.8,118.3,100.8,118.2,104z"/>
	</g>
</g>
<g id="XMLID_276_">
	<g id="XMLID_290_">
		<circle id="XMLID_805_" class="st0" cx="237.7" cy="131" r="27"/>
		<g id="XMLID_800_">
			<path id="XMLID_804_" class="st1" d="M262.2,131c-0.3,13.4-10.9,24.5-24.5,24.5c-13.3,0-24.5-11.2-24.5-24.5
				c0-13.4,11.1-24.5,24.5-24.5C251.3,106.5,261.9,117.7,262.2,131c0.1,3.2,5.1,3.2,5,0c-0.3-12.1-7.4-23.1-18.9-27.5
				c-11.6-4.5-25.2-1-33.2,8.6c-17.4,20.9,1.4,52.7,28,47.9c14-2.5,23.7-15,24.1-29C267.3,127.8,262.3,127.8,262.2,131z"/>
		</g>
	</g>
	<g id="XMLID_289_">
		<g id="XMLID_794_">
			<path id="XMLID_798_" class="st2" d="M219.7,133.5c12,0,24,0,36,0c3.2,0,3.2-5,0-5c-12,0-24,0-36,0
				C216.5,128.5,216.5,133.5,219.7,133.5L219.7,133.5z"/>
		</g>
	</g>
	<g id="XMLID_282_">
		<g id="XMLID_788_">
			<path id="XMLID_792_" class="st2" d="M240.2,149c0-12,0-24,0-36c0-3.2-5-3.2-5,0c0,12,0,24,0,36
				C235.2,152.2,240.2,152.2,240.2,149L240.2,149z"/>
		</g>
	</g>
</g>
<g id="XMLID_297_">
	<g id="XMLID_321_">
		<circle id="XMLID_786_" class="st0" cx="219.7" cy="149" r="27"/>
		<g id="XMLID_781_">
			<path id="XMLID_785_" class="st1" d="M244.2,149c-0.3,13.4-10.9,24.5-24.5,24.5c-13.3,0-24.5-11.2-24.5-24.5
				c0-13.4,11.1-24.5,24.5-24.5C233.3,124.5,243.9,135.7,244.2,149c0.1,3.2,5.1,3.2,5,0c-0.3-12.1-7.4-23.1-18.9-27.5
				c-11.6-4.5-25.2-1-33.2,8.6c-17.4,20.9,1.4,52.7,28,47.9c14-2.5,23.7-15,24.1-29C249.3,145.8,244.3,145.8,244.2,149z"/>
		</g>
	</g>
	<g id="XMLID_314_">
		<g id="XMLID_775_">
			<path id="XMLID_779_" class="st2" d="M201.7,151.5c12,0,24,0,36,0c3.2,0,3.2-5,0-5c-12,0-24,0-36,0
				C198.5,146.5,198.5,151.5,201.7,151.5L201.7,151.5z"/>
		</g>
	</g>
	<g id="XMLID_308_">
		<g id="XMLID_769_">
			<path id="XMLID_773_" class="st2" d="M222.2,167c0-12,0-24,0-36c0-3.2-5-3.2-5,0c0,12,0,24,0,36
				C217.2,170.2,222.2,170.2,222.2,167L222.2,167z"/>
		</g>
	</g>
</g>
<g id="XMLID_328_">
	<g id="XMLID_340_">
		<circle id="XMLID_767_" class="st0" cx="165.7" cy="212" r="27"/>
		<g id="XMLID_762_">
			<path id="XMLID_766_" class="st1" d="M190.2,212c-0.3,13.4-10.9,24.5-24.5,24.5c-13.3,0-24.5-11.2-24.5-24.5
				c0-13.4,11.1-24.5,24.5-24.5C179.3,187.5,189.9,198.7,190.2,212c0.1,3.2,5.1,3.2,5,0c-0.3-12.1-7.4-23.1-18.9-27.5
				c-11.6-4.5-25.2-1-33.2,8.6c-17.4,20.9,1.4,52.7,28,47.9c14-2.5,23.7-15,24.1-29C195.3,208.8,190.3,208.8,190.2,212z"/>
		</g>
	</g>
	<g id="XMLID_339_">
		<g id="XMLID_756_">
			<path id="XMLID_760_" class="st2" d="M147.7,214.5c12,0,24,0,36,0c3.2,0,3.2-5,0-5c-12,0-24,0-36,0
				C144.5,209.5,144.5,214.5,147.7,214.5L147.7,214.5z"/>
		</g>
	</g>
	<g id="XMLID_335_">
		<g id="XMLID_750_">
			<path id="XMLID_754_" class="st2" d="M168.2,230c0-12,0-24,0-36c0-3.2-5-3.2-5,0c0,12,0,24,0,36
				C163.2,233.2,168.2,233.2,168.2,230L168.2,230z"/>
		</g>
	</g>
</g>
<g id="XMLID_346_">
	<g id="XMLID_363_">
		<circle id="XMLID_748_" class="st0" cx="129.7" cy="194" r="27"/>
		<g id="XMLID_743_">
			<path id="XMLID_747_" class="st1" d="M154.2,194c-0.3,13.4-10.9,24.5-24.5,24.5c-13.3,0-24.5-11.2-24.5-24.5
				c0-13.4,11.1-24.5,24.5-24.5C143.3,169.5,153.9,180.7,154.2,194c0.1,3.2,5.1,3.2,5,0c-0.3-12.1-7.4-23.1-18.9-27.5
				c-11.6-4.5-25.2-1-33.2,8.6c-17.4,20.9,1.4,52.7,28,47.9c14-2.5,23.7-15,24.1-29C159.3,190.8,154.3,190.8,154.2,194z"/>
		</g>
	</g>
	<g id="XMLID_362_">
		<g id="XMLID_737_">
			<path id="XMLID_741_" class="st2" d="M111.7,196.5c12,0,24,0,36,0c3.2,0,3.2-5,0-5c-12,0-24,0-36,0
				C108.5,191.5,108.5,196.5,111.7,196.5L111.7,196.5z"/>
		</g>
	</g>
	<g id="XMLID_352_">
		<g id="XMLID_731_">
			<path id="XMLID_735_" class="st2" d="M132.2,212c0-12,0-24,0-36c0-3.2-5-3.2-5,0c0,12,0,24,0,36
				C127.2,215.2,132.2,215.2,132.2,212L132.2,212z"/>
		</g>
	</g>
</g>
<g id="XMLID_369_">
	<g id="XMLID_386_">
		<circle id="XMLID_729_" class="st0" cx="84.7" cy="140" r="27"/>
		<g id="XMLID_724_">
			<path id="XMLID_728_" class="st1" d="M109.2,140c-0.3,13.4-10.9,24.5-24.5,24.5c-13.3,0-24.5-11.2-24.5-24.5
				c0-13.4,11.1-24.5,24.5-24.5C98.3,115.5,108.9,126.7,109.2,140c0.1,3.2,5.1,3.2,5,0c-0.3-12.1-7.4-23.1-18.9-27.5
				c-11.6-4.5-25.2-1-33.2,8.6c-17.4,20.9,1.4,52.7,28,47.9c14-2.5,23.7-15,24.1-29C114.3,136.8,109.3,136.8,109.2,140z"/>
		</g>
	</g>
	<g id="XMLID_385_">
		<g id="XMLID_718_">
			<path id="XMLID_722_" class="st2" d="M66.7,142.5c12,0,24,0,36,0c3.2,0,3.2-5,0-5c-12,0-24,0-36,0
				C63.5,137.5,63.5,142.5,66.7,142.5L66.7,142.5z"/>
		</g>
	</g>
	<g id="XMLID_375_">
		<g id="XMLID_712_">
			<path id="XMLID_716_" class="st2" d="M87.2,158c0-12,0-24,0-36c0-3.2-5-3.2-5,0c0,12,0,24,0,36C82.2,161.2,87.2,161.2,87.2,158
				L87.2,158z"/>
		</g>
	</g>
</g>
<g id="XMLID_392_">
	<g id="XMLID_409_">
		<circle id="XMLID_710_" class="st0" cx="120.7" cy="212" r="27"/>
		<g id="XMLID_705_">
			<path id="XMLID_709_" class="st1" d="M145.2,212c-0.3,13.4-10.9,24.5-24.5,24.5c-13.3,0-24.5-11.2-24.5-24.5
				c0-13.4,11.1-24.5,24.5-24.5C134.3,187.5,144.9,198.7,145.2,212c0.1,3.2,5.1,3.2,5,0c-0.3-12.1-7.4-23.1-18.9-27.5
				c-11.6-4.5-25.2-1-33.2,8.6c-17.4,20.9,1.4,52.7,28,47.9c14-2.5,23.7-15,24.1-29C150.3,208.8,145.3,208.8,145.2,212z"/>
		</g>
	</g>
	<g id="XMLID_408_">
		<g id="XMLID_699_">
			<path id="XMLID_703_" class="st2" d="M102.7,214.5c12,0,24,0,36,0c3.2,0,3.2-5,0-5c-12,0-24,0-36,0
				C99.5,209.5,99.5,214.5,102.7,214.5L102.7,214.5z"/>
		</g>
	</g>
	<g id="XMLID_398_">
		<g id="XMLID_693_">
			<path id="XMLID_697_" class="st2" d="M123.2,230c0-12,0-24,0-36c0-3.2-5-3.2-5,0c0,12,0,24,0,36
				C118.2,233.2,123.2,233.2,123.2,230L123.2,230z"/>
		</g>
	</g>
</g>
<g id="XMLID_415_">
	<g id="XMLID_432_">
		<circle id="XMLID_691_" class="st0" cx="120.7" cy="86" r="27"/>
		<g id="XMLID_686_">
			<path id="XMLID_690_" class="st1" d="M145.2,86c-0.3,13.4-10.9,24.5-24.5,24.5c-13.3,0-24.5-11.2-24.5-24.5
				c0-13.4,11.1-24.5,24.5-24.5C134.3,61.5,144.9,72.7,145.2,86c0.1,3.2,5.1,3.2,5,0c-0.3-12.1-7.4-23.1-18.9-27.5
				c-11.6-4.5-25.2-1-33.2,8.6c-17.4,20.9,1.4,52.7,28,47.9c14-2.5,23.7-15,24.1-29C150.3,82.8,145.3,82.8,145.2,86z"/>
		</g>
	</g>
	<g id="XMLID_431_">
		<g id="XMLID_680_">
			<path id="XMLID_684_" class="st2" d="M102.7,88.5c12,0,24,0,36,0c3.2,0,3.2-5,0-5c-12,0-24,0-36,0
				C99.5,83.5,99.5,88.5,102.7,88.5L102.7,88.5z"/>
		</g>
	</g>
	<g id="XMLID_421_">
		<g id="XMLID_674_">
			<path id="XMLID_678_" class="st2" d="M123.2,104c0-12,0-24,0-36c0-3.2-5-3.2-5,0c0,12,0,24,0,36
				C118.2,107.2,123.2,107.2,123.2,104L123.2,104z"/>
		</g>
	</g>
</g>
<g id="XMLID_165_">
	<circle id="XMLID_672_" class="st3" cx="174.7" cy="77" r="27"/>
	<g id="XMLID_667_">
		<path id="XMLID_671_" class="st4" d="M199.2,77c-0.3,13.4-10.9,24.5-24.5,24.5c-13.3,0-24.5-11.2-24.5-24.5
			c0-13.4,11.1-24.5,24.5-24.5C188.3,52.5,198.9,63.7,199.2,77c0.1,3.2,5.1,3.2,5,0c-0.3-12.1-7.4-23.1-18.9-27.5
			c-11.6-4.5-25.2-1-33.2,8.6c-17.4,20.9,1.4,52.7,28,47.9c14-2.5,23.7-15,24.1-29C204.3,73.8,199.3,73.8,199.2,77z"/>
	</g>
</g>
<g id="XMLID_166_">
	<circle id="XMLID_665_" class="st3" cx="210.7" cy="104" r="27"/>
	<g id="XMLID_660_">
		<path id="XMLID_664_" class="st4" d="M235.2,104c-0.3,13.4-10.9,24.5-24.5,24.5c-13.3,0-24.5-11.2-24.5-24.5
			c0-13.4,11.1-24.5,24.5-24.5C224.3,79.5,234.9,90.7,235.2,104c0.1,3.2,5.1,3.2,5,0c-0.3-12.1-7.4-23.1-18.9-27.5
			c-11.6-4.5-25.2-1-33.2,8.6c-17.4,20.9,1.4,52.7,28,47.9c14-2.5,23.7-15,24.1-29C240.3,100.8,235.3,100.8,235.2,104z"/>
	</g>
</g>
<g id="XMLID_167_">
	<circle id="XMLID_658_" class="st3" cx="210.7" cy="194" r="27"/>
	<g id="XMLID_653_">
		<path id="XMLID_657_" class="st4" d="M235.2,194c-0.3,13.4-10.9,24.5-24.5,24.5c-13.3,0-24.5-11.2-24.5-24.5
			c0-13.4,11.1-24.5,24.5-24.5C224.3,169.5,234.9,180.7,235.2,194c0.1,3.2,5.1,3.2,5,0c-0.3-12.1-7.4-23.1-18.9-27.5
			c-11.6-4.5-25.2-1-33.2,8.6c-17.4,20.9,1.4,52.7,28,47.9c14-2.5,23.7-15,24.1-29C240.3,190.8,235.3,190.8,235.2,194z"/>
	</g>
</g>
<g id="XMLID_225_">
	<circle id="XMLID_651_" class="st3" cx="156.7" cy="185" r="27"/>
	<g id="XMLID_646_">
		<path id="XMLID_650_" class="st4" d="M181.2,185c-0.3,13.4-10.9,24.5-24.5,24.5c-13.3,0-24.5-11.2-24.5-24.5
			c0-13.4,11.1-24.5,24.5-24.5C170.3,160.5,180.9,171.7,181.2,185c0.1,3.2,5.1,3.2,5,0c-0.3-12.1-7.4-23.1-18.9-27.5
			c-11.6-4.5-25.2-1-33.2,8.6c-17.4,20.9,1.4,52.7,28,47.9c14-2.5,23.7-15,24.1-29C186.3,181.8,181.3,181.8,181.2,185z"/>
	</g>
</g>
<g id="XMLID_232_">
	<circle id="XMLID_644_" class="st3" cx="120.7" cy="158" r="27"/>
	<g id="XMLID_639_">
		<path id="XMLID_643_" class="st4" d="M145.2,158c-0.3,13.4-10.9,24.5-24.5,24.5c-13.3,0-24.5-11.2-24.5-24.5
			c0-13.4,11.1-24.5,24.5-24.5C134.3,133.5,144.9,144.7,145.2,158c0.1,3.2,5.1,3.2,5,0c-0.3-12.1-7.4-23.1-18.9-27.5
			c-11.6-4.5-25.2-1-33.2,8.6c-17.4,20.9,1.4,52.7,28,47.9c14-2.5,23.7-15,24.1-29C150.3,154.8,145.3,154.8,145.2,158z"/>
	</g>
</g>
<g id="XMLID_238_">
	<circle id="XMLID_637_" class="st3" cx="129.7" cy="104" r="27"/>
	<g id="XMLID_632_">
		<path id="XMLID_636_" class="st4" d="M154.2,104c-0.3,13.4-10.9,24.5-24.5,24.5c-13.3,0-24.5-11.2-24.5-24.5
			c0-13.4,11.1-24.5,24.5-24.5C143.3,79.5,153.9,90.7,154.2,104c0.1,3.2,5.1,3.2,5,0c-0.3-12.1-7.4-23.1-18.9-27.5
			c-11.6-4.5-25.2-1-33.2,8.6c-17.4,20.9,1.4,52.7,28,47.9c14-2.5,23.7-15,24.1-29C159.3,100.8,154.3,100.8,154.2,104z"/>
	</g>
</g>
<g id="XMLID_256_">
	<g id="XMLID_299_">
		<circle id="XMLID_630_" class="st0" cx="192.7" cy="176" r="27"/>
		<g id="XMLID_625_">
			<path id="XMLID_629_" class="st1" d="M217.2,176c-0.3,13.4-10.9,24.5-24.5,24.5c-13.3,0-24.5-11.2-24.5-24.5
				c0-13.4,11.1-24.5,24.5-24.5C206.3,151.5,216.9,162.7,217.2,176c0.1,3.2,5.1,3.2,5,0c-0.3-12.1-7.4-23.1-18.9-27.5
				c-11.6-4.5-25.2-1-33.2,8.6c-17.4,20.9,1.4,52.7,28,47.9c14-2.5,23.7-15,24.1-29C222.3,172.8,217.3,172.8,217.2,176z"/>
		</g>
	</g>
	<g id="XMLID_281_">
		<g id="XMLID_619_">
			<path id="XMLID_623_" class="st2" d="M174.7,178.5c12,0,24,0,36,0c3.2,0,3.2-5,0-5c-12,0-24,0-36,0
				C171.5,173.5,171.5,178.5,174.7,178.5L174.7,178.5z"/>
		</g>
	</g>
	<g id="XMLID_272_">
		<g id="XMLID_613_">
			<path id="XMLID_617_" class="st2" d="M195.2,194c0-12,0-24,0-36c0-3.2-5-3.2-5,0c0,12,0,24,0,36
				C190.2,197.2,195.2,197.2,195.2,194L195.2,194z"/>
		</g>
	</g>
</g>
<g id="XMLID_501_">
	<g id="XMLID_513_">
		<circle id="XMLID_611_" class="st0" cx="120.7" cy="122" r="27"/>
		<g id="XMLID_606_">
			<path id="XMLID_610_" class="st1" d="M145.2,122c-0.3,13.4-10.9,24.5-24.5,24.5c-13.3,0-24.5-11.2-24.5-24.5
				c0-13.4,11.1-24.5,24.5-24.5C134.3,97.5,144.9,108.7,145.2,122c0.1,3.2,5.1,3.2,5,0c-0.3-12.1-7.4-23.1-18.9-27.5
				c-11.6-4.5-25.2-1-33.2,8.6c-17.4,20.9,1.4,52.7,28,47.9c14-2.5,23.7-15,24.1-29C150.3,118.8,145.3,118.8,145.2,122z"/>
		</g>
	</g>
	<g id="XMLID_512_">
		<g id="XMLID_600_">
			<path id="XMLID_604_" class="st2" d="M102.7,124.5c12,0,24,0,36,0c3.2,0,3.2-5,0-5c-12,0-24,0-36,0
				C99.5,119.5,99.5,124.5,102.7,124.5L102.7,124.5z"/>
		</g>
	</g>
	<g id="XMLID_502_">
		<g id="XMLID_593_">
			<path id="XMLID_598_" class="st2" d="M123.2,140c0-12,0-24,0-36c0-3.2-5-3.2-5,0c0,12,0,24,0,36
				C118.2,143.2,123.2,143.2,123.2,140L123.2,140z"/>
		</g>
	</g>
</g>
<g id="XMLID_519_">
	<g id="XMLID_536_">
		<circle id="XMLID_591_" class="st0" cx="165.7" cy="104" r="27"/>
		<g id="XMLID_585_">
			<path id="XMLID_590_" class="st1" d="M190.2,104c-0.3,13.4-10.9,24.5-24.5,24.5c-13.3,0-24.5-11.2-24.5-24.5
				c0-13.4,11.1-24.5,24.5-24.5C179.3,79.5,189.9,90.7,190.2,104c0.1,3.2,5.1,3.2,5,0c-0.3-12.1-7.4-23.1-18.9-27.5
				c-11.6-4.5-25.2-1-33.2,8.6c-17.4,20.9,1.4,52.7,28,47.9c14-2.5,23.7-15,24.1-29C195.3,100.8,190.3,100.8,190.2,104z"/>
		</g>
	</g>
	<g id="XMLID_535_">
		<g id="XMLID_577_">
			<path id="XMLID_583_" class="st2" d="M147.7,106.5c12,0,24,0,36,0c3.2,0,3.2-5,0-5c-12,0-24,0-36,0
				C144.5,101.5,144.5,106.5,147.7,106.5L147.7,106.5z"/>
		</g>
	</g>
	<g id="XMLID_525_">
		<g id="XMLID_571_">
			<path id="XMLID_575_" class="st2" d="M168.2,122c0-12,0-24,0-36c0-3.2-5-3.2-5,0c0,12,0,24,0,36
				C163.2,125.2,168.2,125.2,168.2,122L168.2,122z"/>
		</g>
	</g>
</g>
<g id="XMLID_18_">
	<circle id="XMLID_569_" class="st3" cx="138.7" cy="131" r="27"/>
	<g id="XMLID_564_">
		<path id="XMLID_568_" class="st4" d="M163.2,131c-0.3,13.4-10.9,24.5-24.5,24.5c-13.3,0-24.5-11.2-24.5-24.5
			c0-13.4,11.1-24.5,24.5-24.5C152.3,106.5,162.9,117.7,163.2,131c0.1,3.2,5.1,3.2,5,0c-0.3-12.1-7.4-23.1-18.9-27.5
			c-11.6-4.5-25.2-1-33.2,8.6c-17.4,20.9,1.4,52.7,28,47.9c14-2.5,23.7-15,24.1-29C168.3,127.8,163.3,127.8,163.2,131z"/>
	</g>
</g>
<g id="XMLID_11_">
	<g id="XMLID_17_">
		<circle id="XMLID_562_" class="st0" cx="165.7" cy="104" r="27"/>
		<g id="XMLID_557_">
			<path id="XMLID_561_" class="st1" d="M190.2,104c-0.3,13.4-10.9,24.5-24.5,24.5c-13.3,0-24.5-11.2-24.5-24.5
				c0-13.4,11.1-24.5,24.5-24.5C179.3,79.5,189.9,90.7,190.2,104c0.1,3.2,5.1,3.2,5,0c-0.3-12.1-7.4-23.1-18.9-27.5
				c-11.6-4.5-25.2-1-33.2,8.6c-17.4,20.9,1.4,52.7,28,47.9c14-2.5,23.7-15,24.1-29C195.3,100.8,190.3,100.8,190.2,104z"/>
		</g>
	</g>
	<g id="XMLID_16_">
		<g id="XMLID_551_">
			<path id="XMLID_555_" class="st2" d="M147.7,106.5c12,0,24,0,36,0c3.2,0,3.2-5,0-5c-12,0-24,0-36,0
				C144.5,101.5,144.5,106.5,147.7,106.5L147.7,106.5z"/>
		</g>
	</g>
	<g id="XMLID_15_">
		<g id="XMLID_545_">
			<path id="XMLID_549_" class="st2" d="M168.2,122c0-12,0-24,0-36c0-3.2-5-3.2-5,0c0,12,0,24,0,36
				C163.2,125.2,168.2,125.2,168.2,122L168.2,122z"/>
		</g>
	</g>
</g>
<g id="XMLID_3_">
	<g id="XMLID_6_">
		<circle id="XMLID_534_" class="st0" cx="156.7" cy="158" r="27"/>
		<g id="XMLID_529_">
			<path id="XMLID_533_" class="st1" d="M181.2,158c-0.3,13.4-10.9,24.5-24.5,24.5c-13.3,0-24.5-11.2-24.5-24.5
				c0-13.4,11.1-24.5,24.5-24.5C170.3,133.5,180.9,144.7,181.2,158c0.1,3.2,5.1,3.2,5,0c-0.3-12.1-7.4-23.1-18.9-27.5
				c-11.6-4.5-25.2-1-33.2,8.6c-17.4,20.9,1.4,52.7,28,47.9c14-2.5,23.7-15,24.1-29C186.3,154.8,181.3,154.8,181.2,158z"/>
		</g>
	</g>
	<g id="XMLID_5_">
		<g id="XMLID_522_">
			<path id="XMLID_527_" class="st2" d="M138.7,160.5c12,0,24,0,36,0c3.2,0,3.2-5,0-5c-12,0-24,0-36,0
				C135.5,155.5,135.5,160.5,138.7,160.5L138.7,160.5z"/>
		</g>
	</g>
	<g id="XMLID_4_">
		<g id="XMLID_515_">
			<path id="XMLID_520_" class="st2" d="M159.2,176c0-12,0-24,0-36c0-3.2-5-3.2-5,0c0,12,0,24,0,36
				C154.2,179.2,159.2,179.2,159.2,176L159.2,176z"/>
		</g>
	</g>
</g>
<g id="XMLID_25_">
	<line id="XMLID_59_" x1="315.2" y1="158" x2="549.2" y2="158"/>
	<g id="XMLID_40_">
		<path id="XMLID_44_" d="M315.2,160.5c26.4,0,52.7,0,79.1,0c42,0,84,0,126,0c9.6,0,19.2,0,28.8,0c3.2,0,3.2-5,0-5
			c-26.4,0-52.7,0-79.1,0c-42,0-84,0-126,0c-9.6,0-19.2,0-28.8,0C311.9,155.5,311.9,160.5,315.2,160.5L315.2,160.5z"/>
	</g>
</g>
<g id="XMLID_26_">
	<g id="XMLID_28_">
		<line id="XMLID_58_" x1="723.5" y1="158" x2="759.5" y2="158"/>
		<g id="XMLID_53_">
			<path id="XMLID_57_" d="M723.5,160.5c12,0,24,0,36,0c3.2,0,3.2-5,0-5c-12,0-24,0-36,0C720.3,155.5,720.3,160.5,723.5,160.5
				L723.5,160.5z"/>
		</g>
	</g>
	<g id="XMLID_27_">
		<line id="XMLID_51_" x1="741.5" y1="176" x2="741.5" y2="140"/>
		<g id="XMLID_46_">
			<path id="XMLID_50_" d="M744,176c0-12,0-24,0-36c0-3.2-5-3.2-5,0c0,12,0,24,0,36C739,179.2,744,179.2,744,176L744,176z"/>
		</g>
	</g>
</g>
<g id="XMLID_121_">
	<g id="XMLID_124_">
		<circle id="XMLID_998_" class="st0" cx="997.1" cy="194" r="27"/>
		<g id="XMLID_993_">
			<path id="XMLID_997_" class="st1" d="M1021.6,194c-0.3,13.4-10.9,24.5-24.5,24.5c-13.3,0-24.5-11.2-24.5-24.5
				c0-13.4,11.1-24.5,24.5-24.5C1010.7,169.5,1021.2,180.7,1021.6,194c0.1,3.2,5.1,3.2,5,0c-0.3-12.1-7.4-23.1-18.9-27.5
				c-11.6-4.5-25.2-1-33.2,8.6c-17.4,20.9,1.4,52.7,28,47.9c14-2.5,23.7-15,24.1-29C1026.7,190.8,1021.7,190.8,1021.6,194z"/>
		</g>
	</g>
	<g id="XMLID_123_">
		<g id="XMLID_987_">
			<path id="XMLID_991_" class="st2" d="M979.1,196.5c12,0,24,0,36,0c3.2,0,3.2-5,0-5c-12,0-24,0-36,0
				C975.9,191.5,975.9,196.5,979.1,196.5L979.1,196.5z"/>
		</g>
	</g>
	<g id="XMLID_122_">
		<g id="XMLID_981_">
			<path id="XMLID_985_" class="st2" d="M999.6,212c0-12,0-24,0-36c0-3.2-5-3.2-5,0c0,12,0,24,0,36
				C994.6,215.2,999.6,215.2,999.6,212L999.6,212z"/>
		</g>
	</g>
</g>
<g id="XMLID_120_">
	<circle id="XMLID_979_" class="st3" cx="880.1" cy="68" r="27"/>
	<g id="XMLID_974_">
		<path id="XMLID_978_" class="st4" d="M904.6,68c-0.3,13.4-10.9,24.5-24.5,24.5c-13.3,0-24.5-11.2-24.5-24.5
			c0-13.4,11.1-24.5,24.5-24.5C893.7,43.5,904.2,54.7,904.6,68c0.1,3.2,5.1,3.2,5,0c-0.3-12.1-7.4-23.1-18.9-27.5
			c-11.6-4.5-25.2-1-33.2,8.6c-17.4,20.9,1.4,52.7,28,47.9c14-2.5,23.7-15,24.1-29C909.7,64.8,904.7,64.8,904.6,68z"/>
	</g>
</g>
<g id="XMLID_119_">
	<circle id="XMLID_972_" class="st3" cx="997.1" cy="86" r="27"/>
	<g id="XMLID_967_">
		<path id="XMLID_971_" class="st4" d="M1021.6,86c-0.3,13.4-10.9,24.5-24.5,24.5c-13.3,0-24.5-11.2-24.5-24.5
			c0-13.4,11.1-24.5,24.5-24.5C1010.7,61.5,1021.2,72.7,1021.6,86c0.1,3.2,5.1,3.2,5,0c-0.3-12.1-7.4-23.1-18.9-27.5
			c-11.6-4.5-25.2-1-33.2,8.6c-17.4,20.9,1.4,52.7,28,47.9c14-2.5,23.7-15,24.1-29C1026.7,82.8,1021.7,82.8,1021.6,86z"/>
	</g>
</g>
<g id="XMLID_118_">
	<circle id="XMLID_965_" class="st3" cx="853.1" cy="176" r="27"/>
	<g id="XMLID_960_">
		<path id="XMLID_964_" class="st4" d="M877.6,176c-0.3,13.4-10.9,24.5-24.5,24.5c-13.3,0-24.5-11.2-24.5-24.5
			c0-13.4,11.1-24.5,24.5-24.5C866.7,151.5,877.2,162.7,877.6,176c0.1,3.2,5.1,3.2,5,0c-0.3-12.1-7.4-23.1-18.9-27.5
			c-11.6-4.5-25.2-1-33.2,8.6c-17.4,20.9,1.4,52.7,28,47.9c14-2.5,23.7-15,24.1-29C882.7,172.8,877.7,172.8,877.6,176z"/>
	</g>
</g>
<g id="XMLID_114_">
	<g id="XMLID_117_">
		<circle id="XMLID_958_" class="st0" cx="961.1" cy="68" r="27"/>
		<g id="XMLID_953_">
			<path id="XMLID_957_" class="st1" d="M985.6,68c-0.3,13.4-10.9,24.5-24.5,24.5c-13.3,0-24.5-11.2-24.5-24.5
				c0-13.4,11.1-24.5,24.5-24.5C974.7,43.5,985.2,54.7,985.6,68c0.1,3.2,5.1,3.2,5,0c-0.3-12.1-7.4-23.1-18.9-27.5
				c-11.6-4.5-25.2-1-33.2,8.6c-17.4,20.9,1.4,52.7,28,47.9c14-2.5,23.7-15,24.1-29C990.7,64.8,985.7,64.8,985.6,68z"/>
		</g>
	</g>
	<g id="XMLID_116_">
		<g id="XMLID_511_">
			<path id="XMLID_945_" class="st2" d="M943.1,70.5c12,0,24,0,36,0c3.2,0,3.2-5,0-5c-12,0-24,0-36,0
				C939.9,65.5,939.9,70.5,943.1,70.5L943.1,70.5z"/>
		</g>
	</g>
	<g id="XMLID_115_">
		<g id="XMLID_504_">
			<path id="XMLID_509_" class="st2" d="M963.6,86c0-12,0-24,0-36c0-3.2-5-3.2-5,0c0,12,0,24,0,36C958.6,89.2,963.6,89.2,963.6,86
				L963.6,86z"/>
		</g>
	</g>
</g>
<g id="XMLID_113_">
	<circle id="XMLID_500_" class="st3" cx="1006.1" cy="158" r="27"/>
	<g id="XMLID_494_">
		<path id="XMLID_499_" class="st4" d="M1030.6,158c-0.3,13.4-10.9,24.5-24.5,24.5c-13.3,0-24.5-11.2-24.5-24.5
			c0-13.4,11.1-24.5,24.5-24.5C1019.7,133.5,1030.2,144.7,1030.6,158c0.1,3.2,5.1,3.2,5,0c-0.3-12.1-7.4-23.1-18.9-27.5
			c-11.6-4.5-25.2-1-33.2,8.6c-17.4,20.9,1.4,52.7,28,47.9c14-2.5,23.7-15,24.1-29C1035.7,154.8,1030.7,154.8,1030.6,158z"/>
	</g>
</g>
<g id="XMLID_112_">
	<circle id="XMLID_492_" class="st3" cx="916.1" cy="59" r="27"/>
	<g id="XMLID_486_">
		<path id="XMLID_490_" class="st4" d="M940.6,59c-0.3,13.4-10.9,24.5-24.5,24.5c-13.3,0-24.5-11.2-24.5-24.5
			c0-13.4,11.1-24.5,24.5-24.5C929.7,34.5,940.2,45.7,940.6,59c0.1,3.2,5.1,3.2,5,0c-0.3-12.1-7.4-23.1-18.9-27.5
			c-11.6-4.5-25.2-1-33.2,8.6c-17.4,20.9,1.4,52.7,28,47.9c14-2.5,23.7-15,24.1-29C945.7,55.8,940.7,55.8,940.6,59z"/>
	</g>
</g>
<g id="XMLID_111_">
	<circle id="XMLID_483_" class="st3" cx="961.1" cy="221" r="27"/>
	<g id="XMLID_478_">
		<path id="XMLID_482_" class="st4" d="M985.6,221c-0.3,13.4-10.9,24.5-24.5,24.5c-13.3,0-24.5-11.2-24.5-24.5
			c0-13.4,11.1-24.5,24.5-24.5C974.7,196.5,985.2,207.7,985.6,221c0.1,3.2,5.1,3.2,5,0c-0.3-12.1-7.4-23.1-18.9-27.5
			c-11.6-4.5-25.2-1-33.2,8.6c-17.4,20.9,1.4,52.7,28,47.9c14-2.5,23.7-15,24.1-29C990.7,217.8,985.7,217.8,985.6,221z"/>
	</g>
</g>
<g id="XMLID_110_">
	<circle id="XMLID_476_" class="st3" cx="907.1" cy="230" r="27"/>
	<g id="XMLID_471_">
		<path id="XMLID_475_" class="st4" d="M931.6,230c-0.3,13.4-10.9,24.5-24.5,24.5c-13.3,0-24.5-11.2-24.5-24.5
			c0-13.4,11.1-24.5,24.5-24.5C920.7,205.5,931.2,216.7,931.6,230c0.1,3.2,5.1,3.2,5,0c-0.3-12.1-7.4-23.1-18.9-27.5
			c-11.6-4.5-25.2-1-33.2,8.6c-17.4,20.9,1.4,52.7,28,47.9c14-2.5,23.7-15,24.1-29C936.7,226.8,931.7,226.8,931.6,230z"/>
	</g>
</g>
<g id="XMLID_109_">
	<circle id="XMLID_469_" class="st3" cx="853.1" cy="104" r="27"/>
	<g id="XMLID_464_">
		<path id="XMLID_468_" class="st4" d="M877.6,104c-0.3,13.4-10.9,24.5-24.5,24.5c-13.3,0-24.5-11.2-24.5-24.5
			c0-13.4,11.1-24.5,24.5-24.5C866.7,79.5,877.2,90.7,877.6,104c0.1,3.2,5.1,3.2,5,0c-0.3-12.1-7.4-23.1-18.9-27.5
			c-11.6-4.5-25.2-1-33.2,8.6c-17.4,20.9,1.4,52.7,28,47.9c14-2.5,23.7-15,24.1-29C882.7,100.8,877.7,100.8,877.6,104z"/>
	</g>
</g>
<g id="XMLID_99_">
	<g id="XMLID_108_">
		<circle id="XMLID_462_" class="st0" cx="997.1" cy="131" r="27"/>
		<g id="XMLID_457_">
			<path id="XMLID_461_" class="st1" d="M1021.6,131c-0.3,13.4-10.9,24.5-24.5,24.5c-13.3,0-24.5-11.2-24.5-24.5
				c0-13.4,11.1-24.5,24.5-24.5C1010.7,106.5,1021.2,117.7,1021.6,131c0.1,3.2,5.1,3.2,5,0c-0.3-12.1-7.4-23.1-18.9-27.5
				c-11.6-4.5-25.2-1-33.2,8.6c-17.4,20.9,1.4,52.7,28,47.9c14-2.5,23.7-15,24.1-29C1026.7,127.8,1021.7,127.8,1021.6,131z"/>
		</g>
	</g>
	<g id="XMLID_101_">
		<g id="XMLID_451_">
			<path id="XMLID_455_" class="st2" d="M979.1,133.5c12,0,24,0,36,0c3.2,0,3.2-5,0-5c-12,0-24,0-36,0
				C975.9,128.5,975.9,133.5,979.1,133.5L979.1,133.5z"/>
		</g>
	</g>
	<g id="XMLID_100_">
		<g id="XMLID_445_">
			<path id="XMLID_449_" class="st2" d="M999.6,149c0-12,0-24,0-36c0-3.2-5-3.2-5,0c0,12,0,24,0,36
				C994.6,152.2,999.6,152.2,999.6,149L999.6,149z"/>
		</g>
	</g>
</g>
<g id="XMLID_95_">
	<g id="XMLID_98_">
		<circle id="XMLID_443_" class="st0" cx="979.1" cy="149" r="27"/>
		<g id="XMLID_438_">
			<path id="XMLID_442_" class="st1" d="M1003.6,149c-0.3,13.4-10.9,24.5-24.5,24.5c-13.3,0-24.5-11.2-24.5-24.5
				c0-13.4,11.1-24.5,24.5-24.5C992.7,124.5,1003.2,135.7,1003.6,149c0.1,3.2,5.1,3.2,5,0c-0.3-12.1-7.4-23.1-18.9-27.5
				c-11.6-4.5-25.2-1-33.2,8.6c-17.4,20.9,1.4,52.7,28,47.9c14-2.5,23.7-15,24.1-29C1008.7,145.8,1003.7,145.8,1003.6,149z"/>
		</g>
	</g>
	<g id="XMLID_97_">
		<g id="XMLID_430_">
			<path id="XMLID_436_" class="st2" d="M961.1,151.5c12,0,24,0,36,0c3.2,0,3.2-5,0-5c-12,0-24,0-36,0
				C957.9,146.5,957.9,151.5,961.1,151.5L961.1,151.5z"/>
		</g>
	</g>
	<g id="XMLID_96_">
		<g id="XMLID_424_">
			<path id="XMLID_428_" class="st2" d="M981.6,167c0-12,0-24,0-36c0-3.2-5-3.2-5,0c0,12,0,24,0,36
				C976.6,170.2,981.6,170.2,981.6,167L981.6,167z"/>
		</g>
	</g>
</g>
<g id="XMLID_91_">
	<g id="XMLID_94_">
		<circle id="XMLID_422_" class="st0" cx="925.1" cy="212" r="27"/>
		<g id="XMLID_416_">
			<path id="XMLID_420_" class="st1" d="M949.6,212c-0.3,13.4-10.9,24.5-24.5,24.5c-13.3,0-24.5-11.2-24.5-24.5
				c0-13.4,11.1-24.5,24.5-24.5C938.7,187.5,949.2,198.7,949.6,212c0.1,3.2,5.1,3.2,5,0c-0.3-12.1-7.4-23.1-18.9-27.5
				c-11.6-4.5-25.2-1-33.2,8.6c-17.4,20.9,1.4,52.7,28,47.9c14-2.5,23.7-15,24.1-29C954.7,208.8,949.7,208.8,949.6,212z"/>
		</g>
	</g>
	<g id="XMLID_93_">
		<g id="XMLID_407_">
			<path id="XMLID_413_" class="st2" d="M907.1,214.5c12,0,24,0,36,0c3.2,0,3.2-5,0-5c-12,0-24,0-36,0
				C903.9,209.5,903.9,214.5,907.1,214.5L907.1,214.5z"/>
		</g>
	</g>
	<g id="XMLID_92_">
		<g id="XMLID_401_">
			<path id="XMLID_405_" class="st2" d="M927.6,230c0-12,0-24,0-36c0-3.2-5-3.2-5,0c0,12,0,24,0,36
				C922.6,233.2,927.6,233.2,927.6,230L927.6,230z"/>
		</g>
	</g>
</g>
<g id="XMLID_87_">
	<g id="XMLID_90_">
		<circle id="XMLID_399_" class="st0" cx="889.1" cy="194" r="27"/>
		<g id="XMLID_393_">
			<path id="XMLID_397_" class="st1" d="M913.6,194c-0.3,13.4-10.9,24.5-24.5,24.5c-13.3,0-24.5-11.2-24.5-24.5
				c0-13.4,11.1-24.5,24.5-24.5C902.7,169.5,913.2,180.7,913.6,194c0.1,3.2,5.1,3.2,5,0c-0.3-12.1-7.4-23.1-18.9-27.5
				c-11.6-4.5-25.2-1-33.2,8.6c-17.4,20.9,1.4,52.7,28,47.9c14-2.5,23.7-15,24.1-29C918.7,190.8,913.7,190.8,913.6,194z"/>
		</g>
	</g>
	<g id="XMLID_89_">
		<g id="XMLID_384_">
			<path id="XMLID_390_" class="st2" d="M871.1,196.5c12,0,24,0,36,0c3.2,0,3.2-5,0-5c-12,0-24,0-36,0
				C867.9,191.5,867.9,196.5,871.1,196.5L871.1,196.5z"/>
		</g>
	</g>
	<g id="XMLID_88_">
		<g id="XMLID_378_">
			<path id="XMLID_382_" class="st2" d="M891.6,212c0-12,0-24,0-36c0-3.2-5-3.2-5,0c0,12,0,24,0,36
				C886.6,215.2,891.6,215.2,891.6,212L891.6,212z"/>
		</g>
	</g>
</g>
<g id="XMLID_83_">
	<g id="XMLID_86_">
		<circle id="XMLID_376_" class="st0" cx="844.1" cy="140" r="27"/>
		<g id="XMLID_370_">
			<path id="XMLID_374_" class="st1" d="M868.6,140c-0.3,13.4-10.9,24.5-24.5,24.5c-13.3,0-24.5-11.2-24.5-24.5
				c0-13.4,11.1-24.5,24.5-24.5C857.7,115.5,868.2,126.7,868.6,140c0.1,3.2,5.1,3.2,5,0c-0.3-12.1-7.4-23.1-18.9-27.5
				c-11.6-4.5-25.2-1-33.2,8.6c-17.4,20.9,1.4,52.7,28,47.9c14-2.5,23.7-15,24.1-29C873.7,136.8,868.7,136.8,868.6,140z"/>
		</g>
	</g>
	<g id="XMLID_85_">
		<g id="XMLID_361_">
			<path id="XMLID_367_" class="st2" d="M826.1,142.5c12,0,24,0,36,0c3.2,0,3.2-5,0-5c-12,0-24,0-36,0
				C822.9,137.5,822.9,142.5,826.1,142.5L826.1,142.5z"/>
		</g>
	</g>
	<g id="XMLID_84_">
		<g id="XMLID_355_">
			<path id="XMLID_359_" class="st2" d="M846.6,158c0-12,0-24,0-36c0-3.2-5-3.2-5,0c0,12,0,24,0,36
				C841.6,161.2,846.6,161.2,846.6,158L846.6,158z"/>
		</g>
	</g>
</g>
<g id="XMLID_78_">
	<g id="XMLID_82_">
		<circle id="XMLID_353_" class="st0" cx="880.1" cy="212" r="27"/>
		<g id="XMLID_347_">
			<path id="XMLID_351_" class="st1" d="M904.6,212c-0.3,13.4-10.9,24.5-24.5,24.5c-13.3,0-24.5-11.2-24.5-24.5
				c0-13.4,11.1-24.5,24.5-24.5C893.7,187.5,904.2,198.7,904.6,212c0.1,3.2,5.1,3.2,5,0c-0.3-12.1-7.4-23.1-18.9-27.5
				c-11.6-4.5-25.2-1-33.2,8.6c-17.4,20.9,1.4,52.7,28,47.9c14-2.5,23.7-15,24.1-29C909.7,208.8,904.7,208.8,904.6,212z"/>
		</g>
	</g>
	<g id="XMLID_81_">
		<g id="XMLID_338_">
			<path id="XMLID_344_" class="st2" d="M862.1,214.5c12,0,24,0,36,0c3.2,0,3.2-5,0-5c-12,0-24,0-36,0
				C858.9,209.5,858.9,214.5,862.1,214.5L862.1,214.5z"/>
		</g>
	</g>
	<g id="XMLID_79_">
		<g id="XMLID_331_">
			<path id="XMLID_336_" class="st2" d="M882.6,230c0-12,0-24,0-36c0-3.2-5-3.2-5,0c0,12,0,24,0,36
				C877.6,233.2,882.6,233.2,882.6,230L882.6,230z"/>
		</g>
	</g>
</g>
<g id="XMLID_74_">
	<g id="XMLID_77_">
		<circle id="XMLID_329_" class="st0" cx="880.1" cy="86" r="27"/>
		<g id="XMLID_323_">
			<path id="XMLID_327_" class="st1" d="M904.6,86c-0.3,13.4-10.9,24.5-24.5,24.5c-13.3,0-24.5-11.2-24.5-24.5
				c0-13.4,11.1-24.5,24.5-24.5C893.7,61.5,904.2,72.7,904.6,86c0.1,3.2,5.1,3.2,5,0c-0.3-12.1-7.4-23.1-18.9-27.5
				c-11.6-4.5-25.2-1-33.2,8.6c-17.4,20.9,1.4,52.7,28,47.9c14-2.5,23.7-15,24.1-29C909.7,82.8,904.7,82.8,904.6,86z"/>
		</g>
	</g>
	<g id="XMLID_76_">
		<g id="XMLID_316_">
			<path id="XMLID_320_" class="st2" d="M862.1,88.5c12,0,24,0,36,0c3.2,0,3.2-5,0-5c-12,0-24,0-36,0
				C858.9,83.5,858.9,88.5,862.1,88.5L862.1,88.5z"/>
		</g>
	</g>
	<g id="XMLID_75_">
		<g id="XMLID_309_">
			<path id="XMLID_313_" class="st2" d="M882.6,104c0-12,0-24,0-36c0-3.2-5-3.2-5,0c0,12,0,24,0,36
				C877.6,107.2,882.6,107.2,882.6,104L882.6,104z"/>
		</g>
	</g>
</g>
<g id="XMLID_72_">
	<circle id="XMLID_306_" class="st3" cx="934.1" cy="77" r="27"/>
	<g id="XMLID_301_">
		<path id="XMLID_305_" class="st4" d="M958.6,77c-0.3,13.4-10.9,24.5-24.5,24.5c-13.3,0-24.5-11.2-24.5-24.5
			c0-13.4,11.1-24.5,24.5-24.5C947.7,52.5,958.2,63.7,958.6,77c0.1,3.2,5.1,3.2,5,0c-0.3-12.1-7.4-23.1-18.9-27.5
			c-11.6-4.5-25.2-1-33.2,8.6c-17.4,20.9,1.4,52.7,28,47.9c14-2.5,23.7-15,24.1-29C963.7,73.8,958.7,73.8,958.6,77z"/>
	</g>
</g>
<g id="XMLID_71_">
	<circle id="XMLID_298_" class="st3" cx="970.1" cy="104" r="27"/>
	<g id="XMLID_292_">
		<path id="XMLID_296_" class="st4" d="M994.6,104c-0.3,13.4-10.9,24.5-24.5,24.5c-13.3,0-24.5-11.2-24.5-24.5
			c0-13.4,11.1-24.5,24.5-24.5C983.7,79.5,994.2,90.7,994.6,104c0.1,3.2,5.1,3.2,5,0c-0.3-12.1-7.4-23.1-18.9-27.5
			c-11.6-4.5-25.2-1-33.2,8.6c-17.4,20.9,1.4,52.7,28,47.9c14-2.5,23.7-15,24.1-29C999.7,100.8,994.7,100.8,994.6,104z"/>
	</g>
</g>
<g id="XMLID_70_">
	<circle id="XMLID_288_" class="st3" cx="970.1" cy="194" r="27"/>
	<g id="XMLID_283_">
		<path id="XMLID_287_" class="st4" d="M994.6,194c-0.3,13.4-10.9,24.5-24.5,24.5c-13.3,0-24.5-11.2-24.5-24.5
			c0-13.4,11.1-24.5,24.5-24.5C983.7,169.5,994.2,180.7,994.6,194c0.1,3.2,5.1,3.2,5,0c-0.3-12.1-7.4-23.1-18.9-27.5
			c-11.6-4.5-25.2-1-33.2,8.6c-17.4,20.9,1.4,52.7,28,47.9c14-2.5,23.7-15,24.1-29C999.7,190.8,994.7,190.8,994.6,194z"/>
	</g>
</g>
<g id="XMLID_69_">
	<circle id="XMLID_279_" class="st3" cx="916.1" cy="185" r="27"/>
	<g id="XMLID_273_">
		<path id="XMLID_278_" class="st4" d="M940.6,185c-0.3,13.4-10.9,24.5-24.5,24.5c-13.3,0-24.5-11.2-24.5-24.5
			c0-13.4,11.1-24.5,24.5-24.5C929.7,160.5,940.2,171.7,940.6,185c0.1,3.2,5.1,3.2,5,0c-0.3-12.1-7.4-23.1-18.9-27.5
			c-11.6-4.5-25.2-1-33.2,8.6c-17.4,20.9,1.4,52.7,28,47.9c14-2.5,23.7-15,24.1-29C945.7,181.8,940.7,181.8,940.6,185z"/>
	</g>
</g>
<g id="XMLID_68_">
	<circle id="XMLID_270_" class="st3" cx="880.1" cy="158" r="27"/>
	<g id="XMLID_265_">
		<path id="XMLID_269_" class="st4" d="M904.6,158c-0.3,13.4-10.9,24.5-24.5,24.5c-13.3,0-24.5-11.2-24.5-24.5
			c0-13.4,11.1-24.5,24.5-24.5C893.7,133.5,904.2,144.7,904.6,158c0.1,3.2,5.1,3.2,5,0c-0.3-12.1-7.4-23.1-18.9-27.5
			c-11.6-4.5-25.2-1-33.2,8.6c-17.4,20.9,1.4,52.7,28,47.9c14-2.5,23.7-15,24.1-29C909.7,154.8,904.7,154.8,904.6,158z"/>
	</g>
</g>
<g id="XMLID_67_">
	<circle id="XMLID_262_" class="st3" cx="889.1" cy="104" r="27"/>
	<g id="XMLID_257_">
		<path id="XMLID_261_" class="st4" d="M913.6,104c-0.3,13.4-10.9,24.5-24.5,24.5c-13.3,0-24.5-11.2-24.5-24.5
			c0-13.4,11.1-24.5,24.5-24.5C902.7,79.5,913.2,90.7,913.6,104c0.1,3.2,5.1,3.2,5,0c-0.3-12.1-7.4-23.1-18.9-27.5
			c-11.6-4.5-25.2-1-33.2,8.6c-17.4,20.9,1.4,52.7,28,47.9c14-2.5,23.7-15,24.1-29C918.7,100.8,913.7,100.8,913.6,104z"/>
	</g>
</g>
<g id="XMLID_63_">
	<g id="XMLID_66_">
		<circle id="XMLID_253_" class="st0" cx="952.1" cy="176" r="27"/>
		<g id="XMLID_247_">
			<path id="XMLID_252_" class="st1" d="M976.6,176c-0.3,13.4-10.9,24.5-24.5,24.5c-13.3,0-24.5-11.2-24.5-24.5
				c0-13.4,11.1-24.5,24.5-24.5C965.7,151.5,976.2,162.7,976.6,176c0.1,3.2,5.1,3.2,5,0c-0.3-12.1-7.4-23.1-18.9-27.5
				c-11.6-4.5-25.2-1-33.2,8.6c-17.4,20.9,1.4,52.7,28,47.9c14-2.5,23.7-15,24.1-29C981.7,172.8,976.7,172.8,976.6,176z"/>
		</g>
	</g>
	<g id="XMLID_65_">
		<g id="XMLID_240_">
			<path id="XMLID_245_" class="st2" d="M934.1,178.5c12,0,24,0,36,0c3.2,0,3.2-5,0-5c-12,0-24,0-36,0
				C930.9,173.5,930.9,178.5,934.1,178.5L934.1,178.5z"/>
		</g>
	</g>
	<g id="XMLID_64_">
		<g id="XMLID_233_">
			<path id="XMLID_237_" class="st2" d="M954.6,194c0-12,0-24,0-36c0-3.2-5-3.2-5,0c0,12,0,24,0,36
				C949.6,197.2,954.6,197.2,954.6,194L954.6,194z"/>
		</g>
	</g>
</g>
<g id="XMLID_39_">
	<g id="XMLID_62_">
		<circle id="XMLID_230_" class="st0" cx="880.1" cy="122" r="27"/>
		<g id="XMLID_224_">
			<path id="XMLID_229_" class="st1" d="M904.6,122c-0.3,13.4-10.9,24.5-24.5,24.5c-13.3,0-24.5-11.2-24.5-24.5
				c0-13.4,11.1-24.5,24.5-24.5C893.7,97.5,904.2,108.7,904.6,122c0.1,3.2,5.1,3.2,5,0c-0.3-12.1-7.4-23.1-18.9-27.5
				c-11.6-4.5-25.2-1-33.2,8.6c-17.4,20.9,1.4,52.7,28,47.9c14-2.5,23.7-15,24.1-29C909.7,118.8,904.7,118.8,904.6,122z"/>
		</g>
	</g>
	<g id="XMLID_61_">
		<g id="XMLID_218_">
			<path id="XMLID_222_" class="st2" d="M862.1,124.5c12,0,24,0,36,0c3.2,0,3.2-5,0-5c-12,0-24,0-36,0
				C858.9,119.5,858.9,124.5,862.1,124.5L862.1,124.5z"/>
		</g>
	</g>
	<g id="XMLID_60_">
		<g id="XMLID_212_">
			<path id="XMLID_216_" class="st2" d="M882.6,140c0-12,0-24,0-36c0-3.2-5-3.2-5,0c0,12,0,24,0,36
				C877.6,143.2,882.6,143.2,882.6,140L882.6,140z"/>
		</g>
	</g>
</g>
<g id="XMLID_34_">
	<g id="XMLID_38_">
		<circle id="XMLID_210_" class="st0" cx="925.1" cy="104" r="27"/>
		<g id="XMLID_205_">
			<path id="XMLID_209_" class="st1" d="M949.6,104c-0.3,13.4-10.9,24.5-24.5,24.5c-13.3,0-24.5-11.2-24.5-24.5
				c0-13.4,11.1-24.5,24.5-24.5C938.7,79.5,949.2,90.7,949.6,104c0.1,3.2,5.1,3.2,5,0c-0.3-12.1-7.4-23.1-18.9-27.5
				c-11.6-4.5-25.2-1-33.2,8.6c-17.4,20.9,1.4,52.7,28,47.9c14-2.5,23.7-15,24.1-29C954.7,100.8,949.7,100.8,949.6,104z"/>
		</g>
	</g>
	<g id="XMLID_37_">
		<g id="XMLID_199_">
			<path id="XMLID_203_" class="st2" d="M907.1,106.5c12,0,24,0,36,0c3.2,0,3.2-5,0-5c-12,0-24,0-36,0
				C903.9,101.5,903.9,106.5,907.1,106.5L907.1,106.5z"/>
		</g>
	</g>
	<g id="XMLID_36_">
		<g id="XMLID_193_">
			<path id="XMLID_197_" class="st2" d="M927.6,122c0-12,0-24,0-36c0-3.2-5-3.2-5,0c0,12,0,24,0,36
				C922.6,125.2,927.6,125.2,927.6,122L927.6,122z"/>
		</g>
	</g>
</g>
<g id="XMLID_33_">
	<circle id="XMLID_191_" class="st3" cx="898.1" cy="131" r="27"/>
	<g id="XMLID_186_">
		<path id="XMLID_190_" class="st4" d="M922.6,131c-0.3,13.4-10.9,24.5-24.5,24.5c-13.3,0-24.5-11.2-24.5-24.5
			c0-13.4,11.1-24.5,24.5-24.5C911.7,106.5,922.2,117.7,922.6,131c0.1,3.2,5.1,3.2,5,0c-0.3-12.1-7.4-23.1-18.9-27.5
			c-11.6-4.5-25.2-1-33.2,8.6c-17.4,20.9,1.4,52.7,28,47.9c14-2.5,23.7-15,24.1-29C927.7,127.8,922.7,127.8,922.6,131z"/>
	</g>
</g>
<g id="XMLID_29_">
	<g id="XMLID_32_">
		<circle id="XMLID_184_" class="st0" cx="925.1" cy="104" r="27"/>
		<g id="XMLID_179_">
			<path id="XMLID_183_" class="st1" d="M949.6,104c-0.3,13.4-10.9,24.5-24.5,24.5c-13.3,0-24.5-11.2-24.5-24.5
				c0-13.4,11.1-24.5,24.5-24.5C938.7,79.5,949.2,90.7,949.6,104c0.1,3.2,5.1,3.2,5,0c-0.3-12.1-7.4-23.1-18.9-27.5
				c-11.6-4.5-25.2-1-33.2,8.6c-17.4,20.9,1.4,52.7,28,47.9c14-2.5,23.7-15,24.1-29C954.7,100.8,949.7,100.8,949.6,104z"/>
		</g>
	</g>
	<g id="XMLID_31_">
		<g id="XMLID_173_">
			<path id="XMLID_177_" class="st2" d="M907.1,106.5c12,0,24,0,36,0c3.2,0,3.2-5,0-5c-12,0-24,0-36,0
				C903.9,101.5,903.9,106.5,907.1,106.5L907.1,106.5z"/>
		</g>
	</g>
	<g id="XMLID_30_">
		<g id="XMLID_163_">
			<path id="XMLID_171_" class="st2" d="M927.6,122c0-12,0-24,0-36c0-3.2-5-3.2-5,0c0,12,0,24,0,36
				C922.6,125.2,927.6,125.2,927.6,122L927.6,122z"/>
		</g>
	</g>
</g>
<g id="XMLID_23_">
	<circle id="XMLID_161_" class="st3" cx="943.1" cy="140" r="27"/>
	<g id="XMLID_155_">
		<path id="XMLID_160_" class="st4" d="M967.6,140c-0.3,13.4-10.9,24.5-24.5,24.5c-13.3,0-24.5-11.2-24.5-24.5
			c0-13.4,11.1-24.5,24.5-24.5C956.7,115.5,967.2,126.7,967.6,140c0.1,3.2,5.1,3.2,5,0c-0.3-12.1-7.4-23.1-18.9-27.5
			c-11.6-4.5-25.2-1-33.2,8.6c-17.4,20.9,1.4,52.7,28,47.9c14-2.5,23.7-15,24.1-29C972.7,136.8,967.7,136.8,967.6,140z"/>
	</g>
</g>
<g id="XMLID_19_">
	<g id="XMLID_22_">
		<circle id="XMLID_153_" class="st0" cx="916.1" cy="158" r="27"/>
		<g id="XMLID_148_">
			<path id="XMLID_152_" class="st1" d="M940.6,158c-0.3,13.4-10.9,24.5-24.5,24.5c-13.3,0-24.5-11.2-24.5-24.5
				c0-13.4,11.1-24.5,24.5-24.5C929.7,133.5,940.2,144.7,940.6,158c0.1,3.2,5.1,3.2,5,0c-0.3-12.1-7.4-23.1-18.9-27.5
				c-11.6-4.5-25.2-1-33.2,8.6c-17.4,20.9,1.4,52.7,28,47.9c14-2.5,23.7-15,24.1-29C945.7,154.8,940.7,154.8,940.6,158z"/>
		</g>
	</g>
	<g id="XMLID_21_">
		<g id="XMLID_142_">
			<path id="XMLID_146_" class="st2" d="M898.1,160.5c12,0,24,0,36,0c3.2,0,3.2-5,0-5c-12,0-24,0-36,0
				C894.9,155.5,894.9,160.5,898.1,160.5L898.1,160.5z"/>
		</g>
	</g>
	<g id="XMLID_20_">
		<g id="XMLID_136_">
			<path id="XMLID_140_" class="st2" d="M918.6,176c0-12,0-24,0-36c0-3.2-5-3.2-5,0c0,12,0,24,0,36
				C913.6,179.2,918.6,179.2,918.6,176L918.6,176z"/>
		</g>
	</g>
</g>
<g id="XMLID_128_">
	<circle id="XMLID_980_" class="st3" cx="943.1" cy="140" r="27"/>
	<g id="XMLID_922_">
		<path id="XMLID_973_" class="st4" d="M967.6,140c-0.3,13.4-10.9,24.5-24.5,24.5c-13.3,0-24.5-11.2-24.5-24.5
			c0-13.4,11.1-24.5,24.5-24.5C956.7,115.5,967.2,126.7,967.6,140c0.1,3.2,5.1,3.2,5,0c-0.3-12.1-7.4-23.1-18.9-27.5
			c-11.6-4.5-25.2-1-33.2,8.6c-17.4,20.9,1.4,52.7,28,47.9c14-2.5,23.7-15,24.1-29C972.7,136.8,967.7,136.8,967.6,140z"/>
	</g>
</g>
<g id="XMLID_10_">
	<circle id="XMLID_847_" class="st3" cx="183.7" cy="140" r="27"/>
	<g id="XMLID_538_">
		<path id="XMLID_543_" class="st5" d="M208.2,140c-0.3,13.4-10.9,24.5-24.5,24.5c-13.3,0-24.5-11.2-24.5-24.5
			c0-13.4,11.1-24.5,24.5-24.5C197.3,115.5,207.9,126.7,208.2,140c0.1,3.2,5.1,3.2,5,0c-0.3-12.1-7.4-23.1-18.9-27.5
			c-11.6-4.5-25.2-1-33.2,8.6c-17.4,20.9,1.4,52.7,28,47.9c14-2.5,23.7-15,24.1-29C213.3,136.8,208.3,136.8,208.2,140z"/>
	</g>
</g>
<g id="XMLID_1_">
	<circle id="XMLID_877_" class="st6" cx="644.1" cy="158" r="27"/>
	<g id="XMLID_860_">
		<path id="XMLID_876_" class="st7" d="M668.6,158c-0.3,13.4-10.9,24.5-24.5,24.5c-13.3,0-24.5-11.2-24.5-24.5
			c0-13.4,11.1-24.5,24.5-24.5C657.7,133.5,668.2,144.7,668.6,158c0.1,3.2,5.1,3.2,5,0c-0.3-12.1-7.4-23.1-18.9-27.5
			c-11.6-4.5-25.2-1-33.2,8.6c-17.4,20.9,1.4,52.7,28,47.9c14-2.5,23.7-15,24.1-29C673.7,154.8,668.7,154.8,668.6,158z"/>
	</g>
</g>
<polygon id="XMLID_2_" class="st8" points="522.2,167 558.2,158 522.2,149 531.2,158 "/>
<g id="XMLID_9_">
	<line id="XMLID_897_" class="st3" x1="626.1" y1="158" x2="662.1" y2="158"/>
	<g id="XMLID_892_">
		<path id="XMLID_896_" class="st7" d="M626.1,160.5c12,0,24,0,36,0c3.2,0,3.2-5,0-5c-12,0-24,0-36,0
			C622.9,155.5,622.9,160.5,626.1,160.5L626.1,160.5z"/>
	</g>
</g>
<g id="XMLID_7_">
	<line id="XMLID_891_" class="st3" x1="644.1" y1="176" x2="644.1" y2="140"/>
	<g id="XMLID_886_">
		<path id="XMLID_890_" class="st7" d="M646.6,176c0-12,0-24,0-36c0-3.2-5-3.2-5,0c0,12,0,24,0,36
			C641.6,179.2,646.6,179.2,646.6,176L646.6,176z"/>
	</g>
</g>
<g id="XMLID_14_">
	<circle id="XMLID_916_" class="st0" cx="183.7" cy="140" r="27"/>
	<g id="XMLID_910_">
		<path id="XMLID_915_" class="st5" d="M208.2,140c-0.3,13.4-10.9,24.5-24.5,24.5c-13.3,0-24.5-11.2-24.5-24.5
			c0-13.4,11.1-24.5,24.5-24.5C197.3,115.5,207.9,126.7,208.2,140c0.1,3.2,5.1,3.2,5,0c-0.3-12.1-7.4-23.1-18.9-27.5
			c-11.6-4.5-25.2-1-33.2,8.6c-17.4,20.9,1.4,52.7,28,47.9c14-2.5,23.7-15,24.1-29C213.3,136.8,208.3,136.8,208.2,140z"/>
	</g>
</g>
<g id="XMLID_13_">
	<g id="XMLID_904_">
		<path id="XMLID_909_" class="st2" d="M165.7,142.5c12,0,24,0,36,0c3.2,0,3.2-5,0-5c-12,0-24,0-36,0
			C162.5,137.5,162.5,142.5,165.7,142.5L165.7,142.5z"/>
	</g>
</g>
<g id="XMLID_12_">
	<g id="XMLID_883_">
		<path id="XMLID_902_" class="st2" d="M186.2,158c0-12,0-24,0-36c0-3.2-5-3.2-5,0c0,12,0,24,0,36
			C181.2,161.2,186.2,161.2,186.2,158L186.2,158z"/>
	</g>
</g>
</svg>
