<?xml version="1.0" encoding="utf-8"?>
<!-- Generator: Adobe Illustrator 19.0.0, SVG Export Plug-In . SVG Version: 6.00 Build 0)  -->
<svg version="1.1" id="Layer_1" xmlns="http://www.w3.org/2000/svg" xmlns:xlink="http://www.w3.org/1999/xlink" x="0px" y="0px"
	 viewBox="0 0 1080 360" style="enable-background:new 0 0 1080 360;" xml:space="preserve">
<style type="text/css">
	.st0{fill:#C55857;}
	.st1{fill:#924241;}
	.st2{fill:#AB1F23;}
	.st3{fill:#FAD466;}
	.st4{fill:#F8BA17;}
	.st5{stroke:#000000;stroke-miterlimit:10;}
	.st6{fill:#75BC64;}
</style>
<g id="XMLID_581_">
	<g id="XMLID_594_">
		<circle id="XMLID_951_" class="st0" cx="237.7" cy="194" r="27"/>
		<g id="XMLID_946_">
			<path id="XMLID_950_" class="st1" d="M262.2,194c-0.3,13.4-10.9,24.5-24.5,24.5c-13.3,0-24.5-11.2-24.5-24.5
				c0-13.4,11.1-24.5,24.5-24.5C251.3,169.5,261.9,180.7,262.2,194c0.1,3.2,5.1,3.2,5,0c-0.3-12.1-7.4-23.1-18.9-27.5
				c-11.6-4.5-25.2-1-33.2,8.6c-17.4,20.9,1.4,52.7,28,47.9c14-2.5,23.7-15,24.1-29C267.3,190.8,262.3,190.8,262.2,194z"/>
		</g>
	</g>
	<g id="XMLID_588_">
		<g id="XMLID_940_">
			<path id="XMLID_944_" class="st2" d="M219.7,196.5c12,0,24,0,36,0c3.2,0,3.2-5,0-5c-12,0-24,0-36,0
				C216.5,191.5,216.5,196.5,219.7,196.5L219.7,196.5z"/>
		</g>
	</g>
	<g id="XMLID_582_">
		<g id="XMLID_934_">
			<path id="XMLID_938_" class="st2" d="M240.2,212c0-12,0-24,0-36c0-3.2-5-3.2-5,0c0,12,0,24,0,36
				C235.2,215.2,240.2,215.2,240.2,212L240.2,212z"/>
		</g>
	</g>
</g>
<g id="XMLID_254_">
	<circle id="XMLID_932_" class="st3" cx="120.7" cy="68" r="27"/>
	<g id="XMLID_927_">
		<path id="XMLID_931_" class="st4" d="M145.2,68c-0.3,13.4-10.9,24.5-24.5,24.5c-13.3,0-24.5-11.2-24.5-24.5
			c0-13.4,11.1-24.5,24.5-24.5C134.3,43.5,144.9,54.7,145.2,68c0.1,3.2,5.1,3.2,5,0c-0.3-12.1-7.4-23.1-18.9-27.5
			c-11.6-4.5-25.2-1-33.2,8.6c-17.4,20.9,1.4,52.7,28,47.9c14-2.5,23.7-15,24.1-29C150.3,64.8,145.3,64.8,145.2,68z"/>
	</g>
</g>
<g id="XMLID_107_">
	<circle id="XMLID_873_" class="st3" cx="237.7" cy="86" r="27"/>
	<g id="XMLID_868_">
		<path id="XMLID_872_" class="st4" d="M262.2,86c-0.3,13.4-10.9,24.5-24.5,24.5c-13.3,0-24.5-11.2-24.5-24.5
			c0-13.4,11.1-24.5,24.5-24.5C251.3,61.5,261.9,72.7,262.2,86c0.1,3.2,5.1,3.2,5,0c-0.3-12.1-7.4-23.1-18.9-27.5
			c-11.6-4.5-25.2-1-33.2,8.6c-17.4,20.9,1.4,52.7,28,47.9c14-2.5,23.7-15,24.1-29C267.3,82.8,262.3,82.8,262.2,86z"/>
	</g>
</g>
<g id="XMLID_106_">
	<circle id="XMLID_866_" class="st3" cx="93.7" cy="176" r="27"/>
	<g id="XMLID_861_">
		<path id="XMLID_865_" class="st4" d="M118.2,176c-0.3,13.4-10.9,24.5-24.5,24.5c-13.3,0-24.5-11.2-24.5-24.5
			c0-13.4,11.1-24.5,24.5-24.5C107.3,151.5,117.9,162.7,118.2,176c0.1,3.2,5.1,3.2,5,0c-0.3-12.1-7.4-23.1-18.9-27.5
			c-11.6-4.5-25.2-1-33.2,8.6c-17.4,20.9,1.4,52.7,28,47.9c14-2.5,23.7-15,24.1-29C123.3,172.8,118.3,172.8,118.2,176z"/>
	</g>
</g>
<g id="XMLID_263_">
	<g id="XMLID_105_">
		<circle id="XMLID_859_" class="st0" cx="201.7" cy="68" r="27"/>
		<g id="XMLID_854_">
			<path id="XMLID_858_" class="st1" d="M226.2,68c-0.3,13.4-10.9,24.5-24.5,24.5c-13.3,0-24.5-11.2-24.5-24.5
				c0-13.4,11.1-24.5,24.5-24.5C215.3,43.5,225.9,54.7,226.2,68c0.1,3.2,5.1,3.2,5,0c-0.3-12.1-7.4-23.1-18.9-27.5
				c-11.6-4.5-25.2-1-33.2,8.6c-17.4,20.9,1.4,52.7,28,47.9c14-2.5,23.7-15,24.1-29C231.3,64.8,226.3,64.8,226.2,68z"/>
		</g>
	</g>
	<g id="XMLID_104_">
		<g id="XMLID_848_">
			<path id="XMLID_852_" class="st2" d="M183.7,70.5c12,0,24,0,36,0c3.2,0,3.2-5,0-5c-12,0-24,0-36,0
				C180.5,65.5,180.5,70.5,183.7,70.5L183.7,70.5z"/>
		</g>
	</g>
	<g id="XMLID_103_">
		<g id="XMLID_842_">
			<path id="XMLID_846_" class="st2" d="M204.2,86c0-12,0-24,0-36c0-3.2-5-3.2-5,0c0,12,0,24,0,36C199.2,89.2,204.2,89.2,204.2,86
				L204.2,86z"/>
		</g>
	</g>
</g>
<g id="XMLID_102_">
	<circle id="XMLID_840_" class="st3" cx="246.7" cy="158" r="27"/>
	<g id="XMLID_835_">
		<path id="XMLID_839_" class="st4" d="M271.2,158c-0.3,13.4-10.9,24.5-24.5,24.5c-13.3,0-24.5-11.2-24.5-24.5
			c0-13.4,11.1-24.5,24.5-24.5C260.3,133.5,270.9,144.7,271.2,158c0.1,3.2,5.1,3.2,5,0c-0.3-12.1-7.4-23.1-18.9-27.5
			c-11.6-4.5-25.2-1-33.2,8.6c-17.4,20.9,1.4,52.7,28,47.9c14-2.5,23.7-15,24.1-29C276.3,154.8,271.3,154.8,271.2,158z"/>
	</g>
</g>
<g id="XMLID_158_">
	<circle id="XMLID_833_" class="st3" cx="156.7" cy="59" r="27"/>
	<g id="XMLID_828_">
		<path id="XMLID_832_" class="st4" d="M181.2,59c-0.3,13.4-10.9,24.5-24.5,24.5c-13.3,0-24.5-11.2-24.5-24.5
			c0-13.4,11.1-24.5,24.5-24.5C170.3,34.5,180.9,45.7,181.2,59c0.1,3.2,5.1,3.2,5,0c-0.3-12.1-7.4-23.1-18.9-27.5
			c-11.6-4.5-25.2-1-33.2,8.6c-17.4,20.9,1.4,52.7,28,47.9c14-2.5,23.7-15,24.1-29C186.3,55.8,181.3,55.8,181.2,59z"/>
	</g>
</g>
<g id="XMLID_168_">
	<circle id="XMLID_826_" class="st3" cx="201.7" cy="221" r="27"/>
	<g id="XMLID_821_">
		<path id="XMLID_825_" class="st4" d="M226.2,221c-0.3,13.4-10.9,24.5-24.5,24.5c-13.3,0-24.5-11.2-24.5-24.5
			c0-13.4,11.1-24.5,24.5-24.5C215.3,196.5,225.9,207.7,226.2,221c0.1,3.2,5.1,3.2,5,0c-0.3-12.1-7.4-23.1-18.9-27.5
			c-11.6-4.5-25.2-1-33.2,8.6c-17.4,20.9,1.4,52.7,28,47.9c14-2.5,23.7-15,24.1-29C231.3,217.8,226.3,217.8,226.2,221z"/>
	</g>
</g>
<g id="XMLID_251_">
	<circle id="XMLID_819_" class="st3" cx="147.7" cy="230" r="27"/>
	<g id="XMLID_814_">
		<path id="XMLID_818_" class="st4" d="M172.2,230c-0.3,13.4-10.9,24.5-24.5,24.5c-13.3,0-24.5-11.2-24.5-24.5
			c0-13.4,11.1-24.5,24.5-24.5C161.3,205.5,171.9,216.7,172.2,230c0.1,3.2,5.1,3.2,5,0c-0.3-12.1-7.4-23.1-18.9-27.5
			c-11.6-4.5-25.2-1-33.2,8.6c-17.4,20.9,1.4,52.7,28,47.9c14-2.5,23.7-15,24.1-29C177.3,226.8,172.3,226.8,172.2,230z"/>
	</g>
</g>
<g id="XMLID_244_">
	<circle id="XMLID_812_" class="st3" cx="93.7" cy="104" r="27"/>
	<g id="XMLID_807_">
		<path id="XMLID_811_" class="st4" d="M118.2,104c-0.3,13.4-10.9,24.5-24.5,24.5c-13.3,0-24.5-11.2-24.5-24.5
			c0-13.4,11.1-24.5,24.5-24.5C107.3,79.5,117.9,90.7,118.2,104c0.1,3.2,5.1,3.2,5,0c-0.3-12.1-7.4-23.1-18.9-27.5
			c-11.6-4.5-25.2-1-33.2,8.6c-17.4,20.9,1.4,52.7,28,47.9c14-2.5,23.7-15,24.1-29C123.3,100.8,118.3,100.8,118.2,104z"/>
	</g>
</g>
<g id="XMLID_276_">
	<g id="XMLID_290_">
		<circle id="XMLID_805_" class="st0" cx="237.7" cy="131" r="27"/>
		<g id="XMLID_800_">
			<path id="XMLID_804_" class="st1" d="M262.2,131c-0.3,13.4-10.9,24.5-24.5,24.5c-13.3,0-24.5-11.2-24.5-24.5
				c0-13.4,11.1-24.5,24.5-24.5C251.3,106.5,261.9,117.7,262.2,131c0.1,3.2,5.1,3.2,5,0c-0.3-12.1-7.4-23.1-18.9-27.5
				c-11.6-4.5-25.2-1-33.2,8.6c-17.4,20.9,1.4,52.7,28,47.9c14-2.5,23.7-15,24.1-29C267.3,127.8,262.3,127.8,262.2,131z"/>
		</g>
	</g>
	<g id="XMLID_289_">
		<g id="XMLID_794_">
			<path id="XMLID_798_" class="st2" d="M219.7,133.5c12,0,24,0,36,0c3.2,0,3.2-5,0-5c-12,0-24,0-36,0
				C216.5,128.5,216.5,133.5,219.7,133.5L219.7,133.5z"/>
		</g>
	</g>
	<g id="XMLID_282_">
		<g id="XMLID_788_">
			<path id="XMLID_792_" class="st2" d="M240.2,149c0-12,0-24,0-36c0-3.2-5-3.2-5,0c0,12,0,24,0,36
				C235.2,152.2,240.2,152.2,240.2,149L240.2,149z"/>
		</g>
	</g>
</g>
<g id="XMLID_297_">
	<g id="XMLID_321_">
		<circle id="XMLID_786_" class="st0" cx="219.7" cy="149" r="27"/>
		<g id="XMLID_781_">
			<path id="XMLID_785_" class="st1" d="M244.2,149c-0.3,13.4-10.9,24.5-24.5,24.5c-13.3,0-24.5-11.2-24.5-24.5
				c0-13.4,11.1-24.5,24.5-24.5C233.3,124.5,243.9,135.7,244.2,149c0.1,3.2,5.1,3.2,5,0c-0.3-12.1-7.4-23.1-18.9-27.5
				c-11.6-4.5-25.2-1-33.2,8.6c-17.4,20.9,1.4,52.7,28,47.9c14-2.5,23.7-15,24.1-29C249.3,145.8,244.3,145.8,244.2,149z"/>
		</g>
	</g>
	<g id="XMLID_314_">
		<g id="XMLID_775_">
			<path id="XMLID_779_" class="st2" d="M201.7,151.5c12,0,24,0,36,0c3.2,0,3.2-5,0-5c-12,0-24,0-36,0
				C198.5,146.5,198.5,151.5,201.7,151.5L201.7,151.5z"/>
		</g>
	</g>
	<g id="XMLID_308_">
		<g id="XMLID_769_">
			<path id="XMLID_773_" class="st2" d="M222.2,167c0-12,0-24,0-36c0-3.2-5-3.2-5,0c0,12,0,24,0,36
				C217.2,170.2,222.2,170.2,222.2,167L222.2,167z"/>
		</g>
	</g>
</g>
<g id="XMLID_328_">
	<g id="XMLID_340_">
		<circle id="XMLID_767_" class="st0" cx="165.7" cy="212" r="27"/>
		<g id="XMLID_762_">
			<path id="XMLID_766_" class="st1" d="M190.2,212c-0.3,13.4-10.9,24.5-24.5,24.5c-13.3,0-24.5-11.2-24.5-24.5
				c0-13.4,11.1-24.5,24.5-24.5C179.3,187.5,189.9,198.7,190.2,212c0.1,3.2,5.1,3.2,5,0c-0.3-12.1-7.4-23.1-18.9-27.5
				c-11.6-4.5-25.2-1-33.2,8.6c-17.4,20.9,1.4,52.7,28,47.9c14-2.5,23.7-15,24.1-29C195.3,208.8,190.3,208.8,190.2,212z"/>
		</g>
	</g>
	<g id="XMLID_339_">
		<g id="XMLID_756_">
			<path id="XMLID_760_" class="st2" d="M147.7,214.5c12,0,24,0,36,0c3.2,0,3.2-5,0-5c-12,0-24,0-36,0
				C144.5,209.5,144.5,214.5,147.7,214.5L147.7,214.5z"/>
		</g>
	</g>
	<g id="XMLID_335_">
		<g id="XMLID_750_">
			<path id="XMLID_754_" class="st2" d="M168.2,230c0-12,0-24,0-36c0-3.2-5-3.2-5,0c0,12,0,24,0,36
				C163.2,233.2,168.2,233.2,168.2,230L168.2,230z"/>
		</g>
	</g>
</g>
<g id="XMLID_346_">
	<g id="XMLID_363_">
		<circle id="XMLID_748_" class="st0" cx="129.7" cy="194" r="27"/>
		<g id="XMLID_743_">
			<path id="XMLID_747_" class="st1" d="M154.2,194c-0.3,13.4-10.9,24.5-24.5,24.5c-13.3,0-24.5-11.2-24.5-24.5
				c0-13.4,11.1-24.5,24.5-24.5C143.3,169.5,153.9,180.7,154.2,194c0.1,3.2,5.1,3.2,5,0c-0.3-12.1-7.4-23.1-18.9-27.5
				c-11.6-4.5-25.2-1-33.2,8.6c-17.4,20.9,1.4,52.7,28,47.9c14-2.5,23.7-15,24.1-29C159.3,190.8,154.3,190.8,154.2,194z"/>
		</g>
	</g>
	<g id="XMLID_362_">
		<g id="XMLID_737_">
			<path id="XMLID_741_" class="st2" d="M111.7,196.5c12,0,24,0,36,0c3.2,0,3.2-5,0-5c-12,0-24,0-36,0
				C108.5,191.5,108.5,196.5,111.7,196.5L111.7,196.5z"/>
		</g>
	</g>
	<g id="XMLID_352_">
		<g id="XMLID_731_">
			<path id="XMLID_735_" class="st2" d="M132.2,212c0-12,0-24,0-36c0-3.2-5-3.2-5,0c0,12,0,24,0,36
				C127.2,215.2,132.2,215.2,132.2,212L132.2,212z"/>
		</g>
	</g>
</g>
<g id="XMLID_369_">
	<g id="XMLID_386_">
		<circle id="XMLID_729_" class="st0" cx="84.7" cy="140" r="27"/>
		<g id="XMLID_724_">
			<path id="XMLID_728_" class="st1" d="M109.2,140c-0.3,13.4-10.9,24.5-24.5,24.5c-13.3,0-24.5-11.2-24.5-24.5
				c0-13.4,11.1-24.5,24.5-24.5C98.3,115.5,108.9,126.7,109.2,140c0.1,3.2,5.1,3.2,5,0c-0.3-12.1-7.4-23.1-18.9-27.5
				c-11.6-4.5-25.2-1-33.2,8.6c-17.4,20.9,1.4,52.7,28,47.9c14-2.5,23.7-15,24.1-29C114.3,136.8,109.3,136.8,109.2,140z"/>
		</g>
	</g>
	<g id="XMLID_385_">
		<g id="XMLID_718_">
			<path id="XMLID_722_" class="st2" d="M66.7,142.5c12,0,24,0,36,0c3.2,0,3.2-5,0-5c-12,0-24,0-36,0
				C63.5,137.5,63.5,142.5,66.7,142.5L66.7,142.5z"/>
		</g>
	</g>
	<g id="XMLID_375_">
		<g id="XMLID_712_">
			<path id="XMLID_716_" class="st2" d="M87.2,158c0-12,0-24,0-36c0-3.2-5-3.2-5,0c0,12,0,24,0,36C82.2,161.2,87.2,161.2,87.2,158
				L87.2,158z"/>
		</g>
	</g>
</g>
<g id="XMLID_392_">
	<g id="XMLID_409_">
		<circle id="XMLID_710_" class="st0" cx="120.7" cy="212" r="27"/>
		<g id="XMLID_705_">
			<path id="XMLID_709_" class="st1" d="M145.2,212c-0.3,13.4-10.9,24.5-24.5,24.5c-13.3,0-24.5-11.2-24.5-24.5
				c0-13.4,11.1-24.5,24.5-24.5C134.3,187.5,144.9,198.7,145.2,212c0.1,3.2,5.1,3.2,5,0c-0.3-12.1-7.4-23.1-18.9-27.5
				c-11.6-4.5-25.2-1-33.2,8.6c-17.4,20.9,1.4,52.7,28,47.9c14-2.5,23.7-15,24.1-29C150.3,208.8,145.3,208.8,145.2,212z"/>
		</g>
	</g>
	<g id="XMLID_408_">
		<g id="XMLID_699_">
			<path id="XMLID_703_" class="st2" d="M102.7,214.5c12,0,24,0,36,0c3.2,0,3.2-5,0-5c-12,0-24,0-36,0
				C99.5,209.5,99.5,214.5,102.7,214.5L102.7,214.5z"/>
		</g>
	</g>
	<g id="XMLID_398_">
		<g id="XMLID_693_">
			<path id="XMLID_697_" class="st2" d="M123.2,230c0-12,0-24,0-36c0-3.2-5-3.2-5,0c0,12,0,24,0,36
				C118.2,233.2,123.2,233.2,123.2,230L123.2,230z"/>
		</g>
	</g>
</g>
<g id="XMLID_415_">
	<g id="XMLID_432_">
		<circle id="XMLID_691_" class="st0" cx="120.7" cy="86" r="27"/>
		<g id="XMLID_686_">
			<path id="XMLID_690_" class="st1" d="M145.2,86c-0.3,13.4-10.9,24.5-24.5,24.5c-13.3,0-24.5-11.2-24.5-24.5
				c0-13.4,11.1-24.5,24.5-24.5C134.3,61.5,144.9,72.7,145.2,86c0.1,3.2,5.1,3.2,5,0c-0.3-12.1-7.4-23.1-18.9-27.5
				c-11.6-4.5-25.2-1-33.2,8.6c-17.4,20.9,1.4,52.7,28,47.9c14-2.5,23.7-15,24.1-29C150.3,82.8,145.3,82.8,145.2,86z"/>
		</g>
	</g>
	<g id="XMLID_431_">
		<g id="XMLID_680_">
			<path id="XMLID_684_" class="st2" d="M102.7,88.5c12,0,24,0,36,0c3.2,0,3.2-5,0-5c-12,0-24,0-36,0
				C99.5,83.5,99.5,88.5,102.7,88.5L102.7,88.5z"/>
		</g>
	</g>
	<g id="XMLID_421_">
		<g id="XMLID_674_">
			<path id="XMLID_678_" class="st2" d="M123.2,104c0-12,0-24,0-36c0-3.2-5-3.2-5,0c0,12,0,24,0,36
				C118.2,107.2,123.2,107.2,123.2,104L123.2,104z"/>
		</g>
	</g>
</g>
<g id="XMLID_165_">
	<circle id="XMLID_672_" class="st3" cx="174.7" cy="77" r="27"/>
	<g id="XMLID_667_">
		<path id="XMLID_671_" class="st4" d="M199.2,77c-0.3,13.4-10.9,24.5-24.5,24.5c-13.3,0-24.5-11.2-24.5-24.5
			c0-13.4,11.1-24.5,24.5-24.5C188.3,52.5,198.9,63.7,199.2,77c0.1,3.2,5.1,3.2,5,0c-0.3-12.1-7.4-23.1-18.9-27.5
			c-11.6-4.5-25.2-1-33.2,8.6c-17.4,20.9,1.4,52.7,28,47.9c14-2.5,23.7-15,24.1-29C204.3,73.8,199.3,73.8,199.2,77z"/>
	</g>
</g>
<g id="XMLID_166_">
	<circle id="XMLID_665_" class="st3" cx="210.7" cy="104" r="27"/>
	<g id="XMLID_660_">
		<path id="XMLID_664_" class="st4" d="M235.2,104c-0.3,13.4-10.9,24.5-24.5,24.5c-13.3,0-24.5-11.2-24.5-24.5
			c0-13.4,11.1-24.5,24.5-24.5C224.3,79.5,234.9,90.7,235.2,104c0.1,3.2,5.1,3.2,5,0c-0.3-12.1-7.4-23.1-18.9-27.5
			c-11.6-4.5-25.2-1-33.2,8.6c-17.4,20.9,1.4,52.7,28,47.9c14-2.5,23.7-15,24.1-29C240.3,100.8,235.3,100.8,235.2,104z"/>
	</g>
</g>
<g id="XMLID_167_">
	<circle id="XMLID_658_" class="st3" cx="210.7" cy="194" r="27"/>
	<g id="XMLID_653_">
		<path id="XMLID_657_" class="st4" d="M235.2,194c-0.3,13.4-10.9,24.5-24.5,24.5c-13.3,0-24.5-11.2-24.5-24.5
			c0-13.4,11.1-24.5,24.5-24.5C224.3,169.5,234.9,180.7,235.2,194c0.1,3.2,5.1,3.2,5,0c-0.3-12.1-7.4-23.1-18.9-27.5
			c-11.6-4.5-25.2-1-33.2,8.6c-17.4,20.9,1.4,52.7,28,47.9c14-2.5,23.7-15,24.1-29C240.3,190.8,235.3,190.8,235.2,194z"/>
	</g>
</g>
<g id="XMLID_225_">
	<circle id="XMLID_651_" class="st3" cx="156.7" cy="185" r="27"/>
	<g id="XMLID_646_">
		<path id="XMLID_650_" class="st4" d="M181.2,185c-0.3,13.4-10.9,24.5-24.5,24.5c-13.3,0-24.5-11.2-24.5-24.5
			c0-13.4,11.1-24.5,24.5-24.5C170.3,160.5,180.9,171.7,181.2,185c0.1,3.2,5.1,3.2,5,0c-0.3-12.1-7.4-23.1-18.9-27.5
			c-11.6-4.5-25.2-1-33.2,8.6c-17.4,20.9,1.4,52.7,28,47.9c14-2.5,23.7-15,24.1-29C186.3,181.8,181.3,181.8,181.2,185z"/>
	</g>
</g>
<g id="XMLID_232_">
	<circle id="XMLID_644_" class="st3" cx="120.7" cy="158" r="27"/>
	<g id="XMLID_639_">
		<path id="XMLID_643_" class="st4" d="M145.2,158c-0.3,13.4-10.9,24.5-24.5,24.5c-13.3,0-24.5-11.2-24.5-24.5
			c0-13.4,11.1-24.5,24.5-24.5C134.3,133.5,144.9,144.7,145.2,158c0.1,3.2,5.1,3.2,5,0c-0.3-12.1-7.4-23.1-18.9-27.5
			c-11.6-4.5-25.2-1-33.2,8.6c-17.4,20.9,1.4,52.7,28,47.9c14-2.5,23.7-15,24.1-29C150.3,154.8,145.3,154.8,145.2,158z"/>
	</g>
</g>
<g id="XMLID_238_">
	<circle id="XMLID_637_" class="st3" cx="129.7" cy="104" r="27"/>
	<g id="XMLID_632_">
		<path id="XMLID_636_" class="st4" d="M154.2,104c-0.3,13.4-10.9,24.5-24.5,24.5c-13.3,0-24.5-11.2-24.5-24.5
			c0-13.4,11.1-24.5,24.5-24.5C143.3,79.5,153.9,90.7,154.2,104c0.1,3.2,5.1,3.2,5,0c-0.3-12.1-7.4-23.1-18.9-27.5
			c-11.6-4.5-25.2-1-33.2,8.6c-17.4,20.9,1.4,52.7,28,47.9c14-2.5,23.7-15,24.1-29C159.3,100.8,154.3,100.8,154.2,104z"/>
	</g>
</g>
<g id="XMLID_256_">
	<g id="XMLID_299_">
		<circle id="XMLID_630_" class="st0" cx="192.7" cy="176" r="27"/>
		<g id="XMLID_625_">
			<path id="XMLID_629_" class="st1" d="M217.2,176c-0.3,13.4-10.9,24.5-24.5,24.5c-13.3,0-24.5-11.2-24.5-24.5
				c0-13.4,11.1-24.5,24.5-24.5C206.3,151.5,216.9,162.7,217.2,176c0.1,3.2,5.1,3.2,5,0c-0.3-12.1-7.4-23.1-18.9-27.5
				c-11.6-4.5-25.2-1-33.2,8.6c-17.4,20.9,1.4,52.7,28,47.9c14-2.5,23.7-15,24.1-29C222.3,172.8,217.3,172.8,217.2,176z"/>
		</g>
	</g>
	<g id="XMLID_281_">
		<g id="XMLID_619_">
			<path id="XMLID_623_" class="st2" d="M174.7,178.5c12,0,24,0,36,0c3.2,0,3.2-5,0-5c-12,0-24,0-36,0
				C171.5,173.5,171.5,178.5,174.7,178.5L174.7,178.5z"/>
		</g>
	</g>
	<g id="XMLID_272_">
		<g id="XMLID_613_">
			<path id="XMLID_617_" class="st2" d="M195.2,194c0-12,0-24,0-36c0-3.2-5-3.2-5,0c0,12,0,24,0,36
				C190.2,197.2,195.2,197.2,195.2,194L195.2,194z"/>
		</g>
	</g>
</g>
<g id="XMLID_501_">
	<g id="XMLID_513_">
		<circle id="XMLID_611_" class="st0" cx="120.7" cy="122" r="27"/>
		<g id="XMLID_606_">
			<path id="XMLID_610_" class="st1" d="M145.2,122c-0.3,13.4-10.9,24.5-24.5,24.5c-13.3,0-24.5-11.2-24.5-24.5
				c0-13.4,11.1-24.5,24.5-24.5C134.3,97.5,144.9,108.7,145.2,122c0.1,3.2,5.1,3.2,5,0c-0.3-12.1-7.4-23.1-18.9-27.5
				c-11.6-4.5-25.2-1-33.2,8.6c-17.4,20.9,1.4,52.7,28,47.9c14-2.5,23.7-15,24.1-29C150.3,118.8,145.3,118.8,145.2,122z"/>
		</g>
	</g>
	<g id="XMLID_512_">
		<g id="XMLID_600_">
			<path id="XMLID_604_" class="st2" d="M102.7,124.5c12,0,24,0,36,0c3.2,0,3.2-5,0-5c-12,0-24,0-36,0
				C99.5,119.5,99.5,124.5,102.7,124.5L102.7,124.5z"/>
		</g>
	</g>
	<g id="XMLID_502_">
		<g id="XMLID_593_">
			<path id="XMLID_598_" class="st2" d="M123.2,140c0-12,0-24,0-36c0-3.2-5-3.2-5,0c0,12,0,24,0,36
				C118.2,143.2,123.2,143.2,123.2,140L123.2,140z"/>
		</g>
	</g>
</g>
<g id="XMLID_519_">
	<g id="XMLID_536_">
		<circle id="XMLID_591_" class="st0" cx="165.7" cy="104" r="27"/>
		<g id="XMLID_585_">
			<path id="XMLID_590_" class="st1" d="M190.2,104c-0.3,13.4-10.9,24.5-24.5,24.5c-13.3,0-24.5-11.2-24.5-24.5
				c0-13.4,11.1-24.5,24.5-24.5C179.3,79.5,189.9,90.7,190.2,104c0.1,3.2,5.1,3.2,5,0c-0.3-12.1-7.4-23.1-18.9-27.5
				c-11.6-4.5-25.2-1-33.2,8.6c-17.4,20.9,1.4,52.7,28,47.9c14-2.5,23.7-15,24.1-29C195.3,100.8,190.3,100.8,190.2,104z"/>
		</g>
	</g>
	<g id="XMLID_535_">
		<g id="XMLID_577_">
			<path id="XMLID_583_" class="st2" d="M147.7,106.5c12,0,24,0,36,0c3.2,0,3.2-5,0-5c-12,0-24,0-36,0
				C144.5,101.5,144.5,106.5,147.7,106.5L147.7,106.5z"/>
		</g>
	</g>
	<g id="XMLID_525_">
		<g id="XMLID_571_">
			<path id="XMLID_575_" class="st2" d="M168.2,122c0-12,0-24,0-36c0-3.2-5-3.2-5,0c0,12,0,24,0,36
				C163.2,125.2,168.2,125.2,168.2,122L168.2,122z"/>
		</g>
	</g>
</g>
<g id="XMLID_18_">
	<circle id="XMLID_569_" class="st3" cx="138.7" cy="131" r="27"/>
	<g id="XMLID_564_">
		<path id="XMLID_568_" class="st4" d="M163.2,131c-0.3,13.4-10.9,24.5-24.5,24.5c-13.3,0-24.5-11.2-24.5-24.5
			c0-13.4,11.1-24.5,24.5-24.5C152.3,106.5,162.9,117.7,163.2,131c0.1,3.2,5.1,3.2,5,0c-0.3-12.1-7.4-23.1-18.9-27.5
			c-11.6-4.5-25.2-1-33.2,8.6c-17.4,20.9,1.4,52.7,28,47.9c14-2.5,23.7-15,24.1-29C168.3,127.8,163.3,127.8,163.2,131z"/>
	</g>
</g>
<g id="XMLID_11_">
	<g id="XMLID_17_">
		<circle id="XMLID_562_" class="st0" cx="165.7" cy="104" r="27"/>
		<g id="XMLID_557_">
			<path id="XMLID_561_" class="st1" d="M190.2,104c-0.3,13.4-10.9,24.5-24.5,24.5c-13.3,0-24.5-11.2-24.5-24.5
				c0-13.4,11.1-24.5,24.5-24.5C179.3,79.5,189.9,90.7,190.2,104c0.1,3.2,5.1,3.2,5,0c-0.3-12.1-7.4-23.1-18.9-27.5
				c-11.6-4.5-25.2-1-33.2,8.6c-17.4,20.9,1.4,52.7,28,47.9c14-2.5,23.7-15,24.1-29C195.3,100.8,190.3,100.8,190.2,104z"/>
		</g>
	</g>
	<g id="XMLID_16_">
		<g id="XMLID_551_">
			<path id="XMLID_555_" class="st2" d="M147.7,106.5c12,0,24,0,36,0c3.2,0,3.2-5,0-5c-12,0-24,0-36,0
				C144.5,101.5,144.5,106.5,147.7,106.5L147.7,106.5z"/>
		</g>
	</g>
	<g id="XMLID_15_">
		<g id="XMLID_545_">
			<path id="XMLID_549_" class="st2" d="M168.2,122c0-12,0-24,0-36c0-3.2-5-3.2-5,0c0,12,0,24,0,36
				C163.2,125.2,168.2,125.2,168.2,122L168.2,122z"/>
		</g>
	</g>
</g>
<g id="XMLID_3_">
	<g id="XMLID_6_">
		<circle id="XMLID_534_" class="st0" cx="156.7" cy="158" r="27"/>
		<g id="XMLID_529_">
			<path id="XMLID_533_" class="st1" d="M181.2,158c-0.3,13.4-10.9,24.5-24.5,24.5c-13.3,0-24.5-11.2-24.5-24.5
				c0-13.4,11.1-24.5,24.5-24.5C170.3,133.5,180.9,144.7,181.2,158c0.1,3.2,5.1,3.2,5,0c-0.3-12.1-7.4-23.1-18.9-27.5
				c-11.6-4.5-25.2-1-33.2,8.6c-17.4,20.9,1.4,52.7,28,47.9c14-2.5,23.7-15,24.1-29C186.3,154.8,181.3,154.8,181.2,158z"/>
		</g>
	</g>
	<g id="XMLID_5_">
		<g id="XMLID_522_">
			<path id="XMLID_527_" class="st2" d="M138.7,160.5c12,0,24,0,36,0c3.2,0,3.2-5,0-5c-12,0-24,0-36,0
				C135.5,155.5,135.5,160.5,138.7,160.5L138.7,160.5z"/>
		</g>
	</g>
	<g id="XMLID_4_">
		<g id="XMLID_515_">
			<path id="XMLID_520_" class="st2" d="M159.2,176c0-12,0-24,0-36c0-3.2-5-3.2-5,0c0,12,0,24,0,36
				C154.2,179.2,159.2,179.2,159.2,176L159.2,176z"/>
		</g>
	</g>
</g>
<g id="XMLID_25_">
	<line id="XMLID_59_" x1="315.2" y1="158" x2="549.2" y2="158"/>
	<g id="XMLID_40_">
		<path id="XMLID_44_" d="M315.2,160.5c26.4,0,52.7,0,79.1,0c42,0,84,0,126,0c9.6,0,19.2,0,28.8,0c3.2,0,3.2-5,0-5
			c-26.4,0-52.7,0-79.1,0c-42,0-84,0-126,0c-9.6,0-19.2,0-28.8,0C311.9,155.5,311.9,160.5,315.2,160.5L315.2,160.5z"/>
	</g>
</g>
<g id="XMLID_26_">
	<g id="XMLID_28_">
		<line id="XMLID_58_" x1="723.5" y1="158" x2="759.5" y2="158"/>
		<g id="XMLID_53_">
			<path id="XMLID_57_" d="M723.5,160.5c12,0,24,0,36,0c3.2,0,3.2-5,0-5c-12,0-24,0-36,0C720.3,155.5,720.3,160.5,723.5,160.5
				L723.5,160.5z"/>
		</g>
	</g>
	<g id="XMLID_27_">
		<line id="XMLID_51_" x1="741.5" y1="176" x2="741.5" y2="140"/>
		<g id="XMLID_46_">
			<path id="XMLID_50_" d="M744,176c0-12,0-24,0-36c0-3.2-5-3.2-5,0c0,12,0,24,0,36C739,179.2,744,179.2,744,176L744,176z"/>
		</g>
	</g>
</g>
<g id="XMLID_10_">
	<circle id="XMLID_867_" class="st3" cx="183.7" cy="140" r="27"/>
	<g id="XMLID_542_">
		<path id="XMLID_860_" class="st4" d="M208.2,140c-0.3,13.4-10.9,24.5-24.5,24.5c-13.3,0-24.5-11.2-24.5-24.5
			c0-13.4,11.1-24.5,24.5-24.5C197.3,115.5,207.9,126.7,208.2,140c0.1,3.2,5.1,3.2,5,0c-0.3-12.1-7.4-23.1-18.9-27.5
			c-11.6-4.5-25.2-1-33.2,8.6c-17.4,20.9,1.4,52.7,28,47.9c14-2.5,23.7-15,24.1-29C213.3,136.8,208.3,136.8,208.2,140z"/>
	</g>
</g>
<polygon id="XMLID_2_" class="st5" points="522.2,167 558.2,158 522.2,149 531.2,158 "/>
<g id="XMLID_1023_">
	<g id="XMLID_875_">
		<path id="XMLID_879_" class="st6" d="M276.2,158c-0.2-8.8-3.8-16.7-10.5-22.5c0.2,0.8,0.4,1.6,0.6,2.4
			c2.6-12.4-2.1-24.3-12.5-31.6c0,1.4,0,2.9,0,4.3c12.2-8.6,17-24.6,10-38.2c-6.9-13.4-22.8-19-36.8-14c1,0.6,2.1,1.2,3.1,1.7
			c-6.5-21.9-33.8-28.7-49.9-12.5c1.4,0.4,2.8,0.7,4.2,1.1c-9.1-22.5-39-25.8-52.6-5.7c1.1-0.3,2.3-0.6,3.4-0.9
			c-10.9-5.7-23.9-4.9-33.4,3.1c-4,3.3-7.1,7.8-8.8,12.7c-1,2.7-1.6,5.7-1.7,8.6c-0.1,1.7,0,3.4,0.2,5.1c0.1,0.7,1.4,4.6,1.4,4.7
			c0.8-0.6,1.6-1.2,2.4-1.8c-23.2-0.7-37.9,23.5-27.2,44c0.3-1.1,0.6-2.3,0.9-3.4c-17.9,12.1-17.9,37.7,0,49.8
			c-0.3-1.1-0.6-2.3-0.9-3.4c-10.7,20.4,4.1,44.7,27.2,44c-0.8-1.1-1.6-2.1-2.4-3.2c-6.3,19.9,8.5,39.8,29.4,39.2
			c-0.8-0.6-1.6-1.2-2.4-1.8c4.5,11.9,15.6,20.2,28.6,19.9c12.9-0.3,23.5-8.9,27.5-21c-0.6,0.6-1.2,1.2-1.7,1.7
			c2.1-0.7,4.1-1.5,6-2.6c-1.1-0.3-2.3-0.6-3.4-0.9c7.7,11.3,21.8,16.7,34.9,12c12.3-4.4,19.9-16.4,19.5-29.3
			c-1.1,0.8-2.1,1.6-3.2,2.4c25.7,8.2,47.9-18.6,35.4-42.4c-0.3,1.1-0.6,2.3-0.9,3.4C271,177.1,275.9,168.3,276.2,158
			c0.1-3.2-4.9-3.2-5,0c-0.2,8.5-4.2,15.8-11.2,20.6c-1.2,0.8-1.6,2.2-0.9,3.4c10.5,20.1-8.5,41.8-29.8,35c-1.5-0.5-3.2,0.8-3.2,2.4
			c0.3,10.7-5.6,20.7-15.8,24.5c-10.8,4.1-22.8-0.2-29.2-9.7c-0.8-1.2-2.2-1.6-3.4-0.9c-1.9,1-5,1.4-6.3,3.2c-1.4,2-1.8,4.7-3.2,6.8
			c-3.3,5-8.3,8.7-14.1,10.3c-12.3,3.3-25-3.6-29.4-15.4c-0.4-1-1.2-1.9-2.4-1.8c-17.8,0.5-29.9-16-24.6-32.8
			c0.5-1.5-0.8-3.2-2.4-3.2C76,201,63.3,181.2,72.3,164c0.7-1.3,0.3-2.6-0.9-3.4c-14.7-9.9-14.7-31.3,0-41.2
			c1.2-0.8,1.6-2.2,0.9-3.4c-9-17.2,3.7-37,22.9-36.4c1.1,0,2.1-0.8,2.4-1.8c0.5-1.5-0.7-3.4-1-4.9c-0.6-3.1-0.7-6.5,0-9.6
			c0.9-4.5,3.1-8.7,6.3-12.1c7.7-8.2,19.9-9.7,29.8-4.5c1.3,0.7,2.6,0.3,3.4-0.9c11.1-16.4,36-14,43.5,4.5c0.7,1.7,2.7,2.6,4.2,1.1
			c13.4-13.6,36.1-8.1,41.6,10.2c0.4,1.2,1.8,2.2,3.1,1.7c11.4-4.1,24.4-0.3,30.5,10.5c6.4,11.2,2.8,25.2-7.6,32.5
			c-1.6,1.1-1.6,3.2,0,4.3c8.4,5.9,12.3,15.8,10.2,25.9c-0.2,0.8,0,1.8,0.6,2.4c5.7,5,8.8,11.4,9,19
			C271.3,161.2,276.3,161.2,276.2,158z"/>
	</g>
</g>
<g id="XMLID_1_">
	<g id="XMLID_539_">
		<path id="XMLID_882_" class="st6" d="M576.8,220.6c3.8-3.3,11.6,1.4,15.5,2.7c4.1,1.4,9.1,2.4,12.8-0.6c3.9-3.1,3.5-8.2,2.3-12.5
			c-1.2-4.2-5.9-11.3-4-15.7c2.3-5.3,11.3-0.4,14.8,0.9c4.2,1.5,9.3,3.2,13.4,0.6c10.4-6.6-2-19.1-1.2-27.4
			c0.7-6.9,9.9-2.5,13.6-1.1c4.2,1.6,9.4,3.7,13.8,1.7c10.9-4.8,1.2-18.5,0.1-26c-1.2-7.9,6.9-5.5,11.5-3.8c4.4,1.6,9.6,4.2,14.5,3
			c12.1-3.2,3.5-17.9,1.8-25.1c-0.7-3-0.9-6.4,2.8-7.1c2.8-0.6,6.3,1.1,8.8,2.1c4.8,1.8,10.7,4.6,15.7,2.1c4.9-2.4,5.3-7.9,4.1-12.6
			c-1.1-4.5-7.2-13.7-3.5-18c2.1-2.4-1.4-6-3.5-3.5c-3.2,3.6-2.8,8-1.5,12.4c1.2,4,6,11.6,3.7,15.7c-2.7,4.8-12.1-0.5-15.7-1.7
			c-4.1-1.4-9.2-2.7-13,0.2c-9.7,7.4,3.4,19,1.7,27.5c-1.3,6.5-10.9,1.6-14.6,0.2c-4.2-1.5-9.3-3.4-13.6-1
			c-10.4,5.9,0.6,18.9,0.8,26.8c0.2,7.5-8.7,3.8-12.6,2.3c-4.3-1.6-9.6-4-14.2-2.3c-11.3,4.1-2.4,18.1-0.9,25.3
			c1.8,8.2-5.5,6.9-10.8,5c-4.5-1.6-9.6-4.3-14.6-3.2c-14.4,3.2-1.5,20.3-1.7,28.1c-0.2,7.9-11.2,2.3-15.1,0.9
			c-5-1.8-10.5-3.3-14.9,0.6C570.9,219.2,574.4,222.7,576.8,220.6L576.8,220.6z"/>
	</g>
</g>
<polygon id="XMLID_7_" class="st6" points="717.4,92.7 727.3,57 701.7,83.9 714,80.5 "/>
<g id="XMLID_115_">
	<g id="XMLID_118_">
		<circle id="XMLID_957_" class="st0" cx="986.7" cy="207.5" r="27"/>
		<g id="XMLID_952_">
			<path id="XMLID_956_" class="st1" d="M1011.2,207.5c-0.3,13.4-10.9,24.5-24.5,24.5c-13.3,0-24.5-11.2-24.5-24.5
				c0-13.4,11.1-24.5,24.5-24.5C1000.3,183,1010.9,194.2,1011.2,207.5c0.1,3.2,5.1,3.2,5,0c-0.3-12.1-7.4-23.1-18.9-27.5
				c-11.6-4.5-25.2-1-33.2,8.6c-17.4,20.9,1.4,52.7,28,47.9c14-2.5,23.7-15,24.1-29C1016.3,204.3,1011.3,204.3,1011.2,207.5z"/>
		</g>
	</g>
	<g id="XMLID_117_">
		<g id="XMLID_924_">
			<path id="XMLID_939_" class="st2" d="M968.7,210c12,0,24,0,36,0c3.2,0,3.2-5,0-5c-12,0-24,0-36,0C965.5,205,965.5,210,968.7,210
				L968.7,210z"/>
		</g>
	</g>
	<g id="XMLID_116_">
		<g id="XMLID_917_">
			<path id="XMLID_922_" class="st2" d="M989.2,225.5c0-12,0-24,0-36c0-3.2-5-3.2-5,0c0,12,0,24,0,36
				C984.2,228.7,989.2,228.7,989.2,225.5L989.2,225.5z"/>
		</g>
	</g>
</g>
<g id="XMLID_114_">
	<circle id="XMLID_915_" class="st3" cx="869.7" cy="81.5" r="27"/>
	<g id="XMLID_909_">
		<path id="XMLID_914_" class="st4" d="M894.2,81.5c-0.3,13.4-10.9,24.5-24.5,24.5c-13.3,0-24.5-11.2-24.5-24.5
			c0-13.4,11.1-24.5,24.5-24.5C883.3,57,893.9,68.2,894.2,81.5c0.1,3.2,5.1,3.2,5,0c-0.3-12.1-7.4-23.1-18.9-27.5
			c-11.6-4.5-25.2-1-33.2,8.6c-17.4,20.9,1.4,52.7,28,47.9c14-2.5,23.7-15,24.1-29C899.3,78.3,894.3,78.3,894.2,81.5z"/>
	</g>
</g>
<g id="XMLID_113_">
	<circle id="XMLID_907_" class="st3" cx="986.7" cy="99.5" r="27"/>
	<g id="XMLID_901_">
		<path id="XMLID_905_" class="st4" d="M1011.2,99.5c-0.3,13.4-10.9,24.5-24.5,24.5c-13.3,0-24.5-11.2-24.5-24.5
			c0-13.4,11.1-24.5,24.5-24.5C1000.3,75,1010.9,86.2,1011.2,99.5c0.1,3.2,5.1,3.2,5,0c-0.3-12.1-7.4-23.1-18.9-27.5
			c-11.6-4.5-25.2-1-33.2,8.6c-17.4,20.9,1.4,52.7,28,47.9c14-2.5,23.7-15,24.1-29C1016.3,96.3,1011.3,96.3,1011.2,99.5z"/>
	</g>
</g>
<g id="XMLID_112_">
	<circle id="XMLID_898_" class="st3" cx="842.7" cy="189.5" r="27"/>
	<g id="XMLID_893_">
		<path id="XMLID_897_" class="st4" d="M867.2,189.5c-0.3,13.4-10.9,24.5-24.5,24.5c-13.3,0-24.5-11.2-24.5-24.5
			c0-13.4,11.1-24.5,24.5-24.5C856.3,165,866.9,176.2,867.2,189.5c0.1,3.2,5.1,3.2,5,0c-0.3-12.1-7.4-23.1-18.9-27.5
			c-11.6-4.5-25.2-1-33.2,8.6c-17.4,20.9,1.4,52.7,28,47.9c14-2.5,23.7-15,24.1-29C872.3,186.3,867.3,186.3,867.2,189.5z"/>
	</g>
</g>
<g id="XMLID_108_">
	<g id="XMLID_111_">
		<circle id="XMLID_891_" class="st0" cx="950.7" cy="81.5" r="27"/>
		<g id="XMLID_886_">
			<path id="XMLID_890_" class="st1" d="M975.2,81.5c-0.3,13.4-10.9,24.5-24.5,24.5c-13.3,0-24.5-11.2-24.5-24.5
				c0-13.4,11.1-24.5,24.5-24.5C964.3,57,974.9,68.2,975.2,81.5c0.1,3.2,5.1,3.2,5,0c-0.3-12.1-7.4-23.1-18.9-27.5
				c-11.6-4.5-25.2-1-33.2,8.6c-17.4,20.9,1.4,52.7,28,47.9c14-2.5,23.7-15,24.1-29C980.3,78.3,975.3,78.3,975.2,81.5z"/>
		</g>
	</g>
	<g id="XMLID_110_">
		<g id="XMLID_510_">
			<path id="XMLID_884_" class="st2" d="M932.7,84c12,0,24,0,36,0c3.2,0,3.2-5,0-5c-12,0-24,0-36,0C929.5,79,929.5,84,932.7,84
				L932.7,84z"/>
		</g>
	</g>
	<g id="XMLID_109_">
		<g id="XMLID_504_">
			<path id="XMLID_508_" class="st2" d="M953.2,99.5c0-12,0-24,0-36c0-3.2-5-3.2-5,0c0,12,0,24,0,36
				C948.2,102.7,953.2,102.7,953.2,99.5L953.2,99.5z"/>
		</g>
	</g>
</g>
<g id="XMLID_101_">
	<circle id="XMLID_500_" class="st3" cx="995.7" cy="171.5" r="27"/>
	<g id="XMLID_494_">
		<path id="XMLID_499_" class="st4" d="M1020.2,171.5c-0.3,13.4-10.9,24.5-24.5,24.5c-13.3,0-24.5-11.2-24.5-24.5
			c0-13.4,11.1-24.5,24.5-24.5C1009.3,147,1019.9,158.2,1020.2,171.5c0.1,3.2,5.1,3.2,5,0c-0.3-12.1-7.4-23.1-18.9-27.5
			c-11.6-4.5-25.2-1-33.2,8.6c-17.4,20.9,1.4,52.7,28,47.9c14-2.5,23.7-15,24.1-29C1025.3,168.3,1020.3,168.3,1020.2,171.5z"/>
	</g>
</g>
<g id="XMLID_100_">
	<circle id="XMLID_492_" class="st3" cx="905.7" cy="72.5" r="27"/>
	<g id="XMLID_486_">
		<path id="XMLID_490_" class="st4" d="M930.2,72.5C929.9,85.9,919.3,97,905.7,97c-13.3,0-24.5-11.2-24.5-24.5
			c0-13.4,11.1-24.5,24.5-24.5C919.3,48,929.9,59.2,930.2,72.5c0.1,3.2,5.1,3.2,5,0c-0.3-12.1-7.4-23.1-18.9-27.5
			c-11.6-4.5-25.2-1-33.2,8.6c-17.4,20.9,1.4,52.7,28,47.9c14-2.5,23.7-15,24.1-29C935.3,69.3,930.3,69.3,930.2,72.5z"/>
	</g>
</g>
<g id="XMLID_99_">
	<circle id="XMLID_483_" class="st3" cx="950.7" cy="234.5" r="27"/>
	<g id="XMLID_478_">
		<path id="XMLID_482_" class="st4" d="M975.2,234.5c-0.3,13.4-10.9,24.5-24.5,24.5c-13.3,0-24.5-11.2-24.5-24.5
			c0-13.4,11.1-24.5,24.5-24.5C964.3,210,974.9,221.2,975.2,234.5c0.1,3.2,5.1,3.2,5,0c-0.3-12.1-7.4-23.1-18.9-27.5
			c-11.6-4.5-25.2-1-33.2,8.6c-17.4,20.9,1.4,52.7,28,47.9c14-2.5,23.7-15,24.1-29C980.3,231.3,975.3,231.3,975.2,234.5z"/>
	</g>
</g>
<g id="XMLID_98_">
	<circle id="XMLID_476_" class="st3" cx="896.7" cy="243.5" r="27"/>
	<g id="XMLID_471_">
		<path id="XMLID_475_" class="st4" d="M921.2,243.5c-0.3,13.4-10.9,24.5-24.5,24.5c-13.3,0-24.5-11.2-24.5-24.5
			c0-13.4,11.1-24.5,24.5-24.5C910.3,219,920.9,230.2,921.2,243.5c0.1,3.2,5.1,3.2,5,0c-0.3-12.1-7.4-23.1-18.9-27.5
			c-11.6-4.5-25.2-1-33.2,8.6c-17.4,20.9,1.4,52.7,28,47.9c14-2.5,23.7-15,24.1-29C926.3,240.3,921.3,240.3,921.2,243.5z"/>
	</g>
</g>
<g id="XMLID_97_">
	<circle id="XMLID_469_" class="st3" cx="842.7" cy="117.5" r="27"/>
	<g id="XMLID_464_">
		<path id="XMLID_468_" class="st4" d="M867.2,117.5c-0.3,13.4-10.9,24.5-24.5,24.5c-13.3,0-24.5-11.2-24.5-24.5
			c0-13.4,11.1-24.5,24.5-24.5C856.3,93,866.9,104.2,867.2,117.5c0.1,3.2,5.1,3.2,5,0c-0.3-12.1-7.4-23.1-18.9-27.5
			c-11.6-4.5-25.2-1-33.2,8.6c-17.4,20.9,1.4,52.7,28,47.9c14-2.5,23.7-15,24.1-29C872.3,114.3,867.3,114.3,867.2,117.5z"/>
	</g>
</g>
<g id="XMLID_93_">
	<g id="XMLID_96_">
		<circle id="XMLID_462_" class="st0" cx="986.7" cy="144.5" r="27"/>
		<g id="XMLID_457_">
			<path id="XMLID_461_" class="st1" d="M1011.2,144.5c-0.3,13.4-10.9,24.5-24.5,24.5c-13.3,0-24.5-11.2-24.5-24.5
				c0-13.4,11.1-24.5,24.5-24.5C1000.3,120,1010.9,131.2,1011.2,144.5c0.1,3.2,5.1,3.2,5,0c-0.3-12.1-7.4-23.1-18.9-27.5
				c-11.6-4.5-25.2-1-33.2,8.6c-17.4,20.9,1.4,52.7,28,47.9c14-2.5,23.7-15,24.1-29C1016.3,141.3,1011.3,141.3,1011.2,144.5z"/>
		</g>
	</g>
	<g id="XMLID_95_">
		<g id="XMLID_451_">
			<path id="XMLID_455_" class="st2" d="M968.7,147c12,0,24,0,36,0c3.2,0,3.2-5,0-5c-12,0-24,0-36,0C965.5,142,965.5,147,968.7,147
				L968.7,147z"/>
		</g>
	</g>
	<g id="XMLID_94_">
		<g id="XMLID_445_">
			<path id="XMLID_449_" class="st2" d="M989.2,162.5c0-12,0-24,0-36c0-3.2-5-3.2-5,0c0,12,0,24,0,36
				C984.2,165.7,989.2,165.7,989.2,162.5L989.2,162.5z"/>
		</g>
	</g>
</g>
<g id="XMLID_89_">
	<g id="XMLID_92_">
		<circle id="XMLID_443_" class="st0" cx="968.7" cy="162.5" r="27"/>
		<g id="XMLID_438_">
			<path id="XMLID_442_" class="st1" d="M993.2,162.5c-0.3,13.4-10.9,24.5-24.5,24.5c-13.3,0-24.5-11.2-24.5-24.5
				c0-13.4,11.1-24.5,24.5-24.5C982.3,138,992.9,149.2,993.2,162.5c0.1,3.2,5.1,3.2,5,0c-0.3-12.1-7.4-23.1-18.9-27.5
				c-11.6-4.5-25.2-1-33.2,8.6c-17.4,20.9,1.4,52.7,28,47.9c14-2.5,23.7-15,24.1-29C998.3,159.3,993.3,159.3,993.2,162.5z"/>
		</g>
	</g>
	<g id="XMLID_91_">
		<g id="XMLID_430_">
			<path id="XMLID_436_" class="st2" d="M950.7,165c12,0,24,0,36,0c3.2,0,3.2-5,0-5c-12,0-24,0-36,0C947.5,160,947.5,165,950.7,165
				L950.7,165z"/>
		</g>
	</g>
	<g id="XMLID_90_">
		<g id="XMLID_424_">
			<path id="XMLID_428_" class="st2" d="M971.2,180.5c0-12,0-24,0-36c0-3.2-5-3.2-5,0c0,12,0,24,0,36
				C966.2,183.7,971.2,183.7,971.2,180.5L971.2,180.5z"/>
		</g>
	</g>
</g>
<g id="XMLID_85_">
	<g id="XMLID_88_">
		<circle id="XMLID_422_" class="st0" cx="914.7" cy="225.5" r="27"/>
		<g id="XMLID_416_">
			<path id="XMLID_420_" class="st1" d="M939.2,225.5c-0.3,13.4-10.9,24.5-24.5,24.5c-13.3,0-24.5-11.2-24.5-24.5
				c0-13.4,11.1-24.5,24.5-24.5C928.3,201,938.9,212.2,939.2,225.5c0.1,3.2,5.1,3.2,5,0c-0.3-12.1-7.4-23.1-18.9-27.5
				c-11.6-4.5-25.2-1-33.2,8.6c-17.4,20.9,1.4,52.7,28,47.9c14-2.5,23.7-15,24.1-29C944.3,222.3,939.3,222.3,939.2,225.5z"/>
		</g>
	</g>
	<g id="XMLID_87_">
		<g id="XMLID_407_">
			<path id="XMLID_413_" class="st2" d="M896.7,228c12,0,24,0,36,0c3.2,0,3.2-5,0-5c-12,0-24,0-36,0C893.5,223,893.5,228,896.7,228
				L896.7,228z"/>
		</g>
	</g>
	<g id="XMLID_86_">
		<g id="XMLID_401_">
			<path id="XMLID_405_" class="st2" d="M917.2,243.5c0-12,0-24,0-36c0-3.2-5-3.2-5,0c0,12,0,24,0,36
				C912.2,246.7,917.2,246.7,917.2,243.5L917.2,243.5z"/>
		</g>
	</g>
</g>
<g id="XMLID_81_">
	<g id="XMLID_84_">
		<circle id="XMLID_399_" class="st0" cx="878.7" cy="207.5" r="27"/>
		<g id="XMLID_393_">
			<path id="XMLID_397_" class="st1" d="M903.2,207.5c-0.3,13.4-10.9,24.5-24.5,24.5c-13.3,0-24.5-11.2-24.5-24.5
				c0-13.4,11.1-24.5,24.5-24.5C892.3,183,902.9,194.2,903.2,207.5c0.1,3.2,5.1,3.2,5,0c-0.3-12.1-7.4-23.1-18.9-27.5
				c-11.6-4.5-25.2-1-33.2,8.6c-17.4,20.9,1.4,52.7,28,47.9c14-2.5,23.7-15,24.1-29C908.3,204.3,903.3,204.3,903.2,207.5z"/>
		</g>
	</g>
	<g id="XMLID_83_">
		<g id="XMLID_384_">
			<path id="XMLID_390_" class="st2" d="M860.7,210c12,0,24,0,36,0c3.2,0,3.2-5,0-5c-12,0-24,0-36,0C857.5,205,857.5,210,860.7,210
				L860.7,210z"/>
		</g>
	</g>
	<g id="XMLID_82_">
		<g id="XMLID_378_">
			<path id="XMLID_382_" class="st2" d="M881.2,225.5c0-12,0-24,0-36c0-3.2-5-3.2-5,0c0,12,0,24,0,36
				C876.2,228.7,881.2,228.7,881.2,225.5L881.2,225.5z"/>
		</g>
	</g>
</g>
<g id="XMLID_76_">
	<g id="XMLID_79_">
		<circle id="XMLID_376_" class="st0" cx="833.7" cy="153.5" r="27"/>
		<g id="XMLID_370_">
			<path id="XMLID_374_" class="st1" d="M858.2,153.5c-0.3,13.4-10.9,24.5-24.5,24.5c-13.3,0-24.5-11.2-24.5-24.5
				c0-13.4,11.1-24.5,24.5-24.5C847.3,129,857.9,140.2,858.2,153.5c0.1,3.2,5.1,3.2,5,0c-0.3-12.1-7.4-23.1-18.9-27.5
				c-11.6-4.5-25.2-1-33.2,8.6c-17.4,20.9,1.4,52.7,28,47.9c14-2.5,23.7-15,24.1-29C863.3,150.3,858.3,150.3,858.2,153.5z"/>
		</g>
	</g>
	<g id="XMLID_78_">
		<g id="XMLID_361_">
			<path id="XMLID_367_" class="st2" d="M815.7,156c12,0,24,0,36,0c3.2,0,3.2-5,0-5c-12,0-24,0-36,0C812.5,151,812.5,156,815.7,156
				L815.7,156z"/>
		</g>
	</g>
	<g id="XMLID_77_">
		<g id="XMLID_355_">
			<path id="XMLID_359_" class="st2" d="M836.2,171.5c0-12,0-24,0-36c0-3.2-5-3.2-5,0c0,12,0,24,0,36
				C831.2,174.7,836.2,174.7,836.2,171.5L836.2,171.5z"/>
		</g>
	</g>
</g>
<g id="XMLID_72_">
	<g id="XMLID_75_">
		<circle id="XMLID_353_" class="st0" cx="869.7" cy="225.5" r="27"/>
		<g id="XMLID_347_">
			<path id="XMLID_351_" class="st1" d="M894.2,225.5c-0.3,13.4-10.9,24.5-24.5,24.5c-13.3,0-24.5-11.2-24.5-24.5
				c0-13.4,11.1-24.5,24.5-24.5C883.3,201,893.9,212.2,894.2,225.5c0.1,3.2,5.1,3.2,5,0c-0.3-12.1-7.4-23.1-18.9-27.5
				c-11.6-4.5-25.2-1-33.2,8.6c-17.4,20.9,1.4,52.7,28,47.9c14-2.5,23.7-15,24.1-29C899.3,222.3,894.3,222.3,894.2,225.5z"/>
		</g>
	</g>
	<g id="XMLID_74_">
		<g id="XMLID_338_">
			<path id="XMLID_344_" class="st2" d="M851.7,228c12,0,24,0,36,0c3.2,0,3.2-5,0-5c-12,0-24,0-36,0C848.5,223,848.5,228,851.7,228
				L851.7,228z"/>
		</g>
	</g>
	<g id="XMLID_73_">
		<g id="XMLID_331_">
			<path id="XMLID_336_" class="st2" d="M872.2,243.5c0-12,0-24,0-36c0-3.2-5-3.2-5,0c0,12,0,24,0,36
				C867.2,246.7,872.2,246.7,872.2,243.5L872.2,243.5z"/>
		</g>
	</g>
</g>
<g id="XMLID_68_">
	<g id="XMLID_71_">
		<circle id="XMLID_329_" class="st0" cx="869.7" cy="99.5" r="27"/>
		<g id="XMLID_323_">
			<path id="XMLID_327_" class="st1" d="M894.2,99.5c-0.3,13.4-10.9,24.5-24.5,24.5c-13.3,0-24.5-11.2-24.5-24.5
				c0-13.4,11.1-24.5,24.5-24.5C883.3,75,893.9,86.2,894.2,99.5c0.1,3.2,5.1,3.2,5,0c-0.3-12.1-7.4-23.1-18.9-27.5
				c-11.6-4.5-25.2-1-33.2,8.6c-17.4,20.9,1.4,52.7,28,47.9c14-2.5,23.7-15,24.1-29C899.3,96.3,894.3,96.3,894.2,99.5z"/>
		</g>
	</g>
	<g id="XMLID_70_">
		<g id="XMLID_316_">
			<path id="XMLID_320_" class="st2" d="M851.7,102c12,0,24,0,36,0c3.2,0,3.2-5,0-5c-12,0-24,0-36,0C848.5,97,848.5,102,851.7,102
				L851.7,102z"/>
		</g>
	</g>
	<g id="XMLID_69_">
		<g id="XMLID_309_">
			<path id="XMLID_313_" class="st2" d="M872.2,117.5c0-12,0-24,0-36c0-3.2-5-3.2-5,0c0,12,0,24,0,36
				C867.2,120.7,872.2,120.7,872.2,117.5L872.2,117.5z"/>
		</g>
	</g>
</g>
<g id="XMLID_67_">
	<circle id="XMLID_306_" class="st3" cx="923.7" cy="90.5" r="27"/>
	<g id="XMLID_301_">
		<path id="XMLID_305_" class="st4" d="M948.2,90.5c-0.3,13.4-10.9,24.5-24.5,24.5c-13.3,0-24.5-11.2-24.5-24.5
			c0-13.4,11.1-24.5,24.5-24.5C937.3,66,947.9,77.2,948.2,90.5c0.1,3.2,5.1,3.2,5,0c-0.3-12.1-7.4-23.1-18.9-27.5
			c-11.6-4.5-25.2-1-33.2,8.6c-17.4,20.9,1.4,52.7,28,47.9c14-2.5,23.7-15,24.1-29C953.3,87.3,948.3,87.3,948.2,90.5z"/>
	</g>
</g>
<g id="XMLID_66_">
	<circle id="XMLID_298_" class="st3" cx="959.7" cy="117.5" r="27"/>
	<g id="XMLID_292_">
		<path id="XMLID_296_" class="st4" d="M984.2,117.5c-0.3,13.4-10.9,24.5-24.5,24.5c-13.3,0-24.5-11.2-24.5-24.5
			c0-13.4,11.1-24.5,24.5-24.5C973.3,93,983.9,104.2,984.2,117.5c0.1,3.2,5.1,3.2,5,0c-0.3-12.1-7.4-23.1-18.9-27.5
			c-11.6-4.5-25.2-1-33.2,8.6c-17.4,20.9,1.4,52.7,28,47.9c14-2.5,23.7-15,24.1-29C989.3,114.3,984.3,114.3,984.2,117.5z"/>
	</g>
</g>
<g id="XMLID_65_">
	<circle id="XMLID_288_" class="st3" cx="959.7" cy="207.5" r="27"/>
	<g id="XMLID_283_">
		<path id="XMLID_287_" class="st4" d="M984.2,207.5c-0.3,13.4-10.9,24.5-24.5,24.5c-13.3,0-24.5-11.2-24.5-24.5
			c0-13.4,11.1-24.5,24.5-24.5C973.3,183,983.9,194.2,984.2,207.5c0.1,3.2,5.1,3.2,5,0c-0.3-12.1-7.4-23.1-18.9-27.5
			c-11.6-4.5-25.2-1-33.2,8.6c-17.4,20.9,1.4,52.7,28,47.9c14-2.5,23.7-15,24.1-29C989.3,204.3,984.3,204.3,984.2,207.5z"/>
	</g>
</g>
<g id="XMLID_64_">
	<circle id="XMLID_279_" class="st3" cx="905.7" cy="198.5" r="27"/>
	<g id="XMLID_273_">
		<path id="XMLID_278_" class="st4" d="M930.2,198.5c-0.3,13.4-10.9,24.5-24.5,24.5c-13.3,0-24.5-11.2-24.5-24.5
			c0-13.4,11.1-24.5,24.5-24.5C919.3,174,929.9,185.2,930.2,198.5c0.1,3.2,5.1,3.2,5,0c-0.3-12.1-7.4-23.1-18.9-27.5
			c-11.6-4.5-25.2-1-33.2,8.6c-17.4,20.9,1.4,52.7,28,47.9c14-2.5,23.7-15,24.1-29C935.3,195.3,930.3,195.3,930.2,198.5z"/>
	</g>
</g>
<g id="XMLID_63_">
	<circle id="XMLID_270_" class="st3" cx="869.7" cy="171.5" r="27"/>
	<g id="XMLID_265_">
		<path id="XMLID_269_" class="st4" d="M894.2,171.5c-0.3,13.4-10.9,24.5-24.5,24.5c-13.3,0-24.5-11.2-24.5-24.5
			c0-13.4,11.1-24.5,24.5-24.5C883.3,147,893.9,158.2,894.2,171.5c0.1,3.2,5.1,3.2,5,0c-0.3-12.1-7.4-23.1-18.9-27.5
			c-11.6-4.5-25.2-1-33.2,8.6c-17.4,20.9,1.4,52.7,28,47.9c14-2.5,23.7-15,24.1-29C899.3,168.3,894.3,168.3,894.2,171.5z"/>
	</g>
</g>
<g id="XMLID_62_">
	<circle id="XMLID_262_" class="st3" cx="878.7" cy="117.5" r="27"/>
	<g id="XMLID_257_">
		<path id="XMLID_261_" class="st4" d="M903.2,117.5c-0.3,13.4-10.9,24.5-24.5,24.5c-13.3,0-24.5-11.2-24.5-24.5
			c0-13.4,11.1-24.5,24.5-24.5C892.3,93,902.9,104.2,903.2,117.5c0.1,3.2,5.1,3.2,5,0c-0.3-12.1-7.4-23.1-18.9-27.5
			c-11.6-4.5-25.2-1-33.2,8.6c-17.4,20.9,1.4,52.7,28,47.9c14-2.5,23.7-15,24.1-29C908.3,114.3,903.3,114.3,903.2,117.5z"/>
	</g>
</g>
<g id="XMLID_38_">
	<g id="XMLID_61_">
		<circle id="XMLID_253_" class="st0" cx="941.7" cy="189.5" r="27"/>
		<g id="XMLID_247_">
			<path id="XMLID_252_" class="st1" d="M966.2,189.5c-0.3,13.4-10.9,24.5-24.5,24.5c-13.3,0-24.5-11.2-24.5-24.5
				c0-13.4,11.1-24.5,24.5-24.5C955.3,165,965.9,176.2,966.2,189.5c0.1,3.2,5.1,3.2,5,0c-0.3-12.1-7.4-23.1-18.9-27.5
				c-11.6-4.5-25.2-1-33.2,8.6c-17.4,20.9,1.4,52.7,28,47.9c14-2.5,23.7-15,24.1-29C971.3,186.3,966.3,186.3,966.2,189.5z"/>
		</g>
	</g>
	<g id="XMLID_60_">
		<g id="XMLID_240_">
			<path id="XMLID_245_" class="st2" d="M923.7,192c12,0,24,0,36,0c3.2,0,3.2-5,0-5c-12,0-24,0-36,0C920.5,187,920.5,192,923.7,192
				L923.7,192z"/>
		</g>
	</g>
	<g id="XMLID_39_">
		<g id="XMLID_233_">
			<path id="XMLID_237_" class="st2" d="M944.2,207.5c0-12,0-24,0-36c0-3.2-5-3.2-5,0c0,12,0,24,0,36
				C939.2,210.7,944.2,210.7,944.2,207.5L944.2,207.5z"/>
		</g>
	</g>
</g>
<g id="XMLID_33_">
	<g id="XMLID_37_">
		<circle id="XMLID_230_" class="st0" cx="869.7" cy="135.5" r="27"/>
		<g id="XMLID_224_">
			<path id="XMLID_229_" class="st1" d="M894.2,135.5c-0.3,13.4-10.9,24.5-24.5,24.5c-13.3,0-24.5-11.2-24.5-24.5
				c0-13.4,11.1-24.5,24.5-24.5C883.3,111,893.9,122.2,894.2,135.5c0.1,3.2,5.1,3.2,5,0c-0.3-12.1-7.4-23.1-18.9-27.5
				c-11.6-4.5-25.2-1-33.2,8.6c-17.4,20.9,1.4,52.7,28,47.9c14-2.5,23.7-15,24.1-29C899.3,132.3,894.3,132.3,894.2,135.5z"/>
		</g>
	</g>
	<g id="XMLID_36_">
		<g id="XMLID_218_">
			<path id="XMLID_222_" class="st2" d="M851.7,138c12,0,24,0,36,0c3.2,0,3.2-5,0-5c-12,0-24,0-36,0C848.5,133,848.5,138,851.7,138
				L851.7,138z"/>
		</g>
	</g>
	<g id="XMLID_34_">
		<g id="XMLID_212_">
			<path id="XMLID_216_" class="st2" d="M872.2,153.5c0-12,0-24,0-36c0-3.2-5-3.2-5,0c0,12,0,24,0,36
				C867.2,156.7,872.2,156.7,872.2,153.5L872.2,153.5z"/>
		</g>
	</g>
</g>
<g id="XMLID_29_">
	<g id="XMLID_32_">
		<circle id="XMLID_210_" class="st0" cx="914.7" cy="117.5" r="27"/>
		<g id="XMLID_205_">
			<path id="XMLID_209_" class="st1" d="M939.2,117.5c-0.3,13.4-10.9,24.5-24.5,24.5c-13.3,0-24.5-11.2-24.5-24.5
				c0-13.4,11.1-24.5,24.5-24.5C928.3,93,938.9,104.2,939.2,117.5c0.1,3.2,5.1,3.2,5,0c-0.3-12.1-7.4-23.1-18.9-27.5
				c-11.6-4.5-25.2-1-33.2,8.6c-17.4,20.9,1.4,52.7,28,47.9c14-2.5,23.7-15,24.1-29C944.3,114.3,939.3,114.3,939.2,117.5z"/>
		</g>
	</g>
	<g id="XMLID_31_">
		<g id="XMLID_199_">
			<path id="XMLID_203_" class="st2" d="M896.7,120c12,0,24,0,36,0c3.2,0,3.2-5,0-5c-12,0-24,0-36,0C893.5,115,893.5,120,896.7,120
				L896.7,120z"/>
		</g>
	</g>
	<g id="XMLID_30_">
		<g id="XMLID_193_">
			<path id="XMLID_197_" class="st2" d="M917.2,135.5c0-12,0-24,0-36c0-3.2-5-3.2-5,0c0,12,0,24,0,36
				C912.2,138.7,917.2,138.7,917.2,135.5L917.2,135.5z"/>
		</g>
	</g>
</g>
<g id="XMLID_24_">
	<circle id="XMLID_191_" class="st3" cx="887.7" cy="144.5" r="27"/>
	<g id="XMLID_186_">
		<path id="XMLID_190_" class="st4" d="M912.2,144.5c-0.3,13.4-10.9,24.5-24.5,24.5c-13.3,0-24.5-11.2-24.5-24.5
			c0-13.4,11.1-24.5,24.5-24.5C901.3,120,911.9,131.2,912.2,144.5c0.1,3.2,5.1,3.2,5,0c-0.3-12.1-7.4-23.1-18.9-27.5
			c-11.6-4.5-25.2-1-33.2,8.6c-17.4,20.9,1.4,52.7,28,47.9c14-2.5,23.7-15,24.1-29C917.3,141.3,912.3,141.3,912.2,144.5z"/>
	</g>
</g>
<g id="XMLID_20_">
	<g id="XMLID_23_">
		<circle id="XMLID_184_" class="st0" cx="914.7" cy="117.5" r="27"/>
		<g id="XMLID_179_">
			<path id="XMLID_183_" class="st1" d="M939.2,117.5c-0.3,13.4-10.9,24.5-24.5,24.5c-13.3,0-24.5-11.2-24.5-24.5
				c0-13.4,11.1-24.5,24.5-24.5C928.3,93,938.9,104.2,939.2,117.5c0.1,3.2,5.1,3.2,5,0c-0.3-12.1-7.4-23.1-18.9-27.5
				c-11.6-4.5-25.2-1-33.2,8.6c-17.4,20.9,1.4,52.7,28,47.9c14-2.5,23.7-15,24.1-29C944.3,114.3,939.3,114.3,939.2,117.5z"/>
		</g>
	</g>
	<g id="XMLID_22_">
		<g id="XMLID_173_">
			<path id="XMLID_177_" class="st2" d="M896.7,120c12,0,24,0,36,0c3.2,0,3.2-5,0-5c-12,0-24,0-36,0C893.5,115,893.5,120,896.7,120
				L896.7,120z"/>
		</g>
	</g>
	<g id="XMLID_21_">
		<g id="XMLID_163_">
			<path id="XMLID_171_" class="st2" d="M917.2,135.5c0-12,0-24,0-36c0-3.2-5-3.2-5,0c0,12,0,24,0,36
				C912.2,138.7,917.2,138.7,917.2,135.5L917.2,135.5z"/>
		</g>
	</g>
</g>
<g id="XMLID_12_">
	<g id="XMLID_19_">
		<circle id="XMLID_161_" class="st0" cx="905.7" cy="171.5" r="27"/>
		<g id="XMLID_155_">
			<path id="XMLID_160_" class="st1" d="M930.2,171.5c-0.3,13.4-10.9,24.5-24.5,24.5c-13.3,0-24.5-11.2-24.5-24.5
				c0-13.4,11.1-24.5,24.5-24.5C919.3,147,929.9,158.2,930.2,171.5c0.1,3.2,5.1,3.2,5,0c-0.3-12.1-7.4-23.1-18.9-27.5
				c-11.6-4.5-25.2-1-33.2,8.6c-17.4,20.9,1.4,52.7,28,47.9c14-2.5,23.7-15,24.1-29C935.3,168.3,930.3,168.3,930.2,171.5z"/>
		</g>
	</g>
	<g id="XMLID_14_">
		<g id="XMLID_149_">
			<path id="XMLID_153_" class="st2" d="M887.7,174c12,0,24,0,36,0c3.2,0,3.2-5,0-5c-12,0-24,0-36,0C884.5,169,884.5,174,887.7,174
				L887.7,174z"/>
		</g>
	</g>
	<g id="XMLID_13_">
		<g id="XMLID_130_">
			<path id="XMLID_134_" class="st2" d="M908.2,189.5c0-12,0-24,0-36c0-3.2-5-3.2-5,0c0,12,0,24,0,36
				C903.2,192.7,908.2,192.7,908.2,189.5L908.2,189.5z"/>
		</g>
	</g>
</g>
<g id="XMLID_9_">
	<circle id="XMLID_147_" class="st3" cx="932.7" cy="153.5" r="27"/>
	<g id="XMLID_142_">
		<path id="XMLID_146_" class="st4" d="M957.2,153.5c-0.3,13.4-10.9,24.5-24.5,24.5c-13.3,0-24.5-11.2-24.5-24.5
			c0-13.4,11.1-24.5,24.5-24.5C946.3,129,956.9,140.2,957.2,153.5c0.1,3.2,5.1,3.2,5,0c-0.3-12.1-7.4-23.1-18.9-27.5
			c-11.6-4.5-25.2-1-33.2,8.6c-17.4,20.9,1.4,52.7,28,47.9c14-2.5,23.7-15,24.1-29C962.3,150.3,957.3,150.3,957.2,153.5z"/>
	</g>
</g>
</svg>
