<?xml version="1.0" encoding="utf-8"?>
<!-- Generator: Adobe Illustrator 19.0.0, SVG Export Plug-In . SVG Version: 6.00 Build 0)  -->
<svg version="1.1" xmlns="http://www.w3.org/2000/svg" xmlns:xlink="http://www.w3.org/1999/xlink" x="0px" y="0px"
	 viewBox="0 0 720 720" style="enable-background:new 0 0 720 720;" xml:space="preserve">
<style type="text/css">
	.st0{fill:#D4E7EA;}
	.st1{fill:#82C3BB;}
	.st2{fill:#271E2A;}
	.st3{fill:#75BC64;}
	.st4{fill:#C1DACB;}
	.st5{fill:#00A9B1;}
	.st6{fill:#FAD466;}
	.st7{fill:#F8BA17;}
	.st8{fill:#C55857;}
	.st9{fill:#924241;}
	.st10{fill:#AB1F23;}
	.st11{fill:none;}
	.st12{font-family:'MyriadPro-Regular';}
	.st13{font-size:24px;}
</style>
<g id="Layer_2">
	<rect id="XMLID_8_" x="314.5" y="107" class="st0" width="9" height="445"/>
	<rect id="XMLID_14_" x="422.5" y="107" class="st1" width="9" height="445"/>
	<rect id="XMLID_15_" x="528.6" y="107" class="st2" width="32.3" height="445"/>
	<g id="XMLID_16_">
		<g id="XMLID_18_">
			<path id="XMLID_26_" class="st3" d="M225.5,332c21.2,0,42.5,0,63.7,0c33.7,0,67.4,0,101.1,0c7.8,0,15.7,0,23.5,0c3.2,0,3.2-5,0-5
				c-21.2,0-42.5,0-63.7,0c-33.7,0-67.4,0-101.1,0c-7.8,0-15.7,0-23.5,0C222.3,327,222.3,332,225.5,332L225.5,332z"/>
		</g>
	</g>
	<g id="XMLID_20_">
		<g id="XMLID_116_">
			<path id="XMLID_127_" class="st3" d="M225.5,181.1c27.7,0,55.4,0,83.1,0c3.2,0,3.2-5,0-5c-27.7,0-55.4,0-83.1,0
				C222.3,176.1,222.3,181.1,225.5,181.1L225.5,181.1z"/>
		</g>
	</g>
</g>
<g id="Layer_1">
	<g id="XMLID_197_">
		<circle id="XMLID_204_" class="st4" cx="196" cy="327.7" r="20.2"/>
		<g id="XMLID_199_">
			<path id="XMLID_203_" class="st5" d="M213.7,327.7c-0.3,9.6-7.8,17.7-17.7,17.7c-9.6-0.1-17.7-8-17.7-17.7
				c0-9.4,7.6-17.3,17-17.6C205.5,309.7,213.3,317.9,213.7,327.7c0.1,3.2,5.1,3.2,5,0c-0.4-12.3-10-22.7-22.7-22.7
				c-12.3,0-22.7,10.3-22.7,22.7c0,12.3,10.3,22.7,22.7,22.7c12.6,0,22.2-10.3,22.7-22.7C218.8,324.5,213.8,324.5,213.7,327.7z"/>
		</g>
	</g>
	<g id="XMLID_189_">
		<line id="XMLID_196_" class="st6" x1="182.6" y1="327.7" x2="209.5" y2="327.7"/>
		<g id="XMLID_191_">
			<path id="XMLID_195_" class="st5" d="M182.6,330.2c9,0,17.9,0,26.9,0c3.2,0,3.2-5,0-5c-9,0-17.9,0-26.9,0
				C179.4,325.2,179.4,330.2,182.6,330.2L182.6,330.2z"/>
		</g>
	</g>
	<g id="XMLID_181_">
		<circle id="XMLID_188_" class="st6" cx="179.2" cy="178.9" r="20.2"/>
		<g id="XMLID_183_">
			<path id="XMLID_187_" class="st7" d="M196.9,178.9c-0.3,9.6-7.8,17.7-17.7,17.7c-9.6-0.1-17.7-8-17.7-17.7
				c0-9.4,7.6-17.3,17-17.6C188.7,160.8,196.6,169,196.9,178.9c0.1,3.2,5.1,3.2,5,0c-0.4-12.3-10-22.7-22.7-22.7
				c-12.3,0-22.7,10.3-22.7,22.7c0,12.3,10.3,22.7,22.7,22.7c12.6,0,22.2-10.3,22.7-22.7C202,175.7,197,175.7,196.9,178.9z"/>
		</g>
	</g>
	<g id="XMLID_158_">
		<g id="XMLID_173_">
			<circle id="XMLID_180_" class="st8" cx="199.4" cy="158.7" r="20.2"/>
			<g id="XMLID_175_">
				<path id="XMLID_179_" class="st9" d="M217,158.7c-0.3,9.6-7.8,17.7-17.7,17.7c-9.6-0.1-17.7-8-17.7-17.7c0-9.4,7.6-17.3,17-17.6
					C208.8,140.7,216.7,148.9,217,158.7c0.1,3.2,5.1,3.2,5,0c-0.4-12.3-10-22.7-22.7-22.7c-12.3,0-22.7,10.3-22.7,22.7
					c0,12.3,10.3,22.7,22.7,22.7c12.6,0,22.2-10.3,22.7-22.7C222.1,155.5,217.1,155.5,217,158.7z"/>
			</g>
		</g>
		<g id="XMLID_166_">
			<g id="XMLID_168_">
				<path id="XMLID_172_" class="st10" d="M185.9,161.2c9,0,17.9,0,26.9,0c3.2,0,3.2-5,0-5c-9,0-17.9,0-26.9,0
					C182.7,156.2,182.7,161.2,185.9,161.2L185.9,161.2z"/>
			</g>
		</g>
		<g id="XMLID_159_">
			<g id="XMLID_161_">
				<path id="XMLID_165_" class="st10" d="M201.9,172.2c0-9,0-17.9,0-26.9c0-3.2-5-3.2-5,0c0,9,0,17.9,0,26.9
					C196.9,175.4,201.9,175.4,201.9,172.2L201.9,172.2z"/>
			</g>
		</g>
	</g>
	<g id="XMLID_150_">
		<circle id="XMLID_157_" class="st6" cx="212.8" cy="185.6" r="20.2"/>
		<g id="XMLID_152_">
			<path id="XMLID_156_" class="st7" d="M230.5,185.6c-0.3,9.6-7.8,17.7-17.7,17.7c-9.6-0.1-17.7-8-17.7-17.7
				c0-9.4,7.6-17.3,17-17.6C222.2,167.6,230.1,175.7,230.5,185.6c0.1,3.2,5.1,3.2,5,0c-0.4-12.3-10-22.7-22.7-22.7
				c-12.3,0-22.7,10.3-22.7,22.7c0,12.3,10.3,22.7,22.7,22.7c12.6,0,22.2-10.3,22.7-22.7C235.6,182.4,230.6,182.4,230.5,185.6z"/>
		</g>
	</g>
	<g id="XMLID_110_">
		<g id="XMLID_142_">
			<circle id="XMLID_149_" class="st8" cx="192.7" cy="199" r="20.2"/>
			<g id="XMLID_144_">
				<path id="XMLID_148_" class="st9" d="M210.3,199c-0.3,9.6-7.8,17.7-17.7,17.7c-9.6-0.1-17.7-8-17.7-17.7c0-9.4,7.6-17.3,17-17.6
					C202.1,181,210,189.2,210.3,199c0.1,3.2,5.1,3.2,5,0c-0.4-12.3-10-22.7-22.7-22.7c-12.3,0-22.7,10.3-22.7,22.7
					c0,12.3,10.3,22.7,22.7,22.7c12.6,0,22.2-10.3,22.7-22.7C215.4,195.8,210.4,195.8,210.3,199z"/>
			</g>
		</g>
		<g id="XMLID_135_">
			<g id="XMLID_137_">
				<path id="XMLID_141_" class="st10" d="M179.2,201.5c9,0,17.9,0,26.9,0c3.2,0,3.2-5,0-5c-9,0-17.9,0-26.9,0
					C176,196.5,176,201.5,179.2,201.5L179.2,201.5z"/>
			</g>
		</g>
		<g id="XMLID_128_">
			<g id="XMLID_130_">
				<path id="XMLID_134_" class="st10" d="M195.2,212.5c0-9,0-17.9,0-26.9c0-3.2-5-3.2-5,0c0,9,0,17.9,0,26.9
					C190.2,215.7,195.2,215.7,195.2,212.5L195.2,212.5z"/>
			</g>
		</g>
	</g>
	<g id="XMLID_24_">
		<g id="XMLID_29_">
			<path id="XMLID_109_" class="st3" d="M181,449.7c8.3,0.3,12.3,6.6,17,12.4c4.1,5,9,8.8,15.7,9.2c7.2,0.4,12.9-3.1,17.5-8.4
				c4.3-5,7.9-11.6,14.9-12.9c15.7-2.9,19.3,19.1,33.7,21.1c7,1,13.2-1.7,18-6.8c4.4-4.7,7.8-11.5,14.2-13.8
				c15.9-5.6,20.5,16.7,33.6,20.2c6.6,1.8,13.4-0.2,18.4-4.7c4.9-4.5,7.9-11.2,13.8-14.6c15.8-8.8,22,13.9,33.8,18.6
				c6.2,2.5,13.4,1.3,18.7-2.7c5.4-4.2,8.3-10.8,13.8-14.8c7.9-5.8,16.3-1.6,21.8,5c4.7,5.6,8.9,11.9,16.5,13.4
				c7.5,1.5,14.3-1.5,19.4-7c5.5-6.1,9.4-13.9,18.6-14.2c3.2-0.1,3.2-5.1,0-5c-7.2,0.2-12.4,3.8-16.9,9.2
				c-4.4,5.3-8.3,11.7-15.9,12.3c-8.4,0.7-12.9-5.8-17.6-11.6c-4-4.9-8.6-9.1-15.2-9.9c-7.2-0.8-13.3,2.3-18,7.6
				c-4.3,4.8-7.8,11.6-14.5,13.4c-15.9,4.2-19.8-17.9-33.6-20.7c-6.8-1.4-13.2,0.9-18.1,5.6c-4.7,4.6-7.8,11.5-14,14.3
				c-15.9,7.5-21.4-15.3-33.9-19.4c-6.3-2.1-13.2-0.7-18.3,3.5c-5.3,4.3-8.3,11.2-14.1,15c-15.7,10.2-22.5-12.8-34-17.9
				c-6.9-3-14.9-1.5-20.5,3.5c-5.6,4.9-8.9,13.2-16.3,15.8c-9.1,3.2-15.2-3.3-20.2-9.7c-4.9-6.2-10.1-10.9-18.4-11.1
				C177.8,444.6,177.8,449.6,181,449.7L181,449.7z"/>
		</g>
	</g>
	<polygon id="XMLID_22_" class="st3" points="514.7,458 547.2,439.6 509.9,440.5 521.1,446.8 	"/>
	<polygon id="XMLID_1_" class="st3" points="392.7,339 428.8,329.4 392.4,320.8 401.6,329.8 	"/>
	<polygon id="XMLID_2_" class="st3" points="282.5,186.7 319,179 283.1,168.6 291.8,178 	"/>
	<g id="XMLID_54_">
		<path id="XMLID_55_" d="M285.9,573.1c1-0.2,2.3-0.3,4-0.3c2.1,0,3.6,0.5,4.5,1.3c0.9,0.8,1.4,1.9,1.4,3.4c0,1.5-0.4,2.6-1.2,3.5
			c-1.1,1.2-2.9,1.8-4.9,1.8c-0.6,0-1.2,0-1.7-0.1v6.5h-2.1V573.1z M287.9,580.9c0.5,0.1,1,0.2,1.7,0.2c2.5,0,4.1-1.2,4.1-3.5
			c0-2.1-1.5-3.2-3.8-3.2c-0.9,0-1.6,0.1-2,0.2V580.9z"/>
		<path id="XMLID_58_" d="M299.2,584l-1.7,5.1h-2.2l5.5-16.2h2.5l5.5,16.2h-2.2L305,584H299.2z M304.5,582.3l-1.6-4.7
			c-0.4-1.1-0.6-2-0.8-3h0c-0.2,1-0.5,1.9-0.8,2.9l-1.6,4.7H304.5z"/>
		<path id="XMLID_61_" d="M311.3,573.1c1-0.2,2.3-0.3,4-0.3c2.1,0,3.6,0.5,4.5,1.3c0.9,0.8,1.4,1.9,1.4,3.4c0,1.5-0.4,2.6-1.2,3.5
			c-1.1,1.2-2.9,1.8-4.9,1.8c-0.6,0-1.2,0-1.7-0.1v6.5h-2.1V573.1z M313.4,580.9c0.5,0.1,1,0.2,1.7,0.2c2.5,0,4.1-1.2,4.1-3.5
			c0-2.1-1.5-3.2-3.8-3.2c-0.9,0-1.6,0.1-2,0.2V580.9z"/>
		<path id="XMLID_64_" d="M332.4,581.5h-6.3v5.8h7v1.8h-9.1v-16.2h8.7v1.8h-6.6v5.1h6.3V581.5z"/>
		<path id="XMLID_66_" d="M335.9,573.1c1.1-0.2,2.6-0.3,4-0.3c2.2,0,3.7,0.4,4.7,1.3c0.8,0.7,1.3,1.8,1.3,3.1c0,2.1-1.3,3.6-3,4.1
			v0.1c1.2,0.4,2,1.6,2.4,3.3c0.5,2.3,0.9,3.8,1.2,4.4h-2.2c-0.3-0.5-0.6-1.8-1.1-3.9c-0.5-2.2-1.3-3.1-3.2-3.1h-2v7h-2.1V573.1z
			 M338,580.4h2.1c2.2,0,3.6-1.2,3.6-3.1c0-2.1-1.5-3-3.7-3c-1,0-1.7,0.1-2.1,0.2V580.4z"/>
	</g>
	<g id="XMLID_36_">
		<path id="XMLID_37_" d="M375.1,584l-1.7,5.1h-2.2l5.5-16.2h2.5l5.5,16.2h-2.2l-1.7-5.1H375.1z M380.4,582.3l-1.6-4.7
			c-0.4-1.1-0.6-2-0.8-3h0c-0.2,1-0.5,1.9-0.8,2.9l-1.6,4.7H380.4z"/>
		<path id="XMLID_40_" d="M387.1,572.9h2.1v14.4h6.9v1.8h-9V572.9z"/>
		<path id="XMLID_42_" d="M399.7,572.9v9.6c0,3.6,1.6,5.2,3.8,5.2c2.4,0,3.9-1.6,3.9-5.2v-9.6h2.1v9.4c0,5-2.6,7-6.1,7
			c-3.3,0-5.8-1.9-5.8-6.9v-9.5H399.7z"/>
		<path id="XMLID_44_" d="M426.7,581.9c-0.1-2.3-0.3-5-0.2-7h-0.1c-0.6,1.9-1.2,3.9-2,6.1l-2.9,7.8H420l-2.6-7.7
			c-0.8-2.3-1.4-4.4-1.9-6.3h0c0,2-0.2,4.7-0.3,7.2l-0.4,6.9h-2l1.1-16.2h2.7l2.8,7.8c0.7,2,1.2,3.8,1.6,5.4h0.1
			c0.4-1.6,1-3.4,1.7-5.4l2.9-7.8h2.7l1,16.2h-2L426.7,581.9z"/>
		<path id="XMLID_46_" d="M434.5,572.9V589h-2.1v-16.2H434.5z"/>
		<path id="XMLID_48_" d="M438.1,589v-16.2h2.3l5.2,8.2c1.2,1.9,2.1,3.6,2.9,5.3l0,0c-0.2-2.2-0.2-4.1-0.2-6.6v-6.8h2V589h-2.1
			l-5.1-8.2c-1.1-1.8-2.2-3.6-3-5.4l-0.1,0c0.1,2,0.2,4,0.2,6.7v6.9H438.1z"/>
		<path id="XMLID_50_" d="M456,572.9v9.6c0,3.6,1.6,5.2,3.8,5.2c2.4,0,3.9-1.6,3.9-5.2v-9.6h2.1v9.4c0,5-2.6,7-6.1,7
			c-3.3,0-5.8-1.9-5.8-6.9v-9.5H456z"/>
		<path id="XMLID_52_" d="M483.1,581.9c-0.1-2.3-0.3-5-0.2-7h-0.1c-0.6,1.9-1.2,3.9-2,6.1l-2.9,7.8h-1.6l-2.6-7.7
			c-0.8-2.3-1.4-4.4-1.9-6.3h0c0,2-0.2,4.7-0.3,7.2L471,589h-2l1.1-16.2h2.7l2.8,7.8c0.7,2,1.2,3.8,1.6,5.4h0.1
			c0.4-1.6,1-3.4,1.7-5.4l2.9-7.8h2.7l1,16.2h-2L483.1,581.9z"/>
	</g>
	<g id="XMLID_11_">
		<path id="XMLID_12_" d="M522.2,572.9h2.1v14.4h6.9v1.8h-9V572.9z"/>
		<path id="XMLID_17_" d="M541.9,581.5h-6.3v5.8h7v1.8h-9.1v-16.2h8.7v1.8h-6.6v5.1h6.3V581.5z"/>
		<path id="XMLID_28_" d="M547.9,584l-1.7,5.1h-2.2l5.5-16.2h2.5l5.5,16.2h-2.2l-1.7-5.1H547.9z M553.2,582.3l-1.6-4.7
			c-0.4-1.1-0.6-2-0.8-3h0c-0.2,1-0.5,1.9-0.8,2.9l-1.6,4.7H553.2z"/>
		<path id="XMLID_33_" d="M560,573.1c1.3-0.2,2.8-0.3,4.4-0.3c3,0,5.1,0.7,6.6,2c1.4,1.3,2.3,3.2,2.3,5.8c0,2.6-0.8,4.8-2.3,6.3
			c-1.5,1.5-4,2.3-7.2,2.3c-1.5,0-2.7-0.1-3.8-0.2V573.1z M562.1,587.4c0.5,0.1,1.3,0.1,2.1,0.1c4.5,0,6.9-2.5,6.9-6.9
			c0-3.8-2.1-6.2-6.6-6.2c-1.1,0-1.9,0.1-2.4,0.2V587.4z"/>
	</g>
	<rect id="XMLID_3_" x="56" y="178.9" class="st11" width="89" height="67.2"/>
	<text id="XMLID_4_" transform="matrix(1 0 0 1 65.9404 195.9163)" class="st12 st13">ALPHA</text>
	<rect id="XMLID_6_" x="56" y="320.8" class="st11" width="89" height="67.2"/>
	<text id="XMLID_5_" transform="matrix(1 0 0 1 74.7842 337.8864)" class="st12 st13">BETA</text>
	<rect id="XMLID_10_" x="61" y="448.8" class="st11" width="89" height="67.2"/>
	<text id="XMLID_7_" transform="matrix(1 0 0 1 63.7646 465.8168)" class="st12 st13">GAMMA</text>
</g>
</svg>
