<?xml version="1.0" encoding="utf-8"?>
<!-- Generator: Adobe Illustrator 19.1.0, SVG Export Plug-In . SVG Version: 6.00 Build 0)  -->
<svg version="1.1" id="Layer_1" xmlns="http://www.w3.org/2000/svg" xmlns:xlink="http://www.w3.org/1999/xlink" x="0px" y="0px"
	 viewBox="0 0 590.7 355.1" style="enable-background:new 0 0 590.7 355.1;" xml:space="preserve">
<style type="text/css">
	
		.st0{fill:url(#SVGID_1_);stroke:url(#SVGID_2_);stroke-width:0.25;stroke-linecap:round;stroke-linejoin:round;stroke-miterlimit:10;}
	.st1{fill:url(#SVGID_3_);}
	.st2{fill:url(#SVGID_4_);}
	.st3{fill:url(#SVGID_5_);}
</style>
<g>
	
		<linearGradient id="SVGID_1_" gradientUnits="userSpaceOnUse" x1="81.2333" y1="433.8414" x2="417.3404" y2="433.8414" gradientTransform="matrix(0.8614 0.6288 0.5329 -0.73 -246.9491 292.0507)">
		<stop  offset="0" style="stop-color:#FFF23A"/>
		<stop  offset="4.010540e-02" style="stop-color:#FEE62D"/>
		<stop  offset="0.1171" style="stop-color:#FED41A"/>
		<stop  offset="0.1964" style="stop-color:#FDC90F"/>
		<stop  offset="0.2809" style="stop-color:#FDC60B"/>
		<stop  offset="0.6685" style="stop-color:#F28F3F"/>
		<stop  offset="0.8876" style="stop-color:#ED693C"/>
		<stop  offset="1" style="stop-color:#E83E39"/>
	</linearGradient>
	
		<linearGradient id="SVGID_2_" gradientUnits="userSpaceOnUse" x1="168.4967" y1="488.7702" x2="329.9035" y2="378.3685" gradientTransform="matrix(0.8614 0.6288 0.5329 -0.73 -246.9491 292.0507)">
		<stop  offset="0" style="stop-color:#FFF23A"/>
		<stop  offset="4.010540e-02" style="stop-color:#FEE62D"/>
		<stop  offset="0.1171" style="stop-color:#FED41A"/>
		<stop  offset="0.1964" style="stop-color:#FDC90F"/>
		<stop  offset="0.2809" style="stop-color:#FDC60B"/>
		<stop  offset="0.6685" style="stop-color:#F28F3F"/>
		<stop  offset="0.8876" style="stop-color:#ED693C"/>
		<stop  offset="1" style="stop-color:#E83E39"/>
	</linearGradient>
	<path class="st0" d="M166.8,192.1c-13-10.1-18.7-32.5-22.6-58.8c-1.7-12-4.6-23.6-8.4-32.9c-6.5-16.1-16.5-14.9-24.8,0.5
		c-6.2,11.4-9.8,26.3-13.5,41c-2.1,8.2-4.2,16.7-6.9,24.2c-12.2,33.5-30.1,34.9-40.2,2.5c-3.3-10.4-5-22.8-7.6-34.3
		c-2.3-10.2-3.9-21.2-6.9-30.3c-6.5-19.5-18.2-20.7-27.1-2.4c-4.9,10.1-8.5,22.8-13.1,35.5c-0.4-0.1-1.9-0.5-3.3-0.9
		c0-1.7,0.1-3.6,0.1-5.3c0.7-2,1.3-3.7,1.9-5.8c5.3-21,12.5-38,23.5-46.1c3.3-0.1,6.6-0.3,10.1-0.3c11.6,10.2,16.7,30.8,20.1,55.1
		c1.7,12.1,4.5,23.8,8.2,33.5c7.7,20.7,20.5,19.4,28.9-3.2c4.4-11.8,7.2-26.2,11.3-38.8c3.7-11.6,7.4-23.6,12.3-32.8
		c11.2-20.7,25.4-18.3,32.9,5.3c3.5,10.6,5.7,23.4,7.8,35.9c2.7,15.7,5.6,30.8,12.1,40.8c7.2,10.9,15.7,10,22.4-4.8
		c4.4-9.4,7.8-21.1,10.8-32.8c4.4-17.7,8.5-35.3,16.1-48.2c11.8-19.8,25.6-17.5,33.3,6.6c3.1,9.3,4.8,20.6,7,31.1
		c2.3,10.8,4,22.4,6.9,32.1c8.4,27.6,23,26.3,32.9-2.5c2.8-8.1,4.5-17.5,6.9-26c3.5-12,6.4-24.8,10.6-35.2
		c12.7-31.2,29.9-30,39.2,2.5c3.1,10.6,4.2,23.8,6.9,34.9c2.7,11.3,5.4,22.8,9.3,32.1c6.5,15.5,16.9,15.3,24.4-0.9
		c5-10.9,8.8-24.4,13.4-37.7c0.5,0.4,1.9,1.3,3.2,2.4c0,1.2-0.1,2.4-0.1,3.6c-0.4,1.3-1.1,2.7-1.3,4.1
		c-4.9,22.4-11.8,40.5-23.2,49.5c-3.3,0.1-6.6,0.3-10.1,0.3c-12.2-10.5-17.9-32.3-21.6-57.5c-1.5-9.4-3.2-18.7-5.6-27
		c-7-23.4-19.1-25.1-29.1-3.5c-4.4,9.7-8.2,21.6-10.8,33.7c-5.3,25.2-12.1,46.7-24.8,57.2c-3.1,0.1-6.1,0.3-9.2,0.3
		c-8.5-6.2-14.5-18.5-18.2-35.3c-1.6-7-2.5-15-4-22.2c-2.3-10.8-4.1-22.3-7.4-31.5c-6.6-18.9-17.5-18.7-26.6-1.6
		c-6,11.2-9.8,25.1-12.7,39.8c-5,24.7-12.2,44.5-24.8,53.8C172.4,191.8,169.6,192,166.8,192.1z"/>

<animateTransform attributeName="transform" attributeType="XML" type="translate"
values="20,0;-20,0;20,0" dur="10s" repeatCount='indefinite' />

</g>
<radialGradient id="SVGID_3_" cx="430.6897" cy="82.1034" r="75.8621" gradientUnits="userSpaceOnUse">
	<stop  offset="2.562978e-02" style="stop-color:#FF0000"/>
	<stop  offset="0.8796" style="stop-color:#000000"/>
	<stop  offset="1" style="stop-color:#FFFFFF"/>
</radialGradient>

<circle class="st1" cx="430.7" cy="82.1" r="75.9">
 <animateTransform attributeName = "transform" attributeType="XML" type = "rotate"
    from = "360 435 82 "
    to = "0 435 82"
    dur = "2.0s" repeatCount="indefinite"/></circle>
<radialGradient id="SVGID_4_" cx="299.3103" cy="355.1035" r="75.8621" gradientTransform="matrix(5.2925 0 0 1 -1216.4274 0)" gradientUnits="userSpaceOnUse">
	<stop  offset="2.562978e-02" style="stop-color:#9E005D"/>
	<stop  offset="0.8796" style="stop-color:#000000"/>
	<stop  offset="1" style="stop-color:#FFFFFF"/>
</radialGradient>
<ellipse class="st2" cx="367.7" cy="355.1" rx="401.5" ry="75.9"/>
<radialGradient id="SVGID_5_" cx="449.6897" cy="200.1035" r="75.8621" gradientUnits="userSpaceOnUse">
	<stop  offset="2.562978e-02" style="stop-color:#0000FF"/>
	<stop  offset="0.8796" style="stop-color:#000000"/>
	<stop  offset="1" style="stop-color:#FFFFFF"/>
</radialGradient>
<circle class="st3" cx="449.7" cy="200.1" r="75.9">
<animateTransform attributeName = "transform" attributeType="XML" type = "rotate"
    from = "360 452 205"
    to =     "0 452 205"
    dur = "3.0s" repeatCount="indefinite"/></circle>


</svg>
