<?xml version="1.0" encoding="utf-8"?>
<!-- Generator: Adobe Illustrator 19.1.0, SVG Export Plug-In . SVG Version: 6.00 Build 0)  -->
<svg version="1.1" id="Layer_1" xmlns="http://www.w3.org/2000/svg" xmlns:xlink="http://www.w3.org/1999/xlink" x="0px" y="0px"
	 viewBox="0 0 1181.7 647.5" style="enable-background:new 0 0 1181.7 647.5;" xml:space="preserve">
<style type="text/css">
	.st0{fill:url(#SVGID_1_);}
	.st1{fill:#FFFFFF;}
	.st2{font-family:'DINPro-Cond';}
	.st3{font-size:14px;}
	.st4{fill:none;stroke:#FFFFFF;stroke-miterlimit:10;stroke-dasharray:4,4;}
	.st5{font-family:'DINPro-CondBold';}
	.st6{font-size:24px;}
	.st7{clip-path:url(#SVGID_3_);fill:none;stroke:#FFFFFF;stroke-miterlimit:10;}
	.st8{opacity:0.5;clip-path:url(#SVGID_3_);fill:none;stroke:#B8B8B8;}
	.st9{clip-path:url(#SVGID_3_);}
	.st10{opacity:0.5;fill:none;stroke:#B8B8B8;}
	.st11{opacity:0.25;}
	.st12{fill:none;stroke:#B8B8B8;}
	.st13{clip-path:url(#SVGID_5_);fill:none;stroke:#FFFFFF;stroke-miterlimit:10;}
	.st14{opacity:0.5;fill:none;stroke:#FFFFFF;stroke-miterlimit:10;}
	.st15{fill:none;stroke:#FFFFFF;stroke-miterlimit:10;}
	.st16{fill:#070707;}
</style>
<rect x="0" y="0" width="1203.8" height="647.5"/>
<linearGradient id="SVGID_1_" gradientUnits="userSpaceOnUse" x1="121.9848" y1="573.3102" x2="121.9848" y2="58.6696">
	<stop  offset="0" style="stop-color:#000000"/>
	<stop  offset="1" style="stop-color:#FFFFFF"/>
</linearGradient>
<rect x="113.7" y="58.7" class="st0" width="16.5" height="514.6"/>
<g>
	<text transform="matrix(1 0 0 1 193.947 603.3796)" class="st1 st2 st3">1</text>
	<text transform="matrix(1 0 0 1 148.2151 573.2902)" class="st1 st2 st3">0.01</text>
	<text transform="matrix(1 0 0 1 155.3967 444.6289)" class="st1 st2 st3">0.1</text>
	<text transform="matrix(1 0 0 1 158.2952 187.3107)" class="st1 st2 st3">10</text>
	<text transform="matrix(1 0 0 1 151.1135 58.6495)" class="st1 st2 st3">100</text>
	<text transform="matrix(1 0 0 1 669.1443 603.3796)" class="st1 st2 st3">10</text>
	<text transform="matrix(1 0 0 1 1146.2908 603.3796)" class="st1 st2 st3">100</text>
	<line class="st4" x1="1092.6" y1="572.3" x2="1092.6" y2="309.8"/>
	<line class="st4" x1="1092.6" y1="309.8" x2="196.1" y2="309.8"/>
	<text transform="matrix(1 0 0 1 1080.2742 603.3802)" class="st1 st5 st6">75</text>
	<text transform="matrix(1 0 0 1 143.0679 309.3868)" class="st1 st5 st6">1.1</text>
	<g>
		<g>
			<g>
				<defs>
					<rect id="SVGID_2_" x="150.5" y="37" width="1014.1" height="544.8"/>
				</defs>
				<clipPath id="SVGID_3_">
					<use xlink:href="#SVGID_2_"  style="overflow:visible;"/>
				</clipPath>
				<line class="st7" x1="196.1" y1="59.4" x2="196.1" y2="572.4"/>
				<line class="st8" x1="1151.5" y1="59.4" x2="1151.5" y2="572.4"/>
				<line class="st8" x1="196.9" y1="59.1" x2="1150.7" y2="59.1"/>
				<g class="st9">
					<line class="st10" x1="196.9" y1="444.3" x2="1150.7" y2="444.3"/>
					<line class="st10" x1="196.9" y1="315.9" x2="1150.7" y2="315.9"/>
					<line class="st10" x1="196.9" y1="187.5" x2="1150.7" y2="187.5"/>
					<g class="st11">
						<line class="st12" x1="340.1" y1="58.7" x2="340.1" y2="572.3"/>
						<line class="st12" x1="424.1" y1="58.7" x2="424.1" y2="572.3"/>
						<line class="st12" x1="484.1" y1="58.7" x2="484.1" y2="572.3"/>
						<line class="st12" x1="530.6" y1="58.7" x2="530.6" y2="572.3"/>
						<line class="st12" x1="568.1" y1="58.7" x2="568.1" y2="572.3"/>
						<line class="st12" x1="599.6" y1="58.7" x2="599.6" y2="572.3"/>
						<line class="st12" x1="628.1" y1="58.7" x2="628.1" y2="572.3"/>
						<line class="st12" x1="652" y1="58.7" x2="652" y2="572.3"/>
						<line class="st12" x1="817" y1="58.7" x2="817" y2="572.3"/>
						<line class="st12" x1="901" y1="58.7" x2="901" y2="572.3"/>
						<line class="st12" x1="961" y1="58.7" x2="961" y2="572.3"/>
						<line class="st12" x1="1007.5" y1="58.7" x2="1007.5" y2="572.3"/>
						<line class="st12" x1="1045" y1="58.7" x2="1045" y2="572.3"/>
						<line class="st12" x1="1078" y1="58.7" x2="1078" y2="572.3"/>
						<line class="st12" x1="1105" y1="58.7" x2="1105" y2="572.3"/>
						<line class="st12" x1="1129" y1="58.7" x2="1129" y2="572.3"/>
						<g>
							<line class="st12" x1="196.9" y1="534.2" x2="1146.3" y2="534.2"/>
							<line class="st12" x1="196.9" y1="511.4" x2="1146.3" y2="511.4"/>
							<line class="st12" x1="196.9" y1="495.7" x2="1146.3" y2="495.7"/>
							<line class="st12" x1="196.9" y1="482.8" x2="1146.3" y2="482.8"/>
							<line class="st12" x1="196.9" y1="472.9" x2="1146.3" y2="472.9"/>
							<line class="st12" x1="196.9" y1="464.2" x2="1146.3" y2="464.2"/>
							<line class="st12" x1="196.9" y1="456.6" x2="1146.3" y2="456.6"/>
							<line class="st12" x1="196.9" y1="450.2" x2="1146.3" y2="450.2"/>
							<line class="st12" x1="196.9" y1="405.8" x2="1146.3" y2="405.8"/>
							<line class="st12" x1="196.9" y1="383" x2="1146.3" y2="383"/>
							<line class="st12" x1="196.9" y1="367.3" x2="1146.3" y2="367.3"/>
							<line class="st12" x1="196.9" y1="354.4" x2="1146.3" y2="354.4"/>
							<line class="st12" x1="196.9" y1="344.5" x2="1146.3" y2="344.5"/>
							<line class="st12" x1="196.9" y1="335.8" x2="1146.3" y2="335.8"/>
							<line class="st12" x1="196.9" y1="328.2" x2="1146.3" y2="328.2"/>
							<line class="st12" x1="196.9" y1="321.8" x2="1146.3" y2="321.8"/>
							<line class="st12" x1="196.9" y1="277.4" x2="1146.3" y2="277.4"/>
							<line class="st12" x1="196.9" y1="254.6" x2="1146.3" y2="254.6"/>
							<line class="st12" x1="196.9" y1="238.9" x2="1146.3" y2="238.9"/>
							<line class="st12" x1="196.9" y1="226" x2="1146.3" y2="226"/>
							<line class="st12" x1="196.9" y1="216.1" x2="1146.3" y2="216.1"/>
							<line class="st12" x1="196.9" y1="207.4" x2="1146.3" y2="207.4"/>
							<line class="st12" x1="196.9" y1="199.8" x2="1146.3" y2="199.8"/>
							<line class="st12" x1="196.9" y1="193.4" x2="1146.3" y2="193.4"/>
							<line class="st12" x1="196.9" y1="149" x2="1146.3" y2="149"/>
							<line class="st12" x1="196.9" y1="126.2" x2="1146.3" y2="126.2"/>
							<line class="st12" x1="196.9" y1="110.5" x2="1146.3" y2="110.5"/>
							<line class="st12" x1="196.9" y1="97.6" x2="1146.3" y2="97.6"/>
							<line class="st12" x1="196.9" y1="87.7" x2="1146.3" y2="87.7"/>
							<line class="st12" x1="196.9" y1="79" x2="1146.3" y2="79"/>
							<line class="st12" x1="196.9" y1="71.4" x2="1146.3" y2="71.4"/>
							<line class="st12" x1="196.9" y1="65" x2="1146.3" y2="65"/>
						</g>
					</g>
				</g>
				<line class="st8" x1="673" y1="59.4" x2="673" y2="572.4"/>
			</g>
			<g>
				<defs>
					<rect id="SVGID_4_" x="150.5" y="37" width="1014.1" height="544.8"/>
				</defs>
				<clipPath id="SVGID_5_">
					<use xlink:href="#SVGID_4_"  style="overflow:visible;"/>
				</clipPath>
				<line class="st13" x1="196.1" y1="572.7" x2="1151.5" y2="572.7"/>
			</g>
			<g>
				<defs>
					<rect id="SVGID_6_" x="150.5" y="37" width="1014.1" height="544.8"/>
				</defs>
				<clipPath id="SVGID_7_">
					<use xlink:href="#SVGID_6_"  style="overflow:visible;"/>
				</clipPath>
			</g>
			<path class="st14" d="M369.4,568.6c0,0,133.6-156.3,767.2-170.3"/>
			<path class="st15" d="M300.8,466.6c0,0,149.6-154.8,835.8-157.2"/>
			<path class="st14" d="M255.8,426.2c0,0,84.3-308.1,880.7-310.3"/>
		</g>
	</g>
</g>
<text transform="matrix(1 0 0 1 563.1736 637.1394)" class="st16 st2 st6">Photon Energy (MeV)</text>
<text transform="matrix(1 0 0 1 19.9744 230.3177)" class="st16 st2 st6">Cross-section</text>
<text transform="matrix(1 0 0 1 31.1687 259.1176)" class="st16 st2 st6">(atoms/m</text>
<text transform="matrix(0.583 0 0 0.583 128.4402 251.1254)" class="st16 st2 st6">2</text>
<text transform="matrix(1 0 0 1 135.6179 259.1176)" class="st16 st2 st6">)</text>
</svg>
