<?xml version="1.0" encoding="utf-8"?>
<!-- Generator: Adobe Illustrator 19.1.0, SVG Export Plug-In . SVG Version: 6.00 Build 0)  -->
<svg version="1.1" id="Layer_1" xmlns="http://www.w3.org/2000/svg" xmlns:xlink="http://www.w3.org/1999/xlink" x="0px" y="0px"
	 viewBox="0 0 286.5 229" style="enable-background:new 0 0 286.5 229;" xml:space="preserve">
<style type="text/css">
	.st0{fill:url(#SVGID_1_);stroke:#F2E7E7;stroke-width:0.25;stroke-linecap:round;stroke-linejoin:round;stroke-miterlimit:10;}
</style>
<linearGradient id="SVGID_1_" gradientUnits="userSpaceOnUse" x1="150.3764" y1="-34.2547" x2="403.2923" y2="-34.2547" gradientTransform="matrix(-1.0594 0.1223 -0.1036 -0.8979 438.422 49.483)">
	<stop  offset="4.077647e-02" style="stop-color:#E52500"/>
	<stop  offset="5.972427e-02" style="stop-color:#E62E0B"/>
	<stop  offset="0.1659" style="stop-color:#EC5F43"/>
	<stop  offset="0.2753" style="stop-color:#F18975"/>
	<stop  offset="0.3855" style="stop-color:#F5AEA0"/>
	<stop  offset="0.4967" style="stop-color:#F9CBC2"/>
	<stop  offset="0.6092" style="stop-color:#FCE2DD"/>
	<stop  offset="0.7234" style="stop-color:#FDF2F0"/>
	<stop  offset="0.8407" style="stop-color:#FFFCFB"/>
	<stop  offset="0.9655" style="stop-color:#FFFFFF"/>
</linearGradient>
<path class="st0" d="M135.8,64.4c12.3-1.1,26.9,8.4,42.6,21c7.1,5.7,14.7,10.7,21.5,14c11.8,5.6,16.7-0.2,13.5-13
	c-2.4-9.5-8-19.5-13.5-29.6c-3.1-5.6-6.2-11.4-8.5-16.9c-10.4-24.8-1.2-34.7,21-22c7.1,4,14.5,10.1,21.7,15.1
	c6.4,4.5,13,9.8,19.3,13.3c13.6,7.5,20.7,2.2,16.2-12.5c-2.5-8.1-7-17-10.9-26.3c0.3-0.2,1.3-0.7,2.3-1.2c0.9,1,1.7,2,2.6,3
	c0.6,1.4,1.2,2.8,1.9,4.2c7.7,14.4,12.5,27.4,10.6,37.5c-1.8,1.8-3.6,3.5-5.4,5.3c-11.6,0.2-24.9-8.5-39.2-20.2
	c-7.1-5.8-14.7-10.8-21.6-14.3c-14.8-7.6-21.2-0.3-14.4,16.5c3.6,8.8,9.4,18.2,13.6,27.2c3.8,8.3,8,16.9,9.9,24.4
	c4.4,17.1-4.7,23.1-21,13.9c-7.4-4.1-15.1-10-22.6-15.8c-9.5-7.3-18.8-14.2-27.5-16.4c-9.5-2.4-13.7,2.5-9.9,14.1
	c2.5,7.5,6.5,15.7,10.8,23.6c6.6,12,13.4,23.8,15.7,34.9c3.6,17-5.2,22.7-21.8,13.4c-6.4-3.6-13.2-9-19.8-13.6
	c-6.8-4.8-13.6-10.4-20.3-14.3c-18.7-11-26.1-2.9-16.9,18.2c2.6,5.9,6.4,12,9.5,18c4.2,8.3,9.2,17,12.1,24.9
	c8.9,23.8-1.2,31.9-22.9,18.7c-7.1-4.3-14.5-10.9-21.7-15.8c-7.2-4.9-14.6-9.9-21.5-13c-11.5-5.3-17.1,0.1-13,13
	c2.8,8.6,7.6,18,11.8,27.7c-0.4,0.1-1.7,0.2-3,0.4c-0.6-0.7-1.2-1.3-1.7-2c-0.4-1-0.8-2-1.4-3c-8.8-14.9-14.2-28.5-12.4-39.2
	c1.8-1.8,3.6-3.5,5.4-5.3c12.1-0.5,26.4,8.7,41.4,20.8c5.6,4.5,11.3,8.8,16.9,12c15.8,9.3,23.4,4.1,17.9-13
	c-2.5-7.6-6.5-16.2-11.2-24.2c-10-16.7-17.2-32-15.5-44.4c1.6-1.6,3.3-3.2,4.9-4.9c7.9-0.9,17.5,2.8,28.2,10.2
	c4.5,3.1,9,7,13.5,10.2c6.7,4.8,13.7,10.2,20.2,13.6c13.3,7,19.3,1.4,15.5-12.7c-2.4-9.2-7.4-18.9-13.3-28.6
	c-9.8-16.2-16-30.9-13.8-42.4C132.8,67.4,134.3,65.9,135.8,64.4z"/>
</svg>
