<?xml version="1.0" encoding="utf-8"?>
<!-- Generator: Adobe Illustrator 19.1.0, SVG Export Plug-In . SVG Version: 6.00 Build 0)  -->
<svg version="1.1" id="Layer_1" xmlns="http://www.w3.org/2000/svg" xmlns:xlink="http://www.w3.org/1999/xlink" x="0px" y="0px"
	 viewBox="0 0 288 286" style="enable-background:new 0 0 288 286;" xml:space="preserve">
<style type="text/css">
	.st0{fill:url(#SVGID_1_);}
	.st1{opacity:0.3;}
	.st2{fill:#231F20;}
	.st3{fill:#FAAF40;stroke:#F6921E;stroke-width:0.5;stroke-miterlimit:10;}
	.st4{fill:#BBBDBF;stroke:#D0D2D3;stroke-width:0.5;stroke-miterlimit:10;}
</style>
<g>
	
		<radialGradient id="SVGID_1_" cx="101.8157" cy="103.5777" r="116.7361" gradientTransform="matrix(-3.879010e-03 1 -7.9999 -3.103208e-02 970.1551 44.0032)" gradientUnits="userSpaceOnUse">
		<stop  offset="0.1" style="stop-color:#1B75BB"/>
		<stop  offset="1" style="stop-color:#FFFFFF"/>
	</radialGradient>
	<circle class="st0" cx="141.1" cy="142.6" r="116.7"/>
	<g class="st1">
		<g>
			<path class="st2" d="M12.2,142.6c0,0,0,3,0.2,6.1c0.1,3,0.4,6,0.4,6l-0.5,0c0,0-0.3-3-0.4-6.1c-0.1-3-0.1-6.1-0.1-6.1L12.2,142.6
				z"/>
			<path class="st2" d="M14.5,166.7c0,0,0.6,3,1.3,5.9c0.7,2.9,1.6,5.8,1.6,5.8l-0.7,0.2c0,0-0.8-2.9-1.5-5.9c-0.7-3-1.2-6-1.2-6
				L14.5,166.7z"/>
			<path class="st2" d="M21.3,189.8c0,0,1.1,2.8,2.4,5.5c1.3,2.7,2.6,5.4,2.6,5.4l-1.2,0.6c0,0-1.3-2.7-2.5-5.5
				c-1.2-2.8-2.3-5.7-2.3-5.7L21.3,189.8z"/>
			<path class="st2" d="M32.4,211.3c0,0,1.6,2.5,3.4,5c1.7,2.5,3.6,4.8,3.6,4.8l-1.6,1.2c0,0-1.8-2.5-3.5-5
				c-1.7-2.5-3.3-5.2-3.3-5.2L32.4,211.3z"/>
			<path class="st2" d="M47.1,230.2c0,0,0.5,0.5,1.3,1.4c0.8,0.8,1.8,1.9,2.9,2.9c2.1,2.1,4.4,4.1,4.4,4.1l-1.8,2
				c0,0-2.2-2.1-4.4-4.3c-1.1-1.1-2.1-2.2-2.9-3.1c-0.8-0.9-1.3-1.4-1.3-1.4L47.1,230.2z"/>
			<path class="st2" d="M65.1,246.1c0,0,0.6,0.4,1.5,1.1c0.9,0.7,2.1,1.5,3.4,2.4c2.5,1.7,5,3.2,5,3.2l-1.7,2.8c0,0-2.6-1.6-5.1-3.4
				c-1.3-0.9-2.5-1.8-3.4-2.5c-0.9-0.7-1.5-1.2-1.5-1.2L65.1,246.1z"/>
			<path class="st2" d="M85.5,258.5c0,0,0.7,0.3,1.7,0.8c1,0.5,2.4,1.1,3.7,1.7c2.7,1.2,5.5,2.3,5.5,2.3l-1.3,3.3
				c0,0-2.9-1.1-5.7-2.4c-1.4-0.6-2.8-1.3-3.8-1.8c-1-0.5-1.7-0.8-1.7-0.8L85.5,258.5z"/>
			<path class="st2" d="M107.8,267.1c0,0,0.7,0.2,1.8,0.5c1.1,0.3,2.5,0.7,4,1c2.9,0.7,5.8,1.2,5.8,1.2l-0.7,3.5c0,0-3-0.5-6-1.3
				c-1.5-0.3-3-0.7-4.1-1c-1.1-0.3-1.8-0.5-1.8-0.5L107.8,267.1z"/>
			<path class="st2" d="M131.3,271.5c0,0,0.7,0.1,1.9,0.2c1.1,0.1,2.6,0.2,4.1,0.3c3,0.2,6,0.2,6,0.2l0,3.3c0,0-3.1,0-6.1-0.1
				c-1.5-0.1-3.1-0.2-4.2-0.2c-1.1-0.1-1.9-0.1-1.9-0.1L131.3,271.5z"/>
			<path class="st2" d="M155.2,271.7c0,0,0.7-0.1,1.9-0.2c1.1-0.1,2.6-0.3,4.1-0.5c3-0.4,5.9-0.9,5.9-0.9l0.5,2.8c0,0-3,0.6-6,1
				c-1.5,0.2-3,0.4-4.2,0.6c-1.1,0.1-1.9,0.2-1.9,0.2L155.2,271.7z"/>
			<path class="st2" d="M178.8,267.6c0,0,0.7-0.2,1.8-0.5c1.1-0.3,2.5-0.7,3.9-1.2c2.9-0.9,5.7-2,5.7-2l0.8,2.1c0,0-2.8,1.1-5.7,2.1
				c-1.4,0.5-2.9,1-4,1.3c-1.1,0.3-1.8,0.6-1.8,0.6L178.8,267.6z"/>
			<path class="st2" d="M201.3,259.2c0,0,0.7-0.3,1.7-0.8c1-0.5,2.3-1.2,3.7-1.9c2.6-1.4,5.2-3,5.2-3l0.9,1.5c0,0-2.6,1.6-5.2,3.2
				c-1.3,0.8-2.7,1.5-3.7,2c-1,0.5-1.7,0.9-1.7,0.9L201.3,259.2z"/>
			<path class="st2" d="M221.8,246.7c0,0,2.4-1.8,4.7-3.7c2.3-1.9,4.6-3.9,4.6-3.9l0.9,1c0,0-2.2,2.1-4.6,4c-2.3,2-4.7,3.8-4.7,3.8
				L221.8,246.7z"/>
			<path class="st2" d="M239.7,230.6c0,0,2-2.2,4-4.5c1.9-2.3,3.8-4.7,3.8-4.7l1,0.7c0,0-1.8,2.4-3.8,4.8c-1.9,2.4-4,4.6-4,4.6
				L239.7,230.6z"/>
			<path class="st2" d="M254.3,211.4c0,0,1.6-2.6,3-5.2c1.5-2.6,2.8-5.3,2.8-5.3l1.2,0.6c0,0-1.4,2.7-2.9,5.4
				c-1.5,2.7-3.1,5.2-3.1,5.2L254.3,211.4z"/>
			<path class="st2" d="M264.9,189.8c0,0,1.1-2.8,2-5.7c1-2.9,1.8-5.8,1.8-5.8l1.5,0.4c0,0-0.9,2.9-1.8,5.8c-1,2.9-2.1,5.7-2.1,5.7
				L264.9,189.8z"/>
			<path class="st2" d="M271.4,166.6c0,0,0.5-3,0.9-6c0.4-3,0.6-6,0.6-6l2,0.2c0,0-0.3,3-0.8,6.1c-0.4,3-1,6-1,6L271.4,166.6z"/>
			<path class="st2" d="M273.3,142.6c0,0,0-3-0.2-6c-0.2-3-0.5-6-0.5-6l2.4-0.2c0,0,0.3,3,0.4,6.1c0.1,3.1,0.1,6.1,0.1,6.1
				L273.3,142.6z"/>
			<path class="st2" d="M270.9,118.8c0,0-0.2-0.7-0.4-1.8c-0.2-1.1-0.6-2.6-0.9-4c-0.7-2.9-1.6-5.8-1.6-5.8l2.8-0.8c0,0,0.8,3,1.5,6
				c0.3,1.5,0.6,3,0.9,4.1c0.2,1.1,0.3,1.9,0.3,1.9L270.9,118.8z"/>
			<path class="st2" d="M264.2,95.8c0,0-0.3-0.7-0.7-1.7c-0.4-1-1-2.4-1.6-3.8c-1.2-2.7-2.6-5.4-2.6-5.4l3-1.5c0,0,1.4,2.8,2.6,5.6
				c0.6,1.4,1.2,2.8,1.6,3.9c0.4,1.1,0.7,1.8,0.7,1.8L264.2,95.8z"/>
			<path class="st2" d="M253.3,74.5c0,0-0.4-0.6-1-1.6c-0.6-0.9-1.4-2.2-2.3-3.4c-1.7-2.5-3.5-4.8-3.5-4.8l2.9-2.2
				c0,0,1.9,2.5,3.6,5c0.9,1.3,1.7,2.6,2.3,3.5c0.6,1,1,1.6,1,1.6L253.3,74.5z"/>
			<path class="st2" d="M238.9,55.5c0,0-0.5-0.5-1.3-1.4c-0.8-0.8-1.8-1.9-2.9-2.9c-2.1-2.1-4.3-4.1-4.3-4.1l2.6-2.8
				c0,0,2.3,2.1,4.4,4.3c1.1,1.1,2.1,2.2,2.9,3c0.8,0.8,1.3,1.4,1.3,1.4L238.9,55.5z"/>
			<path class="st2" d="M221.2,39.5c0,0-0.6-0.4-1.5-1.1c-0.9-0.7-2.1-1.5-3.4-2.4c-2.5-1.7-5-3.2-5-3.2l2.1-3.4
				c0,0,2.6,1.6,5.1,3.4c1.3,0.9,2.5,1.8,3.4,2.5c0.9,0.7,1.5,1.2,1.5,1.2L221.2,39.5z"/>
			<path class="st2" d="M200.9,27c0,0-0.7-0.3-1.7-0.8c-1-0.5-2.4-1.1-3.7-1.7c-2.7-1.2-5.5-2.3-5.5-2.3l1.5-3.9
				c0,0,2.9,1.1,5.7,2.4c1.4,0.6,2.8,1.3,3.8,1.8c1,0.5,1.7,0.9,1.7,0.9L200.9,27z"/>
			<path class="st2" d="M178.6,18.4c0,0-0.7-0.2-1.8-0.5c-1.1-0.3-2.5-0.7-4-1c-2.9-0.7-5.8-1.2-5.8-1.2l0.8-4.2c0,0,3,0.6,6,1.3
				c1.5,0.4,3,0.7,4.1,1c1.1,0.3,1.8,0.5,1.8,0.5L178.6,18.4z"/>
			<path class="st2" d="M155.2,14.1c0,0-0.7-0.1-1.9-0.2c-1.1-0.1-2.6-0.2-4.1-0.3c-3-0.1-6-0.1-6-0.1l0-4.3c0,0,3.1,0,6.2,0.1
				c1.5,0.1,3.1,0.2,4.2,0.3c1.1,0.1,1.9,0.2,1.9,0.2L155.2,14.1z"/>
			<path class="st2" d="M131.4,14c0,0-0.7,0.1-1.9,0.2c-1.1,0.1-2.6,0.3-4.1,0.5c-3,0.4-5.9,0.9-5.9,0.9l-0.7-4c0,0,3-0.6,6.1-1
				c1.5-0.2,3.1-0.4,4.2-0.5c1.1-0.1,1.9-0.2,1.9-0.2L131.4,14z"/>
			<path class="st2" d="M107.9,18.3c0,0-0.7,0.2-1.8,0.5c-1.1,0.3-2.5,0.8-3.9,1.2c-2.8,0.9-5.6,2-5.6,2l-1.4-3.6
				c0,0,2.9-1.1,5.8-2.1c1.5-0.5,2.9-1,4-1.3c1.1-0.3,1.8-0.5,1.8-0.5L107.9,18.3z"/>
			<path class="st2" d="M85.6,26.8c0,0-0.7,0.3-1.7,0.8c-1,0.5-2.3,1.2-3.6,1.9c-2.6,1.4-5.2,3-5.2,3l-1.8-3c0,0,2.6-1.7,5.3-3.2
				c1.3-0.8,2.7-1.5,3.7-2c1-0.5,1.7-0.9,1.7-0.9L85.6,26.8z"/>
			<path class="st2" d="M65.2,39.1c0,0-0.6,0.4-1.5,1.1c-0.9,0.7-2.1,1.6-3.2,2.5c-2.3,1.9-4.6,3.9-4.6,3.9l-1.9-2.1
				c0,0,2.2-2.1,4.6-4.1c1.2-1,2.3-2,3.2-2.7c0.9-0.7,1.5-1.2,1.5-1.2L65.2,39.1z"/>
			<path class="st2" d="M47.2,55c0,0-0.5,0.6-1.3,1.4c-0.8,0.8-1.8,2-2.7,3.1c-2,2.3-3.8,4.7-3.8,4.7l-1.6-1.2c0,0,1.8-2.5,3.7-4.8
				c1-1.2,1.9-2.4,2.7-3.2c0.8-0.9,1.3-1.4,1.3-1.4L47.2,55z"/>
			<path class="st2" d="M32.4,73.9c0,0-1.6,2.5-3.1,5.1c-1.5,2.6-2.9,5.3-2.9,5.3l-1.2-0.6c0,0,1.3-2.7,2.8-5.4c1.4-2.7,3-5.3,3-5.3
				L32.4,73.9z"/>
			<path class="st2" d="M21.3,95.3c0,0-1.2,2.8-2.1,5.7c-1,2.9-1.8,5.8-1.8,5.8l-0.7-0.2c0,0,0.8-2.9,1.8-5.8c0.9-2.9,2-5.7,2-5.7
				L21.3,95.3z"/>
			<path class="st2" d="M14.5,118.5c0,0-0.6,3-1,6c-0.4,3-0.7,6-0.7,6l-0.5,0c0,0,0.3-3,0.7-6c0.4-3,0.9-6,0.9-6L14.5,118.5z"/>
		</g>
	</g>
        <g>
	<circle class="st3" cx="133.1" cy="141.6" r="8.5"/>
	<circle class="st3" cx="144.6" cy="127.6" r="8.5"/>
	<circle class="st4" cx="153.1" cy="134.1" r="8.5"/>
	<circle class="st4" cx="136.1" cy="131.6" r="8.5"/>
	<circle class="st4" cx="151.7" cy="150" r="8.5"/>
	<circle class="st3" cx="137.8" cy="150" r="8.5"/>
	<circle class="st3" cx="153.1" cy="142.6" r="8.5"/>
	<circle class="st4" cx="144.6" cy="142.6" r="8.5"/>
        
        <animateTransform attributeName = "transform" attributeType="XML" type = "rotate"
    from = "360 141.1 142.6"
    to =     "0 141.1 142.6"
    dur = "8.0s" repeatCount="indefinite"/>
        </g>
</g>
</svg>
