<svg id="Layer_1" data-name="Layer 1" xmlns="http://www.w3.org/2000/svg" viewBox="0 0 886.5 882.4"><title>radioactivity</title><path d="M424.5,215A172.1,172.1,0,1,1,252.4,387.1,171.91,171.91,0,0,1,424.5,215Z" style="fill:#fff;opacity:0.30000001192092896;isolation:isolate"/><path d="M424.5,136.7A250.45,250.45,0,1,1,174.1,387.1,250.07,250.07,0,0,1,424.5,136.7h0Z" style="fill:#fff;opacity:0.30000001192092896;isolation:isolate"/><path d="M494.2,274.5A132.47,132.47,0,0,1,557,383.2H453.9a4,4,0,0,0-3.9,3.9,25.72,25.72,0,0,1-12.9,22.2c-1.8.9-2.4,3.3-1.5,5.4l51.7,89.2a132.88,132.88,0,0,1-125.5,0l51.4-89.2c1.2-2.1.6-4.5-1.5-5.4a26.09,26.09,0,0,1-12.6-22.2,4,4,0,0,0-3.9-3.9H292.3a131.46,131.46,0,0,1,62.5-108.7l51.7,89.2c0.9,1.8,3.3,2.4,5.4,1.5a23.85,23.85,0,0,1,25.2,0c2.1,0.9,4.5.3,5.4-1.5Z" style="fill:#fff;opacity:0.20000000298023224;isolation:isolate"/><path d="M424.7,388.4a10.5,10.5,0,1,1-10.5,10.5A10.5,10.5,0,0,1,424.7,388.4Zm0-23.5a10.5,10.5,0,1,1-10.5,10.5A10.5,10.5,0,0,1,424.7,364.9Z" style="fill:#fff;opacity:0.7599999904632568;isolation:isolate"/><path d="M423.5,387.1A10.5,10.5,0,1,1,413,376.6,10.5,10.5,0,0,1,423.5,387.1Zm23.4,0a10.5,10.5,0,1,1-10.5-10.5A10.5,10.5,0,0,1,446.9,387.1Z" style="fill:#fff;opacity:0.7599999904632568;isolation:isolate"/></svg>