<svg xmlns="http://www.w3.org/2000/svg" id="Layer_1" viewBox="0 0 886.5 882.4"><style>.st0{fill-rule:evenodd;clip-rule:evenodd;fill:#F44336;} .st1{opacity:0.5;clip-path:url(#SVGID_2_);} .st2{fill:none;stroke:#AF2C1E;stroke-width:3;stroke-linecap:round;stroke-miterlimit:10;} .st3{fill:#AF2C1E;} .st4{fill:none;stroke:#FFFFFF;stroke-width:6.9859;stroke-linecap:round;stroke-miterlimit:10;} .st5{fill:#FFFFFF;} .st6{opacity:0.5;clip-path:url(#SVGID_4_);} .st7{fill-rule:evenodd;clip-rule:evenodd;fill:#4CAF50;} .st8{fill-rule:evenodd;clip-rule:evenodd;fill:#E34026;stroke:#FFFFFF;stroke-width:8;stroke-miterlimit:10;} .st9{fill-rule:evenodd;clip-rule:evenodd;fill:#03A2A3;stroke:#FFFFFF;stroke-width:8;stroke-miterlimit:10;} .st10{fill-rule:evenodd;clip-rule:evenodd;fill:#D0D106;stroke:#FFFFFF;stroke-width:8;stroke-miterlimit:10;} .st11{fill-rule:evenodd;clip-rule:evenodd;fill:#D6015F;stroke:#FFFFFF;stroke-width:8;stroke-miterlimit:10;} .st12{fill-rule:evenodd;clip-rule:evenodd;fill:#60AD21;stroke:#FFFFFF;stroke-width:8;stroke-miterlimit:10;} .st13{fill-rule:evenodd;clip-rule:evenodd;fill:#009FC8;stroke:#FFFFFF;stroke-width:8;stroke-miterlimit:10;} .st14{fill-rule:evenodd;clip-rule:evenodd;fill:#FFFFFF;stroke:#CCCCCC;stroke-width:5;stroke-miterlimit:10;} .st15{fill-rule:evenodd;clip-rule:evenodd;fill:#FFFFFF;stroke:#009FC8;stroke-width:20;stroke-miterlimit:10;} .st16{fill-rule:evenodd;clip-rule:evenodd;fill:#009FC8;} .st17{opacity:0.3;fill:#FFFFFF;} .st18{opacity:0.2;fill:#FFFFFF;} .st19{fill-rule:evenodd;clip-rule:evenodd;fill:#093D8A;} .st20{fill-rule:evenodd;clip-rule:evenodd;fill:#03A2A3;} .st21{opacity:0.2;} .st22{fill:#03A2A3;} .st23{fill:none;} .st24{opacity:0.2;fill:#03A2A3;stroke:#FFFFFF;stroke-miterlimit:10;} .st25{opacity:0.5;fill:#FFFFFF;} .st26{fill-rule:evenodd;clip-rule:evenodd;fill:#D6015F;} .st27{fill:none;stroke:#FFFFFF;stroke-width:4;stroke-miterlimit:10;} .st28{fill:none;stroke:#FFFFFF;stroke-width:5;stroke-linecap:round;stroke-linejoin:round;stroke-miterlimit:10;} .st29{fill-rule:evenodd;clip-rule:evenodd;fill:#D0D106;} .st30{fill-rule:evenodd;clip-rule:evenodd;fill:none;} .st31{fill:#D0D106;} .st32{opacity:0.7;fill:#FFFFFF;} .st33{fill:none;stroke:#FFFFFF;stroke-width:4;stroke-linecap:round;stroke-miterlimit:10;} .st34{fill:none;stroke:#FFFFFF;stroke-width:4;stroke-linecap:round;stroke-miterlimit:10;stroke-dasharray:4.0574,8.1149;} .st35{fill:none;stroke:#FFFFFF;stroke-width:4;stroke-linecap:round;stroke-miterlimit:10;stroke-dasharray:3.9995,7.999;} .st36{opacity:0.5;} .st37{fill:#E1E15F;} .st38{fill-rule:evenodd;clip-rule:evenodd;fill:#E34026;} .st39{fill:none;stroke:#FFFFFF;stroke-width:4;stroke-linecap:round;stroke-miterlimit:10;stroke-dasharray:3.973,7.9461;} .st40{fill:none;stroke:#FFFFFF;stroke-width:4;stroke-linecap:round;stroke-miterlimit:10;stroke-dasharray:4.0208,8.0415;} .st41{fill-rule:evenodd;clip-rule:evenodd;fill:#60AD21;} .st42{opacity:0.5;fill:#60AD21;} .st43{opacity:0.2;fill:none;stroke:#FFFFFF;stroke-width:3;stroke-miterlimit:10;} .st44{fill:#60AD21;} .st45{fill-rule:evenodd;clip-rule:evenodd;fill:#CCCCCC;} .st46{fill-rule:evenodd;clip-rule:evenodd;fill:#FFFFFF;} .st47{fill:none;stroke:#FFFFFF;stroke-width:4;stroke-linecap:round;stroke-miterlimit:10;stroke-dasharray:4.0534,8.1069;} .st48{fill:none;stroke:#FFFFFF;stroke-width:4;stroke-linecap:round;stroke-miterlimit:10;stroke-dasharray:3.924,7.848;} .st49{fill:none;stroke:#FFFFFF;stroke-width:4;stroke-linecap:round;stroke-miterlimit:10;stroke-dasharray:3.9324,7.8649;} .st50{fill:none;stroke:#FFFFFF;stroke-width:4;stroke-linecap:round;stroke-miterlimit:10;stroke-dasharray:3.9814,7.9627;} .st51{opacity:0.3;fill:url(#SVGID_5_);} .st52{opacity:0.76;fill:#FFFFFF;} .st53{opacity:0.9;} .st54{clip-path:url(#SVGID_7_);} .st55{fill-rule:evenodd;clip-rule:evenodd;fill:#E91E63;} .st56{fill-rule:evenodd;clip-rule:evenodd;fill:#9C27B0;} .st57{fill-rule:evenodd;clip-rule:evenodd;fill:#673AB7;} .st58{fill-rule:evenodd;clip-rule:evenodd;fill:#3F51B5;} .st59{fill-rule:evenodd;clip-rule:evenodd;fill:#2196F3;} .st60{fill-rule:evenodd;clip-rule:evenodd;fill:#03A9F4;} .st61{fill-rule:evenodd;clip-rule:evenodd;fill:#00BCD4;} .st62{fill-rule:evenodd;clip-rule:evenodd;fill:#009688;} .st63{fill-rule:evenodd;clip-rule:evenodd;fill:#8BC34A;} .st64{fill-rule:evenodd;clip-rule:evenodd;fill:#CDDC39;} .st65{fill-rule:evenodd;clip-rule:evenodd;fill:#FFEB3B;} .st66{fill-rule:evenodd;clip-rule:evenodd;fill:#FFC107;} .st67{fill-rule:evenodd;clip-rule:evenodd;fill:#FF9800;} .st68{fill-rule:evenodd;clip-rule:evenodd;fill:#FF5722;} .st69{fill-rule:evenodd;clip-rule:evenodd;fill:#795548;} .st70{fill-rule:evenodd;clip-rule:evenodd;fill:#9E9E9E;} .st71{fill-rule:evenodd;clip-rule:evenodd;fill:#607D8B;} .st72{fill-rule:evenodd;clip-rule:evenodd;} .st73{opacity:0.5;clip-path:url(#SVGID_11_);} .st74{fill:none;stroke:#E34026;stroke-width:3;stroke-linecap:round;stroke-miterlimit:10;} .st75{fill:#E34026;} .st76{opacity:0.5;clip-path:url(#SVGID_13_);} .st77{fill:none;stroke:#F44336;stroke-width:4.1915;stroke-miterlimit:10;} .st78{fill:none;stroke:#F44336;stroke-width:1.3972;stroke-miterlimit:10;} .st79{fill:none;stroke:#FFFFFF;stroke-width:10;stroke-miterlimit:10;} .st80{fill:none;stroke:#FFFFFF;stroke-width:6;stroke-linejoin:round;stroke-miterlimit:10;} .st81{opacity:0.5;fill:#5A7A3B;} .st82{fill:#4CAF50;} .st83{fill:#FFFFFF;stroke:#000000;stroke-miterlimit:10;} .st84{fill:#FFFFFF;stroke:#FFC107;stroke-width:2;stroke-miterlimit:10;} .st85{fill:#FFC107;stroke:#FFC107;stroke-width:2;stroke-miterlimit:10;} .st86{fill:none;stroke:#FFFFFF;stroke-width:3;stroke-linecap:round;stroke-miterlimit:10;} .st87{fill:none;stroke:#D0D106;stroke-width:2;stroke-miterlimit:10;} .st88{fill:#FFC107;} .st89{fill:none;stroke:#FFFFFF;stroke-width:6.1;stroke-linecap:round;stroke-miterlimit:10;} .st90{fill:#D6015F;stroke:#E91E63;stroke-width:2;stroke-miterlimit:10;} .st91{fill:none;stroke:#E91E63;stroke-width:2;stroke-miterlimit:10;} .st92{fill:none;stroke:#FFFFFF;stroke-width:7.0187;stroke-miterlimit:10;} .st93{fill:none;stroke:#FFFFFF;stroke-width:5.4987;stroke-miterlimit:10;} .st94{fill:none;stroke:#FFFFFF;stroke-width:4.964;stroke-miterlimit:10;} .st95{fill:none;stroke:#FFFFFF;stroke-width:4.3989;stroke-miterlimit:10;} .st96{fill:none;stroke:#FFFFFF;stroke-width:4.1195;stroke-miterlimit:10;} .st97{fill-rule:evenodd;clip-rule:evenodd;fill:#AAAAAA;} .st98{fill:#3A3A3A;} .st99{fill-rule:evenodd;clip-rule:evenodd;fill:#EAA813;} .st100{fill-rule:evenodd;clip-rule:evenodd;fill:#3A3A3A;} .st101{fill-rule:evenodd;clip-rule:evenodd;fill:#515151;} .st102{fill:none;stroke:#929497;stroke-width:11.7929;stroke-miterlimit:10;} .st103{fill:#929497;} .st104{fill:none;stroke:#929497;stroke-width:10.8495;stroke-miterlimit:10;} .st105{fill:none;stroke:#929497;stroke-width:20;stroke-miterlimit:10;} .st106{fill:#224099;} .st107{fill:#F1F1F2;} .st108{fill:#FFFFFF;stroke:#929497;stroke-width:13.2081;stroke-miterlimit:10;} .st109{fill:none;stroke:#929497;stroke-width:36.5581;stroke-miterlimit:10;} .st110{opacity:0.2;fill:none;stroke:#FFFFFF;stroke-width:1.2623;stroke-miterlimit:10;} .st111{fill:none;stroke:#FFFFFF;stroke-width:8;stroke-miterlimit:10;} .st112{opacity:0.2;fill:none;stroke:#FFFFFF;stroke-width:3.4897;stroke-miterlimit:10;} .st113{fill:none;stroke:#FFFFFF;stroke-width:13;stroke-linejoin:round;stroke-miterlimit:10;} .st114{fill-rule:evenodd;clip-rule:evenodd;fill:none;stroke:#FFFFFF;stroke-width:13;stroke-linecap:round;stroke-linejoin:round;stroke-miterlimit:10;} .st115{fill-rule:evenodd;clip-rule:evenodd;fill:none;stroke:#FFFFFF;stroke-width:13;stroke-linejoin:round;stroke-miterlimit:10;} .st116{fill:#D6015F;} .st117{opacity:0.5;clip-path:url(#SVGID_15_);} .st118{opacity:0.5;clip-path:url(#SVGID_17_);} .st119{fill:#F44336;}</style><path d="M-.8-.7h886.3v882.6H-.8V-.7z" class="st61"/><path d="M218.4 752.8h3.3l.3 7.7h.3c1.4-2.6 3.1-4.7 5-6.3 2-1.6 4.2-2.4 6.7-2.4.8 0 1.5.1 2.2.2.6.1 1.3.3 2 .7l-.9 3.4c-.7-.3-1.3-.5-1.8-.6-.5-.1-1.2-.1-2-.1-1.8 0-3.8.8-5.8 2.4-2 1.6-3.9 4.3-5.5 8.2v28.2h-3.8v-41.4zm23 31c0-4.5 2.2-8 6.5-10.4 4.3-2.4 11.1-4.1 20.3-5.2.1-1.6 0-3.1-.3-4.7s-.7-3-1.5-4.2c-.7-1.2-1.7-2.2-3-3-1.3-.8-2.9-1.2-5-1.2-2.8 0-5.4.5-7.7 1.6s-4.1 2.2-5.5 3.2l-1.7-2.8c.7-.5 1.7-1.1 2.7-1.7 1.1-.6 2.2-1.2 3.5-1.7 1.3-.5 2.7-1 4.3-1.3 1.6-.4 3.2-.6 4.8-.6 2.5 0 4.5.4 6.2 1.2 1.7.8 3 2 4.1 3.4 1 1.4 1.8 3.1 2.2 5 .4 1.9.6 4 .6 6.2v26.5h-3.2l-.4-5.3h-.2c-2.1 1.7-4.4 3.1-6.9 4.4-2.4 1.3-5 1.9-7.8 1.9-1.7 0-3.2-.2-4.7-.7-1.4-.5-2.7-1.1-3.8-2.1-1.1-.9-2-2.1-2.6-3.5-.6-1.3-.9-3-.9-5zm3.9-.2c0 3 .9 5.1 2.6 6.4 1.7 1.3 3.8 1.9 6.1 1.9 2.4 0 4.7-.6 6.9-1.7s4.6-2.8 7.2-5v-14c-4.3.5-7.8 1.2-10.7 1.9-2.9.7-5.2 1.6-7 2.7-1.8 1-3.1 2.2-3.8 3.5-.9 1.3-1.3 2.7-1.3 4.3zm38-10c0-3.3.5-6.3 1.5-9.1 1-2.7 2.3-5 4-6.9 1.7-1.9 3.6-3.3 5.9-4.4 2.2-1 4.6-1.5 7-1.5 2.5 0 4.7.4 6.6 1.3 1.9.9 3.8 2.1 5.9 3.7l-.2-7.6V732h3.8v62h-3.3l-.3-5.3h-.3c-1.7 1.7-3.6 3.1-5.9 4.4-2.3 1.3-4.8 1.9-7.5 1.9-5.2 0-9.4-1.9-12.5-5.6-3.2-3.5-4.7-8.8-4.7-15.8zm4 0c0 2.8.3 5.3.9 7.5.6 2.2 1.5 4.2 2.6 5.7 1.1 1.6 2.6 2.8 4.3 3.7 1.7.9 3.6 1.3 5.8 1.3 2.3 0 4.5-.6 6.6-1.8 2.1-1.2 4.2-2.9 6.4-5v-24.6c-2.2-2-4.2-3.3-6.2-4.1-1.9-.8-3.9-1.2-5.9-1.2-2.1 0-4 .5-5.8 1.4-1.8.9-3.3 2.2-4.6 3.9s-2.3 3.6-3.1 5.9c-.6 2.2-1 4.7-1 7.3zm48.3-30.8c-1 0-1.8-.3-2.5-.9-.7-.6-1-1.4-1-2.4 0-1.1.3-1.9 1-2.5.7-.6 1.5-.9 2.5-.9s1.8.3 2.5.9c.7.6 1 1.5 1 2.5s-.3 1.8-1 2.4c-.7.6-1.5.9-2.5.9zm-2 10h3.8v41.4h-3.8v-41.4zm16.3 20.8c0-3.4.5-6.5 1.5-9.3 1-2.7 2.4-5 4.1-6.9 1.7-1.8 3.7-3.2 5.9-4.2s4.6-1.5 7.1-1.5 4.8.5 7.1 1.5 4.3 2.4 5.9 4.2c1.7 1.8 3 4.1 4.1 6.9 1 2.7 1.5 5.8 1.5 9.3 0 3.4-.5 6.5-1.5 9.2-1 2.7-2.4 4.9-4.1 6.8-1.7 1.8-3.7 3.2-5.9 4.2-2.3 1-4.6 1.5-7.1 1.5s-4.8-.5-7.1-1.5c-2.2-1-4.2-2.4-5.9-4.2-1.7-1.8-3-4.1-4.1-6.8-1-2.7-1.5-5.8-1.5-9.2zm3.9 0c0 2.7.4 5.2 1.1 7.4.7 2.2 1.8 4.2 3.1 5.8 1.3 1.6 2.8 2.9 4.6 3.7 1.8.9 3.7 1.3 5.8 1.3s4-.4 5.8-1.3c1.8-.9 3.4-2.1 4.7-3.7 1.3-1.6 2.3-3.5 3.1-5.8.7-2.2 1.1-4.7 1.1-7.4 0-2.8-.4-5.3-1.1-7.5-.7-2.2-1.8-4.2-3.1-5.8s-2.8-2.9-4.7-3.8c-1.8-.9-3.8-1.3-5.8-1.3s-4 .4-5.8 1.3c-1.8.9-3.3 2.2-4.6 3.8s-2.3 3.6-3.1 5.8c-.7 2.2-1.1 4.7-1.1 7.5zm42 10.2c0-4.5 2.2-8 6.5-10.4 4.3-2.4 11.1-4.1 20.3-5.2.1-1.6 0-3.1-.3-4.7s-.7-3-1.5-4.2c-.7-1.2-1.7-2.2-3-3-1.3-.8-2.9-1.2-5-1.2-2.8 0-5.4.5-7.7 1.6s-4.1 2.2-5.5 3.2l-1.7-2.8c.7-.5 1.7-1.1 2.7-1.7 1.1-.6 2.2-1.2 3.5-1.7 1.3-.5 2.7-1 4.3-1.3 1.6-.4 3.2-.6 4.8-.6 2.5 0 4.5.4 6.2 1.2 1.7.8 3 2 4.1 3.4 1 1.4 1.8 3.1 2.2 5 .4 1.9.6 4 .6 6.2v26.5h-3.2l-.4-5.3h-.2c-2.1 1.7-4.4 3.1-6.9 4.4-2.4 1.3-5 1.9-7.8 1.9-1.7 0-3.2-.2-4.7-.7-1.4-.5-2.7-1.1-3.8-2.1-1.1-.9-2-2.1-2.6-3.5-.6-1.3-.9-3-.9-5zm4-.2c0 3 .9 5.1 2.6 6.4 1.7 1.3 3.8 1.9 6.1 1.9 2.4 0 4.7-.6 6.9-1.7s4.6-2.8 7.2-5v-14c-4.3.5-7.8 1.2-10.7 1.9-2.9.7-5.2 1.6-7 2.7-1.8 1-3.1 2.2-3.8 3.5-.9 1.3-1.3 2.7-1.3 4.3zm37.9-10c0-3.4.5-6.5 1.6-9.3 1-2.7 2.4-5 4.1-6.9 1.7-1.8 3.7-3.2 6-4.2s4.7-1.5 7.2-1.5c2.9 0 5.3.5 7.2 1.6 1.9 1 3.6 2.2 5 3.5l-2.2 2.7c-1.3-1.3-2.8-2.3-4.4-3.1-1.6-.8-3.4-1.2-5.4-1.2-2.1 0-4.1.4-5.9 1.3-1.8.9-3.4 2.2-4.7 3.8-1.4 1.6-2.4 3.6-3.2 5.8s-1.2 4.7-1.2 7.5c0 2.7.4 5.2 1.1 7.4.7 2.2 1.7 4.2 3 5.8 1.3 1.6 2.9 2.9 4.7 3.7 1.9.9 3.9 1.3 6.2 1.3 2.2 0 4.2-.5 6.1-1.4 1.9-.9 3.5-2 5-3.4l2 2.6c-1.8 1.6-3.8 2.9-5.9 4-2.2 1-4.6 1.6-7.2 1.6-2.7 0-5.2-.5-7.5-1.5s-4.3-2.4-5.9-4.2c-1.7-1.8-3-4.1-4-6.8-1.2-2.6-1.7-5.7-1.7-9.1zm43.1-17.5h-6.5v-2.9l6.5-.3.5-12h3.3v12h12v3.3h-12v27c0 1.3.1 2.5.3 3.6.2 1.1.6 2 1.1 2.8.5.8 1.2 1.4 2.1 1.8.9.4 2.1.6 3.5.6.8 0 1.7-.1 2.6-.4.9-.3 1.8-.6 2.5-.9l1 3.1c-1.2.5-2.4.8-3.6 1.1-1.2.3-2.2.4-3.1.4-2 0-3.7-.3-5-.9-1.3-.6-2.4-1.5-3.2-2.5-.8-1.1-1.4-2.4-1.7-4-.3-1.6-.5-3.2-.5-5.1v-26.7zm27.9-13.3c-1 0-1.8-.3-2.5-.9-.7-.6-1-1.4-1-2.4 0-1.1.3-1.9 1-2.5.7-.6 1.5-.9 2.5-.9s1.8.3 2.5.9c.7.6 1 1.5 1 2.5s-.3 1.8-1 2.4c-.7.6-1.5.9-2.5.9zm-2 10h3.8v41.4h-3.8v-41.4zm12.9 0h4.1l9.3 25.9c.6 2 1.3 4 2.1 6 .7 2 1.4 4 2.1 5.9h.3c.7-1.9 1.4-3.8 2.1-5.9l2.1-6 9.3-25.9h3.9l-15.3 41.4h-4.5l-15.5-41.4zm46.3-10c-1 0-1.8-.3-2.5-.9-.7-.6-1-1.4-1-2.4 0-1.1.3-1.9 1-2.5.7-.6 1.5-.9 2.5-.9s1.8.3 2.5.9c.7.6 1 1.5 1 2.5s-.3 1.8-1 2.4c-.7.6-1.5.9-2.5.9zm-2 10h3.8v41.4h-3.8v-41.4zm20.7 3.3h-6.5v-2.9l6.6-.3.5-12h3.3v12h12v3.3h-12v27c0 1.3.1 2.5.3 3.6.2 1.1.6 2 1.1 2.8.5.8 1.2 1.4 2.1 1.8.9.4 2.1.6 3.5.6.8 0 1.7-.1 2.6-.4s1.8-.6 2.5-.9l1 3.1c-1.2.5-2.4.8-3.6 1.1-1.2.3-2.2.4-3.1.4-2 0-3.7-.3-5-.9-1.3-.6-2.4-1.5-3.2-2.5-.8-1.1-1.4-2.4-1.7-4-.3-1.6-.5-3.2-.5-5.1v-26.7zm22.5 53.2c.6.1 1.2.2 1.8.2 2.6 0 4.7-1 6.5-3.1 1.7-2.1 3.1-4.7 4.1-7.8l1.1-3.6-17-42.1h4.1l10 26c.6 1.7 1.3 3.6 2.1 5.7s1.6 4 2.4 5.9h.3c.6-1.8 1.3-3.8 1.9-5.9.7-2.1 1.3-4 1.9-5.7l8.9-26h3.9l-16.4 46.5c-.6 1.7-1.3 3.4-2.1 5s-1.8 3.1-2.9 4.4c-1.1 1.3-2.4 2.3-3.9 3.1-1.5.8-3.1 1.2-5 1.2-1.6 0-3-.3-4.2-.9l.9-3.4c.5.2 1 .3 1.6.5z" class="st5"/><path d="M424.5 215c95.2 0 172.1 76.9 172.1 172.1s-76.9 172.1-172.1 172.1-172.1-76.9-172.1-172.1S329.3 215 424.5 215z" class="st17"/><path d="M424.5 136.7c138.6 0 250.4 111.9 250.4 250.4S563.1 637.6 424.5 637.6 174.1 525.7 174.1 387.1s111.8-250.4 250.4-250.4z" class="st17"/><path d="M494.2 274.5c37.9 23.4 61.3 64 62.8 108.7H453.9c-2.1 0-3.9 1.8-3.9 3.9 0 9.3-5.1 17.7-12.9 22.2-1.8.9-2.4 3.3-1.5 5.4l51.7 89.2c-39.1 21-86.2 21-125.5 0l51.4-89.2c1.2-2.1.6-4.5-1.5-5.4-7.5-4.5-12.6-12.9-12.6-22.2 0-2.1-1.8-3.9-3.9-3.9H292.3c1.2-44.7 24.6-85.3 62.5-108.7l51.7 89.2c.9 1.8 3.3 2.4 5.4 1.5 3.6-2.4 8.1-3.6 12.6-3.6s9 1.2 12.6 3.6c2.1.9 4.5.3 5.4-1.5l51.7-89.2z" class="st18"/><path d="M424.7 388.4c5.8 0 10.5 4.7 10.5 10.5s-4.7 10.5-10.5 10.5-10.5-4.7-10.5-10.5 4.7-10.5 10.5-10.5zm0-23.5c5.8 0 10.5 4.7 10.5 10.5s-4.7 10.5-10.5 10.5-10.5-4.7-10.5-10.5 4.7-10.5 10.5-10.5z" class="st52"/><path d="M423.5 387.1c0 5.8-4.7 10.5-10.5 10.5s-10.5-4.7-10.5-10.5 4.7-10.5 10.5-10.5 10.5 4.7 10.5 10.5zm23.4 0c0 5.8-4.7 10.5-10.5 10.5s-10.5-4.7-10.5-10.5 4.7-10.5 10.5-10.5 10.5 4.7 10.5 10.5z" class="st52"/></svg>