<?xml version="1.0" encoding="utf-8"?>
<!-- Generator: Adobe Illustrator 19.0.0, SVG Export Plug-In . SVG Version: 6.00 Build 0)  -->
<svg version="1.1" id="Layer_1" xmlns="http://www.w3.org/2000/svg" xmlns:xlink="http://www.w3.org/1999/xlink" x="0px" y="0px"
	 viewBox="0 0 720 720" style="enable-background:new 0 0 720 720;" xml:space="preserve">
<style type="text/css">
	.st0{fill:none;stroke:#00A9B1;stroke-width:1.9535;stroke-miterlimit:10;stroke-dasharray:4.0904,4.0904;}
	.st1{fill:#00A9B1;}
	.st2{fill:none;}
	.st3{font-family:'MyriadPro-Regular';}
	.st4{font-size:19.5352px;}
	.st5{font-size:11.7211px;}
	.st6{fill:#00A9B1;stroke:#00A9B1;stroke-width:0.6512;stroke-miterlimit:10;}
	.st7{fill:#E48A2A;}
	.st8{fill:#016065;}
	.st9{fill:#C55857;}
	.st10{fill:#00A9B1;stroke:#00A9B1;stroke-width:0.6955;stroke-miterlimit:10;}
</style>
<g id="XMLID_5_">
	<g id="XMLID_91_">
		<path id="XMLID_96_" d="M318.6,54.9c41.1,0,82.1,0,123.2,0c5.8,0,11.7,0,17.5,0c1,0,1-1.6,0-1.6c-41.1,0-82.1,0-123.2,0
			c-5.8,0-11.7,0-17.5,0C317.5,53.3,317.5,54.9,318.6,54.9L318.6,54.9z"/>
	</g>
</g>
<g id="XMLID_2_">
	<g id="XMLID_83_">
		<path id="XMLID_90_" d="M318.6,242.5c41.1,0,82.1,0,123.2,0c5.8,0,11.7,0,17.5,0c1,0,1-1.6,0-1.6c-41.1,0-82.1,0-123.2,0
			c-5.8,0-11.7,0-17.5,0C317.5,240.8,317.5,242.5,318.6,242.5L318.6,242.5z"/>
	</g>
</g>
<g id="XMLID_1_">
	<g id="XMLID_78_">
		<path id="XMLID_82_" d="M390.5,229.9c0-48,0-96,0-144c0-6.7,0-13.4,0-20.1c-0.9,0.4-1.9,0.8-2.8,1.2c3.9,3.9,7.8,7.8,11.7,11.7
			c1.5,1.5,3.8-0.8,2.3-2.3c-3.9-3.9-7.8-7.8-11.7-11.7c-0.6-0.6-1.7-0.6-2.3,0c-3.9,3.9-7.8,7.8-11.7,11.7
			c-1.5,1.5,0.8,3.8,2.3,2.3c3.9-3.9,7.8-7.8,11.7-11.7c-0.8,0-1.5,0-2.3,0c3.9,3.9,7.8,7.8,11.7,11.7c1.5,1.5,3.8-0.8,2.3-2.3
			c-3.9-3.9-7.8-7.8-11.7-11.7c-1-1-2.8-0.3-2.8,1.2c0,48,0,96,0,144c0,6.7,0,13.4,0,20.1C387.2,232,390.5,232,390.5,229.9
			L390.5,229.9z"/>
	</g>
</g>
<g id="XMLID_3_">
	<circle id="XMLID_33_" class="st0" cx="388.9" cy="54.1" r="11.7"/>
</g>
<g id="XMLID_4_">
	<circle id="XMLID_76_" class="st1" cx="388.9" cy="241.6" r="11.7"/>
	<g id="XMLID_70_">
		<path id="XMLID_75_" class="st1" d="M399,241.6c-0.7,12.9-20.2,13-20.2,0C378.8,228.6,398.3,228.7,399,241.6
			c0.1,2.1,3.4,2.1,3.3,0c-0.4-7.2-5.8-13.3-13.3-13.3c-7.2,0-13.4,6.1-13.3,13.3c0,7,5.7,13,12.7,13.3c7.8,0.4,13.6-5.8,14-13.3
			C402.3,239.5,399.1,239.5,399,241.6z"/>
	</g>
</g>
<rect id="XMLID_176_" x="251.9" y="171.3" class="st2" width="82" height="35.2"/>
<text id="XMLID_7_" transform="matrix(1 0 0 1 251.9405 185.1795)" class="st3 st4">ΔE = hv</text>
<rect id="XMLID_174_" x="298.8" y="48.2" class="st2" width="35.2" height="35.2"/>
<text id="XMLID_9_" transform="matrix(1 0 0 1 298.8254 62.1075)"><tspan x="0" y="0" class="st3 st4">E</tspan><tspan x="9.6" y="0" class="st3 st5">2</tspan></text>
<rect id="XMLID_172_" x="298.8" y="235.8" class="st2" width="35.2" height="35.2"/>
<text id="XMLID_10_" transform="matrix(1 0 0 1 298.8254 249.6463)"><tspan x="0" y="0" class="st3 st4">E</tspan><tspan x="9.6" y="0" class="st3 st5">1</tspan></text>
<g id="XMLID_42_">
	<g id="XMLID_64_">
		<path id="XMLID_69_" d="M545,54.9c41.1,0,82.1,0,123.2,0c5.8,0,11.7,0,17.5,0c1,0,1-1.6,0-1.6c-41.1,0-82.1,0-123.2,0
			c-5.8,0-11.7,0-17.5,0C543.9,53.3,543.9,54.9,545,54.9L545,54.9z"/>
	</g>
</g>
<g id="XMLID_41_">
	<g id="XMLID_53_">
		<path id="XMLID_63_" d="M545,242.5c41.1,0,82.1,0,123.2,0c5.8,0,11.7,0,17.5,0c1,0,1-1.6,0-1.6c-41.1,0-82.1,0-123.2,0
			c-5.8,0-11.7,0-17.5,0C543.9,240.8,543.9,242.5,545,242.5L545,242.5z"/>
	</g>
</g>
<g id="XMLID_40_">
	<g id="XMLID_48_">
		<path id="XMLID_52_" d="M613.7,65.8c0,48,0,96,0,144c0,6.7,0,13.4,0,20.1c0.9-0.4,1.9-0.8,2.8-1.2c-3.9-3.9-7.8-7.8-11.7-11.7
			c-1.5-1.5-3.8,0.8-2.3,2.3c3.9,3.9,7.8,7.8,11.7,11.7c0.6,0.6,1.7,0.6,2.3,0c3.9-3.9,7.8-7.8,11.7-11.7c1.5-1.5-0.8-3.8-2.3-2.3
			c-3.9,3.9-7.8,7.8-11.7,11.7c0.8,0,1.5,0,2.3,0c-3.9-3.9-7.8-7.8-11.7-11.7c-1.5-1.5-3.8,0.8-2.3,2.3c3.9,3.9,7.8,7.8,11.7,11.7
			c1,1,2.8,0.3,2.8-1.2c0-48,0-96,0-144c0-6.7,0-13.4,0-20.1C616.9,63.7,613.7,63.7,613.7,65.8L613.7,65.8z"/>
	</g>
</g>
<circle id="XMLID_37_" class="st6" cx="615.3" cy="54.1" r="11.7"/>
<rect id="XMLID_145_" x="478.4" y="171.3" class="st2" width="82" height="35.2"/>
<text id="XMLID_16_" transform="matrix(1 0 0 1 478.36 185.1795)" class="st3 st4">ΔE = hv</text>
<rect id="XMLID_143_" x="525.2" y="48.2" class="st2" width="35.2" height="35.2"/>
<text id="XMLID_14_" transform="matrix(1 0 0 1 525.2439 62.1075)"><tspan x="0" y="0" class="st3 st4">E</tspan><tspan x="9.6" y="0" class="st3 st5">2</tspan></text>
<rect id="XMLID_141_" x="525.2" y="235.8" class="st2" width="35.2" height="35.2"/>
<text id="XMLID_12_" transform="matrix(1 0 0 1 525.2439 249.6463)"><tspan x="0" y="0" class="st3 st4">E</tspan><tspan x="9.6" y="0" class="st3 st5">1</tspan></text>
<g id="XMLID_36_">
	<circle id="XMLID_21_" class="st0" cx="615.3" cy="241.6" r="11.7"/>
</g>
<g id="XMLID_26_">
	<g id="XMLID_58_">
		<path id="XMLID_62_" class="st7" d="M342.9,171c0,2.8,0,5.5,0,8.3c0.5-0.5,1.1-1.1,1.6-1.6c-2.8,0-5.5,0-8.3,0
			c-2.1,0-2.1,3.3,0,3.3c2.8,0,5.5,0,8.3,0c0.9,0,1.6-0.7,1.6-1.6c0-2.8,0-5.5,0-8.3C346.2,168.9,342.9,168.9,342.9,171L342.9,171z"
			/>
	</g>
</g>
<path id="XMLID_25_" class="st7" d="M328.1,142.7c-2.2,0.9-4.3,1.9-6.4,2.9c-1.8,0.8-4.9,2.3-6.9,1.4c-4-1.8,1-9.9,2.1-12.2
	c1.5-3.3,3.7-7.7,1.9-11.3c-4.5-8.8-17.4,3.1-23.4,3c-6-0.2-0.3-10,0.7-12.4c1.7-3.9,4.2-9,0.9-12.7c-1.4-1.6-3.7,0.7-2.3,2.3
	c2.7,3-2,10-3.3,12.9c-1.4,3.3-3.4,8-0.7,11.2c2.8,3.2,7.4,1.8,10.7,0.4c2.2-0.9,4.3-1.9,6.4-2.9c1.8-0.8,4.9-2.3,6.9-1.4
	c4,1.8-1,9.9-2.1,12.2c-1.5,3.3-3.7,7.7-1.9,11.3c4.5,8.8,17.4-3.1,23.4-2.9c6,0.2,0.3,10-0.7,12.4c-1.7,3.9-4.2,9-0.9,12.7
	c0.1,0.1,0.2,0.2,0.3,0.3c0,0.1,0.1,0.1,0.1,0.2c3,3.1,6.1,6.1,9.1,9.2c1.5,1.5,3.8-0.8,2.3-2.3c-3-3.1-6.1-6.1-9.1-9.2
	c-0.1-0.1-0.2-0.2-0.3-0.2c0-0.1-0.1-0.1-0.1-0.2c-2.7-3,2-10,3.3-12.9c1.4-3.3,3.4-8,0.7-11.2C336,139.9,331.4,141.3,328.1,142.7z"
	/>
<g id="XMLID_24_">
	<g id="XMLID_105_">
		<path id="XMLID_109_" class="st7" d="M516.9,109.3c0-2.8,0-5.5,0-8.3c-0.5,0.5-1.1,1.1-1.6,1.6c2.8,0,5.5,0,8.3,0
			c2.1,0,2.1-3.3,0-3.3c-2.8,0-5.5,0-8.3,0c-0.9,0-1.6,0.7-1.6,1.6c0,2.8,0,5.5,0,8.3C513.7,111.4,516.9,111.4,516.9,109.3
			L516.9,109.3z"/>
	</g>
</g>
<path id="XMLID_22_" class="st7" d="M531.8,137.6c2.2-0.9,4.3-1.9,6.4-2.9c1.8-0.8,4.9-2.3,6.9-1.4c4,1.8-1,9.9-2.1,12.2
	c-1.5,3.3-3.7,7.7-1.9,11.3c4.5,8.8,17.4-3.1,23.4-3c6,0.2,0.3,10-0.7,12.4c-1.7,3.9-4.2,9-0.9,12.7c1.4,1.6,3.7-0.7,2.3-2.3
	c-2.7-3,2-10,3.3-12.9c1.4-3.3,3.4-8,0.7-11.2c-2.8-3.2-7.4-1.8-10.7-0.4c-2.2,0.9-4.3,1.9-6.4,2.9c-1.8,0.8-4.9,2.3-6.9,1.4
	c-4-1.8,1-9.9,2.1-12.2c1.5-3.3,3.7-7.7,1.9-11.3c-4.5-8.8-17.4,3.1-23.4,2.9c-6-0.2-0.3-10,0.7-12.4c1.7-3.9,4.2-9,0.9-12.7
	c-0.1-0.1-0.2-0.2-0.3-0.3c0-0.1-0.1-0.1-0.1-0.2c-3-3.1-6.1-6.1-9.1-9.2c-1.5-1.5-3.8,0.8-2.3,2.3c3,3.1,6.1,6.1,9.1,9.2
	c0.1,0.1,0.2,0.2,0.3,0.2c0,0.1,0.1,0.1,0.1,0.2c2.7,3-2,10-3.3,12.9c-1.4,3.3-3.4,8-0.7,11.2C523.9,140.4,528.5,139,531.8,137.6z"
	/>
<g id="XMLID_27_">
	<g id="XMLID_34_">
		<path id="XMLID_44_" class="st8" d="M383,243.3c3.9,0,7.8,0,11.7,0c2.1,0,2.1-3.3,0-3.3c-3.9,0-7.8,0-11.7,0
			C380.9,240,380.9,243.3,383,243.3L383,243.3z"/>
	</g>
</g>
<g id="XMLID_43_">
	<g id="XMLID_32_">
		<path id="XMLID_98_" class="st8" d="M609.4,55.7c3.9,0,7.8,0,11.7,0c2.1,0,2.1-3.3,0-3.3c-3.9,0-7.8,0-11.7,0
			C607.3,52.5,607.3,55.7,609.4,55.7L609.4,55.7z"/>
	</g>
</g>
<circle id="XMLID_65_" class="st9" cx="237.5" cy="490.9" r="12.5"/>
<g id="XMLID_17_">
	<g id="XMLID_136_">
		<path id="XMLID_140_" class="st1" d="M297.4,490.9c-0.3,25.1-16,48-39.7,56.4c-23.4,8.3-50,1.1-66-17.9
			c-16.3-19.4-18.5-47.8-5.4-69.5c12.9-21.4,38.6-32.7,63.1-27.8C277.1,437.8,297,462.7,297.4,490.9c0,2.2,3.5,2.2,3.5,0
			c-0.3-26.4-16.7-50.4-41.7-59.6c-25.1-9.2-54-1.1-70.8,19.6c-16.7,20.5-18.8,50.1-5.1,72.7c13.6,22.6,40.5,34.4,66.3,29.5
			c29.7-5.7,51-32.3,51.3-62.2C300.9,488.7,297.4,488.7,297.4,490.9z"/>
	</g>
</g>
<g id="XMLID_15_">
	<g id="XMLID_130_">
		<path id="XMLID_134_" class="st1" d="M328.2,490.9c-0.3,38-24.4,72.8-60.4,85.5c-35.6,12.5-76,1.3-100.1-27.7
			c-24.3-29.2-27.5-71.9-8-104.4c19.5-32.7,58.6-50,95.9-42.4C297.5,410.5,327.9,448.3,328.2,490.9c0,2.2,3.5,2.2,3.5,0
			c-0.3-39.2-24.9-74.8-61.7-88.4c-37.3-13.8-80.6-1.8-105.6,29.1c-24.6,30.4-27.9,74-7.7,107.6c20.3,33.8,60.5,51.7,99.1,44.1
			c43.8-8.6,75.6-48,75.9-92.4C331.7,488.7,328.2,488.7,328.2,490.9z"/>
	</g>
</g>
<g id="XMLID_13_">
	<g id="XMLID_124_">
		<path id="XMLID_128_" class="st1" d="M374.4,490.9c-0.3,56.9-36.3,109.1-89.9,128.7c-53.8,19.6-115.5,2.9-152.2-41
			C95.2,534.3,90.4,469.3,120.3,420c29.6-48.8,88.1-74.5,144.1-63.3c55.4,11.1,99.3,56.8,108.3,112.7
			C373.9,476.5,374.4,483.7,374.4,490.9c0,2.2,3.5,2.2,3.5,0c-0.3-58.3-37-111.5-91.8-131.8c-55.4-20.5-119.6-3-157.1,42.7
			c-37.3,45.5-42.2,111.5-11.6,161.9c30.5,50.2,90.5,76.4,148,64.9c57-11.4,102.3-59,110.9-116.4c1.1-7,1.6-14.1,1.6-21.2
			C377.9,488.7,374.4,488.7,374.4,490.9z"/>
	</g>
</g>
<g id="XMLID_11_">
	<g id="XMLID_118_">
		<path id="XMLID_122_" class="st1" d="M436,490.9c-0.3,82.6-52.8,158.4-130.7,186.7c-78.3,28.4-168,3.8-221.1-60.3
			C31,552.9,24.3,459,67.8,387.7c43.1-70.7,127.9-107.8,209.1-91.4c80.3,16.2,143.8,82.5,156.7,163.3C435.2,470,436,480.4,436,490.9
			c0,2.2,3.5,2.2,3.5,0c-0.1-42-13.2-83.4-37.7-117.6c-23.7-33-57.2-58.5-95.5-72.4c-79.8-29-171.7-3.5-225.3,62.2
			c-53.5,65.6-60.3,160.5-16.2,232.8c43.9,72.1,130.3,109.7,213,93c81.8-16.5,146.8-84.6,159.3-167.1c1.6-10.2,2.3-20.6,2.4-30.9
			C439.5,488.7,436,488.7,436,490.9z"/>
	</g>
</g>
<circle id="XMLID_8_" class="st10" cx="237.5" cy="428.3" r="12.5"/>
<g id="XMLID_6_">
	<g id="XMLID_116_">
		<path id="XMLID_135_" class="st8" d="M231.2,430.1c4.2,0,8.3,0,12.5,0c2.2,0,2.2-3.5,0-3.5c-4.2,0-8.3,0-12.5,0
			C229,426.6,229,430.1,231.2,430.1L231.2,430.1z"/>
	</g>
</g>
<g id="XMLID_71_">
	<g id="XMLID_150_">
		<path id="XMLID_159_" d="M672,273c-31.7,0-63.5,0-95.2,0c-61,0-122.1,0-183.1,0c-39,0-78.1,0-117.1,0c-10.5,0-20.4-2.7-28.5-9.7
			c-10.3-8.9-14.2-21-14.2-34.2c0-22,0-44.1,0-66.1c0-29.7,0-59.3,0-89c0-19.8-3.6-43.5,11.4-59c8.3-8.6,19.3-12.3,31-12.3
			c4.6,0,9.3,0,13.9,0c20,0,40,0,60,0c60.2,0,120.4,0,180.7,0c44.3,0,88.6,0,133,0c2.7,0,5.5,0,8.2,0c21.4,0.3,39.7,17.3,40.4,39
			c0.6,16.5,0,33.1,0,49.7c0,47.1,0.7,94.2,0,141.3C712.1,254.8,694.2,272.6,672,273c-3.4,0.1-3.4,5.3,0,5.2
			c21-0.3,39.8-14.8,44.5-35.5c1.5-6.8,1.1-13.9,1.1-20.8c0-26.6,0-53.1,0-79.7c0-27.9,0-55.9,0-83.8c0-5.1,0.1-10.3,0-15.5
			c-0.3-20-13.5-38.1-32.9-43.8c-11.2-3.3-24.6-1.8-36.1-1.8c-22.5,0-45,0-67.5,0c-62.2,0-124.3,0-186.5,0c-39.6,0-79.1-0.1-118.7,0
			c-27,0.1-47.3,20.7-47.3,47.6c0,21.6,0,43.2,0,64.8c0,30.4,0,60.8,0,91.1c0,19.7-3.3,42.9,9.6,59.5c8.9,11.5,22.4,17.7,36.8,17.8
			c4,0,8,0,12,0c19.5,0,39,0,58.5,0c61.2,0,122.3,0,183.5,0c45.4,0,90.7,0,136.1,0c2.3,0,4.7,0,7,0C675.4,278.2,675.4,273,672,273z"
			/>
	</g>
</g>
<g id="XMLID_77_">
	<g id="XMLID_153_">
		<path id="XMLID_157_" d="M262,452.8c-15.1,0-30.2,0.2-45.3,0c-5.1-0.1-9.8-1.5-12.9-5.9c-2.4-3.4-2.5-7.1-2.5-11.1
			c0-9.3,0-18.7,0-28c0-8.5-1.8-19.6,6.8-24.6c6-3.5,16-1.9,22.6-1.9c9.2,0,18.5,0,27.7,0c3.5,0,6.7-0.1,9.9,1.6
			c5.2,2.8,7.3,7.9,7.4,13.5c0.2,9.9,0,19.9,0,29.9c0,3.9,0.1,7.8,0,11.7C275.6,446.1,270.4,452.4,262,452.8c-1.6,0.1-1.6,2.6,0,2.5
			c6.7-0.3,12.7-4,15.1-10.4c1.2-3.2,1.1-6.4,1.1-9.7c0-10.7,0-21.4,0-32.1c0-9.3-0.1-19.3-10.5-23.2c-3.1-1.2-6.3-1.1-9.6-1.1
			c-4.9,0-9.8,0-14.7,0c-9.3,0-18.6-0.2-27.9,0c-10.3,0.3-16.7,7.9-16.8,17.8c-0.1,10.3,0,20.7,0,31c0,8.8-1.4,18.7,6.7,24.5
			c7.2,5.2,19.3,3.1,27.6,3.1c9.6,0,19.3,0,28.9,0C263.6,455.3,263.6,452.8,262,452.8z"/>
	</g>
</g>
<g id="XMLID_84_">
	<g id="XMLID_160_">
		<path id="XMLID_164_" d="M277.4,406.1c28.1-4.7,52.9-21.4,70.1-43.8c18.7-24.3,28.2-54.3,31.6-84.5c0.3-2.4-3.5-2.4-3.8,0
			c-3.3,29.7-12.8,59.4-31.4,83.1c-16.8,21.3-40.5,37.1-67.5,41.6C274,402.9,275,406.5,277.4,406.1L277.4,406.1z"/>
	</g>
</g>
</svg>
