<?xml version="1.0" encoding="utf-8"?>
<!-- Generator: Adobe Illustrator 19.0.0, SVG Export Plug-In . SVG Version: 6.00 Build 0)  -->
<svg version="1.1" xmlns="http://www.w3.org/2000/svg" xmlns:xlink="http://www.w3.org/1999/xlink" x="0px" y="0px"
	 viewBox="0 0 720 720" style="enable-background:new 0 0 720 720;" xml:space="preserve">
<style type="text/css">
	.st0{fill:#C55857;stroke:#C55857;stroke-miterlimit:10;}
	.st1{fill:#AB1F23;}
	.st2{fill:#00A9B1;}
	.st3{fill:#016065;}
</style>
<g id="Layer_1">
	<circle id="XMLID_1_" class="st0" cx="360" cy="360" r="288"/>
</g>
<g id="Layer_3">
	<g id="XMLID_54_">
		<g id="XMLID_101_">
			<path id="XMLID_105_" class="st1" d="M335,108c0,16.4,0,32.8,0,49.2c0,39.4,0,78.8,0,118.2c0,47.7,0,95.3,0,143
				c0,41.2,0,82.4,0,123.6c0,20-0.5,40.1,0,60.2c0,0.3,0,0.6,0,0.9c0,13.1,11.5,25.6,25,25c13.5-0.6,25-11,25-25
				c0-16.4,0-32.8,0-49.2c0-39.4,0-78.8,0-118.2c0-47.7,0-95.3,0-143c0-41.2,0-82.4,0-123.6c0-20,0.5-40.1,0-60.2c0-0.3,0-0.6,0-0.9
				c0-13.1-11.5-25.6-25-25C346.5,83.6,335,94,335,108L335,108z"/>
		</g>
	</g>
	<g id="XMLID_60_">
		<g id="XMLID_95_">
			<path id="XMLID_99_" class="st1" d="M607.5,330.5c-16.4,0-32.8,0-49.2,0c-39.4,0-78.8,0-118.2,0c-47.7,0-95.3,0-143,0
				c-41.2,0-82.4,0-123.6,0c-20,0-40.1-0.5-60.2,0c-0.3,0-0.6,0-0.9,0c-13.1,0-25.6,11.5-25,25c0.6,13.5,11,25,25,25
				c16.4,0,32.8,0,49.2,0c39.4,0,78.8,0,118.2,0c47.7,0,95.3,0,143,0c41.2,0,82.4,0,123.6,0c20,0,40.1,0.5,60.2,0c0.3,0,0.6,0,0.9,0
				c13.1,0,25.6-11.5,25-25C631.9,342,621.5,330.5,607.5,330.5L607.5,330.5z"/>
		</g>
	</g>
</g>
<g id="Layer_2">
	<circle id="XMLID_2_" class="st2" cx="261" cy="261" r="27"/>
	<g id="XMLID_3_">
		<g id="XMLID_15_">
			<path id="XMLID_19_" class="st3" d="M243,266c12,0,24,0,36,0c6.4,0,6.4-10,0-10c-12,0-24,0-36,0C236.6,256,236.6,266,243,266
				L243,266z"/>
		</g>
	</g>
	<circle id="XMLID_5_" class="st2" cx="405" cy="234" r="27"/>
	<g id="XMLID_4_">
		<g id="XMLID_23_">
			<path id="XMLID_27_" class="st3" d="M387,239c12,0,24,0,36,0c6.4,0,6.4-10,0-10c-12,0-24,0-36,0C380.6,229,380.6,239,387,239
				L387,239z"/>
		</g>
	</g>
	<circle id="XMLID_7_" class="st2" cx="216" cy="468" r="27"/>
	<g id="XMLID_6_">
		<g id="XMLID_31_">
			<path id="XMLID_35_" class="st3" d="M198,473c12,0,24,0,36,0c6.4,0,6.4-10,0-10c-12,0-24,0-36,0C191.6,463,191.6,473,198,473
				L198,473z"/>
		</g>
	</g>
	<circle id="XMLID_9_" class="st2" cx="558" cy="369" r="27"/>
	<g id="XMLID_8_">
		<g id="XMLID_39_">
			<path id="XMLID_43_" class="st3" d="M540,374c12,0,24,0,36,0c6.4,0,6.4-10,0-10c-12,0-24,0-36,0C533.6,364,533.6,374,540,374
				L540,374z"/>
		</g>
	</g>
	<circle id="XMLID_12_" class="st2" cx="333" cy="423" r="27"/>
	<g id="XMLID_11_">
		<g id="XMLID_47_">
			<path id="XMLID_51_" class="st3" d="M315,428c12,0,24,0,36,0c6.4,0,6.4-10,0-10c-12,0-24,0-36,0C308.6,418,308.6,428,315,428
				L315,428z"/>
		</g>
	</g>
	<circle id="XMLID_20_" class="st2" cx="468" cy="522" r="27"/>
	<g id="XMLID_14_">
		<g id="XMLID_55_">
			<path id="XMLID_59_" class="st3" d="M450,527c12,0,24,0,36,0c6.4,0,6.4-10,0-10c-12,0-24,0-36,0C443.6,517,443.6,527,450,527
				L450,527z"/>
		</g>
	</g>
	<circle id="XMLID_28_" class="st2" cx="288" cy="594" r="27"/>
	<g id="XMLID_22_">
		<g id="XMLID_63_">
			<path id="XMLID_67_" class="st3" d="M270,599c12,0,24,0,36,0c6.4,0,6.4-10,0-10c-12,0-24,0-36,0C263.6,589,263.6,599,270,599
				L270,599z"/>
		</g>
	</g>
	<circle id="XMLID_36_" class="st2" cx="126" cy="351" r="27"/>
	<g id="XMLID_30_">
		<g id="XMLID_71_">
			<path id="XMLID_75_" class="st3" d="M108,356c12,0,24,0,36,0c6.4,0,6.4-10,0-10c-12,0-24,0-36,0C101.6,346,101.6,356,108,356
				L108,356z"/>
		</g>
	</g>
	<circle id="XMLID_44_" class="st2" cx="261" cy="135" r="27"/>
	<g id="XMLID_38_">
		<g id="XMLID_79_">
			<path id="XMLID_83_" class="st3" d="M243,140c12,0,24,0,36,0c6.4,0,6.4-10,0-10c-12,0-24,0-36,0C236.6,130,236.6,140,243,140
				L243,140z"/>
		</g>
	</g>
	<circle id="XMLID_52_" class="st2" cx="531" cy="216" r="27"/>
	<g id="XMLID_46_">
		<g id="XMLID_87_">
			<path id="XMLID_91_" class="st3" d="M513,221c12,0,24,0,36,0c6.4,0,6.4-10,0-10c-12,0-24,0-36,0C506.6,211,506.6,221,513,221
				L513,221z"/>
		</g>
	</g>
</g>
</svg>
