<?xml version="1.0" encoding="utf-8"?>
<!-- Generator: Adobe Illustrator 19.0.0, SVG Export Plug-In . SVG Version: 6.00 Build 0)  -->
<svg version="1.1" id="Layer_1" xmlns="http://www.w3.org/2000/svg" xmlns:xlink="http://www.w3.org/1999/xlink" x="0px" y="0px"
	 viewBox="0 0 1440 720" style="enable-background:new 0 0 1440 720;" xml:space="preserve">
<style type="text/css">
	.st0{fill:#00A9B1;}
	.st1{fill:#C55857;stroke:#C55857;stroke-width:0.2444;stroke-miterlimit:10;}
	.st2{fill:#AB1F23;}
	.st3{fill:#016065;}
	.st4{fill:#C55857;}
	.st5{fill:#FAD466;}
	.st6{opacity:0.25;fill:#82C3BB;}
	.st7{opacity:0.25;}
	.st8{fill:#82C341;}
	.st9{fill:#58469C;}
	.st10{opacity:0.25;fill:#CB2030;}
</style>
<circle id="XMLID_1_" class="st0" cx="144" cy="216" r="72"/>
<circle id="XMLID_15_" class="st1" cx="429.1" cy="216.9" r="70.4"/>
<g id="XMLID_13_">
	<g id="XMLID_102_">
		<path id="XMLID_106_" class="st2" d="M423,155.3c0,35.3,0,70.7,0,106c0,5,0,10,0,15c0,7.9,12.2,7.9,12.2,0c0-35.3,0-70.7,0-106
			c0-5,0-10,0-15C435.2,147.4,423,147.4,423,155.3L423,155.3z"/>
	</g>
</g>
<g id="XMLID_10_">
	<g id="XMLID_96_">
		<path id="XMLID_100_" class="st2" d="M489.6,209.7c-35.3,0-70.7,0-106,0c-5,0-10,0-15,0c-7.9,0-7.9,12.2,0,12.2
			c35.3,0,70.7,0,106,0c5,0,10,0,15,0C497.5,221.9,497.5,209.7,489.6,209.7L489.6,209.7z"/>
	</g>
</g>
<circle id="XMLID_2_" class="st0" cx="404.9" cy="192.7" r="6.6"/>
<g id="XMLID_3_">
	<g id="XMLID_90_">
		<path id="XMLID_94_" class="st3" d="M400.5,193.9c2.9,0,5.9,0,8.8,0c1.6,0,1.6-2.4,0-2.4c-2.9,0-5.9,0-8.8,0
			C398.9,191.5,398.9,193.9,400.5,193.9L400.5,193.9z"/>
	</g>
</g>
<circle id="XMLID_5_" class="st0" cx="440.1" cy="186.1" r="6.6"/>
<g id="XMLID_4_">
	<g id="XMLID_84_">
		<path id="XMLID_88_" class="st3" d="M435.7,187.3c2.9,0,5.9,0,8.8,0c1.6,0,1.6-2.4,0-2.4c-2.9,0-5.9,0-8.8,0
			C434.1,184.9,434.1,187.3,435.7,187.3L435.7,187.3z"/>
	</g>
</g>
<circle id="XMLID_7_" class="st0" cx="393.9" cy="243.3" r="6.6"/>
<g id="XMLID_6_">
	<g id="XMLID_78_">
		<path id="XMLID_82_" class="st3" d="M389.5,244.5c2.9,0,5.9,0,8.8,0c1.6,0,1.6-2.4,0-2.4c-2.9,0-5.9,0-8.8,0
			C387.9,242.1,387.9,244.5,389.5,244.5L389.5,244.5z"/>
	</g>
</g>
<circle id="XMLID_9_" class="st0" cx="477.5" cy="219.1" r="6.6"/>
<g id="XMLID_8_">
	<g id="XMLID_72_">
		<path id="XMLID_76_" class="st3" d="M473.1,220.3c2.9,0,5.9,0,8.8,0c1.6,0,1.6-2.4,0-2.4c-2.9,0-5.9,0-8.8,0
			C471.5,217.9,471.5,220.3,473.1,220.3L473.1,220.3z"/>
	</g>
</g>
<circle id="XMLID_12_" class="st0" cx="422.5" cy="232.3" r="6.6"/>
<g id="XMLID_11_">
	<g id="XMLID_66_">
		<path id="XMLID_70_" class="st3" d="M418.1,233.5c2.9,0,5.9,0,8.8,0c1.6,0,1.6-2.4,0-2.4c-2.9,0-5.9,0-8.8,0
			C416.5,231.1,416.5,233.5,418.1,233.5L418.1,233.5z"/>
	</g>
</g>
<circle id="XMLID_20_" class="st0" cx="455.5" cy="256.5" r="6.6"/>
<g id="XMLID_14_">
	<g id="XMLID_60_">
		<path id="XMLID_64_" class="st3" d="M451.1,257.7c2.9,0,5.9,0,8.8,0c1.6,0,1.6-2.4,0-2.4c-2.9,0-5.9,0-8.8,0
			C449.5,255.3,449.5,257.7,451.1,257.7L451.1,257.7z"/>
	</g>
</g>
<circle id="XMLID_28_" class="st0" cx="411.5" cy="274.1" r="6.6"/>
<g id="XMLID_22_">
	<g id="XMLID_54_">
		<path id="XMLID_58_" class="st3" d="M407.1,275.3c2.9,0,5.9,0,8.8,0c1.6,0,1.6-2.4,0-2.4c-2.9,0-5.9,0-8.8,0
			C405.5,272.9,405.5,275.3,407.1,275.3L407.1,275.3z"/>
	</g>
</g>
<circle id="XMLID_36_" class="st0" cx="371.9" cy="214.7" r="6.6"/>
<g id="XMLID_30_">
	<g id="XMLID_47_">
		<path id="XMLID_51_" class="st3" d="M367.5,215.9c2.9,0,5.9,0,8.8,0c1.6,0,1.6-2.4,0-2.4c-2.9,0-5.9,0-8.8,0
			C365.9,213.5,365.9,215.9,367.5,215.9L367.5,215.9z"/>
	</g>
</g>
<circle id="XMLID_44_" class="st0" cx="404.9" cy="161.9" r="6.6"/>
<g id="XMLID_38_">
	<g id="XMLID_39_">
		<path id="XMLID_43_" class="st3" d="M400.5,163.1c2.9,0,5.9,0,8.8,0c1.6,0,1.6-2.4,0-2.4c-2.9,0-5.9,0-8.8,0
			C398.9,160.7,398.9,163.1,400.5,163.1L400.5,163.1z"/>
	</g>
</g>
<circle id="XMLID_52_" class="st0" cx="470.9" cy="181.7" r="6.6"/>
<g id="XMLID_46_">
	<g id="XMLID_31_">
		<path id="XMLID_35_" class="st3" d="M466.5,182.9c2.9,0,5.9,0,8.8,0c1.6,0,1.6-2.4,0-2.4c-2.9,0-5.9,0-8.8,0
			C464.9,180.5,464.9,182.9,466.5,182.9L466.5,182.9z"/>
	</g>
</g>
<circle id="XMLID_161_" class="st4" cx="724.8" cy="206" r="8.7"/>
<g id="XMLID_160_">
	<g id="XMLID_203_">
		<path id="XMLID_207_" class="st2" d="M719,206.8c3.9,0,7.7,0,11.6,0c1,0,1-1.6,0-1.6c-3.9,0-7.7,0-11.6,0
			C717.9,205.2,717.9,206.8,719,206.8L719,206.8z"/>
	</g>
</g>
<g id="XMLID_154_">
	<g id="XMLID_197_">
		<path id="XMLID_201_" class="st2" d="M725.6,211.8c0-3.9,0-7.7,0-11.6c0-1-1.6-1-1.6,0c0,3.9,0,7.7,0,11.6
			C724,212.8,725.6,212.8,725.6,211.8L725.6,211.8z"/>
	</g>
</g>
<circle id="XMLID_148_" class="st5" cx="733.5" cy="206" r="8.7"/>
<circle id="XMLID_142_" class="st5" cx="721.9" cy="217.6" r="8.7"/>
<circle id="XMLID_141_" class="st4" cx="742.2" cy="211.8" r="8.7"/>
<g id="XMLID_127_">
	<g id="XMLID_191_">
		<path id="XMLID_195_" class="st2" d="M736.4,212.6c3.9,0,7.7,0,11.6,0c1,0,1-1.6,0-1.6c-3.9,0-7.7,0-11.6,0
			C735.3,211,735.3,212.6,736.4,212.6L736.4,212.6z"/>
	</g>
</g>
<g id="XMLID_121_">
	<g id="XMLID_185_">
		<path id="XMLID_189_" class="st2" d="M743,217.6c0-3.9,0-7.7,0-11.6c0-1-1.6-1-1.6,0c0,3.9,0,7.7,0,11.6
			C741.4,218.7,743,218.7,743,217.6L743,217.6z"/>
	</g>
</g>
<circle id="XMLID_115_" class="st5" cx="736.4" cy="220.5" r="8.7"/>
<circle id="XMLID_110_" class="st4" cx="727.7" cy="226.3" r="8.7"/>
<g id="XMLID_109_">
	<g id="XMLID_179_">
		<path id="XMLID_183_" class="st2" d="M721.9,227.1c3.9,0,7.7,0,11.6,0c1,0,1-1.6,0-1.6c-3.9,0-7.7,0-11.6,0
			C720.8,225.5,720.8,227.1,721.9,227.1L721.9,227.1z"/>
	</g>
</g>
<g id="XMLID_108_">
	<g id="XMLID_173_">
		<path id="XMLID_177_" class="st2" d="M728.5,232.1c0-3.9,0-7.7,0-11.6c0-1-1.6-1-1.6,0c0,3.9,0,7.7,0,11.6
			C726.9,233.2,728.5,233.2,728.5,232.1L728.5,232.1z"/>
	</g>
</g>
<g id="XMLID_107_">
	<g id="XMLID_167_">
		<path id="XMLID_171_" class="st0" d="M730.6,122.6c10,0.3,16.4,10.4,20.4,18.4c6.7,13.5,10,28.9,11.9,43.7
			c4.1,32.1,3,68.2-9.5,98.4c-3.6,8.7-9.5,20.7-19.5,23.3c-9.7,2.5-17.2-6.6-21.5-14c-7-12-10.5-26.1-12.8-39.8
			c-3-17.9-3.7-36.2-2.5-54.2c1.2-17.6,4-35.7,10.8-52.1C711.7,136.8,718.7,122.9,730.6,122.6c0.9,0,0.9-1.4,0-1.4
			c-9.4,0.2-15.8,8.6-20,16.1c-7.6,13.6-11.1,29.5-13.3,44.8c-2.8,19.6-3,39.7-0.8,59.3c1.8,15.9,5,32.2,12,46.7
			c3.9,8.1,10.1,18.4,19.8,19.9c8.5,1.4,15.4-5.3,19.8-11.8c8.2-12.2,12.1-27.3,14.6-41.6c3.5-19.6,4.2-39.8,2.6-59.7
			c-1.5-18-4.7-36.6-12.4-53.1c-4.2-8.9-11.2-20.4-22.3-20.7C729.7,121.1,729.7,122.5,730.6,122.6z"/>
	</g>
</g>
<g id="XMLID_101_">
	<g id="XMLID_159_">
		<path id="XMLID_165_" class="st0" d="M650.8,260.8c-4.5-8.3,0.4-18.4,4.9-25.6c7.2-11.4,17.3-21,27.7-29.4
			c26.1-21.2,59-39.3,92.6-44.6c9.8-1.6,24.3-3,32.2,4.7c6.9,6.8,3.4,17.3-0.6,24.7c-6.3,11.5-15.9,21.2-25.7,29.6
			C768.9,231.4,754.3,241,739,249c-16.8,8.8-35,16.3-53.8,19.3C674.5,270,657.4,271.6,650.8,260.8c-0.5-0.8-1.7-0.1-1.2,0.7
			c5.2,8.4,16.4,9.6,25.4,9.2c16.4-0.6,32.7-6,47.7-12.4c18.3-7.8,35.8-18,51.6-30.2c12-9.3,23.7-19.9,32-32.7
			c4.6-7.1,9.5-16.9,6.2-25.5c-3.3-8.6-13.5-10.9-21.7-11.2c-15.8-0.6-31.9,4.3-46.4,10c-18.7,7.3-36.5,17.2-52.8,29
			c-13.7,10-27.1,21.6-36.5,35.8c-5.1,7.8-10.5,18.8-5.5,27.9C650,262.3,651.2,261.6,650.8,260.8z"/>
	</g>
</g>
<g id="XMLID_95_">
	<g id="XMLID_152_">
		<path id="XMLID_157_" class="st0" d="M810.4,260.8c-5.7,9.2-19.1,9.1-28.6,8.3c-16.2-1.5-32.1-7.1-46.8-13.8
			c-28.6-12.9-58.6-31.8-77-57.7c-5-7-11-16.9-8.4-25.9c2.9-10.3,15.9-11.8,24.9-11.5c15.2,0.4,30.4,5.2,44.5,10.9
			c16.9,6.9,33.1,15.9,48,26.4c13.5,9.6,26.7,20.8,36.4,34.4C808.7,239.6,815.5,251.3,810.4,260.8c-0.4,0.8,0.8,1.5,1.2,0.7
			c4.2-7.7,0.9-16.7-3-23.8c-7.1-12.7-18.1-23.3-29.3-32.5c-15.2-12.4-32.1-22.9-49.9-31.1c-15.5-7.2-32.3-13.3-49.4-15.1
			c-9.4-1-22.4-1.1-29.1,6.9c-5.3,6.4-3.4,15.3-0.2,22.2c5.7,12.3,15.7,22.7,25.8,31.5c14.3,12.7,30.5,23.2,47.5,31.9
			c17.6,9,36.7,16.6,56.5,18.7c10.3,1.1,24.9,1.3,31.1-8.8C812.1,260.7,810.9,260,810.4,260.8z"/>
	</g>
</g>
<circle id="XMLID_89_" class="st0" cx="655.1" cy="194.4" r="5.8"/>
<circle id="XMLID_83_" class="st0" cx="678.4" cy="269.8" r="5.8"/>
<circle id="XMLID_23_" class="st0" cx="750.9" cy="139.3" r="5.8"/>
<circle id="XMLID_21_" class="st0" cx="806" cy="235" r="5.8"/>
<g id="XMLID_19_">
	<g id="XMLID_145_">
		<path id="XMLID_150_" class="st3" d="M652.2,195.2c1.9,0,3.9,0,5.8,0c1,0,1-1.6,0-1.6c-1.9,0-3.9,0-5.8,0
			C651.2,193.6,651.2,195.2,652.2,195.2L652.2,195.2z"/>
	</g>
</g>
<g id="XMLID_18_">
	<g id="XMLID_137_">
		<path id="XMLID_143_" class="st3" d="M748,140.1c1.9,0,3.9,0,5.8,0c1,0,1-1.6,0-1.6c-1.9,0-3.9,0-5.8,0
			C747,138.5,747,140.1,748,140.1L748,140.1z"/>
	</g>
</g>
<g id="XMLID_17_">
	<g id="XMLID_131_">
		<path id="XMLID_135_" class="st3" d="M803.1,235.8c1.9,0,3.9,0,5.8,0c1,0,1-1.6,0-1.6c-1.9,0-3.9,0-5.8,0
			C802.1,234.2,802.1,235.8,803.1,235.8L803.1,235.8z"/>
	</g>
</g>
<g id="XMLID_16_">
	<g id="XMLID_124_">
		<path id="XMLID_129_" class="st3" d="M675.5,270.6c1.9,0,3.9,0,5.8,0c1,0,1-1.6,0-1.6c-1.9,0-3.9,0-5.8,0
			C674.4,269,674.4,270.6,675.5,270.6L675.5,270.6z"/>
	</g>
</g>
<circle id="XMLID_237_" class="st4" cx="1004.2" cy="211" r="8.1"/>
<g id="XMLID_236_">
	<g id="XMLID_303_">
		<path id="XMLID_307_" class="st2" d="M998.7,211.7c3.6,0,7.2,0,10.8,0c1,0,1-1.5,0-1.5c-3.6,0-7.2,0-10.8,0
			C997.8,210.2,997.8,211.7,998.7,211.7L998.7,211.7z"/>
	</g>
</g>
<g id="XMLID_235_">
	<g id="XMLID_297_">
		<path id="XMLID_301_" class="st2" d="M1004.9,216.4c0-3.6,0-7.2,0-10.8c0-1-1.5-1-1.5,0c0,3.6,0,7.2,0,10.8
			C1003.4,217.4,1004.9,217.4,1004.9,216.4L1004.9,216.4z"/>
	</g>
</g>
<circle id="XMLID_234_" class="st5" cx="1012.3" cy="211" r="8.1"/>
<circle id="XMLID_233_" class="st5" cx="1001.5" cy="221.8" r="8.1"/>
<circle id="XMLID_232_" class="st4" cx="1020.4" cy="216.4" r="8.1"/>
<g id="XMLID_226_">
	<g id="XMLID_291_">
		<path id="XMLID_295_" class="st2" d="M1015,217.1c3.6,0,7.2,0,10.8,0c1,0,1-1.5,0-1.5c-3.6,0-7.2,0-10.8,0
			C1014,215.6,1014,217.1,1015,217.1L1015,217.1z"/>
	</g>
</g>
<g id="XMLID_220_">
	<g id="XMLID_285_">
		<path id="XMLID_289_" class="st2" d="M1021.1,221.8c0-3.6,0-7.2,0-10.8c0-1-1.5-1-1.5,0c0,3.6,0,7.2,0,10.8
			C1019.6,222.8,1021.1,222.8,1021.1,221.8L1021.1,221.8z"/>
	</g>
</g>
<circle id="XMLID_214_" class="st5" cx="1015" cy="224.5" r="8.1"/>
<circle id="XMLID_213_" class="st4" cx="1006.9" cy="229.9" r="8.1"/>
<g id="XMLID_209_">
	<g id="XMLID_279_">
		<path id="XMLID_283_" class="st2" d="M1001.5,230.7c3.6,0,7.2,0,10.8,0c1,0,1-1.5,0-1.5c-3.6,0-7.2,0-10.8,0
			C1000.5,229.2,1000.5,230.7,1001.5,230.7L1001.5,230.7z"/>
	</g>
</g>
<g id="XMLID_208_">
	<g id="XMLID_273_">
		<path id="XMLID_277_" class="st2" d="M1007.6,235.3c0-3.6,0-7.2,0-10.8c0-1-1.5-1-1.5,0c0,3.6,0,7.2,0,10.8
			C1006.1,236.3,1007.6,236.3,1007.6,235.3L1007.6,235.3z"/>
	</g>
</g>
<g id="XMLID_202_">
	<g id="XMLID_267_">
		<path id="XMLID_271_" class="st0" d="M1069.6,219.1c-0.3,25.1-15.9,47.9-39.6,56.5c-23.4,8.5-50.4,1.2-66.3-17.8
			c-16.3-19.4-18.6-47.7-5.5-69.5c13-21.6,38.8-33,63.6-28C1049.5,166,1069.3,190.9,1069.6,219.1c0,1,1.5,1,1.5,0
			c-0.3-25.5-16.1-48.7-40.1-57.7c-24.5-9.1-52.8-1.3-69.3,19c-16,19.8-18.1,48.4-5,70.3c13.2,22,39.4,33.7,64.6,28.8
			c28.8-5.6,49.4-31.3,49.7-60.4C1071.1,218.1,1069.6,218.1,1069.6,219.1z"/>
	</g>
</g>
<g id="XMLID_196_">
	<g id="XMLID_261_">
		<path id="XMLID_265_" class="st0" d="M1080.7,219.1c-0.3,29.8-19.1,57.1-47.4,67.1c-27.8,9.8-59.6,1.1-78.5-21.6
			c-19.2-23-21.7-56.6-6.3-82.2c15.4-25.5,45.9-39,75.1-33.1C1056.7,156,1080.4,185.6,1080.7,219.1c0,1,1.5,1,1.5,0
			c-0.3-30.1-18.9-57.5-47.2-68.1c-28.8-10.8-62.1-1.7-81.6,22c-19.2,23.5-21.8,57.5-6.1,83.5c15.6,25.9,46.4,39.6,76.1,33.9
			c34-6.5,58.5-37,58.8-71.3C1082.2,218.1,1080.7,218.1,1080.7,219.1z"/>
	</g>
</g>
<g id="XMLID_190_">
	<g id="XMLID_255_">
		<path id="XMLID_259_" class="st0" d="M1092.7,219.1c-0.3,34.8-22.3,66.7-55.3,78.4c-32.4,11.5-69.3,1.4-91.4-24.8
			c-22.7-26.9-25.8-66.5-7.5-96.6c17.9-29.6,53.4-45.2,87.3-38.5C1064.5,145.2,1092.4,179.9,1092.7,219.1c0,1,1.5,1,1.5,0
			c-0.3-35.1-22.2-67.1-55.2-79.4c-33.5-12.5-72.4-1.9-95,25.8c-22.4,27.4-25.3,67.1-6.9,97.4c18.3,30.2,54.4,46.1,89,39.2
			c39.3-7.8,67.7-43.1,68-83C1094.2,218.1,1092.7,218.1,1092.7,219.1z"/>
	</g>
</g>
<g id="XMLID_184_">
	<g id="XMLID_249_">
		<path id="XMLID_253_" class="st0" d="M1059.2,219.1c-0.3,20.7-13.1,39.5-32.7,46.7c-19.3,7-41.4,1.1-54.7-14.4
			c-13.6-15.9-15.7-39.3-5.1-57.3c10.6-18.2,32.2-27.8,52.8-23.6C1042.6,175.2,1058.9,195.8,1059.2,219.1c0,1,1.5,1,1.5,0
			c-0.3-21.1-13.2-40.4-33.2-47.9c-20.3-7.6-43.9-1.3-57.6,15.5c-13.5,16.5-15.2,40.4-4.2,58.7c11,18.2,32.6,27.8,53.5,23.8
			c24-4.6,41.1-26,41.4-50.2C1060.7,218.1,1059.2,218.1,1059.2,219.1z"/>
	</g>
</g>
<circle id="XMLID_117_" class="st0" cx="959.2" cy="219.1" r="5.4"/>
<g id="XMLID_116_">
	<g id="XMLID_243_">
		<path id="XMLID_247_" class="st3" d="M956.5,219.9c1.8,0,3.6,0,5.4,0c1,0,1-1.5,0-1.5c-1.8,0-3.6,0-5.4,0
			C955.5,218.3,955.5,219.9,956.5,219.9L956.5,219.9z"/>
	</g>
</g>
<circle id="XMLID_114_" class="st0" cx="1060" cy="219.1" r="5.4"/>
<g id="XMLID_113_">
	<g id="XMLID_231_">
		<path id="XMLID_241_" class="st3" d="M1057.2,219.9c1.8,0,3.6,0,5.4,0c1,0,1-1.5,0-1.5c-1.8,0-3.6,0-5.4,0
			C1056.3,218.3,1056.3,219.9,1057.2,219.9L1057.2,219.9z"/>
	</g>
</g>
<circle id="XMLID_112_" class="st0" cx="1009.6" cy="158.3" r="5.4"/>
<g id="XMLID_111_">
	<g id="XMLID_229_">
		<path id="XMLID_302_" class="st3" d="M1006.9,159.1c1.8,0,3.6,0,5.4,0c1,0,1-1.5,0-1.5c-1.8,0-3.6,0-5.4,0
			C1005.9,157.6,1005.9,159.1,1006.9,159.1L1006.9,159.1z"/>
	</g>
</g>
<circle id="XMLID_329_" class="st4" cx="1281.9" cy="207" r="7.7"/>
<g id="XMLID_328_">
	<g id="XMLID_371_">
		<path id="XMLID_375_" class="st2" d="M1276.7,207.7c3.4,0,6.9,0,10.3,0c0.9,0,0.9-1.4,0-1.4c-3.4,0-6.9,0-10.3,0
			C1275.8,206.3,1275.8,207.7,1276.7,207.7L1276.7,207.7z"/>
	</g>
</g>
<g id="XMLID_327_">
	<g id="XMLID_365_">
		<path id="XMLID_369_" class="st2" d="M1282.6,212.1c0-3.4,0-6.9,0-10.3c0-0.9-1.4-0.9-1.4,0c0,3.4,0,6.9,0,10.3
			C1281.2,213.1,1282.6,213.1,1282.6,212.1L1282.6,212.1z"/>
	</g>
</g>
<circle id="XMLID_326_" class="st5" cx="1289.6" cy="207" r="7.7"/>
<circle id="XMLID_325_" class="st5" cx="1279.3" cy="217.3" r="7.7"/>
<circle id="XMLID_323_" class="st4" cx="1297.3" cy="212.1" r="7.7"/>
<g id="XMLID_311_">
	<g id="XMLID_359_">
		<path id="XMLID_363_" class="st2" d="M1292.2,212.9c3.4,0,6.9,0,10.3,0c0.9,0,0.9-1.4,0-1.4c-3.4,0-6.9,0-10.3,0
			C1291.2,211.4,1291.2,212.9,1292.2,212.9L1292.2,212.9z"/>
	</g>
</g>
<g id="XMLID_310_">
	<g id="XMLID_353_">
		<path id="XMLID_357_" class="st2" d="M1298,217.3c0-3.4,0-6.9,0-10.3c0-0.9-1.4-0.9-1.4,0c0,3.4,0,6.9,0,10.3
			C1296.6,218.2,1298,218.2,1298,217.3L1298,217.3z"/>
	</g>
</g>
<circle id="XMLID_309_" class="st5" cx="1292.2" cy="219.9" r="7.7"/>
<circle id="XMLID_308_" class="st4" cx="1284.5" cy="225" r="7.7"/>
<g id="XMLID_278_">
	<g id="XMLID_347_">
		<path id="XMLID_351_" class="st2" d="M1279.3,225.7c3.4,0,6.9,0,10.3,0c0.9,0,0.9-1.4,0-1.4c-3.4,0-6.9,0-10.3,0
			C1278.4,224.3,1278.4,225.7,1279.3,225.7L1279.3,225.7z"/>
	</g>
</g>
<g id="XMLID_272_">
	<g id="XMLID_344_">
		<path id="XMLID_370_" class="st2" d="M1285.2,230.1c0-3.4,0-6.9,0-10.3c0-0.9-1.4-0.9-1.4,0c0,3.4,0,6.9,0,10.3
			C1283.7,231,1285.2,231,1285.2,230.1L1285.2,230.1z"/>
	</g>
</g>
<circle id="XMLID_266_" class="st6" cx="1287" cy="214.7" r="82.2"/>
<g id="XMLID_260_" class="st7">
	<path id="XMLID_332_" class="st8" d="M1287,212.8c3.6-12.3,8.4-24.6,16.4-33.3c7.3-8,22.9-14.1,33.3,0.8l-0.1-0.2
		c9.7,15.3-1.9,27.4-12.1,31c-11.1,3.9-24.3,3.7-37.1,2.2"/>
</g>
<g id="XMLID_217_" class="st7">
	<path id="XMLID_333_" class="st9" d="M1286.2,212.7c-3.6-12.3-8.4-24.6-16.4-33.3c-7.3-8-22.9-14.1-33.3,0.8l0.1-0.2
		c-9.7,15.3,1.9,27.4,12.1,31c11.1,3.9,24.3,3.7,37.1,2.2"/>
</g>
<circle id="XMLID_216_" class="st10" cx="1287" cy="214.7" r="25.7"/>
<g id="XMLID_215_" class="st7">
	<path id="XMLID_334_" class="st0" d="M1286.7,212.4c7.8-12.3,14.9-26,17.6-40.4c2.5-13.2-0.9-33.8-17.9-34.3h0.2
		c-17,0.5-20.4,21.1-17.9,34.3c2.7,14.4,9.8,28.1,17.6,40.4"/>
</g>
<g id="XMLID_212_" class="st7">
	<path id="XMLID_335_" class="st9" d="M1287,213.9c3.2,14.2,7.9,28.9,16.2,41c7.6,11.1,24.6,23.3,37,11.6l-0.2,0.2
		c11.7-12.4-0.5-29.4-11.6-37c-12.1-8.3-26.8-13-41-16.2"/>
</g>
<g id="XMLID_211_" class="st7">
	<path id="XMLID_336_" class="st0" d="M1286.2,214.1c-7.8,12.3-14.9,26-17.6,40.4c-2.5,13.2,0.9,33.8,17.9,34.3h-0.2
		c17-0.5,20.4-21.1,17.9-34.3c-2.7-14.4-9.8-28.1-17.6-40.4"/>
</g>
<g id="XMLID_210_" class="st7">
	<path id="XMLID_352_" class="st8" d="M1286.1,214c-3.2,14.2-7.9,28.9-16.2,41c-7.6,11.1-24.6,23.3-37,11.6l0.2,0.2
		c-11.7-12.4,0.5-29.4,11.6-37c12.1-8.3,26.8-13,41-16.2"/>
</g>
</svg>
