<?xml version="1.0" encoding="utf-8"?>
<!-- Generator: Adobe Illustrator 19.0.0, SVG Export Plug-In . SVG Version: 6.00 Build 0)  -->
<svg version="1.1" xmlns="http://www.w3.org/2000/svg" xmlns:xlink="http://www.w3.org/1999/xlink" x="0px" y="0px"
	 viewBox="0 0 720 720" style="enable-background:new 0 0 720 720;" xml:space="preserve">
<style type="text/css">
	.st0{fill:#C55857;}
	.st1{fill:#AB1F23;}
	.st2{fill:#FAD466;}
	.st3{opacity:0.25;fill:#82C3BB;}
	.st4{opacity:0.25;fill:#EBCB8F;}
	.st5{opacity:0.25;fill:#CB2030;}
	.st6{opacity:0.25;}
	.st7{fill:#82C341;}
	.st8{fill:#58469C;}
	.st9{fill:#00A9B1;}
</style>
<g id="Layer_1">
	<circle id="XMLID_33_" class="st0" cx="342" cy="333" r="27"/>
	<g id="XMLID_32_">
		<g id="XMLID_82_">
			<path id="XMLID_86_" class="st1" d="M324,335.5c12,0,24,0,36,0c3.2,0,3.2-5,0-5c-12,0-24,0-36,0
				C320.8,330.5,320.8,335.5,324,335.5L324,335.5z"/>
		</g>
	</g>
	<g id="XMLID_20_">
		<g id="XMLID_76_">
			<path id="XMLID_80_" class="st1" d="M344.5,351c0-12,0-24,0-36c0-3.2-5-3.2-5,0c0,12,0,24,0,36
				C339.5,354.2,344.5,354.2,344.5,351L344.5,351z"/>
		</g>
	</g>
	<circle id="XMLID_11_" class="st2" cx="369" cy="333" r="27"/>
	<circle id="XMLID_10_" class="st2" cx="333" cy="369" r="27"/>
	<circle id="XMLID_5_" class="st0" cx="396" cy="351" r="27"/>
	<g id="XMLID_6_">
		<g id="XMLID_70_">
			<path id="XMLID_74_" class="st1" d="M378,353.5c12,0,24,0,36,0c3.2,0,3.2-5,0-5c-12,0-24,0-36,0
				C374.8,348.5,374.8,353.5,378,353.5L378,353.5z"/>
		</g>
	</g>
	<g id="XMLID_4_">
		<g id="XMLID_64_">
			<path id="XMLID_68_" class="st1" d="M398.5,369c0-12,0-24,0-36c0-3.2-5-3.2-5,0c0,12,0,24,0,36
				C393.5,372.2,398.5,372.2,398.5,369L398.5,369z"/>
		</g>
	</g>
	<circle id="XMLID_3_" class="st2" cx="378" cy="378" r="27"/>
	<circle id="XMLID_26_" class="st0" cx="351" cy="396" r="27"/>
	<g id="XMLID_2_">
		<g id="XMLID_58_">
			<path id="XMLID_62_" class="st1" d="M333,398.5c12,0,24,0,36,0c3.2,0,3.2-5,0-5c-12,0-24,0-36,0
				C329.8,393.5,329.8,398.5,333,398.5L333,398.5z"/>
		</g>
	</g>
	<g id="XMLID_1_">
		<g id="XMLID_52_">
			<path id="XMLID_56_" class="st1" d="M353.5,414c0-12,0-24,0-36c0-3.2-5-3.2-5,0c0,12,0,24,0,36
				C348.5,417.2,353.5,417.2,353.5,414L353.5,414z"/>
		</g>
	</g>
</g>
<g id="Layer_2">
	<circle id="XMLID_16_" class="st3" cx="360" cy="360" r="288"/>
	<circle id="XMLID_18_" class="st4" cx="360" cy="360" r="117"/>
	<circle id="XMLID_7_" class="st5" cx="360" cy="360" r="83.1"/>
	<g id="XMLID_15_" class="st6">
		<path id="XMLID_41_" class="st7" d="M359.9,353.3c12.5-43,29.5-86.1,57.3-116.7c25.4-28.1,80.1-49.3,116.5,2.7l-0.5-0.8
			c33.9,53.6-6.7,95.9-42.4,108.5c-39,13.8-85.3,12.9-129.8,7.8"/>
	</g>
	<g id="XMLID_12_" class="st6">
		<path id="XMLID_30_" class="st8" d="M357,352.8c-12.5-43-29.5-86.1-57.3-116.7c-25.4-28.1-80.1-49.3-116.5,2.7l0.5-0.8
			c-33.9,53.6,6.7,95.9,42.4,108.5c39,13.8,85.3,12.9,129.8,7.8"/>
	</g>
	<g id="XMLID_9_" class="st6">
		<path id="XMLID_19_" class="st9" d="M358.9,352c27.2-43.1,52-91.1,61.6-141.7c8.7-46.3-3.2-118.5-62.9-120.3h0.9
			c-59.7,1.8-71.6,74-62.9,120.3c9.5,50.6,34.4,98.5,61.6,141.7"/>
	</g>
	<g id="XMLID_8_" class="st6">
		<path id="XMLID_27_" class="st8" d="M360,357c11.3,49.8,27.6,101.2,56.6,143.7c26.6,38.9,86,81.5,129.5,40.6l-0.6,0.6
			c40.9-43.5-1.7-103-40.6-129.5c-42.5-29-93.9-45.4-143.7-56.6"/>
	</g>
	<g id="XMLID_13_" class="st6">
		<path id="XMLID_34_" class="st9" d="M357.1,357.9c-27.2,43.1-52,91.1-61.6,141.7c-8.7,46.3,3.2,118.5,62.9,120.3h-0.9
			c59.7-1.8,71.6-74,62.9-120.3c-9.5-50.6-34.4-98.5-61.6-141.7"/>
	</g>
	<g id="XMLID_14_" class="st6">
		<path id="XMLID_38_" class="st7" d="M356.9,357.5c-11.3,49.8-27.6,101.2-56.6,143.7c-26.6,38.9-86,81.5-129.5,40.6l0.6,0.6
			c-40.9-43.5,1.7-103,40.6-129.5c42.5-29,93.9-45.4,143.7-56.6"/>
	</g>
</g>
</svg>
