<svg id="Layer_1" data-name="Layer 1" xmlns="http://www.w3.org/2000/svg" viewBox="0 0 886.5 882.4"><title>atomicstructure</title><path d="M646.7,453.7a5.65,5.65,0,1,1-4.2-6.8A5.58,5.58,0,0,1,646.7,453.7Z" style="fill:#fff"/><g style="opacity:0.20000000298023224"><path d="M453.5,136.5A258.7,258.7,0,1,1,194.8,395.2,258.41,258.41,0,0,1,453.5,136.5Z" style="fill:#03a2a3"/><path d="M407.8,114.7h17.1v51.2H407.8V114.7Z" style="fill:none"/><circle cx="409.8" cy="126.1" r="2" style="fill:#fff"/><circle cx="415.9" cy="115.7" r="1" style="fill:#fff"/><circle cx="414" cy="146.6" r="1" style="fill:#fff"/><circle cx="423.1" cy="153.1" r="1.8" style="fill:#fff"/><circle cx="415.9" cy="163.3" r="2.6" style="fill:#fff"/><circle cx="419.1" cy="135.3" r="1.5" style="fill:#fff"/><path d="M358.3,126.9h17.1v51.2H358.3V126.9Z" style="fill:none"/><circle cx="360.3" cy="138.2" r="2" style="fill:#fff"/><circle cx="366.4" cy="127.9" r="1" style="fill:#fff"/><circle cx="364.5" cy="158.8" r="1" style="fill:#fff"/><circle cx="373.7" cy="165.3" r="1.8" style="fill:#fff"/><circle cx="366.4" cy="175.5" r="2.6" style="fill:#fff"/><circle cx="369.6" cy="147.5" r="1.5" style="fill:#fff"/><path d="M312.2,148.6h17.1v51.2H312.2V148.6Z" style="fill:none"/><circle cx="314.2" cy="159.9" r="2" style="fill:#fff"/><circle cx="320.3" cy="149.6" r="1" style="fill:#fff"/><circle cx="318.4" cy="180.5" r="1" style="fill:#fff"/><circle cx="327.5" cy="187" r="1.8" style="fill:#fff"/><circle cx="320.3" cy="197.2" r="2.6" style="fill:#fff"/><circle cx="323.5" cy="169.2" r="1.5" style="fill:#fff"/><path d="M271.3,178.9h17.1v51.2H271.3V178.9Z" style="fill:none"/><circle cx="273.3" cy="190.3" r="2" style="fill:#fff"/><circle cx="279.3" cy="179.9" r="1" style="fill:#fff"/><circle cx="277.5" cy="210.9" r="1" style="fill:#fff"/><circle cx="286.6" cy="217.3" r="1.8" style="fill:#fff"/><circle cx="279.3" cy="227.6" r="2.6" style="fill:#fff"/><circle cx="282.6" cy="199.6" r="1.5" style="fill:#fff"/><path d="M237.1,216.8h17.1V268H237.1V216.8Z" style="fill:none"/><circle cx="239.1" cy="228.1" r="2" style="fill:#fff"/><circle cx="245.2" cy="217.8" r="1" style="fill:#fff"/><circle cx="243.3" cy="248.7" r="1" style="fill:#fff"/><circle cx="252.4" cy="255.2" r="1.8" style="fill:#fff"/><circle cx="245.2" cy="265.4" r="2.6" style="fill:#fff"/><circle cx="248.4" cy="237.4" r="1.5" style="fill:#fff"/><path d="M211.1,260.6h17.1v51.2H211.1V260.6Z" style="fill:none"/><circle cx="213.1" cy="272" r="2" style="fill:#fff"/><circle cx="219.1" cy="261.6" r="1" style="fill:#fff"/><circle cx="217.2" cy="292.6" r="1" style="fill:#fff"/><circle cx="226.4" cy="299" r="1.8" style="fill:#fff"/><circle cx="219.1" cy="309.2" r="2.6" style="fill:#fff"/><circle cx="222.3" cy="281.3" r="1.5" style="fill:#fff"/><path d="M194.2,308.8h17.1V360H194.2V308.8Z" style="fill:none"/><circle cx="196.2" cy="320.1" r="2" style="fill:#fff"/><circle cx="202.3" cy="309.8" r="1" style="fill:#fff"/><circle cx="200.4" cy="340.7" r="1" style="fill:#fff"/><circle cx="209.5" cy="347.2" r="1.8" style="fill:#fff"/><circle cx="202.3" cy="357.4" r="2.6" style="fill:#fff"/><circle cx="205.5" cy="329.4" r="1.5" style="fill:#fff"/><path d="M187.3,359.3h17.1v51.2H187.3V359.3Z" style="fill:none"/><circle cx="189.3" cy="370.7" r="2" style="fill:#fff"/><circle cx="195.4" cy="360.3" r="1" style="fill:#fff"/><circle cx="193.5" cy="391.3" r="1" style="fill:#fff"/><circle cx="202.7" cy="397.7" r="1.8" style="fill:#fff"/><circle cx="195.4" cy="407.9" r="2.6" style="fill:#fff"/><circle cx="198.6" cy="380" r="1.5" style="fill:#fff"/><path d="M190.4,410.2h17.1v51.2H190.4V410.2Z" style="fill:none"/><circle cx="192.4" cy="421.6" r="2" style="fill:#fff"/><circle cx="198.4" cy="411.2" r="1" style="fill:#fff"/><circle cx="196.6" cy="442.2" r="1" style="fill:#fff"/><circle cx="205.7" cy="448.6" r="1.8" style="fill:#fff"/><circle cx="198.4" cy="458.8" r="2.6" style="fill:#fff"/><circle cx="201.7" cy="430.9" r="1.5" style="fill:#fff"/><path d="M203.2,459.6h17.1v51.2H203.2V459.6Z" style="fill:none"/><circle cx="205.2" cy="470.9" r="2" style="fill:#fff"/><circle cx="211.3" cy="460.6" r="1" style="fill:#fff"/><circle cx="209.4" cy="491.5" r="1" style="fill:#fff"/><circle cx="218.5" cy="498" r="1.8" style="fill:#fff"/><circle cx="211.3" cy="508.2" r="2.6" style="fill:#fff"/><circle cx="214.5" cy="480.2" r="1.5" style="fill:#fff"/><path d="M225.6,505.4h17.1v51.2H225.6V505.4Z" style="fill:none"/><circle cx="227.6" cy="516.8" r="2" style="fill:#fff"/><circle cx="233.6" cy="506.4" r="1" style="fill:#fff"/><circle cx="231.7" cy="537.3" r="1" style="fill:#fff"/><circle cx="240.9" cy="543.8" r="1.8" style="fill:#fff"/><circle cx="233.6" cy="554" r="2.6" style="fill:#fff"/><circle cx="236.8" cy="526" r="1.5" style="fill:#fff"/><path d="M256.5,546h17.1v51.2H256.5V546Z" style="fill:none"/><circle cx="258.5" cy="557.3" r="2" style="fill:#fff"/><circle cx="264.5" cy="547" r="1" style="fill:#fff"/><circle cx="262.6" cy="577.9" r="1" style="fill:#fff"/><circle cx="271.8" cy="584.4" r="1.8" style="fill:#fff"/><circle cx="264.5" cy="594.6" r="2.6" style="fill:#fff"/><circle cx="267.8" cy="566.6" r="1.5" style="fill:#fff"/><path d="M294.8,579.7h17.1v51.2H294.8V579.7Z" style="fill:none"/><circle cx="296.8" cy="591" r="2" style="fill:#fff"/><circle cx="302.8" cy="580.7" r="1" style="fill:#fff"/><circle cx="300.9" cy="611.6" r="1" style="fill:#fff"/><circle cx="310.1" cy="618.1" r="1.8" style="fill:#fff"/><circle cx="302.8" cy="628.3" r="2.6" style="fill:#fff"/><circle cx="306.1" cy="600.3" r="1.5" style="fill:#fff"/><path d="M339,605.2h17.1v51.2H339V605.2Z" style="fill:none"/><circle cx="341" cy="616.6" r="2" style="fill:#fff"/><circle cx="347" cy="606.2" r="1" style="fill:#fff"/><circle cx="345.2" cy="637.1" r="1" style="fill:#fff"/><circle cx="354.3" cy="643.6" r="1.8" style="fill:#fff"/><circle cx="347" cy="653.8" r="2.6" style="fill:#fff"/><circle cx="350.3" cy="625.8" r="1.5" style="fill:#fff"/><path d="M387.4,621.4h17.1v51.2H387.4V621.4Z" style="fill:none"/><circle cx="389.4" cy="632.8" r="2" style="fill:#fff"/><circle cx="395.5" cy="622.4" r="1" style="fill:#fff"/><circle cx="393.6" cy="653.3" r="1" style="fill:#fff"/><circle cx="402.7" cy="659.8" r="1.8" style="fill:#fff"/><circle cx="395.5" cy="670" r="2.6" style="fill:#fff"/><circle cx="398.7" cy="642" r="1.5" style="fill:#fff"/><path d="M438.1,627.6h17.1v51.2H438.1V627.6Z" style="fill:none"/><circle cx="440.1" cy="639" r="2" style="fill:#fff"/><circle cx="446.2" cy="628.6" r="1" style="fill:#fff"/><circle cx="444.3" cy="659.5" r="1" style="fill:#fff"/><circle cx="453.4" cy="666" r="1.8" style="fill:#fff"/><circle cx="446.2" cy="676.2" r="2.6" style="fill:#fff"/><circle cx="449.4" cy="648.2" r="1.5" style="fill:#fff"/><path d="M489,623.9h17.1v51.2H489V623.9Z" style="fill:none"/><circle cx="491" cy="635.2" r="2" style="fill:#fff"/><circle cx="497.1" cy="624.9" r="1" style="fill:#fff"/><circle cx="495.2" cy="655.8" r="1" style="fill:#fff"/><circle cx="504.3" cy="662.3" r="1.8" style="fill:#fff"/><circle cx="497.1" cy="672.5" r="2.6" style="fill:#fff"/><circle cx="500.3" cy="644.5" r="1.5" style="fill:#fff"/><path d="M538.2,610.4h17.1v51.2H538.2V610.4Z" style="fill:none"/><circle cx="540.2" cy="621.7" r="2" style="fill:#fff"/><circle cx="546.3" cy="611.4" r="1" style="fill:#fff"/><circle cx="544.4" cy="642.3" r="1" style="fill:#fff"/><circle cx="553.5" cy="648.7" r="1.8" style="fill:#fff"/><circle cx="546.3" cy="659" r="2.6" style="fill:#fff"/><circle cx="549.5" cy="631" r="1.5" style="fill:#fff"/><path d="M583.8,587.4h17.1v51.2H583.8V587.4Z" style="fill:none"/><circle cx="585.8" cy="598.8" r="2" style="fill:#fff"/><circle cx="591.8" cy="588.4" r="1" style="fill:#fff"/><circle cx="589.9" cy="619.3" r="1" style="fill:#fff"/><circle cx="599.1" cy="625.8" r="1.8" style="fill:#fff"/><circle cx="591.8" cy="636" r="2.6" style="fill:#fff"/><circle cx="595.1" cy="608" r="1.5" style="fill:#fff"/><path d="M624,555.9h17.1v51.2H624V555.9Z" style="fill:none"/><circle cx="626" cy="567.3" r="2" style="fill:#fff"/><circle cx="632" cy="556.9" r="1" style="fill:#fff"/><circle cx="630.1" cy="587.9" r="1" style="fill:#fff"/><circle cx="639.3" cy="594.3" r="1.8" style="fill:#fff"/><circle cx="632" cy="604.5" r="2.6" style="fill:#fff"/><circle cx="635.3" cy="576.6" r="1.5" style="fill:#fff"/><path d="M657.2,517.2h17.1v51.2H657.2V517.2Z" style="fill:none"/><circle cx="659.2" cy="528.5" r="2" style="fill:#fff"/><circle cx="665.3" cy="518.2" r="1" style="fill:#fff"/><circle cx="663.4" cy="549.1" r="1" style="fill:#fff"/><circle cx="672.5" cy="555.5" r="1.8" style="fill:#fff"/><circle cx="665.3" cy="565.8" r="2.6" style="fill:#fff"/><circle cx="668.5" cy="537.8" r="1.5" style="fill:#fff"/><path d="M682.2,472.6h17.1v51.2H682.2V472.6Z" style="fill:none"/><circle cx="684.2" cy="483.9" r="2" style="fill:#fff"/><circle cx="690.2" cy="473.6" r="1" style="fill:#fff"/><circle cx="688.4" cy="504.5" r="1" style="fill:#fff"/><circle cx="697.5" cy="511" r="1.8" style="fill:#fff"/><circle cx="690.2" cy="521.2" r="2.6" style="fill:#fff"/><circle cx="693.5" cy="493.2" r="1.5" style="fill:#fff"/><path d="M697.8,423.9h17.1v51.2H697.8V423.9Z" style="fill:none"/><circle cx="699.8" cy="435.2" r="2" style="fill:#fff"/><circle cx="705.8" cy="424.9" r="1" style="fill:#fff"/><circle cx="703.9" cy="455.8" r="1" style="fill:#fff"/><circle cx="713.1" cy="462.3" r="1.8" style="fill:#fff"/><circle cx="705.8" cy="472.5" r="2.6" style="fill:#fff"/><circle cx="709" cy="444.5" r="1.5" style="fill:#fff"/><path d="M703.3,373.1h17.1v51.2H703.3V373.1Z" style="fill:none"/><circle cx="705.3" cy="384.4" r="2" style="fill:#fff"/><circle cx="711.3" cy="374.1" r="1" style="fill:#fff"/><circle cx="709.5" cy="405" r="1" style="fill:#fff"/><circle cx="718.6" cy="411.5" r="1.8" style="fill:#fff"/><circle cx="711.3" cy="421.7" r="2.6" style="fill:#fff"/><circle cx="714.6" cy="393.7" r="1.5" style="fill:#fff"/><path d="M698.9,322.2H716v51.2H698.9V322.2Z" style="fill:none"/><circle cx="700.9" cy="333.5" r="2" style="fill:#fff"/><circle cx="706.9" cy="323.2" r="1" style="fill:#fff"/><circle cx="705" cy="354.1" r="1" style="fill:#fff"/><circle cx="714.2" cy="360.6" r="1.8" style="fill:#fff"/><circle cx="706.9" cy="370.8" r="2.6" style="fill:#fff"/><circle cx="710.1" cy="342.8" r="1.5" style="fill:#fff"/><path d="M684.7,273.1h17.1v51.2H684.7V273.1Z" style="fill:none"/><circle cx="686.7" cy="284.5" r="2" style="fill:#fff"/><circle cx="692.7" cy="274.1" r="1" style="fill:#fff"/><circle cx="690.8" cy="305" r="1" style="fill:#fff"/><circle cx="700" cy="311.5" r="1.8" style="fill:#fff"/><circle cx="692.7" cy="321.7" r="2.6" style="fill:#fff"/><circle cx="695.9" cy="293.7" r="1.5" style="fill:#fff"/><path d="M661.1,227.8h17.1V279H661.1V227.8Z" style="fill:none"/><circle cx="663.1" cy="239.1" r="2" style="fill:#fff"/><circle cx="669.1" cy="228.8" r="1" style="fill:#fff"/><circle cx="667.3" cy="259.7" r="1" style="fill:#fff"/><circle cx="676.4" cy="266.2" r="1.8" style="fill:#fff"/><circle cx="669.1" cy="276.4" r="2.6" style="fill:#fff"/><circle cx="672.4" cy="248.4" r="1.5" style="fill:#fff"/><path d="M629.1,188h17.1v51.2H629.1V188Z" style="fill:none"/><circle cx="631.1" cy="199.3" r="2" style="fill:#fff"/><circle cx="637.1" cy="189" r="1" style="fill:#fff"/><circle cx="635.2" cy="219.9" r="1" style="fill:#fff"/><circle cx="644.4" cy="226.4" r="1.8" style="fill:#fff"/><circle cx="637.1" cy="236.6" r="2.6" style="fill:#fff"/><circle cx="640.3" cy="208.6" r="1.5" style="fill:#fff"/><path d="M589.8,155.2h17.1v51.2H589.8V155.2Z" style="fill:none"/><circle cx="591.8" cy="166.5" r="2" style="fill:#fff"/><circle cx="597.9" cy="156.2" r="1" style="fill:#fff"/><circle cx="596" cy="187.1" r="1" style="fill:#fff"/><circle cx="605.1" cy="193.6" r="1.8" style="fill:#fff"/><circle cx="597.9" cy="203.8" r="2.6" style="fill:#fff"/><circle cx="601.1" cy="175.8" r="1.5" style="fill:#fff"/><path d="M544.8,131h17.1v51.2H544.8V131Z" style="fill:none"/><circle cx="546.8" cy="142.3" r="2" style="fill:#fff"/><circle cx="552.8" cy="132" r="1" style="fill:#fff"/><circle cx="551" cy="162.9" r="1" style="fill:#fff"/><circle cx="560.1" cy="169.3" r="1.8" style="fill:#fff"/><circle cx="552.8" cy="179.6" r="2.6" style="fill:#fff"/><circle cx="556.1" cy="151.6" r="1.5" style="fill:#fff"/><path d="M495.9,116.1H513v51.2H495.9V116.1Z" style="fill:none"/><circle cx="497.9" cy="127.4" r="2" style="fill:#fff"/><circle cx="503.9" cy="117.1" r="1" style="fill:#fff"/><circle cx="502" cy="148" r="1" style="fill:#fff"/><circle cx="511.2" cy="154.5" r="1.8" style="fill:#fff"/><circle cx="503.9" cy="164.7" r="2.6" style="fill:#fff"/><circle cx="507.2" cy="136.7" r="1.5" style="fill:#fff"/><path d="M445,111h17.1v51.2H445V111Z" style="fill:none"/><circle cx="447" cy="122.3" r="2" style="fill:#fff"/><circle cx="453" cy="112" r="1" style="fill:#fff"/><circle cx="451.1" cy="142.9" r="1" style="fill:#fff"/><circle cx="460.3" cy="149.4" r="1.8" style="fill:#fff"/><circle cx="453" cy="159.6" r="2.6" style="fill:#fff"/><circle cx="456.2" cy="131.6" r="1.5" style="fill:#fff"/></g><g style="opacity:0.20000000298023224"><path d="M453.5,226.5A168.7,168.7,0,1,1,284.8,395.2,168.47,168.47,0,0,1,453.5,226.5h0Z" style="fill:#03a2a3"/><path d="M410.1,204.9h17.1v51.2H410.1V204.9Z" style="fill:none"/><circle cx="412.1" cy="216.3" r="2" style="fill:#fff"/><circle cx="418.1" cy="205.9" r="1" style="fill:#fff"/><circle cx="416.2" cy="236.8" r="1" style="fill:#fff"/><circle cx="425.4" cy="243.3" r="1.8" style="fill:#fff"/><circle cx="418.1" cy="253.5" r="2.6" style="fill:#fff"/><circle cx="421.3" cy="225.6" r="1.5" style="fill:#fff"/><path d="M362.6,223.2h17.1v51.2H362.6V223.2Z" style="fill:none"/><circle cx="364.6" cy="234.5" r="2" style="fill:#fff"/><circle cx="370.7" cy="224.2" r="1" style="fill:#fff"/><circle cx="368.8" cy="255.1" r="1" style="fill:#fff"/><circle cx="377.9" cy="261.6" r="1.8" style="fill:#fff"/><circle cx="370.7" cy="271.8" r="2.6" style="fill:#fff"/><circle cx="373.9" cy="243.8" r="1.5" style="fill:#fff"/><path d="M322.7,254.6h17.1v51.2H322.7V254.6Z" style="fill:none"/><circle cx="324.7" cy="266" r="2" style="fill:#fff"/><circle cx="330.7" cy="255.6" r="1" style="fill:#fff"/><circle cx="328.8" cy="286.6" r="1" style="fill:#fff"/><circle cx="338" cy="293" r="1.8" style="fill:#fff"/><circle cx="330.7" cy="303.2" r="2.6" style="fill:#fff"/><circle cx="333.9" cy="275.3" r="1.5" style="fill:#fff"/><path d="M293.1,296.1h17.1v51.2H293.1V296.1Z" style="fill:none"/><circle cx="295.1" cy="307.4" r="2" style="fill:#fff"/><circle cx="301.2" cy="297.1" r="1" style="fill:#fff"/><circle cx="299.3" cy="328" r="1" style="fill:#fff"/><circle cx="308.4" cy="334.5" r="1.8" style="fill:#fff"/><circle cx="301.2" cy="344.7" r="2.6" style="fill:#fff"/><circle cx="304.4" cy="316.7" r="1.5" style="fill:#fff"/><path d="M279.1,345h17.1v51.2H279.1V345Z" style="fill:none"/><circle cx="281.1" cy="356.4" r="2" style="fill:#fff"/><circle cx="287.1" cy="346" r="1" style="fill:#fff"/><circle cx="285.2" cy="376.9" r="1" style="fill:#fff"/><circle cx="294.4" cy="383.4" r="1.8" style="fill:#fff"/><circle cx="287.1" cy="393.6" r="2.6" style="fill:#fff"/><circle cx="290.4" cy="365.6" r="1.5" style="fill:#fff"/><path d="M279.3,395.8h17.1V447H279.3V395.8Z" style="fill:none"/><circle cx="281.3" cy="407.2" r="2" style="fill:#fff"/><circle cx="287.3" cy="396.8" r="1" style="fill:#fff"/><circle cx="285.4" cy="427.8" r="1" style="fill:#fff"/><circle cx="294.6" cy="434.2" r="1.8" style="fill:#fff"/><circle cx="287.3" cy="444.4" r="2.6" style="fill:#fff"/><circle cx="290.5" cy="416.5" r="1.5" style="fill:#fff"/><path d="M293.8,444.6h17.1v51.2H293.8V444.6Z" style="fill:none"/><circle cx="295.8" cy="455.9" r="2" style="fill:#fff"/><circle cx="301.8" cy="445.6" r="1" style="fill:#fff"/><circle cx="300" cy="476.5" r="1" style="fill:#fff"/><circle cx="309.1" cy="483" r="1.8" style="fill:#fff"/><circle cx="301.8" cy="493.2" r="2.6" style="fill:#fff"/><circle cx="305.1" cy="465.2" r="1.5" style="fill:#fff"/><path d="M323.8,485.7h17.1v51.2H323.8V485.7Z" style="fill:none"/><circle cx="325.8" cy="497.1" r="2" style="fill:#fff"/><circle cx="331.8" cy="486.7" r="1" style="fill:#fff"/><circle cx="329.9" cy="517.7" r="1" style="fill:#fff"/><circle cx="339.1" cy="524.1" r="1.8" style="fill:#fff"/><circle cx="331.8" cy="534.3" r="2.6" style="fill:#fff"/><circle cx="335" cy="506.4" r="1.5" style="fill:#fff"/><path d="M363.9,516.9H381v51.2H363.9V516.9Z" style="fill:none"/><circle cx="365.9" cy="528.3" r="2" style="fill:#fff"/><circle cx="372" cy="517.9" r="1" style="fill:#fff"/><circle cx="370.1" cy="548.9" r="1" style="fill:#fff"/><circle cx="379.2" cy="555.3" r="1.8" style="fill:#fff"/><circle cx="372" cy="565.5" r="2.6" style="fill:#fff"/><circle cx="375.2" cy="537.6" r="1.5" style="fill:#fff"/><path d="M411.6,534.5h17.1v51.2H411.6V534.5Z" style="fill:none"/><circle cx="413.6" cy="545.9" r="2" style="fill:#fff"/><circle cx="419.7" cy="535.5" r="1" style="fill:#fff"/><circle cx="417.8" cy="566.5" r="1" style="fill:#fff"/><circle cx="426.9" cy="572.9" r="1.8" style="fill:#fff"/><circle cx="419.7" cy="583.1" r="2.6" style="fill:#fff"/><circle cx="422.9" cy="555.2" r="1.5" style="fill:#fff"/><path d="M462.4,536.4h17.1v51.2H462.4V536.4Z" style="fill:none"/><circle cx="464.4" cy="547.7" r="2" style="fill:#fff"/><circle cx="470.5" cy="537.4" r="1" style="fill:#fff"/><circle cx="468.6" cy="568.3" r="1" style="fill:#fff"/><circle cx="477.7" cy="574.7" r="1.8" style="fill:#fff"/><circle cx="470.5" cy="585" r="2.6" style="fill:#fff"/><circle cx="473.7" cy="557" r="1.5" style="fill:#fff"/><path d="M511.7,523.9h17.1v51.2H511.7V523.9Z" style="fill:none"/><circle cx="513.7" cy="535.3" r="2" style="fill:#fff"/><circle cx="519.8" cy="524.9" r="1" style="fill:#fff"/><circle cx="517.9" cy="555.9" r="1" style="fill:#fff"/><circle cx="527" cy="562.3" r="1.8" style="fill:#fff"/><circle cx="519.8" cy="572.5" r="2.6" style="fill:#fff"/><circle cx="523" cy="544.6" r="1.5" style="fill:#fff"/><path d="M554.9,497.1H572v51.2H554.9V497.1Z" style="fill:none"/><circle cx="556.9" cy="508.4" r="2" style="fill:#fff"/><circle cx="562.9" cy="498.1" r="1" style="fill:#fff"/><circle cx="561" cy="529" r="1" style="fill:#fff"/><circle cx="570.2" cy="535.4" r="1.8" style="fill:#fff"/><circle cx="562.9" cy="545.7" r="2.6" style="fill:#fff"/><circle cx="566.1" cy="517.7" r="1.5" style="fill:#fff"/><path d="M587.6,458.1h17.1v51.2H587.6V458.1Z" style="fill:none"/><circle cx="589.6" cy="469.5" r="2" style="fill:#fff"/><circle cx="595.6" cy="459.1" r="1" style="fill:#fff"/><circle cx="593.7" cy="490" r="1" style="fill:#fff"/><circle cx="602.9" cy="496.5" r="1.8" style="fill:#fff"/><circle cx="595.6" cy="506.7" r="2.6" style="fill:#fff"/><circle cx="598.8" cy="478.7" r="1.5" style="fill:#fff"/><path d="M608.1,411.6h17.1v51.2H608.1V411.6Z" style="fill:none"/><circle cx="610.1" cy="422.9" r="2" style="fill:#fff"/><circle cx="616.2" cy="412.6" r="1" style="fill:#fff"/><circle cx="614.3" cy="443.5" r="1" style="fill:#fff"/><circle cx="623.4" cy="449.9" r="1.8" style="fill:#fff"/><circle cx="616.2" cy="460.2" r="2.6" style="fill:#fff"/><circle cx="619.4" cy="432.2" r="1.5" style="fill:#fff"/><path d="M612.7,360.9h17.1v51.2H612.7V360.9Z" style="fill:none"/><circle cx="614.7" cy="372.3" r="2" style="fill:#fff"/><circle cx="620.7" cy="361.9" r="1" style="fill:#fff"/><circle cx="618.9" cy="392.8" r="1" style="fill:#fff"/><circle cx="628" cy="399.3" r="1.8" style="fill:#fff"/><circle cx="620.7" cy="409.5" r="2.6" style="fill:#fff"/><circle cx="624" cy="381.5" r="1.5" style="fill:#fff"/><path d="M602.2,311.2h17.1v51.2H602.2V311.2Z" style="fill:none"/><circle cx="604.2" cy="322.5" r="2" style="fill:#fff"/><circle cx="610.3" cy="312.2" r="1" style="fill:#fff"/><circle cx="608.4" cy="343.1" r="1" style="fill:#fff"/><circle cx="617.5" cy="349.5" r="1.8" style="fill:#fff"/><circle cx="610.3" cy="359.8" r="2.6" style="fill:#fff"/><circle cx="613.5" cy="331.8" r="1.5" style="fill:#fff"/><path d="M578.1,266.3h17.1v51.2H578.1V266.3Z" style="fill:none"/><circle cx="580.1" cy="277.7" r="2" style="fill:#fff"/><circle cx="586.2" cy="267.3" r="1" style="fill:#fff"/><circle cx="584.3" cy="298.3" r="1" style="fill:#fff"/><circle cx="593.5" cy="304.7" r="1.8" style="fill:#fff"/><circle cx="586.2" cy="314.9" r="2.6" style="fill:#fff"/><circle cx="589.4" cy="287" r="1.5" style="fill:#fff"/><path d="M540.9,231.8H558V283H540.9V231.8Z" style="fill:none"/><circle cx="542.9" cy="243.1" r="2" style="fill:#fff"/><circle cx="548.9" cy="232.8" r="1" style="fill:#fff"/><circle cx="547" cy="263.7" r="1" style="fill:#fff"/><circle cx="556.2" cy="270.1" r="1.8" style="fill:#fff"/><circle cx="548.9" cy="280.4" r="2.6" style="fill:#fff"/><circle cx="552.1" cy="252.4" r="1.5" style="fill:#fff"/><path d="M495.2,209.4h17.1v51.2H495.2V209.4Z" style="fill:none"/><circle cx="497.2" cy="220.8" r="2" style="fill:#fff"/><circle cx="503.2" cy="210.4" r="1" style="fill:#fff"/><circle cx="501.3" cy="241.4" r="1" style="fill:#fff"/><circle cx="510.5" cy="247.8" r="1.8" style="fill:#fff"/><circle cx="503.2" cy="258" r="2.6" style="fill:#fff"/><circle cx="506.4" cy="230.1" r="1.5" style="fill:#fff"/><path d="M445,200.9h17.1v51.2H445V200.9Z" style="fill:none"/><circle cx="447" cy="212.3" r="2" style="fill:#fff"/><circle cx="453" cy="201.9" r="1" style="fill:#fff"/><circle cx="451.1" cy="232.8" r="1" style="fill:#fff"/><circle cx="460.3" cy="239.3" r="1.8" style="fill:#fff"/><circle cx="453" cy="249.5" r="2.6" style="fill:#fff"/><circle cx="456.2" cy="221.5" r="1.5" style="fill:#fff"/></g><path d="M453.5,353.9a41.3,41.3,0,1,1-41.3,41.3A41.25,41.25,0,0,1,453.5,353.9Z" style="fill:#03a2a3;stroke:#fff;stroke-miterlimit:10;opacity:0.20000000298023224;isolation:isolate"/><path d="M453.5,396.9A10.5,10.5,0,1,1,443,407.4,10.5,10.5,0,0,1,453.5,396.9Zm0-23.4A10.5,10.5,0,1,1,443,384,10.5,10.5,0,0,1,453.5,373.5Z" style="fill:#fff;opacity:0.5;isolation:isolate"/><path d="M452.3,395.7a10.5,10.5,0,1,1-10.5-10.5A10.5,10.5,0,0,1,452.3,395.7Zm23.4,0a10.5,10.5,0,1,1-10.5-10.5A10.5,10.5,0,0,1,475.7,395.7Z" style="fill:#fff;opacity:0.5;isolation:isolate"/><path d="M672.1,259.6a5.59,5.59,0,1,1-7.7-1.8A5.57,5.57,0,0,1,672.1,259.6ZM244.5,523.4a5.59,5.59,0,1,1-7.7-1.8A5.55,5.55,0,0,1,244.5,523.4ZM588.4,613a5.59,5.59,0,1,1,1.8-7.7A5.64,5.64,0,0,1,588.4,613ZM324.6,185.4a5.59,5.59,0,1,1,1.8-7.7A5.64,5.64,0,0,1,324.6,185.4Zm69.7,459a5.66,5.66,0,0,1-4.2-6.8,5.58,5.58,0,0,1,6.8-4.2,5.66,5.66,0,0,1,4.2,6.8A5.75,5.75,0,0,1,394.3,644.4ZM510.1,155.5a5.65,5.65,0,1,1,6.8-4.2A5.66,5.66,0,0,1,510.1,155.5ZM425.3,559.4a5.66,5.66,0,0,1-4.2-6.8,5.58,5.58,0,0,1,6.8-4.2,5.66,5.66,0,0,1,4.2,6.8A5.75,5.75,0,0,1,425.3,559.4Zm73-4a5.66,5.66,0,0,1-4.2-6.8,5.58,5.58,0,0,1,6.8-4.2,5.66,5.66,0,0,1,4.2,6.8A5.75,5.75,0,0,1,498.3,555.4Zm81-58a5.66,5.66,0,0,1-4.2-6.8,5.58,5.58,0,0,1,6.8-4.2A5.65,5.65,0,0,1,579.3,497.4Zm-231,24a5.66,5.66,0,0,1-4.2-6.8,5.65,5.65,0,0,1,11,2.6A5.75,5.75,0,0,1,348.3,521.4Zm-54-91a5.66,5.66,0,0,1-4.2-6.8A5.65,5.65,0,1,1,294.3,430.4Zm212,25a5.66,5.66,0,0,1-4.2-6.8A5.65,5.65,0,1,1,506.3,455.4Zm100-103a5.66,5.66,0,0,1-4.2-6.8,5.58,5.58,0,0,1,6.8-4.2A5.65,5.65,0,0,1,606.3,352.4Zm-205-11a5.66,5.66,0,0,1-4.2-6.8A5.65,5.65,0,1,1,401.3,341.4Zm-79-30a5.66,5.66,0,0,1-4.2-6.8A5.65,5.65,0,1,1,322.3,311.4Zm223-40a5.66,5.66,0,0,1-4.2-6.8,5.58,5.58,0,0,1,6.8-4.2A5.65,5.65,0,0,1,545.3,271.4Zm-123-30a5.65,5.65,0,1,1,2.6-11,5.58,5.58,0,0,1,4.2,6.8A5.75,5.75,0,0,1,422.3,241.4Zm279,167a5.66,5.66,0,0,1-4.2-6.8,5.58,5.58,0,0,1,6.8-4.2A5.65,5.65,0,0,1,701.3,408.4Zm-487-76a5.65,5.65,0,1,1,6.8-4.2A5.75,5.75,0,0,1,214.3,332.4Z" style="fill:#fff"/></svg>