<svg xmlns="http://www.w3.org/2000/svg" id="Layer_1" viewBox="0 0 886.5 882.4"><style>.st0{fill-rule:evenodd;clip-rule:evenodd;fill:#F44336;} .st1{opacity:0.5;clip-path:url(#SVGID_2_);} .st2{fill:none;stroke:#AF2C1E;stroke-width:3;stroke-linecap:round;stroke-miterlimit:10;} .st3{fill:#AF2C1E;} .st4{fill:none;stroke:#FFFFFF;stroke-width:6.9859;stroke-linecap:round;stroke-miterlimit:10;} .st5{fill:#FFFFFF;} .st6{opacity:0.5;clip-path:url(#SVGID_4_);} .st7{fill-rule:evenodd;clip-rule:evenodd;fill:#4CAF50;} .st8{fill-rule:evenodd;clip-rule:evenodd;fill:#E34026;stroke:#FFFFFF;stroke-width:8;stroke-miterlimit:10;} .st9{fill-rule:evenodd;clip-rule:evenodd;fill:#03A2A3;stroke:#FFFFFF;stroke-width:8;stroke-miterlimit:10;} .st10{fill-rule:evenodd;clip-rule:evenodd;fill:#D0D106;stroke:#FFFFFF;stroke-width:8;stroke-miterlimit:10;} .st11{fill-rule:evenodd;clip-rule:evenodd;fill:#D6015F;stroke:#FFFFFF;stroke-width:8;stroke-miterlimit:10;} .st12{fill-rule:evenodd;clip-rule:evenodd;fill:#60AD21;stroke:#FFFFFF;stroke-width:8;stroke-miterlimit:10;} .st13{fill-rule:evenodd;clip-rule:evenodd;fill:#009FC8;stroke:#FFFFFF;stroke-width:8;stroke-miterlimit:10;} .st14{fill-rule:evenodd;clip-rule:evenodd;fill:#FFFFFF;stroke:#CCCCCC;stroke-width:5;stroke-miterlimit:10;} .st15{fill-rule:evenodd;clip-rule:evenodd;fill:#FFFFFF;stroke:#009FC8;stroke-width:20;stroke-miterlimit:10;} .st16{fill-rule:evenodd;clip-rule:evenodd;fill:#009FC8;} .st17{opacity:0.3;fill:#FFFFFF;} .st18{opacity:0.2;fill:#FFFFFF;} .st19{fill-rule:evenodd;clip-rule:evenodd;fill:#093D8A;} .st20{fill-rule:evenodd;clip-rule:evenodd;fill:#03A2A3;} .st21{opacity:0.2;} .st22{fill:#03A2A3;} .st23{fill:none;} .st24{opacity:0.2;fill:#03A2A3;stroke:#FFFFFF;stroke-miterlimit:10;} .st25{opacity:0.5;fill:#FFFFFF;} .st26{fill-rule:evenodd;clip-rule:evenodd;fill:#D6015F;} .st27{fill:none;stroke:#FFFFFF;stroke-width:4;stroke-miterlimit:10;} .st28{fill:none;stroke:#FFFFFF;stroke-width:5;stroke-linecap:round;stroke-linejoin:round;stroke-miterlimit:10;} .st29{fill-rule:evenodd;clip-rule:evenodd;fill:#D0D106;} .st30{fill-rule:evenodd;clip-rule:evenodd;fill:none;} .st31{fill:#D0D106;} .st32{opacity:0.7;fill:#FFFFFF;} .st33{fill:none;stroke:#FFFFFF;stroke-width:4;stroke-linecap:round;stroke-miterlimit:10;} .st34{fill:none;stroke:#FFFFFF;stroke-width:4;stroke-linecap:round;stroke-miterlimit:10;stroke-dasharray:4.0574,8.1149;} .st35{fill:none;stroke:#FFFFFF;stroke-width:4;stroke-linecap:round;stroke-miterlimit:10;stroke-dasharray:3.9995,7.999;} .st36{opacity:0.5;} .st37{fill:#E1E15F;} .st38{fill-rule:evenodd;clip-rule:evenodd;fill:#E34026;} .st39{fill:none;stroke:#FFFFFF;stroke-width:4;stroke-linecap:round;stroke-miterlimit:10;stroke-dasharray:3.973,7.9461;} .st40{fill:none;stroke:#FFFFFF;stroke-width:4;stroke-linecap:round;stroke-miterlimit:10;stroke-dasharray:4.0208,8.0415;} .st41{fill-rule:evenodd;clip-rule:evenodd;fill:#60AD21;} .st42{opacity:0.5;fill:#60AD21;} .st43{opacity:0.2;fill:none;stroke:#FFFFFF;stroke-width:3;stroke-miterlimit:10;} .st44{fill:#60AD21;} .st45{fill-rule:evenodd;clip-rule:evenodd;fill:#CCCCCC;} .st46{fill-rule:evenodd;clip-rule:evenodd;fill:#FFFFFF;} .st47{fill:none;stroke:#FFFFFF;stroke-width:4;stroke-linecap:round;stroke-miterlimit:10;stroke-dasharray:4.0534,8.1069;} .st48{fill:none;stroke:#FFFFFF;stroke-width:4;stroke-linecap:round;stroke-miterlimit:10;stroke-dasharray:3.924,7.848;} .st49{fill:none;stroke:#FFFFFF;stroke-width:4;stroke-linecap:round;stroke-miterlimit:10;stroke-dasharray:3.9324,7.8649;} .st50{fill:none;stroke:#FFFFFF;stroke-width:4;stroke-linecap:round;stroke-miterlimit:10;stroke-dasharray:3.9814,7.9627;} .st51{opacity:0.3;fill:url(#SVGID_5_);} .st52{opacity:0.76;fill:#FFFFFF;} .st53{opacity:0.9;} .st54{clip-path:url(#SVGID_7_);} .st55{fill-rule:evenodd;clip-rule:evenodd;fill:#E91E63;} .st56{fill-rule:evenodd;clip-rule:evenodd;fill:#9C27B0;} .st57{fill-rule:evenodd;clip-rule:evenodd;fill:#673AB7;} .st58{fill-rule:evenodd;clip-rule:evenodd;fill:#3F51B5;} .st59{fill-rule:evenodd;clip-rule:evenodd;fill:#2196F3;} .st60{fill-rule:evenodd;clip-rule:evenodd;fill:#03A9F4;} .st61{fill-rule:evenodd;clip-rule:evenodd;fill:#00BCD4;} .st62{fill-rule:evenodd;clip-rule:evenodd;fill:#009688;} .st63{fill-rule:evenodd;clip-rule:evenodd;fill:#8BC34A;} .st64{fill-rule:evenodd;clip-rule:evenodd;fill:#CDDC39;} .st65{fill-rule:evenodd;clip-rule:evenodd;fill:#FFEB3B;} .st66{fill-rule:evenodd;clip-rule:evenodd;fill:#FFC107;} .st67{fill-rule:evenodd;clip-rule:evenodd;fill:#FF9800;} .st68{fill-rule:evenodd;clip-rule:evenodd;fill:#FF5722;} .st69{fill-rule:evenodd;clip-rule:evenodd;fill:#795548;} .st70{fill-rule:evenodd;clip-rule:evenodd;fill:#9E9E9E;} .st71{fill-rule:evenodd;clip-rule:evenodd;fill:#607D8B;} .st72{fill-rule:evenodd;clip-rule:evenodd;} .st73{opacity:0.5;clip-path:url(#SVGID_11_);} .st74{fill:none;stroke:#E34026;stroke-width:3;stroke-linecap:round;stroke-miterlimit:10;} .st75{fill:#E34026;} .st76{opacity:0.5;clip-path:url(#SVGID_13_);} .st77{fill:none;stroke:#F44336;stroke-width:4.1915;stroke-miterlimit:10;} .st78{fill:none;stroke:#F44336;stroke-width:1.3972;stroke-miterlimit:10;} .st79{fill:none;stroke:#FFFFFF;stroke-width:10;stroke-miterlimit:10;} .st80{fill:none;stroke:#FFFFFF;stroke-width:6;stroke-linejoin:round;stroke-miterlimit:10;} .st81{opacity:0.5;fill:#5A7A3B;} .st82{fill:#4CAF50;} .st83{fill:#FFFFFF;stroke:#000000;stroke-miterlimit:10;} .st84{fill:#FFFFFF;stroke:#FFC107;stroke-width:2;stroke-miterlimit:10;} .st85{fill:#FFC107;stroke:#FFC107;stroke-width:2;stroke-miterlimit:10;} .st86{fill:none;stroke:#FFFFFF;stroke-width:3;stroke-linecap:round;stroke-miterlimit:10;} .st87{fill:none;stroke:#D0D106;stroke-width:2;stroke-miterlimit:10;} .st88{fill:#FFC107;} .st89{fill:none;stroke:#FFFFFF;stroke-width:6.1;stroke-linecap:round;stroke-miterlimit:10;} .st90{fill:#D6015F;stroke:#E91E63;stroke-width:2;stroke-miterlimit:10;} .st91{fill:none;stroke:#E91E63;stroke-width:2;stroke-miterlimit:10;} .st92{fill:none;stroke:#FFFFFF;stroke-width:7.0187;stroke-miterlimit:10;} .st93{fill:none;stroke:#FFFFFF;stroke-width:5.4987;stroke-miterlimit:10;} .st94{fill:none;stroke:#FFFFFF;stroke-width:4.964;stroke-miterlimit:10;} .st95{fill:none;stroke:#FFFFFF;stroke-width:4.3989;stroke-miterlimit:10;} .st96{fill:none;stroke:#FFFFFF;stroke-width:4.1195;stroke-miterlimit:10;} .st97{fill-rule:evenodd;clip-rule:evenodd;fill:#AAAAAA;} .st98{fill:#3A3A3A;} .st99{fill-rule:evenodd;clip-rule:evenodd;fill:#EAA813;} .st100{fill-rule:evenodd;clip-rule:evenodd;fill:#3A3A3A;} .st101{fill-rule:evenodd;clip-rule:evenodd;fill:#515151;} .st102{fill:none;stroke:#929497;stroke-width:11.7929;stroke-miterlimit:10;} .st103{fill:#929497;} .st104{fill:none;stroke:#929497;stroke-width:10.8495;stroke-miterlimit:10;} .st105{fill:none;stroke:#929497;stroke-width:20;stroke-miterlimit:10;} .st106{fill:#224099;} .st107{fill:#F1F1F2;} .st108{fill:#FFFFFF;stroke:#929497;stroke-width:13.2081;stroke-miterlimit:10;} .st109{fill:none;stroke:#929497;stroke-width:36.5581;stroke-miterlimit:10;} .st110{opacity:0.2;fill:none;stroke:#FFFFFF;stroke-width:1.2623;stroke-miterlimit:10;} .st111{fill:none;stroke:#FFFFFF;stroke-width:8;stroke-miterlimit:10;} .st112{opacity:0.2;fill:none;stroke:#FFFFFF;stroke-width:3.4897;stroke-miterlimit:10;} .st113{fill:none;stroke:#FFFFFF;stroke-width:13;stroke-linejoin:round;stroke-miterlimit:10;} .st114{fill-rule:evenodd;clip-rule:evenodd;fill:none;stroke:#FFFFFF;stroke-width:13;stroke-linecap:round;stroke-linejoin:round;stroke-miterlimit:10;} .st115{fill-rule:evenodd;clip-rule:evenodd;fill:none;stroke:#FFFFFF;stroke-width:13;stroke-linejoin:round;stroke-miterlimit:10;} .st116{fill:#D6015F;} .st117{opacity:0.5;clip-path:url(#SVGID_15_);} .st118{opacity:0.5;clip-path:url(#SVGID_17_);} .st119{fill:#F44336;}</style><path d="M0-.1h886.3v882.5H0V-.1z" class="st62"/><path d="M162.5 784.4c0-4.5 2.2-8 6.5-10.4 4.3-2.4 11.1-4.1 20.3-5.2.1-1.6 0-3.1-.3-4.7s-.7-3-1.5-4.2c-.7-1.2-1.7-2.2-3-3-1.3-.8-2.9-1.2-5-1.2-2.8 0-5.4.5-7.7 1.6s-4.1 2.2-5.5 3.2l-1.7-2.8c.7-.5 1.7-1.1 2.7-1.7 1.1-.6 2.2-1.2 3.5-1.7 1.3-.5 2.7-1 4.3-1.3 1.6-.4 3.2-.6 4.8-.6 2.5 0 4.5.4 6.2 1.2 1.7.8 3 2 4.1 3.4 1 1.4 1.8 3.1 2.2 5 .4 1.9.6 4 .6 6.2v26.5h-3.2l-.4-5.3h-.2c-2.1 1.7-4.4 3.1-6.9 4.4-2.4 1.3-5 1.9-7.8 1.9-1.7 0-3.2-.2-4.7-.7-1.4-.5-2.7-1.1-3.8-2.1-1.1-.9-2-2.1-2.6-3.5-.5-1.4-.9-3.1-.9-5zm4-.2c0 3 .9 5.1 2.6 6.4 1.7 1.3 3.8 1.9 6.1 1.9 2.4 0 4.7-.6 6.9-1.7s4.6-2.8 7.2-5v-14c-4.3.5-7.8 1.2-10.7 1.9-2.9.7-5.2 1.6-7 2.7s-3.1 2.2-3.8 3.5c-.9 1.2-1.3 2.7-1.3 4.3zm42.3-27.6h-6.5v-2.9l6.6-.3.5-12h3.3v12h12v3.3h-12v27c0 1.3.1 2.5.3 3.6.2 1.1.6 2 1.1 2.8.5.8 1.2 1.4 2.1 1.8.9.4 2.1.6 3.5.6.8 0 1.7-.1 2.6-.4.9-.3 1.8-.6 2.5-.9l1 3.1c-1.2.5-2.4.8-3.6 1.1-1.2.3-2.2.4-3.1.4-2 0-3.7-.3-5-.9-1.3-.6-2.4-1.5-3.2-2.5-.8-1.1-1.4-2.4-1.7-4-.3-1.6-.5-3.2-.5-5.1v-26.7zm21.7 17.5c0-3.4.5-6.5 1.5-9.3 1-2.7 2.4-5 4.1-6.9 1.7-1.8 3.7-3.2 5.9-4.2s4.6-1.5 7.1-1.5 4.8.5 7.1 1.5 4.3 2.4 5.9 4.2c1.7 1.8 3 4.1 4.1 6.9 1 2.7 1.5 5.8 1.5 9.3 0 3.4-.5 6.5-1.5 9.2-1 2.7-2.4 4.9-4.1 6.8-1.7 1.8-3.7 3.2-5.9 4.2-2.3 1-4.6 1.5-7.1 1.5s-4.8-.5-7.1-1.5c-2.2-1-4.2-2.4-5.9-4.2-1.7-1.8-3-4.1-4.1-6.8-1-2.7-1.5-5.7-1.5-9.2zm3.9 0c0 2.7.4 5.2 1.1 7.4.7 2.2 1.8 4.2 3.1 5.8 1.3 1.6 2.8 2.9 4.6 3.7 1.8.9 3.7 1.3 5.8 1.3 2.1 0 4-.4 5.8-1.3 1.8-.9 3.4-2.1 4.7-3.7 1.3-1.6 2.3-3.5 3.1-5.8.7-2.2 1.1-4.7 1.1-7.4 0-2.8-.4-5.3-1.1-7.5-.7-2.2-1.8-4.2-3.1-5.8s-2.8-2.9-4.7-3.8c-1.8-.9-3.7-1.3-5.8-1.3-2.1 0-4 .4-5.8 1.3-1.8.9-3.3 2.2-4.6 3.8s-2.3 3.6-3.1 5.8c-.7 2.3-1.1 4.8-1.1 7.5zm45.6-20.7h3.3l.3 6.4h.3c1.8-2.1 3.9-3.9 6.2-5.3 2.3-1.4 4.6-2.1 6.9-2.1 3.3 0 5.9.8 7.7 2.3 1.8 1.5 3 3.6 3.8 6.2 2.4-2.6 4.8-4.6 7-6.2 2.3-1.5 4.6-2.3 7-2.3 8.3 0 12.4 5.3 12.4 15.9v26.5H331v-26c0-4.4-.7-7.7-2.2-9.8s-3.8-3.1-7-3.1c-3.7 0-7.9 2.6-12.4 7.8v31.2h-3.8v-26c0-4.4-.7-7.7-2.2-9.8-1.5-2.1-3.9-3.1-7.1-3.1-3.7 0-7.9 2.6-12.4 7.8V795H280v-41.6zm72-10c-1 0-1.8-.3-2.5-.9-.7-.6-1-1.4-1-2.4 0-1.1.3-1.9 1-2.5.7-.6 1.5-.9 2.5-.9s1.8.3 2.5.9c.7.6 1 1.5 1 2.5s-.3 1.8-1 2.4c-.7.5-1.5.9-2.5.9zm-2 10h3.8v41.4H350v-41.4zm16.3 20.7c0-3.4.5-6.5 1.6-9.3 1-2.7 2.4-5 4.1-6.9 1.7-1.8 3.7-3.2 6-4.2s4.7-1.5 7.2-1.5c2.9 0 5.3.5 7.2 1.6 1.9 1 3.6 2.2 5 3.5l-2.2 2.7c-1.3-1.3-2.8-2.3-4.4-3.1-1.6-.8-3.4-1.2-5.4-1.2-2.1 0-4.1.4-5.9 1.3-1.8.9-3.4 2.2-4.7 3.8-1.4 1.6-2.4 3.6-3.2 5.8-.8 2.2-1.2 4.7-1.2 7.5 0 2.7.4 5.2 1.1 7.4s1.7 4.2 3 5.8c1.3 1.6 2.9 2.9 4.7 3.7 1.9.9 3.9 1.3 6.2 1.3 2.2 0 4.2-.5 6.1-1.4 1.9-.9 3.5-2 5-3.4l2 2.6c-1.8 1.6-3.8 2.9-5.9 4-2.2 1-4.6 1.6-7.2 1.6-2.7 0-5.2-.5-7.5-1.5s-4.3-2.4-5.9-4.2c-1.7-1.8-3-4.1-4-6.8-1.2-2.6-1.7-5.6-1.7-9.1zm56.4 13.1c1.8 1.5 3.7 2.7 5.7 3.8 2 1 4.5 1.5 7.5 1.5 3.3 0 5.7-.8 7.4-2.5 1.6-1.6 2.5-3.5 2.5-5.7 0-1.3-.3-2.4-.9-3.4-.6-1-1.4-1.8-2.4-2.5s-2.1-1.3-3.2-1.8l-3.6-1.5c-1.6-.6-3.1-1.2-4.7-1.8-1.6-.6-3-1.4-4.3-2.3-1.3-.9-2.3-2-3.1-3.2-.8-1.2-1.2-2.7-1.2-4.5 0-1.5.3-2.9.9-4.3.6-1.3 1.4-2.5 2.6-3.5 1.1-1 2.5-1.8 4.2-2.4 1.6-.6 3.5-.9 5.7-.9s4.3.4 6.4 1.2c2.1.8 3.9 1.8 5.4 3.1l-2.1 2.7c-1.4-1-2.8-1.9-4.4-2.6-1.6-.7-3.4-1.1-5.5-1.1-1.6 0-3 .2-4.1.6-1.2.4-2.1 1-2.9 1.7-.8.7-1.4 1.5-1.7 2.4-.4.9-.6 1.8-.6 2.8 0 1.2.3 2.2.8 3.1.5.8 1.3 1.6 2.2 2.2.9.6 2 1.2 3.1 1.7 1.2.5 2.4 1 3.6 1.4 1.6.6 3.2 1.3 4.8 1.9 1.6.6 3.1 1.4 4.4 2.3 1.3.9 2.3 2.1 3.1 3.4.8 1.4 1.2 3 1.2 5 0 1.6-.3 3-.9 4.4s-1.5 2.6-2.7 3.7c-1.2 1.1-2.7 1.9-4.4 2.5-1.7.6-3.7.9-5.9.9-3.1 0-5.9-.6-8.5-1.7-2.6-1.1-4.8-2.5-6.6-4l2.2-2.6zm38.8-30.6H455v-2.9l6.6-.3.5-12h3.3v12h12v3.3h-12v27c0 1.3.1 2.5.3 3.6.2 1.1.6 2 1.1 2.8.5.8 1.2 1.4 2.1 1.8.9.4 2.1.6 3.5.6.8 0 1.7-.1 2.6-.4s1.8-.6 2.5-.9l1 3.1c-1.2.5-2.4.8-3.6 1.1-1.2.3-2.2.4-3.1.4-2 0-3.7-.3-5-.9-1.3-.6-2.4-1.5-3.2-2.5-.8-1.1-1.4-2.4-1.7-4-.3-1.6-.5-3.2-.5-5.1v-26.7zm25.9-3.2h3.3l.3 7.7h.3c1.4-2.6 3.1-4.7 5-6.3 2-1.6 4.2-2.4 6.7-2.4.8 0 1.5.1 2.2.2.6.1 1.3.3 2 .7l-.9 3.4c-.7-.3-1.3-.5-1.8-.6s-1.2-.1-2-.1c-1.8 0-3.8.8-5.8 2.4-2 1.6-3.9 4.3-5.5 8.2v28.2h-3.8v-41.4zm26.7 0h3.8v26c0 4.4.7 7.7 2.2 9.8 1.5 2.1 3.9 3.1 7.2 3.1 2.5 0 4.7-.7 6.7-2s4.2-3.5 6.6-6.4v-30.5h3.8v41.4h-3.2l-.4-6.9h-.2c-2 2.4-4.1 4.3-6.4 5.8-2.2 1.4-4.8 2.2-7.7 2.2-4.3 0-7.5-1.3-9.5-3.9-2-2.6-3-6.6-3-12v-26.6zm42.8 20.7c0-3.4.5-6.5 1.6-9.3 1-2.7 2.4-5 4.1-6.9 1.7-1.8 3.7-3.2 6-4.2s4.7-1.5 7.2-1.5c2.9 0 5.3.5 7.2 1.6 1.9 1 3.6 2.2 5 3.5l-2.2 2.7c-1.3-1.3-2.8-2.3-4.4-3.1-1.6-.8-3.4-1.2-5.4-1.2-2.1 0-4.1.4-5.9 1.3-1.8.9-3.4 2.2-4.7 3.8-1.4 1.6-2.4 3.6-3.2 5.8-.8 2.2-1.2 4.7-1.2 7.5 0 2.7.4 5.2 1.1 7.4s1.7 4.2 3 5.8c1.3 1.6 2.9 2.9 4.7 3.7 1.9.9 3.9 1.3 6.2 1.3 2.2 0 4.2-.5 6.1-1.4 1.9-.9 3.5-2 5-3.4l2 2.6c-1.8 1.6-3.8 2.9-5.9 4-2.2 1-4.6 1.6-7.2 1.6-2.7 0-5.2-.5-7.5-1.5s-4.3-2.4-5.9-4.2c-1.7-1.8-3-4.1-4-6.8-1.3-2.6-1.7-5.6-1.7-9.1zm43.1-17.5h-6.5v-2.9l6.5-.3.5-12h3.3v12h12v3.3h-12v27c0 1.3.1 2.5.3 3.6.2 1.1.6 2 1.1 2.8.5.8 1.2 1.4 2.1 1.8.9.4 2.1.6 3.5.6.8 0 1.7-.1 2.6-.4.9-.3 1.8-.6 2.5-.9l1 3.1c-1.2.5-2.4.8-3.6 1.1-1.2.3-2.2.4-3.1.4-2 0-3.7-.3-5-.9-1.3-.6-2.4-1.5-3.2-2.5-.8-1.1-1.4-2.4-1.7-4-.3-1.6-.5-3.2-.5-5.1v-26.7zm24.5-3.2h3.8v26c0 4.4.7 7.7 2.2 9.8 1.5 2.1 3.9 3.1 7.2 3.1 2.5 0 4.7-.7 6.7-2s4.2-3.5 6.6-6.4v-30.5h3.8v41.4h-3.2l-.4-6.9h-.2c-2 2.4-4.1 4.3-6.4 5.8-2.2 1.4-4.8 2.2-7.7 2.2-4.3 0-7.5-1.3-9.5-3.9-2-2.6-3-6.6-3-12v-26.6zm46.2 0h3.3l.3 7.7h.3c1.4-2.6 3.1-4.7 5-6.3 2-1.6 4.2-2.4 6.7-2.4.8 0 1.5.1 2.2.2.6.1 1.3.3 2 .7l-.9 3.4c-.7-.3-1.3-.5-1.8-.6-.5-.1-1.2-.1-2-.1-1.8 0-3.8.8-5.8 2.4-2 1.6-3.9 4.3-5.5 8.2v28.2h-3.8v-41.4zm23 20.7c0-3.4.5-6.4 1.5-9.1 1-2.7 2.4-5 4.1-6.9 1.7-1.9 3.6-3.3 5.8-4.3 2.2-1 4.4-1.5 6.7-1.5 4.9 0 8.8 1.7 11.6 5 2.8 3.3 4.2 8 4.2 14.1v1.6c0 .5-.1 1-.2 1.6h-29.8c.1 2.6.5 5 1.2 7.2s1.8 4.1 3.1 5.7c1.3 1.6 3 2.8 4.9 3.7 1.9.9 4 1.3 6.4 1.3 2.2 0 4.3-.3 6.1-1 1.8-.7 3.5-1.6 5-2.7l1.6 2.9c-1.7 1-3.5 1.9-5.5 2.8-2 .9-4.5 1.3-7.5 1.3-2.6 0-5.1-.5-7.5-1.5s-4.4-2.4-6.1-4.3c-1.7-1.9-3.1-4.1-4.1-6.8-1-2.7-1.5-5.7-1.5-9.1zm30.3-2.5c0-5.3-1.1-9.4-3.3-12s-5.1-4-8.9-4c-1.8 0-3.5.4-5.1 1.1-1.6.7-3.1 1.8-4.4 3.2-1.3 1.4-2.4 3.1-3.2 5s-1.4 4.2-1.6 6.7H724zm-77.3-317.9c-.7 3-3.7 4.9-6.8 4.2-3-.7-4.9-3.7-4.2-6.8.7-3 3.7-4.9 6.8-4.2s4.9 3.7 4.2 6.8z" class="st5"/><g class="st21"><path d="M453.5 136.5c143.1 0 258.7 115.6 258.7 258.7S596.6 653.9 453.5 653.9 194.8 538.3 194.8 395.2s115.6-258.7 258.7-258.7z" class="st22"/><path d="M407.8 114.7h17.1v51.2h-17.1z" class="st23"/><circle cx="409.8" cy="126.1" r="2" class="st5"/><circle cx="415.9" cy="115.7" r="1" class="st5"/><circle cx="414" cy="146.6" r="1" class="st5"/><circle cx="423.1" cy="153.1" r="1.8" class="st5"/><circle cx="415.9" cy="163.3" r="2.6" class="st5"/><circle cx="419.1" cy="135.3" r="1.5" class="st5"/><path d="M358.3 126.9h17.1v51.2h-17.1z" class="st23"/><circle cx="360.3" cy="138.2" r="2" class="st5"/><circle cx="366.4" cy="127.9" r="1" class="st5"/><circle cx="364.5" cy="158.8" r="1" class="st5"/><circle cx="373.7" cy="165.3" r="1.8" class="st5"/><circle cx="366.4" cy="175.5" r="2.6" class="st5"/><circle cx="369.6" cy="147.5" r="1.5" class="st5"/><path d="M312.2 148.6h17.1v51.2h-17.1z" class="st23"/><circle cx="314.2" cy="159.9" r="2" class="st5"/><circle cx="320.3" cy="149.6" r="1" class="st5"/><circle cx="318.4" cy="180.5" r="1" class="st5"/><circle cx="327.5" cy="187" r="1.8" class="st5"/><circle cx="320.3" cy="197.2" r="2.6" class="st5"/><circle cx="323.5" cy="169.2" r="1.5" class="st5"/><path d="M271.3 178.9h17.1v51.2h-17.1z" class="st23"/><circle cx="273.3" cy="190.3" r="2" class="st5"/><circle cx="279.3" cy="179.9" r="1" class="st5"/><circle cx="277.5" cy="210.9" r="1" class="st5"/><circle cx="286.6" cy="217.3" r="1.8" class="st5"/><circle cx="279.3" cy="227.6" r="2.6" class="st5"/><circle cx="282.6" cy="199.6" r="1.5" class="st5"/><path d="M237.1 216.8h17.1V268h-17.1z" class="st23"/><circle cx="239.1" cy="228.1" r="2" class="st5"/><circle cx="245.2" cy="217.8" r="1" class="st5"/><circle cx="243.3" cy="248.7" r="1" class="st5"/><circle cx="252.4" cy="255.2" r="1.8" class="st5"/><circle cx="245.2" cy="265.4" r="2.6" class="st5"/><circle cx="248.4" cy="237.4" r="1.5" class="st5"/><path d="M211.1 260.6h17.1v51.2h-17.1z" class="st23"/><circle cx="213.1" cy="272" r="2" class="st5"/><circle cx="219.1" cy="261.6" r="1" class="st5"/><circle cx="217.2" cy="292.6" r="1" class="st5"/><circle cx="226.4" cy="299" r="1.8" class="st5"/><circle cx="219.1" cy="309.2" r="2.6" class="st5"/><circle cx="222.3" cy="281.3" r="1.5" class="st5"/><path d="M194.2 308.8h17.1V360h-17.1z" class="st23"/><circle cx="196.2" cy="320.1" r="2" class="st5"/><circle cx="202.3" cy="309.8" r="1" class="st5"/><circle cx="200.4" cy="340.7" r="1" class="st5"/><circle cx="209.5" cy="347.2" r="1.8" class="st5"/><circle cx="202.3" cy="357.4" r="2.6" class="st5"/><circle cx="205.5" cy="329.4" r="1.5" class="st5"/><path d="M187.3 359.3h17.1v51.2h-17.1z" class="st23"/><circle cx="189.3" cy="370.7" r="2" class="st5"/><circle cx="195.4" cy="360.3" r="1" class="st5"/><circle cx="193.5" cy="391.3" r="1" class="st5"/><circle cx="202.7" cy="397.7" r="1.8" class="st5"/><circle cx="195.4" cy="407.9" r="2.6" class="st5"/><circle cx="198.6" cy="380" r="1.5" class="st5"/><path d="M190.4 410.2h17.1v51.2h-17.1z" class="st23"/><circle cx="192.4" cy="421.6" r="2" class="st5"/><circle cx="198.4" cy="411.2" r="1" class="st5"/><circle cx="196.6" cy="442.2" r="1" class="st5"/><circle cx="205.7" cy="448.6" r="1.8" class="st5"/><circle cx="198.4" cy="458.8" r="2.6" class="st5"/><circle cx="201.7" cy="430.9" r="1.5" class="st5"/><path d="M203.2 459.6h17.1v51.2h-17.1z" class="st23"/><circle cx="205.2" cy="470.9" r="2" class="st5"/><circle cx="211.3" cy="460.6" r="1" class="st5"/><circle cx="209.4" cy="491.5" r="1" class="st5"/><circle cx="218.5" cy="498" r="1.8" class="st5"/><circle cx="211.3" cy="508.2" r="2.6" class="st5"/><circle cx="214.5" cy="480.2" r="1.5" class="st5"/><path d="M225.6 505.4h17.1v51.2h-17.1z" class="st23"/><circle cx="227.6" cy="516.8" r="2" class="st5"/><circle cx="233.6" cy="506.4" r="1" class="st5"/><circle cx="231.7" cy="537.3" r="1" class="st5"/><circle cx="240.9" cy="543.8" r="1.8" class="st5"/><circle cx="233.6" cy="554" r="2.6" class="st5"/><circle cx="236.8" cy="526" r="1.5" class="st5"/><path d="M256.5 546h17.1v51.2h-17.1z" class="st23"/><circle cx="258.5" cy="557.3" r="2" class="st5"/><circle cx="264.5" cy="547" r="1" class="st5"/><circle cx="262.6" cy="577.9" r="1" class="st5"/><circle cx="271.8" cy="584.4" r="1.8" class="st5"/><circle cx="264.5" cy="594.6" r="2.6" class="st5"/><circle cx="267.8" cy="566.6" r="1.5" class="st5"/><path d="M294.8 579.7h17.1v51.2h-17.1z" class="st23"/><circle cx="296.8" cy="591" r="2" class="st5"/><circle cx="302.8" cy="580.7" r="1" class="st5"/><circle cx="300.9" cy="611.6" r="1" class="st5"/><circle cx="310.1" cy="618.1" r="1.8" class="st5"/><circle cx="302.8" cy="628.3" r="2.6" class="st5"/><circle cx="306.1" cy="600.3" r="1.5" class="st5"/><path d="M339 605.2h17.1v51.2H339z" class="st23"/><circle cx="341" cy="616.6" r="2" class="st5"/><circle cx="347" cy="606.2" r="1" class="st5"/><circle cx="345.2" cy="637.1" r="1" class="st5"/><circle cx="354.3" cy="643.6" r="1.8" class="st5"/><circle cx="347" cy="653.8" r="2.6" class="st5"/><circle cx="350.3" cy="625.8" r="1.5" class="st5"/><path d="M387.4 621.4h17.1v51.2h-17.1z" class="st23"/><circle cx="389.4" cy="632.8" r="2" class="st5"/><circle cx="395.5" cy="622.4" r="1" class="st5"/><circle cx="393.6" cy="653.3" r="1" class="st5"/><circle cx="402.7" cy="659.8" r="1.8" class="st5"/><circle cx="395.5" cy="670" r="2.6" class="st5"/><circle cx="398.7" cy="642" r="1.5" class="st5"/><path d="M438.1 627.6h17.1v51.2h-17.1z" class="st23"/><circle cx="440.1" cy="639" r="2" class="st5"/><circle cx="446.2" cy="628.6" r="1" class="st5"/><circle cx="444.3" cy="659.5" r="1" class="st5"/><circle cx="453.4" cy="666" r="1.8" class="st5"/><circle cx="446.2" cy="676.2" r="2.6" class="st5"/><circle cx="449.4" cy="648.2" r="1.5" class="st5"/><path d="M489 623.9h17.1v51.2H489z" class="st23"/><circle cx="491" cy="635.2" r="2" class="st5"/><circle cx="497.1" cy="624.9" r="1" class="st5"/><circle cx="495.2" cy="655.8" r="1" class="st5"/><circle cx="504.3" cy="662.3" r="1.8" class="st5"/><circle cx="497.1" cy="672.5" r="2.6" class="st5"/><circle cx="500.3" cy="644.5" r="1.5" class="st5"/><path d="M538.2 610.4h17.1v51.2h-17.1z" class="st23"/><circle cx="540.2" cy="621.7" r="2" class="st5"/><circle cx="546.3" cy="611.4" r="1" class="st5"/><circle cx="544.4" cy="642.3" r="1" class="st5"/><circle cx="553.5" cy="648.7" r="1.8" class="st5"/><circle cx="546.3" cy="659" r="2.6" class="st5"/><circle cx="549.5" cy="631" r="1.5" class="st5"/><path d="M583.8 587.4h17.1v51.2h-17.1z" class="st23"/><circle cx="585.8" cy="598.8" r="2" class="st5"/><circle cx="591.8" cy="588.4" r="1" class="st5"/><circle cx="589.9" cy="619.3" r="1" class="st5"/><circle cx="599.1" cy="625.8" r="1.8" class="st5"/><circle cx="591.8" cy="636" r="2.6" class="st5"/><circle cx="595.1" cy="608" r="1.5" class="st5"/><path d="M624 555.9h17.1v51.2H624z" class="st23"/><circle cx="626" cy="567.3" r="2" class="st5"/><circle cx="632" cy="556.9" r="1" class="st5"/><circle cx="630.1" cy="587.9" r="1" class="st5"/><circle cx="639.3" cy="594.3" r="1.8" class="st5"/><circle cx="632" cy="604.5" r="2.6" class="st5"/><circle cx="635.3" cy="576.6" r="1.5" class="st5"/><path d="M657.2 517.2h17.1v51.2h-17.1z" class="st23"/><circle cx="659.2" cy="528.5" r="2" class="st5"/><circle cx="665.3" cy="518.2" r="1" class="st5"/><circle cx="663.4" cy="549.1" r="1" class="st5"/><circle cx="672.5" cy="555.5" r="1.8" class="st5"/><circle cx="665.3" cy="565.8" r="2.6" class="st5"/><circle cx="668.5" cy="537.8" r="1.5" class="st5"/><path d="M682.2 472.6h17.1v51.2h-17.1z" class="st23"/><circle cx="684.2" cy="483.9" r="2" class="st5"/><circle cx="690.2" cy="473.6" r="1" class="st5"/><circle cx="688.4" cy="504.5" r="1" class="st5"/><circle cx="697.5" cy="511" r="1.8" class="st5"/><circle cx="690.2" cy="521.2" r="2.6" class="st5"/><circle cx="693.5" cy="493.2" r="1.5" class="st5"/><path d="M697.8 423.9h17.1v51.2h-17.1z" class="st23"/><circle cx="699.8" cy="435.2" r="2" class="st5"/><circle cx="705.8" cy="424.9" r="1" class="st5"/><circle cx="703.9" cy="455.8" r="1" class="st5"/><circle cx="713.1" cy="462.3" r="1.8" class="st5"/><circle cx="705.8" cy="472.5" r="2.6" class="st5"/><circle cx="709" cy="444.5" r="1.5" class="st5"/><path d="M703.3 373.1h17.1v51.2h-17.1z" class="st23"/><circle cx="705.3" cy="384.4" r="2" class="st5"/><circle cx="711.3" cy="374.1" r="1" class="st5"/><circle cx="709.5" cy="405" r="1" class="st5"/><circle cx="718.6" cy="411.5" r="1.8" class="st5"/><circle cx="711.3" cy="421.7" r="2.6" class="st5"/><circle cx="714.6" cy="393.7" r="1.5" class="st5"/><path d="M698.9 322.2H716v51.2h-17.1z" class="st23"/><circle cx="700.9" cy="333.5" r="2" class="st5"/><circle cx="706.9" cy="323.2" r="1" class="st5"/><circle cx="705" cy="354.1" r="1" class="st5"/><circle cx="714.2" cy="360.6" r="1.8" class="st5"/><circle cx="706.9" cy="370.8" r="2.6" class="st5"/><circle cx="710.1" cy="342.8" r="1.5" class="st5"/><path d="M684.7 273.1h17.1v51.2h-17.1z" class="st23"/><circle cx="686.7" cy="284.5" r="2" class="st5"/><circle cx="692.7" cy="274.1" r="1" class="st5"/><circle cx="690.8" cy="305" r="1" class="st5"/><circle cx="700" cy="311.5" r="1.8" class="st5"/><circle cx="692.7" cy="321.7" r="2.6" class="st5"/><circle cx="695.9" cy="293.7" r="1.5" class="st5"/><path d="M661.1 227.8h17.1V279h-17.1z" class="st23"/><circle cx="663.1" cy="239.1" r="2" class="st5"/><circle cx="669.1" cy="228.8" r="1" class="st5"/><circle cx="667.3" cy="259.7" r="1" class="st5"/><circle cx="676.4" cy="266.2" r="1.8" class="st5"/><circle cx="669.1" cy="276.4" r="2.6" class="st5"/><circle cx="672.4" cy="248.4" r="1.5" class="st5"/><path d="M629.1 188h17.1v51.2h-17.1z" class="st23"/><circle cx="631.1" cy="199.3" r="2" class="st5"/><circle cx="637.1" cy="189" r="1" class="st5"/><circle cx="635.2" cy="219.9" r="1" class="st5"/><circle cx="644.4" cy="226.4" r="1.8" class="st5"/><circle cx="637.1" cy="236.6" r="2.6" class="st5"/><circle cx="640.3" cy="208.6" r="1.5" class="st5"/><path d="M589.8 155.2h17.1v51.2h-17.1z" class="st23"/><circle cx="591.8" cy="166.5" r="2" class="st5"/><circle cx="597.9" cy="156.2" r="1" class="st5"/><circle cx="596" cy="187.1" r="1" class="st5"/><circle cx="605.1" cy="193.6" r="1.8" class="st5"/><circle cx="597.9" cy="203.8" r="2.6" class="st5"/><circle cx="601.1" cy="175.8" r="1.5" class="st5"/><path d="M544.8 131h17.1v51.2h-17.1z" class="st23"/><circle cx="546.8" cy="142.3" r="2" class="st5"/><circle cx="552.8" cy="132" r="1" class="st5"/><circle cx="551" cy="162.9" r="1" class="st5"/><circle cx="560.1" cy="169.3" r="1.8" class="st5"/><circle cx="552.8" cy="179.6" r="2.6" class="st5"/><circle cx="556.1" cy="151.6" r="1.5" class="st5"/><path d="M495.9 116.1H513v51.2h-17.1z" class="st23"/><circle cx="497.9" cy="127.4" r="2" class="st5"/><circle cx="503.9" cy="117.1" r="1" class="st5"/><circle cx="502" cy="148" r="1" class="st5"/><circle cx="511.2" cy="154.5" r="1.8" class="st5"/><circle cx="503.9" cy="164.7" r="2.6" class="st5"/><circle cx="507.2" cy="136.7" r="1.5" class="st5"/><path d="M445 111h17.1v51.2H445z" class="st23"/><circle cx="447" cy="122.3" r="2" class="st5"/><circle cx="453" cy="112" r="1" class="st5"/><circle cx="451.1" cy="142.9" r="1" class="st5"/><circle cx="460.3" cy="149.4" r="1.8" class="st5"/><circle cx="453" cy="159.6" r="2.6" class="st5"/><circle cx="456.2" cy="131.6" r="1.5" class="st5"/></g><g class="st21"><path d="M453.5 226.5c93.4 0 168.7 75.4 168.7 168.7s-75.4 168.7-168.7 168.7-168.7-75.4-168.7-168.7 75.4-168.7 168.7-168.7z" class="st22"/><path d="M410.1 204.9h17.1v51.2h-17.1z" class="st23"/><circle cx="412.1" cy="216.3" r="2" class="st5"/><circle cx="418.1" cy="205.9" r="1" class="st5"/><circle cx="416.2" cy="236.8" r="1" class="st5"/><circle cx="425.4" cy="243.3" r="1.8" class="st5"/><circle cx="418.1" cy="253.5" r="2.6" class="st5"/><circle cx="421.3" cy="225.6" r="1.5" class="st5"/><path d="M362.6 223.2h17.1v51.2h-17.1z" class="st23"/><circle cx="364.6" cy="234.5" r="2" class="st5"/><circle cx="370.7" cy="224.2" r="1" class="st5"/><circle cx="368.8" cy="255.1" r="1" class="st5"/><circle cx="377.9" cy="261.6" r="1.8" class="st5"/><circle cx="370.7" cy="271.8" r="2.6" class="st5"/><circle cx="373.9" cy="243.8" r="1.5" class="st5"/><path d="M322.7 254.6h17.1v51.2h-17.1z" class="st23"/><circle cx="324.7" cy="266" r="2" class="st5"/><circle cx="330.7" cy="255.6" r="1" class="st5"/><circle cx="328.8" cy="286.6" r="1" class="st5"/><circle cx="338" cy="293" r="1.8" class="st5"/><circle cx="330.7" cy="303.2" r="2.6" class="st5"/><circle cx="333.9" cy="275.3" r="1.5" class="st5"/><path d="M293.1 296.1h17.1v51.2h-17.1z" class="st23"/><circle cx="295.1" cy="307.4" r="2" class="st5"/><circle cx="301.2" cy="297.1" r="1" class="st5"/><circle cx="299.3" cy="328" r="1" class="st5"/><circle cx="308.4" cy="334.5" r="1.8" class="st5"/><circle cx="301.2" cy="344.7" r="2.6" class="st5"/><circle cx="304.4" cy="316.7" r="1.5" class="st5"/><path d="M279.1 345h17.1v51.2h-17.1z" class="st23"/><circle cx="281.1" cy="356.4" r="2" class="st5"/><circle cx="287.1" cy="346" r="1" class="st5"/><circle cx="285.2" cy="376.9" r="1" class="st5"/><circle cx="294.4" cy="383.4" r="1.8" class="st5"/><circle cx="287.1" cy="393.6" r="2.6" class="st5"/><circle cx="290.4" cy="365.6" r="1.5" class="st5"/><path d="M279.3 395.8h17.1V447h-17.1z" class="st23"/><circle cx="281.3" cy="407.2" r="2" class="st5"/><circle cx="287.3" cy="396.8" r="1" class="st5"/><circle cx="285.4" cy="427.8" r="1" class="st5"/><circle cx="294.6" cy="434.2" r="1.8" class="st5"/><circle cx="287.3" cy="444.4" r="2.6" class="st5"/><circle cx="290.5" cy="416.5" r="1.5" class="st5"/><path d="M293.8 444.6h17.1v51.2h-17.1z" class="st23"/><circle cx="295.8" cy="455.9" r="2" class="st5"/><circle cx="301.8" cy="445.6" r="1" class="st5"/><circle cx="300" cy="476.5" r="1" class="st5"/><circle cx="309.1" cy="483" r="1.8" class="st5"/><circle cx="301.8" cy="493.2" r="2.6" class="st5"/><circle cx="305.1" cy="465.2" r="1.5" class="st5"/><path d="M323.8 485.7h17.1v51.2h-17.1z" class="st23"/><circle cx="325.8" cy="497.1" r="2" class="st5"/><circle cx="331.8" cy="486.7" r="1" class="st5"/><circle cx="329.9" cy="517.7" r="1" class="st5"/><circle cx="339.1" cy="524.1" r="1.8" class="st5"/><circle cx="331.8" cy="534.3" r="2.6" class="st5"/><circle cx="335" cy="506.4" r="1.5" class="st5"/><path d="M363.9 516.9H381v51.2h-17.1z" class="st23"/><circle cx="365.9" cy="528.3" r="2" class="st5"/><circle cx="372" cy="517.9" r="1" class="st5"/><circle cx="370.1" cy="548.9" r="1" class="st5"/><circle cx="379.2" cy="555.3" r="1.8" class="st5"/><circle cx="372" cy="565.5" r="2.6" class="st5"/><circle cx="375.2" cy="537.6" r="1.5" class="st5"/><path d="M411.6 534.5h17.1v51.2h-17.1z" class="st23"/><circle cx="413.6" cy="545.9" r="2" class="st5"/><circle cx="419.7" cy="535.5" r="1" class="st5"/><circle cx="417.8" cy="566.5" r="1" class="st5"/><circle cx="426.9" cy="572.9" r="1.8" class="st5"/><circle cx="419.7" cy="583.1" r="2.6" class="st5"/><circle cx="422.9" cy="555.2" r="1.5" class="st5"/><path d="M462.4 536.4h17.1v51.2h-17.1z" class="st23"/><circle cx="464.4" cy="547.7" r="2" class="st5"/><circle cx="470.5" cy="537.4" r="1" class="st5"/><circle cx="468.6" cy="568.3" r="1" class="st5"/><circle cx="477.7" cy="574.7" r="1.8" class="st5"/><circle cx="470.5" cy="585" r="2.6" class="st5"/><circle cx="473.7" cy="557" r="1.5" class="st5"/><path d="M511.7 523.9h17.1v51.2h-17.1z" class="st23"/><circle cx="513.7" cy="535.3" r="2" class="st5"/><circle cx="519.8" cy="524.9" r="1" class="st5"/><circle cx="517.9" cy="555.9" r="1" class="st5"/><circle cx="527" cy="562.3" r="1.8" class="st5"/><circle cx="519.8" cy="572.5" r="2.6" class="st5"/><circle cx="523" cy="544.6" r="1.5" class="st5"/><path d="M554.9 497.1H572v51.2h-17.1z" class="st23"/><circle cx="556.9" cy="508.4" r="2" class="st5"/><circle cx="562.9" cy="498.1" r="1" class="st5"/><circle cx="561" cy="529" r="1" class="st5"/><circle cx="570.2" cy="535.4" r="1.8" class="st5"/><circle cx="562.9" cy="545.7" r="2.6" class="st5"/><circle cx="566.1" cy="517.7" r="1.5" class="st5"/><path d="M587.6 458.1h17.1v51.2h-17.1z" class="st23"/><circle cx="589.6" cy="469.5" r="2" class="st5"/><circle cx="595.6" cy="459.1" r="1" class="st5"/><circle cx="593.7" cy="490" r="1" class="st5"/><circle cx="602.9" cy="496.5" r="1.8" class="st5"/><circle cx="595.6" cy="506.7" r="2.6" class="st5"/><circle cx="598.8" cy="478.7" r="1.5" class="st5"/><path d="M608.1 411.6h17.1v51.2h-17.1z" class="st23"/><circle cx="610.1" cy="422.9" r="2" class="st5"/><circle cx="616.2" cy="412.6" r="1" class="st5"/><circle cx="614.3" cy="443.5" r="1" class="st5"/><circle cx="623.4" cy="449.9" r="1.8" class="st5"/><circle cx="616.2" cy="460.2" r="2.6" class="st5"/><circle cx="619.4" cy="432.2" r="1.5" class="st5"/><path d="M612.7 360.9h17.1v51.2h-17.1z" class="st23"/><circle cx="614.7" cy="372.3" r="2" class="st5"/><circle cx="620.7" cy="361.9" r="1" class="st5"/><circle cx="618.9" cy="392.8" r="1" class="st5"/><circle cx="628" cy="399.3" r="1.8" class="st5"/><circle cx="620.7" cy="409.5" r="2.6" class="st5"/><circle cx="624" cy="381.5" r="1.5" class="st5"/><path d="M602.2 311.2h17.1v51.2h-17.1z" class="st23"/><circle cx="604.2" cy="322.5" r="2" class="st5"/><circle cx="610.3" cy="312.2" r="1" class="st5"/><circle cx="608.4" cy="343.1" r="1" class="st5"/><circle cx="617.5" cy="349.5" r="1.8" class="st5"/><circle cx="610.3" cy="359.8" r="2.6" class="st5"/><circle cx="613.5" cy="331.8" r="1.5" class="st5"/><path d="M578.1 266.3h17.1v51.2h-17.1z" class="st23"/><circle cx="580.1" cy="277.7" r="2" class="st5"/><circle cx="586.2" cy="267.3" r="1" class="st5"/><circle cx="584.3" cy="298.3" r="1" class="st5"/><circle cx="593.5" cy="304.7" r="1.8" class="st5"/><circle cx="586.2" cy="314.9" r="2.6" class="st5"/><circle cx="589.4" cy="287" r="1.5" class="st5"/><path d="M540.9 231.8H558V283h-17.1z" class="st23"/><circle cx="542.9" cy="243.1" r="2" class="st5"/><circle cx="548.9" cy="232.8" r="1" class="st5"/><circle cx="547" cy="263.7" r="1" class="st5"/><circle cx="556.2" cy="270.1" r="1.8" class="st5"/><circle cx="548.9" cy="280.4" r="2.6" class="st5"/><circle cx="552.1" cy="252.4" r="1.5" class="st5"/><path d="M495.2 209.4h17.1v51.2h-17.1z" class="st23"/><circle cx="497.2" cy="220.8" r="2" class="st5"/><circle cx="503.2" cy="210.4" r="1" class="st5"/><circle cx="501.3" cy="241.4" r="1" class="st5"/><circle cx="510.5" cy="247.8" r="1.8" class="st5"/><circle cx="503.2" cy="258" r="2.6" class="st5"/><circle cx="506.4" cy="230.1" r="1.5" class="st5"/><path d="M445 200.9h17.1v51.2H445z" class="st23"/><circle cx="447" cy="212.3" r="2" class="st5"/><circle cx="453" cy="201.9" r="1" class="st5"/><circle cx="451.1" cy="232.8" r="1" class="st5"/><circle cx="460.3" cy="239.3" r="1.8" class="st5"/><circle cx="453" cy="249.5" r="2.6" class="st5"/><circle cx="456.2" cy="221.5" r="1.5" class="st5"/></g><path d="M453.5 353.9c22.9 0 41.3 18.5 41.3 41.3s-18.5 41.3-41.3 41.3c-22.9 0-41.3-18.5-41.3-41.3s18.4-41.3 41.3-41.3z" class="st24"/><path d="M453.5 396.9c5.8 0 10.5 4.7 10.5 10.5s-4.7 10.5-10.5 10.5-10.5-4.7-10.5-10.5 4.7-10.5 10.5-10.5zm0-23.4c5.8 0 10.5 4.7 10.5 10.5s-4.7 10.5-10.5 10.5S443 389.8 443 384s4.7-10.5 10.5-10.5z" class="st25"/><path d="M452.3 395.7c0 5.8-4.7 10.5-10.5 10.5s-10.5-4.7-10.5-10.5 4.7-10.5 10.5-10.5 10.5 4.7 10.5 10.5zm23.4 0c0 5.8-4.7 10.5-10.5 10.5s-10.5-4.7-10.5-10.5 4.7-10.5 10.5-10.5 10.5 4.7 10.5 10.5z" class="st25"/><path d="M672.1 259.6c1.6 2.6.8 6.1-1.8 7.7-2.6 1.6-6.1.8-7.7-1.8s-.8-6.1 1.8-7.7c2.6-1.7 6-.8 7.7 1.8zM244.5 523.4c1.6 2.6.8 6.1-1.8 7.7-2.6 1.6-6.1.8-7.7-1.8-1.6-2.6-.8-6.1 1.8-7.7 2.6-1.7 6.1-.8 7.7 1.8zM588.4 613c-2.6 1.6-6.1.8-7.7-1.8s-.8-6.1 1.8-7.7 6.1-.8 7.7 1.8.8 6.1-1.8 7.7zM324.6 185.4c-2.6 1.6-6.1.8-7.7-1.8s-.8-6.1 1.8-7.7 6.1-.8 7.7 1.8c1.6 2.6.8 6.1-1.8 7.7zm69.7 459c-3-.7-4.9-3.7-4.2-6.8s3.7-4.9 6.8-4.2c3 .7 4.9 3.7 4.2 6.8-.8 3-3.8 4.9-6.8 4.2zm115.8-488.9c-3-.7-4.9-3.7-4.2-6.8.7-3 3.7-4.9 6.8-4.2 3 .7 4.9 3.7 4.2 6.8-.7 3-3.8 4.9-6.8 4.2zm-84.8 403.9c-3-.7-4.9-3.7-4.2-6.8s3.7-4.9 6.8-4.2c3 .7 4.9 3.7 4.2 6.8-.8 3-3.8 4.9-6.8 4.2zm73-4c-3-.7-4.9-3.7-4.2-6.8s3.7-4.9 6.8-4.2c3 .7 4.9 3.7 4.2 6.8-.8 3-3.8 4.9-6.8 4.2zm81-58c-3-.7-4.9-3.7-4.2-6.8s3.7-4.9 6.8-4.2c3 .7 4.9 3.7 4.2 6.8s-3.8 4.9-6.8 4.2zm-231 24c-3-.7-4.9-3.7-4.2-6.8s3.7-4.9 6.8-4.2 4.9 3.7 4.2 6.8c-.8 3-3.8 4.9-6.8 4.2zm-54-91c-3-.7-4.9-3.7-4.2-6.8s3.7-4.9 6.8-4.2 4.9 3.7 4.2 6.8-3.8 4.9-6.8 4.2zm212 25c-3-.7-4.9-3.7-4.2-6.8s3.7-4.9 6.8-4.2 4.9 3.7 4.2 6.8-3.8 4.9-6.8 4.2zm100-103c-3-.7-4.9-3.7-4.2-6.8s3.7-4.9 6.8-4.2c3 .7 4.9 3.7 4.2 6.8s-3.8 4.9-6.8 4.2zm-205-11c-3-.7-4.9-3.7-4.2-6.8s3.7-4.9 6.8-4.2 4.9 3.7 4.2 6.8-3.8 4.9-6.8 4.2zm-79-30c-3-.7-4.9-3.7-4.2-6.8s3.7-4.9 6.8-4.2 4.9 3.7 4.2 6.8-3.8 4.9-6.8 4.2zm223-40c-3-.7-4.9-3.7-4.2-6.8s3.7-4.9 6.8-4.2c3 .7 4.9 3.7 4.2 6.8s-3.8 4.9-6.8 4.2zm-123-30c-3-.7-4.9-3.7-4.2-6.8.7-3 3.7-4.9 6.8-4.2s4.9 3.7 4.2 6.8c-.8 3-3.8 4.9-6.8 4.2zm279 167c-3-.7-4.9-3.7-4.2-6.8s3.7-4.9 6.8-4.2c3 .7 4.9 3.7 4.2 6.8s-3.8 4.9-6.8 4.2zm-487-76c-3-.7-4.9-3.7-4.2-6.8.7-3 3.7-4.9 6.8-4.2 3 .7 4.9 3.7 4.2 6.8-.8 3-3.8 4.9-6.8 4.2z" class="st5"/></svg>