<svg xmlns="http://www.w3.org/2000/svg" id="Layer_1" viewBox="0 0 116 64">
  <style>
    .st0{enable-background:new ;} .st1{fill:#FFFFFF;}
  </style>
  <title>
    logo
  </title>
  <path d="M15.2 34.3c-2.1 0-4-.4-5.8-1.1-1.7-.7-3.2-1.8-4.5-3.2-1.2-1.4-2.2-3.1-2.9-5.1s-1-4.3-1-6.8c0-2.6.3-4.8 1-6.8s1.7-3.7 2.9-5C6.2 4.8 7.7 3.8 9.4 3c1.7-.7 3.7-1 5.8-1s4 .4 5.8 1.1c1.7.7 3.2 1.8 4.5 3.1s2.2 3.1 2.9 5c.7 2 1 4.3 1 6.8 0 2.6-.3 4.8-1 6.8s-1.7 3.7-2.9 5.1-2.7 2.5-4.5 3.2c-1.8.8-3.7 1.2-5.8 1.2zm0-6.1c2.1 0 3.8-.9 5.1-2.8 1.2-1.8 1.9-4.3 1.9-7.5 0-3.1-.6-5.6-1.9-7.3C19 8.9 17.3 8 15.2 8s-3.8.9-5.1 2.6c-1.2 1.8-1.9 4.3-1.9 7.4 0 3.2.6 5.7 1.9 7.5 1.2 1.8 2.9 2.7 5.1 2.7zm20-25.7h11.4c1.7 0 3.3.2 4.8.5s2.8.9 3.9 1.7c1.1.8 2 1.8 2.6 3.1s1 2.9 1 4.8c0 1.8-.3 3.4-1 4.7s-1.5 2.4-2.7 3.3c-1.1.9-2.4 1.5-3.9 1.9-1.5.4-3 .6-4.7.6h-4.4v10.6h-7V2.5zm11 15.1c3.8 0 5.7-1.7 5.7-5 0-1.6-.5-2.8-1.5-3.4-1-.7-2.4-1-4.3-1h-3.9v9.4h4zm18-15.1h19.6v5.9H71.3v6.3h10.6v5.9H71.3v7.2h13v5.9h-20l-.1-31.2zm26.3 0h7.2l8.1 15.5 3.1 6.9h.2c-.2-1.7-.3-3.5-.5-5.6-.2-2-.3-4-.3-5.8v-11h6.7v31.2h-7.2l-8.1-15.6-3.1-6.8h-.2c.2 1.7.3 3.6.5 5.6s.3 3.9.3 5.7v11.1h-6.7V2.5zM5.1 41.3H11c1.2 0 2.3.1 3.2.3 1 .2 1.8.6 2.4 1 .7.5 1.2 1.1 1.5 1.9.4.8.5 1.7.5 2.8 0 2.1-.7 3.7-2 4.8-1.4 1-3.3 1.6-5.7 1.6H6.7V63H5.1V41.3zm5.6 11.1c2.2 0 3.9-.4 4.9-1.2 1.1-.8 1.6-2.1 1.6-3.9 0-.9-.1-1.7-.4-2.3s-.7-1.1-1.2-1.5c-.5-.4-1.2-.6-2-.8s-1.8-.2-2.9-.2h-4v9.8h4v.1zm12.8-11.1H25v9.5h11.6v-9.5h1.5V63h-1.5V52.1H25.1V63h-1.5l-.1-21.7zM48 54.2l-6.5-12.9h1.6l3.3 6.8c.4.8.7 1.6 1.1 2.3.4.8.8 1.5 1.2 2.3h.1c.4-.8.8-1.6 1.2-2.3s.8-1.5 1.1-2.3l3.3-6.8h1.5l-6.5 12.9V63h-1.5v-8.8h.1zm10.1 4.9c.8.9 1.7 1.6 2.8 2.1s2.3.8 3.5.8c1.7 0 3-.4 3.9-1.2 1-.8 1.4-1.8 1.4-3.1 0-.7-.1-1.3-.3-1.7-.2-.5-.5-.9-.8-1.2l-1.2-.9c-.5-.3-1-.5-1.5-.7l-3.3-1.5c-.5-.2-1-.4-1.5-.7s-1-.6-1.4-1.1-.8-.9-1.1-1.5-.4-1.3-.4-2.1.2-1.5.5-2.2c.3-.6.8-1.2 1.3-1.7.6-.5 1.2-.8 2-1.1s1.6-.4 2.5-.4c1.3 0 2.5.3 3.5.8s1.9 1.1 2.5 1.8l-.9 1c-.6-.7-1.4-1.2-2.2-1.6-.9-.4-1.8-.6-2.9-.6-1.4 0-2.6.4-3.5 1.1-.8.7-1.2 1.6-1.2 2.8 0 .6.1 1.2.4 1.6.2.4.5.8.9 1.1s.8.6 1.2.8.9.4 1.3.6l3.3 1.4c.6.3 1.2.6 1.7.9.5.3 1 .7 1.4 1.2.4.4.8 1 1 1.6.3.6.4 1.3.4 2.2s-.2 1.6-.5 2.3-.8 1.3-1.4 1.8-1.3.9-2.2 1.2c-.9.3-1.8.4-2.9.4-1.6 0-3-.3-4.2-.9-1.2-.6-2.3-1.4-3.1-2.4l1-.9zm17.8-17.8h1.5V63h-1.5V41.3zm6.5 10.8c0-1.7.2-3.3.7-4.6.4-1.4 1.1-2.6 1.9-3.5.8-1 1.8-1.7 2.9-2.2s2.4-.8 3.8-.8c1.3 0 2.4.3 3.3.8 1 .5 1.7 1.1 2.3 1.8l-.9 1c-.6-.7-1.3-1.2-2-1.6-.8-.4-1.7-.6-2.7-.6-1.2 0-2.3.2-3.2.7-1 .5-1.8 1.1-2.4 2-.7.8-1.2 1.9-1.5 3.1-.4 1.2-.5 2.6-.5 4.1s.2 2.9.5 4.1c.4 1.2.9 2.3 1.5 3.1.7.9 1.5 1.5 2.4 2s2 .7 3.1.7 2.1-.2 3-.7c.9-.4 1.7-1.1 2.5-2l.9 1c-.8 1-1.8 1.7-2.8 2.3s-2.2.8-3.7.8c-1.3 0-2.6-.3-3.7-.8s-2.1-1.3-2.9-2.3-1.4-2.2-1.9-3.6c-.3-1.5-.6-3.1-.6-4.8zm18.6 7c.8.9 1.7 1.6 2.8 2.1 1.1.5 2.3.8 3.5.8 1.7 0 3-.4 3.9-1.2 1-.8 1.4-1.8 1.4-3.1 0-.7-.1-1.3-.3-1.7-.2-.5-.5-.9-.8-1.2l-1.2-.9c-.5-.3-1-.5-1.5-.7l-3.3-1.5c-.5-.2-1-.4-1.5-.7s-1-.6-1.4-1.1-.8-.9-1.1-1.5-.4-1.3-.4-2.1.2-1.5.5-2.2c.3-.6.8-1.2 1.3-1.7.6-.5 1.2-.8 2-1.1s1.6-.4 2.5-.4c1.3 0 2.5.3 3.5.8s1.9 1.1 2.5 1.8l-.9 1c-.6-.7-1.4-1.2-2.2-1.6-.9-.4-1.8-.6-2.9-.6-1.4 0-2.6.4-3.5 1.1-.9.7-1.3 1.6-1.3 2.8 0 .6.1 1.2.4 1.6.2.4.5.8.9 1.1s.8.6 1.2.8.9.4 1.3.6l3.3 1.4c.6.3 1.2.6 1.7.9.5.3 1 .7 1.4 1.2.4.4.8 1 1 1.6.3.6.4 1.3.4 2.2s-.2 1.6-.5 2.3-.8 1.3-1.4 1.8-1.3.9-2.2 1.2c-.9.3-1.8.4-2.9.4-1.6 0-3-.3-4.2-.9-1.2-.6-2.3-1.4-3.1-2.4l1.1-.9z" class="st0 st1"/>
</svg>
