<?xml version="1.0" encoding="utf-8"?>
<!-- Generator: Adobe Illustrator 19.1.0, SVG Export Plug-In . SVG Version: 6.00 Build 0)  -->
<svg version="1.1" id="Layer_1" xmlns="http://www.w3.org/2000/svg" xmlns:xlink="http://www.w3.org/1999/xlink" x="0px" y="0px"
	 viewBox="0 0 136.5 132" style="enable-background:new 0 0 136.5 132;" xml:space="preserve">
<style type="text/css">
	.st0{fill:#3FD15B;stroke:#000000;stroke-miterlimit:10;}
	.st1{fill:#3F6FD1;stroke:#000000;stroke-miterlimit:10;}
	.st2{fill:#D33D3D;stroke:#000000;stroke-miterlimit:10;}
</style>
<path class="st0" d="M34.1,29.8c9.8,1,18.7-6.1,19.8-15.8c0.3-2.8,1-5.2,2.5-6.8c5.1-5.5,20.4-3.9,20.4-3.9s14.7,5.1,17,9.4
	s10.4,5.2,10.4,5.2s15.3,9.3,15,16.6c-0.3,7.3,5.5,11.1,5.5,11.1s12.7,6.5,8.2,22.3c-1.5,5.3-2.9,8.3-4.2,10
	c-3.2,4.4-5.3,9.6-6.3,15c0,0.2-0.1,0.5-0.1,0.7c-1,5.3,2.4,10.5-1.3,13.4c-1.4,1.1-3.4,0.7-5.4-0.1c-4.8-2.1-10.3-2.1-14.9,0.5
	l-1.8,1l-11.9,9.7c0,0-6.8,4.9-7.9,6.8c-1.2,1.9-12.7,4.2-16.4,3.6c-1.8-0.3-5.4-2.1-8.8-4c-5-2.8-10.5-4.5-16.1-5
	c-6.1-0.5-13.4-1.4-14.6-2.5c-2.2-2-12.4-24.4-12.5-35.7c0-5-1.6-9.8-3.3-13.5c-3.6-7.9-4.2-16.8-1.3-24.9c1.1-3.2,2.6-5.8,4.6-6.5
	c6.2-2.3,13.4-7.3,23.2-6.2C33.9,29.8,34,29.8,34.1,29.8z"/>
<g>
	
		<ellipse transform="matrix(-0.8718 -0.4898 0.4898 -0.8718 125.5752 75.9237)" class="st1" cx="72.7" cy="21.5" rx="16.4" ry="16.5"/>
	
		<ellipse transform="matrix(-0.8718 -0.4898 0.4898 -0.8718 69.7107 237.8423)" class="st1" cx="66" cy="109.8" rx="16.4" ry="16.5"/>
	
		<ellipse transform="matrix(-0.8718 -0.4898 0.4898 -0.8718 126.0184 142.2793)" class="st1" cx="81.6" cy="54.7" rx="16.4" ry="16.5"/>
	
		<ellipse transform="matrix(-0.8718 -0.4898 0.4898 -0.8718 17.8563 107.5716)" class="st1" cx="23" cy="51.4" rx="16.4" ry="16.5"/>
	
		<ellipse transform="matrix(-0.8718 -0.4898 0.4898 -0.8718 66.1902 167.6907)" class="st1" cx="55" cy="75.2" rx="16.4" ry="16.5"/>
	
		<ellipse transform="matrix(-0.8718 -0.4898 0.4898 -0.8718 183.6722 172.039)" class="st1" cx="114.3" cy="62" rx="16.4" ry="16.5"/>
</g>
<g>
	<path class="st2" d="M112.3,30.8l-5.1,0.2c-0.9-1.9-2.5-3.3-4.4-4l-0.2-4.9c-0.1-1.8-1.6-3.2-3.4-3.2c-1.8,0.1-3.2,1.6-3.2,3.4
		l0.2,5.1c-1.7,0.9-3,2.4-3.6,4.1l-5,0.2c-1.8,0.1-3.2,1.6-3.2,3.4c0.1,1.8,1.6,3.2,3.4,3.2l5.1-0.2c0.8,1.6,2.2,2.9,3.8,3.6
		l0.2,5.2c0.1,1.8,1.6,3.2,3.4,3.2c1.8-0.1,3.2-1.6,3.2-3.4l-0.2-5c1.8-0.8,3.2-2.3,4-4.1l5.1-0.2c1.8-0.1,3.2-1.6,3.2-3.4
		C115.6,32.2,114.1,30.7,112.3,30.8z"/>
	<path class="st2" d="M63.4,52.9l-3.8-3.3c0.6-2,0.5-4.1-0.4-5.9l3.3-3.7c1.2-1.4,1.1-3.5-0.3-4.7c-1.4-1.2-3.5-1.1-4.7,0.3
		l-3.4,3.9c-1.9-0.5-3.8-0.3-5.5,0.5l-3.8-3.3c-1.4-1.2-3.5-1.1-4.7,0.3c-1.2,1.4-1.1,3.5,0.3,4.7l3.8,3.4c-0.5,1.8-0.4,3.6,0.3,5.3
		l-3.5,3.9c-1.2,1.4-1.1,3.5,0.3,4.7c1.4,1.2,3.5,1.1,4.7-0.3l3.3-3.8c1.9,0.7,4,0.5,5.7-0.2l3.9,3.4c1.4,1.2,3.5,1.1,4.7-0.3
		C64.9,56.2,64.8,54.1,63.4,52.9z"/>
	<path class="st2" d="M116.8,79.7l-4,3.1c-1.9-1-4-1.2-5.9-0.6l-3.1-3.9c-1.1-1.4-3.2-1.7-4.6-0.5c-1.4,1.1-1.7,3.2-0.5,4.6l3.2,4
		c-0.8,1.7-1,3.7-0.5,5.5l-3.9,3.1c-1.4,1.1-1.7,3.2-0.5,4.6c1.1,1.4,3.2,1.7,4.6,0.5l4-3.2c1.7,0.8,3.5,1,5.2,0.7l3.2,4.1
		c1.1,1.4,3.2,1.7,4.6,0.5c1.4-1.1,1.7-3.2,0.5-4.6l-3.1-3.9c1-1.8,1.2-3.8,0.8-5.7l4-3.2c1.4-1.1,1.7-3.2,0.5-4.6
		C120.3,78.8,118.2,78.6,116.8,79.7z"/>
	<path class="st2" d="M44.2,93.4l-3.9,3.3c-1.9-0.9-4-1-5.9-0.4l-3.2-3.8C30,91,27.9,90.9,26.5,92c-1.4,1.2-1.6,3.3-0.4,4.6l3.3,3.9
		c-0.8,1.8-0.9,3.7-0.3,5.5l-3.8,3.2c-1.4,1.2-1.6,3.3-0.4,4.6c1.2,1.4,3.3,1.6,4.6,0.4l3.9-3.3c1.7,0.8,3.5,0.9,5.3,0.5l3.4,4
		c1.2,1.4,3.3,1.6,4.6,0.4c1.4-1.2,1.6-3.3,0.4-4.6l-3.3-3.8c0.9-1.8,1.1-3.8,0.6-5.7l3.9-3.3c1.4-1.2,1.6-3.3,0.4-4.6
		C47.6,92.4,45.5,92.2,44.2,93.4z"/>
	<path class="st2" d="M96.4,88.6l-3.8-3.3c0.6-2,0.4-4.1-0.5-5.9l3.2-3.7c1.2-1.4,1-3.5-0.3-4.6c-1.4-1.2-3.5-1-4.6,0.3L87,75.2
		c-1.9-0.5-3.8-0.3-5.5,0.5l-3.8-3.3c-1.4-1.2-3.5-1-4.6,0.3c-1.2,1.4-1,3.5,0.3,4.6l3.9,3.3c-0.5,1.8-0.4,3.6,0.3,5.3l-3.4,4
		c-1.2,1.4-1,3.5,0.3,4.6c1.4,1.2,3.5,1,4.6-0.3l3.3-3.8c1.9,0.6,4,0.5,5.7-0.3l3.9,3.4c1.4,1.2,3.5,1,4.6-0.3
		C97.9,91.9,97.8,89.8,96.4,88.6z"/>
	<path class="st2" d="M31.6,69.1l-3,4.1c-2-0.5-4.1-0.1-5.9,0.9l-4-3c-1.5-1.1-3.5-0.8-4.6,0.7c-1.1,1.5-0.8,3.5,0.7,4.6l4.1,3.1
		c-0.4,1.9,0,3.8,0.9,5.4l-3,4c-1.1,1.5-0.8,3.5,0.7,4.6c1.5,1.1,3.5,0.8,4.6-0.7l3.1-4.1c1.8,0.4,3.7,0.1,5.2-0.7l4.2,3.1
		c1.5,1.1,3.5,0.8,4.6-0.7c1.1-1.5,0.8-3.5-0.7-4.6l-4-3c0.5-2,0.2-4-0.7-5.7l3.1-4.1c1.1-1.5,0.8-3.5-0.7-4.6
		C34.8,67.4,32.7,67.7,31.6,69.1z"/>
</g>
</svg>
