<?xml version="1.0" encoding="utf-8"?>
<!-- Generator: Adobe Illustrator 19.1.0, SVG Export Plug-In . SVG Version: 6.00 Build 0)  -->
<svg version="1.1" id="Layer_1" xmlns="http://www.w3.org/2000/svg" xmlns:xlink="http://www.w3.org/1999/xlink" x="0px" y="0px"
	 viewBox="0 0 314 131" style="enable-background:new 0 0 314 131;" xml:space="preserve">
<style type="text/css">
	.st0{opacity:0.1091;fill:url(#SVGID_1_);}
	.st1{opacity:0.1091;fill:url(#SVGID_2_);}
	.st2{opacity:0.1091;fill:url(#SVGID_3_);}
	.st3{opacity:0.1091;fill:url(#SVGID_4_);}
	.st4{opacity:0.1091;fill:url(#SVGID_5_);}
	.st5{opacity:0.1091;fill:url(#SVGID_6_);}
	.st6{opacity:0.1091;fill:url(#SVGID_7_);}
	.st7{opacity:0.1091;fill:url(#SVGID_8_);}
	.st8{opacity:0.1091;fill:url(#SVGID_9_);}
	.st9{opacity:0.1091;fill:url(#SVGID_10_);}
	.st10{opacity:0.1091;fill:url(#SVGID_11_);}
	.st11{opacity:0.1091;fill:url(#SVGID_12_);}
	.st12{fill:url(#SVGID_13_);}
	.st13{opacity:0.1091;fill:url(#SVGID_14_);}
	.st14{opacity:0.1091;fill:url(#SVGID_15_);}
	.st15{opacity:0.1091;fill:url(#SVGID_16_);}
	.st16{opacity:0.1091;fill:url(#SVGID_17_);}
	.st17{opacity:0.1091;fill:url(#SVGID_18_);}
	.st18{opacity:0.1091;fill:url(#SVGID_19_);}
	.st19{opacity:0.1091;fill:url(#SVGID_20_);}
	.st20{opacity:0.1091;fill:url(#SVGID_21_);}
	.st21{opacity:0.1091;fill:url(#SVGID_22_);}
	.st22{opacity:0.1091;fill:url(#SVGID_23_);}
	.st23{opacity:0.1091;fill:url(#SVGID_24_);}
	.st24{opacity:0.1091;fill:url(#SVGID_25_);}
</style>
<g>
	<g>
		<g>
			<g>
				<linearGradient id="SVGID_1_" gradientUnits="userSpaceOnUse" x1="10.5288" y1="61.6487" x2="230.7435" y2="61.6487">
					<stop  offset="0" style="stop-color:#FFF23A"/>
					<stop  offset="4.010540e-02" style="stop-color:#FEE62D"/>
					<stop  offset="0.1171" style="stop-color:#FED41A"/>
					<stop  offset="0.1964" style="stop-color:#FDC90F"/>
					<stop  offset="0.2809" style="stop-color:#FDC60B"/>
					<stop  offset="0.6685" style="stop-color:#F28F3F"/>
					<stop  offset="0.8876" style="stop-color:#ED693C"/>
					<stop  offset="1" style="stop-color:#E83E39"/>
				</linearGradient>
				<path class="st0" d="M11.1,7.6c-1.5,8.9,0.1,16.5,4.6,23c0.7,1,1.5,2,2.3,3c2.7,3.4,5.6,6.6,8.5,9.8
					c7.2,7.8,14.7,15.2,22.3,22.6c10.1,9.7,20.5,19.2,31.5,27.8c9,7,18.4,13.9,29,18.4c7,3,15.5,5.3,22.8,1.8
					c2.1-0.9,3.8-2.2,5.3-3.9c1.9-1.6,3.4-3.6,4.3-5.9c3.8-6.7,6.9-13.8,9.4-21.1c4.1-11.9,7.2-23.9,9.8-36.2
					c0.9-4.4,1.8-8.9,2.8-13.3c0.9-3.9,1.9-7.8,3.5-11.5c-0.3,0.4-0.5,0.8-0.8,1.2c0.3-0.5,0.7-0.9,1-1.4c-4.5,2.3-9.1,4.5-13.6,6.8
					c4.1,6.4,7.9,13,11.3,19.8c0.9,1.8,1.9,3.7,2.9,5.5c1.4,2.3,2.8,4.6,4.4,6.8c4.7,6.5,10.9,12.5,18,16.3
					c4.2,2.2,8.5,3.9,13.2,4.6c4.3,0.7,9.5,0.4,13.6-1.1c1.5-0.7,3.1-1.4,4.6-2.1c3.2-1.7,6.1-3.9,8.7-6.5c1.4-1.2-4.9-4.1-5.5-4.4
					c-1.8-0.9-3.7-1.8-5.7-2.6c-1.3-0.8-2.7-1.1-4.2-1.1c-2.2,0.5-4.5,1.1-6.7,1.8c0.3-0.1,0.6-0.2,0.9-0.2c-2.1,0.1-4.2,0.3-6.3,0
					c-2-0.3-4.3-1.1-6.2-1.8c-5.1-2.1-9.8-5.5-13.9-9.1c-4.2-3.6-8.1-7.6-11.6-11.9c-1.9-2.2-3.8-4.3-5.6-6.5c-1.9-2.3-4.4-4-6.7-6
					c2.1,4.4,4.3,8.8,6.4,13.2c-0.4-2.5-0.4-5,0.1-7.5c-0.1,0.3-0.1,0.6-0.2,0.9c1.2-3.5,2.5-6.9,3.4-10.5c0.5-2.2,0.7-4.2-0.3-6.3
					c-0.9-1.9-5.1,0.6-6.2,1.1c-1.7,0.7-3.4,1.5-5,2.4c-1.3,0.5-2.3,1.3-3.1,2.4c-0.5,3-1.8,5.9-2.7,8.9c-1.6,5.4-3,10.9-4.4,16.4
					c-1.6,6.2-3.3,12.4-5.5,18.5c-1.1,3.3-2.4,6.5-3.8,9.6c-1.9,4.2-4,8.1-6.3,12c0.2-0.3,0.3-0.5,0.5-0.8c-1.1,1.6-2.3,3.1-3.4,4.7
					c0.2-0.2,0.4-0.5,0.6-0.7c-1,1.1-2,2.2-3.1,3.3c0.2-0.2,0.5-0.4,0.7-0.6c-0.9,0.6-1.8,1.1-2.8,1.7c0.3-0.1,0.5-0.3,0.8-0.4
					c-0.9,0.4-1.8,0.8-2.7,1.2c0.3-0.1,0.6-0.2,0.9-0.3c-0.7,0.1-1.5,0.2-2.2,0.3c-0.8-0.1-1.7-0.3-2.5-0.4c-1.8-0.4-3.5-1-5.2-1.7
					c-5.5-2.3-10.6-5.4-15.5-8.8c-13-8.8-24.9-19.4-36.3-30.1c-10.9-10.2-21.6-20.8-32-31.5c-4.1-4.2-8-8.5-11.6-13.1
					c-1.7-2.1-3.6-4-5.5-5.9c0.9,6.5,1.9,13,2.8,19.5c0.2-0.1,0.3-0.2,0.5-0.3c0.8-0.6,1.1-1.3,0.8-2.4c-0.3-2.7-0.8-5.3-1.4-7.9
					c-0.5-2.6-1.2-5.2-2.1-7.7C12.6,8.3,12,7.7,11.1,7.6z"/>
				<linearGradient id="SVGID_2_" gradientUnits="userSpaceOnUse" x1="14.7438" y1="59.3524" x2="233.0082" y2="59.3524">
					<stop  offset="0" style="stop-color:#FFF23A"/>
					<stop  offset="4.010540e-02" style="stop-color:#FEE62D"/>
					<stop  offset="0.1171" style="stop-color:#FED41A"/>
					<stop  offset="0.1964" style="stop-color:#FDC90F"/>
					<stop  offset="0.2809" style="stop-color:#FDC60B"/>
					<stop  offset="0.6685" style="stop-color:#F28F3F"/>
					<stop  offset="0.8876" style="stop-color:#ED693C"/>
					<stop  offset="1" style="stop-color:#E83E39"/>
				</linearGradient>
				<path class="st1" d="M15.4,8.4c-0.9,4.4-0.8,8.8,0.2,13c0.3,0.7,0.7,1.4,1.2,2.1c1.5,2.5,3.3,4.7,5.1,7c3,3.8,6.3,7.3,9.6,10.8
					c4.9,5.1,9.9,10.2,14.9,15.2c10,9.8,20.3,19.3,31.1,28.2c9.8,8,20.1,15.9,31.6,21.2c6.6,3.1,13.8,5.3,21.1,4.1
					c2.8-0.7,5.3-1.9,7.6-3.6c2.8-2,4.9-4.5,6.4-7.6c3.5-6.1,6.1-12.8,8.5-19.4c4.5-12.7,7.5-25.8,10.3-39
					c1.2-5.6,2.3-11.3,3.7-16.9c0.8-3.2,1.6-6.5,3.7-9.1c-5.3,2.5-10.7,5-16,7.5c4.6,0.3,9.2,0.7,13.8,1c-3.5-1.4-7-2.9-10.6-4.3
					c-0.4,0.8-0.4,1.5,0.1,2.1c2.1,3.8,4.4,7.6,6.7,11.3c-0.8-1.5-1.5-3-2.3-4.6c4.1,9.3,6.4,19.4,12.4,27.8
					c4.6,6.5,10.7,12.5,17.8,16.2c5.4,2.9,11.5,5.1,17.7,4.9c2.8-0.1,6.7-0.5,9.3-1.4c1.6-0.7,3.1-1.4,4.7-2.1
					c3.3-1.7,6.3-3.9,8.9-6.6c1.4-1.2-3.2-3.7-3.8-4.1c-1.4-0.9-2.8-1.6-4.2-2.3c-1-0.7-2.1-1-3.3-0.9c-2.1,1.6-4.2,2.9-6.6,4.1
					c0.3-0.1,0.5-0.2,0.8-0.3c-1.4,0.5-2.9,0.9-4.3,1.4c0.3-0.1,0.6-0.1,0.8-0.2c-1.4,0.2-2.9,0.4-4.3,0.6c0.3,0,0.6-0.1,0.9-0.1
					c-3.7-0.1-7-0.5-10.5-1.9c-3-1.2-5.8-2.8-8.5-4.7c-2.8-2-5.5-4.1-8-6.6c-3-3-5.6-6.3-8.1-9.7c0.2,0.3,0.4,0.6,0.6,0.9
					c-2-3.7-4.1-7.5-6-11.3c-0.6-1.3-1.2-2.6-1.9-3.9c-0.9-0.9-1.8-1.9-2.8-2.8c1.3,2.6,2.6,5.2,3.9,7.8c-0.1-1-0.2-2-0.2-3
					c0.2-1.9,0.6-3.6,1.4-5.3c0.5-1.3,1-2.6,1.4-4c1-2.1,1.1-4.2,0.4-6.5c-0.1-2-5.9,0.3-6.7,0.6c-1.9,0.6-3.7,1.2-5.6,2
					c-1.4,0.4-2.6,1.1-3.6,2.1c-1.2,2.1-2.3,3.9-3,6.3c-0.8,2.4-1.4,4.9-2.1,7.3c-2,7.5-3.6,15.2-5.4,22.8c0.1-0.3,0.1-0.6,0.2-0.9
					c-2.3,9-4.7,18-7.7,26.9c-0.5,1.7-1.1,3.4-1.9,5c-0.9,2.3-1.9,4.6-3,6.9c-0.5,0.8-1.1,1.5-1.6,2.3c-1.2,1.5-2.7,2.5-4.5,3
					c0.3-0.1,0.6-0.1,0.8-0.2c-1.2,0.2-2.4,0.4-3.6,0.7c0.3,0,0.6-0.1,0.9-0.1c-10.6-0.4-20.2-6.8-28.7-12.7
					c-11.8-8.2-22.7-17.8-33.3-27.5C51.9,48.6,42,38.7,32.2,28.6c-3.7-3.8-7.3-7.7-10.4-12c-1.6-2.3-3.4-4.6-5-6.9
					c0.2,0.3,0.4,0.7,0.6,1c-0.2-0.3-0.3-0.5-0.5-0.8c0.2,3.9,0.4,7.8,0.7,11.7c0.1-0.1,0.3-0.2,0.4-0.3c0.5-1.1,0.6-2.2,0.3-3.3
					c-0.1-1.6-0.3-3.1-0.7-4.7c-0.2-1.2-0.5-2.5-0.9-3.7C16.6,8.8,16.1,8.4,15.4,8.4z"/>
				<linearGradient id="SVGID_3_" gradientUnits="userSpaceOnUse" x1="15.6797" y1="59.8409" x2="234.4103" y2="59.8409">
					<stop  offset="0" style="stop-color:#FFF23A"/>
					<stop  offset="4.010540e-02" style="stop-color:#FEE62D"/>
					<stop  offset="0.1171" style="stop-color:#FED41A"/>
					<stop  offset="0.1964" style="stop-color:#FDC90F"/>
					<stop  offset="0.2809" style="stop-color:#FDC60B"/>
					<stop  offset="0.6685" style="stop-color:#F28F3F"/>
					<stop  offset="0.8876" style="stop-color:#ED693C"/>
					<stop  offset="1" style="stop-color:#E83E39"/>
				</linearGradient>
				<path class="st2" d="M16.6,5.1c-1.6,7.9-1,15.4,1.8,22.4c0.7,1.2,1.5,2.3,2.4,3.4c2.1,2.7,4.3,5.3,6.5,7.8
					c8,9,16.5,17.4,25.1,25.7c10.1,9.7,20.5,19.2,31.5,27.8c8.5,6.7,17.4,13.2,27.3,17.7c2.8,1.3,5.8,2.5,8.8,3.3
					c3.7,1,8.2,1.6,12,0.8c2.7-0.7,5.3-1.9,7.5-3.6c2.8-2,4.8-4.6,6.2-7.7c3.2-6,5.8-12.3,8.1-18.6c4.6-12.5,7.7-25.5,10.6-38.5
					c1-4.4,1.9-8.9,2.9-13.3c0.9-3.9,1.9-7.8,3.6-11.5c-0.4,0.5-0.7,0.9-1.1,1.4c0.7-0.9,1.4-1.8,2.1-2.7c-6,3.6-12.1,7.2-18.1,10.8
					c4.9,5.3,9.9,10.6,14.8,15.9c-0.3-0.4-0.6-0.8-1-1.2c1,1.6,1.9,3.2,2.9,4.8c-0.3-0.5-0.5-0.9-0.8-1.4
					c3.4,6.4,7.1,12.4,12.2,17.5c4.3,4.4,9.1,8,14.6,10.8c4.7,2.4,9.9,4,15.3,4c3.1,0,6.3-0.6,9.2-1.5c2.5-0.8,4.8-2,6.9-3.5
					c2.4-1.4,4.6-3.1,6.5-5.2c0.1-1-0.3-1.7-1.2-2.3c-1.5-1.2-3.2-2.3-4.8-3.3c-2-1.3-4.1-2.5-6.3-3.7c-1.4-1-3-1.7-4.7-1.9
					c-1.8,0.6-3.6,1.3-5.3,2.1c-1.8,0.3-3.6,0.4-5.3,0.4c0.3,0,0.6,0.1,1,0.1c-1.2-0.2-2.5-0.4-3.7-0.7c0.3,0.1,0.6,0.1,0.9,0.2
					c-1.3-0.3-2.5-0.7-3.8-1c0.3,0.1,0.6,0.2,0.9,0.3c-3.2-1.3-6.1-2.8-9-4.7c-3.8-2.6-7.3-5.7-10.5-9c-3-3.1-5.7-6.6-8.7-9.8
					c-1.6-1.7-3.2-3.5-4.7-5.3c-2.9-1.8-5.7-3.6-8.4-5.6c2.6,5.2,5.2,10.3,7.9,15.5c0.4-3.4,0.8-6.7,1.2-10.1c1-2.1,1.8-4.2,2.4-6.4
					c0.6-1.2,0.8-2.4,0.6-3.7c0.2-1.1,0-2.1-0.6-3c-0.7-0.6-1.6-0.7-2.5-0.3c-2.5,0.9-5,2-7.3,3.2c-2.4,1.1-4.8,2.4-7,3.8
					c-0.9,0.5-1.4,1.2-1.3,2.1c0,1.3-0.3,2.4-1,3.5c-0.6,1.6-1.1,3.3-1.5,5c-1.2,3.9-2.4,7.9-3.5,11.8c-1.4,4.9-2.9,9.8-4.6,14.6
					c-2.1,6.1-4.7,11.9-7.6,17.7c0.1-0.3,0.3-0.6,0.4-0.8c-1.5,2.7-3,5.3-4.6,8c-1.2,1.3-2.2,2.8-2.9,4.3c-0.3,1-1,1.8-1.9,2.3
					c-0.8,1-1.8,1.5-3,1.6c0.3,0,0.6,0,1,0c-1-0.1-2-0.1-3-0.2c0.3,0,0.6,0.1,1,0.1c-1.1-0.2-2.1-0.3-3.2-0.5
					c0.3,0.1,0.6,0.1,0.9,0.2c-4.2-1.4-8.2-3.1-12.1-5.4c-5.5-3.1-10.6-6.9-15.7-10.7c-11.5-8.8-22.2-18.5-32.6-28.4
					c-9.8-9.3-19.6-18.8-28.8-28.7c-1.8-2-3.6-4.1-5.4-6.1c-1.3-1.6-2.5-3.2-3.8-4.9c-1.5-1.8-3.1-3.5-4.6-5.3
					c0.3,6.8,0.6,13.6,0.9,20.3c0.2-0.1,0.3-0.2,0.5-0.2c0.8-0.5,1.2-1.3,1.1-2.3c0-2.8-0.3-5.5-0.6-8.3c-0.3-2.8-0.7-5.5-1.3-8.2
					C18.1,6.1,17.5,5.4,16.6,5.1z"/>
				<linearGradient id="SVGID_4_" gradientUnits="userSpaceOnUse" x1="20.9345" y1="70.5499" x2="239.7452" y2="70.5499">
					<stop  offset="0" style="stop-color:#FFF23A"/>
					<stop  offset="4.010540e-02" style="stop-color:#FEE62D"/>
					<stop  offset="0.1171" style="stop-color:#FED41A"/>
					<stop  offset="0.1964" style="stop-color:#FDC90F"/>
					<stop  offset="0.2809" style="stop-color:#FDC60B"/>
					<stop  offset="0.6685" style="stop-color:#F28F3F"/>
					<stop  offset="0.8876" style="stop-color:#ED693C"/>
					<stop  offset="1" style="stop-color:#E83E39"/>
				</linearGradient>
				<path class="st3" d="M21.6,21.2c-0.5,3.3-1.1,7.1-0.4,10.4c0.5,2.4,1.9,4.4,3.4,6.3c5.8,7.8,12.7,14.8,19.5,21.7
					c9.6,9.7,19.5,19.2,29.8,28.2c10.7,9.4,22,18.5,34.4,25.5c7.4,4.2,15.5,7.8,24.2,7.8c4.3,0,8.8-1.6,12.1-4.2
					c2.8-2.2,5-5,6.6-8.2c2.2-4,4.2-8,6.1-12.2c6.1-13.5,9.7-27.8,12.7-42.3c1.2-5.9,2.3-11.8,3.6-17.7c0.9-4.3,1.7-9.2,4.4-12.8
					c-0.9,1-1.8,2-2.8,3c0.8-0.7,1.5-1.3,2.3-2c-2,1.1-4.1,2.1-6.1,3.2c0.4,0,0.8,0,1.2,0.1c-0.5-0.3-1-0.6-1.4-0.8
					c0.2,1.7-0.2,3.3-1.3,4.7c-0.7,1.4-0.6,2.8,0.1,4.4c0.5,2.5,1.1,5,1.6,7.5c0.6,2.9,1.2,5.9,1.9,8.8c2.4,8.6,7.4,16.2,14,22.3
					c6.6,6.1,15.1,11.3,24.2,12.3c3.1,0.4,6.2,0.4,9.3-0.1c3.4-0.6,6.7-1.7,9.7-3.4c3.1-1.8,6-3.9,8.5-6.5c1.8-1.6-0.7-2.7-2-3.4
					c-1.8-0.9-3.7-1.6-5.6-2.2c-1-0.5-2.1-0.7-3.2-0.4c-2.3,1-4.6,2-6.8,3.1c0.3-0.1,0.5-0.2,0.8-0.3c-1.4,0.3-2.8,0.7-4.2,1
					c0.3-0.1,0.6-0.1,0.8-0.2c-1.4,0.2-2.7,0.4-4.1,0.6c0.3,0,0.6,0,0.9-0.1c-1.4,0-2.8-0.1-4.1-0.1c0.3,0,0.6,0,0.9,0
					c-1.4-0.2-2.8-0.3-4.2-0.5c0.3,0,0.6,0.1,0.8,0.1c-6.1-1.6-11.6-4.2-16.6-8.1c-2.1-1.7-4.1-3.5-6.1-5.3c-2.9-2.9-5.2-6-7.3-9.5
					c0.2,0.3,0.3,0.5,0.5,0.8c-2-3.8-3.7-7.6-5.2-11.8c0.2,1,0.3,2,0.5,2.9c1.1-5.5,2.7-10.9,4.8-16.1c0.2-0.7,0.2-1.5,0.1-2.2
					c0-0.7,0-1.5-0.1-2.2c-0.5-0.7-1.1-1.1-1.8-1.4c-1.3-0.7-1.9-0.2-3.1,0.6c-1.6,1.2-3.7,2.7-4.6,4.5c-1.8,3.5-2.6,7.4-3.5,11.2
					c-1.7,6.8-3.2,13.7-4.9,20.5c0.1-0.3,0.2-0.6,0.3-0.9c-2.3,8.4-4.7,16.9-8.3,24.9c-1.6,3.6-3.2,7.2-5.4,10.5
					c-2.6,4-5.3,7.6-8.5,11.1c0.2-0.2,0.4-0.4,0.6-0.6c-1.7,1.4-3.5,2.7-5.3,3.9c0.3-0.1,0.5-0.2,0.8-0.3c-1.1,0.4-2.2,0.8-3.3,1.2
					c0.3-0.1,0.6-0.1,0.8-0.2c-2.1,0.2-4.1,0.3-6.2,0.2c0.3,0,0.6,0,0.9,0c-4.7-0.9-8.9-2.3-13.2-4.4c-5.7-2.9-11.1-6.4-16.3-10.2
					c-11-7.9-21.2-16.8-31.1-26c-9.5-8.8-18.8-18-27.8-27.3c-5.8-6-11.2-12.3-15.6-19.4c0.2,0.3,0.3,0.7,0.5,1
					c-0.1-0.3-0.2-0.6-0.4-0.9c-0.3,3.7-0.6,7.4-0.9,11.1c0.2-0.1,0.4-0.2,0.6-0.3c0.2-0.3,0.4-0.7,0.5-1c0.1-0.7,0.2-1.4,0.2-2.1
					c0.2-2.3,0.1-4.8-0.2-7.1c-0.1-0.8-0.2-1.9-1.1-2.2C22.6,19.7,21.8,20.3,21.6,21.2z"/>
				<linearGradient id="SVGID_5_" gradientUnits="userSpaceOnUse" x1="21.8404" y1="64.6586" x2="239.7805" y2="64.6586">
					<stop  offset="0" style="stop-color:#FFF23A"/>
					<stop  offset="4.010540e-02" style="stop-color:#FEE62D"/>
					<stop  offset="0.1171" style="stop-color:#FED41A"/>
					<stop  offset="0.1964" style="stop-color:#FDC90F"/>
					<stop  offset="0.2809" style="stop-color:#FDC60B"/>
					<stop  offset="0.6685" style="stop-color:#F28F3F"/>
					<stop  offset="0.8876" style="stop-color:#ED693C"/>
					<stop  offset="1" style="stop-color:#E83E39"/>
				</linearGradient>
				<path class="st4" d="M23.7,13.3c-1.5,4.5-2.1,9-1.7,13.6c0.3,0.8,0.6,1.5,1,2.2c1.4,2.5,3.3,4.8,5.1,7.1c3,3.8,6.3,7.3,9.6,10.8
					c4.9,5.1,9.9,10.2,14.9,15.2c10,9.8,20.3,19.3,31.1,28.2c9.8,8,20.1,15.8,31.6,21.1c6.3,2.9,14.3,5.6,21.4,4.1
					c2.9-0.7,5.5-1.9,7.8-3.7c2.8-2.1,5-4.8,6.5-8c3.3-6.2,6-12.8,8.4-19.3c4-11.2,7-22.6,9.5-34.2c1.3-6.1,2.5-12.3,3.9-18.5
					c0.9-4,1.8-7.9,3.5-11.5c-0.2,0.4-0.5,0.9-0.7,1.3c0.3-0.4,0.7-0.9,1-1.3c-3.7,2.8-7.3,5.6-11,8.4c4.1-2.4,8.2-4.7,12.3-7.1
					c-4.5,1.3-9,2.6-13.5,4c0,0.3,0.1,0.6,0.1,0.9c0.1-0.3,0.3-0.5,0.4-0.8c-0.4,0.6-0.9,1.2-1.3,1.7c-0.2,0.7,0.1,1.3,0.7,1.7
					c2.1,3.1,4.2,6.1,6.3,9.2c-0.7-1.4-1.5-2.8-2.2-4.2c3.8,8.4,6.3,17.4,11.1,25.3c2.2,3.6,5.3,7.2,8.4,10c2.7,2.5,5.6,4.8,8.8,6.7
					c5.3,3.3,11.2,5.5,17.4,5.9c3.9,0.3,7.9-0.1,11.7-1.4c1.6-0.7,3.2-1.4,4.8-2.1c3.4-1.8,6.4-4.2,9-7c1.6-1.5-5.9-5.4-6-5.5
					c-1.8-1.1-3.7-2.1-5.6-2.9c-0.8-0.4-1.5-0.3-2.1,0.3c-2.6,1.6-4.8,3.3-7.8,4.1c-1,0.2-2,0.4-3,0.7c-2.1,0.2-4.2,0-6.3-0.3
					c0.3,0.1,0.6,0.1,0.9,0.2c-1.4-0.4-2.7-0.7-4.1-1.1c0.3,0.1,0.6,0.2,0.8,0.2c-4.8-1.8-9.1-4-13.1-7.3c-3.2-2.6-6.1-5.5-8.7-8.7
					c-1.4-1.6-2.6-3.3-3.6-5.1c-1.1-1.8-2.1-3.6-3.1-5.5c-1.7-2.3-3.3-4.8-4.6-7.4c-0.8-1-1.7-1.7-3-2.1c1.2,2.4,2.5,4.8,3.7,7.2
					c-0.3-2.2,0-4.3,1.2-6.2c1.1-2,2.1-4.1,2.9-6.3c0.4-0.9,0.7-1.7,0.9-2.6c0.6-2,0.3-3.7-0.9-5.1c-1.1-1.8-5.2,1.1-6.2,1.8
					c-1.7,0.9-3.3,1.9-4.9,2.9c-1.3,0.6-2.3,1.5-3,2.7c-0.6,2.1-1.4,4-2,6.1c-0.9,3-1.7,6.1-2.6,9.1c-2.4,8.6-4.6,17.2-7.6,25.6
					c-1.7,4.6-3.4,9.2-5.5,13.6c-0.7,1.5-1.4,2.9-2.1,4.4c-1.4,3.1-3,6-4.9,8.8c-0.5,1.1-1.1,2.2-1.6,3.4c-0.7,0.9-1.5,1.8-2.3,2.7
					c-2.1,2.4-4.6,2.4-7.6,2.5c0.3,0,0.6,0.1,0.9,0.1c-1.2-0.2-2.4-0.4-3.6-0.6c0.3,0.1,0.6,0.1,0.9,0.2c-1.3-0.3-2.7-0.7-4-1
					c0.3,0.1,0.6,0.1,0.8,0.2c-10.1-3.8-19-9.8-27.7-16.2c-11.7-8.8-22.6-18.7-33.2-28.8c-8.9-8.5-17.9-17-26-26.3
					c-1.3-1.5-2.6-3-3.9-4.5c-1.1-1.6-2.3-3.3-3.4-4.9c-1.3-1.9-2.8-3.7-3.9-5.8c-0.2,4.5-0.4,8.9-0.6,13.4c0.2-0.1,0.3-0.2,0.5-0.2
					c0.7-1,0.9-2.2,0.8-3.5c0.1-1.7,0.1-3.3,0.1-5c0-1.3-0.1-2.7-0.3-4C24.9,13.9,24.4,13.4,23.7,13.3z"/>
				<linearGradient id="SVGID_6_" gradientUnits="userSpaceOnUse" x1="11.0514" y1="61.235" x2="232.7719" y2="61.235">
					<stop  offset="0" style="stop-color:#FFF23A"/>
					<stop  offset="4.010540e-02" style="stop-color:#FEE62D"/>
					<stop  offset="0.1171" style="stop-color:#FED41A"/>
					<stop  offset="0.1964" style="stop-color:#FDC90F"/>
					<stop  offset="0.2809" style="stop-color:#FDC60B"/>
					<stop  offset="0.6685" style="stop-color:#F28F3F"/>
					<stop  offset="0.8876" style="stop-color:#ED693C"/>
					<stop  offset="1" style="stop-color:#E83E39"/>
				</linearGradient>
				<path class="st5" d="M11.9,22.3c-0.1,0-0.1,0.1-0.2,0.1c-0.5,0.2-0.7,0.5-0.7,1c0.2,3.6,2.2,6.3,4.5,9
					c8.1,9.4,16.9,18.3,25.7,26.9c11.4,11.2,23.3,22.1,36,31.9c5.9,4.6,12.1,9,18.5,12.8c5.5,3.2,11.5,6.3,17.8,7.8
					c3.2,0.8,5.9,1.2,9.3,1.1c3.9-0.1,5.9-1,9.4-2.5c3.1-1.3,6.6-4.4,8.7-7c1.1-1.6,2-3.3,3-5c1.3-2.5,2.5-4.9,3.6-7.4
					c1.8-4.3,3.4-8.7,4.9-13.1c1.3-4,2.5-8.1,3.6-12.2c2-7.5,3.5-15.1,4.9-22.8c1.1-6.2,2.1-12.4,3.3-18.5c0.9-4.2,1.6-8.6,4.2-12.1
					c-1.5,0.6-3,1.1-4.6,1.7c2.2,3.6,2.5,7.2,0.7,10.8c-1.1,3.3-2,6.6-2.7,10c-0.6,2-0.8,4-0.8,6c0.6,2.8,1.5,5.6,2.7,8.3
					c3.5,8.2,9.1,15.2,16.2,20.7c7.4,5.7,16.7,9.8,26.2,9.6c5.5-0.1,10.5-1.7,15.3-4.2c4.3-2.3,6.9-4.8,10.5-8.1
					c0.9-0.8,0.7-1.7-0.2-2.4c-1-0.9-1.5-0.7-2.4,0.1c-8.4,7.6-17.2,11.8-27.6,10.3c-5.6-0.8-11.2-3.1-15.9-6.3
					c-3.1-2.1-6-4.4-8.7-6.9c-1.6-1.4-3.1-3-4.4-4.8c-2.6-3-4.5-6.3-5.8-9.9c-2.1-3.5-2.6-7.4-1.6-11.6c0.4-1.8,0.8-3.5,1.2-5.3
					c0.9-2.5,1.6-5.1,2.2-7.6c0.5-2,1-4,1.4-6c0-1.2,0-2.3-0.1-3.5c-0.2-0.6-0.5-1.2-0.8-1.8c-0.5-0.8-1-1.1-1.8-1.5
					c-0.9-0.5-4,0.9-4.6,1.7c-2.4,3.6-3.4,7.8-4.2,12c-1.6,8.1-2.5,16.4-3.7,24.6c-1.7,12-4,24.1-8.2,35.5c-6,20.5-16,28.6-30,24.2
					c-3.6-0.2-7.1-1.2-10.3-2.9c-3.8-1.8-7.5-3.8-11.1-6c-8.1-5-15.7-10.8-23.1-16.9c-8.5-7.1-16.7-14.5-24.7-22.2
					c-6.5-6.2-12.9-12.6-19-19.1c-3-3.2-6-6.3-8.9-9.5c-0.7-0.8-1.4-1.6-2.1-2.4c-1.5-1.4-2.6-3-3.3-4.9c-0.2,0.6-0.4,1.3-0.6,1.9
					c0.2-0.1,0.3-0.2,0.5-0.3c0.9-0.6,0.6-2,0.1-2.8C13.9,21.6,12.8,21.8,11.9,22.3z"/>
				<linearGradient id="SVGID_7_" gradientUnits="userSpaceOnUse" x1="7.3716" y1="64.8808" x2="228.2395" y2="64.8808">
					<stop  offset="0" style="stop-color:#FFF23A"/>
					<stop  offset="4.010540e-02" style="stop-color:#FEE62D"/>
					<stop  offset="0.1171" style="stop-color:#FED41A"/>
					<stop  offset="0.1964" style="stop-color:#FDC90F"/>
					<stop  offset="0.2809" style="stop-color:#FDC60B"/>
					<stop  offset="0.6685" style="stop-color:#F28F3F"/>
					<stop  offset="0.8876" style="stop-color:#ED693C"/>
					<stop  offset="1" style="stop-color:#E83E39"/>
				</linearGradient>
				<path class="st6" d="M10.2,26.3c0.2,2.1,2.4,4.3,3.6,5.9c2,2.7,4.2,5.2,6.4,7.7c7.9,9,16.5,17.4,25.1,25.7
					c10.1,9.7,20.6,19.1,31.6,27.8c10.1,8,21,15.8,33.3,20.1c4.5,1.6,9.3,2.7,14.1,1.9c2.9-0.5,6-1.8,8.4-3.4c3.3-2.2,4.2-3.8,6.4-7
					c1.4-2,2.7-4.1,3.9-6.3c1.6-3.3,3.1-6.6,4.5-10c5.5-13.3,8.6-27.5,11.4-41.6c1-5.3,2-10.6,3.2-15.9c0.9-4,1.8-7.8,3.5-11.5
					c-0.2,0.3-0.3,0.6-0.5,0.9c0.4-0.5,0.9-1,1.3-1.5c-2.7,0.9-5.4,1.8-8.2,2.6c0.6,0.3,1.1,0.6,1.7,0.9c-0.3-0.5-0.6-0.9-0.8-1.4
					c-1.1,2.4-1.4,5-1,7.6c0.1,1.8,0.3,3.5,0.7,5.3c0.8,4.3,2,8.5,3.4,12.7c1.2,3.9,2.8,7.8,5.1,11.2c1.8,2.7,3.9,5.3,6.1,7.8
					c5.9,6.6,13.6,11.8,22,14.6c4.4,1.5,9,1.8,13.5,1.4c3.4-0.4,6.6-1.3,9.6-2.8c3.4-1.6,6.5-3.6,9.3-6.1c1.8-1.4-0.8-2.7-1.8-3.1
					c-1.6-0.6-3.2-1.1-4.8-1.5c-0.9-0.4-1.9-0.4-2.7,0c-3.9,1.6-7.8,3.1-12,3.4c-4.5,0.4-9.1-1-13.2-2.8c-8.3-3.7-15-9.5-21.2-16
					c0.3,0.3,0.5,0.6,0.8,0.9c-1.8-2.1-3.5-4.2-5.1-6.4c-1.7-2.7-3.1-5.5-4.3-8.4c0.4,1.7,0.9,3.4,1.3,5.1c-1.2-5.9-0.5-11,1.4-16.6
					c0.7-1.9,1.3-3.9,1.7-5.8c0.4-1.6,0.1-3-0.8-4.2c-0.7-1.2-2-0.8-3-0.5c-0.7,0.3-1.4,0.5-2.2,0.8c-1.2,0.4-2.4,1-3.5,1.8
					c-2.4,3.7-3.7,7.7-4.7,12c-2.6,10.2-4.2,20.7-6.7,30.9c-1.8,7.5-3.8,15.2-6.9,22.3c-2.5,5.7-5.1,11.9-9.7,16.3
					c-3.1,3-6.4,4.4-10.7,4.3c-4.1-0.1-7.9-1.5-11.6-3.1c-10.3-4.6-19.6-11.7-28.4-18.7c-10.8-8.7-21.1-18.1-31.1-27.7
					c-4.2-4-8.3-8.1-12.4-12.2c-4.8-4.8-9.7-9.5-14.2-14.6c-2.5-2.8-4.9-5.6-7.2-8.5c-1.6-2.1-3.3-4-5.1-5.9c0.3,0.3,0.5,0.6,0.8,1
					c-0.1-0.2-0.3-0.4-0.4-0.6c-1.1-1.5-2.4-1.3-2.6,0.7c0.2,1.8,0.5,3.6,1.1,5.4C8.9,22.9,9.4,24.6,10.2,26.3z"/>
				<linearGradient id="SVGID_8_" gradientUnits="userSpaceOnUse" x1="12.9951" y1="70.8257" x2="233.5097" y2="70.8257">
					<stop  offset="0" style="stop-color:#FFF23A"/>
					<stop  offset="4.010540e-02" style="stop-color:#FEE62D"/>
					<stop  offset="0.1171" style="stop-color:#FED41A"/>
					<stop  offset="0.1964" style="stop-color:#FDC90F"/>
					<stop  offset="0.2809" style="stop-color:#FDC60B"/>
					<stop  offset="0.6685" style="stop-color:#F28F3F"/>
					<stop  offset="0.8876" style="stop-color:#ED693C"/>
					<stop  offset="1" style="stop-color:#E83E39"/>
				</linearGradient>
				<path class="st7" d="M13,19.7c0.4,5.1,1.2,10.1,2.4,15c0.5,0.9,1.1,1.8,1.7,2.7c2.3,3.4,5.2,6.6,7.9,9.7
					c8,8.9,16.5,17.4,25.1,25.7c10.1,9.7,20.6,19.2,31.6,27.8c10.2,7.9,21.1,15.9,33.5,20c4.5,1.5,9.6,2.6,14.4,1.6
					c3.2-0.7,5.4-1.6,8.2-3.3c1.6-1,3-2.5,4.3-3.8c2.1-3.3,4.2-6.6,6.3-9.9c2.2-4.4,4.2-8.8,6.1-13.2c5.2-13,8.3-26.9,11-40.7
					c1.2-5.7,2.2-11.5,3.6-17.2c0.8-3.2,1.5-6.4,3.5-9.1c-1.5,1.2-3.1,2.4-4.6,3.6c1-0.4,2-0.7,2.9-1.1c-1.3-0.4-2.7-0.8-4-1.2
					c0.1,2.5-0.7,4.7-2.2,6.6c-0.7,1.3-1,2.6-0.9,4.1c-0.2,2.4-0.1,4.8,0.2,7.2c0.7,2.7,1.4,5.4,2.1,8.1c0.9,3.2,2.1,6.3,3.6,9.2
					c1.8,3.5,4.2,6.8,6.7,9.8c6.7,7.9,15.6,14.3,25.8,16.7c5.3,1.2,11.1,1.4,16.3-0.4c1.7-0.6,3.3-1.3,4.9-1.9
					c3.4-1.7,6.6-3.8,9.4-6.4c1.5-1.2-0.4-2.3-1.3-2.6c-1.2-0.5-2.4-0.8-3.6-1.1c-1.5-0.4-3.1-0.6-4.7-0.7c-2.9,0.8-5.8,1.6-8.8,2.2
					c-2.5,0.3-5.1,0.3-7.6,0c-4.2-0.6-8.2-2.2-11.9-4.1c-8.9-4.5-16.1-11.6-22.3-19.3c0.2,0.3,0.5,0.6,0.7,0.9
					c-2.4-3.6-4.7-7.1-6.1-11.3c0.5,2,1,4,1.5,6c-0.2-4.3,0.4-8.5,2-12.6c1.3-2.5,2.3-5.1,3.1-7.8c0.3-1.1,0.3-2.2,0.1-3.3
					c0-0.8-0.3-1.5-0.9-2.1c-0.6-1-1.5-0.8-2.5-0.4c-0.5,0.3-1,0.5-1.5,0.8c-0.9,0.4-1.6,1-2.3,1.7c-0.8,2-1.8,3.9-2.4,6
					c-1.2,4-2.1,8-2.9,12.1c-3.2,14.7-6.2,29.3-12.2,43.2c-1.6,4.2-3.7,8.1-6.3,11.8c-1.3,1.9-2.6,3.8-4,5.6
					c-2.8,3.3-7.5,6.2-11.9,6.6c-3.7,0.4-7.3-0.6-10.8-2c-3.6-1.4-7-3.1-10.4-5c-8.9-5.1-17-11.5-24.9-18
					C70.4,77,60.2,67.6,50.4,57.9C42.8,50.5,35.2,43.1,28,35.3c-2.6-2.8-5.1-5.7-7.4-8.6c-1.8-2.2-3.7-4.3-5.5-6.5
					c0.2,0.4,0.5,0.7,0.7,1.1c-0.1-0.2-0.3-0.5-0.4-0.7c0.4,4.5,0.7,9.1,1.1,13.6c0.2-0.1,0.4-0.2,0.6-0.3c0.7-0.4,0.9-1.1,1-1.8
					c-0.1-0.8-0.2-1.6-0.3-2.5c-0.3-1.7-0.7-3.5-1.1-5.2c-0.4-1.5-0.7-3.3-1.6-4.6c-0.1-0.4-0.4-0.6-0.8-0.6
					C13.6,19,13.3,19.1,13,19.7z"/>
				<linearGradient id="SVGID_9_" gradientUnits="userSpaceOnUse" x1="20.7334" y1="61.5829" x2="239.1012" y2="61.5829">
					<stop  offset="0" style="stop-color:#FFF23A"/>
					<stop  offset="4.010540e-02" style="stop-color:#FEE62D"/>
					<stop  offset="0.1171" style="stop-color:#FED41A"/>
					<stop  offset="0.1964" style="stop-color:#FDC90F"/>
					<stop  offset="0.2809" style="stop-color:#FDC60B"/>
					<stop  offset="0.6685" style="stop-color:#F28F3F"/>
					<stop  offset="0.8876" style="stop-color:#ED693C"/>
					<stop  offset="1" style="stop-color:#E83E39"/>
				</linearGradient>
				<path class="st8" d="M21.2,16.5c-0.5,2.4-0.9,5.7,0.2,8.1c1,2.1,2.4,4,3.8,5.8c3.3,4.5,7.3,8.6,11.1,12.7
					c3.6,3.8,7.2,7.5,10.9,11.2c9.8,9.8,20,19.3,30.6,28.2c10,8.4,20.5,16.6,32.1,22.7c7.7,4,17,7.7,25.8,5.7
					c4.2-1,8.8-4.2,11.6-7.5c2.5-3.5,4.6-7.3,6.2-11.4c2-4.4,3.7-8.8,5.3-13.3c4.4-12.9,7.4-26.3,10.1-39.6
					c0.9-4.4,1.8-8.9,2.8-13.3c0.9-4,1.8-7.8,3.5-11.5c-0.3,0.4-0.6,0.7-0.8,1.1c0.6-0.8,1.2-1.6,1.9-2.3c-2.1,1.5-4.3,2.9-6.4,4.4
					c1.4-0.7,2.8-1.4,4.2-2.1c-2.9,1.1-5.7,2.2-8.6,3.3c1.1-0.2,2.3-0.4,3.4-0.7c-1.1,0-2.2,0-3.3,0c0.7,0.4,1.4,0.7,2.1,1.1
					c-0.3-0.2-0.6-0.4-0.9-0.5c0.8,1.1,1.2,2.3,1.2,3.6c1,3.5,2,6.9,3,10.4c1.3,4.9,1.8,10,3,15c1,2.6,2.2,5.2,3.6,7.6
					c1.2,1.8,2.5,3.5,3.9,5.2c2.5,3,5.4,5.8,8.4,8.2c6.9,5.4,16.5,10.1,25.5,9.3c3.1-0.3,5.7-0.7,8.7-1.6c5.8-1.6,10.3-5.6,14.6-9.6
					c1.5-1.4-2.9-3.7-3.4-3.9c-1.4-0.8-3.6-2.5-5.1-1c-1.9,1.9-3.8,3.8-6.1,5.2c-1.2,0.6-2.5,1.3-3.7,1.9c-3.6,0.4-7.2,0.9-10.8,1.3
					c-6-0.6-11.7-3.5-16.6-6.9c-2.9-2-5.2-4.2-7.6-6.8c-2.4-2.6-4.5-5-6.1-8.1c-1.7-3.3-2.9-7.1-3.3-10.9c-0.4-3.4-0.6-3.4-2.3-7.1
					c0.2,0.9,0.4,1.8,0.7,2.7c-0.6-2.7-0.5-5.4,0.3-8.1c1-2.2,1.9-4.4,2.8-6.7c0.6-1.4,0.7-2.8,0.5-4.4c-0.5-0.7-1.1-1.3-1.7-1.8
					c-1.7-1.6-4.7,0.7-6.3,1.5c-1.7,0.8-3.4,1.7-5,2.7c-1.3,0.5-2.3,1.4-3.1,2.6c-1.1,2.2-1.7,4.3-2.4,6.8c-0.9,3.3-1.8,6.5-2.5,9.8
					c-2.1,9-4,18.1-6,27.1c0.1-0.3,0.1-0.6,0.2-0.8c-2.3,9.1-4.3,18.2-7.4,27.1c-1.3,3.5-2.4,7-4.8,9.9c-3.1,3.7-7.1,5.5-12.5,4.7
					c-6.3-0.9-12.2-3.7-17.6-6.7c-7.9-4.4-15.2-9.8-22.3-15.4C72,69.9,58.4,57.1,45.4,43.9c-3.4-3.4-6.7-6.9-9.9-10.4
					c-2.6-2.8-5.1-5.4-7.2-8.5c-1.7-2.5-3.5-5.1-4.4-8.1c-0.3,2.2-0.5,4.4-0.8,6.6c0.2-0.1,0.3-0.2,0.5-0.3c1.5-1,0.9-4.8,0.6-6.1
					c-0.2-0.7-0.4-1.1-1.1-1.3C22.4,15.7,21.3,15.8,21.2,16.5z"/>
				<linearGradient id="SVGID_10_" gradientUnits="userSpaceOnUse" x1="8.6388" y1="68.3533" x2="229.6661" y2="68.3533">
					<stop  offset="0" style="stop-color:#FFF23A"/>
					<stop  offset="4.010540e-02" style="stop-color:#FEE62D"/>
					<stop  offset="0.1171" style="stop-color:#FED41A"/>
					<stop  offset="0.1964" style="stop-color:#FDC90F"/>
					<stop  offset="0.2809" style="stop-color:#FDC60B"/>
					<stop  offset="0.6685" style="stop-color:#F28F3F"/>
					<stop  offset="0.8876" style="stop-color:#ED693C"/>
					<stop  offset="1" style="stop-color:#E83E39"/>
				</linearGradient>
				<path class="st9" d="M8.9,16.7C8,23.3,9.4,29,12.9,33.8c0.7,1,1.4,2,2.2,3c2,2.7,4.3,5.2,6.5,7.7C29.5,53.5,38,62,46.6,70.3
					C56.8,80,67.2,89.5,78.3,98.1c9.5,7.5,19.9,15,31.3,19.3c8,3,16.9,4.1,24.4-0.8c1.5-1,3-2.3,4.2-3.7c2.2-3.2,4.3-6.5,6.4-9.8
					c2.2-4.4,4.2-8.8,6.1-13.3c5.2-13.2,8.2-27.3,11-41.3c1.1-5.4,2-10.9,3.3-16.3c0.7-2.9,1.3-7.2,3.8-9.3
					c-2.3,0.6-4.6,1.3-6.9,1.9c0.2,0.5,0.4,1.1,0.7,1.6c0-0.5,0-1.1,0-1.6c-0.4,1.8-1.1,3.4-2.2,4.9c-0.5,1-0.8,2.1-0.7,3.2
					c-0.3,2.7-0.4,5.3,0.2,8c0.8,2.8,1.7,5.6,2.6,8.4c0.6,1.9,1.3,3.8,2,5.6c1.7,4.1,4,7.8,6.8,11.4c6.1,7.7,13.9,14.2,23.2,17.6
					c5,1.8,10.3,2.7,15.7,2c3.4-0.4,6.6-1.3,9.7-2.8c3.4-1.6,6.5-3.7,9.3-6.2c1.4-1.1-0.3-2.2-1.3-2.6c-1.1-0.5-2.3-0.8-3.5-1
					c-1.5-0.4-3-0.6-4.5-0.7c-3,0.9-6,1.9-9.1,2.4c-3.3,0.5-6.8,0.2-10-0.6c-5.6-1.4-10.8-4-15.5-7.4c-4.4-3.2-8.6-6.8-12.3-10.8
					c-4.1-4.4-7.2-9.3-9.7-14.7c0.8,2.3,1.5,4.7,2.3,7c-0.7-3.4-0.7-6.7,0.1-10c0.7-3,1.7-5.8,2.9-8.6c0.4-1.4,0.8-2.8,1.2-4.2
					c0.4-1.6,0.1-3.1-0.8-4.4c-0.6-1.1-1.6-0.9-2.6-0.5c-0.6,0.2-1.1,0.5-1.7,0.7c-1,0.4-1.8,1-2.6,1.7c-0.4,0.9-0.8,1.9-1.4,2.7
					c-0.7,1.6-1.2,3.2-1.6,4.8c-0.7,2.5-1.3,5-1.8,7.5c-2.5,11.4-4.7,22.9-8.1,34.1c-1.8,6-4,11.9-6.6,17.5c-2.2,4-4.5,8-7.1,11.7
					c-2.2,2.5-4.7,4.5-7.6,6.1c-7.1,2.9-14.7-0.2-21.1-3.5c-9.4-4.9-17.9-11.2-26.1-17.8c-10.7-8.7-20.9-18-30.9-27.6
					c-9-8.7-18.1-17.5-26.6-26.7c-2.5-2.8-5-5.6-7.4-8.5c-1.7-2.1-3.6-4.1-5.4-6.1c0.3,0.4,0.5,0.7,0.8,1.1
					c-0.2-0.2-0.3-0.4-0.5-0.6c0.8,4.6,1.6,9.2,2.3,13.8c0.2-0.1,0.4-0.2,0.5-0.4c0.7-0.4,1-1.1,0.8-2c-0.3-2-0.8-4-1.5-5.9
					c-0.6-2-1.3-3.9-2.2-5.7C10.3,17,9.7,16.6,8.9,16.7z"/>
				<linearGradient id="SVGID_11_" gradientUnits="userSpaceOnUse" x1="18.1463" y1="59.8035" x2="238.4453" y2="59.8035">
					<stop  offset="0" style="stop-color:#FFF23A"/>
					<stop  offset="4.010540e-02" style="stop-color:#FEE62D"/>
					<stop  offset="0.1171" style="stop-color:#FED41A"/>
					<stop  offset="0.1964" style="stop-color:#FDC90F"/>
					<stop  offset="0.2809" style="stop-color:#FDC60B"/>
					<stop  offset="0.6685" style="stop-color:#F28F3F"/>
					<stop  offset="0.8876" style="stop-color:#ED693C"/>
					<stop  offset="1" style="stop-color:#E83E39"/>
				</linearGradient>
				<path class="st10" d="M18.7,20.3c-0.7,0.7-0.7,2.3-0.4,3.1c0.4,1.7,1.5,3.3,2.5,4.7c1.3,1.5,2.6,3,4,4.5c1.9,2,3.7,4,5.6,6
					c4.6,4.9,9.2,9.8,14,14.5c11.3,11.2,22.9,22.1,35.3,32.1c10.1,8.2,20.8,16.2,32.8,21.4c5.4,2.4,11.4,4.4,17.4,4.1
					c3.2-0.2,6.3-0.4,9.1-2.1c2.7-1.6,5.8-3.5,7.6-6.2c4-5.7,6.4-12.5,8.8-19c4.9-13.6,8-27.8,10.8-41.9c1.2-6.1,2.3-12.3,3.6-18.4
					c0.9-4,1.8-7.8,3.5-11.5c-0.2,0.3-0.4,0.6-0.6,0.9c0.3-0.4,0.7-0.8,1-1.3c-2.2,1-4.5,2-6.7,3c1.3-0.4,2.6-0.8,3.9-1.2
					c-1.3,0.3-2.7,0.7-4,1c0.5,0.1,1,0.2,1.6,0.3c-0.3-0.1-0.5-0.3-0.8-0.4c2.7,3.6,3.4,7.4,2.1,11.5c-0.4,3.8-0.6,7.6-0.4,11.5
					c0.2,3.2,0.7,5.6,1.4,8.7c0.3,1.8,1.1,3.5,2.4,5c1,1.9,2.2,3.7,3.5,5.4c3.1,4.3,6.6,8,10.7,11.2c7.3,5.6,16.7,10.2,26.1,9.8
					c1.9-0.1,3.9-0.3,5.8-0.6c3.6-0.6,6.9-1.8,9.9-3.7c3.2-1.8,6.1-4.1,8.4-6.9c1.1-1.1,1.3-1.9,0-3c-1.1-1-2.3-1.6-3.4-0.4
					c-4.3,4.8-9.5,9-16.1,9.9c-2.8,0.1-5.6,0.2-8.5,0.3c-1.5-0.3-3-0.5-4.5-0.8c-2.8-0.7-5.4-1.8-7.8-3.2c-2.6-1.1-5.1-2.6-7.4-4.4
					c-2.9-2.3-5.7-4.7-8-7.6c-2.2-2.6-4.9-5.7-6.3-8.8c-1-5.3-2-10.6-3-15.9c0.1-2.5,0.5-4.9,1.2-7.2c0.6-2.1,1-4.2,1.3-6.4
					c0.3-1.1,0.6-2.2,1-3.4c0-1.2,0-2.4,0-3.6c-0.5-1.1-1.3-2-2.5-2.6c-1-0.8-5,1-5.5,1.2c-1.6,0.7-3.9,1.3-4.8,2.9
					c-2.9,5.1-3.8,11.1-4.8,16.8c-1.7,9.4-2.9,18.9-4.3,28.4c-1,6.9-2.1,13.8-3.8,20.6c-0.8,3.4-1.8,6.7-2.9,10
					c-0.8,2.2-1.6,4.3-2.5,6.5c-6,9-12.9,12.5-20.8,10.5c-2.2-0.3-4.3-0.9-6.3-1.6c-2.9-1-5.7-2.3-8.4-3.9c-3-1.4-5.9-3.1-8.7-4.9
					C82.8,83.9,66.6,69.1,51.2,54.1c-7.2-7-14.1-14.3-21-21.7c-0.9-1-1.8-2-2.7-3c-1.3-1.4-2.7-2.9-4-4.4c-0.8-1.2-1.8-2.5-2-4
					c-0.1,0.8-0.2,1.6-0.3,2.4c0.2-0.1,0.3-0.3,0.5-0.4c0.6-0.5,0.3-2.6-0.2-3C20.7,19.5,19.3,19.8,18.7,20.3z"/>
				<linearGradient id="SVGID_12_" gradientUnits="userSpaceOnUse" x1="8.633" y1="63.677" x2="230.5565" y2="63.677">
					<stop  offset="0" style="stop-color:#FFF23A"/>
					<stop  offset="4.010540e-02" style="stop-color:#FEE62D"/>
					<stop  offset="0.1171" style="stop-color:#FED41A"/>
					<stop  offset="0.1964" style="stop-color:#FDC90F"/>
					<stop  offset="0.2809" style="stop-color:#FDC60B"/>
					<stop  offset="0.6685" style="stop-color:#F28F3F"/>
					<stop  offset="0.8876" style="stop-color:#ED693C"/>
					<stop  offset="1" style="stop-color:#E83E39"/>
				</linearGradient>
				<path class="st11" d="M8.7,25.2c0.3-0.7,0.3-0.6,0.1,0.4c0,0.8,0.2,1.5,0.4,2.2c0.6,1.5,1.6,2.9,2.6,4.2
					c5.8,7.8,12.7,14.8,19.5,21.7c11,11.2,22.5,22.1,34.5,32.3c10.7,9.1,22.1,18.1,34.8,24.3c4.9,2.4,10,4.4,15.4,5.2
					c1.6,0.3,3.3,0.4,5,0.3c3.1,0.1,6-0.7,8.7-2.2c3.5-1.6,7.1-4.2,9.3-7.4c4.5-6.6,7.5-14.1,10.2-21.6c4.6-12.9,7.7-26.1,10.3-39.5
					c1.2-6.2,2.3-12.5,3.6-18.7c0.9-4.2,1.7-8.6,4.4-12c-1.3,0.2-2.6,0.4-3.9,0.6c0.8,6.5,0,12.6-2.4,18.5
					c-0.9,3.3-1.5,6.7-1.8,10.1c0.2,2.3,1.5,5.5,2.4,7.6c1.3,2.9,2.6,5.8,4.4,8.4c3,4.2,6.3,7.9,10.2,11.3c4.1,3.5,8.7,6.4,13.7,8.5
					c3.4,1.4,6.1,2,9.7,2.6c6.6,1.1,14.3-0.4,20-3.9c1.7-1.1,3.4-2.2,5.1-3.3c1.7-1.3,3.3-2.8,4.8-4.3c0.7-0.6,1.4-1.5,0.7-2.4
					c-0.5-0.7-1.7-1.5-2.5-0.8c-5.2,4.5-11.7,9.6-19,10.3c-5.8-0.8-11.6-1.6-17.4-2.5c-2.2-0.8-4.2-1.9-6.2-3.2
					c-3.2-2-6.2-4.2-9-6.7c-3.5-3.1-8.2-7.9-10-12.2c-0.9-4.7-1.9-9.5-2.8-14.2c0.4-2.6,1-5.1,1.8-7.5c1.1-3.7,2.6-7.3,3.4-11.1
					c0.6-2.7,0.3-5.6-1.5-7.8c-0.8-0.9-3.2-0.3-3.9,0.6c-2.1,2.8-3,6-3.8,9.4c-1.5,6.5-2.5,13.1-3.7,19.6c-1.5,8.4-3,16.7-5,25
					c-1.6,6.7-3.6,13.4-5.9,19.8c-1.2,3.5-2.6,6.8-4.5,10c-1.4,3-3.1,5.8-5.2,8.4c0.4-0.4,0.7-0.8,1.1-1.2
					c-4.4,5.2-9.7,7.7-15.8,7.5c-4.1-0.2-8.1-1-11.9-2.5c-6.4-2.4-12.4-6.1-18.1-9.8C78,90.8,66.7,81,55.8,71
					c-10.4-9.5-20.4-19.4-30-29.6c-3.7-3.9-7.5-7.7-10.6-12c-1.2-1.7-2.6-3.3-3.6-5.1c0.3,1,0.5,2,0.8,2.9c0-0.2,0-0.4,0-0.6
					c0-1-0.4-2.8-1.6-3C9.8,23.4,8.4,24,8.7,25.2z"/>
			</g>
		</g>
	</g>
	<g>
		<linearGradient id="SVGID_13_" gradientUnits="userSpaceOnUse" x1="241.1157" y1="51.3679" x2="284.6243" y2="51.3679">
			<stop  offset="0" style="stop-color:#FFF23A"/>
			<stop  offset="4.010540e-02" style="stop-color:#FEE62D"/>
			<stop  offset="0.1171" style="stop-color:#FED41A"/>
			<stop  offset="0.1964" style="stop-color:#FDC90F"/>
			<stop  offset="0.2809" style="stop-color:#FDC60B"/>
			<stop  offset="0.6685" style="stop-color:#F28F3F"/>
			<stop  offset="0.8876" style="stop-color:#ED693C"/>
			<stop  offset="1" style="stop-color:#E83E39"/>
		</linearGradient>
		<circle class="st12" cx="262.9" cy="51.4" r="21.8"/>
		<g>
			<g>
				<linearGradient id="SVGID_14_" gradientUnits="userSpaceOnUse" x1="225.3412" y1="53.4142" x2="296.3644" y2="53.4142">
					<stop  offset="0" style="stop-color:#FFF23A"/>
					<stop  offset="4.010540e-02" style="stop-color:#FEE62D"/>
					<stop  offset="0.1171" style="stop-color:#FED41A"/>
					<stop  offset="0.1964" style="stop-color:#FDC90F"/>
					<stop  offset="0.2809" style="stop-color:#FDC60B"/>
					<stop  offset="0.6685" style="stop-color:#F28F3F"/>
					<stop  offset="0.8876" style="stop-color:#ED693C"/>
					<stop  offset="1" style="stop-color:#E83E39"/>
				</linearGradient>
				<path class="st13" d="M226.7,64.2c0.4,2.8,0.8,5,1.9,7.6c1.6,3.7,4.6,7,7.6,9.5c3.4,2.8,7.9,5.3,12.1,6.5
					c4.7,1.3,9.8,2.1,14.6,1.5c5-0.6,10-2,14.4-4.6c3.7-2.1,6.8-4.7,9.7-7.8c6-6.6,9.6-15.7,9.4-24.7c-0.1-7.1-2.7-13.9-6.6-19.7
					c-2.7-4-6.9-7.6-11-10c-4.3-2.6-9.3-4.2-14.4-4.8c-10-1.1-20.9,2.7-28.1,9.8c-3,3-5.4,6.3-7.3,10.1c-1.3,2.2-2.1,4.6-2.6,7.1
					c-0.9,3.3-1.2,6.7-1,10.1c0,1.8,7-1,7.6-1.2c2.2-0.8,4.3-1.6,6.4-2.5c1.6-0.5,3-1.3,4.1-2.5c0.8-1.6,1.3-3,1.9-4.6
					c-0.2,0.3-0.3,0.5-0.5,0.8c1-1.7,2.1-3.3,3.2-4.9c-0.2,0.2-0.4,0.4-0.7,0.6c1.4-1.4,2.9-2.7,4.4-4c-0.3,0.1-0.5,0.3-0.8,0.4
					c1.8-1.1,3.7-2,5.7-2.9c-0.3,0.1-0.6,0.2-0.9,0.2c2.2-0.7,4.4-1.1,6.7-1.3c-0.3,0-0.6,0-0.9,0c1.4,0.1,2.7,0.1,4.1,0.2
					c-0.3,0-0.6-0.1-0.9-0.1c1,0.3,1.9,0.6,2.9,0.9c-0.3-0.1-0.6-0.2-0.9-0.3c1.2,0.4,2.5,0.8,3.7,1.2c-0.3-0.1-0.5-0.2-0.8-0.4
					c1.2,0.6,2.3,1.2,3.5,1.8c-0.3-0.2-0.5-0.3-0.8-0.5c1.1,0.7,2.1,1.5,3.2,2.2c-0.2-0.2-0.5-0.4-0.7-0.6c0.9,0.9,1.9,1.9,2.8,2.8
					c-0.2-0.2-0.4-0.4-0.6-0.6c0.8,1,1.6,2.1,2.4,3.1c-0.2-0.2-0.4-0.5-0.5-0.7c2.1,4,3.8,8,3.4,12.6c-0.2,1.2-0.3,2.4-0.5,3.6
					c-0.9,1.7-1.8,3.3-2.6,5.1c-3.5,5.9-10,9.5-16.7,9.9c-1.5,0.2-3,0.1-4.6-0.1c-1.9-0.1-3.6-0.8-5-2.1c-0.8-0.4-1.6-0.8-2.4-1.2
					c-1.4-1-2.7-2.1-4-3.3c-4-4.3-5-10.1-4.7-15.8c0.1-3.5-5.4,2.1-5.4,2c-2.4,2.3-4.8,4.7-7,7.2C228.3,61.1,227.3,62.5,226.7,64.2z
					"/>
				<linearGradient id="SVGID_15_" gradientUnits="userSpaceOnUse" x1="226.6342" y1="47.5931" x2="298.5625" y2="47.5931">
					<stop  offset="0" style="stop-color:#FFF23A"/>
					<stop  offset="4.010540e-02" style="stop-color:#FEE62D"/>
					<stop  offset="0.1171" style="stop-color:#FED41A"/>
					<stop  offset="0.1964" style="stop-color:#FDC90F"/>
					<stop  offset="0.2809" style="stop-color:#FDC60B"/>
					<stop  offset="0.6685" style="stop-color:#F28F3F"/>
					<stop  offset="0.8876" style="stop-color:#ED693C"/>
					<stop  offset="1" style="stop-color:#E83E39"/>
				</linearGradient>
				<path class="st14" d="M227.9,58.5c0.1,2.3,0.6,4.4,1.6,6.5c1,2.4,2.4,4.6,4.1,6.7c1.2,1.3,2.3,2.6,3.7,3.7c4.7,4,10,6.6,16,8
					c5.4,1.3,10.7,1.2,16.1,0c5.2-1.1,10.2-3.4,14.4-6.6c4.9-3.7,8.5-8.4,11.2-13.9c2.6-5.4,3.9-11.5,3.6-17.5
					c-0.4-6.3-2.4-12-5.6-17.3c-6.4-10.4-17.7-16.7-29.8-16.8c-12-0.1-23.3,6-29.9,16c-2.2,3.3-3.8,6.5-4.9,10.3
					c-1,3.4-1.3,6.4-1.6,9.9c-0.2,2.2,2.3,1.1,3.3,0.6c1.5-0.7,2.9-1.5,4.2-2.4c1.7-1.1,3.4-2.2,5-3.6c2.1-3,4-6.3,6.7-8.9
					c2.5-2.4,5.9-4,9.2-4.7c2.8-0.6,5.4-0.8,8.3-0.5c1.4,0,2.7,0.4,4,1c1.3,1,2.8,1.8,4.4,2.3c-0.3-0.2-0.5-0.3-0.8-0.5
					c1.5,1.1,3,2.2,4.6,3.3c-0.2-0.2-0.4-0.4-0.6-0.7c1.2,1.4,2.5,2.8,3.9,4.2c0.4,0.7,0.9,1.4,1.3,2.1c1.8,3,3,6.1,3.2,9.6
					c0.1,2.8-0.3,5.6-1.2,8.3c-0.5,1.5-1.1,3-2,4.4c-1.2,1.9-2.6,3.6-4.3,5.1c0.2-0.2,0.5-0.4,0.7-0.5c-1.1,0.9-2.3,1.7-3.4,2.6
					c0.2-0.1,0.5-0.3,0.7-0.4c-1.3,0.8-2.7,1.5-4,2.3c0.3-0.1,0.5-0.2,0.8-0.4c-1.5,0.6-2.9,1.1-4.4,1.7c0.3-0.1,0.5-0.2,0.8-0.3
					c-2.6,0.7-5.3,1-8,0.9c-0.9-0.2-1.8-0.4-2.8-0.7c-4.3-1.1-7.9-2.6-11.2-5.6c-5.2-4.7-7.1-10.7-6.9-17.5c-0.1-0.7-0.5-1.1-1.2-1
					c-1.2,0.4-2.2,1.1-2.9,2.2c-1.5,1.7-3,3.4-4.4,5.2C228.6,56.2,228.1,57.2,227.9,58.5z"/>
				<linearGradient id="SVGID_16_" gradientUnits="userSpaceOnUse" x1="229.2583" y1="52.4283" x2="299.6524" y2="52.4283">
					<stop  offset="0" style="stop-color:#FFF23A"/>
					<stop  offset="4.010540e-02" style="stop-color:#FEE62D"/>
					<stop  offset="0.1171" style="stop-color:#FED41A"/>
					<stop  offset="0.1964" style="stop-color:#FDC90F"/>
					<stop  offset="0.2809" style="stop-color:#FDC60B"/>
					<stop  offset="0.6685" style="stop-color:#F28F3F"/>
					<stop  offset="0.8876" style="stop-color:#ED693C"/>
					<stop  offset="1" style="stop-color:#E83E39"/>
				</linearGradient>
				<path class="st15" d="M230.7,62.7c0.3,3.1,0.4,4.6,1.7,7.6c1.6,3.6,4.3,7,7.3,9.5c6.3,5.1,13.7,7.8,21.7,8.4
					c5,0.4,10.2-0.8,15-2.5c4.5-1.6,9.3-4.9,12.6-8.3c6.5-6.8,10.3-15.3,10.6-24.7c0.2-9.1-3.4-18.6-9.9-25.1
					c-3.4-3.4-7.5-6.5-12.1-8.3c-3.9-1.5-8-2.3-12.1-2.5c-9.2-0.4-18.5,3.3-25.1,9.6c-3.4,3.2-6.7,7.6-8.4,12.1
					c-0.5,1.6-1,3.2-1.5,4.7c-0.9,3.3-1.3,6.6-1.2,9.9c-0.1,1.8,6.4-1,7-1.3c1.9-0.8,3.8-1.6,5.7-2.6c1.5-0.5,2.7-1.3,3.6-2.5
					c0.9-1.7,1.7-3.5,2.3-5.4c-0.1,0.3-0.3,0.6-0.4,0.8c1.7-2.5,3.1-4.6,5.7-6.4c2-1.4,4.1-2.3,6.5-3c2.4-0.7,4.9-0.8,7.4-0.5
					c1.6,0,2.9,0.5,4,1.4c1,0.8,2.1,1.4,3.2,2c3.7,2.7,6,6.4,7.2,10.8c0.6,2.4,1,5.3,0.4,7.8c-0.3,0.9-0.5,1.8-0.8,2.7
					c-1.1,1.3-1.9,2.7-2.5,4.3c0.2-0.3,0.3-0.5,0.5-0.8c-1.1,1.5-2.4,2.9-3.7,4.3c0.2-0.2,0.5-0.4,0.7-0.7c-0.9,0.7-1.8,1.3-2.7,2
					c0.3-0.2,0.5-0.4,0.8-0.5c-0.9,0.6-1.8,1.2-2.7,1.8c0.3-0.1,0.6-0.3,0.8-0.4c-1.8,0.8-3.6,1.5-5.4,2.1c0.3-0.1,0.6-0.1,0.9-0.2
					c-2,0.4-4,0.6-6.1,0.7c0.3,0,0.6,0,0.9,0.1c-1.2-0.2-2.4-0.3-3.7-0.5c0.3,0.1,0.6,0.1,0.9,0.2c-1.6-0.7-3.2-1.2-4.9-1.7
					c0.3,0.2,0.5,0.3,0.8,0.5c-1.8-0.9-3.4-1.9-5.1-3c0.2,0.2,0.5,0.4,0.7,0.6c-1.4-1.3-2.7-2.6-3.9-4.1c0.2,0.3,0.3,0.5,0.5,0.8
					c-0.5-1-1.1-1.9-1.6-2.9c0.1,0.3,0.3,0.6,0.4,0.8c-0.4-0.9-0.8-1.9-1.2-2.8c0.1,0.3,0.2,0.6,0.3,0.9c-0.3-1.1-0.5-2.3-0.7-3.4
					c-0.3-1.3-0.3-2.6-0.2-3.9c0.1-3.3-4.8,1.3-5.1,1.5c-2.3,2-4.5,4-6.6,6.2C232.3,59.9,231.3,61.2,230.7,62.7z"/>
				<linearGradient id="SVGID_17_" gradientUnits="userSpaceOnUse" x1="228.1567" y1="55.7551" x2="306.4897" y2="55.7551">
					<stop  offset="0" style="stop-color:#FFF23A"/>
					<stop  offset="4.010540e-02" style="stop-color:#FEE62D"/>
					<stop  offset="0.1171" style="stop-color:#FED41A"/>
					<stop  offset="0.1964" style="stop-color:#FDC90F"/>
					<stop  offset="0.2809" style="stop-color:#FDC60B"/>
					<stop  offset="0.6685" style="stop-color:#F28F3F"/>
					<stop  offset="0.8876" style="stop-color:#ED693C"/>
					<stop  offset="1" style="stop-color:#E83E39"/>
				</linearGradient>
				<path class="st16" d="M231.7,70.1c0.6,2.7,1.2,4.5,2.4,7c1.2,2.4,2.5,4.3,4.4,6.3c7.8,8.6,19.9,12.5,31.3,11.6
					c16.4-1.3,30.9-13.4,35.3-29.2c1.8-6.4,1.7-12.7,0.4-19.2c-1.4-6.6-4.6-12.6-9.1-17.6c-5.1-5.7-11.9-10.1-19.5-11.7
					c-5.9-1.3-11.4-1.5-17.3-0.1c-4.2,1-7.8,2.4-11.4,4.6c-3.3,2-5.6,3.9-8.3,6.5c-3,2.8-5.3,6.1-7.1,9.7c-1.8,3.3-3.1,6.8-3.8,10.5
					c-0.8,3.3-1,6.7-0.5,10.1c0.1,1.4,0.6,2.2,2.1,2c1.5-0.2,2.5-0.7,2.3-2.3c0-3,0-6.1,0-9.1c0.3-2.6,1-5,2.2-7.2
					c2-5.6,6.3-9.5,12.9-11.6c4.4-6.4,10.1-9.8,17.2-10.2c3.6-0.1,7.1,0.4,10.6,1.4c2.8,0.5,5.3,1.6,7.5,3.3c10,6,15.4,16,16,30.2
					c0-0.3,0-0.6,0.1-0.9c-0.3,2.2-0.5,4.4-0.8,6.5c0.1-0.3,0.1-0.6,0.2-1c-0.6,1.4-1.2,2.9-1.9,4.3c0.1-0.3,0.3-0.6,0.4-0.9
					c-1.5,2.8-2.8,5.7-4.9,8.2c-2,2.5-4.4,4.4-7,6.3c-2,1.4-4.1,2.4-6.3,3.5c-3.1,1.5-6.4,2.2-9.7,3c0.3-0.1,0.6-0.1,0.8-0.2
					c-1.6,0.1-3.2,0.3-4.8,0.4c0.3,0,0.6,0,0.8-0.1c-4.9-0.2-9.5-0.6-14-2.4c-6.4-2.6-11.7-7.5-13.4-14.6c-0.4-1.7-1.6-1.6-2.9-1
					C235,66.9,231.4,68.6,231.7,70.1z"/>
				<linearGradient id="SVGID_18_" gradientUnits="userSpaceOnUse" x1="230.3819" y1="52.0994" x2="305.253" y2="52.0994">
					<stop  offset="0" style="stop-color:#FFF23A"/>
					<stop  offset="4.010540e-02" style="stop-color:#FEE62D"/>
					<stop  offset="0.1171" style="stop-color:#FED41A"/>
					<stop  offset="0.1964" style="stop-color:#FDC90F"/>
					<stop  offset="0.2809" style="stop-color:#FDC60B"/>
					<stop  offset="0.6685" style="stop-color:#F28F3F"/>
					<stop  offset="0.8876" style="stop-color:#ED693C"/>
					<stop  offset="1" style="stop-color:#E83E39"/>
				</linearGradient>
				<path class="st17" d="M232.9,65.1c0.6,2.6,1.1,4,2.3,6.4c0.9,1.8,1.8,3.4,3,5c5.3,7,13.7,11.4,22.3,12.9
					c10.5,1.9,21.6-0.9,30.1-7.4c8.9-6.9,14.4-17.6,14.7-28.8c0.2-6-1-12.1-3.7-17.5c-2.3-4.5-5.3-9.2-9.3-12.4
					c-4.1-3.3-8.6-5.8-13.6-7.3c-5.3-1.6-10.5-2-15.9-1.3c-3.7,0.4-7.3,1.4-10.6,3.1c-1.6,0.9-3.2,1.7-4.8,2.6
					c-4.6,2.9-8.3,7.1-11.2,11.6c-2,3-3.5,6.4-4.3,9.9c-1,3.5-1.4,7-1.4,10.6c-0.1,1.9,2,1.4,3,1c1.4-0.6,4.4-2,4.6-3.7
					c0.6-4.1,1.3-8.6,3.4-12.2c1.9-3.3,4.3-6.3,7.3-8.6c3.1-2.4,6.3-4.3,10.2-5.3c1.6-0.4,3.2-0.7,4.7-1.1c3.4-0.2,6.9,0,10.3,0.6
					c-0.3-0.1-0.6-0.2-1-0.3c5.4,2.5,10.5,4.9,14.2,9.6c2.9,3.7,4.4,7.7,5.2,12.3c0.4,1.8,0.5,3.6,0.4,5.5c-0.1,2.4-0.5,4.7-1.3,6.9
					c-1.1,1.4-1.9,2.9-2.4,4.6c-1.2,1.9-2.5,3.7-3.8,5.5c0.2-0.2,0.4-0.5,0.5-0.7c-1.6,1.6-3.1,3.1-4.8,4.6c0.2-0.2,0.5-0.3,0.7-0.5
					c-2.4,1.6-4.8,3.4-7.5,4.5c-1.1,0.5-2.1,0.9-3.3,1.2c-1.7,0.6-3.5,1-5.4,1c0.3,0,0.6,0,0.9,0c-3.4-0.1-6.8-0.1-10.1-1.2
					c-3.3-1.1-6-2.7-8.8-4.8c0.2,0.2,0.4,0.4,0.6,0.6c-3.9-4-5.7-6.8-6.5-11.7c-0.3-2.1-2.3-1-3.4-0.4c-1.3,0.9-2.6,1.9-3.7,2.9
					C233.5,63.4,233,64.2,232.9,65.1z"/>
				<linearGradient id="SVGID_19_" gradientUnits="userSpaceOnUse" x1="219.2033" y1="47.3341" x2="298.2758" y2="47.3341">
					<stop  offset="0" style="stop-color:#FFF23A"/>
					<stop  offset="4.010540e-02" style="stop-color:#FEE62D"/>
					<stop  offset="0.1171" style="stop-color:#FED41A"/>
					<stop  offset="0.1964" style="stop-color:#FDC90F"/>
					<stop  offset="0.2809" style="stop-color:#FDC60B"/>
					<stop  offset="0.6685" style="stop-color:#F28F3F"/>
					<stop  offset="0.8876" style="stop-color:#ED693C"/>
					<stop  offset="1" style="stop-color:#E83E39"/>
				</linearGradient>
				<path class="st18" d="M220.8,59c0.3,2.8,0.7,4.7,1.8,7.3c2.5,5.9,7,10.9,12.3,14.4c9.4,6.2,21.9,7.9,32.7,4.6
					c7.4-2.3,14.1-6.1,19.5-11.8c6.6-7,11-16.7,11.1-26.5c0.1-4.9-0.7-9.7-2.8-14.2c-1.7-3.6-3.4-7.2-6.1-10.2
					c-4.8-5.4-10.5-10.1-17.5-12.4c-10.3-3.4-21.3-3.2-31.1,1.9c-6.4,3.3-11.8,8.3-15.6,14.5c-1.9,3.1-3.4,6.4-4.4,9.9
					c-1,3.5-1.5,7.1-1.6,10.7c0.2,0.6,0.5,1,1.1,1.1c0.6,0.1,1.1-0.1,1.5-0.5c0.8-0.5,1.5-1,2.1-1.7c0.9-0.8,1.6-1.6,2.2-2.6
					c1.2-3,2.4-5.9,3.6-8.9c-0.2,0.3-0.3,0.5-0.5,0.8c1-1.6,2-3.1,3-4.7c-0.2,0.2-0.4,0.5-0.6,0.7c2.9-3.2,5.8-6.5,9.6-8.7
					c2.2-1.3,4.6-2.4,6.9-3.4c3.4-1.4,8.3-2.4,12-2.2c10.3,6,20.6,12,31,18c3.3,4.6,3.5,9.8,0.7,15.6c1.1,5.4,0.3,10.2-2.5,14.4
					c-1.2,2.4-2.8,4.5-4.7,6.4c-9.4,3.9-18.9,7.8-28.3,11.8c-2.6-0.1-5.1-0.5-7.6-1.2c-2.5-0.4-4.8-1.3-7-2.7
					c-1.4-0.9-2.8-1.7-4.2-2.6c-1.3-1.2-2.5-2.4-3.8-3.6c-5.1-4.9-7.7-10.6-7.7-17c-0.1-1.1-1.2-1.9-2.3-1.5
					c-0.7,0.6-1.3,1.3-1.8,2.1C221.5,57.3,221.1,58.1,220.8,59z"/>
				<linearGradient id="SVGID_20_" gradientUnits="userSpaceOnUse" x1="221.2414" y1="52.0639" x2="295.1843" y2="52.0639">
					<stop  offset="0" style="stop-color:#FFF23A"/>
					<stop  offset="4.010540e-02" style="stop-color:#FEE62D"/>
					<stop  offset="0.1171" style="stop-color:#FED41A"/>
					<stop  offset="0.1964" style="stop-color:#FDC90F"/>
					<stop  offset="0.2809" style="stop-color:#FDC60B"/>
					<stop  offset="0.6685" style="stop-color:#F28F3F"/>
					<stop  offset="0.8876" style="stop-color:#ED693C"/>
					<stop  offset="1" style="stop-color:#E83E39"/>
				</linearGradient>
				<path class="st19" d="M222.8,63.2c0,2.3,0.5,4.6,1.5,6.7c0.6,1.2,1.2,2.3,1.8,3.4c0.9,1.4,1.9,2.7,3,4c3.9,4.3,8.9,7.5,14.3,9.5
					c11.4,4.3,25,3.2,35-4c4.3-3.1,8.1-6.9,11-11.4c3.4-5.4,5.2-11.3,5.6-17.7c0.7-10-3.2-20-10.1-27.2c-4-4.1-8.4-6.9-13.6-9.2
					c-4.7-2.1-10.3-2.7-15.4-2.5c-7.1,0.2-14.2,3-19.9,7.2c-4.1,3-7.7,7.1-10.1,11.5c-1.7,3-3,6.2-3.8,9.6
					c-0.8,3.4-1.1,6.8-0.9,10.3c0,1.8,6.1-1.4,6.6-1.6c1.8-0.9,3.5-1.8,5.3-2.9c1.4-0.6,2.5-1.5,3.3-2.7c1-1.3,1.8-2.7,2.2-4.3
					c1.2-1.8,2.4-3.5,3.6-5.2c-0.2,0.2-0.4,0.5-0.6,0.7c1.5-1.5,3.1-3,4.6-4.4c-0.2,0.2-0.5,0.3-0.7,0.5c1.9-1.3,3.9-2.4,5.9-3.6
					c2.1-0.9,4.2-1.5,6.4-2c-0.3,0-0.6,0.1-0.9,0.1c1.5-0.1,3-0.2,4.5-0.4c-0.3,0-0.6,0-0.9,0c2.2,0.2,4.5,0.4,6.7,0.8
					c2.3,0.6,4.6,1.5,6.7,2.6c-0.2-0.1-0.5-0.3-0.7-0.4c1.2,0.8,2.5,1.7,3.7,2.5c-0.2-0.2-0.4-0.4-0.7-0.5c4.4,3.5,7.4,7.8,9.1,13
					c0.8,3.1,1.2,6.2,1.1,9.3c-0.5,2.5-1.1,4.9-2,7.3c-0.7,2.1-1.7,4-3.1,5.7c-3,4.2-6.8,7.4-11.6,9.4c-2.8,1.1-5.6,1.8-8.6,2.2
					c-3.1,0.1-6.2-0.1-9.2-0.8c0.4,0.2,0.7,0.3,1.1,0.5c-3.5-1.8-7.5-3.5-10.5-6.3c-2.1-1.9-3.9-4.1-5.2-6.6
					c-2.6-4.6-3.2-10-2.8-15.2c0-0.8-0.4-1.1-1.2-1c-1.4,0.6-2.5,1.6-3.3,2.8c-1.8,2.1-3.5,4.2-5.1,6.4
					C223.8,60.5,223.1,61.8,222.8,63.2z"/>
				<linearGradient id="SVGID_21_" gradientUnits="userSpaceOnUse" x1="224.1921" y1="57.2602" x2="301.1306" y2="57.2602">
					<stop  offset="0" style="stop-color:#FFF23A"/>
					<stop  offset="4.010540e-02" style="stop-color:#FEE62D"/>
					<stop  offset="0.1171" style="stop-color:#FED41A"/>
					<stop  offset="0.1964" style="stop-color:#FDC90F"/>
					<stop  offset="0.2809" style="stop-color:#FDC60B"/>
					<stop  offset="0.6685" style="stop-color:#F28F3F"/>
					<stop  offset="0.8876" style="stop-color:#ED693C"/>
					<stop  offset="1" style="stop-color:#E83E39"/>
				</linearGradient>
				<path class="st20" d="M226.8,70.3c0.3,2.8,0.5,4.6,1.7,7.2c1.7,4,4.6,7.4,8,10.2c6.5,5.3,14.5,7.9,22.8,8.5
					c12.2,0.8,24.5-4.8,32.4-14.1c3.5-4.2,6.2-9.2,7.7-14.4c1.1-3.6,1.7-7.3,1.7-11.1c-0.1-3-0.5-6-1.3-9
					c-1.5-6.6-4.8-12.7-9.6-17.5c-1.4-1.3-2.8-2.6-4.1-3.9c-3-2.2-6.3-4.1-9.8-5.5c-3.5-1.1-7.3-2.3-10.9-2.5
					c-3.1-0.1-5.8-0.1-8.8,0.4c-11.7,1.9-21.9,9.1-27.6,19.5c-1.7,3.2-3,6.6-3.8,10.1c-0.8,3.7-0.9,6.9-1,10.6c0,2,1.9,1.6,3.2,1.2
					c1.4-0.5,2.8-1.2,4.1-1.9c0.9-0.3,1.5-0.9,1.8-1.8c0-1.2-0.1-2.4-0.1-3.6c15.2-8.5,30.4-17,45.6-25.5c3.9,2.1,6.8,5.1,9.6,8.6
					c1.2,1.3,2.2,2.8,2.8,4.4c0.9,1.6,1.6,3.2,2,4.9c0.8,1.7,1.2,3.5,1.2,5.5c1.3,7.9-0.6,15.6-5.6,23c0.2-0.2,0.4-0.5,0.6-0.7
					c-1.3,1.4-2.5,2.7-3.8,4.1c0.2-0.2,0.5-0.4,0.7-0.6c-1.5,1.2-2.9,2.5-4.4,3.7c0.3-0.2,0.6-0.3,0.8-0.5c-3.5,2-6.8,3.8-10.7,4.7
					c-3.3,0.8-6.8,1.2-10.2,0.8c-1.4-0.2-2.8-0.5-4.2-0.7c-0.8-0.4-1.6-0.8-2.4-1.2c-1.6-0.4-3.1-1-4.5-1.9
					c-1.6-0.9-3.2-1.8-4.7-2.8c0.2,0.2,0.5,0.3,0.7,0.5c-1.7-1.4-3.2-2.9-4.7-4.5c0.2,0.2,0.4,0.4,0.6,0.7c-0.7-1-1.4-2-2.1-2.9
					c0.2,0.2,0.3,0.5,0.5,0.7c-0.5-0.9-1.1-1.9-1.6-2.8c0.1,0.3,0.3,0.5,0.4,0.8c-0.5-1.1-0.8-2.3-1.1-3.5c-0.4-1.2-0.5-2.5-0.4-3.8
					c-0.1-2.6-3.4-0.3-4.2,0.2c-1.8,1.2-3.5,2.6-5.2,4C228,68.3,227.3,69.2,226.8,70.3z"/>
				<linearGradient id="SVGID_22_" gradientUnits="userSpaceOnUse" x1="228.0663" y1="47.2722" x2="304.5848" y2="47.2722">
					<stop  offset="0" style="stop-color:#FFF23A"/>
					<stop  offset="4.010540e-02" style="stop-color:#FEE62D"/>
					<stop  offset="0.1171" style="stop-color:#FED41A"/>
					<stop  offset="0.1964" style="stop-color:#FDC90F"/>
					<stop  offset="0.2809" style="stop-color:#FDC60B"/>
					<stop  offset="0.6685" style="stop-color:#F28F3F"/>
					<stop  offset="0.8876" style="stop-color:#ED693C"/>
					<stop  offset="1" style="stop-color:#E83E39"/>
				</linearGradient>
				<path class="st21" d="M229.9,60.7c0.3,2.1,1,4,2.2,5.8c0.9,2,2,3.8,3.3,5.4c3.3,4.5,7.8,7.9,12.9,10.3c4.8,2.2,10,3.4,15.3,3.7
					c5.5,0.3,11.1-0.8,16.2-2.9c16.1-6.5,26.9-23.8,24.5-41.1c-0.7-4.7-1.8-9.1-4.2-13.3c-1.7-2.8-3.5-5.4-5.7-7.8
					c-4.1-4.5-9.4-7.8-15.1-9.8c-11.2-4-23.5-2.8-33.5,3.7c-4.7,3.1-8.4,7-11.5,11.7c-2.2,3.1-3.7,6.5-4.6,10.2
					c-1.1,3.7-1.6,7.4-1.6,11.2c-0.1,1.5,1.5,1.7,2.5,1.3c1.3-0.5,3.1-1.4,3.3-2.9c0.3-3.4,1.1-6.7,2.5-9.8
					c2.7-6.6,7.2-11.7,13.4-15.2c-0.3,0.1-0.5,0.3-0.8,0.4c1.8-0.9,3.6-1.7,5.4-2.6c-0.3,0.1-0.6,0.2-0.9,0.3
					c1.8-0.4,3.6-0.9,5.4-1.3c-0.3,0-0.7,0.1-1,0.1c1.9-0.2,3.9-0.4,5.8-0.7c-0.4,0-0.7,0-1.1,0c1.9,0.2,3.7,0.3,5.6,0.5
					c-0.4-0.1-0.7-0.2-1.1-0.2c1.9,0.4,3.9,0.9,5.8,1.3c-0.4-0.1-0.7-0.3-1.1-0.4c4.4,2.6,8.9,5,12.3,8.9c1.3,1.7,2.5,3.5,3.7,5.3
					c1,2.2,2,4.4,3.1,6.6c-0.1-0.3-0.2-0.5-0.4-0.8c0.7,2.4,1.3,4.9,1.8,7.5c0-0.3-0.1-0.6-0.1-0.9c0.1,1.5,0.1,3,0.2,4.5
					c0-0.3,0-0.6,0-0.9c-0.2,2.2-0.2,4.5-0.6,6.7c-0.4,2.3-1.2,4.8-2.2,6.9c-1,2.2-2.5,4.5-4,6.5c-0.9,0.9-1.8,1.9-2.7,2.8
					c-4.2,4.2-9.5,5.7-15.9,4.6c-5.1,2.9-9.9,3.2-14.5,1.1c-1.3-0.4-2.6-1-3.8-1.7c-2.5-1.3-4.6-3-6.6-5c-1.9-1.9-3.3-3.9-4.5-6.3
					c-0.5-1-1-1.9-1.4-3c-0.6-1.2-1-2.5-1-3.9c-0.3-1.5-1.9-1.2-2.8-0.6C231.4,57.6,229.5,59.2,229.9,60.7z"/>
				<linearGradient id="SVGID_23_" gradientUnits="userSpaceOnUse" x1="221.8434" y1="55.7986" x2="297.2275" y2="55.7986">
					<stop  offset="0" style="stop-color:#FFF23A"/>
					<stop  offset="4.010540e-02" style="stop-color:#FEE62D"/>
					<stop  offset="0.1171" style="stop-color:#FED41A"/>
					<stop  offset="0.1964" style="stop-color:#FDC90F"/>
					<stop  offset="0.2809" style="stop-color:#FDC60B"/>
					<stop  offset="0.6685" style="stop-color:#F28F3F"/>
					<stop  offset="0.8876" style="stop-color:#ED693C"/>
					<stop  offset="1" style="stop-color:#E83E39"/>
				</linearGradient>
				<path class="st22" d="M223.8,67.9c0.3,2.8,0.6,4.6,1.7,7.2c1.5,3.4,3.7,6.1,6.3,8.6c5.3,5,11.8,8,18.9,9.3
					c4.8,0.9,9.9,1,14.6,0.1c5.2-0.9,10.3-3,14.7-6c4.5-3,8.1-6.9,11.1-11.4c3.6-5.4,5.5-11.7,6-18.1c0.4-5.7-0.5-11.4-2.8-16.6
					c-2.5-5.8-6.1-11.3-11.2-15.1c-4.3-3.3-9.2-5.9-14.5-7.1c-5.4-1.2-10.6-1.5-16.1-0.4c-5.8,1.2-10.8,3.7-15.7,7.1
					c-4.3,3-7.6,7.3-10.3,11.8c-1.8,3.1-3,6.3-3.8,9.8c-0.8,3.4-1.1,6.9-0.9,10.5c0,1.8,5.3-0.6,5.8-0.8c1.6-0.6,3.1-1.3,4.6-2.1
					c1.2-0.4,2.2-1.1,2.9-2.2c0.4-2.1,0.7-4.1,1-6.2c0.4-1,0.7-2.1,1.1-3.1c1.2-3.2,3-6.3,5.4-8.9c2.6-3.1,6.1-4.9,10.3-5.5
					c3.3-2.5,6.9-3.5,10.7-3c4.4,0.3,8.9,1.6,12.7,4c3.7,2.4,7.2,5.4,9.4,9.2c2.4,4.2,4,8.7,4.3,13.6c0,1.8,0.1,3.6,0.1,5.3
					c-0.3,2.3-1,4.5-1.9,6.6c-0.8,2.3-1.9,4.5-3.3,6.6c-1.9,2.5-4.2,4.8-6.6,6.7c0.3-0.2,0.6-0.3,0.8-0.5c-4.2,2.4-8.1,4.7-13,5.4
					c-1.5,0.2-3,0.3-4.5,0.5c-3-0.1-5.8-0.6-8.7-1.5c0.4,0.2,0.7,0.4,1.1,0.6c-3.1-1.9-6.7-3.6-9.4-6.1c-1.9-1.7-3.4-3.5-4.7-5.6
					c-2.6-3.9-3.4-8.8-3.2-13.5c0.1-3.2-4.6,1.2-4.7,1.3c-2,1.8-4,3.8-5.8,5.8C225,65.3,224.2,66.5,223.8,67.9z"/>
				<linearGradient id="SVGID_24_" gradientUnits="userSpaceOnUse" x1="224.6726" y1="45.3854" x2="303.1972" y2="45.3854">
					<stop  offset="0" style="stop-color:#FFF23A"/>
					<stop  offset="4.010540e-02" style="stop-color:#FEE62D"/>
					<stop  offset="0.1171" style="stop-color:#FED41A"/>
					<stop  offset="0.1964" style="stop-color:#FDC90F"/>
					<stop  offset="0.2809" style="stop-color:#FDC60B"/>
					<stop  offset="0.6685" style="stop-color:#F28F3F"/>
					<stop  offset="0.8876" style="stop-color:#ED693C"/>
					<stop  offset="1" style="stop-color:#E83E39"/>
				</linearGradient>
				<path class="st23" d="M226.3,58.6c0.6,2.7,1.2,4.6,2.4,7.2c1.6,2.5,3.4,4.7,5.5,6.7c2.3,2.4,4.8,4.5,7.6,6.3
					c6.6,3.8,13.8,6,21.4,6.1c5.9,0.1,12.3-1.1,17.7-3.7c1.4-0.8,2.8-1.5,4.2-2.3c2.9-1.6,5.4-3.7,7.5-6.3
					c5.8-6.1,9.1-14.1,10.2-22.3c1.1-8.4-0.4-17-4.7-24.4c-3.5-6-8.3-11-14.3-14.6c-11-6.6-25.1-7.3-36.7-1.7
					c-6.8,3.3-12.4,8.3-16.4,14.6c-2.2,3.2-3.8,6.8-4.6,10.6c-1.1,3.8-1.6,7.7-1.6,11.7c-0.1,0.9,0.8,1.7,1.6,1.7
					c0.6,0,2.6-0.7,2.7-1.4c7.2-10.2,14.3-20.5,21.5-30.7c-0.3,0.1-0.6,0.2-0.8,0.3c1.8-0.5,3.5-1,5.3-1.5c-0.3,0.1-0.6,0.1-0.9,0.2
					c1.9-0.3,3.8-0.6,5.7-0.9c-0.3,0-0.7,0-1,0c3.5-0.1,6.9,0.2,10.3,1c-0.3-0.1-0.7-0.2-1-0.4c3.6,1.6,7.1,3,10.5,5.2
					c1,0.6,1.9,1.3,2.9,1.9c2,1.7,3.9,3.5,5.8,5.3c-0.2-0.2-0.4-0.4-0.6-0.6c10.1,12.9,12.3,25.7,4.8,39.4c-0.7,1.1-1.3,2.3-2,3.4
					c-6.8,7.7-14.6,11.6-23.5,11.7c-8.8,0.5-18.2-1.8-25-7.9c-4.8-4.3-9-8.5-10.6-15.3c-0.2-0.8-1.2-1.8-2.1-1.7
					C227.5,56.3,226.1,57.9,226.3,58.6z"/>
				<linearGradient id="SVGID_25_" gradientUnits="userSpaceOnUse" x1="217.7358" y1="49.8614" x2="296.1127" y2="49.8614">
					<stop  offset="0" style="stop-color:#FFF23A"/>
					<stop  offset="4.010540e-02" style="stop-color:#FEE62D"/>
					<stop  offset="0.1171" style="stop-color:#FED41A"/>
					<stop  offset="0.1964" style="stop-color:#FDC90F"/>
					<stop  offset="0.2809" style="stop-color:#FDC60B"/>
					<stop  offset="0.6685" style="stop-color:#F28F3F"/>
					<stop  offset="0.8876" style="stop-color:#ED693C"/>
					<stop  offset="1" style="stop-color:#E83E39"/>
				</linearGradient>
				<path class="st24" d="M219.7,61.7c0.1,1.1,0.2,2.2,0.4,3.3c0.7,2.5,1.6,4.9,3,7.1c2.9,4.8,7.1,8.7,11.9,11.5
					c5.8,3.4,11.8,5.4,18.5,5.9c7.8,0.5,15.4-1.8,22.1-5.7c15.3-9.1,23.7-27.5,19.4-45c-4-16.1-19.2-28.1-35.8-28.7
					c-5.5-0.2-11.1,0.3-16.3,2.6c-3,1.3-6.2,2.8-8.8,4.8c-4.3,3.3-8,7.1-10.8,11.7c-1.9,3.1-3.3,6.4-4.2,9.9
					c-0.9,3.5-1.4,7-1.4,10.6c-0.1,1.7,2,1.1,2.7,0.6c0.9-0.6,1.8-1.2,2.6-2c1.1-0.9,2-1.9,2.8-3c1.6-3.9,3-7.7,5.4-11.2
					c1.4-2.1,3-3.9,4.8-5.7c5.2-5.3,13.9-10.6,21-10.6c9.2,3.2,18.5,6.4,27.7,9.5c3.6,3.4,5.3,7.8,5.3,13.1c2.4,4,3.2,8.2,2.3,12.5
					c-1,11-7,20.2-17.8,27.3c-4,2.2-8.1,3.7-12.6,4.6c-2.6,0.7-5.2,0.8-7.9,0.2c-1.8-0.4-3.6-0.9-5.4-1.3
					c-10.7-3.2-18.9-10.8-22.2-22.6c0.1,0.3,0.1,0.6,0.2,0.9c-0.2-1.3-0.4-2.7-0.6-4c0,0.3,0.1,0.6,0.1,0.9c0-1,0-2.1,0-3.1
					c0-1.9-1.6-2.2-2.8-0.9c-0.9,1-1.7,2.1-2.4,3.3C220.2,59.5,219.6,60.4,219.7,61.7z"/>
			</g>
		</g>
	</g>
</g>
</svg>
