<svg id="Layer_1" data-name="Layer 1" xmlns="http://www.w3.org/2000/svg" viewBox="0 0 886.5 882.4"><title>userguide</title><path d="M0.1,2H886.4V884.5H0.1V2Z" style="fill:none"/><path d="M0.1,2.5H886.4L885.9,2V884.5l0.5-.5H0.1l0.5,0.5V2Zm0-1H-0.4V885H886.9V1.5H0.1Z" style="fill:none"/><path d="M426.2,376.8c-7.3,0-13.2-2.1-17.9-6.2a22,22,0,0,1,0-32.2c4.7-4.2,10.6-6.2,17.9-6.2s13.2,2.1,17.9,6.2a22,22,0,0,1,0,32.2C439.4,374.7,433.5,376.8,426.2,376.8Zm-22.3,16.1h44.7V522.7H403.9V392.9Z" style="fill:#fff"/><path d="M598.7,196.7H348.5c-36.2,0-76.7,32-76.7,74.7v317A16.2,16.2,0,0,0,288,604.6l258.5,0.1a16.26,16.26,0,0,0,16.2-16.2c0-14.6,14.4-36.7,36-36.7a16.26,16.26,0,0,0,16.2-16.2V213A16.22,16.22,0,0,0,598.7,196.7Z" style="fill:none;stroke:#fff;stroke-miterlimit:10;stroke-width:10px"/><path d="M334.7,229.3H577.2a9.82,9.82,0,0,1,9.8,9.8V556.4" style="fill:none;stroke:#fff;stroke-linejoin:round;stroke-width:6px"/><path d="M271.8,263.4H549.6a11.18,11.18,0,0,1,11.2,11.2V597.3" style="fill:none;stroke:#fff;stroke-miterlimit:10;stroke-width:10px"/></svg>