<?xml version="1.0" encoding="utf-8"?>
<!-- Generator: Adobe Illustrator 19.1.0, SVG Export Plug-In . SVG Version: 6.00 Build 0)  -->
<svg version="1.1" id="Layer_1" xmlns="http://www.w3.org/2000/svg" xmlns:xlink="http://www.w3.org/1999/xlink" x="0px" y="0px"
	 viewBox="-328 198 351 119" style="enable-background:new -328 198 351 119;" xml:space="preserve">
<style type="text/css">
	.st0{fill:url(#SVGID_1_);stroke:#F2EBEB;stroke-width:0.25;stroke-linecap:round;stroke-linejoin:round;stroke-miterlimit:10;}
	.st1{fill:url(#SVGID_2_);stroke:#F2EBEB;stroke-width:0.25;stroke-linecap:round;stroke-linejoin:round;stroke-miterlimit:10;}
</style>
<linearGradient id="SVGID_1_" gradientUnits="userSpaceOnUse" x1="-943.2338" y1="371.0183" x2="-690.2301" y2="371.0183" gradientTransform="matrix(-0.8533 -0.6396 -0.5421 0.7232 -662.5211 -539.3788)">
	<stop  offset="0.2426" style="stop-color:#FFFFFF"/>
	<stop  offset="0.2581" style="stop-color:#F4F4FE"/>
	<stop  offset="0.3451" style="stop-color:#BCBCFA"/>
	<stop  offset="0.4347" style="stop-color:#8A8AF6"/>
	<stop  offset="0.525" style="stop-color:#5F5FF3"/>
	<stop  offset="0.616" style="stop-color:#3D3DF1"/>
	<stop  offset="0.7082" style="stop-color:#2222EF"/>
	<stop  offset="0.8017" style="stop-color:#0F0FED"/>
	<stop  offset="0.8978" style="stop-color:#0404EC"/>
	<stop  offset="1" style="stop-color:#0000EC"/>
</linearGradient>
<path class="st0" d="M-141.9,206.4c9.7,7.7,13.7,24.6,16.5,44.5c1.2,9,3.3,17.9,6,24.9c4.8,12.2,12.3,11.3,18.7-0.2
	c4.8-8.6,7.6-19.7,10.6-30.8c1.6-6.2,3.3-12.5,5.4-18.1c9.5-25.1,23-26,30.4-1.6c2.4,7.8,3.6,17.2,5.3,25.9
	c1.6,7.7,2.7,16.1,4.9,22.9c4.7,14.8,13.5,15.8,20.3,2.1c3.8-7.6,6.6-17.1,10.2-26.6c0.3,0.1,1.4,0.4,2.5,0.8
	c-0.1,1.3-0.1,2.7-0.2,4c-0.5,1.4-1.1,2.8-1.5,4.4c-4.2,15.7-9.8,28.4-18.1,34.5c-2.5,0.1-5,0.1-7.6,0.2
	c-8.6-7.8-12.3-23.3-14.6-41.7c-1.1-9.1-3.2-17.9-5.8-25.3c-5.6-15.7-15.2-14.8-21.8,2.1c-3.5,8.9-5.7,19.7-8.8,29.1
	c-2.9,8.6-5.9,17.8-9.6,24.5c-8.6,15.5-19.2,13.5-24.8-4.3c-2.5-8.1-4.1-17.7-5.6-27c-1.9-11.8-3.9-23.3-8.7-30.8
	c-5.3-8.3-11.7-7.6-16.9,3.4c-3.3,7.1-6.1,15.9-8.4,24.6c-3.5,13.2-6.7,26.5-12.6,36.2c-9,14.8-19.4,12.9-25-5.3
	c-2.2-7.1-3.4-15.6-5-23.5c-1.6-8.1-2.8-16.9-4.9-24.3c-6.1-20.9-17-20.1-24.8,1.6c-2.2,6-3.6,13.1-5.5,19.6c-2.7,9-5,18.6-8.3,26.4
	c-9.9,23.4-22.8,22.3-29.5-2.2c-2.2-8.1-3-17.9-4.9-26.4c-1.9-8.5-3.8-17.2-6.6-24.2c-4.7-11.8-12.5-11.7-18.4,0.5
	c-4,7.8-6.9,18-10.5,27.9c-0.3-0.3-1.4-1-2.4-1.8c0-0.9,0.1-1.8,0.1-2.7c0.4-1,0.8-2,1.1-3.1c3.9-16.8,9.3-30.4,17.9-37.1
	c2.5-0.1,5-0.1,7.6-0.2c9.1,8,13.2,24.5,15.8,43.6c1,7.1,2.2,14.2,4,20.3c5.1,17.6,14.2,19.1,21.9,2.8c3.4-7.2,6.4-16.2,8.4-25.3
	c4.2-19,9.5-35.1,19.3-42.8c2.3,0,4.6-0.1,6.9-0.1c6.4,4.8,10.7,14,13.4,26.8c1.1,5.4,1.7,11.3,2.8,16.7c1.6,8.1,2.9,16.8,5.3,23.8
	c4.8,14.2,13,14.3,20,1.5c4.6-8.4,7.6-18.8,10-29.9c4-18.5,9.6-33.4,19.2-40.3C-146.1,206.5-144,206.4-141.9,206.4z"/>
<linearGradient id="SVGID_2_" gradientUnits="userSpaceOnUse" x1="-316.507" y1="277.0223" x2="-5.7084" y2="277.0223" gradientTransform="matrix(-1 -3.033994e-03 3.033994e-03 -1 -308.8184 538.5331)">
	<stop  offset="3.417969e-02" style="stop-color:#FDFDFF"/>
	<stop  offset="1" style="stop-color:#FF0E00"/>
	<stop  offset="1" style="stop-color:#BCBCFA"/>
	<stop  offset="1" style="stop-color:#8A8AF6"/>
	<stop  offset="1" style="stop-color:#0F0FED"/>
	<stop  offset="1" style="stop-color:#0404EC"/>
	<stop  offset="1" style="stop-color:#FF0000"/>
</linearGradient>
<path class="st1" d="M-171.6,306.5c-9.7-7.7-13.6-24.6-16.4-44.5c-1.2-9-3.2-17.9-5.9-24.9c-4.8-12.2-12.3-11.3-18.7,0.1
	c-4.8,8.6-7.7,19.7-10.7,30.8c-1.6,6.2-3.3,12.5-5.5,18.1c-9.6,25.1-23.1,25.9-30.4,1.5c-2.4-7.8-3.5-17.2-5.2-25.9
	c-1.6-7.7-2.7-16.1-4.8-22.9c-4.7-14.8-13.5-15.8-20.3-2.2c-3.8,7.6-6.7,17.1-10.3,26.6c-0.3-0.1-1.4-0.4-2.5-0.8
	c0.1-1.3,0.1-2.7,0.2-4c0.5-1.4,1.1-2.8,1.5-4.4c4.2-15.7,9.9-28.4,18.2-34.4c2.5-0.1,5-0.1,7.6-0.2c8.6,7.8,12.2,23.3,14.5,41.7
	c1.1,9.1,3.1,17.9,5.7,25.3c5.6,15.7,15.2,14.8,21.8-2c3.5-8.9,5.8-19.7,8.9-29.1c2.9-8.6,6-17.8,9.7-24.5
	c8.6-15.5,19.2-13.4,24.8,4.4c2.5,8.1,4,17.7,5.5,27c1.9,11.8,3.8,23.3,8.6,30.8c5.3,8.3,11.7,7.6,16.9-3.3
	c3.3-7.1,6.1-15.9,8.5-24.6c3.5-13.2,6.8-26.5,12.7-36.2c9-14.8,19.4-12.8,25,5.4c2.2,7.1,3.4,15.6,4.9,23.5
	c1.6,8.1,2.7,16.9,4.8,24.3c6,20.9,16.9,20.2,24.8-1.5c2.2-6,3.6-13.1,5.6-19.6c2.7-9,5.1-18.6,8.4-26.4c10-23.4,22.9-22.2,29.5,2.3
	c2.2,8.1,2.9,17.9,4.8,26.4c1.9,8.5,3.7,17.2,6.5,24.2c4.7,11.8,12.5,11.7,18.4-0.4c4-7.8,7-18,10.6-27.9c0.3,0.3,1.4,1,2.4,1.8
	c0,0.9-0.1,1.8-0.1,2.7c-0.4,1-0.8,2-1.1,3.1c-4,16.8-9.4,30.4-18,37c-2.5,0.1-5,0.1-7.6,0.2c-9.1-8-13.1-24.5-15.7-43.6
	c-1-7.1-2.2-14.2-3.9-20.3c-5-17.6-14.1-19.1-21.9-2.9c-3.4,7.2-6.4,16.2-8.5,25.3c-4.3,19-9.6,35.1-19.4,42.7
	c-2.3,0-4.6,0.1-6.9,0.1c-6.4-4.8-10.7-14-13.3-26.8c-1.1-5.4-1.7-11.3-2.7-16.7c-1.6-8.1-2.8-16.8-5.2-23.8
	c-4.8-14.2-13-14.3-20-1.6c-4.6,8.4-7.7,18.8-10.1,29.9c-4.1,18.5-9.7,33.4-19.3,40.2C-167.4,306.4-169.5,306.5-171.6,306.5z"/>
</svg>
