<?xml version="1.0" encoding="utf-8"?>
<!-- Generator: Adobe Illustrator 19.1.0, SVG Export Plug-In . SVG Version: 6.00 Build 0)  -->
<svg version="1.1" id="Layer_1" xmlns="http://www.w3.org/2000/svg" xmlns:xlink="http://www.w3.org/1999/xlink" x="0px" y="0px"
	 viewBox="0 0 625 397.2" style="enable-background:new 0 0 625 397.2;" xml:space="preserve">
<style type="text/css">
	.st0{fill:url(#SVGID_1_);stroke:#F2EBEB;stroke-width:0.25;stroke-linecap:round;stroke-linejoin:round;stroke-miterlimit:10;}
	.st1{fill:url(#SVGID_2_);stroke:#F2E7E7;stroke-width:0.25;stroke-linecap:round;stroke-linejoin:round;stroke-miterlimit:10;}
	.st2{fill:url(#SVGID_3_);stroke:#F2EBEB;stroke-width:0.25;stroke-linecap:round;stroke-linejoin:round;stroke-miterlimit:10;}
	.st3{fill:url(#SVGID_4_);stroke:#F2EBEB;stroke-width:0.25;stroke-linecap:round;stroke-linejoin:round;stroke-miterlimit:10;}
	.st4{fill:url(#SVGID_5_);stroke:#F2EBEB;stroke-width:0.25;stroke-linecap:round;stroke-linejoin:round;stroke-miterlimit:10;}
</style>
<linearGradient id="SVGID_1_" gradientUnits="userSpaceOnUse" x1="33.5789" y1="325.0874" x2="286.4947" y2="325.0874" gradientTransform="matrix(-0.8533 -0.6396 0.5421 -0.7232 122.6109 554.4544)">
	<stop  offset="0.2426" style="stop-color:#FFFFFF"/>
	<stop  offset="0.2581" style="stop-color:#F4F4FE"/>
	<stop  offset="0.3451" style="stop-color:#BCBCFA"/>
	<stop  offset="0.4347" style="stop-color:#8A8AF6"/>
	<stop  offset="0.525" style="stop-color:#5F5FF3"/>
	<stop  offset="0.616" style="stop-color:#3D3DF1"/>
	<stop  offset="0.7082" style="stop-color:#2222EF"/>
	<stop  offset="0.8017" style="stop-color:#0F0FED"/>
	<stop  offset="0.8978" style="stop-color:#0404EC"/>
	<stop  offset="1" style="stop-color:#0000EC"/>
</linearGradient>
<path class="st0" d="M187.1,172.1c9.7,7.7,13.7,24.6,16.5,44.5c1.2,9,3.3,17.9,6,24.9c4.8,12.2,12.3,11.3,18.7-0.2
	c4.8-8.6,7.6-19.7,10.6-30.8c1.6-6.2,3.3-12.5,5.4-18.1c9.5-25.1,23-26,30.4-1.6c2.4,7.8,3.6,17.2,5.3,25.9
	c1.6,7.7,2.7,16.1,4.9,22.9c4.7,14.8,13.5,15.8,20.3,2.1c3.8-7.6,6.6-17.1,10.2-26.6c0.3,0.1,1.4,0.4,2.5,0.8
	c-0.1,1.3-0.1,2.7-0.2,4c-0.5,1.4-1.1,2.8-1.5,4.4c-4.2,15.7-9.8,28.4-18.1,34.5c-2.5,0.1-5,0.1-7.6,0.2
	c-8.6-7.8-12.3-23.3-14.6-41.7c-1.1-9.1-3.2-17.9-5.8-25.3c-5.6-15.7-15.2-14.8-21.8,2.1c-3.5,8.9-5.7,19.7-8.8,29.1
	c-2.9,8.6-5.9,17.8-9.6,24.5c-8.6,15.5-19.2,13.5-24.8-4.3c-2.5-8.1-4.1-17.7-5.6-27c-1.9-11.8-3.9-23.3-8.7-30.8
	c-5.3-8.3-11.7-7.6-16.9,3.4c-3.3,7.1-6.1,15.9-8.4,24.6c-3.5,13.2-6.7,26.5-12.6,36.2c-9,14.8-19.4,12.9-25-5.3
	c-2.2-7.1-3.4-15.6-5-23.5c-1.6-8.1-2.8-16.9-4.9-24.3c-6.1-20.9-17-20.1-24.8,1.6c-2.2,6-3.6,13.1-5.5,19.6c-2.7,9-5,18.6-8.3,26.4
	c-9.9,23.4-22.8,22.3-29.5-2.2c-2.2-8.1-3-17.9-4.9-26.4c-1.9-8.5-3.8-17.2-6.6-24.2c-4.7-11.8-12.5-11.7-18.4,0.5
	c-3.9,8.1-6.9,18.4-10.5,28.2c-0.3-0.3-1.4-1-2.4-1.8c0-0.9,0.1-1.8,0.1-2.7c0.4-1,0.8-2,1.1-3.1c3.9-16.8,9.3-30.4,17.9-37.1
	c2.5-0.1,5-0.1,7.6-0.2c9.1,8,13.2,24.5,15.8,43.6c1,7.1,2.2,14.2,4,20.3c5.1,17.6,14.2,19.1,21.9,2.8c3.4-7.2,6.4-16.2,8.4-25.3
	c4.2-19,9.5-35.1,19.3-42.8c2.3,0,4.6-0.1,6.9-0.1c6.4,4.8,10.7,14,13.4,26.8c1.1,5.4,1.7,11.3,2.8,16.7c1.6,8.1,2.9,16.8,5.3,23.8
	c4.8,14.2,13,14.3,20,1.5c4.6-8.4,7.6-18.8,10-29.9c4-18.5,9.6-33.4,19.2-40.3C182.9,172.2,185,172.1,187.1,172.1z"/>
<linearGradient id="SVGID_2_" gradientUnits="userSpaceOnUse" x1="436.8764" y1="-21.2547" x2="689.7923" y2="-21.2547" gradientTransform="matrix(-1.0594 0.1223 -0.1036 -0.8979 1029.7909 39.1277)">
	<stop  offset="4.077647e-02" style="stop-color:#E52500"/>
	<stop  offset="5.972427e-02" style="stop-color:#E62E0B"/>
	<stop  offset="0.1659" style="stop-color:#EC5F43"/>
	<stop  offset="0.2753" style="stop-color:#F18975"/>
	<stop  offset="0.3855" style="stop-color:#F5AEA0"/>
	<stop  offset="0.4967" style="stop-color:#F9CBC2"/>
	<stop  offset="0.6092" style="stop-color:#FCE2DD"/>
	<stop  offset="0.7234" style="stop-color:#FDF2F0"/>
	<stop  offset="0.8407" style="stop-color:#FFFCFB"/>
	<stop  offset="0.9655" style="stop-color:#FFFFFF"/>
</linearGradient>
<path class="st1" d="M422.3,77.4c12.3-1.1,26.9,8.4,42.6,21c7.1,5.7,14.7,10.7,21.5,14c11.8,5.6,16.7-0.2,13.5-13
	c-2.4-9.5-8-19.5-13.5-29.6c-3.1-5.6-6.2-11.4-8.5-16.9c-10.4-24.8-1.2-34.7,21-22c7.1,4,14.5,10.1,21.7,15.1
	c6.4,4.5,13,9.8,19.3,13.3c13.6,7.5,20.7,2.2,16.2-12.5c-2.5-8.1-7-17-10.9-26.3c0.3-0.2,1.3-0.7,2.3-1.2c0.9,1,1.7,2,2.6,3
	c0.6,1.4,1.2,2.8,1.9,4.2c7.7,14.4,12.5,27.4,10.6,37.5c-1.8,1.8-3.6,3.5-5.4,5.3c-11.6,0.2-24.9-8.5-39.2-20.2
	c-7.1-5.8-14.7-10.8-21.6-14.3c-14.8-7.6-21.2-0.3-14.4,16.5c3.6,8.8,9.4,18.2,13.6,27.2c3.8,8.3,8,16.9,9.9,24.4
	c4.4,17.1-4.7,23.1-21,13.9c-7.4-4.1-15.1-10-22.6-15.8c-9.5-7.3-18.8-14.2-27.5-16.4c-9.5-2.4-13.7,2.5-9.9,14.1
	c2.5,7.5,6.5,15.7,10.8,23.6c6.6,12,13.4,23.8,15.7,34.9c3.6,17-5.2,22.7-21.8,13.4c-6.4-3.6-13.2-9-19.8-13.6
	c-6.8-4.8-13.6-10.4-20.3-14.3c-18.7-11-26.1-2.9-16.9,18.2c2.6,5.9,6.4,12,9.5,18c4.2,8.3,9.2,17,12.1,24.9
	c8.9,23.8-1.2,31.9-22.9,18.7c-7.1-4.3-14.5-10.9-21.7-15.8c-7.2-4.9-14.6-9.9-21.5-13c-11.5-5.3-17.1,0.1-13,13
	c2.8,8.6,7.6,18,11.8,27.7c-0.4,0.1-1.7,0.2-3,0.4c-0.6-0.7-1.2-1.3-1.7-2c-0.4-1-0.8-2-1.4-3c-8.8-14.9-14.2-28.5-12.4-39.2
	c1.8-1.8,3.6-3.5,5.4-5.3c12.1-0.5,26.4,8.7,41.4,20.8c5.6,4.5,11.3,8.8,16.9,12c15.8,9.3,23.4,4.1,17.9-13
	c-2.5-7.6-6.5-16.2-11.2-24.2c-10-16.7-17.2-32-15.5-44.4c1.6-1.6,3.3-3.2,4.9-4.9c7.9-0.9,17.5,2.8,28.2,10.2
	c4.5,3.1,9,7,13.5,10.2c6.7,4.8,13.7,10.2,20.2,13.6c13.3,7,19.3,1.4,15.5-12.7c-2.4-9.2-7.4-18.9-13.3-28.6
	c-9.8-16.2-16-30.9-13.8-42.4C419.3,80.4,420.8,78.9,422.3,77.4z"/>
<radialGradient id="SVGID_3_" cx="344" cy="298.5" r="25" gradientTransform="matrix(3 0 0 3 -694.5 -676.25)" gradientUnits="userSpaceOnUse">
	<stop  offset="0" style="stop-color:#0E00BF"/>
	<stop  offset="0.1294" style="stop-color:#362BCA"/>
	<stop  offset="0.3715" style="stop-color:#7D75DC"/>
	<stop  offset="0.5885" style="stop-color:#B5B0EB"/>
	<stop  offset="0.772" style="stop-color:#DDDBF6"/>
	<stop  offset="0.915" style="stop-color:#F6F5FD"/>
	<stop  offset="1" style="stop-color:#FFFFFF"/>
</radialGradient>
<circle class="st2" cx="337.5" cy="219.2" r="75"/>
<radialGradient id="SVGID_4_" cx="394" cy="309.6859" r="25" gradientTransform="matrix(2.09 0 0 2.08 -358.71 -344.8967)" gradientUnits="userSpaceOnUse">
	<stop  offset="0" style="stop-color:#B400BF"/>
	<stop  offset="0.1294" style="stop-color:#C12BCA"/>
	<stop  offset="0.3715" style="stop-color:#D675DC"/>
	<stop  offset="0.5885" style="stop-color:#E8B0EB"/>
	<stop  offset="0.772" style="stop-color:#F4DBF6"/>
	<stop  offset="0.915" style="stop-color:#FCF5FD"/>
	<stop  offset="1" style="stop-color:#FFFFFF"/>
</radialGradient>
<ellipse class="st3" cx="464.8" cy="299.2" rx="52.2" ry="52"/>
<radialGradient id="SVGID_5_" cx="448.8881" cy="326.2244" r="25" gradientTransform="matrix(1.55 0 0 1.5 -115.5266 -129.5865)" gradientUnits="userSpaceOnUse">
	<stop  offset="0" style="stop-color:#FB00BF"/>
	<stop  offset="0.1294" style="stop-color:#FC2BCA"/>
	<stop  offset="0.3715" style="stop-color:#FD75DC"/>
	<stop  offset="0.5885" style="stop-color:#FEB0EB"/>
	<stop  offset="0.772" style="stop-color:#FEDBF6"/>
	<stop  offset="0.915" style="stop-color:#FFF5FD"/>
	<stop  offset="1" style="stop-color:#FFFFFF"/>
</radialGradient>
<ellipse class="st4" cx="580.2" cy="359.8" rx="38.8" ry="37.5"/>
</svg>
