<svg id="Layer_1" data-name="Layer 1" xmlns="http://www.w3.org/2000/svg" viewBox="0 0 886.5 882.4"><title>comptonxrayscattering</title><path d="M708.8,572.2L523.5,416.7" style="fill:none;stroke:#fff;stroke-linecap:round;stroke-miterlimit:10;stroke-width:3px"/><path d="M716.9,579l-7.5-14.2-1.2,6.9-6.7,2.4Z" style="fill:#fff"/><circle cx="474" cy="383.2" r="23.2" style="fill:#fff"/><path d="M461.9,383.5a11.76,11.76,0,0,1,.8-4.3,9.21,9.21,0,0,1,2-3.2,8.37,8.37,0,0,1,2.9-2,8,8,0,0,1,3.4-.7,7.82,7.82,0,0,1,3.5.7,6.92,6.92,0,0,1,2.5,1.9,7.08,7.08,0,0,1,1.5,3,15.18,15.18,0,0,1,.5,3.8,12.73,12.73,0,0,1-.2,2.2H466.3a5.89,5.89,0,0,0,1.9,4.1,5.3,5.3,0,0,0,4,1.4,6.05,6.05,0,0,0,2.4-.4,11.3,11.3,0,0,0,2.2-1.1l1.6,2.9a14.84,14.84,0,0,1-3.1,1.5,10.88,10.88,0,0,1-3.6.6,9.52,9.52,0,0,1-3.8-.7,9.19,9.19,0,0,1-3.1-2,9.88,9.88,0,0,1-2.1-3.2,10.94,10.94,0,0,1-.8-4.5h0Zm13.2-1.7a5.82,5.82,0,0,0-1-3.7,3.54,3.54,0,0,0-3-1.3,4.16,4.16,0,0,0-3.1,1.3,5.78,5.78,0,0,0-1.6,3.7h8.7Zm7.3-.2h9.5V385h-9.5v-3.4Z" style="fill:#d6015f"/><path d="M526.1,342.6c35.2-35.2,91.7,21.4,126.9-13.8s-21.4-91.7,13.8-126.9,91.7,21.4,126.9-13.8" style="fill:none;stroke:#fff;stroke-linecap:round;stroke-miterlimit:10;stroke-width:6.099999904632568px"/><path d="M808.9,172.9l-12.7,30.2-3.6-13.9-13.9-3.6Z" style="fill:#fff"/><path d="M101.1,302.8c21.3,0,21.3,80,42.6,80s21.3-80,42.6-80,21.3,80,42.6,80,21.3-80,42.6-80,21.3,80,42.6,80,21.3-80,42.6-80,21.3,80,42.6,80m1.9,0h5" style="fill:none;stroke:#fff;stroke-linecap:round;stroke-miterlimit:10;stroke-width:6.099999904632568px"/><path d="M427.7,382.8l-30.4,12.4,7.2-12.4-7.2-12.4Z" style="fill:#fff"/><circle cx="748.2" cy="605.3" r="23.2" style="fill:#fff"/><path d="M736.1,605.7a11.76,11.76,0,0,1,.8-4.3,9.21,9.21,0,0,1,2-3.2,8.37,8.37,0,0,1,2.9-2,8,8,0,0,1,3.4-.7,7.82,7.82,0,0,1,3.5.7,6.92,6.92,0,0,1,2.5,1.9,7.08,7.08,0,0,1,1.5,3,15.18,15.18,0,0,1,.5,3.8,12.73,12.73,0,0,1-.2,2.2H740.5a5.89,5.89,0,0,0,1.9,4.1,5.3,5.3,0,0,0,4,1.4,6.05,6.05,0,0,0,2.4-.4,11.3,11.3,0,0,0,2.2-1.1l1.6,2.9a14.85,14.85,0,0,1-3.1,1.5,10.88,10.88,0,0,1-3.6.6,9.52,9.52,0,0,1-3.8-.7,9.19,9.19,0,0,1-3.1-2,9.88,9.88,0,0,1-2.1-3.2,11.24,11.24,0,0,1-.8-4.5h0Zm13.1-1.8a5.82,5.82,0,0,0-1-3.7,3.54,3.54,0,0,0-3-1.3,4.16,4.16,0,0,0-3.1,1.3,5.78,5.78,0,0,0-1.6,3.7h8.7Zm7.4-.2h9.5v3.4h-9.5v-3.4Z" style="fill:#d6015f"/></svg>