<svg xmlns="http://www.w3.org/2000/svg" id="Layer_1" viewBox="0 0 886.5 882.4"><style>.st0{fill-rule:evenodd;clip-rule:evenodd;fill:#F44336;} .st1{opacity:0.5;clip-path:url(#SVGID_2_);} .st2{fill:none;stroke:#AF2C1E;stroke-width:3;stroke-linecap:round;stroke-miterlimit:10;} .st3{fill:#AF2C1E;} .st4{fill:none;stroke:#FFFFFF;stroke-width:6.9859;stroke-linecap:round;stroke-miterlimit:10;} .st5{fill:#FFFFFF;} .st6{opacity:0.5;clip-path:url(#SVGID_4_);} .st7{fill-rule:evenodd;clip-rule:evenodd;fill:#4CAF50;} .st8{fill-rule:evenodd;clip-rule:evenodd;fill:#E34026;stroke:#FFFFFF;stroke-width:8;stroke-miterlimit:10;} .st9{fill-rule:evenodd;clip-rule:evenodd;fill:#03A2A3;stroke:#FFFFFF;stroke-width:8;stroke-miterlimit:10;} .st10{fill-rule:evenodd;clip-rule:evenodd;fill:#D0D106;stroke:#FFFFFF;stroke-width:8;stroke-miterlimit:10;} .st11{fill-rule:evenodd;clip-rule:evenodd;fill:#D6015F;stroke:#FFFFFF;stroke-width:8;stroke-miterlimit:10;} .st12{fill-rule:evenodd;clip-rule:evenodd;fill:#60AD21;stroke:#FFFFFF;stroke-width:8;stroke-miterlimit:10;} .st13{fill-rule:evenodd;clip-rule:evenodd;fill:#009FC8;stroke:#FFFFFF;stroke-width:8;stroke-miterlimit:10;} .st14{fill-rule:evenodd;clip-rule:evenodd;fill:#FFFFFF;stroke:#CCCCCC;stroke-width:5;stroke-miterlimit:10;} .st15{fill-rule:evenodd;clip-rule:evenodd;fill:#FFFFFF;stroke:#009FC8;stroke-width:20;stroke-miterlimit:10;} .st16{fill-rule:evenodd;clip-rule:evenodd;fill:#009FC8;} .st17{opacity:0.3;fill:#FFFFFF;} .st18{opacity:0.2;fill:#FFFFFF;} .st19{fill-rule:evenodd;clip-rule:evenodd;fill:#093D8A;} .st20{fill-rule:evenodd;clip-rule:evenodd;fill:#03A2A3;} .st21{opacity:0.2;} .st22{fill:#03A2A3;} .st23{fill:none;} .st24{opacity:0.2;fill:#03A2A3;stroke:#FFFFFF;stroke-miterlimit:10;} .st25{opacity:0.5;fill:#FFFFFF;} .st26{fill-rule:evenodd;clip-rule:evenodd;fill:#D6015F;} .st27{fill:none;stroke:#FFFFFF;stroke-width:4;stroke-miterlimit:10;} .st28{fill:none;stroke:#FFFFFF;stroke-width:5;stroke-linecap:round;stroke-linejoin:round;stroke-miterlimit:10;} .st29{fill-rule:evenodd;clip-rule:evenodd;fill:#D0D106;} .st30{fill-rule:evenodd;clip-rule:evenodd;fill:none;} .st31{fill:#D0D106;} .st32{opacity:0.7;fill:#FFFFFF;} .st33{fill:none;stroke:#FFFFFF;stroke-width:4;stroke-linecap:round;stroke-miterlimit:10;} .st34{fill:none;stroke:#FFFFFF;stroke-width:4;stroke-linecap:round;stroke-miterlimit:10;stroke-dasharray:4.0574,8.1149;} .st35{fill:none;stroke:#FFFFFF;stroke-width:4;stroke-linecap:round;stroke-miterlimit:10;stroke-dasharray:3.9995,7.999;} .st36{opacity:0.5;} .st37{fill:#E1E15F;} .st38{fill-rule:evenodd;clip-rule:evenodd;fill:#E34026;} .st39{fill:none;stroke:#FFFFFF;stroke-width:4;stroke-linecap:round;stroke-miterlimit:10;stroke-dasharray:3.973,7.9461;} .st40{fill:none;stroke:#FFFFFF;stroke-width:4;stroke-linecap:round;stroke-miterlimit:10;stroke-dasharray:4.0208,8.0415;} .st41{fill-rule:evenodd;clip-rule:evenodd;fill:#60AD21;} .st42{opacity:0.5;fill:#60AD21;} .st43{opacity:0.2;fill:none;stroke:#FFFFFF;stroke-width:3;stroke-miterlimit:10;} .st44{fill:#60AD21;} .st45{fill-rule:evenodd;clip-rule:evenodd;fill:#CCCCCC;} .st46{fill-rule:evenodd;clip-rule:evenodd;fill:#FFFFFF;} .st47{fill:none;stroke:#FFFFFF;stroke-width:4;stroke-linecap:round;stroke-miterlimit:10;stroke-dasharray:4.0534,8.1069;} .st48{fill:none;stroke:#FFFFFF;stroke-width:4;stroke-linecap:round;stroke-miterlimit:10;stroke-dasharray:3.924,7.848;} .st49{fill:none;stroke:#FFFFFF;stroke-width:4;stroke-linecap:round;stroke-miterlimit:10;stroke-dasharray:3.9324,7.8649;} .st50{fill:none;stroke:#FFFFFF;stroke-width:4;stroke-linecap:round;stroke-miterlimit:10;stroke-dasharray:3.9814,7.9627;} .st51{opacity:0.3;fill:url(#SVGID_5_);} .st52{opacity:0.76;fill:#FFFFFF;} .st53{opacity:0.9;} .st54{clip-path:url(#SVGID_7_);} .st55{fill-rule:evenodd;clip-rule:evenodd;fill:#E91E63;} .st56{fill-rule:evenodd;clip-rule:evenodd;fill:#9C27B0;} .st57{fill-rule:evenodd;clip-rule:evenodd;fill:#673AB7;} .st58{fill-rule:evenodd;clip-rule:evenodd;fill:#3F51B5;} .st59{fill-rule:evenodd;clip-rule:evenodd;fill:#2196F3;} .st60{fill-rule:evenodd;clip-rule:evenodd;fill:#03A9F4;} .st61{fill-rule:evenodd;clip-rule:evenodd;fill:#00BCD4;} .st62{fill-rule:evenodd;clip-rule:evenodd;fill:#009688;} .st63{fill-rule:evenodd;clip-rule:evenodd;fill:#8BC34A;} .st64{fill-rule:evenodd;clip-rule:evenodd;fill:#CDDC39;} .st65{fill-rule:evenodd;clip-rule:evenodd;fill:#FFEB3B;} .st66{fill-rule:evenodd;clip-rule:evenodd;fill:#FFC107;} .st67{fill-rule:evenodd;clip-rule:evenodd;fill:#FF9800;} .st68{fill-rule:evenodd;clip-rule:evenodd;fill:#FF5722;} .st69{fill-rule:evenodd;clip-rule:evenodd;fill:#795548;} .st70{fill-rule:evenodd;clip-rule:evenodd;fill:#9E9E9E;} .st71{fill-rule:evenodd;clip-rule:evenodd;fill:#607D8B;} .st72{fill-rule:evenodd;clip-rule:evenodd;} .st73{opacity:0.5;clip-path:url(#SVGID_11_);} .st74{fill:none;stroke:#E34026;stroke-width:3;stroke-linecap:round;stroke-miterlimit:10;} .st75{fill:#E34026;} .st76{opacity:0.5;clip-path:url(#SVGID_13_);} .st77{fill:none;stroke:#F44336;stroke-width:4.1915;stroke-miterlimit:10;} .st78{fill:none;stroke:#F44336;stroke-width:1.3972;stroke-miterlimit:10;} .st79{fill:none;stroke:#FFFFFF;stroke-width:10;stroke-miterlimit:10;} .st80{fill:none;stroke:#FFFFFF;stroke-width:6;stroke-linejoin:round;stroke-miterlimit:10;} .st81{opacity:0.5;fill:#5A7A3B;} .st82{fill:#4CAF50;} .st83{fill:#FFFFFF;stroke:#000000;stroke-miterlimit:10;} .st84{fill:#FFFFFF;stroke:#FFC107;stroke-width:2;stroke-miterlimit:10;} .st85{fill:#FFC107;stroke:#FFC107;stroke-width:2;stroke-miterlimit:10;} .st86{fill:none;stroke:#FFFFFF;stroke-width:3;stroke-linecap:round;stroke-miterlimit:10;} .st87{fill:none;stroke:#D0D106;stroke-width:2;stroke-miterlimit:10;} .st88{fill:#FFC107;} .st89{fill:none;stroke:#FFFFFF;stroke-width:6.1;stroke-linecap:round;stroke-miterlimit:10;} .st90{fill:#D6015F;stroke:#E91E63;stroke-width:2;stroke-miterlimit:10;} .st91{fill:none;stroke:#E91E63;stroke-width:2;stroke-miterlimit:10;} .st92{fill:none;stroke:#FFFFFF;stroke-width:7.0187;stroke-miterlimit:10;} .st93{fill:none;stroke:#FFFFFF;stroke-width:5.4987;stroke-miterlimit:10;} .st94{fill:none;stroke:#FFFFFF;stroke-width:4.964;stroke-miterlimit:10;} .st95{fill:none;stroke:#FFFFFF;stroke-width:4.3989;stroke-miterlimit:10;} .st96{fill:none;stroke:#FFFFFF;stroke-width:4.1195;stroke-miterlimit:10;} .st97{fill-rule:evenodd;clip-rule:evenodd;fill:#AAAAAA;} .st98{fill:#3A3A3A;} .st99{fill-rule:evenodd;clip-rule:evenodd;fill:#EAA813;} .st100{fill-rule:evenodd;clip-rule:evenodd;fill:#3A3A3A;} .st101{fill-rule:evenodd;clip-rule:evenodd;fill:#515151;} .st102{fill:none;stroke:#929497;stroke-width:11.7929;stroke-miterlimit:10;} .st103{fill:#929497;} .st104{fill:none;stroke:#929497;stroke-width:10.8495;stroke-miterlimit:10;} .st105{fill:none;stroke:#929497;stroke-width:20;stroke-miterlimit:10;} .st106{fill:#224099;} .st107{fill:#F1F1F2;} .st108{fill:#FFFFFF;stroke:#929497;stroke-width:13.2081;stroke-miterlimit:10;} .st109{fill:none;stroke:#929497;stroke-width:36.5581;stroke-miterlimit:10;} .st110{opacity:0.2;fill:none;stroke:#FFFFFF;stroke-width:1.2623;stroke-miterlimit:10;} .st111{fill:none;stroke:#FFFFFF;stroke-width:8;stroke-miterlimit:10;} .st112{opacity:0.2;fill:none;stroke:#FFFFFF;stroke-width:3.4897;stroke-miterlimit:10;} .st113{fill:none;stroke:#FFFFFF;stroke-width:13;stroke-linejoin:round;stroke-miterlimit:10;} .st114{fill-rule:evenodd;clip-rule:evenodd;fill:none;stroke:#FFFFFF;stroke-width:13;stroke-linecap:round;stroke-linejoin:round;stroke-miterlimit:10;} .st115{fill-rule:evenodd;clip-rule:evenodd;fill:none;stroke:#FFFFFF;stroke-width:13;stroke-linejoin:round;stroke-miterlimit:10;} .st116{fill:#D6015F;} .st117{opacity:0.5;clip-path:url(#SVGID_15_);} .st118{opacity:0.5;clip-path:url(#SVGID_17_);} .st119{fill:#F44336;}</style><path d="M.1-.1h886.3v882.6H.1V-.1z" class="st55"/><path d="M298 671.4c0-3.4.5-6.5 1.6-9.3 1-2.7 2.4-5 4.1-6.9 1.7-1.8 3.7-3.2 6-4.2s4.7-1.5 7.2-1.5c2.9 0 5.3.5 7.2 1.6 1.9 1 3.6 2.2 5 3.5l-2.2 2.7c-1.3-1.3-2.8-2.3-4.4-3.1-1.6-.8-3.4-1.2-5.4-1.2-2.1 0-4.1.4-5.9 1.3-1.8.9-3.4 2.2-4.7 3.8-1.4 1.6-2.4 3.6-3.2 5.8-.8 2.2-1.2 4.7-1.2 7.5 0 2.7.4 5.2 1.1 7.4s1.7 4.2 3 5.8c1.3 1.6 2.9 2.9 4.7 3.7 1.9.9 3.9 1.3 6.2 1.3 2.2 0 4.2-.5 6.1-1.4 1.9-.9 3.5-2 5-3.4l2 2.6c-1.8 1.6-3.8 2.9-5.9 4-2.2 1-4.6 1.6-7.2 1.6-2.7 0-5.2-.5-7.5-1.5s-4.3-2.4-5.9-4.2c-1.7-1.8-3-4.1-4-6.8-1.2-2.6-1.7-5.6-1.7-9.1zm37.2 0c0-3.4.5-6.5 1.5-9.3 1-2.7 2.4-5 4.1-6.9 1.7-1.8 3.7-3.2 5.9-4.2s4.6-1.5 7.1-1.5 4.8.5 7.1 1.5 4.3 2.4 5.9 4.2c1.7 1.8 3 4.1 4.1 6.9 1 2.7 1.5 5.8 1.5 9.3s-.5 6.5-1.5 9.2c-1 2.7-2.4 4.9-4.1 6.8-1.7 1.8-3.7 3.2-5.9 4.2-2.3 1-4.6 1.5-7.1 1.5s-4.8-.5-7.1-1.5c-2.2-1-4.2-2.4-5.9-4.2-1.7-1.8-3-4.1-4.1-6.8-1-2.7-1.5-5.7-1.5-9.2zm4 0c0 2.7.4 5.2 1.1 7.4.7 2.2 1.8 4.2 3.1 5.8 1.3 1.6 2.8 2.9 4.6 3.7 1.8.9 3.7 1.3 5.8 1.3s4-.4 5.8-1.3c1.8-.9 3.4-2.1 4.7-3.7 1.3-1.6 2.3-3.5 3.1-5.8.7-2.2 1.1-4.7 1.1-7.4 0-2.8-.4-5.3-1.1-7.5-.7-2.2-1.8-4.2-3.1-5.8s-2.8-2.9-4.7-3.8c-1.8-.9-3.8-1.3-5.8-1.3s-4 .4-5.8 1.3c-1.8.9-3.3 2.2-4.6 3.8s-2.3 3.6-3.1 5.8c-.7 2.3-1.1 4.8-1.1 7.5zm45.6-20.7h3.3l.3 6.4h.3c1.8-2.1 3.9-3.9 6.2-5.3 2.3-1.4 4.6-2.1 6.9-2.1 3.3 0 5.9.8 7.7 2.3 1.8 1.5 3 3.6 3.8 6.2 2.4-2.6 4.8-4.6 7-6.2 2.3-1.5 4.6-2.3 7-2.3 8.3 0 12.4 5.3 12.4 15.9V692h-3.9v-26c0-4.4-.7-7.7-2.2-9.8-1.5-2.1-3.8-3.1-7-3.1-3.7 0-7.9 2.6-12.4 7.8V692h-3.8v-26c0-4.4-.7-7.7-2.2-9.8-1.5-2.1-3.9-3.1-7.1-3.1-3.7 0-7.9 2.6-12.4 7.8V692h-3.8v-41.3zm73.8 45v15.1h-3.8v-60.1h3.3l.3 5.2h.3c2-1.6 4.2-3 6.6-4.3 2.4-1.3 4.9-1.9 7.5-1.9 5.5 0 9.7 1.9 12.4 5.7 2.8 3.8 4.1 9 4.1 15.4 0 3.5-.5 6.6-1.5 9.4s-2.3 5.1-4 7c-1.7 1.9-3.6 3.4-5.9 4.4-2.2 1-4.5 1.5-6.9 1.5-2 0-4-.4-6-1.3-2.1-.9-4.2-2.1-6.4-3.7v7.6zm0-11.3c2.4 2 4.7 3.3 6.7 4.1 2.1.8 3.9 1.2 5.5 1.2 2.1 0 4-.5 5.8-1.4 1.8-.9 3.3-2.2 4.6-3.9 1.3-1.7 2.3-3.7 3-6 .7-2.3 1.1-4.9 1.1-7.7 0-2.5-.2-4.9-.7-7.1-.5-2.2-1.2-4.1-2.3-5.6-1-1.6-2.4-2.8-4.1-3.7-1.7-.9-3.7-1.3-6-1.3-2.1 0-4.2.6-6.4 1.8-2.2 1.2-4.6 2.9-7.1 5v24.6zm44-30.5h-6.5V651l6.5-.3.5-12h3.3v12h12v3.3h-12v27c0 1.3.1 2.5.3 3.6.2 1.1.6 2 1.1 2.8s1.2 1.4 2.1 1.8c.9.4 2.1.6 3.5.6.8 0 1.7-.1 2.6-.4.9-.3 1.8-.6 2.5-.9l1 3.1c-1.2.5-2.4.8-3.6 1.1-1.2.3-2.2.4-3.1.4-2 0-3.7-.3-5-.9-1.3-.6-2.4-1.5-3.2-2.5-.8-1.1-1.4-2.4-1.7-4-.3-1.6-.5-3.2-.5-5.1v-26.7zm21.6 17.5c0-3.4.5-6.5 1.5-9.3 1-2.7 2.4-5 4.1-6.9 1.7-1.8 3.7-3.2 5.9-4.2s4.6-1.5 7.1-1.5 4.8.5 7.1 1.5 4.3 2.4 5.9 4.2c1.7 1.8 3 4.1 4.1 6.9 1 2.7 1.5 5.8 1.5 9.3s-.5 6.5-1.5 9.2c-1 2.7-2.4 4.9-4.1 6.8-1.7 1.8-3.7 3.2-5.9 4.2-2.3 1-4.6 1.5-7.1 1.5s-4.8-.5-7.1-1.5c-2.2-1-4.2-2.4-5.9-4.2-1.7-1.8-3-4.1-4.1-6.8-1-2.7-1.5-5.7-1.5-9.2zm4 0c0 2.7.4 5.2 1.1 7.4.7 2.2 1.8 4.2 3.1 5.8 1.3 1.6 2.8 2.9 4.6 3.7 1.8.9 3.7 1.3 5.8 1.3 2.1 0 4-.4 5.8-1.3 1.8-.9 3.4-2.1 4.7-3.7 1.3-1.6 2.3-3.5 3.1-5.8.7-2.2 1.1-4.7 1.1-7.4 0-2.8-.4-5.3-1.1-7.5-.7-2.2-1.8-4.2-3.1-5.8s-2.8-2.9-4.7-3.8c-1.8-.9-3.7-1.3-5.8-1.3-2.1 0-4 .4-5.8 1.3-1.8.9-3.3 2.2-4.6 3.8s-2.3 3.6-3.1 5.8c-.7 2.3-1.1 4.8-1.1 7.5zm45.6-20.7h3.3l.3 6.4h.3c2.1-2.1 4.3-3.9 6.6-5.3 2.2-1.4 4.8-2.1 7.7-2.1 4.3 0 7.5 1.3 9.5 3.9 2 2.6 3 6.6 3 12V692h-3.8v-26c0-4.4-.7-7.7-2.2-9.8-1.5-2.1-3.9-3.1-7.3-3.1-2.5 0-4.7.6-6.7 1.9-2 1.3-4.3 3.2-6.8 5.8V692h-3.8v-41.3zM212.4 753.4l-12.9-19.7h4.2l6.7 10.5c.7 1.1 1.4 2.3 2.1 3.4.7 1.1 1.5 2.3 2.3 3.4h.3c.7-1.1 1.5-2.3 2.1-3.4.7-1.1 1.4-2.3 2.1-3.4l6.5-10.5h4L217 753.8l14 21.2h-4.2l-7.3-11.3-2.4-3.9c-.8-1.3-1.6-2.5-2.5-3.7h-.3c-.8 1.2-1.6 2.4-2.4 3.7l-2.4 3.9-7.1 11.3h-4.1l14.1-21.6zm22.3-1.5h19v3.4h-19v-3.4zm30.2-18.2h3.3l.3 7.7h.3c1.4-2.6 3.1-4.7 5-6.3 2-1.6 4.2-2.4 6.7-2.4.8 0 1.5.1 2.2.2.6.1 1.3.3 2 .7l-.9 3.4c-.7-.3-1.3-.5-1.8-.6-.5-.1-1.2-.1-2-.1-1.8 0-3.8.8-5.8 2.4-2 1.6-3.9 4.3-5.5 8.2V775h-3.8v-41.3zm23 31c0-4.5 2.2-8 6.5-10.4 4.3-2.4 11.1-4.1 20.3-5.2.1-1.6 0-3.1-.3-4.7s-.7-3-1.5-4.2c-.7-1.2-1.7-2.2-3-3s-2.9-1.2-5-1.2c-2.8 0-5.4.5-7.7 1.6s-4.1 2.2-5.5 3.2L290 738c.7-.5 1.7-1.1 2.7-1.7 1.1-.6 2.2-1.2 3.5-1.7 1.3-.5 2.7-1 4.3-1.3 1.6-.4 3.2-.6 4.8-.6 2.5 0 4.5.4 6.2 1.2 1.7.8 3 2 4.1 3.4 1 1.4 1.8 3.1 2.2 5 .4 1.9.6 4 .6 6.2V775h-3.2l-.4-5.3h-.2c-2.1 1.7-4.4 3.1-6.9 4.4-2.4 1.3-5 1.9-7.8 1.9-1.7 0-3.2-.2-4.7-.7-1.4-.5-2.7-1.1-3.8-2.1-1.1-.9-2-2.1-2.6-3.5-.5-1.4-.9-3-.9-5zm4-.2c0 3 .9 5.1 2.6 6.4 1.7 1.3 3.8 1.9 6.1 1.9 2.4 0 4.7-.6 6.9-1.7s4.6-2.8 7.2-5v-14c-4.3.5-7.8 1.2-10.7 1.9-2.9.7-5.2 1.6-7 2.7-1.8 1-3.1 2.2-3.8 3.5-.9 1.3-1.3 2.7-1.3 4.3zm37.9 25.7c.6.1 1.2.2 1.8.2 2.6 0 4.7-1 6.5-3.1 1.7-2.1 3.1-4.7 4.1-7.8l1.1-3.6-17-42.1h4.1l10 26c.6 1.7 1.3 3.6 2.1 5.7s1.6 4 2.4 5.9h.3c.6-1.8 1.3-3.8 1.9-5.9.7-2.1 1.3-4 1.9-5.7l8.9-26h3.9l-16.4 46.5c-.6 1.7-1.3 3.4-2.1 5s-1.8 3.1-2.9 4.4-2.4 2.3-3.9 3.1c-1.5.8-3.1 1.2-5 1.2-1.6 0-3-.3-4.2-.9l.9-3.4c.5.2 1.1.3 1.6.5zm55.3-22.7c1.8 1.5 3.7 2.7 5.7 3.7s4.5 1.5 7.5 1.5c3.3 0 5.7-.8 7.4-2.5 1.6-1.6 2.5-3.5 2.5-5.7 0-1.3-.3-2.4-.9-3.4-.6-1-1.4-1.8-2.4-2.5s-2.1-1.3-3.2-1.8-2.4-1-3.6-1.5c-1.6-.6-3.1-1.2-4.7-1.8-1.6-.6-3-1.4-4.3-2.3-1.3-.9-2.3-2-3.1-3.2-.8-1.2-1.2-2.7-1.2-4.5 0-1.5.3-2.9.9-4.3.6-1.3 1.4-2.5 2.6-3.5 1.1-1 2.5-1.8 4.2-2.4 1.6-.6 3.5-.9 5.7-.9s4.3.4 6.4 1.2c2.1.8 3.9 1.8 5.4 3.1l-2.1 2.7c-1.4-1-2.8-1.9-4.4-2.6-1.6-.7-3.4-1.1-5.5-1.1-1.6 0-3 .2-4.1.6-1.2.4-2.1 1-2.9 1.7-.8.7-1.4 1.5-1.7 2.4-.4.9-.6 1.8-.6 2.8 0 1.2.3 2.2.8 3.1.5.8 1.3 1.6 2.2 2.2.9.6 2 1.2 3.1 1.7 1.2.5 2.4 1 3.6 1.4 1.6.6 3.2 1.3 4.8 1.9 1.6.6 3.1 1.4 4.4 2.3 1.3.9 2.3 2.1 3.1 3.4.8 1.4 1.2 3 1.2 5 0 1.6-.3 3-.9 4.4-.6 1.4-1.5 2.6-2.7 3.7-1.2 1.1-2.7 1.9-4.4 2.5-1.7.6-3.7.9-5.9.9-3.1 0-5.9-.6-8.5-1.7s-4.8-2.5-6.6-4l2.2-2.5zm34.4-13.1c0-3.4.5-6.5 1.6-9.3 1-2.7 2.4-5 4.1-6.9 1.7-1.8 3.7-3.2 6-4.2s4.7-1.5 7.2-1.5c2.9 0 5.3.5 7.2 1.6 1.9 1 3.6 2.2 5 3.5l-2.2 2.7c-1.3-1.3-2.8-2.3-4.4-3.1-1.6-.8-3.4-1.2-5.4-1.2-2.1 0-4.1.4-5.9 1.3-1.8.9-3.4 2.2-4.7 3.8-1.4 1.6-2.4 3.6-3.2 5.8-.8 2.2-1.2 4.7-1.2 7.5 0 2.7.4 5.2 1.1 7.4.7 2.2 1.7 4.2 3 5.8 1.3 1.6 2.9 2.9 4.7 3.7 1.9.9 3.9 1.3 6.2 1.3 2.2 0 4.2-.5 6.1-1.4 1.9-.9 3.5-2 5-3.4l2 2.6c-1.8 1.6-3.8 2.9-5.9 4-2.2 1-4.6 1.6-7.2 1.6-2.7 0-5.2-.5-7.5-1.5s-4.3-2.4-5.9-4.2c-1.7-1.8-3-4.1-4-6.8-1.2-2.6-1.7-5.6-1.7-9.1zm38.9 10.3c0-4.5 2.2-8 6.5-10.4s11.1-4.1 20.3-5.2c.1-1.6 0-3.1-.3-4.7s-.7-3-1.5-4.2c-.7-1.2-1.7-2.2-3-3s-2.9-1.2-5-1.2c-2.8 0-5.4.5-7.7 1.6s-4.1 2.2-5.5 3.2l-1.7-2.8c.7-.5 1.7-1.1 2.7-1.7 1.1-.6 2.2-1.2 3.5-1.7s2.7-1 4.3-1.3c1.6-.4 3.2-.6 4.8-.6 2.5 0 4.5.4 6.2 1.2 1.7.8 3 2 4.1 3.4 1 1.4 1.8 3.1 2.2 5 .4 1.9.6 4 .6 6.2V775h-3.2l-.4-5.3h-.2c-2.1 1.7-4.4 3.1-6.9 4.4-2.4 1.3-5 1.9-7.8 1.9-1.7 0-3.2-.2-4.7-.7-1.4-.5-2.7-1.1-3.8-2.1-1.1-.9-2-2.1-2.6-3.5-.5-1.4-.9-3-.9-5zm4-.2c0 3 .9 5.1 2.6 6.4 1.7 1.3 3.8 1.9 6.1 1.9 2.4 0 4.7-.6 6.9-1.7s4.6-2.8 7.2-5v-14c-4.3.5-7.8 1.2-10.7 1.9-2.9.7-5.2 1.6-7 2.7-1.8 1-3.1 2.2-3.8 3.5-.9 1.3-1.3 2.7-1.3 4.3zm42.3-27.6h-6.5V734l6.6-.3.5-12h3.3v12h12v3.3h-12v27c0 1.3.1 2.5.3 3.6.2 1.1.6 2 1.1 2.8s1.2 1.4 2.1 1.8 2.1.6 3.5.6c.8 0 1.7-.1 2.6-.4.9-.3 1.8-.6 2.5-.9l1 3.1c-1.2.5-2.4.8-3.6 1.1-1.2.3-2.2.4-3.1.4-2 0-3.7-.3-5-.9-1.3-.6-2.4-1.5-3.2-2.5-.8-1.1-1.4-2.4-1.7-4-.3-1.6-.5-3.2-.5-5.1v-26.7zm26.9 0h-6.5V734l6.6-.3.5-12h3.3v12h12v3.3h-12v27c0 1.3.1 2.5.3 3.6.2 1.1.6 2 1.1 2.8.5.8 1.2 1.4 2.1 1.8.9.4 2.1.6 3.5.6.8 0 1.7-.1 2.6-.4.9-.3 1.8-.6 2.5-.9l1 3.1c-1.2.5-2.4.8-3.6 1.1-1.2.3-2.2.4-3.1.4-2 0-3.7-.3-5-.9-1.3-.6-2.4-1.5-3.2-2.5-.8-1.1-1.4-2.4-1.7-4-.3-1.6-.5-3.2-.5-5.1v-26.7zm21.6 17.5c0-3.4.5-6.4 1.5-9.1 1-2.7 2.4-5 4.1-6.9 1.7-1.9 3.6-3.3 5.8-4.3 2.2-1 4.4-1.5 6.7-1.5 4.9 0 8.8 1.7 11.6 5 2.8 3.3 4.2 8 4.2 14.1v1.6s-.1 1-.2 1.6h-29.8c.1 2.6.5 5 1.2 7.2s1.8 4.1 3.1 5.7c1.3 1.6 3 2.8 4.9 3.7 1.9.9 4 1.3 6.4 1.3 2.2 0 4.3-.3 6.1-1 1.8-.7 3.5-1.6 5-2.7l1.6 2.9c-1.7 1-3.5 1.9-5.5 2.8-2 .9-4.5 1.3-7.5 1.3-2.6 0-5.1-.5-7.5-1.5-2.3-1-4.4-2.4-6.1-4.3-1.7-1.9-3.1-4.1-4.1-6.8-1-2.6-1.5-5.7-1.5-9.1zm30.3-2.5c0-5.3-1.1-9.4-3.3-12-2.2-2.7-5.1-4-8.9-4-1.8 0-3.5.4-5.1 1.1-1.6.7-3.1 1.8-4.4 3.2-1.3 1.4-2.4 3.1-3.2 5-.8 2-1.4 4.2-1.6 6.7h26.5zm14.8-18.2h3.3l.3 7.7h.3c1.4-2.6 3.1-4.7 5-6.3 2-1.6 4.2-2.4 6.7-2.4.8 0 1.5.1 2.2.2.6.1 1.3.3 2 .7l-.9 3.4c-.7-.3-1.3-.5-1.8-.6-.5-.1-1.2-.1-2-.1-1.8 0-3.8.8-5.8 2.4-2 1.6-3.9 4.3-5.5 8.2V775h-3.8v-41.3zm29.3-10c-1 0-1.8-.3-2.5-.9-.7-.6-1-1.4-1-2.4 0-1.1.3-1.9 1-2.5.7-.6 1.5-.9 2.5-.9s1.8.3 2.5.9c.7.6 1 1.5 1 2.5s-.3 1.8-1 2.4c-.7.6-1.5.9-2.5.9zm-2 10h3.8V775h-3.8v-41.3zm19.8 0h3.3l.3 6.4h.3c2.1-2.1 4.3-3.9 6.5-5.3s4.8-2.1 7.7-2.1c4.3 0 7.5 1.3 9.5 3.9 2 2.6 3 6.6 3 12V775h-3.8v-26c0-4.4-.7-7.7-2.2-9.8-1.5-2.1-3.9-3.1-7.3-3.1-2.5 0-4.7.6-6.7 1.9-2 1.3-4.3 3.2-6.8 5.8V775h-3.8v-41.3zm42.4 49.8c0-1.8.5-3.6 1.6-5.3 1.1-1.7 2.6-3.3 4.5-4.7v-.3c-1-.6-1.9-1.5-2.6-2.6-.7-1.1-1-2.4-1-4.1 0-1.8.5-3.4 1.6-4.7 1-1.3 2-2.3 2.9-2.9v-.3c-1.3-1.1-2.5-2.7-3.6-4.7s-1.6-4.2-1.6-6.7c0-2.1.4-4.1 1.1-5.9.7-1.8 1.8-3.3 3.1-4.6 1.3-1.3 2.9-2.3 4.7-3 1.8-.7 3.7-1.1 5.7-1.1 1.1 0 2.2.1 3.1.3.9.2 1.7.4 2.3.7h14v3.2H714c1.3 1.2 2.4 2.6 3.3 4.4.9 1.8 1.3 3.8 1.3 6 0 2.1-.4 4.1-1.1 5.9-.7 1.8-1.8 3.3-3.1 4.6-1.3 1.3-2.8 2.3-4.6 3-1.8.7-3.6 1.1-5.6 1.1-1.2 0-2.3-.1-3.6-.4-1.2-.3-2.3-.7-3.3-1.3-.9.7-1.7 1.6-2.4 2.5-.7.9-1 2.1-1 3.4 0 1.5.5 2.8 1.6 3.8 1.1 1.1 3.2 1.6 6.3 1.6h8.9c4.7 0 8.1.8 10.3 2.3 2.2 1.5 3.3 3.9 3.3 7.2 0 1.8-.5 3.5-1.4 5.2-.9 1.7-2.2 3.2-3.9 4.5-1.7 1.3-3.7 2.3-6.2 3.1-2.4.8-5.1 1.2-8.1 1.2-5.2 0-9.4-1-12.4-3.1-3-2-4.5-4.8-4.5-8.3zm3.6-.4c0 2.6 1.2 4.7 3.6 6.3 2.4 1.6 5.8 2.4 10.2 2.4 2.3 0 4.4-.3 6.3-.9 1.9-.6 3.5-1.4 4.8-2.4 1.3-1 2.3-2.1 3.1-3.3.7-1.2 1.1-2.5 1.1-3.8 0-2.3-.8-3.9-2.5-4.9-1.6-.9-4-1.4-7.1-1.4H702c-.5 0-1.2 0-2.1-.1-.9-.1-2-.3-3.1-.6-1.9 1.3-3.3 2.7-4.1 4.2-.9 1.6-1.3 3-1.3 4.5zm12.8-24.3c1.4 0 2.8-.3 4.1-.8 1.3-.5 2.4-1.3 3.4-2.4 1-1 1.8-2.3 2.3-3.7.6-1.4.9-3 .9-4.7 0-1.7-.3-3.3-.9-4.7-.6-1.4-1.3-2.6-2.3-3.6-.9-1-2.1-1.7-3.4-2.3-1.3-.5-2.7-.8-4.1-.8-1.5 0-2.9.3-4.2.8-1.3.5-2.4 1.3-3.4 2.3-1 1-1.8 2.2-2.3 3.6-.6 1.4-.9 3-.9 4.8 0 1.7.3 3.3.9 4.7.6 1.4 1.4 2.7 2.4 3.7s2.2 1.8 3.4 2.4c1.3.5 2.6.7 4.1.7z" class="st5"/><path d="M708.8 572.2L523.5 416.7" class="st86"/><path d="M716.9 579l-7.5-14.2-1.2 6.9-6.7 2.4z" class="st5"/><circle cx="474" cy="383.2" r="23.2" class="st5"/><path d="M461.9 383.5c0-1.6.3-3 .8-4.3.5-1.3 1.2-2.4 2-3.2s1.8-1.6 2.9-2c1.1-.5 2.2-.7 3.4-.7 1.3 0 2.5.2 3.5.7 1 .5 1.9 1.1 2.5 1.9.7.8 1.2 1.8 1.5 3 .3 1.2.5 2.4.5 3.8 0 .9-.1 1.6-.2 2.2h-12.5c.2 1.8.8 3.2 1.9 4.1 1 1 2.3 1.4 4 1.4.9 0 1.7-.1 2.4-.4.7-.3 1.5-.6 2.2-1.1l1.6 2.9c-.9.6-2 1.1-3.1 1.5-1.1.4-2.4.6-3.6.6-1.4 0-2.6-.2-3.8-.7-1.2-.5-2.2-1.1-3.1-2-.9-.9-1.6-2-2.1-3.2-.6-1.4-.8-2.8-.8-4.5zm13.2-1.7c0-1.6-.3-2.8-1-3.7-.7-.9-1.7-1.3-3-1.3-1.2 0-2.2.4-3.1 1.3-.9.8-1.4 2.1-1.6 3.7h8.7zm7.3-.2h9.5v3.4h-9.5v-3.4z" class="st116"/><path d="M526.1 342.6c35.2-35.2 91.7 21.4 126.9-13.8s-21.4-91.7 13.8-126.9 91.7 21.4 126.9-13.8" class="st89"/><path d="M808.9 172.9l-12.7 30.2-3.6-13.9-13.9-3.6z" class="st5"/><path d="M101.1 302.8c21.3 0 21.3 80 42.6 80s21.3-80 42.6-80 21.3 80 42.6 80 21.3-80 42.6-80 21.3 80 42.6 80 21.3-80 42.6-80 21.3 80 42.6 80m1.9 0h5" class="st89"/><path d="M427.7 382.8l-30.4 12.4 7.2-12.4-7.2-12.4z" class="st5"/><circle cx="748.2" cy="605.3" r="23.2" class="st5"/><path d="M736.1 605.7c0-1.6.3-3 .8-4.3.5-1.3 1.2-2.4 2-3.2s1.8-1.6 2.9-2c1.1-.5 2.2-.7 3.4-.7 1.3 0 2.5.2 3.5.7 1 .5 1.9 1.1 2.5 1.9.7.8 1.2 1.8 1.5 3 .3 1.2.5 2.4.5 3.8 0 .9-.1 1.6-.2 2.2h-12.5c.2 1.8.8 3.2 1.9 4.1 1 1 2.3 1.4 4 1.4.9 0 1.7-.1 2.4-.4.7-.3 1.5-.6 2.2-1.1l1.6 2.9c-.9.6-2 1.1-3.1 1.5-1.1.4-2.4.6-3.6.6-1.4 0-2.6-.2-3.8-.7-1.2-.5-2.2-1.1-3.1-2-.9-.9-1.6-2-2.1-3.2-.6-1.4-.8-2.9-.8-4.5zm13.1-1.8c0-1.6-.3-2.8-1-3.7-.7-.9-1.7-1.3-3-1.3-1.2 0-2.2.4-3.1 1.3-.9.8-1.4 2.1-1.6 3.7h8.7zm7.4-.2h9.5v3.4h-9.5v-3.4z" class="st116"/></svg>