<?xml version="1.0" encoding="utf-8"?>
<!-- Generator: Adobe Illustrator 19.1.0, SVG Export Plug-In . SVG Version: 6.00 Build 0)  -->
<svg version="1.1" id="Layer_1" xmlns="http://www.w3.org/2000/svg" xmlns:xlink="http://www.w3.org/1999/xlink" x="0px" y="0px"
	 viewBox="-374.2 191.4 211.4 170.6" style="enable-background:new -374.2 191.4 211.4 170.6;" xml:space="preserve">
<style type="text/css">
	.st0{fill:url(#SVGID_1_);}
	.st1{opacity:0.93;fill:url(#SVGID_2_);enable-background:new    ;}
	.st2{fill:url(#SVGID_3_);}
	.st3{fill:none;}
	.st4{fill:none;stroke:#000000;stroke-width:0.75;stroke-miterlimit:10;}
	.st5{fill:#3F41FF;stroke:url(#SVGID_4_);stroke-width:0.25;stroke-linecap:round;stroke-linejoin:round;stroke-miterlimit:10;}
	.st6{fill:#3F41FF;stroke:url(#SVGID_5_);stroke-width:0.25;stroke-linecap:round;stroke-linejoin:round;stroke-miterlimit:10;}
</style>
<g id="Orbitals">
</g>
<g id="Backgrounds">
</g>
<g id="Formulas">
</g>
<g id="Captions">
</g>
<g id="Graph_2">
</g>
<g id="Funnel_2">
</g>
<g id="Atom_2">
</g>
<g id="Graph_1">
</g>
<g id="Funnel_1">
	<g>
		
			<linearGradient id="SVGID_1_" gradientUnits="userSpaceOnUse" x1="-266.2" y1="198.7623" x2="-266.2" y2="509.5623" gradientTransform="matrix(1 0 0 -1 0 564.4)">
			<stop  offset="0" style="stop-color:#ED1C24;stop-opacity:0"/>
			<stop  offset="1.118143e-02" style="stop-color:#D2181F;stop-opacity:0.2236"/>
			<stop  offset="2.688608e-02" style="stop-color:#B31217;stop-opacity:0.5377"/>
			<stop  offset="3.500000e-02" style="stop-color:#A70E13;stop-opacity:0.7"/>
			<stop  offset="5.520073e-02" style="stop-color:#C0151B;stop-opacity:0.7433"/>
			<stop  offset="8.333954e-02" style="stop-color:#DF1A22;stop-opacity:0.8036"/>
			<stop  offset="9.789062e-02" style="stop-color:#ED1C24;stop-opacity:0.8347"/>
			<stop  offset="0.1175" style="stop-color:#EF4724;stop-opacity:0.8396"/>
			<stop  offset="0.1472" style="stop-color:#F36D23;stop-opacity:0.8469"/>
			<stop  offset="0.1805" style="stop-color:#F68823;stop-opacity:0.8551"/>
			<stop  offset="0.2169" style="stop-color:#F99F23;stop-opacity:0.8641"/>
			<stop  offset="0.257" style="stop-color:#FCB221;stop-opacity:0.874"/>
			<stop  offset="0.3023" style="stop-color:#FFC31F;stop-opacity:0.8852"/>
			<stop  offset="0.3552" style="stop-color:#FFCF1C;stop-opacity:0.8983"/>
			<stop  offset="0.4207" style="stop-color:#FFD719;stop-opacity:0.9144"/>
			<stop  offset="0.5124" style="stop-color:#FFDC18;stop-opacity:0.9371"/>
			<stop  offset="0.7672" style="stop-color:#FFDE17"/>
		</linearGradient>
		<path class="st0" d="M-188.1,222.3c0-6.7-35-12.1-78.1-12.1s-78,5.4-78.1,12.1l0,0c0,1.4,1.4,2.7,4.1,3.9c0.9,0.4,1.8,0.8,2.9,1.1
			c25.2,10.5,59.3,41.9,59.3,135.7h0.1c0,1.4,4.7,2.6,10.5,2.6c5.8,0,10.5-1.2,10.5-2.6c0-0.1-0.1-0.3-0.1-0.4
			c0.1-89.8,32.1-122.3,57.2-133.9c4.6-1.1,7.9-2.4,9.9-3.7C-188.8,224.1-188.1,223.2-188.1,222.3L-188.1,222.3z"/>
		
			<linearGradient id="SVGID_2_" gradientUnits="userSpaceOnUse" x1="-268.5" y1="322.4623" x2="-268.5" y2="360.5623" gradientTransform="matrix(1 0 0 -1 0 564.4)">
			<stop  offset="0" style="stop-color:#FED514"/>
			<stop  offset="4.348934e-03" style="stop-color:#FED516"/>
			<stop  offset="0.1755" style="stop-color:#F6D539"/>
			<stop  offset="0.3695" style="stop-color:#F2D54A"/>
			<stop  offset="0.6057" style="stop-color:#EFD654"/>
			<stop  offset="1" style="stop-color:#EED657"/>
		</linearGradient>
		<polygon class="st1" points="-187.6,241.9 -374.2,241.9 -331.2,203.8 -162.8,203.8 		"/>
		
			<linearGradient id="SVGID_3_" gradientUnits="userSpaceOnUse" x1="-263.3" y1="329.9623" x2="-263.3" y2="378.3623" gradientTransform="matrix(1 0 0 -1 0 564.4)">
			<stop  offset="6.606744e-02" style="stop-color:#D4722F"/>
			<stop  offset="0.1019" style="stop-color:#E0922E"/>
			<stop  offset="0.1238" style="stop-color:#E7A42C"/>
			<stop  offset="0.1616" style="stop-color:#EFB629"/>
			<stop  offset="0.2089" style="stop-color:#F7C724"/>
			<stop  offset="0.2626" style="stop-color:#FDD31E"/>
			<stop  offset="0.3279" style="stop-color:#FFDB19"/>
			<stop  offset="0.4368" style="stop-color:#FFDE17"/>
		</linearGradient>
		<path class="st2" d="M-185.2,222.3c0-6.7-35-12.1-78.1-12.1s-78,5.4-78.1,12.1l0,0c0,1.4,1.4,2.7,4.1,3.9c1,0.4,1.9,0.7,2.9,1.1
			c12.3,4.2,39.5,7.1,71,7.1c28,0,52.5-2.3,66.3-5.7c3.5-1.6,6.8-2.8,9.9-3.7C-185.8,224.1-185.2,223.2-185.2,222.3L-185.2,222.3z"
			/>
	</g>
	<g id="Axes_3_">
		<g>
			<path class="st3" d="M-264.5,233.5"/>
		</g>
		<path class="st4" d="M-264.5,247.3"/>
		<path class="st4" d="M-264.5,296.3"/>
		<path class="st4" d="M-264.5,298.8"/>
		<g>
			<path class="st3" d="M-183.8,221.1"/>
		</g>
		<g>
			<path class="st3" d="M-264.2,220.9"/>
		</g>
	</g>
</g>
<g id="Atom_1">
</g>
<g>
	<g>
		
			<linearGradient id="SVGID_4_" gradientUnits="userSpaceOnUse" x1="-250.4767" y1="572.3795" x2="-199.5118" y2="537.5197" gradientTransform="matrix(0.8614 0.6288 0.5329 -0.73 -363.9885 762.1766)">
			<stop  offset="0" style="stop-color:#FFF23A"/>
			<stop  offset="4.010540e-02" style="stop-color:#FEE62D"/>
			<stop  offset="0.1171" style="stop-color:#FED41A"/>
			<stop  offset="0.1964" style="stop-color:#FDC90F"/>
			<stop  offset="0.2809" style="stop-color:#FDC60B"/>
			<stop  offset="0.6685" style="stop-color:#F28F3F"/>
			<stop  offset="0.8876" style="stop-color:#ED693C"/>
			<stop  offset="1" style="stop-color:#E83E39"/>
		</linearGradient>
		<path class="st5" d="M-272.1,234.4c-4.1-3.2-5.9-10.2-7.1-18.5c-0.5-3.8-1.5-7.4-2.6-10.4c-2-5.1-5.2-4.7-7.8,0.2
			c-2,3.6-3.1,8.3-4.3,12.9c-0.7,2.6-1.3,5.3-2.2,7.6c-3.8,10.5-9.5,11-12.7,0.8c-1-3.3-1.6-7.2-2.4-10.8c-0.7-3.2-1.2-6.7-2.2-9.5
			c-2-6.1-5.7-6.5-8.5-0.8c-1.5,3.2-2.7,7.2-4.1,11.2c-0.1,0-0.6-0.2-1-0.3c0-0.5,0-1.1,0-1.7c0.2-0.6,0.4-1.2,0.6-1.8
			c1.7-6.6,3.9-12,7.4-14.5c1,0,2.1-0.1,3.2-0.1c3.6,3.2,5.3,9.7,6.3,17.4c0.5,3.8,1.4,7.5,2.6,10.5c2.4,6.5,6.4,6.1,9.1-1
			c1.4-3.7,2.3-8.2,3.6-12.2c1.2-3.6,2.3-7.4,3.9-10.3c3.5-6.5,8-5.8,10.4,1.7c1.1,3.3,1.8,7.4,2.5,11.3c0.8,4.9,1.8,9.7,3.8,12.8
			c2.3,3.4,4.9,3.1,7.1-1.5c1.4-3,2.5-6.6,3.4-10.3c1.4-5.6,2.7-11.1,5.1-15.2c3.7-6.2,8.1-5.5,10.5,2.1c1,2.9,1.5,6.5,2.2,9.8
			c0.7,3.4,1.3,7.1,2.2,10.1c2.6,8.7,7.2,8.3,10.4-0.8c0.9-2.6,1.4-5.5,2.2-8.2c1.1-3.8,2-7.8,3.3-11.1c4-9.8,9.4-9.4,12.3,0.8
			c1,3.3,1.3,7.5,2.2,11c0.8,3.6,1.7,7.2,2.9,10.1c2,4.9,5.3,4.8,7.7-0.3c1.6-3.4,2.8-7.7,4.2-11.9c0.2,0.1,0.6,0.4,1,0.8
			c0,0.4,0,0.8,0,1.1c-0.1,0.4-0.3,0.8-0.4,1.3c-1.5,7.1-3.7,12.8-7.3,15.6c-1,0-2.1,0.1-3.2,0.1c-3.8-3.3-5.6-10.2-6.8-18.1
			c-0.5-3-1-5.9-1.8-8.5c-2.2-7.4-6-7.9-9.2-1.1c-1.4,3.1-2.6,6.8-3.4,10.6c-1.7,7.9-3.8,14.7-7.8,18c-1,0-1.9,0.1-2.9,0.1
			c-2.7-2-4.6-5.8-5.7-11.1c-0.5-2.2-0.8-4.7-1.3-7c-0.7-3.4-1.3-7-2.3-9.9c-2.1-5.9-5.5-5.9-8.4-0.5c-1.9,3.5-3.1,7.9-4,12.5
			c-1.6,7.8-3.8,14-7.8,16.9C-270.4,234.4-271.2,234.4-272.1,234.4z"/>
	</g>
	<g>
		
			<linearGradient id="SVGID_5_" gradientUnits="userSpaceOnUse" x1="-405.4226" y1="897.873" x2="-354.482" y2="863.0298" gradientTransform="matrix(0.8614 -0.6288 0.5329 0.73 -403.9885 -667.6846)">
			<stop  offset="0" style="stop-color:#FFF23A"/>
			<stop  offset="4.010540e-02" style="stop-color:#FEE62D"/>
			<stop  offset="0.1171" style="stop-color:#FED41A"/>
			<stop  offset="0.1964" style="stop-color:#FDC90F"/>
			<stop  offset="0.2809" style="stop-color:#FDC60B"/>
			<stop  offset="0.6685" style="stop-color:#F28F3F"/>
			<stop  offset="0.8876" style="stop-color:#ED693C"/>
			<stop  offset="1" style="stop-color:#E83E39"/>
		</linearGradient>
		<path class="st6" d="M-272.1,195.1c-4.1,3.2-5.9,10.2-7.1,18.5c-0.5,3.8-1.5,7.4-2.6,10.4c-2,5.1-5.2,4.7-7.8-0.2
			c-2-3.6-3.1-8.3-4.3-12.9c-0.7-2.6-1.3-5.3-2.2-7.6c-3.8-10.6-9.5-11-12.7-0.8c-1,3.3-1.6,7.2-2.4,10.8c-0.7,3.2-1.2,6.7-2.2,9.5
			c-2,6.1-5.7,6.5-8.5,0.8c-1.5-3.2-2.7-7.2-4.1-11.2c-0.1,0-0.6,0.2-1,0.3c0,0.5,0,1.1,0,1.7c0.2,0.6,0.4,1.2,0.6,1.8
			c1.7,6.6,3.9,12,7.4,14.5c1,0,2.1,0.1,3.2,0.1c3.6-3.2,5.3-9.7,6.3-17.4c0.5-3.8,1.4-7.5,2.6-10.5c2.5-6.5,6.5-6,9.2,1
			c1.4,3.7,2.3,8.2,3.6,12.2c1.2,3.6,2.3,7.4,3.9,10.3c3.5,6.5,8,5.8,10.4-1.7c1.1-3.3,1.8-7.4,2.5-11.3c0.8-4.9,1.8-9.7,3.8-12.8
			c2.3-3.4,4.9-3.1,7.1,1.5c1.4,3,2.5,6.6,3.4,10.3c1.4,5.6,2.6,11.1,5.1,15.2c3.7,6.2,8.1,5.5,10.5-2.1c1-2.9,1.5-6.5,2.2-9.8
			c0.7-3.4,1.3-7.1,2.2-10.1c2.6-8.7,7.2-8.3,10.4,0.8c0.9,2.6,1.4,5.5,2.2,8.2c1.1,3.8,2,7.8,3.3,11.1c4,9.8,9.4,9.4,12.3-0.8
			c1-3.3,1.3-7.5,2.2-11c0.8-3.6,1.7-7.2,2.9-10.1c2-4.9,5.3-4.8,7.7,0.3c1.6,3.4,2.8,7.7,4.2,11.9c0.2-0.1,0.6-0.4,1-0.8
			c0-0.4,0-0.8,0-1.1c-0.1-0.4-0.3-0.8-0.4-1.3c-1.5-7.1-3.7-12.8-7.3-15.6c-1,0-2.1-0.1-3.2-0.1c-3.8,3.3-5.6,10.2-6.8,18.1
			c-0.5,3-1,5.9-1.8,8.5c-2.2,7.4-6,7.9-9.2,1.1c-1.4-3.1-2.6-6.8-3.4-10.6c-1.7-7.9-3.8-14.7-7.8-18c-1,0-1.9-0.1-2.9-0.1
			c-2.7,2-4.6,5.8-5.7,11.1c-0.5,2.2-0.8,4.7-1.3,7c-0.7,3.4-1.3,7-2.3,9.9c-2.1,5.9-5.5,5.9-8.4,0.5c-1.9-3.5-3.1-7.9-4-12.5
			c-1.6-7.8-3.8-14-7.8-16.9C-270.4,195.2-271.2,195.1-272.1,195.1z"/>
	</g>
</g>
</svg>
