<?xml version="1.0" encoding="utf-8"?>
<!-- Generator: Adobe Illustrator 18.1.1, SVG Export Plug-In . SVG Version: 6.00 Build 0)  -->
<!DOCTYPE svg PUBLIC "-//W3C//DTD SVG 1.1//EN" "http://www.w3.org/Graphics/SVG/1.1/DTD/svg11.dtd">
<svg version="1.1" xmlns="http://www.w3.org/2000/svg" xmlns:xlink="http://www.w3.org/1999/xlink" x="0px" y="0px"
	 viewBox="0 0 211.4 161.8" enable-background="new 0 0 211.4 161.8" xml:space="preserve">
<g id="Orbitals">
</g>
<g id="Backgrounds">
</g>
<g id="Formulas">
</g>
<g id="Captions">
</g>
<g id="Graph_2">
</g>
<g id="Funnel_2">
</g>
<g id="Atom_2">
</g>
<g id="Graph_1">
</g>
<g id="Funnel_1">
	<g>
		<linearGradient id="SVGID_1_" gradientUnits="userSpaceOnUse" x1="108.0169" y1="161.8258" x2="108.0169" y2="-149.0508">
			<stop  offset="0" style="stop-color:#ED1C24;stop-opacity:0"/>
			<stop  offset="1.118143e-02" style="stop-color:#D2181F;stop-opacity:0.2236"/>
			<stop  offset="2.688608e-02" style="stop-color:#B31217;stop-opacity:0.5377"/>
			<stop  offset="3.500000e-02" style="stop-color:#A70E13;stop-opacity:0.7"/>
			<stop  offset="5.520073e-02" style="stop-color:#C0151B;stop-opacity:0.7433"/>
			<stop  offset="8.333954e-02" style="stop-color:#DF1A22;stop-opacity:0.8036"/>
			<stop  offset="9.789062e-02" style="stop-color:#ED1C24;stop-opacity:0.8347"/>
			<stop  offset="0.1175" style="stop-color:#EF4724;stop-opacity:0.8396"/>
			<stop  offset="0.1472" style="stop-color:#F36D23;stop-opacity:0.8469"/>
			<stop  offset="0.1805" style="stop-color:#F68823;stop-opacity:0.8551"/>
			<stop  offset="0.2169" style="stop-color:#F99F23;stop-opacity:0.8641"/>
			<stop  offset="0.257" style="stop-color:#FCB221;stop-opacity:0.874"/>
			<stop  offset="0.3023" style="stop-color:#FFC31F;stop-opacity:0.8852"/>
			<stop  offset="0.3552" style="stop-color:#FFCF1C;stop-opacity:0.8983"/>
			<stop  offset="0.4207" style="stop-color:#FFD719;stop-opacity:0.9144"/>
			<stop  offset="0.5124" style="stop-color:#FFDC18;stop-opacity:0.9371"/>
			<stop  offset="0.7672" style="stop-color:#FFDE17"/>
		</linearGradient>
		<path fill="url(#SVGID_1_)" d="M186.1,18.5c0-6.7-35-12.1-78.1-12.1c-43.1,0-78,5.4-78.1,12.1c0,0,0,0,0,0c0,1.4,1.4,2.7,4.1,3.9
			c0.9,0.4,1.8,0.8,2.9,1.1C62.1,34,96.2,65.4,96.2,159.2h0.1c0,1.4,4.7,2.6,10.5,2.6c5.8,0,10.5-1.2,10.5-2.6
			c0-0.1-0.1-0.3-0.1-0.4c0.1-89.8,32.1-122.3,57.2-133.9c4.6-1.1,7.9-2.4,9.9-3.7C185.4,20.3,186.1,19.4,186.1,18.5
			C186.1,18.5,186.1,18.5,186.1,18.5z"/>
		<linearGradient id="SVGID_2_" gradientUnits="userSpaceOnUse" x1="105.7219" y1="38.1374" x2="105.7219" y2="-4.745743e-09">
			<stop  offset="0" style="stop-color:#FED514"/>
			<stop  offset="4.348934e-03" style="stop-color:#FED516"/>
			<stop  offset="0.1755" style="stop-color:#F6D539"/>
			<stop  offset="0.3695" style="stop-color:#F2D54A"/>
			<stop  offset="0.6057" style="stop-color:#EFD654"/>
			<stop  offset="1" style="stop-color:#EED657"/>
		</linearGradient>
		<polygon opacity="0.93" fill="url(#SVGID_2_)" points="186.6,38.1 0,38.1 43,0 211.4,0 		"/>
		<linearGradient id="SVGID_3_" gradientUnits="userSpaceOnUse" x1="110.94" y1="30.5858" x2="110.94" y2="-17.8109">
			<stop  offset="6.606744e-02" style="stop-color:#D4722F"/>
			<stop  offset="0.1019" style="stop-color:#E0922E"/>
			<stop  offset="0.1238" style="stop-color:#E7A42C"/>
			<stop  offset="0.1616" style="stop-color:#EFB629"/>
			<stop  offset="0.2089" style="stop-color:#F7C724"/>
			<stop  offset="0.2626" style="stop-color:#FDD31E"/>
			<stop  offset="0.3279" style="stop-color:#FFDB19"/>
			<stop  offset="0.4368" style="stop-color:#FFDE17"/>
		</linearGradient>
		<path fill="url(#SVGID_3_)" d="M189,18.5c0-6.7-35-12.1-78.1-12.1s-78,5.4-78.1,12.1c0,0,0,0,0,0c0,1.4,1.4,2.7,4.1,3.9
			c1,0.4,1.9,0.7,2.9,1.1c12.3,4.2,39.5,7.1,71,7.1c28,0,52.5-2.3,66.3-5.7c3.5-1.6,6.8-2.8,9.9-3.7C188.4,20.3,189,19.4,189,18.5
			C189,18.5,189,18.5,189,18.5z"/>
	</g>
	<g id="Axes_3_">
		<g>
			<path fill="none" d="M109.7,29.7"/>
		</g>
		<path fill="none" stroke="#000000" stroke-width="0.75" stroke-miterlimit="10" d="M109.7,43.5"/>
		<path fill="none" stroke="#000000" stroke-width="0.75" stroke-miterlimit="10" d="M109.7,92.5"/>
		<path fill="none" stroke="#000000" stroke-width="0.75" stroke-miterlimit="10" d="M109.7,95"/>
		<g>
			<path fill="none" d="M190.4,17.3"/>
		</g>
		<g>
			<path fill="none" d="M110,17.1"/>
		</g>
	</g>
</g>
<g id="Atom_1">
</g>
</svg>
