<?xml version="1.0" encoding="utf-8"?>
<!-- Generator: Adobe Illustrator 18.1.1, SVG Export Plug-In . SVG Version: 6.00 Build 0)  -->
<!DOCTYPE svg PUBLIC "-//W3C//DTD SVG 1.1//EN" "http://www.w3.org/Graphics/SVG/1.1/DTD/svg11.dtd">
<svg version="1.1" xmlns="http://www.w3.org/2000/svg" xmlns:xlink="http://www.w3.org/1999/xlink" x="0px" y="0px"
	 viewBox="0 0 189 178.2" enable-background="new 0 0 189 178.2" xml:space="preserve">
<g id="Orbitals">
</g>
<g id="Backgrounds">
</g>
<g id="Formulas">
</g>
<g id="Captions">
</g>
<g id="Graph_2">
</g>
<g id="Funnel_2">
</g>
<g id="Atom_2">
</g>
<g id="Graph_1">
	<g>
		<g>
			<line fill="none" stroke="#000000" stroke-width="0.25" stroke-miterlimit="10" x1="1.7" y1="15.3" x2="2.2" y2="15.3"/>
			
				<line fill="none" stroke="#000000" stroke-width="0.25" stroke-miterlimit="10" stroke-dasharray="1.0037,1.0037" x1="3.2" y1="15.3" x2="177.3" y2="15.3"/>
			<line fill="none" stroke="#000000" stroke-width="0.25" stroke-miterlimit="10" x1="177.8" y1="15.3" x2="178.3" y2="15.3"/>
		</g>
	</g>
	<g>
		<g>
			<g>
				<g>
					<line fill="none" stroke="#F1F2F2" stroke-width="0.5" stroke-miterlimit="10" x1="1.7" y1="123.3" x2="2.2" y2="123.3"/>
					
						<line fill="none" stroke="#F1F2F2" stroke-width="0.5" stroke-miterlimit="10" stroke-dasharray="1.0037,1.0037" x1="3.2" y1="123.3" x2="177.3" y2="123.3"/>
					<line fill="none" stroke="#F1F2F2" stroke-width="0.5" stroke-miterlimit="10" x1="177.8" y1="123.3" x2="178.3" y2="123.3"/>
				</g>
			</g>
			<g>
				<g>
					<line fill="none" stroke="#F1F2F2" stroke-width="0.5" stroke-miterlimit="10" x1="1.7" y1="104.9" x2="2.2" y2="104.9"/>
					
						<line fill="none" stroke="#F1F2F2" stroke-width="0.5" stroke-miterlimit="10" stroke-dasharray="1.0037,1.0037" x1="3.2" y1="104.9" x2="177.3" y2="104.9"/>
					<line fill="none" stroke="#F1F2F2" stroke-width="0.5" stroke-miterlimit="10" x1="177.8" y1="104.9" x2="178.3" y2="104.9"/>
				</g>
			</g>
			<g>
				<g>
					<line fill="none" stroke="#F1F2F2" stroke-width="0.5" stroke-miterlimit="10" x1="1.7" y1="141.6" x2="2.2" y2="141.6"/>
					
						<line fill="none" stroke="#F1F2F2" stroke-width="0.5" stroke-miterlimit="10" stroke-dasharray="1.0037,1.0037" x1="3.2" y1="141.6" x2="177.3" y2="141.6"/>
					<line fill="none" stroke="#F1F2F2" stroke-width="0.5" stroke-miterlimit="10" x1="177.8" y1="141.6" x2="178.3" y2="141.6"/>
				</g>
			</g>
			<g>
				<g>
					<line fill="none" stroke="#F1F2F2" stroke-width="0.5" stroke-miterlimit="10" x1="1.7" y1="159.9" x2="2.2" y2="159.9"/>
					
						<line fill="none" stroke="#F1F2F2" stroke-width="0.5" stroke-miterlimit="10" stroke-dasharray="1.0037,1.0037" x1="3.2" y1="159.9" x2="177.3" y2="159.9"/>
					<line fill="none" stroke="#F1F2F2" stroke-width="0.5" stroke-miterlimit="10" x1="177.8" y1="159.9" x2="178.3" y2="159.9"/>
				</g>
			</g>
			<g>
				<g>
					<line fill="none" stroke="#F1F2F2" stroke-width="0.5" stroke-miterlimit="10" x1="1.7" y1="178.2" x2="2.2" y2="178.2"/>
					
						<line fill="none" stroke="#F1F2F2" stroke-width="0.5" stroke-miterlimit="10" stroke-dasharray="1.0037,1.0037" x1="3.2" y1="178.2" x2="177.3" y2="178.2"/>
					<line fill="none" stroke="#F1F2F2" stroke-width="0.5" stroke-miterlimit="10" x1="177.8" y1="178.2" x2="178.3" y2="178.2"/>
				</g>
			</g>
			<g>
				<g>
					<line fill="none" stroke="#F1F2F2" stroke-width="0.5" stroke-miterlimit="10" x1="1.7" y1="86.6" x2="2.2" y2="86.6"/>
					
						<line fill="none" stroke="#F1F2F2" stroke-width="0.5" stroke-miterlimit="10" stroke-dasharray="1.0037,1.0037" x1="3.2" y1="86.6" x2="177.3" y2="86.6"/>
					<line fill="none" stroke="#F1F2F2" stroke-width="0.5" stroke-miterlimit="10" x1="177.8" y1="86.6" x2="178.3" y2="86.6"/>
				</g>
			</g>
			<g>
				<g>
					<line fill="none" stroke="#F1F2F2" stroke-width="0.5" stroke-miterlimit="10" x1="1.7" y1="68.3" x2="2.2" y2="68.3"/>
					
						<line fill="none" stroke="#F1F2F2" stroke-width="0.5" stroke-miterlimit="10" stroke-dasharray="1.0037,1.0037" x1="3.2" y1="68.3" x2="177.3" y2="68.3"/>
					<line fill="none" stroke="#F1F2F2" stroke-width="0.5" stroke-miterlimit="10" x1="177.8" y1="68.3" x2="178.3" y2="68.3"/>
				</g>
			</g>
			<g>
				<g>
					<line fill="none" stroke="#F1F2F2" stroke-width="0.5" stroke-miterlimit="10" x1="1.7" y1="31.7" x2="2.2" y2="31.7"/>
					
						<line fill="none" stroke="#F1F2F2" stroke-width="0.5" stroke-miterlimit="10" stroke-dasharray="1.0037,1.0037" x1="3.2" y1="31.7" x2="177.3" y2="31.7"/>
					<line fill="none" stroke="#F1F2F2" stroke-width="0.5" stroke-miterlimit="10" x1="177.8" y1="31.7" x2="178.3" y2="31.7"/>
				</g>
			</g>
			<g>
				<g>
					<line fill="none" stroke="#F1F2F2" stroke-width="0.5" stroke-miterlimit="10" x1="1.7" y1="50" x2="2.2" y2="50"/>
					
						<line fill="none" stroke="#F1F2F2" stroke-width="0.5" stroke-miterlimit="10" stroke-dasharray="1.0037,1.0037" x1="3.2" y1="50" x2="177.3" y2="50"/>
					<line fill="none" stroke="#F1F2F2" stroke-width="0.5" stroke-miterlimit="10" x1="177.8" y1="50" x2="178.3" y2="50"/>
				</g>
			</g>
		</g>
		<g>
			<g>
				<polyline fill="none" points="1.7,15.3 1.7,178.2 1.7,0 				"/>
				<g>
					<polyline fill="none" stroke="#F1F2F2" stroke-miterlimit="10" points="1.7,15.3 1.7,178.2 1.7,1.1 					"/>
					<g>
						<polygon fill="#F1F2F2" points="3.4,3.1 1.7,1.4 0,3.1 0,1.7 1.7,0 3.4,1.7 						"/>
					</g>
				</g>
			</g>
			<g>
				<line fill="none" x1="2.4" y1="15.3" x2="189" y2="15.3"/>
				<g>
					<line fill="none" stroke="#F1F2F2" stroke-miterlimit="10" x1="2.4" y1="15.3" x2="187.9" y2="15.3"/>
					<g>
						<polygon fill="#F1F2F2" points="185.9,17 187.6,15.3 185.9,13.6 187.3,13.6 189,15.3 187.3,17 						"/>
					</g>
				</g>
			</g>
		</g>
	</g>
</g>
<g id="Funnel_1">
</g>
<g id="Atom_1">
</g>
</svg>
